<svg width="1250" height="169" viewBox="0 0 1250 169" fill="none" xmlns="http://www.w3.org/2000/svg">
<path d="M93.4917 150.433C99.3828 158.645 97.6598 169.412 93.9907 174.953L93.9843 174.963C90.643 180.298 85.7534 182.832 79.4669 182.685C75.9535 182.539 72.378 182.234 68.7901 181.927L68.7783 181.926C65.4021 181.72 62.014 181.668 58.6495 182.735L58.6372 182.739L58.6253 182.743C56.3181 183.604 54.3666 184.896 52.4672 186.151L52.4663 186.151C49.787 187.891 47.236 189.746 44.383 191.355L44.3839 191.355C37.4545 195.184 28.2268 193.817 22.8634 188.007L22.8614 188.005C17.937 182.721 15.8853 176.563 16.8787 169.585L16.9845 168.908L16.9846 168.903L17.1453 167.951C18.8852 158.159 23.195 149.795 30.2225 142.79L30.2255 142.787C39.274 133.63 50.3114 129.872 63.1231 131.774L63.1225 131.775C71.7366 133.077 79.1082 136.833 85.9219 142.453L85.9248 142.455C88.513 144.557 90.9023 147.093 92.8744 149.962L93.3738 150.689L93.4917 150.433Z" stroke="#72A45C"/>
<path d="M71.4384 95.434C75.0316 100.308 75.6559 105.756 74.0592 111.542L74.0595 111.543C72.8736 115.57 70.7746 119.015 67.445 121.499L67.4454 121.5C61.7847 125.731 54.3418 125.162 49.289 120.151L49.2839 120.145L49.2775 120.14C48.4666 119.384 47.8065 118.568 47.1234 117.721L46.6154 117.092L46.5586 117.216C44.8029 114.414 43.6218 111.424 43.3594 108.103L43.3581 108.091C42.8695 103.386 43.0773 98.6141 44.2509 94.0306L44.2537 94.0212L44.3342 93.6952C44.7604 92.0693 45.5049 90.4875 46.4861 89.1294C48.1999 86.7574 50.5035 85.5476 53.3841 85.3381C56.5221 85.227 59.3439 86.1207 62.0013 87.4647L62.0063 87.467C65.7354 89.2998 68.9199 92.058 71.4384 95.434Z" stroke="#72A45C"/>
<path d="M31.4532 101.012C34.2561 105.091 36.3885 108.419 37.4203 112.138L37.4194 112.138C38.77 117.202 38.6129 122.047 35.8854 126.609L35.8822 126.614C32.875 131.794 26.9552 134.354 21.1571 132.992L21.1524 132.99C16.6846 131.987 13.1114 129.584 10.1702 126.023L10.1698 126.022C5.32617 120.186 4.96859 113.567 7.59802 106.662L7.60159 106.649L7.85646 105.958C9.09073 102.755 10.9821 99.8794 13.4995 97.5745L14.0481 97.0894L14.0568 97.082L14.5089 96.6902C16.7739 94.788 19.1345 93.7105 22.1635 94.03C24.3805 94.3353 26.3414 95.5093 28.1199 97.0066L28.474 97.3102C29.149 97.9404 29.7646 98.641 30.321 99.2768C30.7055 99.7162 31.0788 100.141 31.4169 100.476L31.2258 100.682L31.4532 101.012Z" stroke="#72A45C"/>
<path d="M12.3325 136.443C14.1742 139.405 15.9458 141.874 16.6679 144.744L16.6707 144.754L16.6739 144.765C17.3845 147.142 17.4208 149.596 16.7758 152.139L16.7752 152.141C15.2327 158.306 9.11039 161.448 3.29237 158.919C-0.112247 157.43 -2.88301 154.966 -4.41739 151.797C-5.94721 148.638 -6.26835 144.739 -4.7103 140.327L-4.70996 140.328C-3.54068 137.193 -1.90007 134.47 0.737206 132.61C2.04202 131.689 3.40192 131.233 4.72445 131.242C6.04382 131.251 7.36401 131.724 8.59627 132.724L8.60678 132.733L8.61819 132.741C9.13368 133.113 9.57416 133.435 9.86403 133.795L9.88604 133.823L9.91161 133.847C10.3099 134.218 10.6907 134.646 11.0552 135.076C11.4112 135.496 11.7667 135.937 12.0844 136.287L12.1536 136.363L12.2474 136.405L12.3325 136.443Z" stroke="#72A45C"/>
<path d="M99.6832 118.748L99.6823 118.748C100.517 121.218 100.344 124.146 99.4255 126.868C98.5087 129.584 96.8666 132.043 94.8282 133.593L94.8273 133.593C90.6986 136.527 85.1228 136.004 81.6727 131.9C79.3484 129.019 78.0442 125.977 78.0695 122.265L78.0697 122.255L78.0696 122.243C77.9549 119.003 78.0052 115.77 79.0034 112.734L79.005 112.727L79.1168 112.387C79.6938 110.698 80.5856 109.17 81.9802 108.34L81.9939 108.331L82.008 108.322L82.311 108.126C83.838 107.199 85.5068 107.085 87.1307 107.595L87.146 107.599L87.1619 107.603C93.2436 109.08 97.6272 112.764 99.6832 118.748Z" stroke="#72A45C"/>
<path d="M518.576 179.22C518.803 189.324 511.304 197.239 505.147 199.742L505.136 199.747C499.367 202.265 493.9 201.596 488.794 197.927C485.976 195.823 483.197 193.553 480.408 191.274L480.399 191.267C477.729 189.191 474.961 187.235 471.582 186.217L471.569 186.213L471.557 186.21C469.167 185.618 466.827 185.583 464.55 185.547L464.549 185.547C461.356 185.47 458.203 185.561 454.939 185.28L454.94 185.28C447.059 184.529 440.214 178.192 439.066 170.369L439.066 170.366C437.984 163.224 439.766 156.983 444.524 151.784L444.994 151.285L444.997 151.281L445.667 150.585C452.631 143.485 460.909 139.014 470.664 137.198L470.668 137.197C483.307 134.746 494.539 137.874 504.04 146.676L504.039 146.677C510.415 152.614 514.38 159.875 516.832 168.361L516.833 168.364C517.783 171.56 518.324 175.002 518.332 178.484L518.334 179.366L518.576 179.22Z" stroke="#72A45C"/>
<path d="M531.417 121.373C531.632 127.424 529.072 132.274 524.488 136.149L524.488 136.15C521.235 138.805 517.558 140.464 513.408 140.635L513.408 140.636C506.347 140.933 500.524 136.262 499.182 129.273L499.181 129.266L499.179 129.257C498.936 128.176 498.852 127.13 498.766 126.045L498.702 125.239L498.585 125.309C498.717 122.005 499.43 118.871 501.088 115.981L501.094 115.971C503.346 111.811 506.211 107.989 509.767 104.868L509.775 104.862L510.026 104.638C511.295 103.537 512.803 102.651 514.379 102.084C517.133 101.094 519.717 101.395 522.213 102.848C524.866 104.528 526.691 106.858 528.126 109.468L528.129 109.473C530.172 113.091 531.244 117.165 531.417 121.373Z" stroke="#72A45C"/>
<path d="M495.263 103.407C495.274 108.356 495.156 112.307 493.908 115.959L493.907 115.959C492.164 120.901 489.299 124.812 484.472 127.038L484.467 127.041C479.061 129.619 472.729 128.391 468.712 123.993L468.709 123.989C465.587 120.64 463.995 116.638 463.577 112.039L463.577 112.038C462.873 104.487 466.314 98.8213 472.382 94.6056L472.392 94.5971L472.993 94.1703C475.819 92.2233 479.004 90.917 482.383 90.4354L483.11 90.3447L483.121 90.3434L483.715 90.2753C486.659 89.9836 489.216 90.4267 491.536 92.4002C493.193 93.9036 494.149 95.9796 494.772 98.2194L494.893 98.6699C495.094 99.5712 495.207 100.497 495.308 101.336C495.377 101.916 495.445 102.477 495.535 102.945L495.261 103.006L495.263 103.407Z" stroke="#72A45C"/>
<path d="M459.479 121.861C459.328 125.346 459.397 128.383 458.373 131.16L458.369 131.17L458.366 131.181C457.611 133.544 456.255 135.591 454.287 137.325L454.286 137.326C449.533 141.545 442.705 140.682 439.33 135.311C437.36 132.16 436.464 128.562 436.986 125.08C437.507 121.609 439.443 118.209 443.219 115.447L443.219 115.448C445.954 113.52 448.845 112.199 452.072 112.151C453.669 112.128 455.049 112.519 456.135 113.273C457.219 114.025 458.042 115.161 458.495 116.682L458.499 116.695L458.503 116.708C458.719 117.307 458.9 117.821 458.937 118.281L458.939 118.317L458.947 118.351C459.066 118.882 459.139 119.451 459.197 120.012C459.253 120.559 459.298 121.124 459.363 121.592L459.377 121.694L459.431 121.782L459.479 121.861Z" stroke="#72A45C"/>
<path d="M541.572 156.561L541.571 156.561C540.866 159.071 539.071 161.39 536.776 163.118C534.486 164.843 531.742 165.945 529.185 166.074L529.184 166.074C524.12 166.165 519.812 162.586 519.282 157.251C518.989 153.561 519.629 150.314 521.746 147.264L521.752 147.256L521.758 147.246C523.493 144.506 525.359 141.867 527.897 139.923L527.902 139.919L528.186 139.701C529.616 138.633 531.214 137.875 532.834 137.977L532.85 137.978L532.867 137.978L533.228 137.987C535.012 138.084 536.453 138.932 537.506 140.269L537.516 140.282L537.527 140.293C541.714 144.946 543.252 150.461 541.572 156.561Z" stroke="#72A45C"/>
<path d="M818.908 155.711C824.475 164.146 822.335 174.838 818.454 180.233L818.447 180.243C814.901 185.444 809.917 187.786 803.641 187.395C800.136 187.113 796.575 186.669 793.001 186.223L792.99 186.222C789.624 185.884 786.241 185.701 782.837 186.637L782.825 186.64L782.813 186.644C780.474 187.414 778.474 188.63 776.527 189.81L776.526 189.81C773.781 191.444 771.16 193.199 768.247 194.696L768.248 194.696C761.175 198.253 752.007 196.528 746.873 190.515L746.871 190.512C742.156 185.041 740.345 178.809 741.609 171.875L741.741 171.202L741.741 171.197L741.938 170.251C744.057 160.534 748.689 152.344 755.983 145.618L755.986 145.615C765.383 136.816 776.558 133.489 789.286 135.888L789.286 135.889C797.843 137.524 805.063 141.563 811.653 147.444L811.656 147.446C814.161 149.647 816.45 152.274 818.309 155.218L818.78 155.963L818.908 155.711Z" stroke="#72A45C"/>
<path d="M799.007 99.8979C802.408 104.907 802.82 110.376 801 116.095L801 116.096C799.659 120.075 797.428 123.436 794.004 125.788L794.005 125.789C788.184 129.797 780.769 128.939 775.914 123.736L775.909 123.73L775.903 123.724C775.122 122.938 774.494 122.097 773.845 121.224L773.361 120.575L773.3 120.697C771.654 117.829 770.59 114.796 770.457 111.467L770.456 111.455C770.151 106.734 770.544 101.974 771.894 97.4397L771.897 97.4305L771.991 97.1078C772.48 95.4997 773.285 93.948 774.318 92.629C776.123 90.3254 778.472 89.2059 781.358 89.1085C784.498 89.1193 787.283 90.1219 789.886 91.5681L789.891 91.5706C793.546 93.5468 796.621 96.4267 799.007 99.8979Z" stroke="#72A45C"/>
<path d="M758.835 103.919C761.478 108.103 763.479 111.512 764.366 115.268L764.365 115.268C765.518 120.381 765.173 125.216 762.27 129.669L762.266 129.674C759.06 134.733 753.046 137.062 747.305 135.475L747.3 135.473C742.875 134.298 739.398 131.757 736.597 128.084L736.597 128.083C731.983 122.064 731.883 115.436 734.778 108.639L734.783 108.626L735.064 107.945C736.422 104.793 738.423 101.992 741.028 99.7869L741.595 99.3235L741.604 99.3164L742.071 98.9425C744.409 97.1296 746.809 96.1446 749.823 96.5815C752.027 96.9727 753.941 98.222 755.66 99.7872L756.002 100.104C756.652 100.76 757.24 101.484 757.771 102.141C758.138 102.595 758.495 103.034 758.82 103.382L758.621 103.58L758.835 103.919Z" stroke="#72A45C"/>
<path d="M738.353 138.581C740.078 141.612 741.752 144.148 742.363 147.043L742.365 147.054L742.368 147.065C742.985 149.467 742.926 151.922 742.183 154.438L742.183 154.439C740.402 160.54 734.162 163.442 728.447 160.689C725.102 159.068 722.429 156.498 721.019 153.273C719.613 150.056 719.444 146.148 721.172 141.8L721.172 141.801C722.462 138.713 724.208 136.057 726.915 134.3C728.255 133.431 729.631 133.027 730.952 133.088C732.27 133.148 733.571 133.672 734.764 134.719L734.774 134.728L734.785 134.737C735.286 135.129 735.713 135.468 735.989 135.838L736.01 135.867L736.035 135.892C736.418 136.278 736.782 136.721 737.13 137.165C737.469 137.599 737.807 138.053 738.111 138.415L738.177 138.494L738.269 138.54L738.353 138.581Z" stroke="#72A45C"/>
<path d="M826.325 124.291L826.324 124.292C827.062 126.792 826.776 129.711 825.752 132.395C824.731 135.074 822.994 137.467 820.897 138.936L820.896 138.937C816.657 141.707 811.105 140.969 807.817 136.733C805.607 133.764 804.421 130.675 804.591 126.966L804.592 126.956L804.592 126.944C804.603 123.702 804.779 120.474 805.894 117.478L805.896 117.472L806.021 117.136C806.663 115.471 807.614 113.979 809.039 113.203L809.053 113.196L809.068 113.187L809.378 113.002C810.94 112.135 812.612 112.087 814.215 112.659L814.23 112.664L814.246 112.668C820.266 114.38 824.503 118.232 826.325 124.291Z" stroke="#72A45C"/>
<path d="M1161.71 157.736C1163.2 161.594 1161.7 165.764 1159.77 167.866L1159.57 168.075L1159.56 168.085C1157.64 170.107 1155.31 170.776 1152.59 170.161C1151.03 169.777 1149.45 169.316 1147.86 168.85L1147.85 168.847C1146.35 168.446 1144.78 168.102 1143.12 168.281L1143.11 168.282L1143.09 168.284C1141.94 168.467 1140.92 168.883 1139.96 169.273L1139.96 169.273C1138.57 169.819 1137.28 170.411 1135.86 170.873L1135.86 170.872C1132.51 171.927 1128.61 170.516 1126.8 167.523L1126.8 167.521C1125.05 164.672 1124.73 161.703 1125.91 158.631L1125.91 158.627L1126.07 158.217C1127.73 154.019 1130.39 150.693 1134.14 148.212L1134.15 148.211L1134.6 147.913C1139.31 144.921 1144.37 144.349 1149.71 146.279L1149.71 146.28C1153.41 147.631 1156.35 149.958 1158.88 153.077L1158.88 153.081C1159.84 154.243 1160.67 155.579 1161.28 157.025L1161.63 157.837L1161.71 157.736Z" stroke="#72A45C"/>
<path d="M1156.61 130.544C1157.74 132.976 1157.54 135.395 1156.33 137.79L1156.33 137.791C1155.45 139.455 1154.23 140.766 1152.57 141.551L1152.57 141.551C1149.76 142.881 1146.61 141.991 1144.86 139.385L1144.86 139.379L1144.85 139.373C1144.57 138.977 1144.35 138.566 1144.12 138.121L1143.78 137.465C1143.36 136.206 1143.17 134.93 1143.33 133.607L1143.33 133.595L1143.38 133.195C1143.61 131.198 1144.12 129.242 1144.99 127.441L1145 127.432L1145.13 127.167C1145.45 126.554 1145.88 125.986 1146.38 125.52C1147.31 124.668 1148.37 124.355 1149.6 124.51C1150.8 124.708 1151.82 125.216 1152.77 125.896L1153.17 126.197L1153.17 126.2C1154.64 127.336 1155.8 128.83 1156.61 130.543L1156.61 130.544Z" stroke="#72A45C"/>
<path d="M1138.1 129.405C1139 131.5 1139.63 133.153 1139.75 134.87L1139.76 134.87C1139.9 137.218 1139.4 139.304 1137.82 141.039L1137.81 141.044C1136.07 143.013 1133.3 143.598 1130.92 142.506L1130.92 142.504C1129.06 141.674 1127.71 140.312 1126.74 138.488L1126.74 138.487C1125.14 135.524 1125.56 132.618 1127.33 129.813L1127.34 129.802L1127.51 129.522C1128.4 128.133 1129.58 126.978 1131.01 126.185L1131.02 126.18L1131.25 126.049C1132.4 125.422 1133.48 125.179 1134.72 125.566C1135.68 125.902 1136.45 126.632 1137.13 127.522C1137.37 127.853 1137.57 128.212 1137.77 128.549C1137.85 128.693 1137.94 128.842 1138.02 128.983L1137.95 129.036L1138.1 129.405Z" stroke="#72A45C"/>
<path d="M1127.43 147.397L1127.45 147.666C1127.55 148.749 1127.35 149.808 1126.85 150.852L1126.85 150.853C1125.66 153.342 1122.81 154.139 1120.56 152.571C1119.21 151.622 1118.23 150.312 1117.85 148.818C1117.47 147.332 1117.66 145.621 1118.73 143.833C1119.53 142.557 1120.48 141.534 1121.76 140.968C1122.39 140.691 1122.99 140.622 1123.52 140.733C1124.04 140.843 1124.54 141.14 1124.97 141.66L1124.98 141.67L1124.99 141.681C1125.19 141.902 1125.33 142.06 1125.41 142.21L1125.43 142.242L1125.45 142.27C1125.59 142.46 1125.71 142.676 1125.84 142.901C1125.95 143.114 1126.08 143.356 1126.19 143.547L1126.25 143.636L1126.3 143.672C1126.82 145.068 1127.32 146.206 1127.43 147.397Z" stroke="#72A45C"/>
<path d="M1167.17 143.527L1167.17 143.527C1167.31 144.642 1166.99 145.884 1166.35 146.988C1165.75 148.022 1164.9 148.892 1163.97 149.396L1163.78 149.491C1161.78 150.37 1159.48 149.67 1158.38 147.64C1157.62 146.178 1157.33 144.756 1157.66 143.163L1157.66 143.153L1157.66 143.143L1157.76 142.596C1157.99 141.328 1158.3 140.115 1158.92 139.038L1158.92 139.031L1159.08 138.759C1159.47 138.14 1159.94 137.654 1160.51 137.453L1160.53 137.447L1160.54 137.441L1160.68 137.386C1161.37 137.136 1162.05 137.225 1162.68 137.568L1162.69 137.576L1162.71 137.583C1165.23 138.765 1166.81 140.747 1167.17 143.527Z" stroke="#72A45C"/>
<path d="M992.079 194.701C991.729 198.823 988.552 201.913 985.899 202.957L985.627 203.058L985.615 203.062C983.003 204.039 980.616 203.619 978.439 201.873C977.203 200.843 975.988 199.737 974.764 198.622L974.755 198.615C973.579 197.594 972.326 196.6 970.751 196.032L970.74 196.028L970.728 196.024C969.614 195.684 968.512 195.609 967.474 195.537L967.474 195.537C965.992 195.422 964.57 195.387 963.091 195.179L963.092 195.179C959.618 194.658 956.734 191.682 956.413 188.195L956.412 188.193C956.089 184.866 957.106 182.058 959.515 179.815L959.518 179.812L959.839 179.513C963.167 176.465 967.021 174.644 971.481 174.059L971.485 174.059L972.024 173.991C977.566 173.365 982.369 175.071 986.32 179.146L986.319 179.147C989.055 181.983 990.675 185.362 991.581 189.275L991.582 189.279C991.933 190.744 992.093 192.309 992.013 193.878L991.968 194.76L992.079 194.701Z" stroke="#72A45C"/>
<path d="M999.417 168.027C999.369 170.709 998.128 172.795 995.988 174.416L995.988 174.417C994.469 175.527 992.798 176.172 990.961 176.149L990.96 176.149C987.852 176.113 985.409 173.93 984.983 170.824L984.982 170.816L984.981 170.809C984.9 170.329 984.887 169.866 984.875 169.364L984.856 168.625C985.028 167.309 985.419 166.079 986.143 164.961L986.15 164.95L986.363 164.609C987.446 162.915 988.764 161.383 990.337 160.145L990.344 160.139L990.577 159.958C991.133 159.548 991.772 159.227 992.43 159.029C993.632 158.668 994.725 158.852 995.768 159.534C996.753 160.234 997.453 161.141 998.002 162.165L998.228 162.611L998.231 162.616C999.057 164.282 999.442 166.132 999.419 168.026L999.417 168.027Z" stroke="#72A45C"/>
<path d="M983.285 158.892C983.168 161.165 983.017 162.931 982.373 164.528L982.374 164.528C981.473 166.701 980.107 168.355 977.927 169.222L977.921 169.225C975.488 170.229 972.742 169.541 971.085 167.518L971.082 167.514C969.777 165.954 969.163 164.14 969.086 162.072L969.087 162.071C968.954 158.711 970.603 156.281 973.425 154.537L973.435 154.53L973.714 154.354C975.118 153.493 976.686 152.974 978.32 152.888L978.33 152.887L978.597 152.871C979.904 152.812 980.982 153.068 981.925 153.958C982.641 154.681 983.017 155.676 983.237 156.773C983.304 157.175 983.331 157.588 983.357 157.975C983.368 158.141 983.38 158.312 983.395 158.475L983.305 158.491L983.285 158.892Z" stroke="#72A45C"/>
<path d="M965.805 170.384L965.703 170.633C965.317 171.65 964.676 172.516 963.767 173.234L963.766 173.235C961.609 174.951 958.695 174.417 957.364 172.024C956.565 170.578 956.26 168.972 956.57 167.461C956.879 165.958 957.804 164.505 959.55 163.368C960.824 162.57 962.125 162.066 963.528 162.12C964.214 162.147 964.781 162.346 965.208 162.678C965.634 163.009 965.952 163.494 966.109 164.149L966.112 164.162L966.116 164.176C966.203 164.465 966.26 164.668 966.265 164.837L966.266 164.873L966.272 164.907C966.311 165.137 966.329 165.387 966.342 165.643C966.354 165.886 966.362 166.159 966.38 166.381L966.389 166.484L966.419 166.539C966.277 168.022 966.226 169.264 965.805 170.384Z" stroke="#72A45C"/>
<path d="M647.909 147.71C647.554 151.832 644.375 154.918 641.72 155.96L641.448 156.06L641.436 156.065C638.823 157.038 636.437 156.616 634.262 154.868C633.027 153.837 631.813 152.73 630.59 151.614L630.581 151.606C629.406 150.584 628.154 149.589 626.58 149.019L626.569 149.015L626.557 149.011C625.443 148.67 624.341 148.594 623.304 148.521L623.303 148.52C621.822 148.404 620.399 148.368 618.921 148.158L618.922 148.158C615.448 147.634 612.567 144.654 612.249 141.167L612.249 141.165C611.93 137.838 612.949 135.031 615.361 132.79L615.364 132.787L615.685 132.488C619.016 129.444 622.872 127.627 627.333 127.047L627.337 127.047L627.875 126.979C633.418 126.359 638.219 128.07 642.166 132.149L642.165 132.15C644.898 134.989 646.514 138.37 647.417 142.284L647.417 142.288C647.767 143.753 647.926 145.318 647.844 146.887L647.798 147.769L647.909 147.71Z" stroke="#72A45C"/>
<path d="M655.275 121.043C655.224 123.725 653.98 125.81 651.839 127.429L651.839 127.43C650.319 128.539 648.648 129.182 646.811 129.157L646.81 129.157C643.702 129.117 641.261 126.932 640.838 123.825L640.837 123.818L640.836 123.81C640.755 123.33 640.743 122.867 640.731 122.366L640.713 121.627C640.886 120.31 641.279 119.081 642.004 117.963L642.011 117.953L642.224 117.612C643.309 115.919 644.629 114.388 646.203 113.152L646.21 113.146L646.443 112.965C646.999 112.555 647.639 112.235 648.297 112.038C649.5 111.678 650.592 111.863 651.634 112.546C652.619 113.248 653.318 114.156 653.866 115.18L654.092 115.626L654.094 115.631C654.919 117.298 655.302 119.149 655.276 121.043L655.275 121.043Z" stroke="#72A45C"/>
<path d="M639.152 111.892C639.033 114.165 638.88 115.931 638.235 117.527L638.235 117.527C637.332 119.699 635.965 121.352 633.783 122.216L633.777 122.22C631.344 123.221 628.599 122.53 626.943 120.505L626.941 120.501C625.637 118.94 625.025 117.125 624.95 115.057L624.951 115.056C624.822 111.696 626.473 109.268 629.297 107.527L629.307 107.52L629.586 107.344C630.991 106.485 632.559 105.967 634.193 105.882L634.204 105.882L634.47 105.866C635.777 105.808 636.856 106.065 637.798 106.956C638.513 107.68 638.887 108.676 639.106 109.773C639.173 110.174 639.2 110.587 639.225 110.975C639.236 111.14 639.248 111.312 639.263 111.475L639.173 111.491L639.152 111.892Z" stroke="#72A45C"/>
<path d="M621.66 123.365L621.558 123.615C621.171 124.631 620.529 125.497 619.62 126.214L619.618 126.215C617.46 127.929 614.547 127.392 613.218 124.997C612.42 123.55 612.117 121.944 612.428 120.433C612.739 118.931 613.666 117.479 615.413 116.343C616.688 115.546 617.989 115.044 619.392 115.1C620.078 115.128 620.644 115.327 621.072 115.66C621.497 115.99 621.815 116.476 621.971 117.131L621.974 117.144L621.978 117.158C622.065 117.447 622.122 117.651 622.126 117.819L622.127 117.855L622.133 117.89C622.171 118.12 622.19 118.37 622.202 118.626C622.214 118.869 622.221 119.142 622.24 119.364L622.248 119.466L622.278 119.521C622.135 121.005 622.083 122.247 621.66 123.365Z" stroke="#72A45C"/>
<path d="M659.062 137.348L659.061 137.348C658.699 138.412 657.863 139.386 656.804 140.096C655.811 140.762 654.663 141.169 653.605 141.212L653.395 141.215C651.214 141.127 649.454 139.488 649.352 137.178C649.313 135.531 649.676 134.126 650.676 132.842L650.682 132.834L650.688 132.825L651.014 132.375C651.779 131.339 652.595 130.387 653.619 129.689L653.624 129.684L653.888 129.51C654.506 129.123 655.143 128.894 655.747 128.965L655.763 128.967L655.779 128.968L655.928 128.98C656.66 129.059 657.233 129.438 657.641 130.02L657.651 130.034L657.662 130.046C659.411 132.218 659.954 134.689 659.062 137.348Z" stroke="#72A45C"/>
<path d="M253.964 157.947C256.439 161.262 256.116 165.682 254.825 168.225L254.689 168.48L254.682 168.492C253.378 170.956 251.314 172.227 248.527 172.367C246.919 172.418 245.277 172.397 243.621 172.377L243.609 172.377C242.052 172.395 240.455 172.484 238.9 173.104L238.889 173.108L238.878 173.114C237.819 173.599 236.945 174.275 236.122 174.91L236.121 174.91C234.937 175.807 233.85 176.726 232.606 177.553L232.607 177.552C229.663 179.469 225.531 179.158 222.975 176.765L222.973 176.763C220.523 174.49 219.419 171.715 219.731 168.438L219.731 168.434L219.772 167.997C220.237 163.509 221.91 159.588 224.857 156.189L224.86 156.187L225.217 155.778C228.946 151.63 233.67 149.716 239.33 150.14L239.33 150.141C243.259 150.446 246.714 151.897 249.989 154.221L249.993 154.224C251.228 155.085 252.387 156.149 253.368 157.376L253.921 158.065L253.964 157.947Z" stroke="#72A45C"/>
<path d="M241.74 133.129C243.485 135.167 243.942 137.551 243.419 140.184L243.419 140.185C243.02 142.024 242.199 143.615 240.81 144.817L240.81 144.818C238.462 146.854 235.185 146.845 232.805 144.805L232.798 144.8L232.793 144.795C232.413 144.49 232.097 144.152 231.754 143.785L231.25 143.245C230.504 142.147 229.98 140.967 229.779 139.65L229.777 139.638L229.71 139.241C229.395 137.256 229.363 135.235 229.717 133.265L229.718 133.256L229.772 132.966C229.916 132.29 230.18 131.625 230.541 131.041C231.201 129.972 232.139 129.384 233.372 129.202C234.574 129.071 235.7 129.285 236.79 129.686L237.255 129.869L237.26 129.871C238.985 130.568 240.501 131.696 241.741 133.128L241.74 133.129Z" stroke="#72A45C"/>
<path d="M223.612 137.01C225.034 138.787 226.093 140.208 226.672 141.83L226.673 141.829C227.442 144.052 227.519 146.196 226.464 148.292L226.462 148.299C225.309 150.664 222.799 151.973 220.217 151.561L220.212 151.56C218.2 151.26 216.536 150.311 215.107 148.816L215.106 148.815C212.776 146.39 212.395 143.478 213.347 140.301L213.351 140.288L213.442 139.972C213.921 138.395 214.748 136.966 215.913 135.817L215.92 135.809L216.109 135.621C217.047 134.709 218.023 134.184 219.319 134.223C220.335 134.288 221.276 134.784 222.169 135.458C222.486 135.713 222.781 136.004 223.057 136.276C223.175 136.393 223.298 136.513 223.418 136.626L223.361 136.697L223.612 137.01Z" stroke="#72A45C"/>
<path d="M218.172 157.21L218.261 157.464C218.648 158.481 218.743 159.554 218.541 160.694L218.54 160.695C218.067 163.411 215.534 164.947 212.949 164.04C211.392 163.49 210.097 162.492 209.326 161.156C208.559 159.828 208.286 158.126 208.837 156.116C209.259 154.674 209.898 153.433 210.983 152.542C211.514 152.107 212.069 151.88 212.609 151.844C213.147 151.809 213.707 151.96 214.26 152.346L214.271 152.354L214.283 152.361C214.539 152.519 214.717 152.634 214.833 152.757L214.857 152.783L214.885 152.805C215.067 152.951 215.247 153.125 215.426 153.309C215.596 153.482 215.783 153.681 215.944 153.835L216.019 153.906L216.078 153.927C216.957 155.131 217.744 156.093 218.172 157.21Z" stroke="#72A45C"/>
<path d="M255.408 142.792L255.408 142.793C255.844 143.828 255.867 145.112 255.548 146.347C255.249 147.504 254.661 148.571 253.9 149.306L253.745 149.448C252.057 150.833 249.653 150.778 248.041 149.12C246.917 147.916 246.254 146.625 246.147 145.001L246.147 144.99L246.145 144.98L246.09 144.428C245.972 143.144 245.949 141.891 246.25 140.689L246.251 140.682L246.332 140.376C246.536 139.677 246.86 139.082 247.359 138.733L247.372 138.724L247.384 138.714L247.503 138.624C248.103 138.197 248.783 138.099 249.475 138.262L249.492 138.266L249.508 138.268C252.258 138.728 254.307 140.214 255.408 142.792Z" stroke="#72A45C"/>
<path d="M350.046 116.626C349.969 120.762 347.004 124.055 344.425 125.273L344.161 125.392L344.149 125.397C341.607 126.543 339.198 126.282 336.91 124.684C335.609 123.738 334.324 122.715 333.029 121.684L333.019 121.676C331.778 120.736 330.462 119.827 328.853 119.364L328.842 119.361L328.829 119.358C327.695 119.092 326.591 119.09 325.551 119.087L325.55 119.087C324.064 119.07 322.643 119.129 321.153 119.019L321.154 119.02C317.653 118.729 314.579 115.95 314.028 112.492L314.027 112.49C313.485 109.192 314.314 106.322 316.57 103.925L316.573 103.922L316.873 103.602C319.992 100.341 323.717 98.2692 328.129 97.391L328.133 97.391L328.666 97.2872C334.155 96.2967 339.06 97.6808 343.272 101.486L343.271 101.487C346.188 104.136 348.028 107.401 349.191 111.245L349.192 111.249C349.639 112.687 349.902 114.238 349.926 115.809L349.939 116.692L350.046 116.626Z" stroke="#72A45C"/>
<path d="M355.606 89.5254C355.734 92.2047 354.634 94.3682 352.606 96.1276L352.606 96.1285C351.163 97.3365 349.539 98.0902 347.705 98.1887L347.704 98.1885C344.6 98.358 342.018 96.3418 341.388 93.2702L341.386 93.2627L341.384 93.2553C341.272 92.7819 341.229 92.3206 341.183 91.8209L341.116 91.085C341.2 89.7598 341.509 88.5071 342.158 87.3433L342.163 87.3325L342.354 86.9779C343.322 85.2162 344.536 83.6 346.024 82.2611L346.03 82.2546L346.251 82.0586C346.779 81.6122 347.395 81.2496 348.038 81.009C349.215 80.5692 350.317 80.6805 351.402 81.2918C352.432 81.9256 353.19 82.7847 353.806 83.7697L354.061 84.1996L354.064 84.2043C354.999 85.8121 355.505 87.6333 355.607 89.5247L355.606 89.5254Z" stroke="#72A45C"/>
<path d="M338.905 81.4769C338.938 83.7528 338.904 85.5246 338.367 87.1604L338.368 87.1606C337.613 89.3885 336.359 91.1292 334.241 92.1384L334.235 92.142C331.874 93.3044 329.089 92.799 327.302 90.8905L327.299 90.8868C325.893 89.416 325.16 87.6464 324.947 85.5885L324.947 85.5876C324.593 82.2429 326.078 79.7097 328.778 77.7831L328.788 77.7753L329.054 77.5809C330.399 76.6295 331.929 76.0074 333.554 75.8138L333.564 75.8122L333.829 75.7789C335.129 75.6334 336.222 75.8171 337.222 76.6432C337.984 77.3173 338.424 78.2856 338.716 79.3656C338.81 79.7618 338.865 80.172 338.916 80.5567C338.938 80.7214 338.961 80.8916 338.987 81.0538L338.899 81.0752L338.905 81.4769Z" stroke="#72A45C"/>
<path d="M322.222 94.0989L322.137 94.3548C321.819 95.3947 321.237 96.3012 320.378 97.078L320.376 97.0787C318.338 98.934 315.395 98.5939 313.909 96.2933C313.016 94.9037 312.605 93.3213 312.815 91.7932C313.023 90.2733 313.851 88.7624 315.518 87.5119C316.736 86.6314 318.001 86.0426 319.405 86.0044C320.091 85.9858 320.669 86.1468 321.118 86.4499C321.564 86.7514 321.914 87.2148 322.114 87.8579L322.118 87.8708L322.123 87.884C322.228 88.1666 322.299 88.3659 322.315 88.5338L322.318 88.5697L322.326 88.6037C322.38 88.8309 322.416 89.0791 322.445 89.3337C322.473 89.5751 322.499 89.8468 322.532 90.0672L322.547 90.169L322.581 90.2221C322.537 91.7115 322.569 92.9544 322.222 94.0989Z" stroke="#72A45C"/>
<path d="M360.479 105.539L360.478 105.539C360.188 106.624 359.419 107.652 358.41 108.432C357.464 109.163 356.345 109.647 355.293 109.76L355.084 109.777C352.902 109.836 351.036 108.319 350.779 106.021C350.63 104.381 350.898 102.954 351.809 101.606L351.815 101.597L351.82 101.588L352.115 101.118C352.808 100.032 353.559 99.0277 354.533 98.2622L354.538 98.2573L354.79 98.0655C355.38 97.6381 356.001 97.3668 356.608 97.3974L356.624 97.3981L356.64 97.3978L356.789 97.3997C357.525 97.43 358.122 97.7691 358.569 98.3222L358.58 98.3358L358.591 98.3475C360.482 100.397 361.189 102.826 360.479 105.539Z" stroke="#72A45C"/>
<path d="M1206.51 97.8205C1204.99 106.521 1197.24 112.074 1191.53 113.209L1191.52 113.212C1186.12 114.428 1181.52 112.947 1177.72 108.935C1175.63 106.646 1173.61 104.219 1171.57 101.783L1171.56 101.773C1169.6 99.5306 1167.52 97.3689 1164.75 95.9197L1164.73 95.9095C1162.75 94.9963 1160.72 94.5748 1158.76 94.1652L1158.76 94.1648C1156 93.5668 1153.26 93.1233 1150.49 92.3381L1150.49 92.3377C1143.81 90.385 1138.96 83.7811 1139.26 76.8428L1139.26 76.8406C1139.52 70.2889 1142.25 65.0756 1147.54 61.3494L1147.55 61.3462C1154.94 56.0354 1163.06 53.3798 1172.08 53.4319L1172.09 53.4313L1173.14 53.4433C1183.99 53.7009 1192.82 58.2658 1199.36 67.1662C1203.89 73.3572 1206.11 80.2942 1206.82 88.0415L1206.82 88.045C1207.11 90.9648 1207.01 94.0295 1206.44 97.0401L1206.27 97.9074L1206.51 97.8205Z" stroke="#72A45C"/>
<path d="M1227.26 49.761C1226.45 55.0167 1223.44 58.7772 1218.84 61.3631L1218.84 61.364C1215.69 63.0627 1212.36 63.8858 1208.87 63.4447L1208.53 63.3984C1202.4 62.4859 1198.15 57.4978 1198.15 51.2515L1198.15 51.2437L1198.15 51.2363C1198.12 50.2642 1198.22 49.3481 1198.33 48.3941L1198.42 47.59L1198.32 47.6267C1198.99 44.8362 1200.12 42.2867 1202 40.0972L1202 40.0976L1202.01 40.0882L1202.51 39.4888C1205.04 36.5146 1207.98 33.9049 1211.35 31.9294L1211.35 31.9299L1211.36 31.9248L1211.87 31.6292C1213.08 30.9678 1214.43 30.5065 1215.79 30.2938C1218.16 29.9209 1220.22 30.5024 1222.04 31.9526L1222.41 32.255C1224.41 34.1395 1225.59 36.4463 1226.4 38.9331L1226.4 38.9383C1227.56 42.4005 1227.81 46.0967 1227.27 49.7605L1227.26 49.761Z" stroke="#72A45C"/>
<path d="M1198.94 28.1906C1198.13 32.4802 1197.37 35.8734 1195.69 38.8197C1193.36 42.798 1190.24 45.6934 1185.71 46.8129L1185.71 46.8144C1180.62 48.1415 1175.37 46.0352 1172.64 41.5811L1172.63 41.5777C1170.5 38.1703 1169.79 34.4536 1170.19 30.4121L1170.19 30.4108C1170.81 23.9877 1174.49 19.735 1180.13 17.08L1180.68 16.8277L1180.69 16.8226L1181.28 16.5533C1184.24 15.2541 1187.43 14.658 1190.65 14.9274L1190.66 14.9279L1191.18 14.9679C1193.69 15.1963 1195.76 15.9579 1197.4 17.8925L1197.57 18.097C1198.81 19.7631 1199.28 21.8569 1199.41 24.0355C1199.44 24.8474 1199.38 25.6665 1199.33 26.4112C1199.29 26.8997 1199.26 27.3778 1199.26 27.7889L1199.02 27.7963L1198.94 28.1906Z" stroke="#72A45C"/>
<path d="M1164.88 38.2337C1164.17 41.2248 1163.73 43.8484 1162.39 46.0683L1162.39 46.0772L1162.38 46.0879C1161.34 47.9986 1159.83 49.5378 1157.85 50.7078L1157.85 50.7083C1153.06 53.5528 1147.33 51.6829 1145.32 46.5055C1144.14 43.4602 1143.96 40.2102 1144.99 37.2974C1146.01 34.3943 1148.24 31.7832 1151.96 30.0256L1151.96 30.0265C1154.64 28.8144 1157.35 28.156 1160.14 28.6488C1161.51 28.8923 1162.63 29.4552 1163.44 30.2785C1164.24 31.0997 1164.76 32.2066 1164.9 33.5873L1164.9 33.6008L1164.9 33.6148C1164.99 34.1709 1165.06 34.6388 1165.01 35.0339L1165.01 35.069L1165.01 35.1048C1165.03 35.5809 1164.99 36.0825 1164.95 36.5774C1164.91 37.0591 1164.85 37.5585 1164.83 37.9758L1164.83 38.0778L1164.86 38.1737L1164.88 38.2337Z" stroke="#72A45C"/>
<path d="M1230.21 81.9061L1230.21 81.9057C1229.19 83.9477 1227.26 85.6494 1224.99 86.7603C1222.87 87.8015 1220.49 88.3017 1218.37 88.0999L1217.95 88.0501C1213.59 87.2858 1210.48 83.5006 1210.91 78.8296C1211.26 75.596 1212.35 72.904 1214.68 70.6263L1214.7 70.6118L1215.44 69.8363C1217.17 68.0466 1219.02 66.402 1221.22 65.3033L1221.22 65.3001L1221.5 65.1585C1222.91 64.4736 1224.41 64.0906 1225.77 64.443L1225.79 64.4472L1225.81 64.4503L1226.11 64.518C1227.62 64.8941 1228.72 65.8552 1229.4 67.1745L1229.41 67.1896L1229.42 67.2033C1232.26 71.9124 1232.67 76.9231 1230.21 81.9061Z" stroke="#72A45C"/>
</svg>
