<svg width="393" height="852" viewBox="0 0 393 852" fill="none" xmlns="http://www.w3.org/2000/svg">
<g clip-path="url(#clip0_10005_3022)">
<rect width="393" height="852" fill="#24341D"/>
<path d="M46.193 818.638C50.4369 824.739 49.1523 832.663 46.4419 836.756L46.4342 836.766C43.9463 840.738 40.3128 842.623 35.6289 842.514C32.9915 842.404 30.3074 842.175 27.6103 841.944L27.5977 841.944C25.0577 841.788 22.4907 841.747 19.938 842.557L19.9142 842.565C18.1648 843.218 16.6864 844.197 15.2605 845.139L15.2595 845.139C13.2393 846.451 11.3324 847.838 9.19352 849.045L9.19261 849.046C4.03127 851.899 -2.84465 850.879 -6.8374 846.554L-6.839 846.553C-10.6353 842.479 -12.1424 837.717 -11.2259 832.301L-11.2248 832.296C-10.0071 824.65 -6.74257 818.15 -1.30807 812.733L-1.3051 812.73C5.46985 805.874 13.7279 803.062 23.3198 804.486L23.3192 804.487C29.769 805.462 35.2909 808.273 40.3998 812.488L40.4027 812.49C42.3397 814.062 44.1282 815.96 45.6038 818.107L46.1036 818.834L46.193 818.638Z" stroke="#72A45C"/>
<path d="M29.489 777.116C32.1645 780.744 32.6327 784.799 31.4416 789.118L31.4419 789.118C30.5563 792.126 28.9918 794.692 26.5145 796.54L26.5136 796.54C22.3081 799.683 16.7813 799.261 13.0256 795.537L13.0205 795.531L13.0145 795.526C12.4122 794.965 11.9213 794.359 11.4071 793.721L10.899 793.092L10.8692 793.157C9.62464 791.12 8.79346 788.954 8.60419 786.559L8.6025 786.546L8.54015 785.884C8.25891 782.575 8.44806 779.234 9.27123 776.019L9.27399 776.01L9.40028 775.527C9.72488 774.405 10.2517 773.318 10.9318 772.377C12.1209 770.731 13.6912 769.844 15.644 769.614L16.0398 769.576C18.3643 769.498 20.4587 770.161 22.4396 771.163L22.4446 771.165C25.2279 772.533 27.607 774.592 29.4896 777.115L29.489 777.116Z" stroke="#72A45C"/>
<path d="M-0.572297 781.307C1.53658 784.376 3.1273 786.863 3.89638 789.638L3.8973 789.638C4.90526 793.42 4.78303 797.025 2.75485 800.417L2.75164 800.423C0.587902 804.149 -3.60405 806.049 -7.77809 805.244L-8.18222 805.158L-8.1869 805.157C-11.5153 804.41 -14.1783 802.619 -16.3745 799.961L-16.3761 799.959C-19.9825 795.614 -20.2534 790.687 -18.2889 785.528L-18.2886 785.529L-18.285 785.516L-18.095 785C-17.1077 782.438 -15.5578 780.158 -13.4753 778.382L-13.4744 778.382L-13.4666 778.375L-13.1296 778.083C-11.553 776.758 -9.92721 775.981 -7.89768 776.078L-7.45677 776.112C-5.72153 776.355 -4.19058 777.321 -2.79613 778.543C-2.29334 779.012 -1.83352 779.535 -1.41439 780.014C-1.15932 780.306 -0.905065 780.594 -0.669022 780.836L-0.800009 780.976L-0.572297 781.307Z" stroke="#72A45C"/>
<path d="M50.7075 794.61L50.7065 794.61C51.3233 796.435 51.1978 798.607 50.5135 800.635C49.8719 802.535 48.7547 804.262 47.3704 805.416L47.0897 805.639C44.0362 807.799 39.9207 807.405 37.3737 804.369C35.6453 802.224 34.6811 799.967 34.7 797.215L34.7002 797.204L34.6995 797.194L34.6741 796.282C34.6339 794.159 34.7454 792.066 35.3957 790.087L35.3973 790.08L35.5692 789.577C35.9991 788.423 36.6351 787.414 37.5793 786.852L37.5929 786.844L37.6071 786.835L37.8276 786.691C38.9427 786.014 40.1605 785.93 41.3508 786.303L41.3664 786.308L41.3823 786.312C45.9167 787.413 49.1766 790.155 50.7075 794.61Z" stroke="#72A45C"/>
<path d="M365.626 840.251C365.685 847.683 360.152 853.498 355.604 855.347L355.592 855.351C351.296 857.225 347.233 856.73 343.429 853.996C341.313 852.417 339.227 850.712 337.131 849L337.121 848.992C335.112 847.43 333.016 845.947 330.452 845.174L330.428 845.168C328.615 844.719 326.843 844.693 325.134 844.666L325.133 844.665C322.725 844.607 320.368 844.676 317.92 844.466L317.92 844.465C312.049 843.907 306.948 839.184 306.094 833.36L306.094 833.358C305.259 827.852 306.703 823.071 310.517 819.118L310.521 819.114C315.842 813.49 322.206 809.967 329.749 808.564L329.753 808.563C339.216 806.727 347.62 809.068 354.734 815.658L354.732 815.658C359.506 820.103 362.477 825.541 364.316 831.904L364.317 831.907C365.028 834.299 365.433 836.874 365.439 839.48L365.441 840.362L365.626 840.251Z" stroke="#72A45C"/>
<path d="M375.276 796.547C375.436 801.052 373.534 804.663 370.113 807.556L370.113 807.557C367.684 809.54 364.944 810.774 361.856 810.902L361.855 810.901C356.61 811.122 352.286 807.654 351.288 802.46L351.287 802.452L351.285 802.445C351.104 801.642 351.041 800.864 350.977 800.048L350.913 799.241L350.851 799.278C350.974 796.894 351.51 794.637 352.706 792.553L352.712 792.541L353.034 791.96C354.67 789.069 356.712 786.419 359.206 784.229L359.214 784.223L359.59 783.896C360.492 783.153 361.54 782.553 362.633 782.16C364.543 781.473 366.34 781.627 368.082 782.539L368.43 782.732C370.393 783.979 371.748 785.709 372.817 787.654L372.82 787.659C374.345 790.359 375.147 793.402 375.277 796.547L375.276 796.547Z" stroke="#72A45C"/>
<path d="M348.096 783.038C348.104 786.762 348.013 789.713 347.082 792.437L347.083 792.438C345.78 796.129 343.644 799.036 340.055 800.691L340.049 800.694C336.159 802.548 331.627 801.75 328.636 798.729L328.351 798.431L328.348 798.427C326.022 795.931 324.834 792.95 324.522 789.516L324.522 789.514C323.998 783.891 326.555 779.671 331.089 776.522L331.089 776.523L331.099 776.514L331.547 776.196C333.808 774.638 336.375 773.631 339.096 773.341L339.097 773.341L339.107 773.34L339.55 773.288C341.599 773.085 343.38 773.362 345 774.587L345.345 774.864C346.641 776.044 347.359 777.706 347.82 779.501C347.97 780.173 348.055 780.864 348.13 781.496C348.176 781.88 348.224 782.261 348.282 782.595L348.094 782.637L348.096 783.038Z" stroke="#72A45C"/>
<path d="M321.192 796.942C321.08 799.559 321.127 801.804 320.37 803.859L320.366 803.869L320.362 803.88C319.802 805.634 318.796 807.153 317.332 808.444L317.332 808.445C313.814 811.567 308.77 810.928 306.275 806.957C304.807 804.609 304.143 801.933 304.53 799.349C304.916 796.774 306.354 794.244 309.172 792.185C311.215 790.746 313.362 789.77 315.751 789.735C316.93 789.718 317.941 790.006 318.733 790.556C319.523 791.104 320.126 791.933 320.459 793.053L320.463 793.066L320.468 793.079C320.631 793.533 320.761 793.903 320.786 794.229L320.789 794.265L320.796 794.299C320.884 794.691 320.938 795.113 320.982 795.533C321.024 795.941 321.058 796.371 321.107 796.725L321.121 796.827L321.175 796.915L321.192 796.942Z" stroke="#72A45C"/>
<path d="M382.916 822.965L382.915 822.965C382.394 824.819 381.064 826.541 379.354 827.829C377.752 829.036 375.855 829.83 374.061 830.001L373.704 830.027C369.964 830.086 366.789 827.438 366.4 823.494C366.185 820.748 366.662 818.341 368.232 816.08L368.238 816.071L368.243 816.062L368.737 815.295C369.902 813.52 371.176 811.855 372.829 810.589L372.834 810.584L373.26 810.266C374.267 809.556 375.361 809.082 376.458 809.151L376.474 809.152L376.491 809.152L376.754 809.158C378.057 809.228 379.109 809.846 379.881 810.826L379.891 810.84L379.902 810.852C383.023 814.32 384.167 818.424 382.916 822.965Z" stroke="#72A45C"/>
<path d="M312.705 764.735C314.197 768.594 312.696 772.763 310.769 774.865L310.569 775.075L310.56 775.084C308.64 777.106 306.311 777.776 303.589 777.161C302.027 776.777 300.45 776.315 298.861 775.85L298.85 775.847C297.345 775.445 295.783 775.101 294.119 775.281L294.107 775.282L294.094 775.284C292.944 775.467 291.921 775.882 290.957 776.272L290.956 776.273C289.574 776.818 288.28 777.411 286.86 777.872L286.861 777.872C283.51 778.927 279.613 777.515 277.796 774.523L277.795 774.521C276.046 771.672 275.729 768.702 276.911 765.63L276.912 765.626L277.07 765.217C278.725 761.019 281.39 757.692 285.143 755.212L285.147 755.21L285.601 754.913C290.308 751.921 295.372 751.348 300.71 753.279L300.709 753.28C304.412 754.63 307.349 756.957 309.879 760.077L309.881 760.08C310.839 761.242 311.669 762.579 312.284 764.025L312.631 764.837L312.705 764.735Z" stroke="#72A45C"/>
<path d="M307.608 737.544C308.74 739.975 308.538 742.394 307.326 744.79L307.326 744.791C306.448 746.454 305.229 747.766 303.568 748.551L303.567 748.551C300.758 749.881 297.605 748.99 295.86 746.385L295.855 746.379L295.851 746.372C295.568 745.977 295.354 745.566 295.123 745.121L294.782 744.465C294.359 743.206 294.172 741.929 294.333 740.607L294.334 740.594L294.376 740.194C294.607 738.197 295.12 736.242 295.991 734.44L295.994 734.432L296.124 734.167C296.444 733.554 296.878 732.985 297.383 732.519C298.305 731.668 299.368 731.354 300.604 731.51C301.797 731.707 302.824 732.216 303.766 732.895L304.165 733.197L304.169 733.2C305.642 734.335 306.799 735.83 307.608 737.543L307.608 737.544Z" stroke="#72A45C"/>
<path d="M289.104 736.405C289.995 738.499 290.633 740.153 290.754 741.87L290.755 741.87C290.898 744.218 290.395 746.303 288.816 748.038L288.812 748.044C287.065 750.012 284.296 750.597 281.92 749.506L281.915 749.504C280.058 748.673 278.711 747.312 277.736 745.487L277.736 745.486C276.144 742.523 276.56 739.617 278.332 736.813L278.338 736.802L278.511 736.521C279.397 735.132 280.578 733.978 282.009 733.184L282.018 733.179L282.25 733.048C283.399 732.422 284.48 732.179 285.718 732.566C286.679 732.902 287.452 733.632 288.131 734.521C288.368 734.853 288.573 735.212 288.766 735.549C288.848 735.693 288.935 735.842 289.02 735.982L288.946 736.035L289.104 736.405Z" stroke="#72A45C"/>
<path d="M278.43 754.396L278.448 754.666C278.546 755.748 278.35 756.808 277.848 757.852L277.847 757.853C276.661 760.341 273.808 761.139 271.562 759.571C270.21 758.622 269.232 757.312 268.848 755.818C268.467 754.332 268.662 752.62 269.733 750.832C270.528 749.557 271.477 748.533 272.762 747.967C273.39 747.691 273.986 747.621 274.516 747.732C275.043 747.843 275.542 748.14 275.97 748.659L275.979 748.67L275.988 748.68C276.193 748.902 276.334 749.06 276.412 749.209L276.429 749.241L276.449 749.27C276.585 749.46 276.711 749.676 276.835 749.901C276.952 750.113 277.078 750.355 277.193 750.547L277.245 750.635L277.296 750.672C277.819 752.067 278.318 753.206 278.43 754.396Z" stroke="#72A45C"/>
<path d="M318.172 750.527L318.171 750.527C318.313 751.642 317.99 752.884 317.35 753.988C316.751 755.022 315.898 755.892 314.967 756.395L314.779 756.49C312.782 757.37 310.481 756.67 309.375 754.64C308.616 753.178 308.325 751.755 308.659 750.163L308.661 750.152L308.662 750.142L308.758 749.595C308.989 748.328 309.304 747.114 309.917 746.037L309.92 746.031L310.08 745.758C310.465 745.139 310.937 744.654 311.511 744.452L311.526 744.447L311.541 744.441L311.68 744.386C312.372 744.136 313.053 744.224 313.676 744.567L313.692 744.576L313.707 744.582C316.232 745.765 317.805 747.747 318.172 750.527Z" stroke="#72A45C"/>
<path d="M357.507 704.82C355.985 713.52 348.236 719.073 342.529 720.209L342.516 720.212C337.122 721.427 332.521 719.947 328.723 715.935C326.634 713.646 324.607 711.219 322.571 708.782L322.563 708.773C320.595 706.53 318.518 704.368 315.75 702.919L315.728 702.909C313.749 701.996 311.722 701.574 309.758 701.165L309.757 701.164C307.002 700.566 304.264 700.123 301.488 699.338L301.487 699.337C294.811 697.384 289.954 690.781 290.261 683.842L290.26 683.84C290.518 677.288 293.252 672.075 298.543 668.349L298.547 668.346C305.935 663.035 314.062 660.379 323.081 660.431L323.084 660.431L324.14 660.443C334.99 660.7 343.818 665.265 350.36 674.166C354.885 680.357 357.108 687.294 357.819 695.041L357.819 695.044C358.11 697.964 358.006 701.029 357.435 704.04L357.271 704.907L357.507 704.82Z" stroke="#72A45C"/>
<path d="M378.263 656.761C377.447 662.016 374.438 665.777 369.837 668.363L369.836 668.364C366.689 670.062 363.355 670.886 359.87 670.444L359.532 670.398C353.398 669.486 349.154 664.498 349.154 658.251L349.153 658.243L349.153 658.236C349.123 657.264 349.223 656.348 349.329 655.394L349.419 654.59L349.319 654.626C349.985 651.836 351.115 649.286 352.999 647.097L353 647.097L353.008 647.088L353.508 646.489C356.038 643.514 358.982 640.905 362.349 638.929L362.35 638.93L362.358 638.925L362.868 638.629C364.08 637.968 365.429 637.506 366.784 637.294C369.162 636.921 371.222 637.502 373.044 638.952L373.406 639.255C375.406 641.139 376.591 643.446 377.396 645.933L377.398 645.938C378.562 649.4 378.813 653.096 378.264 656.76L378.263 656.761Z" stroke="#72A45C"/>
<path d="M349.943 635.19C349.13 639.48 348.372 642.873 346.688 645.819C344.363 649.797 341.242 652.693 336.714 653.812L336.708 653.814C331.622 655.141 326.37 653.035 323.637 648.581L323.634 648.577C321.496 645.17 320.785 641.453 321.187 637.412L321.186 637.41C321.81 630.987 325.494 626.734 331.125 624.08L331.676 623.827L331.688 623.822L332.277 623.553C335.238 622.254 338.431 621.657 341.646 621.927L341.656 621.927L342.181 621.967C344.686 622.196 346.756 622.957 348.399 624.892L348.567 625.096C349.813 626.763 350.276 628.856 350.411 631.035C350.436 631.847 350.379 632.666 350.327 633.411C350.292 633.899 350.259 634.377 350.256 634.788L350.019 634.796L349.943 635.19Z" stroke="#72A45C"/>
<path d="M315.884 645.233C315.174 648.224 314.731 650.848 313.391 653.068L313.385 653.077L313.38 653.087C312.339 654.998 310.832 656.537 308.848 657.707L308.847 657.708C304.059 660.552 298.331 658.682 296.315 653.505C295.138 650.46 294.963 647.21 295.988 644.297C297.011 641.394 299.24 638.783 302.956 637.025L302.956 637.026C305.639 635.814 308.349 635.155 311.136 635.648C312.512 635.892 313.631 636.455 314.436 637.278C315.239 638.099 315.758 639.206 315.896 640.587L315.897 640.6L315.899 640.614C315.987 641.17 316.056 641.638 316.012 642.033L316.009 642.068L316.01 642.104C316.025 642.58 315.993 643.082 315.95 643.577C315.908 644.059 315.853 644.558 315.831 644.975L315.826 645.077L315.861 645.173L315.884 645.233Z" stroke="#72A45C"/>
<path d="M381.211 688.906L381.21 688.905C380.189 690.947 378.26 692.649 375.994 693.76C373.869 694.801 371.492 695.301 369.369 695.099L368.949 695.05C364.587 694.285 361.482 690.5 361.905 685.829C362.264 682.595 363.354 679.904 365.683 677.626L365.698 677.611L366.436 676.836C368.174 675.046 370.017 673.402 372.215 672.303L372.221 672.3L372.502 672.158C373.912 671.473 375.407 671.09 376.773 671.442L376.789 671.447L376.805 671.45L377.113 671.517C378.623 671.894 379.718 672.855 380.401 674.174L380.408 674.189L380.416 674.203C383.258 678.912 383.671 683.923 381.211 688.906Z" stroke="#72A45C"/>
<path d="M166.847 824.303C168.586 826.813 168.258 830.103 167.249 831.899L167.243 831.91C166.284 833.722 164.773 834.654 162.721 834.758C161.515 834.796 160.283 834.78 159.038 834.765L159.026 834.765C157.854 834.778 156.633 834.844 155.441 835.32L155.419 835.33C154.608 835.702 153.941 836.218 153.323 836.694L153.322 836.694C152.426 837.373 151.62 838.056 150.691 838.674L150.69 838.674C148.523 840.087 145.478 839.856 143.599 838.097L143.598 838.095C141.783 836.411 140.968 834.362 141.199 831.939L141.2 831.934C141.498 828.448 142.754 825.417 145.024 822.8L145.026 822.797L145.293 822.493C148.07 819.403 151.585 817.979 155.802 818.295C158.729 818.522 161.305 819.604 163.753 821.341L163.756 821.342C164.675 821.984 165.538 822.776 166.268 823.689L166.819 824.378L166.847 824.303Z" stroke="#72A45C"/>
<path d="M157.528 805.464C158.812 806.964 159.151 808.718 158.762 810.669C158.466 812.027 157.86 813.194 156.842 814.076L156.841 814.076C155.124 815.566 152.729 815.561 150.985 814.066L150.979 814.06L150.973 814.056C150.696 813.833 150.463 813.585 150.205 813.309L149.842 812.92C149.288 812.105 148.9 811.236 148.752 810.266L148.75 810.254L148.657 809.661C148.478 808.375 148.461 807.074 148.656 805.8L148.705 805.507L148.707 805.497C148.797 804.93 149.007 804.365 149.309 803.877C149.785 803.105 150.46 802.682 151.355 802.551C152.357 802.445 153.29 802.665 154.203 803.046L154.209 803.048C155.484 803.564 156.608 804.4 157.528 805.462L157.528 805.464Z" stroke="#72A45C"/>
<path d="M143.897 808.377C144.966 809.713 145.749 810.765 146.177 811.96L146.176 811.961C146.747 813.611 146.802 815.187 146.028 816.726L146.027 816.726L146.024 816.732C145.182 818.462 143.348 819.417 141.461 819.116L141.456 819.115C139.974 818.894 138.748 818.197 137.689 817.09L137.689 817.089C135.975 815.305 135.689 813.166 136.395 810.81L136.399 810.797L136.541 810.33C136.878 809.332 137.407 808.422 138.123 807.664L138.293 807.492L138.3 807.484L138.577 807.214C139.224 806.624 139.896 806.302 140.767 806.33C141.49 806.378 142.169 806.731 142.828 807.227C143.062 807.415 143.28 807.631 143.489 807.837C143.55 807.897 143.616 807.959 143.68 808.021L143.646 808.064L143.897 808.377Z" stroke="#72A45C"/>
<path d="M138.251 821.121C138.955 822.083 139.556 822.817 139.849 823.701L139.851 823.711L139.856 823.721C140.138 824.463 140.207 825.247 140.059 826.084L140.058 826.085C139.715 828.054 137.887 829.159 136.018 828.504C134.871 828.099 133.924 827.366 133.361 826.391C132.802 825.424 132.6 824.179 133.005 822.698L133.005 822.697C133.319 821.626 133.789 820.72 134.578 820.073C134.961 819.759 135.354 819.601 135.731 819.576C136.104 819.551 136.497 819.656 136.892 819.931L136.903 819.939L136.915 819.946C137.111 820.068 137.229 820.145 137.302 820.223L137.327 820.249L137.355 820.271C137.485 820.376 137.616 820.503 137.75 820.64C137.875 820.767 138.02 820.921 138.144 821.038L138.218 821.109L138.251 821.121Z" stroke="#72A45C"/>
<path d="M167.783 812.696C168.098 813.443 168.118 814.38 167.883 815.289C167.677 816.083 167.288 816.816 166.787 817.344L166.565 817.558C165.344 818.556 163.612 818.514 162.448 817.316C161.62 816.428 161.138 815.484 161.059 814.299L161.059 814.288L161.058 814.278L161.016 813.865C160.928 812.905 160.912 811.98 161.133 811.096L161.135 811.089C161.279 810.475 161.527 809.971 161.917 809.697L161.93 809.688L161.944 809.678L162.111 809.558C162.509 809.308 162.953 809.254 163.409 809.362L163.425 809.366L163.441 809.368C165.471 809.708 166.973 810.799 167.783 812.696Z" stroke="#72A45C"/>
<path d="M238.913 793.204C238.747 796.253 236.472 798.652 234.573 799.451L234.562 799.457C232.693 800.3 230.928 800.11 229.243 798.934C228.268 798.224 227.304 797.457 226.33 796.681L226.32 796.674C225.386 795.966 224.381 795.269 223.148 794.915L223.124 794.909C222.256 794.706 221.412 794.704 220.632 794.701L220.631 794.701C219.507 794.688 218.452 794.733 217.339 794.652L217.338 794.651C214.76 794.439 212.496 792.39 212.09 789.848L212.09 789.846C211.688 787.403 212.301 785.285 213.969 783.512L213.973 783.509C216.346 780.938 219.196 779.313 222.594 778.637L222.597 778.636L222.994 778.56C227.083 777.821 230.733 778.851 233.871 781.686C236.044 783.66 237.416 786.094 238.285 788.967L238.286 788.97C238.619 790.041 238.815 791.195 238.832 792.364L238.845 793.247L238.913 793.204Z" stroke="#72A45C"/>
<path d="M243.101 772.607C243.196 774.58 242.389 776.173 240.885 777.476C239.818 778.368 238.624 778.918 237.28 778.99L237.279 778.99C235.008 779.114 233.12 777.642 232.658 775.392L232.657 775.384L232.655 775.376C232.573 775.03 232.541 774.692 232.506 774.315L232.458 773.785C232.52 772.802 232.747 771.878 233.224 771.021L233.23 771.01L233.519 770.484C234.166 769.359 234.951 768.321 235.886 767.434L236.105 767.233L236.113 767.225C236.531 766.833 237.044 766.516 237.581 766.315C238.431 765.997 239.223 766.077 240.011 766.522C240.867 767.052 241.47 767.798 241.957 768.659L241.96 768.664C242.652 769.854 243.027 771.203 243.102 772.607L243.101 772.607Z" stroke="#72A45C"/>
<path d="M230.546 766.553C230.572 768.263 230.545 769.574 230.15 770.781L230.149 770.781C229.589 772.434 228.666 773.713 227.111 774.454L227.11 774.454L227.104 774.457C225.378 775.307 223.344 774.937 222.038 773.543L222.035 773.539C220.999 772.456 220.458 771.153 220.301 769.629L220.301 769.628C220.04 767.168 221.126 765.303 223.129 763.875L223.139 763.867L223.537 763.585C224.416 763.003 225.392 762.609 226.423 762.449L226.662 762.417L226.672 762.415L227.057 762.372C227.93 762.303 228.658 762.46 229.329 763.016C229.87 763.497 230.191 764.192 230.407 764.988C230.476 765.28 230.517 765.585 230.555 765.876C230.567 765.961 230.581 766.049 230.593 766.138L230.54 766.151L230.546 766.553Z" stroke="#72A45C"/>
<path d="M218.273 773.159C218.239 774.35 218.265 775.298 217.953 776.176L217.949 776.186L217.946 776.196C217.714 776.956 217.289 777.618 216.658 778.187L216.657 778.188C215.179 779.533 213.057 779.285 211.982 777.622C211.325 776.599 211.026 775.439 211.179 774.324C211.33 773.217 211.933 772.11 213.162 771.188L213.162 771.187C214.067 770.533 214.994 770.106 216.014 770.078C216.508 770.065 216.917 770.181 217.229 770.392C217.539 770.602 217.786 770.926 217.928 771.385L217.932 771.398L217.937 771.411C218.018 771.627 218.064 771.761 218.074 771.867L218.078 771.903L218.086 771.937C218.125 772.1 218.15 772.281 218.172 772.471C218.193 772.648 218.213 772.859 218.239 773.027L218.254 773.129L218.273 773.159Z" stroke="#72A45C"/>
<path d="M246.769 784.608C246.559 785.392 246.001 786.144 245.258 786.718C244.608 787.22 243.851 787.559 243.132 787.67L242.825 787.702C241.249 787.743 239.906 786.647 239.721 784.987C239.612 783.778 239.809 782.737 240.474 781.752L240.48 781.744L240.485 781.735L240.706 781.383C241.225 780.571 241.78 779.83 242.496 779.267L242.502 779.262C242.993 778.866 243.497 778.619 243.973 778.643L243.989 778.644L244.006 778.644L244.212 778.652C244.68 778.698 245.063 778.928 245.358 779.293L245.368 779.306L245.379 779.318C246.774 780.83 247.292 782.613 246.769 784.608Z" stroke="#72A45C"/>
</g>
<defs>
<clipPath id="clip0_10005_3022">
<rect width="393" height="852" fill="white"/>
</clipPath>
</defs>
</svg>
