<svg width="1413" height="753" viewBox="0 0 1413 753" fill="none" xmlns="http://www.w3.org/2000/svg">
<g opacity="0.35">
<path d="M44.1565 330.116C43.4164 331.388 43.7531 332.993 45.0881 333.883C45.9978 334.465 46.9325 334.76 48.023 334.656C48.9473 334.606 49.8837 334.51 50.7383 334.148C51.2486 333.94 51.7357 333.628 51.9629 333.15C52.2494 332.638 52.2399 332.098 52.0169 331.599C51.3962 329.919 50.1809 328.768 48.37 328.34C46.8432 327.986 44.9438 328.856 44.1565 330.116Z" fill="#24341D"/>
<path d="M46.113 352.885C45.2144 352.452 44.4225 351.999 43.5464 351.866C42.8243 351.725 42.1013 351.779 41.3776 352.029C39.5978 352.636 38.8553 354.495 39.7961 356.112C40.8781 357.962 43.0299 359.018 45.499 357.907C46.3656 357.5 47.1143 356.963 47.5798 356.157C48.0454 355.35 47.9661 354.497 47.2818 353.828C47.1639 353.699 47.046 353.57 46.916 353.487C46.6681 353.275 46.3608 353.097 46.1483 352.943L46.113 352.885Z" fill="#24341D"/>
<path d="M55.5345 346.71C54.2933 346.041 53.2648 345.526 52.152 345.33C50.6484 345.081 49.2378 345.248 47.99 346.142C46.564 347.136 45.9996 348.895 46.585 350.516C47.018 351.755 47.8314 352.703 48.9538 353.439C50.8086 354.661 52.7519 354.586 54.6634 353.671C55.6961 353.209 56.5876 352.514 57.2313 351.608C57.7795 350.872 58.0789 350.119 57.8697 349.184C57.6949 348.502 57.2352 347.941 56.7042 347.458C56.291 347.105 55.8065 346.831 55.6059 346.631L55.5345 346.71Z" fill="#24341D"/>
<path d="M50.1131 343.078C51.047 343.568 52.029 343.876 53.0954 343.863C54.4578 343.88 55.821 343.701 57.1025 343.256C57.6008 343.093 58.0758 342.827 58.4683 342.49C59.1223 341.929 59.4097 341.222 59.3777 340.382C59.3105 339.484 58.9584 338.707 58.4876 337.996C57.8403 336.994 56.9434 336.171 55.8916 335.551C54.3553 334.658 52.7441 334.625 51.1184 335.224C49.991 335.66 49.0521 336.342 48.4317 337.353C47.3698 339.079 47.7754 341.191 49.4047 342.5C49.6526 342.712 49.9126 342.879 50.1725 343.045L50.1131 343.078Z" fill="#24341D"/>
<path d="M39.8309 330.983C37.2195 329.366 34.0291 330.14 32.4956 331.35C31.0455 332.436 30.4587 333.895 30.6998 335.671C30.8497 336.639 31.0469 337.621 31.244 338.602C31.4059 339.525 31.5205 340.436 31.327 341.363C31.1583 342.003 30.8597 342.56 30.5611 343.118C30.155 343.891 29.7015 344.652 29.3307 345.484C28.4332 347.546 29.1211 350.124 30.9872 351.496C32.7232 352.784 34.6408 353.191 36.7046 352.659C39.5748 351.947 41.9268 350.512 43.7727 348.308C46.1185 345.551 46.8549 342.37 45.9104 338.845C45.269 336.475 43.9623 334.517 42.1453 332.767C41.461 332.097 40.658 331.494 39.7715 331.016L39.8309 330.983Z" fill="#24341D"/>
<path d="M-0.314887 364.147C-1.30981 364.081 -2.22209 364.085 -3.05007 363.769C-3.74808 363.537 -4.35058 363.134 -4.85756 362.56C-6.10737 361.155 -5.83819 359.171 -4.22285 358.227C-2.36998 357.15 0.0226434 357.291 1.62454 359.474C2.17802 360.255 2.5654 361.091 2.57324 362.022C2.58108 362.954 2.09231 363.656 1.16713 363.902C1.00103 363.956 0.834931 364.01 0.680876 364.018C0.36072 364.081 0.00526482 364.085 -0.255509 364.114L-0.314887 364.147Z" fill="#24341D"/>
<path d="M4.84466 374.161C3.43491 374.132 2.28594 374.074 1.22128 373.696C-0.210039 373.172 -1.35565 372.333 -2.00128 370.94C-2.75279 369.372 -2.37773 367.564 -1.06966 366.441C-0.08258 365.576 1.09216 365.152 2.43132 365.064C4.64748 364.914 6.30176 365.936 7.5146 367.674C8.186 368.585 8.61987 369.628 8.73359 370.734C8.84815 371.645 8.73806 372.447 8.09523 373.158C7.60729 373.666 6.93086 373.928 6.23117 374.086C5.69757 374.19 5.14072 374.19 4.8679 374.265L4.84466 374.161Z" fill="#24341D"/>
<path d="M-1.66327 374.652C-0.608965 374.685 0.397159 374.901 1.31897 375.437C2.51276 376.094 3.61103 376.921 4.50707 377.94C4.86084 378.326 5.14318 378.792 5.3188 379.278C5.61151 380.089 5.51348 380.846 5.07203 381.561C4.57121 382.31 3.88188 382.813 3.12196 383.2C2.06514 383.753 0.879193 384.027 -0.341208 384.048C-2.11845 384.069 -3.53688 383.305 -4.65672 381.983C-5.42279 381.047 -5.90401 379.991 -5.94631 378.806C-6.02053 376.781 -4.6273 375.143 -2.56436 374.806C-2.2442 374.743 -1.93608 374.727 -1.62797 374.71L-1.66327 374.652Z" fill="#24341D"/>
<path d="M200 384.259C199.101 385.425 199.226 387.06 200.434 388.116C201.26 388.811 202.148 389.225 203.243 389.264C204.166 389.334 205.107 389.361 206.001 389.114C206.535 388.974 207.058 388.728 207.346 388.283C207.696 387.814 207.757 387.276 207.601 386.753C207.204 385.007 206.149 383.707 204.409 383.047C202.941 382.498 200.945 383.113 200 384.259Z" fill="#24341D"/>
<path d="M198.976 407.089C198.142 406.543 197.416 405.991 196.564 405.745C195.867 405.511 195.143 405.471 194.393 405.624C192.549 405.995 191.571 407.741 192.293 409.467C193.125 411.442 195.121 412.769 197.714 411.989C198.626 411.698 199.438 411.263 200.005 410.524C200.572 409.785 200.604 408.929 200.013 408.177C199.912 408.034 199.812 407.89 199.694 407.791C199.476 407.549 199.195 407.331 199.004 407.151L198.976 407.089Z" fill="#24341D"/>
<path d="M209.122 402.193C207.978 401.368 207.025 400.723 205.947 400.385C204.489 399.942 203.069 399.923 201.715 400.648C200.172 401.448 199.384 403.118 199.753 404.802C200.021 406.087 200.704 407.132 201.721 408.008C203.401 409.461 205.338 409.639 207.352 408.981C208.436 408.657 209.41 408.085 210.167 407.27C210.806 406.611 211.201 405.904 211.115 404.949C211.031 404.251 210.648 403.634 210.184 403.087C209.82 402.683 209.376 402.348 209.203 402.124L209.122 402.193Z" fill="#24341D"/>
<path d="M204.219 397.887C205.081 398.495 206.014 398.927 207.073 399.054C208.422 399.247 209.797 399.247 211.125 398.972C211.641 398.876 212.146 398.674 212.579 398.391C213.301 397.92 213.678 397.256 213.755 396.42C213.805 395.52 213.558 394.704 213.183 393.937C212.672 392.86 211.89 391.927 210.927 391.176C209.521 390.09 207.927 389.848 206.238 390.23C205.063 390.516 204.043 391.07 203.297 391.992C202.019 393.564 202.146 395.711 203.591 397.222C203.81 397.464 204.046 397.663 204.282 397.862L204.219 397.887Z" fill="#24341D"/>
<path d="M195.598 384.555C193.219 382.612 189.955 382.964 188.277 383.965C186.698 384.852 185.927 386.223 185.935 388.015C185.957 388.995 186.025 389.993 186.093 390.992C186.133 391.928 186.128 392.846 185.816 393.74C185.565 394.353 185.196 394.866 184.828 395.38C184.325 396.094 183.776 396.79 183.3 397.566C182.142 399.494 182.488 402.139 184.16 403.742C185.714 405.246 187.562 405.899 189.677 405.64C192.616 405.308 195.134 404.191 197.252 402.246C199.936 399.818 201.08 396.76 200.603 393.141C200.275 390.708 199.234 388.596 197.661 386.625C197.069 385.872 196.352 385.17 195.535 384.581L195.598 384.555Z" fill="#24341D"/>
<path d="M136.217 429.224C136.391 427.763 137.626 426.683 139.227 426.776C140.304 426.858 141.228 427.185 142.037 427.924C142.745 428.52 143.435 429.16 143.9 429.963C144.183 430.436 144.384 430.978 144.278 431.497C144.199 432.078 143.866 432.504 143.388 432.768C141.882 433.737 140.218 433.925 138.514 433.178C137.082 432.541 136.088 430.704 136.217 429.224Z" fill="#24341D"/>
<path d="M151.478 412.213C150.5 412.018 149.595 411.903 148.815 411.482C148.153 411.161 147.608 410.683 147.18 410.048C146.124 408.492 146.649 406.56 148.373 405.835C150.351 405.008 152.705 405.459 154.009 407.831C154.456 408.678 154.731 409.557 154.618 410.482C154.504 411.406 153.928 412.039 152.979 412.162C152.807 412.194 152.636 412.226 152.482 412.215C152.156 412.235 151.803 412.193 151.541 412.188L151.478 412.213Z" fill="#24341D"/>
<path d="M155.289 422.813C153.895 422.601 152.764 422.393 151.757 421.88C150.406 421.174 149.38 420.193 148.921 418.728C148.38 417.076 148.987 415.331 150.43 414.388C151.521 413.659 152.741 413.391 154.08 413.479C156.297 413.619 157.804 414.848 158.781 416.729C159.328 417.719 159.622 418.81 159.591 419.921C159.586 420.839 159.373 421.62 158.643 422.242C158.093 422.681 157.388 422.853 156.674 422.919C156.131 422.952 155.579 422.88 155.299 422.919L155.289 422.813Z" fill="#24341D"/>
<path d="M148.774 422.453C149.815 422.623 150.785 422.968 151.629 423.619C152.727 424.426 153.708 425.389 154.464 426.516C154.764 426.945 154.984 427.443 155.095 427.949C155.279 428.79 155.084 429.528 154.553 430.18C153.959 430.857 153.21 431.266 152.406 431.551C151.286 431.961 150.075 432.079 148.862 431.941C147.097 431.731 145.79 430.788 144.852 429.332C144.214 428.304 143.874 427.195 143.987 426.014C144.177 423.997 145.771 422.554 147.861 422.488C148.186 422.468 148.494 422.491 148.801 422.515L148.774 422.453Z" fill="#24341D"/>
<path d="M133.284 425.929C130.225 425.65 128.142 423.112 127.645 421.223C127.14 419.484 127.549 417.965 128.81 416.692C129.512 416.008 130.26 415.343 131.008 414.678C131.693 414.038 132.332 413.379 132.735 412.522C132.986 411.909 133.082 411.284 133.179 410.66C133.32 409.797 133.416 408.917 133.62 408.029C134.143 405.842 136.244 404.197 138.56 404.223C140.722 404.238 142.498 405.067 143.826 406.734C145.691 409.029 146.707 411.59 146.855 414.461C147.071 418.075 145.745 421.059 142.87 423.307C140.932 424.814 138.71 425.592 136.206 425.897C135.256 426.02 134.252 426.018 133.257 425.867L133.284 425.929Z" fill="#24341D"/>
<path d="M358.105 447.129C357.206 448.294 357.33 449.929 358.538 450.985C359.365 451.68 360.253 452.094 361.348 452.133C362.271 452.204 363.212 452.23 364.106 451.983C364.639 451.843 365.163 451.597 365.45 451.153C365.801 450.683 365.862 450.146 365.706 449.622C365.309 447.876 364.254 446.576 362.514 445.916C361.046 445.367 359.05 445.982 358.105 447.129Z" fill="#24341D"/>
<path d="M357.081 469.958C356.246 469.413 355.52 468.86 354.669 468.614C353.971 468.38 353.247 468.34 352.497 468.493C350.654 468.864 349.675 470.61 350.398 472.336C351.23 474.311 353.226 475.638 355.819 474.858C356.731 474.567 357.543 474.132 358.11 473.393C358.676 472.654 358.708 471.798 358.117 471.046C358.017 470.903 357.917 470.76 357.799 470.66C357.581 470.418 357.299 470.2 357.108 470.02L357.081 469.958Z" fill="#24341D"/>
<path d="M367.226 465.062C366.083 464.237 365.13 463.592 364.052 463.254C362.594 462.811 361.173 462.793 359.82 463.517C358.277 464.317 357.488 465.987 357.857 467.671C358.126 468.956 358.809 470.001 359.826 470.877C361.506 472.33 363.442 472.509 365.457 471.85C366.541 471.527 367.515 470.954 368.271 470.139C368.91 469.481 369.305 468.773 369.22 467.819C369.135 467.12 368.752 466.503 368.289 465.956C367.925 465.552 367.48 465.217 367.307 464.993L367.226 465.062Z" fill="#24341D"/>
<path d="M362.323 460.756C363.185 461.364 364.119 461.796 365.178 461.923C366.526 462.116 367.901 462.116 369.23 461.842C369.745 461.746 370.251 461.543 370.684 461.261C371.405 460.789 371.782 460.126 371.86 459.289C371.91 458.389 371.662 457.573 371.288 456.807C370.776 455.729 369.994 454.796 369.032 454.045C367.625 452.959 366.032 452.717 364.342 453.099C363.167 453.385 362.148 453.94 361.401 454.861C360.124 456.433 360.251 458.58 361.696 460.091C361.914 460.333 362.15 460.532 362.386 460.731L362.323 460.756Z" fill="#24341D"/>
<path d="M353.702 447.425C351.324 445.482 348.06 445.834 346.382 446.834C344.803 447.722 344.031 449.093 344.039 450.884C344.062 451.864 344.129 452.863 344.197 453.861C344.238 454.798 344.233 455.715 343.92 456.61C343.67 457.222 343.301 457.736 342.932 458.25C342.429 458.964 341.88 459.659 341.404 460.435C340.246 462.364 340.593 465.009 342.264 466.612C343.818 468.116 345.666 468.769 347.782 468.509C350.72 468.177 353.239 467.061 355.356 465.116C358.041 462.687 359.185 459.629 358.707 456.011C358.38 453.578 357.339 451.466 355.765 449.494C355.174 448.742 354.456 448.04 353.639 447.45L353.702 447.425Z" fill="#24341D"/>
<path d="M294.322 492.094C294.497 490.633 295.731 489.553 297.333 489.646C298.41 489.728 299.334 490.055 300.142 490.794C300.85 491.39 301.541 492.03 302.006 492.833C302.288 493.306 302.49 493.848 302.383 494.367C302.305 494.948 301.972 495.374 301.494 495.638C299.987 496.607 298.324 496.795 296.62 496.048C295.188 495.412 294.193 493.574 294.322 492.094Z" fill="#24341D"/>
<path d="M309.583 475.083C308.605 474.888 307.7 474.773 306.92 474.352C306.259 474.031 305.714 473.553 305.286 472.918C304.229 471.362 304.754 469.431 306.479 468.705C308.456 467.878 310.81 468.329 312.114 470.701C312.561 471.548 312.837 472.427 312.723 473.352C312.61 474.276 312.034 474.909 311.085 475.032C310.913 475.064 310.741 475.096 310.587 475.085C310.262 475.105 309.909 475.063 309.646 475.058L309.583 475.083Z" fill="#24341D"/>
<path d="M313.396 485.683C312.002 485.471 310.87 485.264 309.864 484.75C308.513 484.045 307.486 483.063 307.027 481.598C306.486 479.946 307.093 478.202 308.537 477.259C309.628 476.529 310.848 476.262 312.187 476.349C314.404 476.489 315.911 477.718 316.887 479.599C317.434 480.589 317.729 481.68 317.698 482.791C317.693 483.709 317.479 484.49 316.749 485.112C316.199 485.551 315.495 485.723 314.78 485.789C314.238 485.822 313.686 485.75 313.405 485.789L313.396 485.683Z" fill="#24341D"/>
<path d="M306.879 485.322C307.921 485.492 308.89 485.837 309.734 486.489C310.832 487.296 311.814 488.259 312.569 489.385C312.87 489.815 313.089 490.313 313.2 490.818C313.385 491.66 313.189 492.398 312.658 493.049C312.064 493.726 311.315 494.136 310.512 494.42C309.392 494.831 308.18 494.949 306.967 494.811C305.203 494.601 303.896 493.658 302.957 492.201C302.32 491.174 301.98 490.064 302.092 488.884C302.282 486.867 303.877 485.424 305.966 485.358C306.292 485.338 306.599 485.361 306.907 485.385L306.879 485.322Z" fill="#24341D"/>
<path d="M291.389 488.799C288.331 488.52 286.248 485.982 285.751 484.093C285.245 482.353 285.655 480.834 286.915 479.561C287.618 478.878 288.366 478.212 289.114 477.547C289.798 476.907 290.437 476.249 290.841 475.392C291.091 474.779 291.188 474.154 291.285 473.529C291.425 472.667 291.521 471.786 291.725 470.899C292.249 468.712 294.349 467.066 296.665 467.093C298.827 467.108 300.604 467.936 301.932 469.603C303.797 471.898 304.812 474.46 304.961 477.331C305.176 480.944 303.851 483.928 300.975 486.176C299.037 487.684 296.815 488.462 294.311 488.767C293.362 488.89 292.358 488.888 291.362 488.736L291.389 488.799Z" fill="#24341D"/>
<path d="M504.244 502.629C503.407 503.84 503.618 505.466 504.88 506.457C505.742 507.108 506.651 507.474 507.746 507.455C508.671 507.477 509.612 507.454 510.493 507.16C511.018 506.992 511.527 506.719 511.791 506.259C512.116 505.772 512.149 505.232 511.965 504.717C511.477 502.995 510.354 501.752 508.582 501.185C507.087 500.714 505.126 501.434 504.244 502.629Z" fill="#24341D"/>
<path d="M504.427 525.481C503.565 524.981 502.81 524.468 501.947 524.267C501.238 524.07 500.513 524.068 499.772 524.261C497.951 524.728 497.066 526.524 497.879 528.209C498.814 530.138 500.877 531.357 503.425 530.441C504.321 530.102 505.109 529.626 505.635 528.857C506.162 528.089 506.149 527.233 505.519 526.513C505.411 526.375 505.304 526.238 505.181 526.145C504.95 525.914 504.658 525.712 504.458 525.542L504.427 525.481Z" fill="#24341D"/>
<path d="M514.298 520.057C513.113 519.293 512.128 518.7 511.033 518.419C509.554 518.053 508.134 518.11 506.821 518.905C505.322 519.785 504.623 521.495 505.081 523.157C505.416 524.426 506.154 525.434 507.215 526.254C508.97 527.617 510.913 527.693 512.89 526.929C513.955 526.548 514.898 525.925 515.61 525.071C516.214 524.38 516.571 523.653 516.435 522.704C516.313 522.011 515.899 521.415 515.407 520.894C515.022 520.509 514.56 520.198 514.376 519.983L514.298 520.057Z" fill="#24341D"/>
<path d="M509.176 516.015C510.069 516.577 511.024 516.959 512.088 517.029C513.445 517.152 514.818 517.079 516.13 516.735C516.64 516.611 517.134 516.383 517.551 516.078C518.247 515.569 518.588 514.886 518.622 514.046C518.624 513.146 518.334 512.343 517.919 511.598C517.352 510.549 516.522 509.659 515.521 508.959C514.059 507.949 512.455 507.791 510.788 508.262C509.63 508.61 508.641 509.217 507.944 510.177C506.751 511.815 506.992 513.952 508.514 515.384C508.745 515.615 508.991 515.801 509.238 515.987L509.176 516.015Z" fill="#24341D"/>
<path d="M499.864 503.158C497.386 501.343 494.145 501.867 492.522 502.955C490.992 503.925 490.294 505.334 490.396 507.123C490.47 508.1 490.591 509.094 490.711 510.088C490.801 511.02 490.845 511.937 490.58 512.847C490.362 513.472 490.021 514.004 489.68 514.537C489.215 515.276 488.704 516 488.27 516.8C487.215 518.787 487.701 521.41 489.455 522.922C491.085 524.342 492.966 524.897 495.065 524.526C497.981 524.039 500.438 522.791 502.449 520.737C505.002 518.17 505.983 515.056 505.315 511.468C504.859 509.055 503.708 507.002 502.033 505.116C501.402 504.395 500.648 503.732 499.802 503.187L499.864 503.158Z" fill="#24341D"/>
<path d="M442.924 550.9C443.021 549.431 444.197 548.288 445.801 548.296C446.881 548.321 447.821 548.599 448.667 549.294C449.406 549.852 450.129 550.454 450.636 551.232C450.943 551.689 451.173 552.22 451.094 552.744C451.046 553.328 450.736 553.771 450.273 554.06C448.82 555.107 447.168 555.383 445.427 554.727C443.964 554.167 442.874 552.385 442.924 550.9Z" fill="#24341D"/>
<path d="M457.266 533.106C456.279 532.963 455.37 532.897 454.569 532.517C453.891 532.231 453.321 531.782 452.86 531.171C451.723 529.673 452.146 527.717 453.829 526.901C455.76 525.971 458.135 526.297 459.562 528.597C460.054 529.419 460.375 530.283 460.311 531.212C460.246 532.141 459.704 532.804 458.763 532.977C458.593 533.018 458.423 533.059 458.269 533.055C457.945 533.092 457.59 533.069 457.328 533.078L457.266 533.106Z" fill="#24341D"/>
<path d="M461.632 543.49C460.229 543.352 459.088 543.205 458.056 542.746C456.67 542.112 455.593 541.186 455.057 539.748C454.429 538.127 454.944 536.353 456.335 535.335C457.386 534.549 458.59 534.217 459.932 534.234C462.153 534.256 463.723 535.404 464.798 537.23C465.396 538.19 465.748 539.264 465.775 540.376C465.819 541.293 465.647 542.084 464.951 542.743C464.425 543.211 463.73 543.42 463.02 543.523C462.48 543.585 461.925 543.542 461.647 543.596L461.632 543.49Z" fill="#24341D"/>
<path d="M455.107 543.475C456.156 543.59 457.142 543.883 458.02 544.489C459.159 545.237 460.19 546.147 461.004 547.232C461.327 547.645 461.572 548.131 461.709 548.629C461.938 549.46 461.782 550.207 461.286 550.886C460.729 551.593 460.002 552.042 459.215 552.368C458.118 552.838 456.914 553.02 455.696 552.946C453.923 552.829 452.568 551.956 451.554 550.551C450.863 549.559 450.465 548.469 450.515 547.284C450.598 545.26 452.114 543.735 454.197 543.559C454.521 543.521 454.829 543.528 455.138 543.536L455.107 543.475Z" fill="#24341D"/>
<path d="M439.822 547.764C436.753 547.647 434.539 545.223 433.943 543.363C433.347 541.652 433.675 540.114 434.867 538.776C435.532 538.056 436.244 537.352 436.955 536.649C437.605 535.973 438.209 535.282 438.566 534.405C438.784 533.78 438.848 533.151 438.911 532.522C439.006 531.653 439.055 530.769 439.212 529.872C439.62 527.66 441.63 525.906 443.944 525.81C446.104 525.711 447.922 526.445 449.336 528.039C451.32 530.232 452.469 532.736 452.769 535.596C453.175 539.193 452.009 542.242 449.256 544.639C447.4 546.247 445.223 547.141 442.738 547.578C441.797 547.751 440.794 547.802 439.792 547.704L439.822 547.764Z" fill="#24341D"/>
<path d="M651.934 550.641C651.332 551.985 651.836 553.545 653.258 554.289C654.224 554.771 655.185 554.966 656.258 554.747C657.172 554.6 658.093 554.406 658.904 553.955C659.39 553.695 659.841 553.333 660.017 552.834C660.248 552.295 660.181 551.758 659.907 551.286C659.112 549.681 657.782 548.664 655.936 548.43C654.38 548.24 652.583 549.305 651.934 550.641Z" fill="#24341D"/>
<path d="M656.283 573.075C655.344 572.74 654.508 572.374 653.623 572.334C652.89 572.27 652.177 572.4 651.484 572.725C649.778 573.517 649.236 575.443 650.342 576.952C651.614 578.678 653.865 579.5 656.203 578.135C657.022 577.638 657.709 577.025 658.087 576.174C658.465 575.323 658.296 574.484 657.545 573.89C657.414 573.775 657.283 573.659 657.145 573.59C656.876 573.405 656.552 573.26 656.324 573.129L656.283 573.075Z" fill="#24341D"/>
<path d="M665.001 565.942C663.696 565.407 662.619 565.003 661.491 564.927C659.97 564.838 658.585 565.152 657.438 566.173C656.125 567.312 655.75 569.121 656.503 570.671C657.065 571.858 657.974 572.714 659.167 573.327C661.141 574.347 663.065 574.067 664.87 572.955C665.848 572.387 666.661 571.602 667.205 570.633C667.673 569.843 667.891 569.063 667.584 568.155C667.338 567.495 666.822 566.985 666.243 566.562C665.795 566.254 665.284 566.033 665.063 565.855L665.001 565.942Z" fill="#24341D"/>
<path d="M659.226 562.902C660.206 563.291 661.215 563.493 662.274 563.368C663.631 563.241 664.968 562.919 666.195 562.341C666.673 562.127 667.118 561.812 667.472 561.435C668.063 560.808 668.274 560.075 668.154 559.243C667.992 558.357 667.56 557.621 667.017 556.964C666.267 556.036 665.288 555.312 664.177 554.807C662.555 554.081 660.949 554.218 659.396 554.986C658.321 555.539 657.459 556.316 656.949 557.387C656.076 559.215 656.702 561.272 658.461 562.402C658.729 562.587 659.005 562.725 659.281 562.863L659.226 562.902Z" fill="#24341D"/>
<path d="M647.723 551.96C644.956 550.628 641.865 551.735 640.468 553.1C639.14 554.333 638.711 555.846 639.138 557.586C639.39 558.534 639.689 559.489 639.989 560.443C640.248 561.344 640.458 562.238 640.363 563.18C640.263 563.835 640.025 564.42 639.787 565.006C639.465 565.818 639.094 566.623 638.813 567.489C638.139 569.634 639.095 572.125 641.096 573.292C642.958 574.39 644.908 574.593 646.904 573.845C649.683 572.834 651.87 571.159 653.473 568.772C655.514 565.783 655.911 562.542 654.599 559.136C653.711 556.847 652.205 555.038 650.213 553.489C649.462 552.896 648.6 552.381 647.668 552L647.723 551.96Z" fill="#24341D"/>
<path d="M600.452 609.291C600.28 607.829 601.227 606.49 602.806 606.205C603.872 606.033 604.847 606.134 605.806 606.664C606.634 607.077 607.455 607.538 608.095 608.21C608.48 608.604 608.803 609.084 608.821 609.613C608.881 610.196 608.657 610.688 608.254 611.057C607.016 612.351 605.443 612.924 603.611 612.596C602.07 612.313 600.673 610.76 600.452 609.291Z" fill="#24341D"/>
<path d="M611.305 589.179C610.309 589.219 609.402 589.319 608.546 589.093C607.827 588.935 607.185 588.598 606.621 588.081C605.229 586.815 605.287 584.815 606.794 583.705C608.523 582.438 610.917 582.326 612.74 584.327C613.373 585.046 613.847 585.836 613.953 586.761C614.059 587.686 613.647 588.437 612.753 588.779C612.594 588.85 612.434 588.921 612.282 588.946C611.97 589.042 611.617 589.084 611.361 589.14L611.305 589.179Z" fill="#24341D"/>
<path d="M617.493 598.592C616.088 598.712 614.939 598.776 613.84 598.513C612.362 598.143 611.134 597.429 610.345 596.112C609.432 594.633 609.614 592.795 610.796 591.54C611.686 590.576 612.81 590.03 614.132 589.801C616.32 589.418 618.073 590.26 619.463 591.86C620.226 592.694 620.768 593.686 620.998 594.774C621.208 595.667 621.183 596.477 620.619 597.252C620.188 597.808 619.543 598.14 618.864 598.371C618.344 598.531 617.79 598.59 617.527 598.693L617.493 598.592Z" fill="#24341D"/>
<path d="M611.074 599.768C612.126 599.69 613.149 599.799 614.122 600.234C615.379 600.761 616.558 601.468 617.557 602.386C617.949 602.733 618.279 603.167 618.505 603.632C618.882 604.407 618.865 605.17 618.501 605.928C618.082 606.725 617.45 607.298 616.735 607.763C615.743 608.425 614.592 608.823 613.381 608.973C611.616 609.182 610.125 608.571 608.871 607.374C608.011 606.525 607.421 605.526 607.254 604.352C606.966 602.346 608.178 600.57 610.194 600.017C610.506 599.921 610.81 599.872 611.115 599.823L611.074 599.768Z" fill="#24341D"/>
<path d="M596.828 606.775C593.789 607.219 591.17 605.24 590.245 603.52C589.346 601.947 589.388 600.374 590.316 598.841C590.839 598.012 591.41 597.19 591.981 596.369C592.497 595.586 592.964 594.796 593.156 593.869C593.256 593.214 593.204 592.584 593.151 591.954C593.086 591.083 592.973 590.204 592.964 589.294C592.961 587.045 594.617 584.953 596.875 584.437C598.981 583.946 600.902 584.335 602.583 585.645C604.934 587.439 606.521 589.691 607.337 592.448C608.393 595.911 607.803 599.122 605.534 601.981C604.002 603.9 602.025 605.177 599.661 606.059C598.767 606.401 597.791 606.635 596.787 606.721L596.828 606.775Z" fill="#24341D"/>
<path d="M805.031 574.58C804.672 576.008 805.439 577.457 806.968 577.943C808.003 578.251 808.983 578.276 810.002 577.875C810.876 577.571 811.75 577.22 812.471 576.636C812.904 576.295 813.286 575.861 813.372 575.338C813.506 574.768 813.348 574.251 812.996 573.833C811.935 572.39 810.449 571.619 808.59 571.709C807.025 571.791 805.44 573.152 805.031 574.58Z" fill="#24341D"/>
<path d="M813.203 595.922C812.22 595.755 811.333 595.538 810.455 595.652C809.722 595.716 809.042 595.968 808.415 596.408C806.873 597.484 806.673 599.475 808.024 600.769C809.575 602.248 811.935 602.668 814.001 600.919C814.721 600.287 815.292 599.565 815.517 598.661C815.741 597.757 815.429 596.96 814.587 596.506C814.438 596.414 814.289 596.323 814.141 596.279C813.844 596.144 813.499 596.057 813.253 595.968L813.203 595.922Z" fill="#24341D"/>
<path d="M820.552 587.384C819.174 587.084 818.043 586.873 816.92 586.993C815.406 587.169 814.096 587.719 813.144 588.923C812.048 590.273 811.992 592.119 813.003 593.515C813.761 594.587 814.805 595.273 816.087 595.67C818.207 596.331 820.054 595.722 821.638 594.314C822.503 593.585 823.168 592.671 823.536 591.622C823.859 590.764 823.939 589.957 823.479 589.116C823.123 588.509 822.526 588.097 821.883 587.78C821.388 587.555 820.846 587.425 820.598 587.289L820.552 587.384Z" fill="#24341D"/>
<path d="M814.337 585.391C815.37 585.605 816.399 585.629 817.42 585.322C818.734 584.961 819.995 584.412 821.103 583.631C821.537 583.337 821.92 582.95 822.205 582.518C822.678 581.797 822.759 581.039 822.496 580.24C822.183 579.396 821.63 578.746 820.981 578.193C820.082 577.409 818.993 576.865 817.811 576.561C816.087 576.127 814.53 576.54 813.133 577.565C812.17 578.296 811.456 579.211 811.139 580.354C810.595 582.306 811.569 584.224 813.497 585.032C813.794 585.167 814.089 585.255 814.385 585.343L814.337 585.391Z" fill="#24341D"/>
<path d="M801.114 576.609C798.157 575.777 795.305 577.402 794.165 578.989C793.072 580.433 792.911 581.998 793.634 583.637C794.045 584.527 794.506 585.416 794.967 586.304C795.377 587.146 795.739 587.99 795.809 588.934C795.824 589.596 795.691 590.214 795.558 590.833C795.382 591.688 795.156 592.545 795.03 593.446C794.737 595.677 796.111 597.964 798.283 598.767C800.308 599.525 802.263 599.387 804.099 598.304C806.661 596.827 808.525 594.798 809.69 592.17C811.182 588.872 811.011 585.612 809.129 582.484C807.858 580.384 806.061 578.863 803.831 577.683C802.988 577.229 802.05 576.872 801.066 576.657L801.114 576.609Z" fill="#24341D"/>
<path d="M764.493 641.264C764.069 639.854 764.77 638.372 766.276 637.817C767.296 637.463 768.273 637.394 769.31 637.749C770.197 638.013 771.085 638.324 771.832 638.875C772.28 639.196 772.681 639.613 772.791 640.131C772.95 640.695 772.815 641.218 772.482 641.652C771.488 643.141 770.038 643.978 768.177 643.972C766.61 643.96 764.965 642.673 764.493 641.264Z" fill="#24341D"/>
<path d="M771.696 619.577C770.721 619.788 769.845 620.044 768.962 619.969C768.227 619.938 767.537 619.717 766.891 619.306C765.302 618.301 765.012 616.321 766.304 614.967C767.787 613.42 770.125 612.894 772.268 614.549C773.016 615.147 773.619 615.843 773.884 616.736C774.149 617.629 773.873 618.439 773.052 618.931C772.907 619.029 772.763 619.127 772.617 619.177C772.326 619.326 771.986 619.428 771.743 619.528L771.696 619.577Z" fill="#24341D"/>
<path d="M779.421 627.774C778.058 628.136 776.938 628.398 775.81 628.329C774.29 628.221 772.957 627.73 771.951 626.57C770.796 625.272 770.657 623.43 771.603 621.989C772.313 620.885 773.325 620.153 774.588 619.698C776.676 618.942 778.548 619.467 780.194 620.802C781.091 621.492 781.797 622.375 782.211 623.406C782.573 624.249 782.689 625.051 782.268 625.912C781.939 626.535 781.361 626.973 780.733 627.319C780.249 627.566 779.714 627.72 779.472 627.868L779.421 627.774Z" fill="#24341D"/>
<path d="M773.304 630.045C774.327 629.785 775.353 629.715 776.387 629.975C777.716 630.276 779 630.768 780.143 631.499C780.59 631.773 780.99 632.142 781.293 632.561C781.798 633.26 781.913 634.014 781.687 634.823C781.412 635.681 780.889 636.355 780.265 636.937C779.402 637.761 778.339 638.352 777.172 638.71C775.469 639.221 773.895 638.878 772.453 637.917C771.459 637.23 770.704 636.348 770.336 635.221C769.705 633.295 770.591 631.336 772.481 630.442C772.771 630.293 773.063 630.192 773.354 630.091L773.304 630.045Z" fill="#24341D"/>
<path d="M760.487 639.414C757.571 640.379 754.649 638.883 753.439 637.349C752.282 635.956 752.051 634.4 752.699 632.729C753.07 631.822 753.49 630.914 753.91 630.005C754.283 629.145 754.606 628.287 754.634 627.34C754.619 626.678 754.458 626.066 754.297 625.455C754.083 624.608 753.819 623.763 753.652 622.867C753.259 620.653 754.528 618.306 756.662 617.406C758.651 616.557 760.61 616.608 762.493 617.606C765.119 618.966 767.072 620.909 768.354 623.482C769.994 626.71 769.97 629.975 768.23 633.184C767.055 635.339 765.328 636.939 763.154 638.218C762.332 638.71 761.411 639.109 760.437 639.368L760.487 639.414Z" fill="#24341D"/>
<path d="M966.057 583.062C965.697 584.489 966.464 585.938 967.993 586.424C969.028 586.732 970.008 586.757 971.027 586.356C971.902 586.052 972.775 585.702 973.497 585.118C973.93 584.777 974.311 584.342 974.398 583.82C974.532 583.249 974.373 582.732 974.021 582.315C972.96 580.872 971.474 580.101 969.615 580.19C968.05 580.273 966.465 581.633 966.057 583.062Z" fill="#24341D"/>
<path d="M974.229 604.403C973.246 604.236 972.36 604.019 971.481 604.134C970.748 604.198 970.068 604.45 969.442 604.889C967.899 605.965 967.699 607.957 969.05 609.251C970.601 610.73 972.961 611.15 975.027 609.4C975.747 608.769 976.319 608.046 976.543 607.142C976.767 606.238 976.456 605.441 975.613 604.987C975.464 604.896 975.315 604.804 975.167 604.761C974.871 604.625 974.526 604.538 974.279 604.449L974.229 604.403Z" fill="#24341D"/>
<path d="M981.577 595.866C980.199 595.566 979.068 595.355 977.945 595.475C976.431 595.651 975.121 596.2 974.169 597.405C973.074 598.754 973.017 600.6 974.028 601.997C974.786 603.068 975.83 603.754 977.112 604.151C979.232 604.813 981.079 604.204 982.663 602.796C983.528 602.067 984.193 601.153 984.561 600.104C984.885 599.245 984.964 598.439 984.505 597.598C984.148 596.991 983.552 596.578 982.908 596.262C982.413 596.036 981.872 595.906 981.624 595.77L981.577 595.866Z" fill="#24341D"/>
<path d="M975.363 593.873C976.396 594.086 977.424 594.11 978.446 593.803C979.76 593.443 981.02 592.894 982.129 592.112C982.563 591.818 982.946 591.431 983.23 590.999C983.703 590.279 983.784 589.52 983.521 588.722C983.209 587.877 982.655 587.227 982.006 586.674C981.107 585.89 980.018 585.347 978.836 585.042C977.112 584.608 975.555 585.022 974.158 586.047C973.195 586.778 972.481 587.693 972.164 588.835C971.621 590.787 972.594 592.705 974.522 593.513C974.819 593.649 975.115 593.737 975.41 593.825L975.363 593.873Z" fill="#24341D"/>
<path d="M962.139 585.09C959.182 584.258 956.33 585.884 955.191 587.47C954.097 588.914 953.937 590.479 954.659 592.119C955.071 593.008 955.531 593.897 955.992 594.786C956.403 595.628 956.765 596.471 956.835 597.416C956.85 598.078 956.717 598.696 956.584 599.314C956.407 600.17 956.182 601.026 956.055 601.928C955.763 604.158 957.136 606.445 959.309 607.248C961.333 608.007 963.288 607.868 965.125 606.786C967.687 605.309 969.55 603.28 970.715 600.652C972.208 597.354 972.036 594.093 970.154 590.966C968.883 588.865 967.086 587.344 964.856 586.165C964.014 585.711 963.075 585.353 962.091 585.139L962.139 585.09Z" fill="#24341D"/>
<path d="M925.519 649.746C925.095 648.337 925.797 646.854 927.302 646.3C928.322 645.946 929.3 645.876 930.336 646.232C931.223 646.495 932.112 646.807 932.859 647.357C933.306 647.679 933.708 648.095 933.817 648.613C933.977 649.177 933.842 649.701 933.509 650.134C932.514 651.623 931.064 652.46 929.203 652.455C927.636 652.443 925.991 651.155 925.519 649.746Z" fill="#24341D"/>
<path d="M932.722 628.058C931.747 628.27 930.872 628.526 929.989 628.451C929.254 628.42 928.563 628.199 927.917 627.788C926.328 626.783 926.039 624.803 927.33 623.449C928.813 621.902 931.151 621.376 933.294 623.031C934.042 623.629 934.645 624.325 934.91 625.218C935.175 626.111 934.9 626.921 934.078 627.413C933.934 627.511 933.789 627.609 933.643 627.659C933.353 627.808 933.012 627.91 932.77 628.01L932.722 628.058Z" fill="#24341D"/>
<path d="M940.447 636.257C939.085 636.618 937.964 636.88 936.837 636.811C935.316 636.703 933.983 636.213 932.978 635.053C931.822 633.754 931.683 631.912 932.63 630.472C933.339 629.367 934.351 628.635 935.614 628.181C937.702 627.424 939.575 627.95 941.221 629.285C942.118 629.974 942.823 630.857 943.238 631.888C943.6 632.732 943.716 633.534 943.294 634.395C942.966 635.017 942.388 635.456 941.759 635.801C941.275 636.049 940.74 636.203 940.498 636.35L940.447 636.257Z" fill="#24341D"/>
<path d="M934.33 638.526C935.352 638.267 936.379 638.196 937.413 638.457C938.741 638.758 940.026 639.25 941.168 639.981C941.615 640.255 942.015 640.624 942.318 641.043C942.824 641.741 942.939 642.496 942.712 643.305C942.438 644.163 941.914 644.837 941.291 645.419C940.428 646.243 939.364 646.834 938.197 647.192C936.495 647.703 934.92 647.36 933.479 646.399C932.484 645.712 931.73 644.83 931.361 643.703C930.731 641.777 931.617 639.818 933.506 638.923C933.797 638.775 934.088 638.674 934.38 638.573L934.33 638.526Z" fill="#24341D"/>
<path d="M921.514 647.896C918.598 648.86 915.675 647.365 914.466 645.831C913.308 644.438 913.077 642.882 913.725 641.211C914.096 640.304 914.516 639.396 914.937 638.487C915.309 637.627 915.632 636.769 915.66 635.822C915.645 635.16 915.485 634.548 915.324 633.937C915.109 633.09 914.845 632.244 914.678 631.349C914.285 629.135 915.555 626.788 917.689 625.888C919.677 625.039 921.637 625.09 923.52 626.088C926.145 627.448 928.099 629.391 929.381 631.964C931.02 635.192 930.996 638.457 929.257 641.666C928.081 643.821 926.354 645.421 924.18 646.7C923.359 647.192 922.437 647.591 921.464 647.85L921.514 647.896Z" fill="#24341D"/>
<path d="M1126.66 581.773C1126.54 583.24 1127.54 584.54 1129.13 584.761C1130.2 584.89 1131.17 584.749 1132.11 584.182C1132.92 583.735 1133.72 583.242 1134.34 582.545C1134.71 582.136 1135.01 581.643 1135.01 581.114C1135.04 580.529 1134.8 580.046 1134.38 579.693C1133.09 578.45 1131.5 577.941 1129.68 578.342C1128.15 578.688 1126.82 580.296 1126.66 581.773Z" fill="#24341D"/>
<path d="M1138.31 601.431C1137.31 601.432 1136.4 601.368 1135.56 601.629C1134.85 601.815 1134.22 602.178 1133.67 602.717C1132.34 604.038 1132.47 606.034 1134.02 607.082C1135.8 608.278 1138.2 608.295 1139.94 606.222C1140.54 605.478 1140.99 604.669 1141.05 603.741C1141.12 602.812 1140.68 602.078 1139.77 601.773C1139.61 601.708 1139.45 601.643 1139.3 601.625C1138.98 601.542 1138.63 601.514 1138.37 601.468L1138.31 601.431Z" fill="#24341D"/>
<path d="M1144.12 591.776C1142.71 591.713 1141.56 591.695 1140.47 592.003C1139.01 592.432 1137.81 593.195 1137.07 594.542C1136.22 596.057 1136.48 597.886 1137.71 599.092C1138.64 600.02 1139.78 600.521 1141.11 600.696C1143.31 600.99 1145.03 600.079 1146.35 598.424C1147.08 597.559 1147.59 596.546 1147.77 595.45C1147.95 594.549 1147.89 593.741 1147.29 592.99C1146.84 592.451 1146.18 592.146 1145.49 591.942C1144.97 591.803 1144.41 591.767 1144.15 591.674L1144.12 591.776Z" fill="#24341D"/>
<path d="M1137.65 590.861C1138.71 590.897 1139.73 590.747 1140.68 590.272C1141.92 589.695 1143.07 588.942 1144.03 587.984C1144.41 587.621 1144.72 587.175 1144.92 586.701C1145.27 585.912 1145.22 585.15 1144.83 584.407C1144.38 583.628 1143.72 583.08 1142.99 582.645C1141.97 582.023 1140.81 581.672 1139.59 581.571C1137.82 581.433 1136.35 582.104 1135.15 583.349C1134.32 584.233 1133.77 585.255 1133.65 586.435C1133.45 588.45 1134.73 590.176 1136.77 590.648C1137.08 590.731 1137.39 590.768 1137.69 590.805L1137.65 590.861Z" fill="#24341D"/>
<path d="M1123.14 584.433C1120.08 584.111 1117.55 586.194 1116.69 587.95C1115.86 589.558 1115.96 591.128 1116.95 592.622C1117.51 593.429 1118.11 594.227 1118.71 595.026C1119.26 595.787 1119.76 596.557 1119.99 597.476C1120.11 598.126 1120.09 598.758 1120.06 599.389C1120.03 600.262 1119.95 601.145 1119.98 602.055C1120.07 604.303 1121.81 606.326 1124.08 606.75C1126.21 607.157 1128.11 606.69 1129.74 605.314C1132.02 603.426 1133.51 601.112 1134.22 598.325C1135.13 594.823 1134.41 591.638 1132.03 588.872C1130.42 587.016 1128.39 585.82 1126 585.033C1125.09 584.728 1124.11 584.534 1123.1 584.489L1123.14 584.433Z" fill="#24341D"/>
<path d="M1097.95 654.338C1097.29 653.02 1097.73 651.44 1099.12 650.64C1100.07 650.119 1101.02 649.886 1102.1 650.061C1103.02 650.172 1103.95 650.329 1104.78 650.746C1105.27 650.987 1105.74 651.33 1105.93 651.822C1106.19 652.351 1106.14 652.89 1105.89 653.373C1105.16 655.008 1103.87 656.078 1102.03 656.386C1100.49 656.639 1098.65 655.647 1097.95 654.338Z" fill="#24341D"/>
<path d="M1101.39 631.746C1100.46 632.118 1099.64 632.519 1098.76 632.594C1098.03 632.687 1097.31 632.586 1096.61 632.29C1094.87 631.567 1094.25 629.664 1095.3 628.111C1096.5 626.336 1098.71 625.424 1101.1 626.694C1101.94 627.157 1102.65 627.741 1103.07 628.577C1103.48 629.412 1103.34 630.258 1102.62 630.881C1102.49 631.002 1102.36 631.123 1102.23 631.197C1101.97 631.392 1101.65 631.551 1101.43 631.69L1101.39 631.746Z" fill="#24341D"/>
<path d="M1110.39 638.524C1109.1 639.111 1108.04 639.558 1106.92 639.679C1105.4 639.83 1104.01 639.571 1102.82 638.597C1101.46 637.512 1101.01 635.72 1101.7 634.14C1102.22 632.932 1103.09 632.04 1104.26 631.379C1106.19 630.281 1108.13 630.483 1109.97 631.522C1110.97 632.05 1111.82 632.801 1112.4 633.748C1112.9 634.518 1113.15 635.289 1112.88 636.209C1112.66 636.878 1112.16 637.408 1111.6 637.854C1111.17 638.18 1110.67 638.422 1110.45 638.608L1110.39 638.524Z" fill="#24341D"/>
<path d="M1104.74 641.793C1105.7 641.365 1106.7 641.122 1107.77 641.205C1109.13 641.278 1110.47 641.546 1111.72 642.074C1112.21 642.268 1112.67 642.565 1113.04 642.927C1113.65 643.53 1113.89 644.254 1113.81 645.09C1113.68 645.982 1113.28 646.735 1112.76 647.413C1112.05 648.37 1111.1 649.133 1110.01 649.682C1108.42 650.473 1106.81 650.401 1105.23 649.696C1104.13 649.187 1103.24 648.445 1102.69 647.396C1101.74 645.604 1102.28 643.523 1103.99 642.323C1104.25 642.128 1104.52 641.979 1104.8 641.83L1104.74 641.793Z" fill="#24341D"/>
<path d="M1093.69 653.189C1090.97 654.632 1087.84 653.65 1086.39 652.342C1085.01 651.164 1084.52 649.67 1084.88 647.914C1085.09 646.957 1085.35 645.991 1085.62 645.024C1085.84 644.114 1086.01 643.213 1085.88 642.275C1085.75 641.625 1085.49 641.049 1085.23 640.474C1084.88 639.675 1084.47 638.886 1084.16 638.032C1083.4 635.915 1084.25 633.388 1086.2 632.142C1088.02 630.969 1089.96 630.689 1091.99 631.355C1094.8 632.253 1097.06 633.839 1098.75 636.159C1100.91 639.064 1101.44 642.287 1100.27 645.743C1099.47 648.066 1098.04 649.934 1096.11 651.561C1095.38 652.184 1094.54 652.733 1093.63 653.152L1093.69 653.189Z" fill="#24341D"/>
<path d="M1293.83 556.978C1293.76 558.448 1294.8 559.714 1296.4 559.882C1297.48 559.975 1298.44 559.803 1299.36 559.204C1300.15 558.731 1300.94 558.211 1301.53 557.494C1301.88 557.073 1302.17 556.571 1302.15 556.042C1302.17 555.456 1301.91 554.981 1301.48 554.643C1300.15 553.443 1298.54 552.987 1296.73 553.449C1295.22 553.845 1293.94 555.496 1293.83 556.978Z" fill="#24341D"/>
<path d="M1306.13 576.237C1305.13 576.271 1304.22 576.237 1303.38 576.526C1302.68 576.736 1302.06 577.12 1301.54 577.677C1300.24 579.041 1300.45 581.032 1302.03 582.028C1303.85 583.164 1306.24 583.1 1307.91 580.971C1308.49 580.207 1308.91 579.385 1308.94 578.454C1308.98 577.523 1308.52 576.805 1307.6 576.53C1307.44 576.471 1307.27 576.411 1307.12 576.398C1306.8 576.325 1306.44 576.309 1306.19 576.272L1306.13 576.237Z" fill="#24341D"/>
<path d="M1311.61 566.395C1310.2 566.378 1309.05 566.399 1307.97 566.742C1306.52 567.22 1305.35 568.022 1304.66 569.393C1303.86 570.935 1304.17 572.755 1305.45 573.92C1306.4 574.816 1307.57 575.278 1308.9 575.409C1311.11 575.63 1312.8 574.662 1314.07 572.964C1314.77 572.076 1315.23 571.047 1315.38 569.945C1315.53 569.039 1315.44 568.233 1314.82 567.501C1314.35 566.979 1313.68 566.695 1312.99 566.514C1312.46 566.393 1311.9 566.375 1311.63 566.291L1311.61 566.395Z" fill="#24341D"/>
<path d="M1305.12 565.695C1306.17 565.696 1307.19 565.513 1308.12 565.006C1309.34 564.388 1310.46 563.597 1311.39 562.608C1311.76 562.233 1312.05 561.777 1312.25 561.296C1312.56 560.495 1312.49 559.736 1312.07 559.007C1311.6 558.242 1310.92 557.717 1310.18 557.306C1309.14 556.719 1307.96 556.406 1306.74 556.346C1304.97 556.268 1303.52 556.986 1302.36 558.271C1301.57 559.182 1301.05 560.222 1300.97 561.405C1300.83 563.426 1302.17 565.109 1304.22 565.512C1304.54 565.585 1304.85 565.611 1305.16 565.638L1305.12 565.695Z" fill="#24341D"/>
<path d="M1290.4 559.753C1287.33 559.533 1284.87 561.699 1284.07 563.483C1283.29 565.118 1283.45 566.683 1284.48 568.143C1285.07 568.932 1285.7 569.71 1286.33 570.487C1286.9 571.23 1287.42 571.983 1287.68 572.894C1287.83 573.54 1287.82 574.172 1287.82 574.804C1287.82 575.677 1287.77 576.562 1287.83 577.471C1287.99 579.714 1289.8 581.678 1292.09 582.027C1294.22 582.362 1296.11 581.833 1297.69 580.403C1299.9 578.441 1301.32 576.078 1301.93 573.269C1302.73 569.738 1301.9 566.579 1299.43 563.894C1297.76 562.093 1295.7 560.965 1293.27 560.258C1292.36 559.983 1291.37 559.822 1290.36 559.81L1290.4 559.753Z" fill="#24341D"/>
<path d="M1267.54 630.458C1266.84 629.162 1267.23 627.569 1268.59 626.723C1269.52 626.17 1270.47 625.906 1271.55 626.045C1272.47 626.125 1273.41 626.251 1274.25 626.64C1274.75 626.864 1275.23 627.192 1275.44 627.677C1275.71 628.198 1275.68 628.737 1275.45 629.229C1274.77 630.888 1273.52 631.999 1271.7 632.369C1270.16 632.673 1268.29 631.742 1267.54 630.458Z" fill="#24341D"/>
<path d="M1270.23 607.763C1269.32 608.166 1268.51 608.594 1267.63 608.698C1266.91 608.816 1266.19 608.739 1265.47 608.466C1263.71 607.801 1263.03 605.92 1264.02 604.334C1265.16 602.519 1267.35 601.534 1269.78 602.723C1270.63 603.159 1271.36 603.719 1271.8 604.54C1272.24 605.362 1272.14 606.211 1271.43 606.858C1271.31 606.983 1271.19 607.108 1271.05 607.187C1270.8 607.391 1270.49 607.559 1270.27 607.706L1270.23 607.763Z" fill="#24341D"/>
<path d="M1279.45 614.238C1278.19 614.867 1277.14 615.349 1276.02 615.508C1274.51 615.709 1273.11 615.497 1271.89 614.563C1270.5 613.523 1269.99 611.747 1270.63 610.145C1271.1 608.921 1271.94 608 1273.09 607.301C1274.98 606.139 1276.92 606.277 1278.8 607.253C1279.82 607.748 1280.69 608.471 1281.3 609.398C1281.83 610.151 1282.1 610.913 1281.86 611.841C1281.67 612.517 1281.19 613.063 1280.64 613.528C1280.22 613.868 1279.72 614.126 1279.52 614.319L1279.45 614.238Z" fill="#24341D"/>
<path d="M1273.91 617.693C1274.86 617.233 1275.85 616.958 1276.92 617.005C1278.28 617.032 1279.64 617.255 1280.91 617.741C1281.4 617.919 1281.86 618.201 1282.25 618.55C1282.88 619.132 1283.15 619.848 1283.09 620.687C1282.99 621.582 1282.61 622.348 1282.12 623.043C1281.44 624.024 1280.52 624.817 1279.45 625.403C1277.88 626.246 1276.27 626.227 1274.67 625.576C1273.55 625.103 1272.64 624.391 1272.05 623.361C1271.04 621.602 1271.52 619.504 1273.19 618.248C1273.44 618.044 1273.71 617.886 1273.97 617.728L1273.91 617.693Z" fill="#24341D"/>
<path d="M1263.25 629.452C1260.58 630.984 1257.42 630.107 1255.93 628.848C1254.51 627.716 1253.97 626.239 1254.27 624.472C1254.45 623.509 1254.68 622.534 1254.91 621.56C1255.1 620.643 1255.25 619.736 1255.08 618.803C1254.93 618.158 1254.65 617.591 1254.37 617.025C1253.99 616.238 1253.56 615.463 1253.22 614.62C1252.39 612.53 1253.16 609.976 1255.07 608.665C1256.85 607.433 1258.78 607.088 1260.82 607.686C1263.67 608.49 1265.97 610 1267.75 612.263C1270 615.094 1270.63 618.297 1269.58 621.79C1268.86 624.138 1267.49 626.053 1265.62 627.744C1264.91 628.391 1264.09 628.967 1263.19 629.416L1263.25 629.452Z" fill="#24341D"/>
<path d="M123.541 351.456C122.801 352.728 123.138 354.333 124.473 355.223C125.383 355.805 126.317 356.1 127.408 355.995C128.332 355.945 129.268 355.85 130.123 355.488C130.633 355.28 131.12 354.968 131.348 354.49C131.634 353.978 131.625 353.438 131.402 352.939C130.781 351.259 129.566 350.107 127.755 349.679C126.228 349.326 124.329 350.196 123.541 351.456Z" fill="#24341D"/>
<path d="M125.498 374.224C124.599 373.792 123.807 373.339 122.931 373.206C122.209 373.065 121.486 373.119 120.762 373.369C118.983 373.976 118.24 375.835 119.181 377.452C120.263 379.302 122.415 380.358 124.884 379.247C125.75 378.84 126.499 378.303 126.965 377.496C127.43 376.69 127.351 375.837 126.667 375.168C126.549 375.039 126.431 374.91 126.301 374.827C126.053 374.615 125.746 374.436 125.533 374.283L125.498 374.224Z" fill="#24341D"/>
<path d="M134.919 368.05C133.678 367.38 132.65 366.865 131.537 366.67C130.033 366.42 128.623 366.587 127.375 367.481C125.949 368.475 125.384 370.234 125.97 371.856C126.403 373.094 127.216 374.042 128.339 374.778C130.193 376 132.137 375.925 134.048 375.01C135.081 374.548 135.972 373.854 136.616 372.947C137.164 372.211 137.464 371.458 137.254 370.523C137.08 369.841 136.62 369.28 136.089 368.798C135.676 368.444 135.191 368.17 134.991 367.97L134.919 368.05Z" fill="#24341D"/>
<path d="M129.498 364.418C130.432 364.908 131.414 365.216 132.48 365.203C133.843 365.22 135.206 365.041 136.487 364.595C136.986 364.433 137.461 364.167 137.853 363.83C138.507 363.269 138.794 362.562 138.763 361.722C138.695 360.824 138.343 360.046 137.872 359.335C137.225 358.334 136.328 357.51 135.276 356.891C133.74 355.997 132.129 355.964 130.503 356.563C129.376 357 128.437 357.682 127.816 358.693C126.755 360.418 127.16 362.531 128.79 363.84C129.037 364.052 129.297 364.218 129.557 364.385L129.498 364.418Z" fill="#24341D"/>
<path d="M119.217 352.322C116.605 350.705 113.415 351.479 111.881 352.689C110.431 353.775 109.844 355.234 110.086 357.01C110.235 357.978 110.433 358.96 110.63 359.941C110.792 360.864 110.906 361.774 110.713 362.702C110.544 363.342 110.245 363.899 109.947 364.456C109.541 365.23 109.087 365.991 108.716 366.822C107.819 368.885 108.507 371.463 110.373 372.835C112.109 374.123 114.027 374.53 116.09 373.998C118.961 373.286 121.313 371.851 123.158 369.647C125.504 366.89 126.241 363.709 125.296 360.184C124.655 357.814 123.348 355.856 121.531 354.105C120.847 353.436 120.044 352.833 119.157 352.355L119.217 352.322Z" fill="#24341D"/>
<path d="M66.1539 404.34C66.1366 402.868 67.22 401.637 68.8199 401.521C69.8983 401.462 70.8571 401.666 71.7548 402.294C72.5346 402.792 73.3024 403.337 73.8679 404.073C74.2096 404.505 74.4799 405.017 74.4421 405.545C74.4396 406.131 74.1651 406.597 73.7253 406.921C72.3579 408.077 70.733 408.481 68.9462 407.961C67.4435 407.517 66.2186 405.825 66.1539 404.34Z" fill="#24341D"/>
<path d="M79.0709 385.488C78.0759 385.422 77.1636 385.426 76.3357 385.11C75.6377 384.878 75.0352 384.474 74.5282 383.901C73.2784 382.496 73.5475 380.512 75.1629 379.568C77.0158 378.491 79.4084 378.632 81.0103 380.814C81.5638 381.596 81.9511 382.432 81.959 383.363C81.9668 384.294 81.478 384.997 80.5529 385.243C80.3868 385.297 80.2207 385.351 80.0666 385.359C79.7465 385.422 79.391 385.426 79.1302 385.455L79.0709 385.488Z" fill="#24341D"/>
<path d="M84.2294 395.501C82.8197 395.472 81.6707 395.414 80.606 395.036C79.1747 394.513 78.0291 393.673 77.3835 392.28C76.632 390.713 77.007 388.904 78.3151 387.781C79.3022 386.916 80.4769 386.492 81.8161 386.404C84.0322 386.254 85.6865 387.277 86.8994 389.015C87.5708 389.925 88.0046 390.969 88.1184 392.075C88.2329 392.985 88.1228 393.788 87.48 394.499C86.9921 395.006 86.3156 395.268 85.6159 395.426C85.0823 395.53 84.5255 395.53 84.2527 395.605L84.2294 395.501Z" fill="#24341D"/>
<path d="M77.7225 395.993C78.7768 396.026 79.7829 396.242 80.7047 396.778C81.8985 397.435 82.9968 398.262 83.8928 399.28C84.2466 399.667 84.5289 400.133 84.7045 400.619C84.9972 401.43 84.8992 402.187 84.4578 402.902C83.957 403.65 83.2676 404.154 82.5077 404.54C81.4509 405.094 80.2649 405.368 79.0445 405.389C77.2673 405.41 75.8489 404.645 74.729 403.323C73.9629 402.388 73.4817 401.332 73.4394 400.147C73.3652 398.122 74.7584 396.484 76.8214 396.147C77.1415 396.084 77.4497 396.067 77.7578 396.051L77.7225 395.993Z" fill="#24341D"/>
<path d="M62.8168 401.455C59.7477 401.577 57.3523 399.332 56.6137 397.523C55.8862 395.864 56.0944 394.305 57.1786 392.879C57.7862 392.109 58.4411 391.352 59.0959 390.596C59.6914 389.872 60.2396 389.136 60.5278 388.234C60.6965 387.593 60.711 386.961 60.7256 386.329C60.753 385.456 60.7332 384.571 60.82 383.664C61.0547 381.427 62.923 379.522 65.2226 379.248C67.3682 378.981 69.2376 379.571 70.7714 381.051C72.919 383.084 74.2592 385.491 74.7802 388.318C75.4639 391.873 74.5382 395.004 71.9797 397.608C70.2543 399.354 68.1527 400.415 65.7094 401.043C64.7842 401.289 63.7885 401.418 62.7815 401.397L62.8168 401.455Z" fill="#24341D"/>
<path d="M275.931 415.749C275.032 416.914 275.157 418.549 276.364 419.605C277.191 420.3 278.079 420.714 279.174 420.753C280.097 420.824 281.038 420.851 281.932 420.603C282.465 420.463 282.989 420.217 283.276 419.773C283.627 419.303 283.688 418.766 283.532 418.242C283.135 416.496 282.08 415.196 280.34 414.536C278.872 413.987 276.876 414.602 275.931 415.749Z" fill="#24341D"/>
<path d="M274.907 438.578C274.072 438.032 273.346 437.48 272.495 437.234C271.797 437 271.074 436.96 270.323 437.113C268.48 437.484 267.502 439.23 268.224 440.956C269.056 442.931 271.052 444.258 273.645 443.478C274.557 443.186 275.369 442.752 275.936 442.013C276.502 441.273 276.535 440.418 275.943 439.665C275.843 439.522 275.743 439.379 275.625 439.28C275.407 439.037 275.125 438.82 274.935 438.64L274.907 438.578Z" fill="#24341D"/>
<path d="M285.052 433.682C283.909 432.857 282.956 432.212 281.878 431.873C280.42 431.431 279 431.412 277.646 432.136C276.103 432.936 275.314 434.607 275.684 436.291C275.952 437.575 276.635 438.621 277.652 439.497C279.332 440.95 281.268 441.128 283.283 440.47C284.367 440.146 285.341 439.574 286.097 438.759C286.737 438.1 287.131 437.393 287.046 436.438C286.961 435.739 286.578 435.123 286.115 434.576C285.751 434.172 285.306 433.837 285.133 433.613L285.052 433.682Z" fill="#24341D"/>
<path d="M280.149 429.376C281.011 429.983 281.945 430.416 283.004 430.542C284.353 430.736 285.728 430.736 287.056 430.461C287.571 430.365 288.077 430.163 288.51 429.88C289.231 429.409 289.608 428.745 289.686 427.908C289.736 427.009 289.488 426.192 289.114 425.426C288.603 424.349 287.82 423.416 286.858 422.665C285.451 421.579 283.858 421.336 282.168 421.719C280.994 422.005 279.974 422.559 279.227 423.48C277.95 425.053 278.077 427.2 279.522 428.71C279.74 428.953 279.976 429.152 280.212 429.35L280.149 429.376Z" fill="#24341D"/>
<path d="M271.529 416.044C269.15 414.101 265.886 414.453 264.208 415.453C262.629 416.341 261.857 417.712 261.865 419.503C261.888 420.483 261.956 421.482 262.023 422.481C262.064 423.417 262.059 424.334 261.746 425.229C261.496 425.842 261.127 426.355 260.759 426.869C260.255 427.583 259.707 428.278 259.231 429.055C258.072 430.983 258.419 433.628 260.091 435.231C261.644 436.735 263.492 437.388 265.608 437.128C268.546 436.797 271.065 435.68 273.182 433.735C275.867 431.307 277.011 428.249 276.533 424.63C276.206 422.197 275.165 420.085 273.591 418.113C273 417.361 272.282 416.659 271.465 416.069L271.529 416.044Z" fill="#24341D"/>
<path d="M212.149 460.713C212.323 459.252 213.557 458.172 215.159 458.265C216.236 458.347 217.16 458.674 217.968 459.413C218.677 460.009 219.367 460.649 219.832 461.452C220.114 461.925 220.316 462.468 220.21 462.986C220.131 463.567 219.798 463.993 219.32 464.258C217.814 465.226 216.15 465.415 214.446 464.667C213.014 464.031 212.02 462.194 212.149 460.713Z" fill="#24341D"/>
<path d="M227.409 443.702C226.431 443.506 225.526 443.392 224.747 442.971C224.085 442.649 223.54 442.171 223.112 441.537C222.056 439.981 222.581 438.049 224.305 437.323C226.282 436.496 228.636 436.948 229.941 439.32C230.388 440.167 230.663 441.046 230.549 441.97C230.436 442.895 229.86 443.528 228.911 443.651C228.739 443.683 228.567 443.715 228.413 443.703C228.088 443.724 227.735 443.682 227.473 443.676L227.409 443.702Z" fill="#24341D"/>
<path d="M231.22 454.302C229.826 454.09 228.694 453.883 227.688 453.369C226.337 452.664 225.31 451.682 224.852 450.217C224.31 448.565 224.918 446.821 226.361 445.878C227.452 445.148 228.672 444.881 230.011 444.968C232.228 445.108 233.735 446.337 234.711 448.218C235.259 449.208 235.553 450.299 235.522 451.41C235.517 452.328 235.303 453.109 234.573 453.731C234.024 454.17 233.319 454.342 232.605 454.408C232.062 454.442 231.51 454.369 231.23 454.408L231.22 454.302Z" fill="#24341D"/>
<path d="M224.706 453.941C225.747 454.111 226.716 454.457 227.56 455.108C228.659 455.915 229.64 456.878 230.396 458.004C230.696 458.434 230.915 458.932 231.026 459.437C231.211 460.279 231.015 461.017 230.484 461.668C229.891 462.345 229.142 462.755 228.338 463.039C227.218 463.45 226.006 463.568 224.794 463.43C223.029 463.22 221.722 462.277 220.784 460.82C220.146 459.793 219.806 458.684 219.918 457.503C220.108 455.486 221.703 454.043 223.792 453.977C224.118 453.957 224.425 453.98 224.733 454.004L224.706 453.941Z" fill="#24341D"/>
<path d="M209.216 457.418C206.157 457.139 204.074 454.601 203.577 452.712C203.072 450.972 203.481 449.454 204.742 448.18C205.444 447.497 206.192 446.831 206.94 446.166C207.624 445.526 208.264 444.868 208.667 444.011C208.917 443.398 209.014 442.773 209.111 442.148C209.252 441.286 209.347 440.406 209.551 439.518C210.075 437.331 212.175 435.685 214.491 435.712C216.653 435.727 218.43 436.556 219.758 438.223C221.623 440.518 222.638 443.079 222.787 445.95C223.002 449.563 221.677 452.547 218.801 454.796C216.863 456.303 214.642 457.081 212.137 457.386C211.188 457.509 210.184 457.507 209.188 457.356L209.216 457.418Z" fill="#24341D"/>
<path d="M434.038 478.616C433.138 479.781 433.263 481.416 434.471 482.472C435.297 483.167 436.186 483.582 437.28 483.62C438.203 483.691 439.144 483.718 440.039 483.47C440.572 483.33 441.095 483.084 441.383 482.64C441.733 482.17 441.794 481.633 441.638 481.109C441.241 479.363 440.186 478.063 438.446 477.403C436.979 476.854 434.982 477.469 434.038 478.616Z" fill="#24341D"/>
<path d="M433.014 501.445C432.179 500.9 431.453 500.348 430.601 500.102C429.904 499.868 429.18 499.827 428.43 499.981C426.586 500.351 425.608 502.097 426.33 503.823C427.162 505.799 429.159 507.125 431.751 506.346C432.663 506.054 433.476 505.62 434.042 504.88C434.609 504.141 434.641 503.286 434.05 502.533C433.95 502.39 433.849 502.247 433.731 502.148C433.513 501.905 433.232 501.688 433.041 501.508L433.014 501.445Z" fill="#24341D"/>
<path d="M443.159 496.55C442.015 495.725 441.063 495.08 439.985 494.742C438.526 494.299 437.106 494.28 435.752 495.005C434.209 495.805 433.421 497.475 433.79 499.159C434.058 500.444 434.741 501.489 435.758 502.365C437.438 503.818 439.375 503.996 441.389 503.338C442.473 503.014 443.448 502.442 444.204 501.627C444.843 500.968 445.238 500.261 445.152 499.306C445.068 498.607 444.685 497.991 444.221 497.444C443.857 497.04 443.413 496.705 443.24 496.481L443.159 496.55Z" fill="#24341D"/>
<path d="M438.256 492.243C439.118 492.851 440.051 493.284 441.11 493.41C442.459 493.604 443.834 493.603 445.162 493.329C445.678 493.233 446.183 493.031 446.616 492.748C447.338 492.276 447.715 491.613 447.792 490.776C447.843 489.877 447.595 489.06 447.22 488.294C446.709 487.216 445.927 486.283 444.965 485.533C443.558 484.446 441.964 484.204 440.275 484.586C439.1 484.873 438.08 485.427 437.334 486.348C436.056 487.921 436.183 490.068 437.629 491.578C437.847 491.821 438.083 492.019 438.319 492.218L438.256 492.243Z" fill="#24341D"/>
<path d="M429.635 478.912C427.256 476.969 423.992 477.321 422.314 478.322C420.735 479.209 419.964 480.58 419.972 482.372C419.994 483.352 420.062 484.35 420.13 485.349C420.17 486.285 420.165 487.203 419.853 488.097C419.602 488.71 419.234 489.223 418.865 489.737C418.362 490.451 417.813 491.146 417.337 491.923C416.179 493.851 416.525 496.496 418.197 498.099C419.751 499.603 421.599 500.256 423.714 499.997C426.653 499.665 429.172 498.548 431.289 496.603C433.973 494.175 435.117 491.117 434.64 487.498C434.312 485.065 433.272 482.953 431.698 480.982C431.106 480.229 430.389 479.527 429.572 478.938L429.635 478.912Z" fill="#24341D"/>
<path d="M370.256 523.582C370.43 522.12 371.665 521.041 373.266 521.133C374.343 521.216 375.267 521.543 376.076 522.282C376.784 522.878 377.474 523.518 377.939 524.321C378.222 524.794 378.423 525.336 378.317 525.855C378.238 526.436 377.905 526.862 377.427 527.126C375.921 528.095 374.257 528.283 372.553 527.536C371.121 526.899 370.127 525.062 370.256 523.582Z" fill="#24341D"/>
<path d="M385.516 506.571C384.538 506.376 383.633 506.261 382.853 505.84C382.191 505.519 381.646 505.04 381.218 504.406C380.162 502.85 380.687 500.918 382.411 500.193C384.389 499.366 386.743 499.817 388.047 502.189C388.494 503.036 388.769 503.915 388.656 504.84C388.542 505.764 387.966 506.397 387.017 506.52C386.845 506.552 386.674 506.584 386.52 506.572C386.194 506.593 385.841 506.551 385.579 506.546L385.516 506.571Z" fill="#24341D"/>
<path d="M389.326 517.17C387.932 516.958 386.801 516.751 385.794 516.237C384.443 515.532 383.417 514.55 382.958 513.085C382.417 511.433 383.024 509.689 384.467 508.746C385.558 508.017 386.778 507.749 388.118 507.836C390.334 507.976 391.842 509.205 392.818 511.086C393.365 512.076 393.66 513.167 393.628 514.279C393.623 515.196 393.41 515.978 392.68 516.599C392.13 517.039 391.425 517.21 390.711 517.276C390.168 517.31 389.616 517.237 389.336 517.276L389.326 517.17Z" fill="#24341D"/>
<path d="M382.812 516.81C383.853 516.98 384.823 517.325 385.667 517.977C386.765 518.783 387.746 519.746 388.502 520.873C388.803 521.302 389.022 521.801 389.133 522.306C389.317 523.148 389.122 523.885 388.591 524.537C387.997 525.214 387.248 525.623 386.444 525.908C385.324 526.319 384.113 526.437 382.9 526.299C381.135 526.088 379.828 525.146 378.89 523.689C378.252 522.662 377.913 521.552 378.025 520.372C378.215 518.355 379.809 516.911 381.899 516.846C382.224 516.825 382.532 516.849 382.84 516.872L382.812 516.81Z" fill="#24341D"/>
<path d="M367.322 520.287C364.263 520.007 362.18 517.47 361.683 515.58C361.178 513.841 361.587 512.322 362.848 511.049C363.551 510.365 364.298 509.7 365.046 509.035C365.731 508.395 366.37 507.737 366.773 506.879C367.024 506.267 367.121 505.642 367.217 505.017C367.358 504.155 367.454 503.274 367.658 502.387C368.182 500.199 370.282 498.554 372.598 498.581C374.76 498.596 376.536 499.424 377.865 501.091C379.729 503.386 380.745 505.947 380.893 508.818C381.109 512.432 379.783 515.416 376.908 517.664C374.97 519.171 372.748 519.949 370.244 520.254C369.294 520.377 368.29 520.376 367.295 520.224L367.322 520.287Z" fill="#24341D"/>
<path d="M581.734 530.06C580.897 531.271 581.108 532.897 582.37 533.888C583.232 534.539 584.141 534.905 585.236 534.886C586.162 534.908 587.103 534.885 587.983 534.591C588.508 534.423 589.018 534.15 589.281 533.691C589.607 533.203 589.639 532.663 589.455 532.149C588.967 530.426 587.845 529.183 586.072 528.616C584.578 528.146 582.617 528.865 581.734 530.06Z" fill="#24341D"/>
<path d="M581.917 552.912C581.055 552.411 580.3 551.898 579.437 551.698C578.728 551.501 578.003 551.499 577.262 551.691C575.441 552.159 574.556 553.954 575.369 555.64C576.304 557.568 578.367 558.788 580.915 557.872C581.811 557.533 582.599 557.056 583.126 556.288C583.652 555.52 583.639 554.664 583.009 553.944C582.902 553.806 582.794 553.668 582.671 553.575C582.44 553.345 582.148 553.143 581.948 552.973L581.917 552.912Z" fill="#24341D"/>
<path d="M591.79 547.487C590.604 546.724 589.619 546.13 588.524 545.849C587.045 545.484 585.626 545.541 584.312 546.335C582.813 547.216 582.114 548.925 582.572 550.587C582.907 551.856 583.645 552.864 584.707 553.685C586.461 555.047 588.404 555.123 590.381 554.359C591.446 553.979 592.389 553.356 593.101 552.502C593.705 551.811 594.062 551.084 593.926 550.135C593.805 549.441 593.39 548.846 592.898 548.324C592.513 547.94 592.052 547.629 591.867 547.414L591.79 547.487Z" fill="#24341D"/>
<path d="M586.667 543.446C587.56 544.007 588.515 544.39 589.579 544.46C590.936 544.582 592.309 544.51 593.621 544.165C594.131 544.042 594.625 543.814 595.043 543.508C595.738 542.999 596.08 542.317 596.113 541.477C596.116 540.576 595.825 539.774 595.411 539.029C594.843 537.979 594.013 537.089 593.012 536.39C591.55 535.38 589.946 535.222 588.279 535.693C587.121 536.041 586.132 536.648 585.435 537.607C584.242 539.246 584.483 541.383 586.006 542.815C586.236 543.045 586.483 543.231 586.729 543.417L586.667 543.446Z" fill="#24341D"/>
<path d="M577.354 530.589C574.876 528.774 571.635 529.298 570.012 530.386C568.482 531.355 567.784 532.765 567.887 534.554C567.961 535.531 568.081 536.525 568.202 537.518C568.291 538.451 568.335 539.368 568.07 540.277C567.852 540.902 567.511 541.435 567.17 541.967C566.705 542.707 566.194 543.43 565.76 544.231C564.705 546.217 565.191 548.841 566.945 550.353C568.576 551.773 570.456 552.327 572.555 551.956C575.472 551.47 577.928 550.222 579.939 548.168C582.492 545.601 583.473 542.487 582.805 538.898C582.349 536.486 581.199 534.432 579.523 532.546C578.893 531.826 578.139 531.163 577.292 530.617L577.354 530.589Z" fill="#24341D"/>
<path d="M520.415 578.331C520.512 576.862 521.687 575.719 523.291 575.726C524.371 575.752 525.311 576.029 526.157 576.725C526.896 577.283 527.619 577.885 528.126 578.663C528.433 579.12 528.663 579.651 528.584 580.174C528.536 580.759 528.227 581.202 527.763 581.491C526.31 582.538 524.659 582.814 522.918 582.157C521.454 581.597 520.364 579.815 520.415 578.331Z" fill="#24341D"/>
<path d="M534.755 560.538C533.769 560.394 532.859 560.328 532.058 559.949C531.38 559.662 530.811 559.214 530.35 558.602C529.213 557.104 529.635 555.148 531.319 554.332C533.25 553.402 535.624 553.728 537.052 556.028C537.543 556.851 537.864 557.714 537.8 558.643C537.735 559.572 537.194 560.235 536.252 560.408C536.082 560.449 535.912 560.49 535.758 560.486C535.434 560.524 535.08 560.5 534.817 560.509L534.755 560.538Z" fill="#24341D"/>
<path d="M539.122 570.922C537.718 570.784 536.577 570.637 535.545 570.177C534.159 569.544 533.082 568.618 532.546 567.179C531.919 565.558 532.433 563.784 533.824 562.766C534.875 561.98 536.079 561.649 537.421 561.665C539.643 561.688 541.212 562.835 542.287 564.662C542.886 565.622 543.237 566.696 543.265 567.807C543.308 568.724 543.136 569.516 542.44 570.175C541.914 570.643 541.22 570.851 540.51 570.955C539.97 571.017 539.414 570.974 539.137 571.028L539.122 570.922Z" fill="#24341D"/>
<path d="M532.598 570.906C533.646 571.021 534.632 571.314 535.51 571.92C536.649 572.668 537.68 573.578 538.494 574.663C538.817 575.076 539.062 575.562 539.199 576.06C539.428 576.891 539.272 577.638 538.776 578.317C538.219 579.025 537.493 579.473 536.705 579.799C535.608 580.269 534.405 580.451 533.186 580.377C531.413 580.26 530.058 579.387 529.044 577.982C528.353 576.99 527.955 575.9 528.005 574.716C528.088 572.691 529.604 571.166 531.687 570.99C532.011 570.952 532.32 570.96 532.628 570.967L532.598 570.906Z" fill="#24341D"/>
<path d="M517.311 575.196C514.242 575.078 512.028 572.654 511.432 570.794C510.836 569.083 511.164 567.545 512.356 566.207C513.021 565.487 513.733 564.783 514.445 564.08C515.095 563.405 515.698 562.713 516.056 561.836C516.273 561.211 516.337 560.582 516.4 559.953C516.496 559.084 516.545 558.2 516.701 557.303C517.109 555.091 519.12 553.337 521.434 553.241C523.593 553.142 525.411 553.876 526.826 555.47C528.809 557.664 529.958 560.167 530.258 563.027C530.664 566.624 529.498 569.674 526.745 572.071C524.89 573.678 522.712 574.572 520.227 575.009C519.286 575.182 518.283 575.233 517.281 575.135L517.311 575.196Z" fill="#24341D"/>
<path d="M733.128 563.479C732.526 564.822 733.031 566.382 734.452 567.126C735.418 567.609 736.379 567.803 737.452 567.585C738.366 567.437 739.287 567.243 740.099 566.793C740.584 566.532 741.036 566.17 741.211 565.671C741.442 565.132 741.375 564.596 741.101 564.123C740.306 562.518 738.976 561.502 737.13 561.267C735.575 561.077 733.778 562.142 733.128 563.479Z" fill="#24341D"/>
<path d="M737.478 585.914C736.539 585.579 735.704 585.212 734.818 585.172C734.085 585.108 733.372 585.238 732.679 585.563C730.973 586.355 730.431 588.282 731.538 589.79C732.809 591.516 735.06 592.338 737.398 590.973C738.217 590.476 738.905 589.864 739.282 589.012C739.66 588.161 739.491 587.322 738.74 586.729C738.609 586.613 738.478 586.497 738.34 586.428C738.072 586.244 737.747 586.098 737.519 585.968L737.478 585.914Z" fill="#24341D"/>
<path d="M746.196 578.779C744.891 578.245 743.814 577.841 742.687 577.764C741.165 577.675 739.78 577.99 738.634 579.011C737.321 580.15 736.945 581.958 737.698 583.509C738.26 584.695 739.169 585.552 740.363 586.165C742.336 587.184 744.261 586.904 746.065 585.792C747.043 585.224 747.856 584.439 748.401 583.47C748.868 582.68 749.086 581.9 748.779 580.992C748.534 580.332 748.017 579.823 747.438 579.399C746.99 579.092 746.479 578.87 746.259 578.693L746.196 578.779Z" fill="#24341D"/>
<path d="M740.421 575.74C741.402 576.129 742.411 576.331 743.47 576.206C744.826 576.078 746.163 575.756 747.39 575.178C747.869 574.964 748.313 574.649 748.668 574.273C749.259 573.645 749.47 572.912 749.349 572.08C749.188 571.194 748.755 570.458 748.212 569.801C747.463 568.873 746.484 568.149 745.372 567.645C743.75 566.918 742.145 567.056 740.591 567.823C739.516 568.376 738.655 569.154 738.145 570.224C737.271 572.052 737.897 574.11 739.656 575.24C739.925 575.424 740.201 575.562 740.477 575.7L740.421 575.74Z" fill="#24341D"/>
<path d="M728.919 564.797C726.151 563.465 723.06 564.572 721.663 565.937C720.336 567.17 719.906 568.683 720.334 570.423C720.585 571.371 720.885 572.325 721.184 573.28C721.443 574.181 721.653 575.075 721.559 576.017C721.458 576.672 721.22 577.257 720.982 577.843C720.66 578.655 720.29 579.459 720.009 580.326C719.334 582.471 720.29 584.962 722.291 586.129C724.153 587.227 726.103 587.429 728.099 586.682C730.878 585.671 733.065 583.996 734.668 581.609C736.71 578.62 737.106 575.379 735.794 571.973C734.906 569.684 733.4 567.875 731.408 566.326C730.657 565.733 729.795 565.218 728.863 564.837L728.919 564.797Z" fill="#24341D"/>
<path d="M681.648 622.128C681.475 620.666 682.422 619.328 684.001 619.043C685.067 618.871 686.042 618.972 687.001 619.501C687.829 619.915 688.65 620.375 689.29 621.047C689.676 621.441 689.998 621.921 690.017 622.45C690.076 623.033 689.852 623.525 689.449 623.894C688.212 625.189 686.638 625.762 684.807 625.434C683.265 625.15 681.869 623.597 681.648 622.128Z" fill="#24341D"/>
<path d="M692.501 602.017C691.504 602.056 690.598 602.157 689.741 601.93C689.022 601.772 688.381 601.435 687.816 600.918C686.425 599.653 686.483 597.652 687.989 596.543C689.718 595.276 692.112 595.163 693.936 597.164C694.569 597.883 695.042 598.673 695.148 599.599C695.254 600.524 694.843 601.274 693.949 601.616C693.789 601.687 693.63 601.759 693.477 601.783C693.166 601.879 692.813 601.921 692.556 601.978L692.501 602.017Z" fill="#24341D"/>
<path d="M698.688 611.43C697.283 611.55 696.134 611.614 695.036 611.35C693.557 610.98 692.329 610.266 691.54 608.95C690.627 607.47 690.809 605.632 691.991 604.377C692.882 603.413 694.005 602.867 695.327 602.638C697.515 602.255 699.268 603.097 700.658 604.697C701.422 605.532 701.963 606.524 702.193 607.611C702.403 608.505 702.379 609.314 701.814 610.089C701.383 610.645 700.738 610.977 700.059 611.209C699.539 611.368 698.985 611.427 698.722 611.531L698.688 611.43Z" fill="#24341D"/>
<path d="M692.269 612.605C693.321 612.527 694.344 612.635 695.318 613.071C696.574 613.598 697.754 614.305 698.752 615.223C699.145 615.57 699.475 616.003 699.701 616.469C700.077 617.244 700.06 618.007 699.696 618.765C699.278 619.562 698.645 620.135 697.93 620.6C696.938 621.262 695.788 621.66 694.576 621.81C692.811 622.018 691.32 621.408 690.067 620.211C689.206 619.362 688.616 618.363 688.449 617.189C688.161 615.183 689.374 613.407 691.389 612.854C691.701 612.758 692.006 612.709 692.31 612.66L692.269 612.605Z" fill="#24341D"/>
<path d="M678.024 619.612C674.985 620.056 672.365 618.077 671.44 616.357C670.541 614.784 670.584 613.211 671.511 611.678C672.034 610.849 672.605 610.027 673.177 609.206C673.692 608.423 674.16 607.633 674.351 606.706C674.451 606.051 674.399 605.421 674.347 604.791C674.282 603.92 674.168 603.041 674.159 602.131C674.156 599.882 675.813 597.79 678.071 597.274C680.176 596.782 682.097 597.172 683.779 598.481C686.129 600.276 687.716 602.528 688.533 605.285C689.588 608.747 688.998 611.959 686.729 614.818C685.198 616.737 683.22 618.013 680.857 618.896C679.962 619.238 678.986 619.472 677.982 619.557L678.024 619.612Z" fill="#24341D"/>
<path d="M887.22 573.152C886.86 574.579 887.627 576.029 889.156 576.515C890.191 576.823 891.171 576.848 892.19 576.446C893.065 576.143 893.938 575.792 894.66 575.208C895.093 574.867 895.475 574.433 895.561 573.91C895.695 573.34 895.536 572.823 895.184 572.405C894.123 570.962 892.637 570.191 890.778 570.28C889.214 570.363 887.628 571.723 887.22 573.152Z" fill="#24341D"/>
<path d="M895.391 594.494C894.408 594.327 893.522 594.11 892.643 594.225C891.91 594.289 891.23 594.54 890.604 594.98C889.061 596.056 888.861 598.047 890.212 599.342C891.763 600.821 894.123 601.241 896.189 599.491C896.909 598.86 897.481 598.137 897.705 597.233C897.93 596.329 897.618 595.532 896.775 595.078C896.626 594.987 896.477 594.895 896.329 594.851C896.033 594.716 895.688 594.629 895.441 594.54L895.391 594.494Z" fill="#24341D"/>
<path d="M902.74 585.956C901.362 585.656 900.231 585.445 899.108 585.565C897.594 585.741 896.285 586.291 895.332 587.495C894.237 588.844 894.18 590.691 895.191 592.087C895.95 593.158 896.993 593.844 898.275 594.241C900.396 594.903 902.242 594.294 903.827 592.886C904.691 592.157 905.356 591.243 905.724 590.194C906.048 589.335 906.128 588.529 905.668 587.688C905.312 587.081 904.715 586.669 904.071 586.352C903.576 586.127 903.035 585.997 902.787 585.86L902.74 585.956Z" fill="#24341D"/>
<path d="M896.526 583.964C897.559 584.177 898.587 584.201 899.609 583.894C900.923 583.534 902.183 582.985 903.292 582.203C903.726 581.909 904.109 581.522 904.393 581.09C904.866 580.37 904.947 579.611 904.684 578.812C904.372 577.968 903.818 577.318 903.169 576.765C902.27 575.981 901.181 575.438 899.999 575.133C898.276 574.699 896.718 575.112 895.321 576.137C894.358 576.869 893.645 577.784 893.328 578.926C892.784 580.878 893.757 582.796 895.685 583.604C895.982 583.739 896.278 583.827 896.574 583.915L896.526 583.964Z" fill="#24341D"/>
<path d="M883.302 575.18C880.346 574.348 877.493 575.973 876.354 577.56C875.26 579.004 875.1 580.569 875.822 582.209C876.234 583.098 876.695 583.987 877.155 584.875C877.566 585.718 877.928 586.561 877.998 587.506C878.013 588.168 877.88 588.786 877.747 589.404C877.57 590.259 877.345 591.116 877.218 592.018C876.926 594.248 878.299 596.535 880.472 597.338C882.496 598.097 884.452 597.958 886.288 596.876C888.85 595.399 890.713 593.37 891.878 590.741C893.371 587.443 893.2 584.183 891.317 581.055C890.046 578.955 888.249 577.434 886.019 576.254C885.177 575.8 884.238 575.443 883.254 575.229L883.302 575.18Z" fill="#24341D"/>
<path d="M846.681 639.836C846.258 638.426 846.959 636.944 848.464 636.389C849.484 636.035 850.462 635.966 851.498 636.321C852.385 636.585 853.274 636.896 854.021 637.447C854.469 637.768 854.87 638.185 854.979 638.703C855.139 639.267 855.004 639.79 854.671 640.223C853.676 641.713 852.226 642.549 850.365 642.544C848.798 642.532 847.153 641.244 846.681 639.836Z" fill="#24341D"/>
<path d="M853.884 618.148C852.91 618.359 852.034 618.616 851.151 618.541C850.416 618.51 849.725 618.289 849.08 617.878C847.49 616.873 847.201 614.893 848.492 613.539C849.975 611.991 852.314 611.466 854.456 613.121C855.204 613.719 855.807 614.415 856.072 615.308C856.337 616.201 856.062 617.011 855.24 617.503C855.096 617.601 854.951 617.698 854.805 617.749C854.515 617.898 854.174 618 853.932 618.1L853.884 618.148Z" fill="#24341D"/>
<path d="M861.609 626.347C860.247 626.709 859.126 626.97 857.999 626.901C856.478 626.794 855.145 626.303 854.14 625.143C852.985 623.844 852.845 622.002 853.792 620.562C854.502 619.458 855.513 618.725 856.776 618.271C858.864 617.514 860.737 618.04 862.383 619.375C863.28 620.064 863.985 620.947 864.4 621.979C864.762 622.822 864.878 623.624 864.456 624.485C864.128 625.107 863.55 625.546 862.921 625.891C862.437 626.139 861.902 626.293 861.661 626.44L861.609 626.347Z" fill="#24341D"/>
<path d="M855.493 628.616C856.515 628.357 857.542 628.286 858.576 628.547C859.905 628.848 861.189 629.34 862.331 630.071C862.778 630.345 863.178 630.714 863.481 631.133C863.987 631.831 864.102 632.586 863.875 633.395C863.601 634.253 863.077 634.927 862.454 635.509C861.591 636.332 860.527 636.924 859.36 637.282C857.658 637.793 856.083 637.45 854.642 636.489C853.647 635.802 852.893 634.92 852.525 633.793C851.894 631.867 852.78 629.907 854.669 629.013C854.96 628.865 855.251 628.764 855.543 628.662L855.493 628.616Z" fill="#24341D"/>
<path d="M842.676 637.986C839.76 638.95 836.837 637.455 835.628 635.921C834.47 634.528 834.239 632.972 834.887 631.301C835.258 630.394 835.679 629.486 836.099 628.577C836.471 627.717 836.795 626.858 836.822 625.912C836.807 625.25 836.647 624.638 836.486 624.027C836.271 623.18 836.007 622.334 835.84 621.439C835.448 619.224 836.717 616.878 838.851 615.978C840.839 615.129 842.799 615.179 844.682 616.178C847.308 617.538 849.261 619.481 850.543 622.054C852.182 625.282 852.158 628.547 850.419 631.756C849.243 633.911 847.517 635.511 845.342 636.79C844.521 637.282 843.599 637.681 842.626 637.94L842.676 637.986Z" fill="#24341D"/>
<path d="M1048.25 581.63C1047.89 583.058 1048.65 584.507 1050.18 584.993C1051.22 585.301 1052.2 585.326 1053.22 584.925C1054.09 584.621 1054.97 584.27 1055.69 583.686C1056.12 583.346 1056.5 582.911 1056.59 582.389C1056.72 581.818 1056.56 581.301 1056.21 580.883C1055.15 579.441 1053.66 578.67 1051.81 578.759C1050.24 578.842 1048.66 580.202 1048.25 581.63Z" fill="#24341D"/>
<path d="M1056.42 602.972C1055.44 602.805 1054.55 602.588 1053.67 602.703C1052.94 602.767 1052.26 603.018 1051.63 603.458C1050.09 604.534 1049.89 606.525 1051.24 607.82C1052.79 609.299 1055.15 609.719 1057.22 607.969C1057.94 607.338 1058.51 606.615 1058.73 605.711C1058.96 604.807 1058.65 604.01 1057.8 603.556C1057.65 603.465 1057.51 603.373 1057.36 603.329C1057.06 603.194 1056.72 603.107 1056.47 603.018L1056.42 602.972Z" fill="#24341D"/>
<path d="M1063.77 594.435C1062.39 594.135 1061.26 593.923 1060.14 594.043C1058.62 594.219 1057.31 594.769 1056.36 595.974C1055.26 597.323 1055.21 599.169 1056.22 600.566C1056.98 601.637 1058.02 602.323 1059.3 602.72C1061.42 603.382 1063.27 602.772 1064.85 601.365C1065.72 600.636 1066.38 599.722 1066.75 598.673C1067.08 597.814 1067.15 597.008 1066.7 596.166C1066.34 595.559 1065.74 595.147 1065.1 594.831C1064.6 594.605 1064.06 594.475 1063.81 594.339L1063.77 594.435Z" fill="#24341D"/>
<path d="M1057.55 592.442C1058.59 592.656 1059.61 592.68 1060.64 592.373C1061.95 592.012 1063.21 591.463 1064.32 590.681C1064.75 590.388 1065.14 590.001 1065.42 589.568C1065.89 588.848 1065.97 588.089 1065.71 587.291C1065.4 586.446 1064.85 585.797 1064.2 585.243C1063.3 584.459 1062.21 583.916 1061.03 583.612C1059.3 583.177 1057.75 583.591 1056.35 584.616C1055.39 585.347 1054.67 586.262 1054.35 587.405C1053.81 589.357 1054.78 591.274 1056.71 592.083C1057.01 592.218 1057.31 592.306 1057.6 592.394L1057.55 592.442Z" fill="#24341D"/>
<path d="M1044.33 583.659C1041.37 582.827 1038.52 584.452 1037.38 586.039C1036.29 587.483 1036.13 589.048 1036.85 590.688C1037.26 591.577 1037.72 592.466 1038.18 593.354C1038.59 594.197 1038.95 595.04 1039.03 595.985C1039.04 596.647 1038.91 597.265 1038.77 597.883C1038.6 598.738 1038.37 599.595 1038.25 600.497C1037.95 602.727 1039.33 605.014 1041.5 605.817C1043.52 606.576 1045.48 606.437 1047.32 605.355C1049.88 603.878 1051.74 601.849 1052.91 599.22C1054.4 595.922 1054.23 592.662 1052.34 589.534C1051.07 587.434 1049.28 585.913 1047.05 584.733C1046.2 584.279 1045.27 583.922 1044.28 583.708L1044.33 583.659Z" fill="#24341D"/>
<path d="M1007.71 648.314C1007.29 646.904 1007.99 645.422 1009.49 644.868C1010.51 644.514 1011.49 644.444 1012.53 644.799C1013.41 645.063 1014.3 645.374 1015.05 645.925C1015.5 646.246 1015.9 646.663 1016.01 647.181C1016.17 647.745 1016.03 648.269 1015.7 648.702C1014.7 650.191 1013.25 651.028 1011.39 651.023C1009.83 651.011 1008.18 649.723 1007.71 648.314Z" fill="#24341D"/>
<path d="M1014.91 626.627C1013.94 626.839 1013.06 627.095 1012.18 627.02C1011.44 626.989 1010.75 626.768 1010.11 626.357C1008.52 625.352 1008.23 623.372 1009.52 622.018C1011 620.47 1013.34 619.945 1015.48 621.6C1016.23 622.198 1016.84 622.894 1017.1 623.787C1017.37 624.68 1017.09 625.49 1016.27 625.982C1016.12 626.08 1015.98 626.177 1015.83 626.228C1015.54 626.377 1015.2 626.479 1014.96 626.579L1014.91 626.627Z" fill="#24341D"/>
<path d="M1022.64 634.825C1021.27 635.187 1020.15 635.449 1019.03 635.379C1017.51 635.272 1016.17 634.781 1015.17 633.621C1014.01 632.322 1013.87 630.48 1014.82 629.04C1015.53 627.936 1016.54 627.203 1017.8 626.749C1019.89 625.992 1021.77 626.518 1023.41 627.853C1024.31 628.542 1025.01 629.425 1025.43 630.457C1025.79 631.3 1025.91 632.102 1025.48 632.963C1025.16 633.585 1024.58 634.024 1023.95 634.37C1023.47 634.617 1022.93 634.771 1022.69 634.918L1022.64 634.825Z" fill="#24341D"/>
<path d="M1016.52 637.095C1017.54 636.836 1018.57 636.765 1019.6 637.026C1020.93 637.327 1022.22 637.819 1023.36 638.55C1023.81 638.824 1024.21 639.193 1024.51 639.612C1025.02 640.31 1025.13 641.065 1024.9 641.874C1024.63 642.732 1024.11 643.406 1023.48 643.988C1022.62 644.811 1021.56 645.403 1020.39 645.761C1018.69 646.272 1017.11 645.929 1015.67 644.968C1014.68 644.281 1013.92 643.399 1013.55 642.272C1012.92 640.346 1013.81 638.386 1015.7 637.492C1015.99 637.344 1016.28 637.243 1016.57 637.141L1016.52 637.095Z" fill="#24341D"/>
<path d="M1003.7 646.464C1000.79 647.429 997.866 645.933 996.656 644.399C995.498 643.006 995.268 641.45 995.915 639.78C996.287 638.872 996.707 637.964 997.127 637.056C997.499 636.196 997.823 635.337 997.851 634.39C997.836 633.728 997.675 633.117 997.514 632.505C997.299 631.658 997.035 630.813 996.868 629.918C996.476 627.703 997.745 625.356 999.879 624.457C1001.87 623.607 1003.83 623.658 1005.71 624.656C1008.34 626.017 1010.29 627.96 1011.57 630.533C1013.21 633.76 1013.19 637.025 1011.45 640.234C1010.27 642.39 1008.54 643.99 1006.37 645.269C1005.55 645.76 1004.63 646.16 1003.65 646.418L1003.7 646.464Z" fill="#24341D"/>
<path d="M1207.43 566.502C1207.32 567.97 1208.32 569.269 1209.9 569.49C1210.98 569.619 1211.95 569.479 1212.88 568.911C1213.69 568.465 1214.5 567.972 1215.11 567.274C1215.48 566.865 1215.78 566.373 1215.78 565.843C1215.81 565.258 1215.57 564.775 1215.15 564.423C1213.86 563.18 1212.27 562.671 1210.45 563.072C1208.92 563.417 1207.59 565.025 1207.43 566.502Z" fill="#24341D"/>
<path d="M1219.08 586.161C1218.09 586.162 1217.18 586.098 1216.33 586.359C1215.62 586.545 1214.99 586.908 1214.45 587.447C1213.11 588.768 1213.25 590.764 1214.8 591.812C1216.57 593.008 1218.97 593.025 1220.71 590.952C1221.32 590.208 1221.76 589.399 1221.83 588.471C1221.9 587.542 1221.45 586.808 1220.55 586.503C1220.38 586.438 1220.22 586.373 1220.07 586.355C1219.75 586.272 1219.4 586.244 1219.14 586.198L1219.08 586.161Z" fill="#24341D"/>
<path d="M1224.89 576.506C1223.48 576.443 1222.33 576.425 1221.24 576.733C1219.78 577.162 1218.58 577.925 1217.85 579.272C1216.99 580.787 1217.25 582.616 1218.48 583.822C1219.41 584.75 1220.55 585.251 1221.88 585.426C1224.09 585.72 1225.8 584.808 1227.13 583.154C1227.86 582.289 1228.36 581.276 1228.54 580.18C1228.72 579.279 1228.66 578.471 1228.07 577.72C1227.61 577.181 1226.95 576.876 1226.27 576.672C1225.74 576.533 1225.19 576.497 1224.92 576.404L1224.89 576.506Z" fill="#24341D"/>
<path d="M1218.43 575.59C1219.48 575.626 1220.5 575.477 1221.45 575.002C1222.69 574.425 1223.84 573.671 1224.8 572.714C1225.18 572.351 1225.49 571.905 1225.7 571.431C1226.04 570.641 1225.99 569.88 1225.6 569.137C1225.15 568.357 1224.5 567.81 1223.76 567.374C1222.74 566.753 1221.58 566.401 1220.36 566.3C1218.59 566.163 1217.12 566.833 1215.92 568.079C1215.09 568.962 1214.55 569.984 1214.43 571.164C1214.22 573.18 1215.5 574.906 1217.54 575.377C1217.85 575.461 1218.16 575.498 1218.47 575.534L1218.43 575.59Z" fill="#24341D"/>
<path d="M1203.91 569.163C1200.86 568.841 1198.32 570.925 1197.46 572.681C1196.63 574.288 1196.73 575.858 1197.72 577.352C1198.28 578.16 1198.88 578.958 1199.49 579.756C1200.03 580.517 1200.53 581.287 1200.76 582.207C1200.89 582.857 1200.86 583.488 1200.83 584.12C1200.8 584.993 1200.73 585.875 1200.75 586.786C1200.84 589.033 1202.58 591.056 1204.86 591.481C1206.98 591.887 1208.88 591.421 1210.51 590.045C1212.79 588.157 1214.28 585.843 1214.99 583.055C1215.9 579.553 1215.18 576.368 1212.8 573.603C1211.19 571.747 1209.17 570.551 1206.77 569.764C1205.86 569.458 1204.88 569.264 1203.87 569.219L1203.91 569.163Z" fill="#24341D"/>
<path d="M1178.72 639.067C1178.06 637.749 1178.5 636.17 1179.89 635.37C1180.84 634.849 1181.79 634.615 1182.87 634.791C1183.79 634.901 1184.72 635.058 1185.55 635.475C1186.04 635.716 1186.51 636.059 1186.71 636.551C1186.96 637.081 1186.91 637.619 1186.66 638.102C1185.93 639.738 1184.64 640.807 1182.81 641.116C1181.26 641.368 1179.42 640.376 1178.72 639.067Z" fill="#24341D"/>
<path d="M1182.16 616.476C1181.24 616.848 1180.42 617.249 1179.53 617.324C1178.8 617.417 1178.09 617.316 1177.38 617.02C1175.64 616.297 1175.02 614.394 1176.07 612.841C1177.27 611.066 1179.49 610.154 1181.88 611.424C1182.72 611.887 1183.43 612.471 1183.84 613.307C1184.25 614.142 1184.12 614.988 1183.39 615.611C1183.26 615.732 1183.14 615.852 1183 615.927C1182.74 616.122 1182.42 616.281 1182.2 616.42L1182.16 616.476Z" fill="#24341D"/>
<path d="M1191.16 623.254C1189.87 623.841 1188.81 624.288 1187.69 624.409C1186.17 624.56 1184.78 624.301 1183.59 623.327C1182.23 622.242 1181.79 620.45 1182.48 618.87C1182.99 617.662 1183.86 616.77 1185.03 616.109C1186.96 615.011 1188.9 615.213 1190.74 616.252C1191.74 616.78 1192.59 617.531 1193.17 618.478C1193.67 619.248 1193.92 620.019 1193.65 620.939C1193.43 621.608 1192.93 622.138 1192.37 622.584C1191.94 622.91 1191.44 623.152 1191.22 623.338L1191.16 623.254Z" fill="#24341D"/>
<path d="M1185.51 626.523C1186.47 626.095 1187.47 625.852 1188.54 625.935C1189.9 626.008 1191.25 626.276 1192.5 626.804C1192.98 626.998 1193.44 627.295 1193.81 627.657C1194.42 628.26 1194.66 628.984 1194.58 629.82C1194.45 630.712 1194.05 631.465 1193.53 632.143C1192.82 633.1 1191.87 633.863 1190.78 634.412C1189.19 635.203 1187.58 635.131 1186 634.426C1184.9 633.917 1184.01 633.175 1183.46 632.126C1182.51 630.334 1183.05 628.253 1184.76 627.053C1185.03 626.858 1185.3 626.709 1185.57 626.56L1185.51 626.523Z" fill="#24341D"/>
<path d="M1174.46 637.919C1171.75 639.362 1168.61 638.38 1167.16 637.072C1165.79 635.894 1165.3 634.399 1165.65 632.644C1165.87 631.687 1166.13 630.721 1166.39 629.754C1166.61 628.844 1166.78 627.943 1166.65 627.005C1166.53 626.355 1166.26 625.779 1166 625.204C1165.65 624.405 1165.25 623.616 1164.93 622.762C1164.17 620.645 1165.02 618.118 1166.98 616.872C1168.79 615.699 1170.73 615.419 1172.76 616.085C1175.58 616.983 1177.83 618.569 1179.53 620.889C1181.69 623.794 1182.21 627.016 1181.04 630.473C1180.24 632.796 1178.81 634.664 1176.88 636.291C1176.16 636.914 1175.32 637.463 1174.4 637.882L1174.46 637.919Z" fill="#24341D"/>
<path d="M1374.04 539.03C1373.98 540.5 1375.02 541.765 1376.62 541.934C1377.69 542.027 1378.66 541.854 1379.58 541.256C1380.37 540.783 1381.16 540.263 1381.75 539.546C1382.1 539.125 1382.39 538.622 1382.37 538.093C1382.38 537.507 1382.12 537.033 1381.7 536.695C1380.37 535.495 1378.76 535.039 1376.95 535.501C1375.44 535.896 1374.16 537.548 1374.04 539.03Z" fill="#24341D"/>
<path d="M1386.34 558.29C1385.35 558.324 1384.44 558.29 1383.6 558.579C1382.89 558.789 1382.28 559.173 1381.75 559.73C1380.46 561.094 1380.66 563.085 1382.25 564.081C1384.06 565.217 1386.46 565.153 1388.13 563.023C1388.71 562.26 1389.12 561.437 1389.16 560.507C1389.2 559.576 1388.73 558.858 1387.82 558.583C1387.65 558.523 1387.49 558.464 1387.34 558.451C1387.02 558.378 1386.66 558.362 1386.4 558.325L1386.34 558.29Z" fill="#24341D"/>
<path d="M1391.82 548.447C1390.41 548.43 1389.26 548.451 1388.19 548.795C1386.74 549.272 1385.57 550.074 1384.88 551.445C1384.08 552.988 1384.39 554.808 1385.66 555.972C1386.62 556.868 1387.78 557.33 1389.12 557.461C1391.33 557.683 1393.02 556.714 1394.28 555.016C1394.98 554.128 1395.45 553.099 1395.6 551.997C1395.74 551.091 1395.66 550.285 1395.04 549.554C1394.57 549.031 1393.9 548.747 1393.21 548.567C1392.68 548.445 1392.12 548.427 1391.85 548.344L1391.82 548.447Z" fill="#24341D"/>
<path d="M1385.34 547.747C1386.39 547.748 1387.4 547.564 1388.34 547.058C1389.56 546.44 1390.68 545.649 1391.61 544.66C1391.98 544.285 1392.27 543.828 1392.46 543.348C1392.78 542.547 1392.71 541.788 1392.29 541.058C1391.82 540.294 1391.14 539.769 1390.4 539.358C1389.36 538.771 1388.18 538.458 1386.96 538.398C1385.19 538.319 1383.74 539.038 1382.58 540.323C1381.79 541.233 1381.27 542.273 1381.19 543.456C1381.05 545.478 1382.39 547.16 1384.44 547.564C1384.76 547.637 1385.07 547.663 1385.37 547.69L1385.34 547.747Z" fill="#24341D"/>
<path d="M1370.62 541.806C1367.55 541.586 1365.09 543.752 1364.29 545.536C1363.51 547.171 1363.67 548.736 1364.7 550.196C1365.29 550.985 1365.92 551.762 1366.55 552.54C1367.12 553.282 1367.64 554.036 1367.9 554.947C1368.05 555.592 1368.04 556.224 1368.04 556.857C1368.04 557.73 1367.99 558.615 1368.05 559.523C1368.21 561.767 1370.01 563.731 1372.3 564.08C1374.44 564.415 1376.33 563.886 1377.91 562.456C1380.12 560.493 1381.54 558.131 1382.15 555.322C1382.95 551.791 1382.12 548.632 1379.65 545.947C1377.98 544.146 1375.92 543.018 1373.49 542.311C1372.58 542.036 1371.59 541.875 1370.58 541.863L1370.62 541.806Z" fill="#24341D"/>
<path d="M1347.76 612.509C1347.06 611.214 1347.45 609.621 1348.81 608.774C1349.74 608.222 1350.69 607.957 1351.77 608.097C1352.69 608.177 1353.63 608.302 1354.47 608.692C1354.97 608.916 1355.45 609.244 1355.66 609.729C1355.93 610.249 1355.9 610.789 1355.67 611.281C1354.99 612.939 1353.74 614.051 1351.92 614.421C1350.38 614.724 1348.51 613.794 1347.76 612.509Z" fill="#24341D"/>
<path d="M1350.45 589.816C1349.54 590.219 1348.73 590.646 1347.85 590.75C1347.13 590.868 1346.4 590.791 1345.69 590.518C1343.93 589.854 1343.25 587.972 1344.24 586.386C1345.38 584.572 1347.57 583.586 1350 584.775C1350.85 585.211 1351.58 585.771 1352.02 586.593C1352.46 587.414 1352.35 588.263 1351.65 588.91C1351.53 589.035 1351.4 589.16 1351.27 589.239C1351.02 589.443 1350.7 589.612 1350.49 589.758L1350.45 589.816Z" fill="#24341D"/>
<path d="M1359.67 596.291C1358.41 596.92 1357.36 597.402 1356.24 597.561C1354.73 597.762 1353.33 597.55 1352.11 596.616C1350.72 595.576 1350.21 593.8 1350.85 592.199C1351.32 590.974 1352.16 590.053 1353.31 589.354C1355.2 588.192 1357.14 588.33 1359.02 589.306C1360.04 589.801 1360.91 590.524 1361.52 591.451C1362.05 592.204 1362.32 592.966 1362.08 593.894C1361.89 594.57 1361.41 595.116 1360.86 595.581C1360.44 595.921 1359.94 596.18 1359.74 596.373L1359.67 596.291Z" fill="#24341D"/>
<path d="M1354.13 599.746C1355.08 599.286 1356.07 599.01 1357.14 599.057C1358.5 599.085 1359.86 599.308 1361.12 599.794C1361.62 599.972 1362.08 600.254 1362.46 600.603C1363.1 601.185 1363.36 601.901 1363.3 602.739C1363.21 603.635 1362.83 604.401 1362.34 605.096C1361.66 606.076 1360.74 606.87 1359.66 607.455C1358.1 608.299 1356.49 608.28 1354.88 607.629C1353.77 607.156 1352.85 606.444 1352.27 605.414C1351.26 603.655 1351.73 601.557 1353.4 600.301C1353.66 600.097 1353.92 599.939 1354.19 599.781L1354.13 599.746Z" fill="#24341D"/>
<path d="M1343.47 611.503C1340.8 613.035 1337.64 612.159 1336.15 610.9C1334.73 609.768 1334.19 608.29 1334.49 606.524C1334.67 605.56 1334.9 604.586 1335.13 603.612C1335.32 602.694 1335.46 601.788 1335.3 600.855C1335.15 600.209 1334.87 599.643 1334.59 599.076C1334.21 598.29 1333.78 597.515 1333.44 596.672C1332.61 594.582 1333.38 592.027 1335.29 590.716C1337.06 589.484 1338.99 589.139 1341.04 589.738C1343.89 590.542 1346.19 592.052 1347.96 594.314C1350.22 597.146 1350.85 600.349 1349.8 603.842C1349.08 606.19 1347.71 608.105 1345.84 609.796C1345.13 610.443 1344.31 611.019 1343.41 611.468L1343.47 611.503Z" fill="#24341D"/>
</g>
</svg>
