<svg width="1413" height="272" viewBox="0 0 1413 272" fill="none" xmlns="http://www.w3.org/2000/svg">
<g opacity="0.35">
<path d="M68.7705 204.534C68.9065 205.999 70.1122 207.111 71.7156 207.06C72.7942 207.006 73.7265 206.704 74.5541 205.986C75.2777 205.409 75.9846 204.787 76.4704 203.997C76.7653 203.531 76.9809 202.994 76.8883 202.473C76.8248 201.89 76.5033 201.456 76.0322 201.179C74.5518 200.171 72.8937 199.939 71.1707 200.642C69.7224 201.24 68.6803 203.051 68.7705 204.534Z" fill="#24341D"/>
<path d="M83.5785 221.939C82.5959 222.109 81.6881 222.199 80.8975 222.6C80.2275 222.904 79.6702 223.367 79.2257 223.991C78.129 225.518 78.6031 227.463 80.308 228.234C82.2629 229.112 84.6279 228.723 85.9939 226.385C86.463 225.551 86.7613 224.679 86.6721 223.752C86.583 222.825 86.0237 222.177 85.078 222.029C84.9072 221.992 84.7363 221.956 84.5823 221.964C84.2573 221.935 83.9034 221.968 83.641 221.966L83.5785 221.939Z" fill="#24341D"/>
<path d="M87.6677 211.443C86.2686 211.618 85.1319 211.795 84.1124 212.282C82.7433 212.952 81.6913 213.906 81.1942 215.359C80.6099 216.996 81.1712 218.756 82.5891 219.736C83.6608 220.494 84.8734 220.794 86.2144 220.741C88.4341 220.66 89.973 219.471 90.9983 217.616C91.5713 216.641 91.8942 215.558 91.8922 214.446C91.9113 213.528 91.7183 212.742 91.0049 212.101C90.4668 211.648 89.7668 211.457 89.0544 211.373C88.5129 211.325 87.9591 211.383 87.6799 211.337L87.6677 211.443Z" fill="#24341D"/>
<path d="M81.1457 211.632C82.1908 211.489 83.169 211.17 84.03 210.54C85.1489 209.763 86.1551 208.826 86.9403 207.72C87.2519 207.298 87.4842 206.806 87.6082 206.304C87.815 205.467 87.6387 204.724 87.1252 204.059C86.5492 203.367 85.8112 202.938 85.0152 202.632C83.9065 202.192 82.6984 202.043 81.4825 202.149C79.7127 202.313 78.3816 203.221 77.4054 204.652C76.7409 205.662 76.3722 206.763 76.4535 207.946C76.5904 209.967 78.1466 211.452 80.2335 211.572C80.5584 211.601 80.8666 211.586 81.1748 211.57L81.1457 211.632Z" fill="#24341D"/>
<path d="M65.7514 207.75C62.6864 207.949 60.5377 210.431 59.9913 212.307C59.4406 214.032 59.8098 215.561 61.0367 216.867C61.721 217.569 62.4511 218.254 63.1813 218.938C63.8488 219.596 64.4706 220.271 64.8512 221.138C65.0856 221.757 65.1659 222.385 65.2461 223.012C65.3643 223.877 65.4367 224.76 65.6175 225.653C66.0838 227.853 68.1402 229.553 70.4559 229.587C72.6176 229.628 74.4154 228.847 75.7868 227.215C77.7111 224.97 78.7935 222.436 79.0174 219.57C79.3273 215.964 78.0807 212.946 75.2651 210.623C73.3673 209.065 71.1667 208.229 68.6712 207.859C67.7255 207.711 66.7217 207.686 65.7224 207.812L65.7514 207.75Z" fill="#24341D"/>
<path d="M52.3093 258.058C51.4607 258.581 50.7203 259.114 49.8627 259.338C49.1592 259.553 48.4346 259.575 47.6887 259.402C45.8554 258.983 44.9234 257.212 45.6908 255.505C46.5744 253.553 48.6046 252.279 51.1758 253.126C52.0802 253.441 52.8807 253.897 53.4277 254.651C53.9746 255.405 53.9845 256.261 53.3736 256.998C53.2698 257.138 53.1659 257.278 53.0453 257.375C52.8208 257.611 52.5338 257.821 52.3384 257.996L52.3093 258.058Z" fill="#24341D"/>
<path d="M62.3219 263.218C61.1572 264.012 60.1879 264.632 59.1014 264.942C57.6319 265.347 56.2116 265.328 54.8775 264.568C53.3558 263.728 52.6114 262.038 53.0248 260.364C53.3265 259.087 54.0368 258.059 55.0765 257.211C56.7941 255.802 58.7347 255.675 60.7309 256.386C61.8061 256.737 62.7651 257.335 63.4997 258.17C64.1215 258.845 64.4976 259.562 64.3869 260.515C64.2841 261.211 63.8853 261.817 63.4073 262.352C63.0332 262.746 62.5798 263.07 62.4012 263.289L62.3219 263.218Z" fill="#24341D"/>
<path d="M57.3085 267.394C58.1863 266.809 59.131 266.401 60.1928 266.303C61.5461 266.145 62.9206 266.181 64.2415 266.49C64.7539 266.6 65.2541 266.815 65.6795 267.109C66.3884 267.6 66.7478 268.273 66.8035 269.111C66.8301 270.012 66.5609 270.821 66.1666 271.577C65.6271 272.641 64.8207 273.553 63.8391 274.279C62.4042 275.328 60.8052 275.528 59.126 275.102C57.9592 274.784 56.9544 274.204 56.2322 273.263C54.9965 271.658 55.18 269.515 56.6642 268.043C56.8886 267.806 57.1298 267.614 57.3711 267.421L57.3085 267.394Z" fill="#24341D"/>
<path d="M48.3411 280.495C45.9122 282.375 42.6586 281.938 41.0074 280.894C39.4522 279.965 38.7166 278.575 38.7717 276.784C38.8199 275.805 38.9138 274.808 39.0078 273.812C39.0728 272.877 39.0919 271.959 38.8029 271.057C38.5685 270.438 38.2136 269.915 37.8586 269.392C37.3741 268.665 36.8439 267.955 36.3885 267.167C35.2812 265.209 35.6971 262.573 37.4102 261.015C39.0027 259.553 40.8674 258.948 42.9755 259.263C45.9041 259.672 48.3927 260.854 50.458 262.854C53.0781 265.352 54.1416 268.439 53.5693 272.044C53.178 274.467 52.0823 276.551 50.4573 278.481C49.8464 279.218 49.1105 279.901 48.2785 280.468L48.3411 280.495Z" fill="#24341D"/>
<path d="M225.64 155.982C225.776 157.448 226.981 158.56 228.585 158.509C229.663 158.455 230.596 158.153 231.423 157.435C232.147 156.858 232.854 156.236 233.34 155.446C233.634 154.98 233.85 154.443 233.757 153.922C233.694 153.339 233.372 152.904 232.901 152.628C231.421 151.62 229.763 151.388 228.04 152.09C226.592 152.689 225.549 154.499 225.64 155.982Z" fill="#24341D"/>
<path d="M240.449 173.388C239.466 173.558 238.558 173.648 237.768 174.049C237.098 174.353 236.54 174.817 236.096 175.44C234.999 176.968 235.473 178.912 237.178 179.683C239.133 180.561 241.498 180.172 242.864 177.835C243.333 177 243.631 176.128 243.542 175.201C243.453 174.274 242.894 173.626 241.948 173.478C241.777 173.442 241.606 173.405 241.452 173.413C241.127 173.384 240.773 173.417 240.511 173.415L240.449 173.388Z" fill="#24341D"/>
<path d="M244.537 162.892C243.138 163.067 242.001 163.245 240.981 163.731C239.612 164.401 238.56 165.356 238.063 166.808C237.479 168.445 238.04 170.205 239.458 171.186C240.53 171.943 241.743 172.243 243.084 172.191C245.303 172.109 246.842 170.92 247.867 169.065C248.44 168.09 248.763 167.007 248.761 165.895C248.78 164.978 248.587 164.191 247.874 163.551C247.336 163.097 246.636 162.907 245.924 162.822C245.382 162.774 244.828 162.832 244.549 162.786L244.537 162.892Z" fill="#24341D"/>
<path d="M238.014 163.081C239.059 162.938 240.037 162.619 240.898 161.99C242.017 161.212 243.023 160.275 243.808 159.169C244.12 158.747 244.352 158.255 244.476 157.753C244.683 156.916 244.507 156.174 243.993 155.508C243.417 154.816 242.679 154.387 241.883 154.082C240.775 153.641 239.567 153.492 238.351 153.598C236.581 153.762 235.25 154.67 234.274 156.102C233.609 157.112 233.24 158.212 233.322 159.395C233.459 161.417 235.015 162.901 237.102 163.022C237.427 163.05 237.735 163.035 238.043 163.02L238.014 163.081Z" fill="#24341D"/>
<path d="M222.621 159.199C219.556 159.398 217.407 161.88 216.86 163.756C216.31 165.481 216.679 167.011 217.906 168.316C218.59 169.018 219.32 169.703 220.05 170.387C220.718 171.045 221.34 171.72 221.72 172.587C221.955 173.207 222.035 173.834 222.115 174.461C222.233 175.326 222.306 176.209 222.487 177.102C222.953 179.302 225.009 181.002 227.325 181.036C229.487 181.078 231.285 180.296 232.656 178.665C234.58 176.419 235.663 173.886 235.886 171.019C236.196 167.413 234.95 164.395 232.134 162.072C230.236 160.515 228.036 159.679 225.54 159.308C224.595 159.16 223.591 159.136 222.592 159.261L222.621 159.199Z" fill="#24341D"/>
<path d="M209.605 232.356C208.737 231.167 208.905 229.536 210.14 228.513C210.984 227.839 211.883 227.448 212.978 227.438C213.903 227.392 214.844 227.39 215.732 227.661C216.261 227.814 216.778 228.074 217.053 228.526C217.392 229.005 217.438 229.543 217.269 230.063C216.826 231.798 215.737 233.07 213.981 233.684C212.499 234.194 210.52 233.527 209.605 232.356Z" fill="#24341D"/>
<path d="M209.18 209.507C208.332 210.031 207.591 210.564 206.734 210.787C206.03 211.003 205.306 211.024 204.56 210.851C202.727 210.433 201.795 208.661 202.562 206.955C203.445 205.002 205.476 203.728 208.047 204.576C208.951 204.891 209.752 205.347 210.299 206.101C210.846 206.854 210.856 207.71 210.245 208.447C210.141 208.588 210.037 208.728 209.916 208.824C209.692 209.061 209.405 209.271 209.209 209.446L209.18 209.507Z" fill="#24341D"/>
<path d="M219.193 214.668C218.028 215.463 217.059 216.082 215.972 216.392C214.503 216.797 213.083 216.778 211.749 216.018C210.227 215.178 209.482 213.488 209.896 211.814C210.198 210.537 210.908 209.51 211.948 208.661C213.665 207.252 215.606 207.125 217.602 207.836C218.677 208.188 219.636 208.786 220.371 209.62C220.993 210.295 221.369 211.013 221.258 211.965C221.155 212.661 220.756 213.267 220.278 213.802C219.904 214.196 219.451 214.52 219.272 214.739L219.193 214.668Z" fill="#24341D"/>
<path d="M214.18 218.844C215.057 218.259 216.002 217.851 217.064 217.753C218.417 217.595 219.792 217.631 221.113 217.94C221.625 218.049 222.125 218.265 222.551 218.559C223.259 219.049 223.619 219.722 223.675 220.561C223.701 221.461 223.432 222.271 223.038 223.027C222.498 224.091 221.692 225.003 220.71 225.729C219.275 226.777 217.676 226.978 215.997 226.551C214.83 226.234 213.826 225.654 213.103 224.713C211.868 223.107 212.051 220.965 213.535 219.493C213.76 219.256 214.001 219.063 214.242 218.871L214.18 218.844Z" fill="#24341D"/>
<path d="M205.212 231.945C202.783 233.825 199.53 233.387 197.878 232.343C196.323 231.414 195.588 230.024 195.643 228.233C195.691 227.254 195.785 226.257 195.879 225.261C195.944 224.326 195.963 223.409 195.674 222.507C195.44 221.887 195.085 221.364 194.73 220.841C194.245 220.114 193.715 219.404 193.26 218.616C192.152 216.658 192.568 214.023 194.281 212.464C195.874 211.002 197.739 210.397 199.847 210.712C202.775 211.121 205.264 212.303 207.329 214.303C209.949 216.801 211.013 219.888 210.44 223.493C210.049 225.917 208.953 228 207.328 229.93C206.718 230.667 205.982 231.35 205.15 231.918L205.212 231.945Z" fill="#24341D"/>
<path d="M386.48 116.528C386.313 117.991 387.265 119.326 388.845 119.605C389.912 119.773 390.887 119.668 391.844 119.135C392.67 118.718 393.489 118.255 394.127 117.58C394.511 117.185 394.832 116.704 394.848 116.174C394.905 115.591 394.68 115.1 394.275 114.732C393.033 113.443 391.457 112.876 389.627 113.21C388.087 113.5 386.696 115.058 386.48 116.528Z" fill="#24341D"/>
<path d="M397.409 136.598C396.412 136.563 395.505 136.466 394.649 136.695C393.931 136.856 393.291 137.196 392.728 137.715C391.342 138.985 391.407 140.986 392.918 142.089C394.652 143.35 397.046 143.453 398.862 141.445C399.492 140.724 399.963 139.932 400.065 139.006C400.168 138.081 399.753 137.332 398.858 136.993C398.698 136.923 398.539 136.852 398.386 136.828C398.074 136.733 397.721 136.693 397.464 136.637L397.409 136.598Z" fill="#24341D"/>
<path d="M403.56 127.162C402.154 127.048 401.006 126.988 399.908 127.256C398.431 127.631 397.206 128.35 396.421 129.67C395.514 131.152 395.703 132.99 396.89 134.24C397.784 135.201 398.909 135.743 400.232 135.966C402.422 136.341 404.172 135.493 405.555 133.887C406.316 133.05 406.854 132.056 407.08 130.968C407.286 130.073 407.258 129.264 406.691 128.491C406.258 127.937 405.611 127.607 404.931 127.378C404.411 127.221 403.857 127.164 403.594 127.061L403.56 127.162Z" fill="#24341D"/>
<path d="M397.138 126.01C398.191 126.085 399.214 125.972 400.185 125.533C401.44 125.001 402.616 124.29 403.612 123.368C404.003 123.019 404.331 122.585 404.555 122.119C404.929 121.342 404.909 120.579 404.542 119.823C404.121 119.027 403.486 118.456 402.769 117.994C401.774 117.336 400.623 116.942 399.411 116.797C397.645 116.595 396.156 117.211 394.907 118.413C394.05 119.265 393.464 120.266 393.301 121.441C393.021 123.448 394.24 125.22 396.258 125.765C396.57 125.86 396.875 125.908 397.179 125.956L397.138 126.01Z" fill="#24341D"/>
<path d="M382.866 119.059C379.825 118.626 377.214 120.615 376.295 122.339C375.402 123.915 375.45 125.487 376.384 127.017C376.91 127.844 377.484 128.663 378.058 129.483C378.577 130.264 379.047 131.052 379.242 131.979C379.345 132.633 379.295 133.263 379.245 133.893C379.183 134.765 379.073 135.644 379.067 136.554C379.073 138.803 380.738 140.888 382.997 141.396C385.105 141.88 387.024 141.483 388.701 140.167C391.044 138.364 392.623 136.105 393.429 133.346C394.471 129.879 393.869 126.67 391.589 123.82C390.051 121.906 388.068 120.637 385.702 119.763C384.806 119.425 383.829 119.195 382.825 119.113L382.866 119.059Z" fill="#24341D"/>
<path d="M355.139 187.996C354.532 186.655 355.031 185.093 356.449 184.344C357.414 183.858 358.374 183.659 359.448 183.874C360.362 184.018 361.284 184.209 362.097 184.656C362.584 184.915 363.037 185.274 363.214 185.773C363.447 186.311 363.382 186.848 363.11 187.322C362.321 188.929 360.995 189.951 359.15 190.192C357.595 190.388 355.794 189.33 355.139 187.996Z" fill="#24341D"/>
<path d="M359.404 165.545C358.466 165.883 357.632 166.253 356.747 166.296C356.014 166.363 355.301 166.236 354.606 165.914C352.897 165.128 352.348 163.204 353.449 161.691C354.714 159.96 356.962 159.129 359.305 160.486C360.125 160.979 360.816 161.589 361.197 162.439C361.577 163.289 361.412 164.129 360.663 164.725C360.532 164.841 360.402 164.958 360.264 165.027C359.996 165.213 359.672 165.359 359.445 165.491L359.404 165.545Z" fill="#24341D"/>
<path d="M368.148 172.647C366.845 173.187 365.77 173.595 364.643 173.675C363.121 173.77 361.735 173.461 360.585 172.444C359.268 171.31 358.885 169.503 359.633 167.95C360.19 166.761 361.096 165.901 362.287 165.283C364.257 164.257 366.182 164.529 367.99 165.634C368.971 166.199 369.787 166.981 370.335 167.948C370.805 168.736 371.027 169.515 370.723 170.425C370.48 171.085 369.965 171.597 369.388 172.022C368.941 172.332 368.431 172.555 368.211 172.733L368.148 172.647Z" fill="#24341D"/>
<path d="M362.384 175.708C363.363 175.315 364.371 175.109 365.431 175.231C366.788 175.353 368.126 175.67 369.355 176.243C369.834 176.456 370.28 176.769 370.636 177.144C371.229 177.769 371.443 178.501 371.326 179.334C371.167 180.22 370.738 180.958 370.197 181.617C369.451 182.548 368.475 183.275 367.366 183.784C365.746 184.517 364.14 184.386 362.584 183.624C361.507 183.075 360.642 182.301 360.128 181.232C359.247 179.407 359.866 177.347 361.62 176.211C361.889 176.025 362.164 175.886 362.44 175.747L362.384 175.708Z" fill="#24341D"/>
<path d="M350.923 186.693C348.16 188.036 345.066 186.941 343.663 185.581C342.331 184.353 341.896 182.842 342.317 181.1C342.565 180.152 342.861 179.195 343.157 178.239C343.412 177.338 343.619 176.444 343.521 175.501C343.418 174.847 343.178 174.263 342.937 173.678C342.612 172.867 342.239 172.064 341.954 171.199C341.272 169.056 342.219 166.561 344.215 165.387C346.073 164.282 348.022 164.072 350.021 164.812C352.804 165.812 354.997 167.479 356.609 169.86C358.662 172.841 359.07 176.081 357.772 179.492C356.892 181.784 355.393 183.599 353.407 185.155C352.658 185.751 351.798 186.269 350.867 186.654L350.923 186.693Z" fill="#24341D"/>
<path d="M564.172 112.401C563.608 113.761 564.155 115.307 565.596 116.01C566.576 116.466 567.541 116.634 568.608 116.386C569.518 116.213 570.433 115.994 571.232 115.521C571.71 115.247 572.151 114.873 572.312 114.369C572.528 113.824 572.447 113.289 572.16 112.825C571.321 111.242 569.963 110.263 568.111 110.08C566.551 109.933 564.784 111.047 564.172 112.401Z" fill="#24341D"/>
<path d="M569.141 134.707C568.193 134.398 567.348 134.055 566.462 134.04C565.727 133.996 565.018 134.146 564.334 134.489C562.651 135.328 562.162 137.269 563.31 138.747C564.629 140.436 566.902 141.196 569.201 139.767C570.006 139.248 570.676 138.616 571.03 137.755C571.384 136.893 571.192 136.059 570.425 135.487C570.291 135.375 570.157 135.263 570.017 135.198C569.743 135.021 569.415 134.884 569.184 134.76L569.141 134.707Z" fill="#24341D"/>
<path d="M577.657 127.333C576.338 126.835 575.25 126.461 574.121 126.416C572.598 126.369 571.222 126.722 570.104 127.774C568.823 128.949 568.498 130.767 569.294 132.296C569.888 133.467 570.821 134.298 572.031 134.878C574.032 135.842 575.948 135.509 577.72 134.347C578.683 133.752 579.474 132.945 579.991 131.961C580.436 131.159 580.633 130.373 580.301 129.474C580.037 128.821 579.507 128.326 578.916 127.919C578.46 127.624 577.943 127.416 577.718 127.245L577.657 127.333Z" fill="#24341D"/>
<path d="M571.801 124.455C572.792 124.817 573.806 124.991 574.861 124.837C576.214 124.672 577.541 124.313 578.752 123.701C579.224 123.474 579.659 123.147 580.003 122.761C580.577 122.117 580.768 121.378 580.624 120.55C580.438 119.669 579.986 118.945 579.424 118.303C578.649 117.396 577.651 116.7 576.526 116.226C574.884 115.545 573.283 115.727 571.752 116.537C570.692 117.12 569.853 117.921 569.372 119.005C568.55 120.857 569.233 122.896 571.022 123.977C571.296 124.154 571.576 124.284 571.855 124.414L571.801 124.455Z" fill="#24341D"/>
<path d="M560 113.836C557.196 112.581 554.137 113.773 552.779 115.176C551.486 116.445 551.099 117.97 551.574 119.697C551.851 120.637 552.177 121.583 552.503 122.53C552.787 123.423 553.022 124.31 552.953 125.255C552.871 125.912 552.649 126.504 552.428 127.096C552.128 127.917 551.78 128.731 551.523 129.605C550.908 131.768 551.933 134.232 553.965 135.343C555.857 136.389 557.812 136.537 559.786 135.735C562.536 134.647 564.677 132.912 566.213 130.482C568.171 127.437 568.477 124.187 567.072 120.818C566.12 118.555 564.565 116.788 562.531 115.295C561.764 114.723 560.888 114.232 559.945 113.877L560 113.836Z" fill="#24341D"/>
<path d="M514.335 172.453C514.122 170.997 515.032 169.632 516.602 169.304C517.663 169.102 518.64 169.176 519.614 169.679C520.453 170.07 521.286 170.507 521.945 171.161C522.341 171.544 522.677 172.015 522.71 172.543C522.785 173.125 522.575 173.623 522.183 174.003C520.981 175.331 519.424 175.947 517.584 175.67C516.036 175.43 514.597 173.916 514.335 172.453Z" fill="#24341D"/>
<path d="M524.627 152.049C523.632 152.116 522.728 152.241 521.866 152.038C521.143 151.901 520.492 151.581 519.913 151.08C518.487 149.854 518.49 147.852 519.966 146.702C521.659 145.387 524.049 145.209 525.927 147.158C526.579 147.859 527.075 148.636 527.206 149.558C527.338 150.48 526.947 151.242 526.063 151.608C525.905 151.684 525.748 151.76 525.596 151.788C525.287 151.893 524.936 151.944 524.681 152.008L524.627 152.049Z" fill="#24341D"/>
<path d="M531.073 161.287C529.672 161.446 528.526 161.541 527.42 161.308C525.932 160.98 524.685 160.3 523.86 159.005C522.906 157.552 523.037 155.709 524.184 154.422C525.047 153.434 526.155 152.857 527.471 152.592C529.647 152.148 531.423 152.941 532.856 154.502C533.643 155.315 534.212 156.292 534.472 157.373C534.706 158.26 534.704 159.07 534.162 159.86C533.746 160.428 533.11 160.778 532.438 161.028C531.923 161.202 531.371 161.276 531.11 161.387L531.073 161.287Z" fill="#24341D"/>
<path d="M524.689 162.64C525.738 162.532 526.764 162.612 527.749 163.021C529.02 163.513 530.218 164.187 531.242 165.077C531.644 165.413 531.986 165.837 532.225 166.296C532.623 167.06 532.626 167.823 532.284 168.591C531.887 169.399 531.271 169.99 530.569 170.474C529.596 171.163 528.457 171.593 527.25 171.777C525.491 172.034 523.984 171.465 522.698 170.304C521.814 169.479 521.197 168.496 520.997 167.327C520.654 165.33 521.817 163.521 523.816 162.912C524.125 162.808 524.428 162.75 524.732 162.693L524.689 162.64Z" fill="#24341D"/>
<path d="M510.643 170.038C507.617 170.566 504.945 168.66 503.972 166.966C503.03 165.419 503.029 163.846 503.913 162.288C504.413 161.445 504.962 160.607 505.51 159.77C506.004 158.974 506.449 158.171 506.615 157.238C506.696 156.581 506.627 155.953 506.557 155.325C506.468 154.456 506.33 153.581 506.296 152.671C506.231 150.422 507.829 148.286 510.071 147.707C512.162 147.158 514.094 147.494 515.811 148.756C518.21 150.485 519.859 152.693 520.751 155.425C521.902 158.858 521.402 162.084 519.212 165.005C517.735 166.965 515.793 168.296 513.455 169.244C512.571 169.611 511.601 169.871 510.6 169.985L510.643 170.038Z" fill="#24341D"/>
<path d="M733.582 131.947C733.018 133.307 733.565 134.853 735.007 135.557C735.986 136.013 736.951 136.181 738.018 135.932C738.928 135.76 739.843 135.54 740.642 135.068C741.12 134.793 741.561 134.419 741.723 133.915C741.939 133.37 741.857 132.836 741.57 132.371C740.731 130.789 739.373 129.809 737.521 129.626C735.961 129.479 734.194 130.594 733.582 131.947Z" fill="#24341D"/>
<path d="M738.551 154.254C737.603 153.945 736.758 153.601 735.872 153.586C735.138 153.542 734.428 153.692 733.744 154.036C732.061 154.875 731.572 156.816 732.72 158.293C734.039 159.983 736.312 160.743 738.611 159.313C739.416 158.794 740.087 158.163 740.441 157.301C740.795 156.44 740.603 155.605 739.835 155.033C739.701 154.921 739.567 154.809 739.427 154.744C739.153 154.567 738.825 154.431 738.594 154.306L738.551 154.254Z" fill="#24341D"/>
<path d="M747.068 146.88C745.748 146.382 744.66 146.008 743.531 145.962C742.008 145.916 740.632 146.269 739.514 147.321C738.233 148.496 737.908 150.314 738.704 151.843C739.298 153.014 740.231 153.845 741.441 154.424C743.442 155.389 745.358 155.056 747.131 153.894C748.093 153.299 748.884 152.492 749.401 151.508C749.846 150.706 750.043 149.92 749.711 149.02C749.447 148.368 748.917 147.873 748.326 147.466C747.87 147.17 747.353 146.963 747.128 146.792L747.068 146.88Z" fill="#24341D"/>
<path d="M741.211 144.002C742.202 144.363 743.216 144.537 744.271 144.383C745.624 144.218 746.951 143.859 748.162 143.247C748.634 143.02 749.069 142.693 749.414 142.307C749.987 141.663 750.178 140.925 750.034 140.096C749.848 139.215 749.396 138.492 748.834 137.85C748.06 136.943 747.061 136.247 745.936 135.773C744.295 135.091 742.693 135.273 741.162 136.083C740.103 136.666 739.263 137.467 738.782 138.551C737.96 140.403 738.643 142.442 740.432 143.523C740.706 143.7 740.986 143.831 741.265 143.961L741.211 144.002Z" fill="#24341D"/>
<path d="M729.411 133.383C726.607 132.128 723.549 133.319 722.19 134.723C720.897 135.992 720.51 137.516 720.985 139.244C721.262 140.184 721.589 141.13 721.915 142.077C722.198 142.97 722.433 143.857 722.364 144.802C722.282 145.459 722.061 146.051 721.839 146.643C721.539 147.464 721.191 148.278 720.934 149.152C720.319 151.315 721.344 153.779 723.376 154.89C725.268 155.936 727.223 156.084 729.198 155.282C731.948 154.194 734.088 152.459 735.624 150.029C737.582 146.984 737.888 143.734 736.483 140.365C735.532 138.102 733.976 136.335 731.942 134.842C731.175 134.27 730.299 133.779 729.356 133.424L729.411 133.383Z" fill="#24341D"/>
<path d="M683.744 192C683.531 190.544 684.441 189.18 686.011 188.851C687.072 188.65 688.05 188.724 689.023 189.226C689.862 189.617 690.696 190.054 691.354 190.708C691.75 191.091 692.086 191.562 692.119 192.091C692.194 192.672 691.984 193.17 691.592 193.55C690.39 194.878 688.834 195.494 686.994 195.218C685.445 194.977 684.006 193.463 683.744 192Z" fill="#24341D"/>
<path d="M694.036 171.596C693.041 171.663 692.137 171.789 691.275 171.586C690.552 171.448 689.901 171.129 689.322 170.627C687.897 169.401 687.899 167.4 689.375 166.249C691.068 164.935 693.458 164.756 695.336 166.706C695.989 167.407 696.484 168.183 696.615 169.105C696.747 170.028 696.356 170.789 695.472 171.156C695.315 171.231 695.157 171.307 695.006 171.336C694.697 171.44 694.345 171.492 694.09 171.555L694.036 171.596Z" fill="#24341D"/>
<path d="M700.483 180.834C699.082 180.993 697.935 181.088 696.83 180.855C695.341 180.527 694.094 179.847 693.269 178.553C692.315 177.099 692.446 175.257 693.593 173.97C694.456 172.981 695.564 172.404 696.88 172.139C699.056 171.695 700.832 172.489 702.265 174.05C703.052 174.863 703.621 175.839 703.881 176.92C704.116 177.807 704.113 178.617 703.571 179.408C703.155 179.975 702.519 180.325 701.847 180.575C701.332 180.749 700.78 180.823 700.52 180.934L700.483 180.834Z" fill="#24341D"/>
<path d="M694.098 182.187C695.147 182.079 696.173 182.16 697.158 182.568C698.429 183.06 699.627 183.734 700.651 184.624C701.053 184.96 701.395 185.384 701.634 185.843C702.032 186.608 702.035 187.371 701.693 188.138C701.296 188.947 700.68 189.537 699.978 190.022C699.005 190.711 697.866 191.141 696.659 191.324C694.901 191.581 693.393 191.012 692.107 189.851C691.223 189.026 690.606 188.043 690.406 186.875C690.063 184.878 691.226 183.068 693.225 182.46C693.534 182.355 693.838 182.298 694.141 182.24L694.098 182.187Z" fill="#24341D"/>
<path d="M680.053 189.585C677.028 190.114 674.355 188.208 673.382 186.514C672.44 184.966 672.439 183.393 673.324 181.835C673.823 180.992 674.372 180.155 674.92 179.317C675.414 178.521 675.859 177.718 676.025 176.786C676.107 176.129 676.037 175.5 675.967 174.872C675.878 174.003 675.741 173.128 675.706 172.218C675.641 169.97 677.239 167.833 679.482 167.255C681.573 166.705 683.504 167.041 685.221 168.304C687.62 170.033 689.269 172.24 690.162 174.973C691.312 178.405 690.812 181.631 688.622 184.552C687.145 186.513 685.203 187.844 682.865 188.792C681.981 189.158 681.011 189.419 680.011 189.532L680.053 189.585Z" fill="#24341D"/>
<path d="M895.246 164.865C894.51 166.139 894.851 167.743 896.189 168.629C897.1 169.208 898.036 169.5 899.126 169.393C900.05 169.34 900.986 169.242 901.84 168.877C902.35 168.668 902.836 168.354 903.062 167.875C903.347 167.363 903.335 166.823 903.111 166.324C902.485 164.646 901.266 163.499 899.454 163.076C897.926 162.727 896.03 163.602 895.246 164.865Z" fill="#24341D"/>
<path d="M897.269 187.628C896.37 187.198 895.576 186.748 894.7 186.617C893.977 186.478 893.255 186.535 892.532 186.786C890.754 187.399 890.017 189.26 890.962 190.874C892.05 192.721 894.205 193.77 896.67 192.652C897.536 192.242 898.283 191.704 898.746 190.895C899.209 190.087 899.127 189.235 898.441 188.568C898.323 188.439 898.204 188.311 898.074 188.228C897.826 188.017 897.518 187.839 897.305 187.686L897.269 187.628Z" fill="#24341D"/>
<path d="M906.673 181.425C905.43 180.76 904.4 180.247 903.287 180.056C901.782 179.811 900.372 179.982 899.127 180.88C897.704 181.878 897.145 183.638 897.735 185.258C898.172 186.496 898.988 187.441 900.113 188.174C901.971 189.39 903.914 189.309 905.823 188.388C906.854 187.924 907.744 187.226 908.385 186.318C908.931 185.58 909.228 184.827 909.016 183.892C908.839 183.21 908.378 182.651 907.845 182.17C907.431 181.818 906.945 181.545 906.744 181.346L906.673 181.425Z" fill="#24341D"/>
<path d="M901.24 177.81C902.175 178.297 903.158 178.602 904.225 178.586C905.587 178.599 906.95 178.415 908.23 177.966C908.728 177.803 909.202 177.535 909.593 177.197C910.246 176.634 910.531 175.926 910.497 175.086C910.427 174.188 910.072 173.412 909.599 172.702C908.949 171.702 908.05 170.882 906.996 170.266C905.457 169.377 903.846 169.349 902.222 169.952C901.096 170.393 900.159 171.077 899.542 172.09C898.485 173.819 898.897 175.93 900.53 177.234C900.779 177.445 901.039 177.611 901.299 177.776L901.24 177.81Z" fill="#24341D"/>
<path d="M890.922 165.744C888.306 164.135 885.118 164.919 883.588 166.133C882.141 167.223 881.559 168.684 881.805 170.459C881.958 171.427 882.158 172.408 882.358 173.389C882.523 174.311 882.64 175.221 882.449 176.149C882.283 176.79 881.986 177.348 881.689 177.906C881.285 178.681 880.834 179.443 880.465 180.276C879.574 182.341 880.27 184.917 882.14 186.283C883.88 187.567 885.799 187.968 887.861 187.429C890.729 186.709 893.077 185.267 894.916 183.058C897.253 180.294 897.98 177.11 897.025 173.588C896.377 171.22 895.064 169.265 893.242 167.521C892.556 166.853 891.751 166.253 890.863 165.778L890.922 165.744Z" fill="#24341D"/>
<path d="M838.015 217.92C837.994 216.448 839.073 215.214 840.673 215.092C841.751 215.031 842.711 215.232 843.61 215.857C844.392 216.353 845.161 216.895 845.729 217.629C846.072 218.061 846.343 218.571 846.307 219.1C846.306 219.686 846.033 220.152 845.595 220.478C844.231 221.638 842.607 222.047 840.819 221.533C839.315 221.093 838.085 219.404 838.015 217.92Z" fill="#24341D"/>
<path d="M850.876 199.029C849.881 198.965 848.968 198.973 848.139 198.659C847.441 198.429 846.837 198.027 846.328 197.455C845.074 196.054 845.338 194.069 846.95 193.12C848.8 192.038 851.193 192.172 852.801 194.349C853.357 195.129 853.747 195.964 853.757 196.895C853.768 197.826 853.281 198.531 852.357 198.779C852.191 198.833 852.025 198.888 851.871 198.897C851.551 198.96 851.196 198.965 850.935 198.995L850.876 199.029Z" fill="#24341D"/>
<path d="M856.065 209.027C854.656 209.003 853.506 208.948 852.441 208.573C851.008 208.054 849.86 207.217 849.21 205.827C848.454 204.261 848.823 202.452 850.128 201.325C851.113 200.457 852.286 200.029 853.625 199.938C855.841 199.781 857.498 200.798 858.716 202.533C859.39 203.441 859.827 204.483 859.944 205.589C860.061 206.499 859.954 207.302 859.313 208.015C858.827 208.524 858.151 208.788 857.452 208.948C856.918 209.054 856.362 209.055 856.089 209.131L856.065 209.027Z" fill="#24341D"/>
<path d="M849.559 209.537C850.614 209.567 851.621 209.78 852.544 210.314C853.74 210.967 854.84 211.791 855.739 212.807C856.094 213.192 856.378 213.657 856.555 214.143C856.85 214.953 856.755 215.71 856.315 216.427C855.817 217.177 855.129 217.682 854.37 218.071C853.315 218.627 852.13 218.905 850.91 218.93C849.132 218.956 847.712 218.196 846.588 216.877C845.819 215.944 845.335 214.89 845.289 213.705C845.208 211.68 846.597 210.038 848.659 209.694C848.979 209.631 849.287 209.613 849.595 209.596L849.559 209.537Z" fill="#24341D"/>
<path d="M834.67 215.045C831.602 215.175 829.199 212.937 828.455 211.131C827.723 209.474 827.927 207.914 829.007 206.485C829.612 205.714 830.264 204.955 830.917 204.196C831.51 203.471 832.056 202.733 832.342 201.83C832.509 201.189 832.521 200.557 832.534 199.925C832.559 199.052 832.536 198.166 832.62 197.259C832.848 195.022 834.711 193.112 837.01 192.83C839.154 192.557 841.026 193.141 842.564 194.617C844.717 196.643 846.065 199.046 846.594 201.872C847.289 205.425 846.372 208.559 843.822 211.17C842.101 212.921 840.003 213.988 837.562 214.624C836.637 214.872 835.642 215.004 834.635 214.987L834.67 215.045Z" fill="#24341D"/>
<path d="M1060.31 206.129C1059.58 207.404 1059.92 209.008 1061.26 209.894C1062.17 210.473 1063.1 210.765 1064.19 210.658C1065.12 210.605 1066.05 210.506 1066.91 210.142C1067.42 209.932 1067.9 209.619 1068.13 209.14C1068.41 208.628 1068.4 208.087 1068.18 207.589C1067.55 205.911 1066.33 204.763 1064.52 204.341C1062.99 203.992 1061.1 204.867 1060.31 206.129Z" fill="#24341D"/>
<path d="M1062.34 228.893C1061.44 228.463 1060.64 228.012 1059.77 227.882C1059.04 227.743 1058.32 227.799 1057.6 228.051C1055.82 228.664 1055.08 230.525 1056.03 232.139C1057.12 233.986 1059.27 235.035 1061.74 233.917C1062.6 233.507 1063.35 232.968 1063.81 232.16C1064.28 231.352 1064.19 230.5 1063.51 229.833C1063.39 229.704 1063.27 229.576 1063.14 229.493C1062.89 229.282 1062.58 229.104 1062.37 228.951L1062.34 228.893Z" fill="#24341D"/>
<path d="M1071.74 222.689C1070.5 222.024 1069.47 221.512 1068.35 221.32C1066.85 221.075 1065.44 221.246 1064.19 222.144C1062.77 223.142 1062.21 224.903 1062.8 226.522C1063.24 227.76 1064.05 228.705 1065.18 229.438C1067.04 230.654 1068.98 230.573 1070.89 229.652C1071.92 229.188 1072.81 228.49 1073.45 227.582C1074 226.844 1074.29 226.091 1074.08 225.156C1073.91 224.475 1073.44 223.915 1072.91 223.434C1072.5 223.082 1072.01 222.809 1071.81 222.61L1071.74 222.689Z" fill="#24341D"/>
<path d="M1066.31 219.074C1067.24 219.562 1068.22 219.866 1069.29 219.85C1070.65 219.863 1072.02 219.68 1073.3 219.231C1073.79 219.067 1074.27 218.799 1074.66 218.461C1075.31 217.898 1075.6 217.19 1075.56 216.35C1075.49 215.452 1075.14 214.676 1074.67 213.967C1074.02 212.967 1073.12 212.146 1072.06 211.53C1070.52 210.641 1068.91 210.613 1067.29 211.217C1066.16 211.657 1065.23 212.342 1064.61 213.354C1063.55 215.083 1063.96 217.194 1065.6 218.498C1065.84 218.71 1066.11 218.875 1066.37 219.041L1066.31 219.074Z" fill="#24341D"/>
<path d="M1055.99 207.009C1053.37 205.4 1050.18 206.184 1048.65 207.399C1047.21 208.488 1046.63 209.95 1046.87 211.724C1047.02 212.693 1047.22 213.673 1047.42 214.654C1047.59 215.576 1047.71 216.487 1047.52 217.414C1047.35 218.055 1047.05 218.613 1046.76 219.171C1046.35 219.946 1045.9 220.708 1045.53 221.541C1044.64 223.606 1045.34 226.182 1047.21 227.548C1048.95 228.832 1050.87 229.233 1052.93 228.694C1055.8 227.974 1058.14 226.532 1059.98 224.323C1062.32 221.559 1063.05 218.376 1062.09 214.853C1061.44 212.485 1060.13 210.531 1058.31 208.786C1057.62 208.119 1056.82 207.518 1055.93 207.043L1055.99 207.009Z" fill="#24341D"/>
<path d="M1003.08 259.186C1003.06 257.714 1004.14 256.48 1005.74 256.358C1006.82 256.296 1007.78 256.497 1008.68 257.122C1009.46 257.619 1010.23 258.161 1010.8 258.895C1011.14 259.326 1011.41 259.837 1011.37 260.365C1011.37 260.951 1011.1 261.418 1010.66 261.744C1009.3 262.904 1007.67 263.312 1005.89 262.798C1004.38 262.358 1003.15 260.67 1003.08 259.186Z" fill="#24341D"/>
<path d="M1015.94 240.294C1014.95 240.231 1014.03 240.238 1013.21 239.925C1012.51 239.694 1011.9 239.293 1011.39 238.721C1010.14 237.319 1010.4 235.335 1012.02 234.386C1013.87 233.303 1016.26 233.437 1017.87 235.615C1018.42 236.395 1018.81 237.229 1018.82 238.161C1018.83 239.092 1018.35 239.796 1017.42 240.044C1017.26 240.099 1017.09 240.154 1016.94 240.162C1016.62 240.226 1016.26 240.231 1016 240.261L1015.94 240.294Z" fill="#24341D"/>
<path d="M1021.13 250.292C1019.72 250.268 1018.57 250.213 1017.51 249.838C1016.07 249.319 1014.93 248.483 1014.28 247.092C1013.52 245.527 1013.89 243.717 1015.19 242.59C1016.18 241.722 1017.35 241.294 1018.69 241.203C1020.91 241.046 1022.56 242.064 1023.78 243.798C1024.46 244.706 1024.89 245.748 1025.01 246.854C1025.13 247.764 1025.02 248.567 1024.38 249.28C1023.89 249.789 1023.22 250.053 1022.52 250.213C1021.98 250.319 1021.43 250.321 1021.16 250.396L1021.13 250.292Z" fill="#24341D"/>
<path d="M1014.63 250.803C1015.68 250.833 1016.69 251.046 1017.61 251.579C1018.81 252.232 1019.91 253.056 1020.81 254.072C1021.16 254.458 1021.45 254.922 1021.62 255.408C1021.92 256.218 1021.82 256.975 1021.38 257.692C1020.88 258.442 1020.2 258.947 1019.44 259.336C1018.38 259.892 1017.2 260.171 1015.98 260.195C1014.2 260.222 1012.78 259.461 1011.66 258.142C1010.89 257.209 1010.4 256.155 1010.36 254.97C1010.28 252.945 1011.66 251.303 1013.73 250.959C1014.05 250.896 1014.35 250.878 1014.66 250.861L1014.63 250.803Z" fill="#24341D"/>
<path d="M999.737 256.31C996.668 256.441 994.266 254.203 993.522 252.397C992.789 250.74 992.993 249.18 994.073 247.75C994.678 246.979 995.331 246.221 995.983 245.462C996.577 244.736 997.123 243.999 997.408 243.096C997.575 242.455 997.588 241.823 997.6 241.191C997.625 240.317 997.603 239.432 997.687 238.525C997.915 236.287 999.777 234.377 1002.08 234.095C1004.22 233.823 1006.09 234.407 1007.63 235.882C1009.78 237.909 1011.13 240.312 1011.66 243.138C1012.36 246.69 1011.44 249.824 1008.89 252.435C1007.17 254.187 1005.07 255.254 1002.63 255.89C1001.7 256.138 1000.71 256.27 999.701 256.252L999.737 256.31Z" fill="#24341D"/>
<path d="M1212.54 241.684C1211.87 242.996 1212.3 244.579 1213.68 245.393C1214.62 245.923 1215.57 246.166 1216.65 246.001C1217.57 245.899 1218.5 245.751 1219.33 245.342C1219.83 245.106 1220.3 244.768 1220.5 244.277C1220.76 243.751 1220.72 243.212 1220.47 242.726C1219.76 241.083 1218.48 240.002 1216.65 239.675C1215.1 239.408 1213.25 240.382 1212.54 241.684Z" fill="#24341D"/>
<path d="M1215.76 264.308C1214.84 263.927 1214.02 263.519 1213.14 263.435C1212.41 263.334 1211.69 263.429 1210.99 263.718C1209.24 264.424 1208.61 266.321 1209.63 267.883C1210.82 269.67 1213.03 270.604 1215.43 269.358C1216.27 268.902 1216.99 268.325 1217.41 267.493C1217.83 266.662 1217.7 265.815 1216.98 265.185C1216.86 265.063 1216.73 264.941 1216.6 264.865C1216.34 264.668 1216.02 264.506 1215.8 264.365L1215.76 264.308Z" fill="#24341D"/>
<path d="M1224.82 257.618C1223.55 257.02 1222.49 256.562 1221.37 256.429C1219.85 256.265 1218.46 256.51 1217.26 257.472C1215.89 258.544 1215.43 260.332 1216.1 261.918C1216.6 263.131 1217.47 264.032 1218.63 264.704C1220.55 265.82 1222.48 265.637 1224.34 264.617C1225.35 264.098 1226.2 263.355 1226.79 262.414C1227.3 261.648 1227.55 260.88 1227.29 259.958C1227.08 259.287 1226.59 258.752 1226.03 258.3C1225.6 257.97 1225.1 257.724 1224.89 257.536L1224.82 257.618Z" fill="#24341D"/>
<path d="M1219.21 254.294C1220.17 254.732 1221.17 254.984 1222.23 254.912C1223.59 254.852 1224.94 254.598 1226.2 254.082C1226.69 253.892 1227.15 253.6 1227.52 253.241C1228.14 252.644 1228.39 251.923 1228.31 251.086C1228.19 250.193 1227.8 249.436 1227.29 248.753C1226.58 247.788 1225.64 247.017 1224.56 246.457C1222.97 245.65 1221.36 245.707 1219.77 246.396C1218.67 246.895 1217.77 247.628 1217.21 248.672C1216.25 250.454 1216.77 252.54 1218.47 253.757C1218.73 253.955 1219 254.106 1219.27 254.258L1219.21 254.294Z" fill="#24341D"/>
<path d="M1208.27 242.792C1205.57 241.323 1202.43 242.274 1200.96 243.568C1199.58 244.732 1199.07 246.222 1199.41 247.981C1199.62 248.94 1199.87 249.909 1200.12 250.878C1200.33 251.79 1200.5 252.693 1200.36 253.63C1200.22 254.278 1199.96 254.851 1199.69 255.424C1199.33 256.219 1198.92 257.004 1198.59 257.855C1197.81 259.965 1198.64 262.5 1200.58 263.766C1202.39 264.955 1204.32 265.255 1206.36 264.608C1209.18 263.737 1211.45 262.174 1213.17 259.87C1215.36 256.986 1215.92 253.769 1214.78 250.302C1214 247.971 1212.59 246.089 1210.68 244.443C1209.96 243.813 1209.12 243.256 1208.21 242.828L1208.27 242.792Z" fill="#24341D"/>
<path d="M1170.04 278.143C1169.04 278.133 1168.13 278.188 1167.28 277.919C1166.57 277.725 1165.95 277.356 1165.41 276.812C1164.09 275.479 1164.24 273.483 1165.8 272.45C1167.59 271.272 1169.99 271.279 1171.71 273.369C1172.31 274.118 1172.74 274.931 1172.8 275.86C1172.86 276.79 1172.41 277.519 1171.5 277.815C1171.34 277.879 1171.18 277.942 1171.02 277.959C1170.71 278.039 1170.35 278.063 1170.09 278.107L1170.04 278.143Z" fill="#24341D"/>
<path d="M1154.7 294.993C1151.64 295.285 1149.12 293.177 1148.28 291.413C1147.47 289.797 1147.59 288.229 1148.59 286.744C1149.15 285.942 1149.77 285.15 1150.38 284.358C1150.93 283.602 1151.44 282.837 1151.67 281.92C1151.81 281.271 1151.79 280.639 1151.77 280.007C1151.74 279.134 1151.68 278.251 1151.71 277.341C1151.82 275.094 1153.58 273.088 1155.86 272.686C1157.99 272.3 1159.89 272.785 1161.5 274.177C1163.76 276.087 1165.23 278.415 1165.91 281.209C1166.79 284.72 1166.04 287.898 1163.63 290.64C1162.01 292.48 1159.97 293.657 1157.56 294.42C1156.65 294.717 1155.67 294.901 1154.66 294.937L1154.7 294.993Z" fill="#24341D"/>
<path d="M1365.3 269.591C1364.89 271.003 1365.59 272.482 1367.1 273.03C1368.12 273.38 1369.1 273.445 1370.14 273.085C1371.02 272.817 1371.91 272.502 1372.65 271.948C1373.1 271.625 1373.5 271.206 1373.61 270.688C1373.76 270.123 1373.63 269.6 1373.29 269.169C1372.29 267.684 1370.84 266.853 1368.98 266.867C1367.41 266.886 1365.77 268.18 1365.3 269.591Z" fill="#24341D"/>
<path d="M1374.16 280.773C1375.19 281.028 1376.22 281.094 1377.25 280.829C1378.58 280.522 1379.86 280.025 1381 279.288C1381.44 279.013 1381.84 278.641 1382.14 278.221C1382.64 277.521 1382.76 276.766 1382.53 275.957C1382.25 275.101 1381.72 274.429 1381.1 273.85C1380.23 273.03 1379.16 272.443 1377.99 272.091C1376.29 271.587 1374.72 271.936 1373.28 272.904C1372.29 273.595 1371.54 274.481 1371.17 275.609C1370.55 277.537 1371.45 279.493 1373.34 280.379C1373.63 280.526 1373.92 280.626 1374.21 280.726L1374.16 280.773Z" fill="#24341D"/>
<path d="M1361.31 271.459C1358.39 270.507 1355.47 272.015 1354.27 273.555C1353.12 274.953 1352.89 276.51 1353.55 278.178C1353.92 279.083 1354.35 279.99 1354.77 280.896C1355.15 281.755 1355.47 282.612 1355.51 283.559C1355.49 284.221 1355.34 284.833 1355.18 285.445C1354.97 286.293 1354.71 287.139 1354.54 288.035C1354.16 290.252 1355.44 292.593 1357.58 293.483C1359.57 294.324 1361.53 294.265 1363.41 293.258C1366.03 291.886 1367.97 289.935 1369.24 287.356C1370.87 284.122 1370.83 280.857 1369.08 277.655C1367.89 275.505 1366.16 273.913 1363.98 272.643C1363.15 272.155 1362.23 271.76 1361.26 271.506L1361.31 271.459Z" fill="#24341D"/>
<path d="M-8.24065 228.331C-8.38158 229.796 -7.40536 231.114 -5.82088 231.364C-4.75121 231.513 -3.77871 231.391 -2.83144 230.841C-2.0125 230.409 -1.20172 229.931 -0.576386 229.245C-0.199555 228.843 0.112733 228.356 0.119407 227.827C0.166136 227.243 -0.0682692 226.756 -0.479227 226.395C-1.74474 225.128 -3.32997 224.59 -5.15405 224.957C-6.68883 225.274 -8.0515 226.857 -8.24065 228.331Z" fill="#24341D"/>
<path d="M3.0468 248.202C2.04983 248.184 1.14113 248.103 0.289543 248.349C-0.425549 248.522 -1.05978 248.873 -1.61316 249.402C-2.97658 250.697 -2.87495 252.696 -1.34461 253.773C0.41123 255.002 2.80723 255.062 4.5868 253.022C5.20397 252.29 5.66018 251.49 5.74622 250.562C5.83226 249.635 5.40424 248.893 4.50296 248.571C4.34199 248.503 4.18102 248.435 4.0282 248.414C3.71442 248.325 3.36058 248.291 3.10318 248.24L3.0468 248.202Z" fill="#24341D"/>
<path d="M9.02814 238.657C7.62095 238.567 6.47116 238.528 5.3785 238.816C3.90825 239.217 2.69616 239.958 1.93582 241.292C1.05532 242.79 1.27712 244.624 2.48626 245.853C3.39719 246.798 4.53214 247.319 5.85922 247.519C8.05494 247.855 9.78926 246.975 11.1438 245.345C11.8893 244.494 12.4093 243.491 12.6155 242.398C12.8061 241.5 12.7638 240.691 12.183 239.929C11.7394 239.382 11.0874 239.064 10.4034 238.848C9.88047 238.7 9.32559 238.653 9.06003 238.555L9.02814 238.657Z" fill="#24341D"/>
<path d="M2.58526 237.621C3.63861 237.677 4.65933 237.546 5.62292 237.089C6.86765 236.535 8.03153 235.803 9.00995 234.863C9.39495 234.508 9.7154 234.068 9.93126 233.598C10.291 232.814 10.2569 232.052 9.8771 231.302C9.44092 230.514 8.79629 229.955 8.07155 229.506C7.06493 228.866 5.90624 228.492 4.69192 228.369C2.92273 228.199 1.44507 228.842 0.218144 230.065C-0.623792 230.933 -1.19201 231.945 -1.33369 233.122C-1.57773 235.133 -0.327047 236.883 1.70029 237.392C2.01407 237.481 2.3197 237.524 2.62532 237.566L2.58526 237.621Z" fill="#24341D"/>
<path d="M-11.808 230.926C-14.8561 230.547 -17.4316 232.583 -18.3195 234.323C-19.1837 235.915 -19.1073 237.486 -18.1466 238.998C-17.6059 239.816 -17.0169 240.625 -16.4279 241.435C-15.8953 242.206 -15.4109 242.985 -15.1994 243.908C-15.0852 244.561 -15.1238 245.192 -15.1623 245.823C-15.2083 246.695 -15.3025 247.576 -15.2921 248.486C-15.2461 250.735 -13.5444 252.79 -11.276 253.257C-9.16041 253.703 -7.24806 253.272 -5.59534 251.926C-3.28465 250.081 -1.74691 247.795 -0.990293 245.021C-0.0103982 241.536 -0.669877 238.338 -3.00062 235.529C-4.57325 233.644 -6.57833 232.411 -8.96025 231.579C-9.86154 231.257 -10.8429 231.045 -11.8481 230.981L-11.808 230.926Z" fill="#24341D"/>
<path d="M145.798 175.832C145.934 177.297 147.139 178.409 148.743 178.358C149.822 178.304 150.754 178.002 151.581 177.284C152.305 176.707 153.012 176.085 153.498 175.295C153.793 174.829 154.008 174.292 153.916 173.771C153.852 173.188 153.531 172.754 153.06 172.477C151.579 171.469 149.921 171.237 148.198 171.94C146.75 172.538 145.708 174.349 145.798 175.832Z" fill="#24341D"/>
<path d="M160.606 193.237C159.623 193.406 158.715 193.497 157.925 193.897C157.255 194.202 156.698 194.665 156.253 195.289C155.156 196.816 155.63 198.761 157.335 199.532C159.29 200.41 161.655 200.021 163.021 197.683C163.49 196.848 163.789 195.977 163.699 195.05C163.61 194.123 163.051 193.475 162.105 193.327C161.935 193.29 161.764 193.254 161.61 193.262C161.285 193.233 160.931 193.266 160.668 193.264L160.606 193.237Z" fill="#24341D"/>
<path d="M164.695 182.741C163.296 182.916 162.159 183.094 161.14 183.581C159.771 184.25 158.719 185.205 158.222 186.657C157.637 188.294 158.199 190.054 159.616 191.035C160.688 191.792 161.901 192.092 163.242 192.04C165.461 191.958 167 190.769 168.026 188.914C168.599 187.939 168.922 186.856 168.92 185.744C168.939 184.827 168.746 184.04 168.032 183.4C167.494 182.946 166.794 182.756 166.082 182.671C165.54 182.623 164.986 182.681 164.707 182.635L164.695 182.741Z" fill="#24341D"/>
<path d="M158.172 182.929C159.217 182.787 160.195 182.467 161.056 181.838C162.175 181.06 163.182 180.123 163.967 179.017C164.278 178.596 164.511 178.103 164.635 177.601C164.841 176.764 164.665 176.022 164.152 175.356C163.576 174.664 162.838 174.235 162.042 173.93C160.933 173.49 159.725 173.34 158.509 173.446C156.739 173.61 155.408 174.518 154.432 175.95C153.767 176.96 153.399 178.06 153.48 179.243C153.617 181.265 155.173 182.749 157.26 182.87C157.585 182.899 157.893 182.883 158.201 182.868L158.172 182.929Z" fill="#24341D"/>
<path d="M142.779 179.048C139.714 179.247 137.565 181.729 137.019 183.605C136.468 185.331 136.837 186.86 138.064 188.165C138.748 188.867 139.478 189.552 140.209 190.236C140.876 190.894 141.498 191.569 141.879 192.437C142.113 193.056 142.193 193.683 142.273 194.31C142.392 195.175 142.464 196.058 142.645 196.951C143.111 199.151 145.168 200.851 147.483 200.885C149.645 200.927 151.443 200.145 152.814 198.514C154.738 196.268 155.821 193.735 156.045 190.869C156.355 187.262 155.108 184.244 152.292 181.921C150.395 180.364 148.194 179.528 145.699 179.157C144.753 179.009 143.749 178.985 142.75 179.11L142.779 179.048Z" fill="#24341D"/>
<path d="M129.762 252.205C128.893 251.017 129.061 249.385 130.296 248.362C131.14 247.688 132.039 247.297 133.134 247.287C134.059 247.241 135 247.239 135.888 247.51C136.417 247.664 136.934 247.923 137.21 248.375C137.548 248.854 137.595 249.392 137.425 249.912C136.982 251.647 135.894 252.919 134.137 253.533C132.655 254.043 130.676 253.376 129.762 252.205Z" fill="#24341D"/>
<path d="M129.338 229.356C128.489 229.88 127.749 230.413 126.891 230.636C126.188 230.852 125.463 230.873 124.717 230.7C122.884 230.281 121.952 228.51 122.719 226.804C123.603 224.851 125.633 223.577 128.204 224.424C129.109 224.74 129.909 225.195 130.456 225.949C131.003 226.703 131.013 227.559 130.402 228.296C130.298 228.436 130.194 228.577 130.074 228.673C129.849 228.91 129.562 229.119 129.367 229.295L129.338 229.356Z" fill="#24341D"/>
<path d="M139.35 234.517C138.185 235.311 137.216 235.931 136.13 236.241C134.66 236.645 133.24 236.627 131.906 235.867C130.384 235.027 129.64 233.336 130.053 231.663C130.355 230.385 131.065 229.358 132.105 228.51C133.822 227.101 135.763 226.974 137.759 227.685C138.834 228.036 139.793 228.634 140.528 229.469C141.15 230.144 141.526 230.861 141.415 231.813C141.312 232.51 140.914 233.116 140.436 233.651C140.062 234.045 139.608 234.368 139.429 234.588L139.35 234.517Z" fill="#24341D"/>
<path d="M134.337 238.693C135.215 238.108 136.159 237.7 137.221 237.601C138.574 237.443 139.949 237.479 141.27 237.789C141.782 237.898 142.282 238.113 142.708 238.408C143.417 238.898 143.776 239.571 143.832 240.41C143.858 241.31 143.589 242.12 143.195 242.876C142.655 243.94 141.849 244.852 140.867 245.577C139.432 246.626 137.834 246.826 136.154 246.4C134.988 246.083 133.983 245.502 133.261 244.562C132.025 242.956 132.208 240.813 133.692 239.341C133.917 239.105 134.158 238.912 134.399 238.72L134.337 238.693Z" fill="#24341D"/>
<path d="M125.369 251.793C122.941 253.673 119.687 253.236 118.036 252.192C116.48 251.263 115.745 249.872 115.8 248.082C115.848 247.103 115.942 246.106 116.036 245.11C116.101 244.175 116.12 243.257 115.831 242.355C115.597 241.736 115.242 241.213 114.887 240.69C114.402 239.963 113.872 239.253 113.417 238.465C112.31 236.507 112.725 233.871 114.438 232.313C116.031 230.85 117.896 230.246 120.004 230.561C122.932 230.97 125.421 232.152 127.486 234.152C130.106 236.65 131.17 239.737 130.598 243.342C130.206 245.765 129.111 247.849 127.486 249.779C126.875 250.516 126.139 251.199 125.307 251.766L125.369 251.793Z" fill="#24341D"/>
<path d="M302.668 127.28C302.804 128.746 304.01 129.857 305.613 129.807C306.692 129.753 307.624 129.451 308.452 128.733C309.175 128.156 309.882 127.534 310.368 126.743C310.663 126.278 310.878 125.741 310.786 125.22C310.722 124.637 310.401 124.202 309.93 123.925C308.449 122.918 306.791 122.686 305.068 123.388C303.62 123.987 302.578 125.797 302.668 127.28Z" fill="#24341D"/>
<path d="M317.477 144.686C316.494 144.856 315.587 144.946 314.796 145.347C314.126 145.651 313.569 146.114 313.124 146.738C312.027 148.265 312.502 150.21 314.206 150.981C316.161 151.859 318.526 151.47 319.892 149.133C320.361 148.298 320.66 147.426 320.571 146.499C320.481 145.572 319.922 144.924 318.976 144.776C318.806 144.74 318.635 144.703 318.481 144.711C318.156 144.682 317.802 144.715 317.539 144.713L317.477 144.686Z" fill="#24341D"/>
<path d="M321.565 134.189C320.166 134.365 319.029 134.542 318.01 135.029C316.641 135.699 315.589 136.653 315.092 138.105C314.507 139.743 315.069 141.502 316.487 142.483C317.558 143.241 318.771 143.54 320.112 143.488C322.332 143.406 323.87 142.217 324.896 140.363C325.469 139.387 325.792 138.304 325.79 137.192C325.809 136.275 325.616 135.488 324.902 134.848C324.364 134.394 323.664 134.204 322.952 134.12C322.41 134.072 321.857 134.129 321.577 134.083L321.565 134.189Z" fill="#24341D"/>
<path d="M315.042 134.378C316.087 134.236 317.065 133.916 317.926 133.287C319.045 132.51 320.052 131.572 320.837 130.466C321.148 130.045 321.381 129.552 321.505 129.05C321.711 128.213 321.535 127.471 321.022 126.806C320.446 126.113 319.708 125.685 318.912 125.379C317.803 124.939 316.595 124.789 315.379 124.895C313.609 125.059 312.278 125.968 311.302 127.399C310.637 128.409 310.269 129.509 310.35 130.692C310.487 132.714 312.043 134.198 314.13 134.319C314.455 134.348 314.763 134.332 315.071 134.317L315.042 134.378Z" fill="#24341D"/>
<path d="M299.649 130.497C296.584 130.696 294.435 133.178 293.889 135.054C293.338 136.779 293.707 138.308 294.934 139.614C295.618 140.316 296.349 141.001 297.079 141.685C297.746 142.343 298.368 143.018 298.749 143.885C298.983 144.505 299.063 145.132 299.144 145.759C299.262 146.624 299.334 147.507 299.515 148.4C299.981 150.6 302.038 152.3 304.353 152.334C306.515 152.375 308.313 151.594 309.684 149.962C311.609 147.717 312.691 145.183 312.915 142.317C313.225 138.711 311.978 135.693 309.163 133.37C307.265 131.813 305.064 130.976 302.569 130.606C301.623 130.458 300.619 130.433 299.62 130.559L299.649 130.497Z" fill="#24341D"/>
<path d="M286.633 203.653C285.764 202.465 285.932 200.834 287.167 199.81C288.011 199.136 288.91 198.746 290.006 198.736C290.93 198.689 291.871 198.687 292.759 198.958C293.288 199.112 293.805 199.371 294.081 199.823C294.419 200.302 294.466 200.841 294.296 201.36C293.854 203.095 292.765 204.367 291.008 204.981C289.526 205.491 287.547 204.824 286.633 203.653Z" fill="#24341D"/>
<path d="M286.208 180.805C285.359 181.328 284.619 181.861 283.761 182.085C283.058 182.3 282.333 182.322 281.587 182.149C279.754 181.73 278.822 179.959 279.589 178.252C280.473 176.3 282.503 175.026 285.074 175.873C285.979 176.188 286.779 176.644 287.326 177.398C287.873 178.152 287.883 179.008 287.272 179.745C287.168 179.885 287.064 180.026 286.944 180.122C286.719 180.358 286.432 180.568 286.237 180.743L286.208 180.805Z" fill="#24341D"/>
<path d="M296.22 185.965C295.056 186.76 294.086 187.379 293 187.689C291.53 188.094 290.11 188.075 288.776 187.315C287.254 186.475 286.51 184.785 286.923 183.111C287.225 181.834 287.935 180.806 288.975 179.958C290.692 178.549 292.633 178.422 294.629 179.133C295.705 179.485 296.664 180.083 297.398 180.917C298.02 181.592 298.396 182.309 298.285 183.262C298.183 183.958 297.784 184.564 297.306 185.099C296.932 185.493 296.478 185.817 296.3 186.036L296.22 185.965Z" fill="#24341D"/>
<path d="M291.207 190.141C292.085 189.556 293.029 189.148 294.091 189.05C295.445 188.891 296.819 188.928 298.14 189.237C298.652 189.346 299.153 189.562 299.578 189.856C300.287 190.346 300.646 191.019 300.702 191.858C300.729 192.758 300.459 193.568 300.065 194.324C299.526 195.388 298.719 196.3 297.738 197.025C296.303 198.074 294.704 198.275 293.024 197.848C291.858 197.531 290.853 196.95 290.131 196.01C288.895 194.404 289.078 192.261 290.563 190.789C290.787 190.553 291.028 190.36 291.269 190.168L291.207 190.141Z" fill="#24341D"/>
<path d="M282.239 203.242C279.811 205.122 276.557 204.684 274.906 203.64C273.351 202.712 272.615 201.321 272.67 199.53C272.718 198.551 272.812 197.555 272.906 196.558C272.971 195.623 272.99 194.706 272.701 193.804C272.467 193.185 272.112 192.661 271.757 192.138C271.273 191.411 270.742 190.702 270.287 189.913C269.18 187.955 269.596 185.32 271.309 183.761C272.901 182.299 274.766 181.695 276.874 182.009C279.803 182.418 282.291 183.601 284.356 185.6C286.977 188.098 288.04 191.185 287.468 194.79C287.076 197.214 285.981 199.298 284.356 201.227C283.745 201.964 283.009 202.647 282.177 203.215L282.239 203.242Z" fill="#24341D"/>
<path d="M467.756 104.214C467.588 105.676 468.541 107.011 470.121 107.29C471.187 107.458 472.162 107.353 473.119 106.82C473.945 106.404 474.765 105.94 475.402 105.266C475.786 104.87 476.107 104.389 476.123 103.86C476.181 103.276 475.955 102.785 475.551 102.418C474.308 101.128 472.733 100.561 470.902 100.896C469.362 101.185 467.971 102.744 467.756 104.214Z" fill="#24341D"/>
<path d="M478.684 124.284C477.688 124.249 476.78 124.152 475.925 124.381C475.207 124.542 474.566 124.882 474.003 125.401C472.617 126.671 472.683 128.672 474.193 129.775C475.927 131.036 478.321 131.139 480.137 129.131C480.768 128.41 481.238 127.618 481.341 126.692C481.443 125.767 481.029 125.018 480.133 124.679C479.974 124.609 479.814 124.538 479.662 124.514C479.349 124.419 478.996 124.379 478.74 124.323L478.684 124.284Z" fill="#24341D"/>
<path d="M484.836 114.848C483.431 114.733 482.282 114.674 481.184 114.942C479.707 115.317 478.482 116.035 477.698 117.355C476.791 118.838 476.979 120.675 478.166 121.926C479.06 122.887 480.186 123.428 481.509 123.652C483.698 124.027 485.448 123.178 486.832 121.573C487.592 120.736 488.13 119.742 488.356 118.653C488.563 117.759 488.535 116.949 487.968 116.176C487.534 115.622 486.888 115.293 486.208 115.064C485.688 114.906 485.134 114.849 484.87 114.747L484.836 114.848Z" fill="#24341D"/>
<path d="M478.414 113.697C479.466 113.772 480.489 113.659 481.461 113.22C482.715 112.688 483.892 111.977 484.887 111.055C485.278 110.706 485.607 110.272 485.831 109.806C486.205 109.029 486.184 108.266 485.818 107.51C485.396 106.714 484.761 106.144 484.045 105.681C483.05 105.023 481.898 104.629 480.686 104.484C478.92 104.282 477.431 104.898 476.183 106.1C475.325 106.952 474.739 107.954 474.576 109.128C474.296 111.135 475.515 112.907 477.533 113.452C477.845 113.547 478.15 113.595 478.455 113.643L478.414 113.697Z" fill="#24341D"/>
<path d="M464.141 106.744C461.101 106.311 458.489 108.3 457.57 110.024C456.677 111.6 456.726 113.173 457.659 114.702C458.185 115.529 458.759 116.349 459.334 117.169C459.852 117.949 460.323 118.737 460.518 119.664C460.62 120.318 460.57 120.948 460.52 121.579C460.459 122.45 460.349 123.329 460.343 124.24C460.348 126.489 462.013 128.574 464.273 129.082C466.38 129.565 468.3 129.169 469.976 127.853C472.32 126.049 473.898 123.791 474.704 121.031C475.747 117.565 475.145 114.356 472.865 111.505C471.326 109.592 469.344 108.323 466.977 107.449C466.082 107.11 465.104 106.881 464.1 106.799L464.141 106.744Z" fill="#24341D"/>
<path d="M436.414 175.684C435.808 174.343 436.306 172.78 437.725 172.031C438.689 171.545 439.649 171.347 440.723 171.561C441.638 171.705 442.559 171.896 443.373 172.343C443.859 172.602 444.312 172.962 444.489 173.461C444.722 173.999 444.658 174.536 444.385 175.009C443.596 176.617 442.27 177.639 440.425 177.88C438.87 178.076 437.069 177.017 436.414 175.684Z" fill="#24341D"/>
<path d="M440.679 153.232C439.741 153.571 438.908 153.941 438.022 153.984C437.29 154.051 436.576 153.923 435.881 153.601C434.173 152.816 433.623 150.891 434.724 149.378C435.989 147.648 438.237 146.817 440.58 148.173C441.401 148.667 442.091 149.277 442.472 150.127C442.853 150.977 442.687 151.817 441.938 152.413C441.808 152.529 441.677 152.645 441.54 152.715C441.271 152.9 440.948 153.047 440.72 153.178L440.679 153.232Z" fill="#24341D"/>
<path d="M449.423 160.335C448.121 160.874 447.045 161.282 445.918 161.363C444.397 161.458 443.011 161.148 441.86 160.132C440.543 158.998 440.161 157.19 440.908 155.637C441.465 154.449 442.371 153.589 443.562 152.971C445.532 151.944 447.458 152.217 449.266 153.322C450.246 153.886 451.062 154.668 451.61 155.635C452.081 156.424 452.302 157.203 451.998 158.112C451.755 158.773 451.241 159.284 450.663 159.71C450.216 160.019 449.706 160.243 449.487 160.421L449.423 160.335Z" fill="#24341D"/>
<path d="M443.66 163.396C444.639 163.003 445.647 162.797 446.707 162.918C448.064 163.041 449.402 163.358 450.631 163.931C451.111 164.143 451.556 164.456 451.912 164.831C452.506 165.456 452.719 166.189 452.602 167.021C452.444 167.908 452.014 168.645 451.473 169.305C450.727 170.235 449.751 170.963 448.642 171.472C447.023 172.204 445.417 172.073 443.86 171.312C442.783 170.762 441.919 169.988 441.404 168.92C440.524 167.095 441.142 165.035 442.897 163.898C443.165 163.713 443.44 163.574 443.716 163.435L443.66 163.396Z" fill="#24341D"/>
<path d="M432.199 174.381C429.437 175.723 426.342 174.628 424.94 173.268C423.608 172.041 423.173 170.529 423.593 168.788C423.841 167.839 424.137 166.883 424.433 165.927C424.688 165.025 424.895 164.131 424.797 163.189C424.694 162.535 424.454 161.95 424.214 161.365C423.889 160.555 423.515 159.751 423.231 158.886C422.548 156.743 423.495 154.249 425.491 153.074C427.349 151.969 429.298 151.759 431.297 152.499C434.08 153.5 436.274 155.167 437.885 157.547C439.938 160.529 440.347 163.768 439.048 167.179C438.169 169.472 436.669 171.286 434.683 172.842C433.935 173.439 433.074 173.956 432.144 174.342L432.199 174.381Z" fill="#24341D"/>
<path d="M645.69 122.984C645.126 124.344 645.673 125.89 647.115 126.593C648.094 127.049 649.06 127.217 650.127 126.969C651.036 126.796 651.951 126.577 652.75 126.104C653.228 125.83 653.67 125.456 653.831 124.952C654.047 124.407 653.966 123.872 653.678 123.408C652.839 121.825 651.482 120.846 649.63 120.663C648.07 120.516 646.303 121.631 645.69 122.984Z" fill="#24341D"/>
<path d="M650.66 145.29C649.712 144.981 648.866 144.638 647.98 144.623C647.246 144.579 646.537 144.729 645.852 145.072C644.169 145.911 643.681 147.852 644.829 149.33C646.147 151.019 648.42 151.779 650.72 150.35C651.524 149.831 652.195 149.199 652.549 148.338C652.903 147.476 652.711 146.642 651.944 146.07C651.81 145.958 651.676 145.846 651.536 145.781C651.262 145.604 650.934 145.467 650.702 145.343L650.66 145.29Z" fill="#24341D"/>
<path d="M659.176 137.916C657.857 137.418 656.769 137.044 655.64 136.999C654.116 136.952 652.741 137.305 651.623 138.357C650.342 139.532 650.017 141.35 650.813 142.879C651.407 144.05 652.339 144.881 653.549 145.461C655.55 146.425 657.466 146.092 659.239 144.93C660.201 144.335 660.992 143.528 661.51 142.544C661.955 141.742 662.151 140.956 661.82 140.057C661.556 139.404 661.025 138.909 660.435 138.502C659.978 138.207 659.462 137.999 659.236 137.828L659.176 137.916Z" fill="#24341D"/>
<path d="M653.318 135.038C654.309 135.4 655.323 135.574 656.379 135.42C657.731 135.255 659.058 134.896 660.269 134.284C660.741 134.057 661.177 133.73 661.521 133.344C662.094 132.7 662.285 131.961 662.142 131.133C661.956 130.252 661.503 129.528 660.942 128.886C660.167 127.98 659.168 127.283 658.044 126.809C656.402 126.128 654.801 126.31 653.269 127.12C652.21 127.703 651.37 128.504 650.89 129.588C650.067 131.44 650.75 133.479 652.539 134.56C652.813 134.737 653.093 134.867 653.373 134.997L653.318 135.038Z" fill="#24341D"/>
<path d="M641.518 124.419C638.715 123.164 635.656 124.356 634.297 125.76C633.004 127.028 632.617 128.553 633.092 130.281C633.37 131.221 633.696 132.167 634.022 133.113C634.305 134.006 634.54 134.894 634.472 135.838C634.39 136.496 634.168 137.088 633.946 137.68C633.647 138.5 633.298 139.315 633.042 140.188C632.427 142.352 633.452 144.815 635.484 145.926C637.376 146.972 639.331 147.121 641.305 146.318C644.055 145.231 646.195 143.496 647.731 141.066C649.689 138.021 649.996 134.77 648.59 131.402C647.639 129.138 646.083 127.371 644.05 125.879C643.282 125.306 642.406 124.816 641.464 124.46L641.518 124.419Z" fill="#24341D"/>
<path d="M595.853 183.035C595.639 181.579 596.549 180.214 598.12 179.886C599.181 179.684 600.158 179.758 601.131 180.261C601.97 180.652 602.804 181.089 603.462 181.743C603.859 182.126 604.195 182.597 604.227 183.125C604.303 183.707 604.093 184.205 603.7 184.585C602.499 185.913 600.942 186.529 599.102 186.252C597.554 186.012 596.114 184.498 595.853 183.035Z" fill="#24341D"/>
<path d="M606.145 162.631C605.15 162.698 604.247 162.824 603.384 162.621C602.661 162.483 602.011 162.164 601.432 161.663C600.006 160.436 600.009 158.435 601.484 157.284C603.177 155.97 605.567 155.791 607.445 157.741C608.098 158.442 608.593 159.219 608.725 160.141C608.857 161.063 608.466 161.824 607.581 162.191C607.424 162.266 607.267 162.342 607.115 162.371C606.806 162.475 606.454 162.527 606.2 162.59L606.145 162.631Z" fill="#24341D"/>
<path d="M612.59 171.87C611.189 172.029 610.043 172.124 608.937 171.891C607.449 171.563 606.202 170.883 605.376 169.588C604.423 168.135 604.554 166.292 605.701 165.005C606.564 164.017 607.672 163.44 608.987 163.175C611.164 162.731 612.939 163.524 614.373 165.085C615.159 165.898 615.728 166.875 615.988 167.956C616.223 168.843 616.221 169.653 615.678 170.443C615.262 171.011 614.627 171.361 613.954 171.611C613.439 171.785 612.887 171.859 612.627 171.97L612.59 171.87Z" fill="#24341D"/>
<path d="M606.206 173.222C607.256 173.115 608.282 173.195 609.267 173.604C610.537 174.096 611.736 174.769 612.76 175.659C613.162 175.995 613.503 176.419 613.742 176.878C614.14 177.643 614.144 178.406 613.802 179.173C613.405 179.982 612.789 180.572 612.087 181.057C611.113 181.746 609.974 182.176 608.768 182.359C607.009 182.617 605.501 182.047 604.215 180.886C603.332 180.061 602.714 179.079 602.515 177.91C602.171 175.913 603.334 174.104 605.334 173.495C605.643 173.39 605.946 173.333 606.249 173.275L606.206 173.222Z" fill="#24341D"/>
<path d="M592.161 180.621C589.135 181.149 586.462 179.243 585.489 177.549C584.548 176.002 584.546 174.429 585.431 172.871C585.931 172.028 586.479 171.19 587.027 170.353C587.521 169.557 587.967 168.754 588.132 167.821C588.214 167.164 588.144 166.536 588.075 165.908C587.986 165.039 587.848 164.164 587.813 163.254C587.748 161.005 589.346 158.869 591.589 158.29C593.68 157.741 595.611 158.077 597.329 159.339C599.728 161.068 601.376 163.276 602.269 166.008C603.42 169.441 602.919 172.667 600.73 175.588C599.252 177.548 597.311 178.879 594.973 179.827C594.088 180.194 593.119 180.454 592.118 180.568L592.161 180.621Z" fill="#24341D"/>
<path d="M815.101 142.531C814.537 143.891 815.085 145.437 816.526 146.141C817.505 146.597 818.471 146.765 819.538 146.516C820.447 146.344 821.362 146.124 822.161 145.651C822.639 145.377 823.081 145.003 823.242 144.499C823.458 143.954 823.377 143.42 823.089 142.955C822.251 141.373 820.893 140.393 819.041 140.21C817.481 140.063 815.714 141.178 815.101 142.531Z" fill="#24341D"/>
<path d="M820.071 164.837C819.123 164.528 818.278 164.185 817.392 164.169C816.657 164.126 815.948 164.276 815.264 164.619C813.581 165.458 813.092 167.399 814.24 168.877C815.558 170.566 817.832 171.326 820.131 169.897C820.936 169.377 821.606 168.746 821.96 167.885C822.314 167.023 822.122 166.189 821.355 165.617C821.221 165.505 821.087 165.393 820.947 165.328C820.673 165.15 820.345 165.014 820.114 164.89L820.071 164.837Z" fill="#24341D"/>
<path d="M828.587 157.463C827.268 156.965 826.18 156.591 825.051 156.546C823.528 156.499 822.152 156.852 821.034 157.904C819.753 159.079 819.428 160.898 820.224 162.427C820.818 163.597 821.75 164.428 822.961 165.008C824.962 165.972 826.878 165.639 828.65 164.478C829.612 163.883 830.403 163.076 830.921 162.092C831.366 161.289 831.563 160.503 831.231 159.604C830.967 158.951 830.436 158.456 829.846 158.049C829.389 157.754 828.873 157.547 828.647 157.375L828.587 157.463Z" fill="#24341D"/>
<path d="M822.731 154.585C823.721 154.947 824.736 155.121 825.791 154.967C827.143 154.801 828.471 154.442 829.681 153.831C830.154 153.604 830.589 153.277 830.933 152.89C831.507 152.247 831.697 151.508 831.554 150.68C831.368 149.799 830.915 149.075 830.354 148.433C829.579 147.526 828.581 146.83 827.456 146.356C825.814 145.675 824.213 145.857 822.681 146.667C821.622 147.25 820.782 148.051 820.302 149.135C819.479 150.986 820.162 153.026 821.952 154.107C822.225 154.284 822.505 154.414 822.785 154.544L822.731 154.585Z" fill="#24341D"/>
<path d="M810.929 143.966C808.126 142.711 805.067 143.902 803.708 145.306C802.416 146.575 802.028 148.099 802.504 149.827C802.781 150.767 803.107 151.713 803.433 152.66C803.716 153.553 803.951 154.44 803.883 155.385C803.801 156.042 803.579 156.634 803.357 157.226C803.058 158.047 802.71 158.861 802.453 159.735C801.838 161.898 802.863 164.362 804.895 165.473C806.787 166.519 808.742 166.667 810.716 165.865C813.466 164.777 815.606 163.042 817.142 160.612C819.1 157.567 819.407 154.317 818.001 150.948C817.05 148.685 815.494 146.918 813.461 145.425C812.693 144.853 811.817 144.362 810.875 144.007L810.929 143.966Z" fill="#24341D"/>
<path d="M765.265 202.583C765.052 201.127 765.962 199.763 767.532 199.434C768.593 199.233 769.57 199.307 770.543 199.809C771.383 200.2 772.216 200.637 772.874 201.291C773.271 201.674 773.607 202.145 773.639 202.674C773.715 203.255 773.505 203.753 773.112 204.133C771.911 205.461 770.354 206.077 768.514 205.801C766.966 205.56 765.526 204.046 765.265 202.583Z" fill="#24341D"/>
<path d="M775.556 182.18C774.562 182.247 773.658 182.373 772.795 182.17C772.073 182.032 771.422 181.713 770.843 181.211C769.417 179.985 769.42 177.984 770.895 176.833C772.588 175.519 774.978 175.34 776.856 177.29C777.509 177.991 778.004 178.767 778.136 179.689C778.268 180.611 777.877 181.373 776.993 181.739C776.835 181.815 776.678 181.891 776.526 181.92C776.217 182.024 775.865 182.076 775.611 182.139L775.556 182.18Z" fill="#24341D"/>
<path d="M782.001 191.417C780.6 191.577 779.454 191.672 778.348 191.439C776.86 191.11 775.613 190.431 774.787 189.136C773.834 187.683 773.965 185.84 775.112 184.553C775.975 183.565 777.083 182.988 778.398 182.723C780.575 182.279 782.351 183.072 783.784 184.633C784.571 185.446 785.139 186.423 785.399 187.504C785.634 188.391 785.632 189.201 785.089 189.991C784.673 190.559 784.038 190.909 783.365 191.158C782.85 191.333 782.299 191.407 782.038 191.517L782.001 191.417Z" fill="#24341D"/>
<path d="M775.619 192.771C776.668 192.663 777.694 192.743 778.679 193.152C779.949 193.644 781.148 194.318 782.172 195.208C782.574 195.544 782.916 195.968 783.154 196.426C783.552 197.191 783.556 197.954 783.214 198.722C782.817 199.53 782.201 200.121 781.499 200.605C780.525 201.294 779.386 201.724 778.18 201.907C776.421 202.165 774.913 201.596 773.628 200.435C772.744 199.609 772.126 198.627 771.927 197.458C771.584 195.461 772.746 193.652 774.746 193.043C775.055 192.939 775.358 192.881 775.661 192.823L775.619 192.771Z" fill="#24341D"/>
<path d="M761.573 200.169C758.547 200.697 755.874 198.791 754.901 197.097C753.96 195.55 753.958 193.977 754.843 192.419C755.343 191.575 755.891 190.738 756.44 189.901C756.933 189.104 757.379 188.302 757.544 187.369C757.626 186.712 757.556 186.084 757.487 185.456C757.398 184.586 757.26 183.711 757.226 182.801C757.16 180.553 758.759 178.417 761.001 177.838C763.092 177.289 765.023 177.625 766.741 178.887C769.14 180.616 770.788 182.823 771.681 185.556C772.832 188.988 772.331 192.215 770.142 195.136C768.664 197.096 766.723 198.427 764.385 199.375C763.501 199.742 762.531 200.002 761.53 200.116L761.573 200.169Z" fill="#24341D"/>
<path d="M974.693 185.967C973.957 187.242 974.299 188.845 975.636 189.731C976.548 190.31 977.483 190.602 978.573 190.495C979.498 190.442 980.434 190.344 981.287 189.979C981.797 189.77 982.283 189.456 982.509 188.977C982.794 188.465 982.783 187.925 982.558 187.426C981.933 185.749 980.714 184.601 978.902 184.178C977.374 183.83 975.477 184.705 974.693 185.967Z" fill="#24341D"/>
<path d="M976.717 208.729C975.817 208.3 975.024 207.849 974.147 207.719C973.425 207.58 972.702 207.636 971.979 207.888C970.201 208.501 969.464 210.361 970.41 211.976C971.497 213.823 973.652 214.872 976.118 213.754C976.983 213.344 977.73 212.805 978.193 211.997C978.656 211.189 978.575 210.337 977.888 209.67C977.77 209.541 977.652 209.413 977.522 209.33C977.273 209.119 976.965 208.941 976.752 208.788L976.717 208.729Z" fill="#24341D"/>
<path d="M986.119 202.527C984.876 201.861 983.846 201.349 982.733 201.157C981.229 200.912 979.818 201.083 978.573 201.981C977.15 202.979 976.591 204.74 977.181 206.36C977.618 207.597 978.434 208.543 979.559 209.275C981.417 210.492 983.36 210.411 985.269 209.49C986.3 209.025 987.19 208.328 987.831 207.419C988.377 206.682 988.674 205.928 988.462 204.993C988.285 204.312 987.824 203.752 987.291 203.272C986.877 202.919 986.392 202.647 986.191 202.448L986.119 202.527Z" fill="#24341D"/>
<path d="M980.687 198.912C981.623 199.4 982.606 199.704 983.672 199.688C985.034 199.701 986.397 199.517 987.677 199.069C988.175 198.905 988.649 198.637 989.041 198.299C989.693 197.736 989.978 197.028 989.944 196.188C989.874 195.29 989.52 194.514 989.047 193.804C988.396 192.804 987.497 191.984 986.443 191.368C984.904 190.479 983.293 190.451 981.669 191.054C980.543 191.495 979.606 192.179 978.989 193.192C977.932 194.921 978.344 197.032 979.977 198.336C980.226 198.547 980.486 198.713 980.747 198.878L980.687 198.912Z" fill="#24341D"/>
<path d="M970.369 186.846C967.753 185.237 964.565 186.02 963.035 187.235C961.588 188.325 961.006 189.786 961.253 191.561C961.405 192.529 961.605 193.51 961.805 194.49C961.97 195.413 962.087 196.323 961.897 197.251C961.73 197.892 961.433 198.45 961.136 199.008C960.732 199.783 960.281 200.545 959.913 201.378C959.021 203.443 959.717 206.018 961.587 207.385C963.327 208.668 965.246 209.069 967.308 208.531C970.176 207.811 972.524 206.369 974.363 204.159C976.701 201.395 977.428 198.212 976.473 194.689C975.824 192.321 974.512 190.367 972.689 188.622C972.003 187.955 971.198 187.355 970.31 186.879L970.369 186.846Z" fill="#24341D"/>
<path d="M917.463 239.022C917.441 237.55 918.521 236.316 920.12 236.195C921.199 236.133 922.158 236.334 923.058 236.959C923.839 237.455 924.608 237.997 925.176 238.731C925.519 239.163 925.791 239.673 925.754 240.202C925.754 240.788 925.481 241.254 925.042 241.58C923.678 242.74 922.054 243.149 920.266 242.635C918.762 242.195 917.532 240.506 917.463 239.022Z" fill="#24341D"/>
<path d="M930.324 220.13C929.329 220.067 928.417 220.074 927.588 219.761C926.889 219.53 926.285 219.129 925.777 218.556C924.523 217.155 924.786 215.171 926.398 214.222C928.248 213.139 930.641 213.273 932.249 215.451C932.805 216.231 933.195 217.065 933.206 217.997C933.216 218.928 932.73 219.632 931.805 219.88C931.639 219.935 931.473 219.99 931.319 219.998C930.999 220.062 930.644 220.067 930.383 220.097L930.324 220.13Z" fill="#24341D"/>
<path d="M935.512 230.129C934.102 230.104 932.953 230.05 931.887 229.675C930.454 229.155 929.306 228.319 928.656 226.928C927.9 225.363 928.27 223.553 929.574 222.426C930.559 221.558 931.732 221.131 933.071 221.039C935.287 220.882 936.944 221.9 938.162 223.634C938.836 224.543 939.273 225.585 939.39 226.69C939.508 227.601 939.4 228.403 938.759 229.116C938.273 229.625 937.597 229.889 936.898 230.05C936.365 230.155 935.808 230.157 935.535 230.233L935.512 230.129Z" fill="#24341D"/>
<path d="M929.008 230.639C930.062 230.669 931.069 230.882 931.992 231.415C933.188 232.069 934.289 232.893 935.188 233.908C935.543 234.294 935.826 234.759 936.003 235.245C936.299 236.055 936.203 236.812 935.764 237.528C935.265 238.278 934.577 238.783 933.818 239.172C932.763 239.729 931.578 240.007 930.358 240.032C928.581 240.058 927.16 239.297 926.036 237.979C925.267 237.046 924.783 235.991 924.737 234.806C924.657 232.782 926.045 231.139 928.107 230.796C928.427 230.732 928.735 230.715 929.043 230.697L929.008 230.639Z" fill="#24341D"/>
<path d="M914.118 236.147C911.049 236.277 908.647 234.039 907.903 232.233C907.17 230.576 907.374 229.016 908.454 227.587C909.059 226.816 909.712 226.057 910.364 225.298C910.958 224.573 911.504 223.835 911.789 222.932C911.956 222.291 911.968 221.659 911.981 221.027C912.006 220.154 911.983 219.268 912.068 218.361C912.296 216.124 914.158 214.214 916.457 213.932C918.602 213.659 920.473 214.244 922.011 215.719C924.165 217.745 925.512 220.148 926.042 222.974C926.736 226.527 925.82 229.661 923.269 232.272C921.549 234.023 919.45 235.09 917.009 235.726C916.084 235.974 915.089 236.106 914.082 236.089L914.118 236.147Z" fill="#24341D"/>
<path d="M1139.76 227.229C1139.03 228.504 1139.37 230.108 1140.7 230.993C1141.62 231.572 1142.55 231.865 1143.64 231.757C1144.57 231.704 1145.5 231.606 1146.36 231.241C1146.87 231.032 1147.35 230.718 1147.58 230.24C1147.86 229.727 1147.85 229.187 1147.63 228.689C1147 227.011 1145.78 225.863 1143.97 225.44C1142.44 225.092 1140.55 225.967 1139.76 227.229Z" fill="#24341D"/>
<path d="M1141.79 249.992C1140.89 249.563 1140.09 249.112 1139.22 248.982C1138.49 248.843 1137.77 248.899 1137.05 249.151C1135.27 249.763 1134.53 251.624 1135.48 253.239C1136.57 255.085 1138.72 256.135 1141.19 255.017C1142.05 254.607 1142.8 254.068 1143.26 253.26C1143.72 252.452 1143.64 251.6 1142.96 250.932C1142.84 250.804 1142.72 250.675 1142.59 250.592C1142.34 250.381 1142.03 250.203 1141.82 250.05L1141.79 249.992Z" fill="#24341D"/>
<path d="M1151.19 243.79C1149.94 243.124 1148.91 242.612 1147.8 242.42C1146.3 242.175 1144.89 242.346 1143.64 243.244C1142.22 244.242 1141.66 246.003 1142.25 247.622C1142.69 248.86 1143.5 249.805 1144.63 250.538C1146.49 251.754 1148.43 251.673 1150.34 250.753C1151.37 250.288 1152.26 249.591 1152.9 248.682C1153.45 247.944 1153.74 247.191 1153.53 246.256C1153.35 245.575 1152.89 245.015 1152.36 244.534C1151.95 244.182 1151.46 243.909 1151.26 243.71L1151.19 243.79Z" fill="#24341D"/>
<path d="M1145.76 240.174C1146.69 240.661 1147.67 240.966 1148.74 240.95C1150.1 240.962 1151.47 240.779 1152.75 240.33C1153.24 240.166 1153.72 239.899 1154.11 239.561C1154.76 238.997 1155.05 238.29 1155.01 237.45C1154.94 236.552 1154.59 235.776 1154.11 235.066C1153.46 234.066 1152.57 233.246 1151.51 232.63C1149.97 231.74 1148.36 231.712 1146.74 232.316C1145.61 232.756 1144.67 233.441 1144.06 234.454C1143 236.182 1143.41 238.293 1145.05 239.598C1145.29 239.809 1145.55 239.975 1145.81 240.14L1145.76 240.174Z" fill="#24341D"/>
<path d="M1135.44 228.109C1132.82 226.5 1129.63 227.283 1128.1 228.498C1126.66 229.588 1126.07 231.049 1126.32 232.824C1126.47 233.792 1126.67 234.773 1126.87 235.753C1127.04 236.676 1127.16 237.586 1126.97 238.514C1126.8 239.155 1126.5 239.713 1126.2 240.271C1125.8 241.046 1125.35 241.808 1124.98 242.641C1124.09 244.706 1124.79 247.282 1126.66 248.648C1128.4 249.931 1130.31 250.333 1132.38 249.794C1135.24 249.074 1137.59 247.632 1139.43 245.422C1141.77 242.658 1142.5 239.475 1141.54 235.952C1140.89 233.584 1139.58 231.63 1137.76 229.885C1137.07 229.218 1136.27 228.618 1135.38 228.142L1135.44 228.109Z" fill="#24341D"/>
<path d="M1095.39 261.394C1094.4 261.331 1093.48 261.338 1092.66 261.024C1091.96 260.794 1091.35 260.392 1090.84 259.82C1089.59 258.419 1089.85 256.435 1091.47 255.486C1093.32 254.403 1095.71 254.537 1097.32 256.715C1097.87 257.494 1098.26 258.329 1098.27 259.26C1098.28 260.192 1097.8 260.896 1096.87 261.144C1096.71 261.199 1096.54 261.253 1096.39 261.262C1096.07 261.325 1095.71 261.331 1095.45 261.361L1095.39 261.394Z" fill="#24341D"/>
<path d="M1100.58 271.392C1099.17 271.367 1098.02 271.313 1096.96 270.938C1095.52 270.418 1094.37 269.582 1093.72 268.191C1092.97 266.626 1093.34 264.816 1094.64 263.69C1095.63 262.822 1096.8 262.394 1098.14 262.302C1100.36 262.146 1102.01 263.163 1103.23 264.897C1103.9 265.806 1104.34 266.848 1104.46 267.954C1104.58 268.864 1104.47 269.667 1103.83 270.38C1103.34 270.888 1102.67 271.153 1101.97 271.313C1101.43 271.418 1100.88 271.42 1100.6 271.496L1100.58 271.392Z" fill="#24341D"/>
<path d="M1094.08 271.902C1095.13 271.932 1096.14 272.145 1097.06 272.679C1098.26 273.332 1099.36 274.156 1100.26 275.172C1100.61 275.557 1100.89 276.022 1101.07 276.508C1101.37 277.318 1101.27 278.075 1100.83 278.791C1100.33 279.541 1099.65 280.047 1098.89 280.436C1097.83 280.992 1096.65 281.27 1095.43 281.295C1093.65 281.321 1092.23 280.561 1091.1 279.242C1090.34 278.309 1089.85 277.254 1089.81 276.07C1089.73 274.045 1091.11 272.402 1093.18 272.059C1093.5 271.996 1093.8 271.978 1094.11 271.96L1094.08 271.902Z" fill="#24341D"/>
<path d="M1079.19 277.41C1076.12 277.54 1073.72 275.303 1072.97 273.496C1072.24 271.839 1072.44 270.28 1073.52 268.85C1074.13 268.079 1074.78 267.32 1075.43 266.561C1076.03 265.836 1076.57 265.098 1076.86 264.195C1077.02 263.554 1077.04 262.922 1077.05 262.29C1077.07 261.417 1077.05 260.531 1077.14 259.625C1077.36 257.387 1079.23 255.477 1081.53 255.195C1083.67 254.922 1085.54 255.507 1087.08 256.982C1089.23 259.008 1090.58 261.412 1091.11 264.237C1091.8 267.79 1090.89 270.924 1088.34 273.535C1086.62 275.287 1084.52 276.354 1082.08 276.989C1081.15 277.237 1080.16 277.369 1079.15 277.352L1079.19 277.41Z" fill="#24341D"/>
<path d="M1292.99 258.535C1292.32 259.847 1292.75 261.431 1294.13 262.244C1295.07 262.775 1296.02 263.017 1297.1 262.852C1298.02 262.751 1298.95 262.603 1299.79 262.194C1300.28 261.958 1300.75 261.619 1300.95 261.129C1301.21 260.602 1301.17 260.063 1300.92 259.577C1300.21 257.935 1298.93 256.853 1297.1 256.527C1295.55 256.259 1293.71 257.233 1292.99 258.535Z" fill="#24341D"/>
<path d="M1299.66 271.146C1300.62 271.584 1301.62 271.836 1302.68 271.764C1304.04 271.704 1305.39 271.449 1306.65 270.933C1307.14 270.743 1307.6 270.451 1307.97 270.093C1308.59 269.496 1308.84 268.774 1308.76 267.937C1308.64 267.044 1308.25 266.288 1307.74 265.604C1307.04 264.64 1306.09 263.868 1305.01 263.308C1303.43 262.502 1301.82 262.559 1300.23 263.248C1299.12 263.747 1298.22 264.48 1297.66 265.524C1296.7 267.306 1297.22 269.392 1298.92 270.609C1299.18 270.806 1299.45 270.958 1299.72 271.109L1299.66 271.146Z" fill="#24341D"/>
<path d="M1288.72 259.643C1286.02 258.174 1282.88 259.125 1281.42 260.419C1280.03 261.583 1279.52 263.073 1279.86 264.832C1280.07 265.791 1280.32 266.76 1280.57 267.729C1280.78 268.641 1280.95 269.544 1280.81 270.481C1280.67 271.129 1280.41 271.702 1280.14 272.275C1279.78 273.07 1279.37 273.855 1279.04 274.706C1278.26 276.816 1279.09 279.351 1281.03 280.617C1282.84 281.806 1284.78 282.106 1286.81 281.459C1289.63 280.589 1291.9 279.025 1293.62 276.721C1295.81 273.837 1296.37 270.62 1295.23 267.153C1294.46 264.822 1293.04 262.94 1291.13 261.294C1290.41 260.664 1289.57 260.107 1288.66 259.679L1288.72 259.643Z" fill="#24341D"/>
</g>
</svg>
