<svg width="33" height="19" viewBox="0 0 33 19" fill="none" xmlns="http://www.w3.org/2000/svg">
<path d="M14.4633 7.05306C15.7634 10.1389 16.1122 11.5727 17.7927 11.7285C19.4732 11.8844 20.7415 12.1337 21.4708 11.2298C22.2001 10.3259 23.3416 9.26612 23.6269 7.80114C23.9123 6.33616 24.6099 4.46597 24.2611 2.62695C24.1026 1.78537 23.8806 1.0373 23.7221 0.507412C23.2782 0.445072 22.8025 0.445068 22.3586 0.445068C22.3586 0.445068 18.1098 0.60092 16.1439 0.881448C15.8902 0.912618 15.6682 0.943787 15.478 0.943787C14.6853 2.40877 13.6389 4.90235 14.5268 6.99072L14.4633 7.05306Z" fill="#EFA14B"/>
<path d="M3.9998 8.73562C3.01685 9.04732 2.66806 8.42392 2.35098 7.76936C2.19244 7.17713 2.25585 6.4914 2.35098 5.80566C1.39974 6.77193 0.860706 7.58234 1.33633 7.67585C1.33633 7.67585 0.416795 9.14083 0.860706 9.73306C0.924122 9.82657 1.01925 9.8889 1.14608 9.95124C1.14608 9.95124 0.51192 12.0396 1.11437 12.289C1.46316 12.4448 1.55828 12.2266 1.58999 12.0396C1.58999 11.8838 1.58999 11.7903 1.58999 11.7903C1.58999 11.7903 1.58999 11.9149 1.58999 12.0396C1.58999 12.6007 1.58999 13.9098 2.09732 14.0657C2.4144 14.1592 2.47781 14.0345 2.47781 13.8786C2.4144 13.6604 2.38269 13.5046 2.38269 13.5046C2.38269 13.5046 2.47781 13.6916 2.47781 13.8786C2.63635 14.502 2.95343 15.6553 3.27051 15.4683C3.55588 15.2813 3.6193 15.0319 3.6193 14.9072C3.6193 15.2813 3.99979 16.2164 5.17299 16.9021C6.75839 17.8372 7.51938 17.432 8.34378 17.0891C8.34378 17.0891 10.2145 16.9021 11.2292 16.9956C11.3877 16.9956 11.5146 17.0268 11.6414 17.058C11.4512 16.3099 11.1024 15.4683 10.7219 14.689C7.17059 14.7826 2.76319 12.8189 3.9998 8.79796V8.73562Z" fill="#E59342"/>
<path d="M10.0243 9.60897C9.4218 11.1675 8.85106 12.3207 7.32908 11.3233C4.76074 9.42195 6.85346 5.71275 6.09247 2.81396C5.71197 3.00098 5.33148 3.21917 5.0144 3.46853C4.12658 4.15427 3.14363 5.02702 2.38264 5.77509C2.28751 6.46083 2.2241 7.14656 2.38264 7.73879C2.69972 8.39335 3.0485 9.04792 4.03145 8.70505C2.76313 12.726 7.17054 14.6896 10.7535 14.5961C10.6584 14.3779 10.5316 14.1909 10.4047 14.0039C9.54863 12.6013 9.73888 11.1675 10.0243 9.60897Z" fill="#EFA14B"/>
<path d="M11.9585 4.21626C12.4975 3.15649 12.9414 1.9097 13.2268 1.06812C12.8146 1.06812 12.3707 1.13045 11.8951 1.22396C10.6902 1.50449 8.05842 1.81619 6.09253 2.78245C6.85352 5.68124 4.7608 9.39045 7.32914 11.2918C8.85112 12.2892 9.42187 11.136 10.0243 9.57747C10.0243 9.57747 10.0243 9.57747 10.0243 9.5463C10.3097 7.95664 11.0707 5.96177 11.9585 4.18509V4.21626Z" fill="#715D4D"/>
<path d="M32.0931 8.89221C32.0296 7.33372 30.9516 4.62195 30.793 4.21674C30.6345 3.81154 30.5077 3.65569 30.5077 3.65569C30.5077 3.65569 31.8394 3.31282 31.8711 2.19071C31.8711 1.0686 31.3321 1.44263 30.5077 1.62965C29.715 1.81667 28.1296 1.7855 27.5588 1.62965C27.3686 1.56731 27.0198 1.44263 26.5125 1.25562C26.2905 1.91018 26.132 2.65826 26.1003 3.18814C26.0685 4.43494 26.3856 6.36746 26.9247 7.55191C27.4637 8.73636 27.3686 10.326 29.1125 10.7312C30.3174 11.0118 31.1418 10.9494 31.9345 10.2325C32.0296 9.79613 32.0931 9.35976 32.0614 8.95455L32.0931 8.89221Z" fill="#715D4D"/>
<path d="M30.4125 10.8241C26.132 15.219 18.5538 16.7463 12.5927 13.9099C12.2756 14.5645 11.6097 14.5645 11.2609 14.5645C11.0707 14.5645 10.8804 14.5645 10.6902 14.5645C11.1024 15.3437 11.4195 16.1853 11.6097 16.9334C12.4024 17.058 13.1 17.3074 14.5903 17.2451C16.3342 17.1827 17.8562 17.4009 18.8391 17.2451C19.8221 17.0892 20.4879 17.3074 20.4879 17.3074C20.4879 17.3074 20.8684 18.3983 21.788 18.2113C22.6758 18.0555 22.1685 16.9957 22.1685 16.9957C22.1685 16.9957 25.2441 16.871 27.971 15.4996C27.971 15.4996 28.2881 16.5593 28.954 16.31C29.6198 16.0606 29.2393 14.845 29.2393 14.845C29.2393 14.845 30.4125 13.5047 30.8564 12.819C31.2052 12.3202 31.7126 11.2605 31.9662 10.1072C31.4589 10.5436 30.9516 10.7617 30.3491 10.7617L30.4125 10.8241Z" fill="#FCE1C8"/>
<path d="M12.6243 13.9416C18.5854 16.7469 26.1319 15.2507 30.4442 10.8558C30.0954 10.8558 29.6832 10.8246 29.2393 10.6999C27.4953 10.2947 27.5904 8.70506 27.0514 7.52061C26.5124 6.33615 26.1953 4.4348 26.227 3.15684C26.227 2.62695 26.4172 1.91004 26.6392 1.22431C25.9099 0.97495 24.8636 0.663253 23.7221 0.538574C23.8806 1.09963 24.1026 1.81654 24.2611 2.65812C24.6416 4.49714 23.944 6.36732 23.627 7.8323C23.3416 9.29728 22.2318 10.3571 21.4708 11.261C20.7415 12.1649 19.4732 11.9155 17.7927 11.7597C16.1122 11.6038 15.7634 10.17 14.4634 7.08423C13.5755 4.99586 14.6219 2.4711 15.4146 1.03729C14.5268 1.1308 13.8926 1.09963 13.2585 1.09963C12.9731 1.94121 12.5292 3.15684 11.9901 4.24778C11.0706 6.02446 10.3413 8.01932 10.056 9.60897C9.77058 11.1986 9.54862 12.6324 10.4364 14.0351C10.5633 14.2221 10.6584 14.4403 10.7852 14.6273C10.9755 14.6273 11.1657 14.6273 11.356 14.6273C11.6731 14.6273 12.3389 14.6273 12.6877 13.9727L12.6243 13.9416Z" fill="#FFECD6"/>
<path d="M16.7147 2.37769C16.7147 2.37769 15.0659 2.90757 14.4 3.06341C13.7341 3.21926 14.2415 5.21413 16.3025 4.99594C18.3635 4.77776 18.1415 3.71798 18.1415 3.71798" fill="#E59342"/>
<path d="M16.8104 2.06592C16.8104 2.06592 15.2563 2.59594 14.6537 2.75183C14.0511 2.90772 14.5268 4.90312 16.4298 4.68487C18.3328 4.46662 18.1425 3.40657 18.1425 3.40657" fill="#EFA14B"/>
<path d="M16.7781 1.97192C16.3976 2.0966 16.0171 2.22128 15.6049 2.34595C15.3195 2.43946 14.6853 2.50181 14.4634 2.72C14.0195 3.15637 14.4634 3.93562 14.8122 4.27848C15.6366 5.12007 18.4586 4.87071 18.2366 3.34339C18.2366 3.21871 18.0147 3.28105 18.0464 3.40572C18.1098 3.77976 17.761 4.12263 17.4439 4.27848C16.5878 4.7772 15.3512 4.71485 14.7488 3.87327C14.5902 3.65508 14.5268 3.40573 14.5268 3.15637C14.5268 2.78233 14.939 2.75116 15.2244 2.65765C15.7634 2.5018 16.3024 2.31478 16.8732 2.12776C17 2.09659 16.9366 1.90958 16.8098 1.94075L16.7781 1.97192Z" fill="#715D4D"/>
<path d="M21.5329 8.29914C21.5329 8.54813 21.343 8.766 21.0897 8.766C20.8364 8.766 20.6464 8.54813 20.6464 8.29914C20.6464 8.05014 20.8364 7.83228 21.0897 7.83228C21.343 7.83228 21.5329 8.05014 21.5329 8.29914Z" fill="black"/>
<path d="M29.6819 7.92536C29.6819 8.17435 29.492 8.39222 29.2387 8.39222C28.9854 8.39222 28.7954 8.17435 28.7954 7.92536C28.7954 7.67637 28.9854 7.4585 29.2387 7.4585C29.492 7.4585 29.6819 7.67637 29.6819 7.92536Z" fill="black"/>
<path d="M24.2928 7.67652C24.2928 7.67652 24.8948 8.45514 25.37 8.39285C25.8769 8.33056 26.0987 7.4585 26.0987 7.4585" stroke="black" stroke-width="0.5" stroke-linecap="round" stroke-linejoin="round"/>
<path d="M25.4027 9.42017V8.39307" stroke="black" stroke-width="0.5" stroke-linecap="round" stroke-linejoin="round"/>
<path d="M20.4879 16.7154C20.5196 17.2766 20.9319 18.5549 21.7249 18.3366C22.7715 18.056 22.4226 16.7777 22.2006 16.0606C22.1689 15.9671 22.0103 15.9983 22.042 16.0918C22.1689 16.7465 22.6129 17.6507 21.8517 18.1184C21.0905 18.586 20.6782 17.1519 20.5831 16.6842C20.5831 16.6218 20.4879 16.653 20.4879 16.6842V16.7154Z" fill="#715D4D"/>
<path d="M27.8442 14.9391C27.8442 15.3756 28.1296 16.7162 28.8274 16.5915C29.8423 16.3733 29.4617 14.9702 29.2714 14.3155C29.2714 14.222 29.0811 14.2532 29.1128 14.3467C29.208 14.9702 29.6203 15.9368 28.9225 16.4044C28.2882 16.8098 27.971 15.3132 27.9076 14.9391C27.9076 14.8767 27.8124 14.9079 27.8124 14.9391H27.8442Z" fill="#715D4D"/>
</svg>
