<svg width="215" height="24" viewBox="0 0 215 24" fill="none" xmlns="http://www.w3.org/2000/svg">
<path d="M0 16.375V7.04688H1.23734V10.875H6.09274V7.04688H7.33008V16.375H6.09274V11.9844H1.23734V16.375H0Z" fill="#DDE9D8"/>
<path d="M10.6192 11.8281C10.6192 10.2812 11.0421 9.06249 11.8722 8.18748C12.7024 7.31248 13.7831 6.875 15.0987 6.875C16.4144 6.875 16.7433 7.07811 17.4325 7.48436C18.1216 7.89061 18.6541 8.46874 19.0144 9.20311C19.3746 9.93749 19.5626 10.7656 19.5626 11.7031C19.5626 12.6406 19.3746 13.5 18.9831 14.2344C18.6071 14.9844 18.059 15.5469 17.3541 15.9219C16.6493 16.3125 15.8975 16.5 15.0831 16.5C14.2686 16.5 13.4228 16.2813 12.718 15.8594C12.0289 15.4375 11.4963 14.8594 11.1361 14.125C10.7759 13.3906 10.6036 12.6094 10.6036 11.7969L10.6192 11.8281ZM11.8879 11.8437C11.8879 12.9687 12.1855 13.8594 12.7963 14.5C13.4072 15.1406 14.159 15.4688 15.0831 15.4688C16.0072 15.4688 16.7746 15.1406 17.3855 14.4844C17.9806 13.8281 18.2939 12.9062 18.2939 11.7031C18.2939 10.5 18.1686 10.2812 17.9023 9.71874C17.6517 9.15624 17.2758 8.71874 16.7746 8.40624C16.2734 8.09374 15.7252 7.93749 15.1144 7.93749C14.2373 7.93749 13.4855 8.23437 12.859 8.84375C12.2325 9.45312 11.9192 10.4531 11.9192 11.8437H11.8879Z" fill="#DDE9D8"/>
<path d="M22.3348 13.3755L23.4939 13.2661C23.5565 13.7349 23.6818 14.1099 23.8854 14.4067C24.089 14.7036 24.4023 14.9536 24.8252 15.1255C25.2481 15.313 25.7336 15.4067 26.2661 15.4067C26.7987 15.4067 27.1589 15.3442 27.5191 15.2036C27.8794 15.063 28.1456 14.8755 28.3179 14.6255C28.4902 14.3755 28.5842 14.1099 28.5842 13.8286C28.5842 13.5474 28.5059 13.2817 28.3336 13.063C28.1613 12.8442 27.8794 12.6567 27.4878 12.5161C27.2372 12.4224 26.689 12.2661 25.8276 12.063C24.9661 11.8599 24.371 11.6567 24.0264 11.4849C23.5878 11.2505 23.2433 10.9692 23.024 10.6099C22.8047 10.2661 22.6951 9.87549 22.6951 9.45362C22.6951 9.03174 22.836 8.54736 23.1023 8.14111C23.3686 7.73486 23.7601 7.42236 24.277 7.20361C24.7939 6.98486 25.3577 6.89111 25.9842 6.89111C26.6107 6.89111 27.2842 7.00048 27.8167 7.21923C28.3493 7.43798 28.7565 7.76612 29.0384 8.20362C29.3203 8.64112 29.477 9.12548 29.4926 9.67235L28.3023 9.76612C28.2396 9.17237 28.0204 8.73487 27.6601 8.43799C27.2999 8.14112 26.7517 7.98486 26.0312 7.98486C25.3107 7.98486 24.7312 8.12548 24.4023 8.39111C24.0577 8.67236 23.8854 9.00049 23.8854 9.37549C23.8854 9.75049 24.0107 9.98486 24.2457 10.2036C24.4806 10.4224 25.1071 10.6411 26.1095 10.8755C27.1119 11.1099 27.8011 11.2974 28.177 11.4692C28.7252 11.7192 29.1167 12.0317 29.383 12.4224C29.6493 12.813 29.7746 13.2505 29.7746 13.7505C29.7746 14.2505 29.6336 14.7192 29.3517 15.1567C29.0697 15.5942 28.6625 15.938 28.13 16.188C27.5975 16.438 27.0023 16.5474 26.3288 16.5474C25.6553 16.5474 24.7782 16.4224 24.1987 16.1724C23.6192 15.9224 23.1806 15.563 22.8517 15.063C22.5228 14.563 22.3505 14.0161 22.3348 13.3911V13.3755Z" fill="#DDE9D8"/>
<path d="M33.0637 16.375V7.04688H36.5877C37.2142 7.04688 37.6841 7.07812 38.013 7.14062C38.4672 7.21875 38.8588 7.35938 39.1721 7.57813C39.4853 7.79688 39.7359 8.09374 39.9239 8.48437C40.1118 8.87499 40.2058 9.29686 40.2058 9.74999C40.2058 10.5469 39.9552 11.2187 39.454 11.7656C38.9528 12.3125 38.0287 12.5938 36.713 12.5938H34.3167V16.3906H33.0793L33.0637 16.375ZM34.301 11.4844H36.713C37.5118 11.4844 38.0757 11.3437 38.4203 11.0469C38.7492 10.75 38.9215 10.3281 38.9215 9.79687C38.9215 9.26562 38.8275 9.07812 38.6239 8.79687C38.4203 8.51562 38.1697 8.32812 37.8407 8.24999C37.6371 8.18749 37.2456 8.17187 36.6817 8.17187H34.2853V11.5L34.301 11.4844Z" fill="#DDE9D8"/>
<path d="M43.5889 16.375V7.04688H44.8259V16.375H43.5889Z" fill="#DDE9D8"/>
<path d="M50.9973 16.375V8.15625H47.9118V7.0625H55.3202V8.15625H52.2347V16.375H50.9973Z" fill="#DDE9D8"/>
<path d="M56.1973 16.375L59.784 7.04688H61.1153L64.937 16.375H63.5274L62.431 13.5469H58.531L57.4973 16.375H56.1816H56.1973ZM58.8913 12.5469H62.0551L61.084 9.96874C60.7864 9.18749 60.5672 8.54686 60.4262 8.03124C60.3009 8.62499 60.1443 9.21874 59.925 9.81249L58.8913 12.5469Z" fill="#DDE9D8"/>
<path d="M67.49 16.375V7.04688H68.7273V15.2656H73.3321V16.3594H67.49V16.375Z" fill="#DDE9D8"/>
<path d="M83.8261 16.375L80.208 7.04688H81.5393L83.967 13.8125C84.155 14.3594 84.3273 14.8594 84.4526 15.3437C84.5935 14.8281 84.7658 14.3281 84.9538 13.8125L87.4754 7.04688H88.7441L85.0791 16.375H83.8104H83.8261Z" fill="#DDE9D8"/>
<path d="M91.5007 16.375V7.04688H98.2513V8.14063H92.7381V11H97.9067V12.0937H92.7381V15.2656H98.4706V16.3594H91.5007V16.375Z" fill="#DDE9D8"/>
<path d="M104.156 16.375V8.15625H101.071V7.0625H108.479V8.15625H105.393V16.375H104.156Z" fill="#DDE9D8"/>
<path d="M111.392 16.375V7.04688H118.143V8.14063H112.629V11H117.798V12.0937H112.629V15.2656H118.362V16.3594H111.392V16.375Z" fill="#DDE9D8"/>
<path d="M121.698 16.375V7.04688H125.849C126.679 7.04688 127.321 7.125 127.744 7.29687C128.182 7.46875 128.527 7.76561 128.778 8.18749C129.028 8.60936 129.169 9.07811 129.169 9.59374C129.169 10.1094 128.95 10.8125 128.527 11.2656C128.104 11.7188 127.431 12 126.538 12.125C126.867 12.2813 127.117 12.4375 127.29 12.5938C127.65 12.9219 127.994 13.3438 128.323 13.8281L129.952 16.3594H128.402L127.164 14.4219C126.804 13.8594 126.507 13.4375 126.272 13.1406C126.037 12.8438 125.833 12.6406 125.645 12.5156C125.457 12.3906 125.269 12.3125 125.081 12.2656C124.94 12.2344 124.705 12.2187 124.392 12.2187H122.951V16.3594H121.714L121.698 16.375ZM122.935 11.1562H125.598C126.162 11.1562 126.601 11.0937 126.929 10.9844C127.243 10.875 127.493 10.6875 127.65 10.4219C127.822 10.1719 127.9 9.89062 127.9 9.57812C127.9 9.14062 127.744 8.78124 127.415 8.48437C127.102 8.20312 126.585 8.0625 125.896 8.0625H122.935V11.1406V11.1562Z" fill="#DDE9D8"/>
<path d="M132.928 16.375V7.04688H134.165V16.375H132.928Z" fill="#DDE9D8"/>
<path d="M137.94 16.375V7.04688H139.209L144.111 14.3594V7.04688H145.302V16.375H144.033L139.131 9.04686V16.375H137.94Z" fill="#DDE9D8"/>
<path d="M147.949 16.375L151.535 7.04687H152.867L156.688 16.375H155.279L154.182 13.5469H150.282L149.249 16.375H147.933H147.949ZM150.643 12.5469H153.806L152.835 9.96874C152.538 9.18749 152.318 8.54686 152.178 8.03124C152.052 8.62499 151.896 9.21874 151.676 9.81249L150.643 12.5469ZM151.426 6.46874L152.272 4.6875H153.775L152.365 6.46874H151.41H151.426Z" fill="#DDE9D8"/>
<path d="M159.32 16.375V7.04688H163.47C164.3 7.04688 164.943 7.125 165.365 7.29687C165.788 7.46875 166.149 7.76561 166.399 8.18749C166.665 8.60936 166.791 9.07811 166.791 9.59374C166.791 10.1094 166.571 10.8125 166.149 11.2656C165.726 11.7188 165.052 12 164.159 12.125C164.488 12.2813 164.739 12.4375 164.911 12.5938C165.271 12.9219 165.616 13.3438 165.945 13.8281L167.574 16.3594H166.023L164.786 14.4219C164.426 13.8594 164.128 13.4375 163.893 13.1406C163.658 12.8438 163.455 12.6406 163.267 12.5156C163.079 12.3906 162.891 12.3125 162.703 12.2656C162.562 12.2344 162.327 12.2187 162.014 12.2187H160.573V16.3594H159.335L159.32 16.375ZM160.557 11.1562H163.22C163.783 11.1562 164.222 11.0937 164.551 10.9844C164.864 10.875 165.115 10.6875 165.271 10.4219C165.444 10.1719 165.522 9.89062 165.522 9.57812C165.522 9.14062 165.365 8.78124 165.036 8.48437C164.723 8.20312 164.206 8.0625 163.517 8.0625H160.557V11.1406V11.1562Z" fill="#DDE9D8"/>
<path d="M170.534 16.375V7.04688H171.771V16.375H170.534Z" fill="#DDE9D8"/>
<path d="M175.186 11.8281C175.186 10.2812 175.609 9.06249 176.439 8.18748C177.269 7.31248 178.35 6.875 179.665 6.875C180.981 6.875 181.31 7.07811 181.999 7.48436C182.688 7.89061 183.221 8.46874 183.581 9.20311C183.941 9.93749 184.129 10.7656 184.129 11.7031C184.129 12.6406 183.941 13.5 183.55 14.2344C183.174 14.9844 182.626 15.5469 181.921 15.9219C181.216 16.3125 180.464 16.5 179.65 16.5C178.835 16.5 177.989 16.2813 177.285 15.8594C176.58 15.4375 176.063 14.8594 175.703 14.125C175.342 13.3906 175.17 12.6094 175.17 11.7969L175.186 11.8281ZM176.454 11.8437C176.454 12.9687 176.752 13.8594 177.363 14.5C177.974 15.1406 178.726 15.4688 179.65 15.4688C180.574 15.4688 181.341 15.1406 181.952 14.4844C182.547 13.8281 182.86 12.9062 182.86 11.7031C182.86 10.5 182.735 10.2812 182.469 9.71874C182.218 9.15624 181.842 8.71874 181.341 8.40624C180.84 8.09374 180.292 7.93749 179.681 7.93749C178.804 7.93749 178.052 8.23437 177.426 8.84375C176.799 9.4375 176.486 10.4531 176.486 11.8437H176.454Z" fill="#DDE9D8"/>
<path d="M200.606 16.375H195.813V16.25C197.286 14.5 198.178 13.3281 198.492 12.7344C198.805 12.125 198.961 11.5469 198.961 10.9688C198.961 10.3906 198.836 10.2031 198.57 9.92189C198.304 9.64064 197.99 9.5 197.614 9.5C197.004 9.5 196.518 9.8125 196.173 10.4219L195.954 10.3438C196.173 9.57813 196.502 9.01563 196.941 8.64063C197.38 8.26563 197.896 8.09375 198.46 8.09375C199.024 8.09375 199.243 8.18751 199.588 8.37501C199.933 8.56251 200.199 8.82813 200.387 9.15626C200.575 9.48438 200.669 9.79688 200.669 10.0938C200.669 10.625 200.528 11.1719 200.23 11.7188C199.823 12.4531 198.946 13.4844 197.583 14.8125H199.337C199.776 14.8125 200.058 14.7969 200.183 14.7656C200.308 14.7344 200.418 14.6719 200.512 14.5781C200.59 14.5 200.7 14.3125 200.841 14.0313H201.06L200.606 16.375Z" fill="#DDE9D8"/>
<path d="M201.969 13.312L205.837 8.07764H206.573V13.312H207.325V14.5464H206.573V16.3745H204.929V14.5464H201.984V13.312H201.969ZM202.548 13.312H204.913V10.1089L202.548 13.312Z" fill="#DDE9D8"/>
<path d="M210.52 8.25V11.4844C210.834 11.1563 211.116 10.9375 211.366 10.7969C211.617 10.6563 211.883 10.5937 212.165 10.5937C212.447 10.5937 212.823 10.6875 213.073 10.8906C213.324 11.0938 213.496 11.3281 213.575 11.5938C213.653 11.8594 213.7 12.3125 213.7 12.9531V15.1406C213.7 15.5625 213.747 15.8281 213.825 15.9375C213.904 16.0469 214.06 16.1094 214.311 16.1406V16.3594H211.46V16.1406C211.664 16.1094 211.805 16.0312 211.914 15.9062C211.993 15.7969 212.024 15.5469 212.024 15.1406V12.6406C212.024 12.1719 212.008 11.8906 211.977 11.7656C211.946 11.6406 211.883 11.5625 211.789 11.4844C211.695 11.4219 211.601 11.3906 211.492 11.3906C211.335 11.3906 211.178 11.4531 211.022 11.5625C210.865 11.6719 210.708 11.8594 210.536 12.1406V15.1406C210.536 15.5469 210.567 15.7969 210.63 15.8906C210.708 16.0313 210.865 16.1094 211.1 16.1406V16.3594H208.249V16.1406C208.484 16.1094 208.657 16.0469 208.751 15.9062C208.813 15.8125 208.86 15.5625 208.86 15.1406V9.45313C208.86 9.03126 208.829 8.76562 208.751 8.65624C208.672 8.54687 208.516 8.48438 208.265 8.45313V8.23438H210.552L210.52 8.25Z" fill="#DDE9D8"/>
<path d="M212.275 17.5156L212.431 17.6563C212.541 17.75 212.619 17.875 212.666 18.0156C212.698 18.1094 212.698 18.2031 212.666 18.2813C212.635 18.375 212.51 18.5469 212.306 18.7656C209.847 21.5312 206.135 23.125 202.125 23.125C195.046 23.125 189.282 18.125 189.282 11.9844C189.282 5.84374 195.046 0.843735 202.125 0.843735C209.205 0.843735 210.614 2.79686 212.995 6.06249C213.214 6.32811 213.34 6.53125 213.34 6.64063C213.34 6.82813 213.261 6.99999 213.074 7.15624L212.901 7.29687L213.011 7.42188L215 5.76561L214.89 5.64062L214.734 5.78125C214.624 5.875 214.499 5.93749 214.358 5.96874C214.248 5.98437 214.17 5.96875 214.092 5.9375C213.998 5.89063 213.857 5.74999 213.669 5.51561C211.131 2.06249 206.824 0 202.141 0C194.592 0 188.436 5.37499 188.436 12C188.436 18.625 194.576 24 202.141 24C209.706 24 210.364 22.2969 212.98 19.3437C213.214 19.0937 213.387 18.9531 213.512 18.9219C213.7 18.8906 213.872 18.9531 214.06 19.125L214.217 19.2656L214.327 19.1406L212.4 17.4062L212.29 17.5312L212.275 17.5156Z" fill="#DDE9D8"/>
</svg>
