<svg width="239" height="234" viewBox="0 0 239 234" fill="none" xmlns="http://www.w3.org/2000/svg">
<path d="M195.191 139.864C205.803 155.466 201.392 175.249 193.975 184.977C187.334 194.161 178.199 198.145 166.942 197.131C160.797 196.465 154.566 195.512 148.336 194.559C142.478 193.808 136.706 193.343 130.875 194.774C126.854 195.977 123.378 197.956 119.901 199.934C115.074 202.63 110.333 205.612 105.134 208.106C92.2344 214.155 75.8398 210.609 66.8894 199.516C58.4839 189.2 55.6222 177.538 58.677 164.733C62.7411 146.932 71.4547 132.121 85.1054 120.215C102.176 105.095 122.168 99.7418 144.592 104.614C159.666 107.929 172.237 115.435 183.572 126.127C187.905 130.151 191.835 134.922 194.989 140.237L195.191 139.864Z" fill="#24341D"/>
<path d="M117.189 79.9478C113.949 74.3452 111.858 68.399 111.777 61.8514C111.468 53.4944 112.394 45.081 115.014 37.0998C115.965 33.9992 117.575 31.0139 119.645 28.5172C123.095 24.3561 127.519 22.4072 132.831 22.3829C138.517 22.56 143.484 24.5169 148.047 27.2202C154.477 30.9301 159.814 36.2186 163.886 42.5111C169.766 51.7055 170.217 61.5846 166.676 71.7188C164.086 78.7524 159.917 84.6933 153.624 88.7658C142.878 95.7351 129.469 93.7997 120.948 84.1436C119.571 82.6779 118.481 81.1263 117.391 79.5746L117.189 79.9478Z" fill="#24341D"/>
<path d="M93.4411 47.6274C97.8572 55.0689 101.269 61.2459 102.671 68.0243C104.472 77.1866 103.632 85.8873 98.1692 93.7799C92.1023 102.792 81.0718 106.717 70.7362 103.549C62.841 101.217 56.7283 96.4732 51.9095 89.778C43.9067 78.7151 44.0889 66.769 49.584 54.7985C52.3463 48.3395 56.6011 42.6858 62.2332 38.4978C66.8022 34.9407 71.5137 32.9057 77.4573 33.9445C81.7928 34.8384 85.4087 37.5122 88.5362 40.645C90.8315 43.0879 92.6386 45.9898 93.9298 47.1682L93.4411 47.6274Z" fill="#24341D"/>
<path d="M55.8266 107.068C58.6937 112.469 61.6762 117.21 62.6481 122.552C63.6495 126.947 63.416 131.398 61.9477 135.905C58.3774 146.987 46.7429 152.031 36.3804 146.681C24.5254 140.526 17.5293 127.597 24.176 112.153C26.6215 106.727 29.8991 101.992 34.9272 98.9232C39.9553 95.8547 45.3539 96.1177 49.6868 100.142C50.519 100.832 51.3512 101.522 51.8962 102.297C53.2734 103.763 54.4494 105.602 55.4535 106.866L55.8266 107.068Z" fill="#24341D"/>
<path d="M200.011 113.078C192.081 117.953 181.887 116.308 176.065 108.348C172.25 102.918 170.244 97.2588 170.738 90.5394C170.915 84.8535 171.379 79.0817 173.538 73.7421C174.775 70.5556 176.673 67.4844 179.661 65.9649C182.85 64.0722 186.268 63.989 189.454 65.2265C200.163 68.5954 207.624 75.7522 210.601 86.7534C213.063 96.0311 207.855 107.916 200.011 113.078Z" fill="#24341D"/>
</svg>
