<svg width="134" height="165" viewBox="0 0 134 165" fill="none" xmlns="http://www.w3.org/2000/svg">
<path d="M0.253371 85.2343C-8.62863 93.3529 -8.80464 106.277 -5.6348 113.406C-2.86611 120.082 2.21559 123.899 9.34935 124.927C13.2602 125.419 17.2668 125.745 21.2732 126.071C25.0185 126.467 28.6682 127.029 32.0754 128.775C34.3936 130.114 36.2593 131.853 38.1251 133.593C40.7232 135.976 43.2257 138.525 46.0849 140.838C53.1981 146.49 63.8929 146.704 71.0797 141.139C77.8141 135.975 81.3068 129.16 81.2968 120.765C81.396 109.121 78.17 98.6485 71.453 89.251C63.087 77.356 51.4706 71.0909 36.8394 70.8123C26.9982 70.6499 18.0924 73.456 9.48533 78.4217C6.20432 80.2806 3.06341 82.6619 0.323517 85.4956L0.253371 85.2343Z" fill="#DEE2E6"/>
<path d="M57.4754 59.5406C60.3109 56.5413 62.484 53.1597 63.4981 49.1089C64.9202 43.969 65.5843 38.6122 65.1338 33.2742C65.0007 31.2104 64.4408 29.1209 63.5241 27.267C61.9964 24.1772 59.5384 22.3165 56.2455 21.5193C52.6914 20.792 49.3216 21.275 46.0918 22.2804C41.5562 23.6357 37.466 26.1313 34.0126 29.4361C29.0108 34.2755 27.2763 40.3389 27.9812 47.1484C28.5529 51.894 30.2649 56.1941 33.5697 59.6475C39.2114 65.5541 47.8166 66.3275 54.5255 61.5906C55.5958 60.8839 56.5007 60.0817 57.4054 59.2794L57.4754 59.5406Z" fill="#DEE2E6"/>
<path d="M76.9683 42.9829C73.1325 46.9501 70.1058 50.2804 68.2382 54.28C65.7714 59.6999 65.0116 65.2222 67.2392 70.9238C69.6767 77.409 75.9432 81.4685 82.8226 81.0248C88.065 80.7398 92.5562 78.6966 96.532 75.2518C103.127 69.5658 104.772 62.1265 103.125 53.8899C102.362 49.4754 100.555 45.3409 97.6766 41.9131C95.3653 39.0332 92.7415 37.0768 88.9007 36.8463C86.0789 36.7626 83.4416 37.8893 81.0398 39.3726C79.2559 40.5505 77.7074 42.085 76.7326 42.6261L76.9683 42.9829Z" fill="#DEE2E6"/>
<path d="M91.5567 85.4044C88.9824 88.3337 86.4338 90.8362 85.0442 94.0079C83.7758 96.5872 83.2653 99.3834 83.5127 102.396C84.0964 109.798 90.5728 114.641 97.7902 112.847C106.052 110.773 112.297 103.781 110.447 93.2198C109.728 89.4932 108.392 86.0723 105.724 83.428C103.056 80.7837 99.6671 80.1521 96.3861 82.011C95.7682 82.3165 95.1502 82.6221 94.6978 83.0232C93.6275 83.7299 92.627 84.6977 91.8178 85.3344L91.5567 85.4044Z" fill="#DEE2E6"/>
<path d="M1.20769 67.9038C5.41037 72.0965 11.9775 72.5764 16.7625 68.4949C19.9292 65.6869 22.0067 62.4708 22.6896 58.2288C23.4169 54.6747 23.9786 51.0251 23.4256 47.3941C23.1269 45.2347 22.4014 43.0496 20.7712 41.6668C19.071 40.0229 16.9628 39.4681 14.8034 39.7668C7.66279 40.2805 1.9798 43.6227 -1.48738 50.0104C-4.38096 55.4046 -2.89939 63.5456 1.20769 67.9038Z" fill="#DEE2E6"/>
</svg>
