<svg width="297" height="263" viewBox="0 0 297 263" fill="none" xmlns="http://www.w3.org/2000/svg">
<path d="M234.384 81.1325C247.529 85.11 256.719 93.742 260.502 107.133L260.501 107.133C262.05 112.725 261.297 119.166 258.948 125.027C256.602 130.882 252.684 136.105 247.97 139.287L247.971 139.288C238.439 145.292 226.099 143.437 218.948 133.885C214.211 127.294 211.704 120.434 212.215 112.255L212.216 112.243L212.216 112.233L212.248 110.915C212.429 104.323 213.015 97.7247 215.419 91.5866L215.421 91.5799L215.707 90.8487C217.18 87.2088 219.362 83.8634 222.655 82.1431L222.669 82.1356L222.684 82.127L223.038 81.9176C226.713 79.8219 230.643 79.7274 234.353 81.1217L234.369 81.1269L234.384 81.1325Z" stroke="#72A45C"/>
<path d="M69.4033 134.903C73.057 141.608 76.6666 146.858 77.922 153.354L77.9245 153.365L77.9268 153.376C79.2029 158.707 78.9807 164.124 77.2507 169.639L77.2501 169.64C73.0711 183.114 59.0732 189.354 46.4668 183.02C39.1818 179.338 33.3804 173.582 30.3835 166.401C27.3897 159.229 27.1771 150.593 31.1373 141.107C34.0672 134.415 38.0038 128.615 44.0629 124.826C47.0794 122.94 50.1927 122.073 53.1915 122.261C56.1872 122.448 59.1068 123.688 61.7386 126.079C62.6809 126.935 63.6672 127.849 64.4771 128.692C66.1963 130.482 68.4457 133.146 69.4033 134.903Z" stroke="#72A45C"/>
<path d="M115.66 59.8521C121.206 68.9694 124.884 77.0858 126.694 85.3781L126.693 85.3784C129.026 96.596 128.104 107.224 121.548 116.922L121.543 116.927C114.28 127.975 100.913 132.896 88.2955 129.18L88.29 129.178C78.6115 126.434 71.0734 120.721 65.0776 112.58L65.0773 112.579C55.1571 99.1772 55.2017 84.5941 61.7818 69.8366L61.7828 69.8363L61.7873 69.8247L62.1023 69.0814C65.4096 61.4356 70.4365 54.7292 77.0577 49.6925L77.0658 49.6858L77.5862 49.2775C82.9583 45.1245 88.4851 42.8153 95.4322 43.9467C100.341 44.9029 104.536 47.7581 108.241 51.2464L108.976 51.9525C111.847 54.9434 114.648 58.1899 115.66 59.8521Z" stroke="#72A45C"/>
<path d="M202.174 53.1391C209.475 64.2859 210.167 76.3377 205.965 88.8022C202.98 97.1853 198.177 104.303 190.952 109.332L190.246 109.812C177.255 118.44 160.914 116.268 150.404 104.618L150.398 104.612L150.393 104.606C148.657 102.798 147.214 101.393 145.718 99.5025C140.842 93.3412 139.072 85.5273 138.885 77.4859L138.884 77.4739L138.843 76.509C138.458 66.5403 139.517 56.5192 142.532 46.9834L142.535 46.9732C143.65 43.1877 145.572 39.5319 148.057 36.4664C152.167 31.3977 157.465 28.9878 163.89 28.884C170.815 29.0239 176.903 31.339 182.54 34.5948L182.545 34.5983C190.473 39.0581 197.09 45.4698 202.174 53.1391Z" stroke="#72A45C"/>
<path d="M242.216 173.193C255.407 192.137 250.279 216.432 241.332 228.437L241.324 228.448C233.339 239.749 222.267 244.727 208.501 243.64C200.902 242.901 193.191 241.809 185.467 240.714L185.467 240.713L185.455 240.712C178.191 239.86 170.964 239.353 163.674 241.226L163.65 241.234C158.63 242.795 154.31 245.319 150.044 247.809L150.043 247.809C144.077 251.227 138.293 254.957 131.911 258.104C116.236 265.663 96.1572 261.544 85.0854 248.126L85.0839 248.124C74.6405 235.589 70.9873 221.358 74.5574 205.633L74.5578 205.628C79.2491 183.993 89.5234 165.878 105.722 151.159L106.497 150.461L106.5 150.458L107.478 149.584C128.065 131.417 152.23 124.869 179.449 130.472L179.45 130.47C198.037 134.346 213.613 143.411 227.727 156.437L227.73 156.44C233.129 161.346 238.261 166.692 242.2 173.166L242.208 173.18L242.216 173.193Z" stroke="#72A45C"/>
</svg>
