<svg width="152" height="152" viewBox="0 0 152 152" fill="none" xmlns="http://www.w3.org/2000/svg">
<path d="M75.9998 133L66.8165 124.767C56.1554 115.161 47.3415 106.875 40.3748 99.9082C33.4082 92.9415 27.8665 86.6874 23.7498 81.1457C19.6332 75.604 16.7568 70.511 15.1207 65.8665C13.4846 61.2221 12.6665 56.4721 12.6665 51.6165C12.6665 41.6943 15.9915 33.4082 22.6415 26.7582C29.2915 20.1082 37.5776 16.7832 47.4998 16.7832C52.9887 16.7832 58.2137 17.9443 63.1748 20.2665C68.1359 22.5888 72.4109 25.861 75.9998 30.0832C79.5887 25.861 83.8637 22.5888 88.8248 20.2665C93.7859 17.9443 99.0109 16.7832 104.5 16.7832C114.422 16.7832 122.708 20.1082 129.358 26.7582C136.008 33.4082 139.333 41.6943 139.333 51.6165C139.333 56.4721 138.515 61.2221 136.879 65.8665C135.243 70.511 132.367 75.604 128.25 81.1457C124.133 86.6874 118.591 92.9415 111.625 99.9082C104.658 106.875 95.8443 115.161 85.1832 124.767L75.9998 133ZM75.9998 115.9C86.1332 106.822 94.4721 99.0374 101.017 92.5457C107.561 86.054 112.733 80.4068 116.533 75.604C120.333 70.8013 122.972 66.5263 124.45 62.779C125.928 59.0318 126.667 55.311 126.667 51.6165C126.667 45.2832 124.555 40.0054 120.333 35.7832C116.111 31.561 110.833 29.4499 104.5 29.4499C99.5387 29.4499 94.9471 30.8485 90.7248 33.6457C86.5026 36.4429 83.5998 40.0054 82.0165 44.3332H69.9832C68.3998 40.0054 65.4971 36.4429 61.2748 33.6457C57.0526 30.8485 52.4609 29.4499 47.4998 29.4499C41.1665 29.4499 35.8887 31.561 31.6665 35.7832C27.4443 40.0054 25.3332 45.2832 25.3332 51.6165C25.3332 55.311 26.0721 59.0318 27.5498 62.779C29.0276 66.5263 31.6665 70.8013 35.4665 75.604C39.2665 80.4068 44.4387 86.054 50.9832 92.5457C57.5276 99.0374 65.8665 106.822 75.9998 115.9Z" fill="#24341D"/>
</svg>
