<svg width="68" height="81" viewBox="0 0 68 81" fill="none" xmlns="http://www.w3.org/2000/svg">
<path d="M3.83594 80.2422V40.7422H12.2734V72.2422H41.8047V52.9422L52.8789 42.4422C54.918 40.5089 56.5 38.3422 57.625 35.9422C58.75 33.5422 59.3125 30.9755 59.3125 28.2422C59.3125 25.5755 58.7324 23.0422 57.5723 20.6422C56.4121 18.2422 54.8477 16.0755 52.8789 14.1422L50.2422 11.5422L36.8477 24.2422H19.9727L15.4375 28.5422L9.42578 22.9422L16.4922 16.2422H33.3672L50.2422 0.242188L58.8906 8.44219C61.7031 11.1089 63.8828 14.1255 65.4297 17.4922C66.9766 20.8589 67.75 24.4422 67.75 28.2422C67.75 32.0422 66.9766 35.6255 65.4297 38.9922C63.8828 42.3589 61.7031 45.3755 58.8906 48.0422L50.2422 56.2422V80.2422H3.83594ZM24.6133 61.5422L2.67578 40.7422C1.90234 40.0089 1.30469 39.1422 0.882812 38.1422C0.460938 37.1422 0.25 36.1089 0.25 35.0422C0.25 33.9755 0.460938 32.9589 0.882812 31.9922C1.30469 31.0255 1.90234 30.1755 2.67578 29.4422L11.5352 20.9422L24.6133 33.2422C26.582 35.1089 28.1113 37.2589 29.2012 39.6922C30.291 42.1255 30.8359 44.6755 30.8359 47.3422C30.8359 50.0089 30.3086 52.5589 29.2539 54.9922C28.1992 57.4255 26.6523 59.6089 24.6133 61.5422Z" fill="#DDE9D8"/>
</svg>
