<svg width="34" height="31" viewBox="0 0 34 31" fill="none" xmlns="http://www.w3.org/2000/svg">
<path d="M17 30.9998L14.5834 28.8332C11.7778 26.3054 9.45837 24.1248 7.62504 22.2915C5.79171 20.4582 4.33337 18.8123 3.25004 17.354C2.16671 15.8957 1.40976 14.5554 0.979207 13.3332C0.548652 12.1109 0.333374 10.8609 0.333374 9.58317C0.333374 6.97206 1.20837 4.7915 2.95837 3.0415C4.70837 1.2915 6.88893 0.416504 9.50004 0.416504C10.9445 0.416504 12.3195 0.722059 13.625 1.33317C14.9306 1.94428 16.0556 2.80539 17 3.9165C17.9445 2.80539 19.0695 1.94428 20.375 1.33317C21.6806 0.722059 23.0556 0.416504 24.5 0.416504C27.1112 0.416504 29.2917 1.2915 31.0417 3.0415C32.7917 4.7915 33.6667 6.97206 33.6667 9.58317C33.6667 10.8609 33.4514 12.1109 33.0209 13.3332C32.5903 14.5554 31.8334 15.8957 30.75 17.354C29.6667 18.8123 28.2084 20.4582 26.375 22.2915C24.5417 24.1248 22.2223 26.3054 19.4167 28.8332L17 30.9998ZM17 26.4998C19.6667 24.1109 21.8612 22.0623 23.5834 20.354C25.3056 18.6457 26.6667 17.1596 27.6667 15.8957C28.6667 14.6318 29.3612 13.5068 29.75 12.5207C30.1389 11.5346 30.3334 10.5554 30.3334 9.58317C30.3334 7.9165 29.7778 6.52762 28.6667 5.4165C27.5556 4.30539 26.1667 3.74984 24.5 3.74984C23.1945 3.74984 21.9862 4.11789 20.875 4.854C19.7639 5.59012 19 6.52762 18.5834 7.6665H15.4167C15 6.52762 14.2362 5.59012 13.125 4.854C12.0139 4.11789 10.8056 3.74984 9.50004 3.74984C7.83337 3.74984 6.44448 4.30539 5.33337 5.4165C4.22226 6.52762 3.66671 7.9165 3.66671 9.58317C3.66671 10.5554 3.86115 11.5346 4.25004 12.5207C4.63893 13.5068 5.33337 14.6318 6.33337 15.8957C7.33337 17.1596 8.69448 18.6457 10.4167 20.354C12.1389 22.0623 14.3334 24.1109 17 26.4998Z" fill="#72A45C"/>
</svg>
