<svg width="161" height="66" viewBox="0 0 161 66" fill="none" xmlns="http://www.w3.org/2000/svg">
<g opacity="0.22" filter="url(#filter0_f_8150_8784)">
<ellipse cx="80.5" cy="43.5" rx="64.5" ry="6.5" fill="#24341D"/>
</g>
<path d="M34.5238 23.4817C37.1311 29.7774 37.8306 32.7027 41.2011 33.0206C44.5715 33.3386 47.1152 33.8473 48.5778 32.0032C50.0405 30.159 52.3298 27.9968 52.9022 25.0079C53.4745 22.0191 54.8735 18.2035 54.174 14.4515C53.8561 12.7345 53.4109 11.2083 53.0929 10.1272C52.2026 10 51.2487 10 50.3584 10C50.3584 10 41.837 10.318 37.8942 10.8903C37.3855 10.9539 36.9403 11.0175 36.5588 11.0175C34.969 14.0064 32.8704 19.0938 34.651 23.3545L34.5238 23.4817Z" fill="#EFA14B"/>
<path d="M13.5385 26.9157C11.5672 27.5516 10.8676 26.2798 10.2317 24.9443C9.91374 23.7361 10.0409 22.337 10.2317 20.938C8.32392 22.9094 7.24284 24.5628 8.19673 24.7536C8.19673 24.7536 6.35254 27.7424 7.24284 28.9507C7.37003 29.1415 7.56081 29.2687 7.81518 29.3958C7.81518 29.3958 6.54332 33.6566 7.75159 34.1653C8.45111 34.4833 8.64189 34.0381 8.70548 33.6566C8.70548 33.3386 8.70548 33.1478 8.70548 33.1478C8.70548 33.1478 8.70548 33.4022 8.70548 33.6566C8.70548 34.8012 8.70548 37.4721 9.72297 37.7901C10.3589 37.9809 10.4861 37.7265 10.4861 37.4086C10.3589 36.9634 10.2953 36.6454 10.2953 36.6454C10.2953 36.6454 10.4861 37.027 10.4861 37.4086C10.804 38.6804 11.44 41.0334 12.0759 40.6518C12.6482 40.2702 12.7754 39.7615 12.7754 39.5071C12.7754 40.2702 13.5385 42.178 15.8915 43.5771C19.0711 45.4849 20.5974 44.6581 22.2508 43.9586C22.2508 43.9586 26.0028 43.5771 28.0377 43.7678C28.3557 43.7678 28.6101 43.8314 28.8644 43.895C28.4829 42.3688 27.7834 40.6518 27.0202 39.062C19.8978 39.2528 11.0584 35.2464 13.5385 27.0429V26.9157Z" fill="#E59342"/>
<path d="M25.6211 28.6963C24.4129 31.8759 23.2682 34.2288 20.2157 32.1939C15.0647 28.3147 19.2618 20.7471 17.7356 14.833C16.9725 15.2146 16.2094 15.6597 15.5734 16.1685C13.7928 17.5675 11.8215 19.3481 10.2952 20.8743C10.1045 22.2734 9.97727 23.6724 10.2952 24.8807C10.9312 26.2161 11.6307 27.5516 13.6021 26.8521C11.0583 35.0556 19.8978 39.0619 27.0838 38.8711C26.893 38.426 26.6386 38.0444 26.3842 37.6629C24.6672 34.8012 25.0488 31.8759 25.6211 28.6963Z" fill="#EFA14B"/>
<path d="M29.5005 17.6949C30.5816 15.5327 31.4719 12.989 32.0443 11.272C31.2176 11.272 30.3273 11.3992 29.3734 11.5899C26.9568 12.1623 21.6786 12.7982 17.7359 14.7696C19.2621 20.6837 15.065 28.2513 20.216 32.1305C23.2684 34.1654 24.4131 31.8125 25.6214 28.6329C25.6214 28.6329 25.6214 28.6328 25.6214 28.5693C26.1937 25.326 27.7199 21.2561 29.5005 17.6313V17.6949Z" fill="#715D4D"/>
<path d="M69.8818 27.2336C69.7546 24.0539 67.5925 18.5214 67.2745 17.6946C66.9565 16.8679 66.7022 16.55 66.7022 16.55C66.7022 16.55 69.3731 15.8505 69.4367 13.5611C69.4367 11.2718 68.3556 12.0349 66.7022 12.4164C65.1123 12.798 61.9327 12.7344 60.788 12.4164C60.4065 12.2892 59.707 12.0349 58.6895 11.6533C58.2443 12.9888 57.9264 14.515 57.8628 15.5961C57.7992 18.1398 58.4351 22.0826 59.5162 24.4991C60.5972 26.9156 60.4065 30.1589 63.9041 30.9856C66.3206 31.5579 67.974 31.4307 69.5639 29.9681C69.7546 29.0778 69.8818 28.1875 69.8182 27.3608L69.8818 27.2336Z" fill="#715D4D"/>
<path d="M66.5118 31.1765C57.9268 40.1431 42.7281 43.2592 30.7726 37.4722C30.1367 38.8077 28.8012 38.8077 28.1017 38.8077C27.7201 38.8077 27.3386 38.8077 26.957 38.8077C27.7837 40.3975 28.4197 42.1145 28.8012 43.6407C30.3911 43.8951 31.7901 44.4038 34.779 44.2766C38.2766 44.1495 41.329 44.5946 43.3004 44.2766C45.2718 43.9587 46.6073 44.4038 46.6073 44.4038C46.6073 44.4038 47.3704 46.6296 49.2146 46.248C50.9952 45.9301 49.9777 43.7679 49.9777 43.7679C49.9777 43.7679 56.1462 43.5135 61.6152 40.7155C61.6152 40.7155 62.2511 42.8776 63.5866 42.3689C64.922 41.8601 64.1589 39.38 64.1589 39.38C64.1589 39.38 66.5118 36.6455 67.4021 35.2465C68.1017 34.229 69.1191 32.0668 69.6279 29.7139C68.6104 30.6042 67.5929 31.0493 66.3846 31.0493L66.5118 31.1765Z" fill="#FCE1C8"/>
<path d="M30.8356 37.5354C42.7911 43.2588 57.9262 40.2063 66.5748 31.2397C65.8753 31.2397 65.0486 31.1761 64.1583 30.9217C60.6607 30.095 60.8515 26.8518 59.7704 24.4353C58.6893 22.0187 58.0534 18.1396 58.117 15.5322C58.117 14.4512 58.4985 12.9885 58.9437 11.5895C57.4811 11.0807 55.3825 10.4448 53.0931 10.1904C53.4111 11.3351 53.8563 12.7977 54.1742 14.5148C54.9373 18.2667 53.5383 22.0823 52.9024 25.0712C52.33 28.06 50.1043 30.2222 48.578 32.0664C47.1154 33.9106 44.5717 33.4019 41.2013 33.0839C37.8309 32.7659 37.1313 29.8407 34.524 23.545C32.7434 19.2842 34.842 14.1332 36.4318 11.2079C34.6512 11.3987 33.3793 11.3351 32.1075 11.3351C31.5351 13.0521 30.6448 15.5322 29.5638 17.758C27.7196 21.3828 26.2569 25.4527 25.6846 28.696C25.1123 31.9392 24.6671 34.8645 26.4477 37.7262C26.7021 38.1077 26.8929 38.5529 27.1472 38.9344C27.5288 38.9344 27.9104 38.9344 28.2919 38.9344C28.9278 38.9344 30.2633 38.9344 30.9628 37.599L30.8356 37.5354Z" fill="#FFECD6"/>
<path d="M39.0391 13.9429C39.0391 13.9429 35.7323 15.0239 34.3969 15.3419C33.0614 15.6599 34.0789 19.7298 38.2124 19.2847C42.346 18.8395 41.9008 16.6774 41.9008 16.6774" fill="#E59342"/>
<path d="M39.2305 13.3066C39.2305 13.3066 36.1144 14.3877 34.9062 14.7057C33.6979 15.0236 34.6518 19.0936 38.4674 18.6484C42.2829 18.2033 41.9014 16.0411 41.9014 16.0411" fill="#EFA14B"/>
<path d="M39.1664 13.1156C38.4033 13.37 37.6402 13.6244 36.8135 13.8788C36.2411 14.0695 34.9693 14.1967 34.5241 14.6419C33.6338 15.5322 34.5241 17.122 35.2236 17.8215C36.8771 19.5385 42.5368 19.0298 42.0917 15.9137C42.0917 15.6594 41.6465 15.7865 41.7101 16.0409C41.8373 16.804 41.1378 17.5036 40.5019 17.8215C38.7849 18.839 36.3047 18.7118 35.0965 16.9948C34.7785 16.5497 34.6513 16.0409 34.6513 15.5322C34.6513 14.7691 35.478 14.7055 36.0504 14.5147C37.1314 14.1967 38.2125 13.8152 39.3572 13.4336C39.6116 13.37 39.4844 12.9884 39.23 13.052L39.1664 13.1156Z" fill="#715D4D"/>
<path d="M48.7054 26.0252C48.7054 26.5339 48.3238 26.9791 47.8151 26.9791C47.3064 26.9791 46.9248 26.5339 46.9248 26.0252C46.9248 25.5164 47.3064 25.0713 47.8151 25.0713C48.3238 25.0713 48.7054 25.5164 48.7054 26.0252Z" fill="black"/>
<path d="M65.0492 25.262C65.0492 25.7707 64.6676 26.2159 64.1589 26.2159C63.6501 26.2159 63.2686 25.7707 63.2686 25.262C63.2686 24.7533 63.6501 24.3081 64.1589 24.3081C64.6676 24.3081 65.0492 24.7533 65.0492 25.262Z" fill="black"/>
<path d="M54.2383 24.7533C54.2383 24.7533 55.4465 26.3431 56.4004 26.2159C57.4179 26.0887 57.8631 24.3081 57.8631 24.3081" stroke="black" stroke-width="0.5" stroke-linecap="round" stroke-linejoin="round"/>
<path d="M56.4639 28.3149V26.2163" stroke="black" stroke-width="0.5" stroke-linecap="round" stroke-linejoin="round"/>
<path d="M46.6064 43.1953C46.67 44.3399 47.4967 46.9472 49.0866 46.5021C51.1851 45.9298 50.4856 43.3225 50.0405 41.8598C49.9769 41.669 49.6589 41.7326 49.7225 41.9234C49.9769 43.2589 50.8672 45.1031 49.3409 46.057C47.8147 47.0108 46.988 44.0856 46.7972 43.1317C46.7972 43.0045 46.6064 43.0681 46.6064 43.1317V43.1953Z" fill="#715D4D"/>
<path d="M61.3605 39.5706C61.3605 40.4609 61.9328 43.1955 63.3318 42.9411C65.3668 42.4959 64.6037 39.6342 64.2222 38.2988C64.2222 38.108 63.8406 38.1716 63.9042 38.3624C64.095 39.6342 64.9217 41.6056 63.5226 42.5595C62.2508 43.3862 61.6148 40.3338 61.4877 39.5706C61.4877 39.4435 61.2969 39.507 61.2969 39.5706H61.3605Z" fill="#715D4D"/>
<path d="M113.507 39.3311L113.966 43.6635C113.966 43.6635 109.699 44.1886 110.224 44.7794L110.947 44.9763C110.947 44.9763 110.224 45.5015 110.947 45.6984C111.669 45.8953 111.8 45.6984 111.8 45.6984C111.8 45.6984 111.34 46.4861 111.997 46.6174C112.653 46.7487 114.163 45.5671 114.885 44.7794C114.491 41.9568 114.36 39.1998 114.36 39.3967C114.36 39.5936 113.441 39.3967 113.441 39.3967L113.507 39.3311Z" fill="#E06F19"/>
<path d="M121.056 39.0685L122.237 43.2696C122.237 43.2696 118.102 44.5168 118.758 45.042H119.546C119.546 45.1076 118.955 45.7641 119.677 45.8297C120.399 45.8297 120.53 45.6984 120.53 45.6984C120.53 45.6984 120.202 46.5518 120.859 46.5518C121.581 46.5518 122.828 45.1733 123.353 44.1886C122.434 41.4973 121.843 38.8059 121.843 39.0029C121.843 39.1341 120.99 39.1341 120.99 39.1341L121.056 39.0685Z" fill="#E06F19"/>
<path d="M98.2773 19.1787C99.1307 28.5 103.201 37.8869 114.36 39.5279C125.782 41.169 132.346 33.4888 133.921 31.3226C120.53 35.3924 105.761 30.7318 98.2773 19.1787Z" fill="#FCAA1A"/>
<path d="M147.378 25.5463C146.721 23.5114 141.93 23.3801 141.93 23.3801L134.052 22.9206C134.052 22.9206 126.7 16.7502 124.6 12.0239C122.499 7.29765 121.055 -2.22053 108.517 0.470814C108.517 0.470814 98.2116 3.29345 98.0146 13.9932C98.0146 15.6343 98.0147 17.4066 98.2116 19.1133C105.695 30.6664 120.464 35.327 133.856 31.2572C134.118 30.929 134.249 30.7321 134.249 30.7321C134.249 30.7321 134.381 30.8633 134.578 31.0603C135.956 32.2418 141.076 36.246 143.374 34.605C144.555 33.3578 143.964 31.9793 143.964 31.9793C143.964 31.9793 146.59 31.7167 146.131 29.2223C146.065 28.7628 145.277 28.1063 145.277 28.1063C145.277 28.1063 148.1 28.0407 147.378 25.6119V25.5463Z" fill="#FDBC2D"/>
<path d="M130.836 26.3991C130.836 26.3991 139.304 34.4732 140.814 33.3572C142.324 32.2413 139.107 29.8782 139.107 29.8782C139.107 29.8782 141.995 30.7972 143.177 29.8782C144.949 28.4997 140.879 26.3991 140.879 26.3991C140.879 26.3991 143.571 27.6463 144.752 26.3991C145.868 25.1519 143.308 23.9704 141.602 23.7734C139.895 23.6421 133.331 22.7231 133.331 22.7231C133.331 22.7231 134.25 25.6114 130.771 24.3642C130.771 24.3642 132.018 26.2022 130.771 26.3991H130.836Z" fill="#FCAA1A"/>
<path d="M108.058 12.2209C108.058 12.8117 107.664 13.3368 107.205 13.3368C106.745 13.3368 106.352 12.8117 106.352 12.2209C106.352 11.6301 106.745 11.105 107.205 11.105C107.664 11.105 108.058 11.6301 108.058 12.2209Z" fill="#0B0703"/>
<path d="M94.6669 10.5796C94.6669 10.5796 93.8792 10.5796 94.5356 11.3673C95.192 12.155 100.247 15.0433 100.247 15.0433C100.247 15.0433 100.772 15.0433 101.297 14.1899C101.888 13.4022 94.6013 10.6452 94.6013 10.6452L94.6669 10.5796Z" fill="#E06F19"/>
<path d="M100.969 14.5179C100.969 14.5179 93.6826 10.9732 94.0108 10.3168C94.339 9.66035 101.297 11.3671 101.297 11.3671C101.297 11.3671 101.822 13.7302 100.903 14.5179H100.969Z" fill="#F18A2B"/>
<path d="M112.456 19.2446C113.835 21.5421 115.87 23.7739 117.773 25.6775C119.611 27.5812 121.58 29.5505 124.206 30.4038C127.226 31.3884 130.77 30.01 128.604 26.7278C128.604 26.6622 128.735 26.9904 128.867 26.9904C129.589 27.1873 130.114 27.253 130.902 27.1217C132.018 26.9248 131.821 25.5463 131.427 24.8898C130.705 23.6426 131.821 25.2837 133.002 24.6273C134.053 24.0365 133.33 22.5267 132.871 21.8046C132.805 21.6733 132.543 21.8046 132.608 21.9359C133.724 23.1831 133.527 25.0868 130.639 23.7083C130.508 23.577 130.311 23.7083 130.442 23.8396C131.492 24.9555 132.018 27.5812 127.882 26.0714C127.882 26.0714 127.685 26.0714 127.751 26.137C128.867 27.3186 129.786 29.2222 127.291 30.2725C126.307 30.6007 125.125 30.2725 124.206 30.01C122.302 29.4848 120.924 28.172 119.545 26.9248C117.051 24.6929 114.294 21.9359 112.456 19.1133C112.456 19.1133 112.325 19.1133 112.39 19.1133L112.456 19.2446Z" fill="#DD8C3A"/>
<defs>
<filter id="filter0_f_8150_8784" x="0.4" y="21.4" width="160.2" height="44.2" filterUnits="userSpaceOnUse" color-interpolation-filters="sRGB">
<feFlood flood-opacity="0" result="BackgroundImageFix"/>
<feBlend mode="normal" in="SourceGraphic" in2="BackgroundImageFix" result="shape"/>
<feGaussianBlur stdDeviation="7.8" result="effect1_foregroundBlur_8150_8784"/>
</filter>
</defs>
</svg>
