<svg width="16" height="16" viewBox="0 0 16 16" fill="none" xmlns="http://www.w3.org/2000/svg">
<path d="M14.5459 0C15.3485 0.000262551 15.9998 0.650833 16 1.4541V14.5449C16 15.3484 15.3493 15.9997 14.5459 16H1.4541C0.650546 15.9999 0 15.3485 0 14.5449V1.4541C0.000231638 0.650738 0.650689 0.000108843 1.4541 0H14.5459ZM8 4C5.79397 4 4 5.79402 4 8C4.00004 10.2059 5.79399 12 8 12C10.2059 11.9999 12 10.2059 12 8C12 5.79407 10.206 4.00008 8 4ZM8 5.33301C8.7072 5.33305 9.38567 5.6142 9.88574 6.11426C10.3858 6.61434 10.667 7.2928 10.667 8C10.667 8.7072 10.3858 9.38567 9.88574 9.88574C9.38567 10.3858 8.7072 10.667 8 10.667C7.29281 10.667 6.61435 10.3857 6.11426 9.88574C5.61417 9.38567 5.33303 8.70721 5.33301 8C5.33301 7.29276 5.61415 6.61435 6.11426 6.11426C6.61436 5.6142 7.29277 5.33301 8 5.33301ZM12.667 2.66699C12.2991 2.66699 12.0002 2.96515 12 3.33301C12 3.701 12.299 4 12.667 4C13.0348 3.99979 13.333 3.70087 13.333 3.33301C13.3329 2.96528 13.0347 2.66721 12.667 2.66699Z" fill="#24341D"/>
</svg>
