<svg width="48" height="48" viewBox="0 0 48 48" fill="none" xmlns="http://www.w3.org/2000/svg">
<path d="M39.7245 35.2644C39.4756 35.2644 39.2222 35.2644 38.9733 35.2557C35.7467 35.1907 32.1733 34.8657 30.6133 31.7717C30.2222 30.9961 30.3778 30.4934 30.5778 30.2074C30.9156 29.7221 31.6445 29.4837 32.5867 29.5574C34.5156 29.7091 36.28 29.4101 37.6889 28.6864C39.2 27.9107 40.3289 26.5934 40.7156 25.1591L34.56 20.8344C34.3156 20.6611 34.1956 20.3621 34.2578 20.0717C34.32 19.7814 34.5422 19.5647 34.8356 19.5041C34.9156 19.4867 34.9911 19.4737 35.0711 19.4694C34.9333 19.1011 34.5822 18.4771 34.4178 18.2387C33.9511 17.5714 33.3645 16.9951 32.7156 16.5704C32.5956 16.4924 32.4667 16.4187 32.3333 16.3407C31.8489 16.0634 31.3022 15.7471 31.0178 15.1621C30.8178 14.7504 30.8 14.2477 30.9778 13.7841C31.2845 12.9737 31.5689 12.1807 31.7156 11.3531C31.7289 11.2664 31.7156 11.1884 31.6622 11.1277C31.6178 11.0714 31.5467 11.0411 31.4622 11.0367C27.1778 10.8634 22.68 12.9477 19.4133 16.6051C16.64 19.7121 14.64 23.9241 13.2978 29.4794L13.2622 29.6224C12.9156 31.0567 12.5245 32.6817 11.3378 33.7607C10.3289 34.6794 8.84445 35.1257 6.79556 35.1257H6.72001C5.08445 35.1171 2.86667 34.7877 1.58667 33.2624C0.146674 31.5551 0.0222292 29.5834 0.0177848 27.7114L7.25693e-06 20.6611C7.25693e-06 19.2787 -0.00888193 17.7144 0.595563 16.3104C1.34667 14.5554 3.07556 13.2034 5.00001 12.8654C5.84001 12.7181 6.68445 12.7527 7.50223 12.7874C7.89334 12.8047 8.29779 12.8221 8.6889 12.8177C10.0889 12.8047 11.1067 12.4624 11.7156 11.8037C12.5778 10.8764 12.5245 9.52872 12.4711 8.10305C12.4489 7.50072 12.4267 6.87672 12.4711 6.27872C12.6533 4.04705 14.0133 2.06239 15.9333 1.22172C17.3067 0.619386 18.8533 0.615053 20.2178 0.615053L27.3956 0.602052C28.8 0.602052 30.3867 0.597719 31.8133 1.16972C33.7245 1.93239 35.1467 3.71339 35.4445 5.70239C35.56 6.46505 35.5245 7.26239 35.4889 8.03805C35.4267 9.45939 35.3689 10.8071 36.2222 11.7517C36.8533 12.4494 37.9245 12.8134 39.4045 12.8351C39.7822 12.8394 40.1778 12.8264 40.56 12.8134C41.4533 12.7831 42.3778 12.7527 43.2845 12.9434C45.0578 13.3161 46.6089 14.5554 47.3289 16.1804C47.9511 17.5757 47.9511 19.1357 47.9511 20.5137V27.5121C47.9511 28.0537 47.9511 28.6864 47.9067 29.3104C47.8311 30.3027 47.6267 31.7587 46.7111 32.9374C45.1822 34.9091 42.4933 35.2731 39.7111 35.2731L39.7245 35.2644ZM32.2578 30.3374C31.7689 30.3374 31.3867 30.4544 31.2489 30.6494C31.1067 30.8531 31.2222 31.1781 31.3422 31.4164C32.7022 34.1117 35.8667 34.3977 38.9911 34.4584C41.8133 34.5147 44.6267 34.3111 46.0756 32.4477C46.6756 31.6764 47 30.6581 47.1067 29.2454C47.1511 28.6517 47.1556 28.0364 47.1556 27.5034V20.5051C47.1556 19.2051 47.1556 17.7317 46.5956 16.4881C45.9778 15.0971 44.6445 14.0354 43.1245 13.7147C42.3156 13.5457 41.48 13.5717 40.6 13.6021C40.2089 13.6151 39.8045 13.6281 39.4045 13.6237C37.6845 13.6021 36.4089 13.1471 35.6222 12.2717C34.5556 11.0887 34.6222 9.52005 34.6889 8.00339C34.72 7.26672 34.7556 6.50839 34.6533 5.81505C34.3956 4.09905 33.1689 2.56072 31.52 1.90205C30.24 1.39072 28.7289 1.39072 27.4133 1.39505L20.2356 1.40805C18.9556 1.40805 17.5022 1.41239 16.2845 1.94539C14.6311 2.66905 13.4578 4.39805 13.2978 6.33939C13.2533 6.88972 13.2756 7.49205 13.2978 8.07272C13.3556 9.59372 13.4133 11.1711 12.3289 12.3367C11.56 13.1644 10.3378 13.5934 8.70668 13.6107C8.29779 13.6107 7.88001 13.5977 7.47556 13.5804C6.66667 13.5457 5.90223 13.5154 5.15112 13.6454C3.49334 13.9357 2.00445 15.1014 1.35556 16.6137C0.817785 17.8704 0.82223 19.3524 0.82223 20.6567L0.840007 27.7071C0.844451 29.8694 1.07112 31.3904 2.22223 32.7554C3.30223 34.0381 5.27112 34.3197 6.73334 34.3284C6.75556 34.3284 6.78223 34.3284 6.80445 34.3284C8.63112 34.3284 9.93779 33.9514 10.7867 33.1757C11.7911 32.2614 12.1378 30.8227 12.4711 29.4361L12.5067 29.2931C13.88 23.6077 15.9378 19.2874 18.8 16.0807C22.2267 12.2414 26.9689 10.0661 31.4978 10.2394C31.8133 10.2524 32.1067 10.3911 32.2978 10.6251C32.4933 10.8591 32.5733 11.1754 32.52 11.4831C32.36 12.3757 32.0622 13.2077 31.7422 14.0527C31.6445 14.3171 31.6489 14.5944 31.7556 14.8111C31.9333 15.1751 32.3289 15.4047 32.7511 15.6474C32.8933 15.7297 33.0356 15.8121 33.1689 15.8987C33.9156 16.3841 34.5645 17.0167 35.0933 17.7837C35.2089 17.9484 36.2 19.4087 35.8667 19.9851C35.7645 20.1584 35.5689 20.2494 35.36 20.2451C35.2845 20.2451 35.2133 20.2451 35.1378 20.2537L41.2178 24.5307C41.4711 24.7084 41.5867 25.0204 41.5156 25.3107C41.0845 26.9791 39.7956 28.5044 38.0667 29.3884C36.52 30.1814 34.6045 30.5107 32.52 30.3504C32.4311 30.3417 32.3422 30.3417 32.2578 30.3417V30.3374Z" fill="#72A45C"/>
<path d="M20.2404 47.3892C19.6804 47.3892 19.1071 47.3805 18.5337 47.3329C17.916 47.2808 17.3737 47.1898 16.8715 47.0598C13.036 46.0502 11.7382 42.5359 13.0093 36.6122C14.4849 29.7482 16.9293 23.8462 20.2804 19.0752C22.1204 16.4578 24.6093 14.5902 27.1071 13.9532C27.3826 13.8838 27.6671 13.9532 27.8804 14.1352C28.0937 14.3215 28.2004 14.5988 28.1604 14.8762L28.1471 14.9585C28.0137 15.8902 27.8804 16.8522 28.4582 17.5195C28.6937 17.7925 29.036 17.9788 29.4004 18.1782C29.5471 18.2562 29.6937 18.3385 29.836 18.4252C30.4093 18.7718 30.9071 19.2225 31.3115 19.7555C32.1382 20.8345 31.956 21.1855 31.8937 21.3025C31.836 21.4152 31.7382 21.4975 31.6182 21.5452C31.8582 21.7098 32.0715 21.8918 32.2626 22.0868C32.9382 22.7758 33.2004 23.5515 32.9915 24.2752C32.5915 25.6748 31.2982 26.8448 29.7026 27.2565C29.3337 27.3518 28.9515 27.4082 28.5782 27.4602C27.5782 27.6032 26.716 27.7245 26.2537 28.5392C26.1604 28.7038 26.1026 28.8858 26.0715 29.0808C25.956 29.8738 26.2493 30.6928 26.9693 31.5768C27.8715 32.6862 29.1071 33.5398 30.3071 34.3718C31.6449 35.2948 33.0271 36.2525 34.0182 37.5872C35.116 39.0735 35.5871 40.8935 35.3026 42.5792C34.996 44.3992 33.8004 45.9895 32.1782 46.7262C30.836 47.3372 29.316 47.3459 27.9782 47.3545L20.8182 47.3979C20.6226 47.3979 20.4271 47.3979 20.2271 47.3979L20.2404 47.3892ZM18.6004 46.5398C19.3382 46.6005 20.0937 46.5962 20.8226 46.5918L27.9826 46.5485C29.2404 46.5398 30.6626 46.5312 31.8449 45.9939C33.2271 45.3655 34.2493 44.0049 34.5071 42.4405C34.756 40.9629 34.3382 39.3595 33.3649 38.0422C32.4582 36.8158 31.1871 35.9362 29.8449 35.0088C28.6004 34.1465 27.3115 33.2582 26.3382 32.0622C25.4715 30.9962 25.1249 29.9822 25.2715 28.9595C25.3115 28.6692 25.4049 28.3962 25.5471 28.1492C26.2004 26.9878 27.4049 26.8145 28.4671 26.6628C28.8315 26.6108 29.1737 26.5632 29.4982 26.4765C30.8226 26.1342 31.8893 25.1852 32.2137 24.0498C32.3826 23.4562 31.9515 22.9058 31.6804 22.6285C31.4715 22.4162 31.2182 22.2168 30.9337 22.0435C30.9204 22.0348 30.8937 22.0218 30.8671 22.0088C30.6093 21.8745 30.2137 21.6665 30.2004 21.2982C30.2004 21.2072 30.2182 20.9775 30.4804 20.8128C30.676 20.6915 30.8804 20.7262 31.0137 20.7608C30.916 20.5875 30.7826 20.3838 30.6626 20.2278C30.3204 19.7815 29.8849 19.3872 29.4093 19.0968C29.2804 19.0188 29.1426 18.9452 29.0093 18.8715C28.6004 18.6462 28.1737 18.4165 27.8449 18.0352C27.0271 17.0948 27.196 15.9032 27.3471 14.8502L27.3604 14.7722C27.3604 14.7548 27.3515 14.7418 27.3471 14.7332C25.0093 15.3138 22.6893 17.0688 20.9604 19.5302C17.6671 24.2145 15.2626 30.0168 13.8137 36.7812C12.6493 42.2195 13.7471 45.4218 17.0893 46.3015C17.5426 46.4228 18.0404 46.5008 18.6093 46.5485L18.6004 46.5398Z" fill="#72A45C"/>
</svg>
