<svg width="16" height="14" viewBox="0 0 16 14" fill="none" xmlns="http://www.w3.org/2000/svg">
<path d="M1.6 13.5C1.16 13.5 0.783333 13.3409 0.47 13.0227C0.156667 12.7044 0 12.3219 0 11.875V2.125C0 1.67813 0.156667 1.29557 0.47 0.977344C0.783333 0.659115 1.16 0.5 1.6 0.5H14.4C14.84 0.5 15.2167 0.659115 15.53 0.977344C15.8433 1.29557 16 1.67813 16 2.125V11.875C16 12.3219 15.8433 12.7044 15.53 13.0227C15.2167 13.3409 14.84 13.5 14.4 13.5H1.6ZM8 7.8125L1.6 3.75V11.875H14.4V3.75L8 7.8125ZM8 6.1875L14.4 2.125H1.6L8 6.1875ZM1.6 3.75V2.125V11.875V3.75Z" fill="white"/>
</svg>
