<svg width="12" height="12" viewBox="0 0 12 12" fill="none" xmlns="http://www.w3.org/2000/svg">
<path d="M10.8979 7.22253C10.3379 7.37185 9.75929 7.09187 9.55396 6.51325C9.4233 6.12129 9.40463 5.74798 9.55396 5.35601C9.66596 5.02004 9.79662 4.68407 10.0206 4.40409C10.1513 4.23611 10.3193 4.08678 10.5246 4.04945C10.7486 3.99346 10.9539 4.04945 11.1219 4.18011C11.7006 4.57208 12.0179 5.13203 11.9992 5.84131C11.9806 6.43859 11.4579 7.05454 10.8979 7.22253Z" fill="white"/>
<path d="M2.40504 4.29031C2.4797 4.66362 2.57302 4.99959 2.53569 5.33557C2.51702 5.61554 2.42369 5.87685 2.2557 6.1195C1.84505 6.71679 1.06109 6.81011 0.53845 6.30615C-0.0588579 5.72753 -0.245512 4.83161 0.42646 4.029C0.669116 3.74903 0.949095 3.52504 1.30375 3.43172C1.6584 3.33839 1.97571 3.45038 2.16237 3.76769C2.1997 3.82369 2.23704 3.87968 2.2557 3.93568C2.3117 4.04767 2.34904 4.17832 2.38638 4.27165L2.40504 4.29031Z" fill="white"/>
<path d="M5.70837 1.41679C5.83903 1.93942 5.93236 2.36872 5.89503 2.79801C5.83903 3.37663 5.6337 3.88059 5.16705 4.2539C4.64441 4.6832 3.91645 4.72053 3.35647 4.34722C2.92715 4.06725 2.64717 3.67528 2.47918 3.18998C2.19919 2.38738 2.42318 1.67811 2.96449 1.06216C3.24448 0.726183 3.59913 0.464871 4.00978 0.31555C4.34576 0.184894 4.66309 0.147564 4.99908 0.31555C5.24173 0.446206 5.40971 0.670187 5.54037 0.912834C5.6337 1.09949 5.68971 1.3048 5.74571 1.39813L5.70837 1.41679Z" fill="white"/>
<path d="M6.54956 3.76755C6.45623 3.37559 6.43756 2.98362 6.54956 2.59165C6.68022 2.08769 6.88555 1.6024 7.1842 1.1731C7.2962 1.00511 7.44553 0.855788 7.61352 0.743797C7.89351 0.557146 8.19215 0.519816 8.50947 0.613142C8.84546 0.725133 9.10678 0.930449 9.33078 1.1731C9.6481 1.50907 9.87208 1.9197 10.0027 2.36767C10.1894 3.02095 10.0401 3.61823 9.64809 4.15952C9.3681 4.53283 9.01346 4.8128 8.56548 4.94346C7.80018 5.16744 7.03488 4.8128 6.69889 4.08486C6.64289 3.97287 6.60555 3.86088 6.56822 3.74889L6.54956 3.76755Z" fill="white"/>
<path d="M10.1323 8.73366C10.487 9.85357 9.87101 10.9548 9.25503 11.4028C8.69505 11.8321 8.07909 11.9067 7.42578 11.6454C7.07113 11.4961 6.71646 11.3281 6.36181 11.1601C6.02582 11.0108 5.68984 10.8801 5.31652 10.8615C5.0552 10.8615 4.81254 10.9175 4.56989 10.9735C4.2339 11.0481 3.89791 11.1415 3.54326 11.1975C2.66596 11.3281 1.75132 10.8242 1.41534 10.0029C1.09802 9.23762 1.13536 8.49101 1.54601 7.78173C2.10599 6.79248 2.88995 6.06454 3.91658 5.59791C5.20453 5.00062 6.49248 5.03796 7.74309 5.72857C8.58306 6.1952 9.19904 6.86714 9.68436 7.70707C9.87102 8.02438 10.0203 8.37902 10.1137 8.75232L10.1323 8.73366Z" fill="white"/>
</svg>
