<svg width="158" height="26" viewBox="0 0 158 26" fill="none" xmlns="http://www.w3.org/2000/svg">
<path d="M12.8877 1.51294C13.1102 0.829022 14.0789 0.829022 14.3014 1.51294L16.765 9.08588C16.8645 9.39173 17.1499 9.59881 17.4719 9.59881H25.4444C26.1644 9.59881 26.4638 10.519 25.8813 10.9417L19.4314 15.622C19.1709 15.8111 19.0619 16.1461 19.1614 16.452L21.625 24.0249C21.8475 24.7088 21.0638 25.2775 20.4813 24.8549L14.0314 20.1745C13.7709 19.9855 13.4182 19.9855 13.1577 20.1745L6.70778 24.8549C6.12529 25.2775 5.34156 24.7088 5.56405 24.0249L8.02769 16.452C8.12719 16.1461 8.01818 15.8111 7.75769 15.622L1.3078 10.9417C0.72531 10.519 1.02467 9.59881 1.74467 9.59881H9.71717C10.0392 9.59881 10.3245 9.39173 10.424 9.08588L12.8877 1.51294Z" fill="#FFCE73"/>
<path d="M78.2931 1.51294C78.5156 0.829022 79.4844 0.829022 79.7069 1.51294L82.1705 9.08588C82.27 9.39173 82.5554 9.59881 82.8774 9.59881H90.8499C91.5699 9.59881 91.8692 10.519 91.2867 10.9417L84.8369 15.622C84.5764 15.8111 84.4673 16.1461 84.5668 16.452L87.0305 24.0249C87.253 24.7088 86.4692 25.2775 85.8868 24.8549L79.4369 20.1745C79.1764 19.9855 78.8236 19.9855 78.5631 20.1745L72.1132 24.8549C71.5308 25.2775 70.747 24.7088 70.9695 24.0249L73.4331 16.452C73.5326 16.1461 73.4236 15.8111 73.1631 15.622L66.7133 10.9417C66.1308 10.519 66.4301 9.59881 67.1501 9.59881H75.1226C75.4446 9.59881 75.73 9.39173 75.8295 9.08588L78.2931 1.51294Z" fill="#FFCE73"/>
<path d="M45.5904 1.51294C45.8129 0.829022 46.7816 0.829022 47.0041 1.51294L49.4678 9.08588C49.5673 9.39173 49.8526 9.59881 50.1746 9.59881H58.1471C58.8671 9.59881 59.1665 10.519 58.584 10.9417L52.1341 15.622C51.8736 15.8111 51.7646 16.1461 51.8641 16.452L54.3278 24.0249C54.5503 24.7088 53.7665 25.2775 53.184 24.8549L46.7341 20.1745C46.4736 19.9855 46.1209 19.9855 45.8604 20.1745L39.4105 24.8549C38.828 25.2775 38.0443 24.7088 38.2668 24.0249L40.7304 16.452C40.8299 16.1461 40.7209 15.8111 40.4604 15.622L34.0105 10.9417C33.428 10.519 33.7274 9.59881 34.4474 9.59881H42.4199C42.7419 9.59881 43.0273 9.39173 43.1268 9.08588L45.5904 1.51294Z" fill="#FFCE73"/>
<path d="M110.996 1.51294C111.218 0.829022 112.187 0.829022 112.41 1.51294L114.873 9.08588C114.973 9.39173 115.258 9.59881 115.58 9.59881H123.553C124.273 9.59881 124.572 10.519 123.989 10.9417L117.54 15.622C117.279 15.8111 117.17 16.1461 117.27 16.452L119.733 24.0249C119.956 24.7088 119.172 25.2775 118.589 24.8549L112.14 20.1745C111.879 19.9855 111.526 19.9855 111.266 20.1745L104.816 24.8549C104.233 25.2775 103.45 24.7088 103.672 24.0249L106.136 16.452C106.235 16.1461 106.126 15.8111 105.866 15.622L99.416 10.9417C98.8335 10.519 99.1329 9.59881 99.8529 9.59881H107.825C108.147 9.59881 108.433 9.39173 108.532 9.08588L110.996 1.51294Z" fill="#FFCE73"/>
<path fill-rule="evenodd" clip-rule="evenodd" d="M144.405 1C144.108 1.00001 143.81 1.17099 143.699 1.51294L141.235 9.08588C141.135 9.39173 140.85 9.59881 140.528 9.59881H132.556C131.836 9.59881 131.536 10.519 132.119 10.9417L138.569 15.622C138.829 15.8111 138.938 16.1461 138.839 16.452L136.375 24.0249C136.152 24.7088 136.936 25.2775 137.519 24.8549L143.969 20.1745C144.099 20.08 144.252 20.0328 144.405 20.0328V1Z" fill="#FFCE73"/>
<path d="M144.405 20.0328C144.559 20.0327 144.712 20.08 144.842 20.1745L151.292 24.8549C151.875 25.2775 152.658 24.7088 152.436 24.0249L149.972 16.452C149.873 16.1461 149.982 15.8111 150.242 15.622L156.692 10.9417C157.275 10.519 156.975 9.59881 156.255 9.59881H148.283C147.961 9.59881 147.675 9.39173 147.576 9.08588L145.112 1.51294C145.001 1.17096 144.703 0.999986 144.405 1M144.405 20.0328C144.252 20.0328 144.099 20.08 143.969 20.1745L137.519 24.8549C136.936 25.2775 136.152 24.7088 136.375 24.0249L138.839 16.452C138.938 16.1461 138.829 15.8111 138.569 15.622L132.119 10.9417C131.536 10.519 131.836 9.59881 132.556 9.59881H140.528C140.85 9.59881 141.135 9.39173 141.235 9.08588L143.699 1.51294C143.81 1.17099 144.108 1.00001 144.405 1M144.405 20.0328V1M9.71717 9.59881H1.74467C1.02467 9.59881 0.72531 10.519 1.3078 10.9417L7.75769 15.622C8.01818 15.8111 8.12719 16.1461 8.02769 16.452L5.56405 24.0249C5.34156 24.7088 6.12529 25.2775 6.70778 24.8549L13.1577 20.1745C13.4182 19.9855 13.7709 19.9855 14.0314 20.1745L20.4813 24.8549C21.0638 25.2775 21.8475 24.7088 21.625 24.0249L19.1614 16.452C19.0619 16.1461 19.1709 15.8111 19.4314 15.622L25.8813 10.9417C26.4638 10.519 26.1644 9.59881 25.4444 9.59881H17.4719C17.1499 9.59881 16.8645 9.39173 16.765 9.08588L14.3014 1.51294C14.0789 0.829022 13.1102 0.829022 12.8877 1.51294L10.424 9.08588C10.3245 9.39173 10.0392 9.59881 9.71717 9.59881ZM75.1226 9.59881H67.1501C66.4301 9.59881 66.1308 10.519 66.7133 10.9417L73.1631 15.622C73.4236 15.8111 73.5326 16.1461 73.4331 16.452L70.9695 24.0249C70.747 24.7088 71.5308 25.2775 72.1132 24.8549L78.5631 20.1745C78.8236 19.9855 79.1764 19.9855 79.4369 20.1745L85.8868 24.8549C86.4692 25.2775 87.253 24.7088 87.0305 24.0249L84.5668 16.452C84.4673 16.1461 84.5764 15.8111 84.8369 15.622L91.2867 10.9417C91.8692 10.519 91.5699 9.59881 90.8499 9.59881H82.8774C82.5554 9.59881 82.27 9.39173 82.1705 9.08588L79.7069 1.51294C79.4844 0.829022 78.5156 0.829022 78.2931 1.51294L75.8295 9.08588C75.73 9.39173 75.4446 9.59881 75.1226 9.59881ZM42.4199 9.59881H34.4474C33.7274 9.59881 33.428 10.519 34.0105 10.9417L40.4604 15.622C40.7209 15.8111 40.8299 16.1461 40.7304 16.452L38.2668 24.0249C38.0443 24.7088 38.828 25.2775 39.4105 24.8549L45.8604 20.1745C46.1209 19.9855 46.4736 19.9855 46.7341 20.1745L53.184 24.8549C53.7665 25.2775 54.5503 24.7088 54.3278 24.0249L51.8641 16.452C51.7646 16.1461 51.8736 15.8111 52.1341 15.622L58.584 10.9417C59.1665 10.519 58.8671 9.59881 58.1471 9.59881H50.1746C49.8526 9.59881 49.5673 9.39173 49.4678 9.08588L47.0041 1.51294C46.7816 0.829022 45.8129 0.829022 45.5904 1.51294L43.1268 9.08588C43.0273 9.39173 42.7419 9.59881 42.4199 9.59881ZM107.825 9.59881H99.8529C99.1329 9.59881 98.8335 10.519 99.416 10.9417L105.866 15.622C106.126 15.8111 106.235 16.1461 106.136 16.452L103.672 24.0249C103.45 24.7088 104.233 25.2775 104.816 24.8549L111.266 20.1745C111.526 19.9855 111.879 19.9855 112.14 20.1745L118.589 24.8549C119.172 25.2775 119.956 24.7088 119.733 24.0249L117.27 16.452C117.17 16.1461 117.279 15.8111 117.54 15.622L123.989 10.9417C124.572 10.519 124.273 9.59881 123.553 9.59881H115.58C115.258 9.59881 114.973 9.39173 114.873 9.08588L112.41 1.51294C112.187 0.829022 111.218 0.829022 110.996 1.51294L108.532 9.08588C108.433 9.39173 108.147 9.59881 107.825 9.59881Z" stroke="#FFCE73"/>
</svg>
