<svg width="393" height="245" viewBox="0 0 393 245" fill="none" xmlns="http://www.w3.org/2000/svg">
<path d="M46.193 211.638C50.4369 217.739 49.1523 225.663 46.4419 229.756L46.4342 229.766C43.9463 233.738 40.3128 235.623 35.6289 235.514C32.9915 235.404 30.3074 235.175 27.6103 234.944L27.5977 234.944C25.0577 234.788 22.4907 234.747 19.938 235.557L19.9142 235.565C18.1648 236.218 16.6864 237.197 15.2605 238.139L15.2595 238.139C13.2393 239.451 11.3324 240.838 9.19352 242.045L9.19261 242.046C4.03127 244.899 -2.84465 243.879 -6.8374 239.554L-6.839 239.553C-10.6353 235.479 -12.1424 230.717 -11.2259 225.301L-11.2248 225.296C-10.0071 217.65 -6.74257 211.15 -1.30807 205.733L-1.3051 205.73C5.46985 198.874 13.7279 196.062 23.3198 197.486L23.3192 197.487C29.769 198.462 35.2909 201.273 40.3998 205.488L40.4027 205.49C42.3397 207.062 44.1282 208.96 45.6038 211.107L46.1036 211.834L46.193 211.638Z" stroke="#72A45C"/>
<path d="M29.489 170.116C32.1645 173.744 32.6327 177.799 31.4416 182.118L31.4419 182.118C30.5563 185.126 28.9918 187.692 26.5145 189.54L26.5136 189.54C22.3081 192.683 16.7813 192.261 13.0256 188.537L13.0205 188.531L13.0145 188.526C12.4122 187.965 11.9213 187.359 11.4071 186.721L10.899 186.092L10.8692 186.157C9.62464 184.12 8.79346 181.954 8.60419 179.559L8.6025 179.546L8.54015 178.884C8.25891 175.575 8.44806 172.234 9.27123 169.019L9.27399 169.01L9.40028 168.527C9.72488 167.405 10.2517 166.318 10.9318 165.377C12.1209 163.731 13.6912 162.844 15.644 162.614L16.0398 162.576C18.3643 162.498 20.4587 163.161 22.4396 164.163L22.4446 164.165C25.2279 165.533 27.607 167.592 29.4896 170.115L29.489 170.116Z" stroke="#72A45C"/>
<path d="M-0.572358 174.307C1.53652 177.376 3.12724 179.863 3.89632 182.638L3.89724 182.638C4.9052 186.42 4.78297 190.025 2.75478 193.417L2.75158 193.423C0.587841 197.149 -3.60411 199.049 -7.77815 198.244L-8.18228 198.158L-8.18696 198.157C-11.5154 197.41 -14.1784 195.619 -16.3745 192.961L-16.3761 192.959C-19.9826 188.614 -20.2535 183.687 -18.289 178.528L-18.2886 178.529L-18.2851 178.516L-18.0951 178C-17.1078 175.438 -15.5579 173.158 -13.4754 171.382L-13.4745 171.382L-13.4667 171.375L-13.1297 171.083C-11.5531 169.758 -9.92727 168.981 -7.89774 169.078L-7.45683 169.112C-5.72159 169.355 -4.19064 170.321 -2.79619 171.543C-2.2934 172.012 -1.83358 172.535 -1.41445 173.014C-1.15938 173.306 -0.905127 173.594 -0.669083 173.836L-0.80007 173.976L-0.572358 174.307Z" stroke="#72A45C"/>
<path d="M50.7074 187.61L50.7065 187.61C51.3232 189.435 51.1977 191.607 50.5134 193.635C49.8719 195.535 48.7547 197.262 47.3704 198.416L47.0897 198.639C44.0362 200.799 39.9206 200.405 37.3737 197.369C35.6453 195.224 34.6811 192.967 34.6999 190.215L34.7002 190.204L34.6995 190.194L34.674 189.282C34.6339 187.159 34.7454 185.066 35.3957 183.087L35.3973 183.08L35.5692 182.577C35.999 181.423 36.6351 180.414 37.5793 179.852L37.5929 179.844L37.6071 179.835L37.8276 179.691C38.9427 179.014 40.1605 178.93 41.3507 179.303L41.3664 179.308L41.3823 179.312C45.9166 180.413 49.1766 183.155 50.7074 187.61Z" stroke="#72A45C"/>
<path d="M365.626 233.251C365.685 240.683 360.152 246.498 355.604 248.347L355.592 248.351C351.296 250.225 347.233 249.73 343.429 246.996C341.313 245.417 339.227 243.712 337.131 242L337.121 241.992C335.112 240.43 333.016 238.947 330.452 238.174L330.428 238.168C328.615 237.719 326.843 237.693 325.134 237.666L325.133 237.665C322.725 237.607 320.368 237.676 317.921 237.466L317.92 237.465C312.049 236.907 306.948 232.184 306.094 226.36L306.094 226.358C305.259 220.852 306.703 216.071 310.517 212.118L310.521 212.114C315.842 206.49 322.206 202.967 329.749 201.564L329.753 201.563C339.216 199.727 347.62 202.068 354.734 208.658L354.732 208.658C359.506 213.103 362.477 218.541 364.316 224.904L364.317 224.907C365.028 227.299 365.433 229.874 365.439 232.48L365.441 233.362L365.626 233.251Z" stroke="#72A45C"/>
<path d="M375.276 189.547C375.436 194.052 373.534 197.663 370.113 200.556L370.113 200.557C367.684 202.54 364.944 203.774 361.856 203.902L361.855 203.901C356.61 204.122 352.286 200.654 351.288 195.46L351.287 195.452L351.285 195.445C351.104 194.642 351.041 193.864 350.977 193.048L350.913 192.241L350.851 192.278C350.974 189.894 351.51 187.637 352.706 185.553L352.712 185.541L353.034 184.96C354.67 182.069 356.712 179.419 359.206 177.229L359.214 177.223L359.59 176.896C360.492 176.153 361.54 175.553 362.633 175.16C364.543 174.473 366.34 174.627 368.082 175.539L368.43 175.732C370.393 176.979 371.748 178.709 372.817 180.654L372.82 180.659C374.345 183.359 375.147 186.402 375.277 189.547L375.276 189.547Z" stroke="#72A45C"/>
<path d="M348.096 176.038C348.104 179.762 348.013 182.713 347.082 185.437L347.083 185.438C345.78 189.129 343.644 192.036 340.055 193.691L340.049 193.694C336.16 195.548 331.627 194.75 328.636 191.729L328.351 191.431L328.348 191.427C326.022 188.931 324.834 185.95 324.522 182.516L324.522 182.514C323.998 176.891 326.555 172.671 331.089 169.522L331.089 169.523L331.099 169.514L331.547 169.196C333.808 167.638 336.375 166.631 339.096 166.341L339.097 166.341L339.107 166.34L339.55 166.288C341.599 166.085 343.38 166.362 345.001 167.587L345.346 167.864C346.641 169.044 347.359 170.706 347.82 172.501C347.97 173.173 348.055 173.864 348.13 174.496C348.176 174.88 348.224 175.261 348.282 175.595L348.094 175.637L348.096 176.038Z" stroke="#72A45C"/>
<path d="M321.192 189.942C321.08 192.559 321.127 194.804 320.37 196.859L320.366 196.869L320.362 196.88C319.802 198.634 318.796 200.153 317.332 201.444L317.332 201.445C313.814 204.567 308.77 203.928 306.275 199.957C304.807 197.609 304.143 194.933 304.53 192.349C304.916 189.774 306.354 187.244 309.172 185.185C311.215 183.746 313.362 182.77 315.751 182.735C316.93 182.718 317.941 183.006 318.733 183.556C319.523 184.104 320.126 184.933 320.459 186.053L320.463 186.066L320.468 186.079C320.631 186.533 320.761 186.903 320.786 187.229L320.789 187.265L320.796 187.299C320.884 187.691 320.938 188.113 320.982 188.533C321.024 188.941 321.058 189.371 321.107 189.725L321.121 189.827L321.175 189.915L321.192 189.942Z" stroke="#72A45C"/>
<path d="M382.916 215.965L382.915 215.965C382.394 217.819 381.064 219.541 379.355 220.829C377.752 222.036 375.855 222.83 374.061 223.001L373.704 223.027C369.964 223.086 366.789 220.438 366.4 216.494C366.185 213.748 366.663 211.341 368.232 209.08L368.238 209.071L368.243 209.062L368.737 208.295C369.902 206.52 371.176 204.855 372.829 203.589L372.835 203.584L373.26 203.266C374.267 202.556 375.361 202.082 376.458 202.151L376.474 202.152L376.491 202.152L376.754 202.158C378.057 202.228 379.109 202.846 379.881 203.826L379.891 203.84L379.902 203.852C383.023 207.32 384.167 211.424 382.916 215.965Z" stroke="#72A45C"/>
<path d="M312.705 157.735C314.197 161.594 312.696 165.763 310.769 167.865L310.569 168.075L310.56 168.084C308.64 170.106 306.311 170.776 303.589 170.161C302.027 169.777 300.45 169.315 298.861 168.85L298.85 168.847C297.345 168.445 295.783 168.101 294.119 168.281L294.107 168.282L294.094 168.284C292.944 168.467 291.921 168.882 290.957 169.272L290.956 169.273C289.574 169.818 288.28 170.411 286.86 170.872L286.861 170.872C283.51 171.927 279.613 170.515 277.796 167.523L277.795 167.521C276.046 164.672 275.729 161.702 276.911 158.63L276.912 158.626L277.07 158.217C278.725 154.019 281.39 150.692 285.143 148.212L285.147 148.21L285.601 147.913C290.308 144.921 295.372 144.348 300.71 146.279L300.709 146.28C304.412 147.63 307.349 149.957 309.879 153.077L309.881 153.08C310.839 154.242 311.669 155.579 312.284 157.025L312.631 157.837L312.705 157.735Z" stroke="#72A45C"/>
<path d="M307.608 130.544C308.74 132.975 308.538 135.394 307.326 137.79L307.326 137.791C306.448 139.454 305.229 140.766 303.568 141.551L303.567 141.551C300.758 142.881 297.605 141.99 295.86 139.385L295.855 139.379L295.851 139.372C295.568 138.977 295.354 138.566 295.123 138.121L294.782 137.465C294.359 136.206 294.172 134.929 294.333 133.607L294.334 133.594L294.376 133.194C294.607 131.197 295.12 129.242 295.991 127.44L295.995 127.432L296.125 127.167C296.444 126.554 296.878 125.985 297.383 125.519C298.305 124.668 299.368 124.354 300.604 124.51C301.797 124.707 302.824 125.216 303.766 125.895L304.165 126.197L304.169 126.2C305.642 127.335 306.799 128.83 307.608 130.543L307.608 130.544Z" stroke="#72A45C"/>
<path d="M289.104 129.405C289.995 131.499 290.633 133.153 290.754 134.87L290.755 134.87C290.898 137.218 290.396 139.303 288.816 141.038L288.812 141.044C287.065 143.012 284.296 143.597 281.92 142.506L281.915 142.504C280.058 141.673 278.711 140.312 277.736 138.487L277.736 138.486C276.144 135.523 276.56 132.617 278.332 129.813L278.338 129.802L278.511 129.521C279.397 128.132 280.578 126.978 282.009 126.184L282.018 126.179L282.25 126.048C283.399 125.422 284.481 125.179 285.719 125.566C286.679 125.902 287.452 126.632 288.131 127.521C288.368 127.853 288.573 128.212 288.766 128.549C288.848 128.693 288.935 128.842 289.02 128.982L288.946 129.035L289.104 129.405Z" stroke="#72A45C"/>
<path d="M278.43 147.396L278.448 147.666C278.546 148.748 278.35 149.808 277.848 150.852L277.847 150.853C276.661 153.341 273.808 154.139 271.562 152.571C270.211 151.622 269.232 150.312 268.849 148.818C268.467 147.332 268.662 145.62 269.733 143.832C270.528 142.557 271.477 141.533 272.762 140.967C273.39 140.691 273.986 140.621 274.516 140.732C275.043 140.843 275.542 141.14 275.97 141.659L275.979 141.67L275.989 141.68C276.193 141.902 276.334 142.06 276.412 142.209L276.429 142.241L276.449 142.27C276.585 142.46 276.711 142.676 276.835 142.901C276.952 143.113 277.078 143.355 277.193 143.547L277.245 143.635L277.297 143.672C277.819 145.067 278.318 146.206 278.43 147.396Z" stroke="#72A45C"/>
<path d="M318.172 143.527L318.171 143.527C318.313 144.642 317.99 145.884 317.35 146.988C316.751 148.022 315.898 148.892 314.967 149.395L314.779 149.49C312.782 150.37 310.481 149.67 309.375 147.64C308.616 146.178 308.325 144.755 308.659 143.163L308.661 143.152L308.662 143.142L308.757 142.595C308.989 141.328 309.304 140.114 309.917 139.037L309.92 139.031L310.08 138.758C310.465 138.139 310.937 137.654 311.511 137.452L311.526 137.447L311.541 137.441L311.68 137.386C312.372 137.136 313.053 137.224 313.676 137.567L313.692 137.576L313.706 137.582C316.232 138.765 317.805 140.747 318.172 143.527Z" stroke="#72A45C"/>
<path d="M357.507 97.8202C355.985 106.521 348.236 112.074 342.529 113.209L342.516 113.212C337.122 114.427 332.521 112.947 328.723 108.935C326.634 106.646 324.607 104.219 322.571 101.782L322.563 101.773C320.595 99.5303 318.518 97.3687 315.75 95.9195L315.728 95.9092C313.749 94.996 311.722 94.5746 309.758 94.165L309.757 94.1645C307.002 93.5666 304.264 93.123 301.488 92.3379L301.487 92.3375C294.811 90.3847 289.954 83.7809 290.261 76.8426L290.26 76.8404C290.518 70.2887 293.252 65.0753 298.543 61.3492L298.547 61.346C305.935 56.0352 314.062 53.3795 323.081 53.4316L323.084 53.4311L324.14 53.4431C334.99 53.7007 343.818 58.2655 350.36 67.166C354.885 73.357 357.108 80.294 357.819 88.0412L357.819 88.0447C358.11 90.9646 358.006 94.0292 357.436 97.0399L357.271 97.9071L357.507 97.8202Z" stroke="#72A45C"/>
<path d="M378.263 49.7608C377.447 55.0165 374.438 58.777 369.837 61.3629L369.836 61.3638C366.689 63.0625 363.355 63.8856 359.87 63.4444L359.532 63.3982C353.398 62.4857 349.154 57.4975 349.154 51.2513L349.153 51.2435L349.153 51.236C349.123 50.2639 349.223 49.3479 349.329 48.3939L349.419 47.5897L349.319 47.6265C349.985 44.836 351.115 42.2864 352.999 40.0969L353 40.0973L353.008 40.0879L353.508 39.4885C356.038 36.5144 358.982 33.9046 362.349 31.9292L362.35 31.9296L362.358 31.9246L362.868 31.629C364.08 30.9676 365.429 30.5063 366.784 30.2936C369.162 29.9206 371.222 30.5021 373.044 31.9523L373.406 32.2548C375.407 34.1392 376.591 36.4461 377.396 38.9329L377.398 38.938C378.562 42.4003 378.813 46.0965 378.264 49.7603L378.263 49.7608Z" stroke="#72A45C"/>
<path d="M349.943 28.1904C349.13 32.48 348.372 35.8732 346.688 38.8194C344.363 42.7977 341.242 45.6931 336.714 46.8127L336.708 46.8142C331.622 48.1413 326.37 46.035 323.637 41.5809L323.634 41.5775C321.496 38.1701 320.785 34.4533 321.187 30.4118L321.186 30.4105C321.81 23.9875 325.494 19.7347 331.125 17.0798L331.676 16.8275L331.688 16.8223L332.277 16.5531C335.238 15.2539 338.431 14.6577 341.646 14.9272L341.656 14.9277L342.181 14.9677C344.686 15.1961 346.756 15.9576 348.399 17.8922L348.567 18.0967C349.813 19.7628 350.276 21.8567 350.411 24.0353C350.436 24.8472 350.379 25.6663 350.327 26.411C350.292 26.8994 350.259 27.3776 350.256 27.7887L350.019 27.7961L349.943 28.1904Z" stroke="#72A45C"/>
<path d="M315.884 38.2335C315.174 41.2245 314.731 43.8482 313.391 46.0681L313.385 46.077L313.38 46.0876C312.339 47.9983 310.832 49.5375 308.848 50.7075L308.847 50.708C304.059 53.5525 298.331 51.6826 296.315 46.5052C295.138 43.46 294.963 40.21 295.988 37.2972C297.011 34.3941 299.24 31.783 302.956 30.0254L302.956 30.0262C305.639 28.8142 308.349 28.1557 311.136 28.6485C312.512 28.892 313.631 29.4549 314.436 30.2783C315.239 31.0994 315.758 32.2064 315.896 33.5871L315.897 33.6006L315.899 33.6145C315.987 34.1706 316.056 34.6385 316.012 35.0337L316.009 35.0687L316.01 35.1045C316.024 35.5807 315.993 36.0823 315.949 36.5772C315.908 37.0589 315.853 37.5583 315.831 37.9756L315.826 38.0776L315.861 38.1735L315.884 38.2335Z" stroke="#72A45C"/>
<path d="M381.211 81.9059L381.21 81.9055C380.189 83.9475 378.26 85.6492 375.994 86.76C373.869 87.8012 371.492 88.3015 369.369 88.0996L368.949 88.0498C364.587 87.2855 361.482 83.5003 361.905 78.8294C362.264 75.5957 363.354 72.9038 365.683 70.6261L365.698 70.6116L366.436 69.8361C368.174 68.0464 370.017 66.4017 372.215 65.3031L372.221 65.2998L372.502 65.1582C373.912 64.4734 375.407 64.0903 376.773 64.4427L376.789 64.447L376.805 64.45L377.113 64.5177C378.623 64.8939 379.718 65.855 380.401 67.1743L380.408 67.1893L380.416 67.2031C383.258 71.9122 383.671 76.9229 381.211 81.9059Z" stroke="#72A45C"/>
<path d="M166.847 217.303C168.586 219.813 168.259 223.103 167.249 224.899L167.243 224.91C166.284 226.722 164.773 227.654 162.721 227.758C161.515 227.796 160.283 227.78 159.038 227.765L159.026 227.765C157.854 227.778 156.633 227.844 155.441 228.32L155.419 228.33C154.608 228.702 153.941 229.218 153.323 229.694L153.322 229.694C152.426 230.373 151.62 231.056 150.691 231.674L150.69 231.674C148.523 233.087 145.478 232.856 143.6 231.097L143.598 231.095C141.783 229.411 140.968 227.362 141.199 224.939L141.2 224.934C141.498 221.448 142.755 218.417 145.024 215.8L145.026 215.797L145.293 215.493C148.07 212.403 151.585 210.979 155.802 211.295C158.729 211.522 161.305 212.604 163.753 214.341L163.756 214.342C164.675 214.984 165.538 215.776 166.268 216.689L166.819 217.378L166.847 217.303Z" stroke="#72A45C"/>
<path d="M157.528 198.464C158.812 199.964 159.151 201.718 158.762 203.669C158.466 205.027 157.86 206.194 156.842 207.076L156.841 207.076C155.124 208.566 152.729 208.561 150.985 207.066L150.979 207.06L150.973 207.056C150.696 206.833 150.463 206.585 150.205 206.309L149.842 205.92C149.288 205.105 148.9 204.236 148.752 203.266L148.75 203.254L148.657 202.661C148.478 201.375 148.461 200.074 148.656 198.8L148.706 198.507L148.707 198.497C148.798 197.93 149.007 197.365 149.309 196.877C149.785 196.105 150.46 195.682 151.355 195.551C152.357 195.445 153.29 195.665 154.203 196.046L154.209 196.048C155.485 196.564 156.608 197.4 157.528 198.462L157.528 198.464Z" stroke="#72A45C"/>
<path d="M143.897 201.377C144.966 202.713 145.749 203.765 146.177 204.96L146.176 204.961C146.747 206.611 146.802 208.187 146.028 209.726L146.027 209.726L146.024 209.732C145.182 211.462 143.348 212.417 141.461 212.116L141.456 212.115C139.974 211.894 138.748 211.197 137.689 210.09L137.689 210.089C135.975 208.305 135.689 206.166 136.395 203.81L136.399 203.797L136.541 203.33C136.878 202.332 137.407 201.422 138.123 200.664L138.293 200.492L138.3 200.484L138.577 200.214C139.224 199.624 139.896 199.302 140.767 199.33C141.49 199.378 142.17 199.731 142.828 200.227C143.062 200.415 143.28 200.631 143.489 200.837C143.55 200.897 143.616 200.959 143.68 201.021L143.646 201.064L143.897 201.377Z" stroke="#72A45C"/>
<path d="M138.251 214.121C138.955 215.083 139.556 215.817 139.849 216.701L139.851 216.711L139.856 216.721C140.138 217.463 140.208 218.247 140.059 219.084L140.059 219.085C139.716 221.054 137.887 222.159 136.018 221.504C134.871 221.099 133.924 220.366 133.361 219.391C132.802 218.424 132.6 217.179 133.005 215.698L133.005 215.697C133.319 214.626 133.789 213.72 134.578 213.073C134.961 212.759 135.354 212.601 135.731 212.576C136.104 212.551 136.497 212.656 136.892 212.931L136.903 212.939L136.915 212.946C137.111 213.068 137.23 213.145 137.303 213.223L137.327 213.249L137.355 213.271C137.485 213.376 137.616 213.503 137.75 213.64C137.875 213.767 138.02 213.921 138.144 214.038L138.218 214.109L138.251 214.121Z" stroke="#72A45C"/>
<path d="M167.783 205.696C168.098 206.443 168.118 207.38 167.883 208.289C167.677 209.083 167.288 209.816 166.787 210.344L166.565 210.558C165.344 211.556 163.612 211.514 162.448 210.316C161.62 209.428 161.138 208.484 161.06 207.299L161.059 207.288L161.058 207.278L161.017 206.865C160.929 205.905 160.912 204.98 161.133 204.096L161.135 204.089C161.28 203.475 161.527 202.971 161.918 202.697L161.931 202.688L161.944 202.678L162.111 202.558C162.51 202.308 162.953 202.254 163.409 202.362L163.425 202.366L163.441 202.368C165.471 202.708 166.973 203.799 167.783 205.696Z" stroke="#72A45C"/>
<path d="M238.913 186.204C238.747 189.253 236.472 191.652 234.573 192.451L234.562 192.457C232.693 193.3 230.928 193.11 229.243 191.934C228.268 191.224 227.304 190.457 226.33 189.681L226.32 189.674C225.386 188.966 224.381 188.269 223.148 187.915L223.124 187.909C222.256 187.706 221.412 187.704 220.632 187.701L220.631 187.701C219.507 187.688 218.452 187.733 217.339 187.652L217.338 187.651C214.76 187.439 212.496 185.39 212.09 182.848L212.09 182.846C211.688 180.403 212.301 178.285 213.969 176.512L213.973 176.509C216.346 173.938 219.197 172.313 222.594 171.637L222.597 171.636L222.994 171.56C227.083 170.821 230.733 171.851 233.871 174.686C236.044 176.66 237.416 179.094 238.285 181.967L238.286 181.97C238.619 183.041 238.815 184.195 238.832 185.364L238.845 186.247L238.913 186.204Z" stroke="#72A45C"/>
<path d="M243.101 165.607C243.196 167.58 242.389 169.173 240.885 170.476C239.818 171.368 238.624 171.918 237.28 171.99L237.279 171.99C235.008 172.114 233.12 170.642 232.658 168.392L232.657 168.384L232.655 168.376C232.573 168.03 232.541 167.692 232.506 167.315L232.458 166.785C232.52 165.802 232.747 164.878 233.224 164.021L233.23 164.01L233.519 163.484C234.166 162.359 234.951 161.321 235.886 160.434L236.105 160.233L236.113 160.225C236.531 159.833 237.044 159.516 237.581 159.315C238.431 158.997 239.223 159.077 240.011 159.522C240.867 160.052 241.47 160.798 241.957 161.659L241.96 161.664C242.652 162.854 243.027 164.203 243.102 165.607L243.101 165.607Z" stroke="#72A45C"/>
<path d="M230.546 159.553C230.572 161.263 230.545 162.574 230.15 163.781L230.149 163.781C229.589 165.434 228.666 166.713 227.111 167.454L227.11 167.454L227.104 167.457C225.378 168.307 223.344 167.937 222.038 166.543L222.035 166.539C220.999 165.456 220.458 164.153 220.301 162.629L220.301 162.628C220.04 160.168 221.126 158.303 223.129 156.875L223.139 156.867L223.537 156.585C224.416 156.003 225.392 155.609 226.423 155.449L226.662 155.417L226.672 155.415L227.056 155.372C227.93 155.303 228.658 155.46 229.329 156.016C229.87 156.497 230.191 157.192 230.407 157.988C230.476 158.28 230.517 158.585 230.555 158.876C230.567 158.961 230.58 159.049 230.593 159.138L230.54 159.151L230.546 159.553Z" stroke="#72A45C"/>
<path d="M218.273 166.159C218.239 167.35 218.265 168.298 217.953 169.176L217.949 169.186L217.946 169.196C217.714 169.956 217.289 170.618 216.658 171.187L216.657 171.188C215.179 172.533 213.057 172.285 211.982 170.622C211.325 169.599 211.026 168.439 211.179 167.324C211.33 166.217 211.933 165.11 213.162 164.188L213.162 164.187C214.067 163.533 214.994 163.106 216.014 163.078C216.508 163.065 216.917 163.181 217.229 163.392C217.539 163.602 217.786 163.926 217.928 164.385L217.932 164.398L217.937 164.411C218.018 164.627 218.064 164.761 218.074 164.867L218.078 164.903L218.086 164.937C218.125 165.1 218.15 165.281 218.172 165.471C218.193 165.648 218.213 165.859 218.239 166.027L218.254 166.129L218.273 166.159Z" stroke="#72A45C"/>
<path d="M246.769 177.608C246.559 178.392 246.001 179.144 245.258 179.718C244.608 180.22 243.851 180.559 243.132 180.67L242.825 180.702C241.249 180.743 239.906 179.647 239.721 177.987C239.612 176.778 239.809 175.737 240.474 174.752L240.48 174.744L240.485 174.735L240.706 174.383C241.225 173.571 241.779 172.83 242.496 172.267L242.502 172.262C242.993 171.866 243.497 171.619 243.973 171.643L243.989 171.644L244.006 171.644L244.212 171.652C244.68 171.698 245.063 171.928 245.358 172.293L245.368 172.306L245.379 172.318C246.774 173.83 247.292 175.613 246.769 177.608Z" stroke="#72A45C"/>
</svg>
