<svg width="124" height="120" viewBox="0 0 124 120" fill="none" xmlns="http://www.w3.org/2000/svg">
<path d="M19.584 88.1508C15.9512 99.6227 22.2609 110.903 28.5704 115.492C34.3063 119.89 40.6157 120.654 47.3077 117.978C50.9404 116.448 54.5733 114.727 58.2061 113.007C61.6476 111.477 65.0892 110.139 68.9131 109.947C71.5899 109.947 74.0755 110.521 76.561 111.095C80.0026 111.859 83.4442 112.815 87.0769 113.389C96.0632 114.727 105.432 109.565 108.874 101.152C112.124 93.3132 111.741 85.6653 107.535 78.3997C101.799 68.2662 93.7688 60.8095 83.253 56.0296C70.0603 49.9112 56.8676 50.2936 44.0574 57.368C35.4535 62.1479 29.1439 69.031 24.1728 77.6349C22.2608 80.8853 20.7313 84.5181 19.7753 88.342L19.584 88.1508Z" fill="#DEE2E6"/>
<path d="M56.2926 37.2884C57.2486 33.2732 57.4398 29.2581 56.2926 25.2429C54.9542 20.0806 52.851 15.1094 49.7918 10.7119C48.6446 8.99107 47.1149 7.46148 45.3942 6.31429C42.5262 4.40231 39.4672 4.01992 36.2168 4.97591C32.7752 6.1231 30.0984 8.22628 27.804 10.7119C24.5537 14.1534 22.2593 18.3598 20.921 22.9485C19.009 29.6405 20.5386 35.7588 24.5538 41.3035C27.4217 45.1275 31.0544 47.9954 35.6431 49.3338C43.4822 51.6282 51.3213 47.9955 54.7629 40.5387C55.3365 39.3915 55.719 38.2444 56.1014 37.0972L56.2926 37.2884Z" fill="#DEE2E6"/>
<path d="M64.8954 13.2026C63.557 18.5561 62.601 22.9537 62.9834 27.3512C63.557 33.2783 65.6602 38.4407 70.4402 42.2647C75.7937 46.6622 83.2503 47.0446 88.9863 43.2206C93.3838 40.3527 96.2517 36.3375 97.9725 31.3664C100.84 23.1449 98.5461 15.8793 93.0014 9.56982C90.1334 6.12825 86.5007 3.45148 82.2944 1.9219C78.8528 0.583513 75.6023 0.201117 72.1608 1.9219C69.6752 3.26028 67.9546 5.55465 66.6162 8.04023C65.6602 9.9522 65.0864 12.0554 64.5128 13.0114L64.8954 13.2026Z" fill="#DEE2E6"/>
<path d="M98.7398 42.6464C97.975 46.4704 97.0191 49.9119 97.4015 53.3535C97.5927 56.2215 98.5487 58.8982 100.269 61.3838C104.476 67.5021 112.506 68.4581 117.86 63.2958C123.978 57.3686 125.89 48.1911 119.007 39.9696C116.521 37.1017 113.653 34.8073 110.021 33.8513C106.388 32.8953 103.137 34.0425 101.225 37.2929C100.843 37.8665 100.461 38.4401 100.269 39.0136C99.6959 40.1608 99.3134 41.4992 98.931 42.4552L98.7398 42.6464Z" fill="#DEE2E6"/>
<path d="M11.7448 72.6651C17.4807 74.1947 23.408 71.3267 25.5112 65.3995C26.8495 61.3844 27.0407 57.5604 25.5112 53.5453C24.364 50.1037 23.0256 46.6622 20.7312 43.7942C19.3928 42.0734 17.6719 40.5438 15.5687 40.1614C13.2743 39.5878 11.1713 40.1614 9.45048 41.4998C3.52334 45.515 0.272839 51.2509 0.464037 58.5164C0.655235 64.6348 6.00882 70.9443 11.7448 72.6651Z" fill="#DEE2E6"/>
</svg>
