<svg width="103" height="101" viewBox="0 0 103 101" fill="none" xmlns="http://www.w3.org/2000/svg">
<path d="M102.754 30.9702C101.772 37.3847 98.5933 41.8921 98.5933 41.8921L90.5608 37.3847C90.5608 37.3847 93.1612 34.3219 95.126 29.8145C97.4954 30.7968 100.096 31.2592 102.754 30.9702Z" fill="#665244"/>
<path d="M102.234 21.4929C103.159 24.9024 103.159 28.1385 102.696 30.9701C99.9802 31.2591 97.4375 30.7967 95.0682 29.8144C96.1084 27.3873 96.9752 24.4978 97.0908 21.4929C97.2642 16.1764 100.269 14.096 102.234 21.4929Z" fill="#FFECD6"/>
<path d="M69.2371 93.0343C69.2371 93.0343 71.1441 87.3711 71.1441 85.3485C71.1441 83.3259 70.1617 80.8988 68.9482 77.6627C68.6592 76.9692 68.3125 75.8713 67.908 74.6577C71.6064 78.0672 75.9405 80.841 80.7369 83.037C80.3902 87.6022 78.7721 95.0569 74.3225 97.484C72.0687 98.5242 70.7396 97.5996 70.7396 97.5996C70.7396 97.5996 68.8904 98.6398 67.7924 97.5996C67.7924 97.5996 65.3653 97.4262 65.7698 95.1725C66.4055 91.763 69.2371 92.9765 69.2371 92.9765V93.0343Z" fill="#FFECD6"/>
<path d="M80.7946 80.61C80.7946 81.2457 80.7946 82.1125 80.7369 83.0949C75.9404 80.899 71.5486 78.1252 67.9079 74.7157C67.619 73.9644 67.3878 73.0976 67.0989 72.2886C71.8375 72.9242 76.5761 75.2358 80.4479 78.0674C80.5635 78.7608 80.7369 79.5121 80.7946 80.61Z" fill="#CD6B3D"/>
<path d="M86.2845 65.9319C85.8222 67.0299 85.2443 68.0123 84.6086 68.9369C80.5634 74.7157 80.2167 76.3338 80.4479 78.0674C76.5761 75.2358 71.7797 72.8665 67.0988 72.2886C66.4632 70.2083 65.8275 68.1857 65.7119 67.2033C71.6063 64.1983 79.7544 65.643 86.2845 65.9319Z" fill="#AF502F"/>
<path d="M17.6324 49.9822C14.6274 52.6404 12.6626 54.4896 11.2179 56.2233C12.2003 52.5248 13.7606 49.5777 15.1475 47.0928C16.4766 47.5551 17.8635 47.9596 19.1926 48.3063C18.6725 48.942 18.1524 49.4621 17.6324 49.9822Z" fill="#CD6B3D"/>
<path d="M19.3081 35.1885L24.9714 35.0151C23.7578 39.7538 21.8508 44.8969 19.1348 48.3064C17.7478 47.9597 16.4187 47.5551 15.0896 47.0928C16.3031 44.9547 17.3433 43.1055 17.8056 41.3718C18.9614 37.0955 19.3081 35.1885 19.3081 35.1885Z" fill="#AF502F"/>
<path d="M94.7215 81.1875C94.7215 85.2327 93.3346 94.7099 88.1915 97.5416C85.9378 98.5817 84.6086 97.6571 84.6086 97.6571C84.6086 97.6571 82.7594 98.6973 81.6614 97.6571C81.6614 97.6571 79.2343 97.4838 79.6389 95.23C80.2745 91.8205 83.1061 93.0341 83.1061 93.0341C83.1061 93.0341 85.0131 87.3709 85.0131 85.3483C85.0131 83.3257 84.0308 80.8986 82.8172 77.6625C82.1815 75.9866 81.6614 73.5595 81.2569 71.5947C83.7996 75.5821 88.0759 78.9916 94.6638 81.1298L94.7215 81.1875Z" fill="#FFECD6"/>
<path d="M21.4463 69.9765C21.9664 68.9363 23.2377 71.3056 24.9714 72.3458C24.7402 75.0041 24.0468 83.0366 23.4689 86.7928C22.6021 92.2827 22.6021 98.5238 18.788 99.3328C16.881 99.564 16.1876 98.6394 16.1876 98.6394C16.1876 98.6394 15.6675 99.2173 14.6273 99.3906C15.0896 98.9861 15.4941 98.466 15.8986 97.8881C21.4463 89.5089 20.7528 79.8005 21.4463 70.0343V69.9765Z" fill="#F9D7BB"/>
<path d="M13.4138 99.3328C11.6802 98.9861 11.7958 97.4836 11.7958 97.4836C11.7958 97.4836 9.48425 98.3504 9.48425 94.5364C9.77319 91.936 14.1073 92.6294 14.1073 92.6294C14.1073 92.6294 13.356 87.4863 12.547 81.0718C11.738 74.6573 9.25309 68.3006 10.5244 59.4013C10.6978 58.3033 10.929 57.2631 11.1601 56.2807C12.6048 54.5471 14.5696 52.6979 17.5746 50.0396C18.1525 49.5773 18.6725 48.9994 19.1348 48.3638C24.6247 49.7507 30.1724 50.1552 35.6044 49.4618C39.2451 56.223 49.1268 61.1927 51.8429 65.4112C53.3454 67.7228 53.981 71.0167 54.2122 73.8483C51.9585 74.2528 49.8781 74.3106 47.8555 74.195C47.8555 74.195 46.8153 79.916 44.9083 86.0994C43.0013 92.2827 43.0591 94.3053 42.0189 96.9635C40.9787 99.6795 38.0315 101.124 34.9688 99.564C34.9688 99.564 32.5995 100.546 30.6347 98.7549C30.6347 98.7549 28.901 99.1017 28.7855 96.1545C28.7277 93.2073 33.6396 93.2073 33.6396 93.2073C33.6396 93.2073 33.3507 83.4411 33.813 78.6447C34.2753 73.8483 34.2753 72.4614 34.2753 72.4614C34.2753 72.4614 30.8658 72.6347 24.9714 71.479C24.9714 71.479 24.9714 71.8257 24.9136 72.3458C23.18 71.3056 21.9087 68.9363 21.3886 69.9765C20.6951 79.7427 21.3886 89.4511 15.8409 97.8303C15.4364 98.4082 15.0319 98.9283 14.5696 99.3328C14.2229 99.3328 13.8761 99.3328 13.4138 99.3328Z" fill="#FFECD6"/>
<path d="M36.7024 34.6104C35.0265 38.3666 33.7552 42.7007 34.5065 46.2835C34.7376 47.3237 35.1421 48.3639 35.6622 49.3463C30.2879 50.0398 24.6825 49.6352 19.1926 48.2483C21.9087 44.8388 23.7579 39.6957 25.0292 34.9571L36.7024 34.6104Z" fill="#F9D7BB"/>
<path d="M58.6618 37.6732C61.2623 38.0777 64.0939 38.3666 67.0988 38.3089C68.5435 43.9721 70.1038 49.6353 72.9354 54.6629C79.1188 65.816 91.9477 63.7356 102.061 58.1879C101.656 62.1753 100.5 66.0471 98.4778 68.9365C92.7567 77.1424 94.4904 76.9691 94.6637 80.6097C94.6637 80.7831 94.6637 81.0142 94.6637 81.1876C88.0759 79.0494 83.7996 75.6399 81.2569 71.6526C80.9102 69.9189 80.7368 68.532 80.7368 68.532C80.7368 68.532 80.3323 68.532 79.6389 68.4164C76.8072 68.1853 69.2948 67.9541 63.8627 70.439C60.1065 72.1726 56.9859 73.2128 54.2121 73.6751C53.981 70.8435 53.3453 67.5496 51.8428 65.2381C49.1268 61.0196 39.245 56.0498 35.6044 49.2886C44.2726 48.1906 52.4207 44.3766 58.6618 37.5576V37.6732Z" fill="#CD6B3D"/>
<path d="M36.7024 34.6104L47.162 34.2637C47.162 34.2637 51.9006 36.5174 58.6618 37.6732C52.4207 44.4922 44.2726 48.3062 35.6044 49.4041C35.0843 48.4217 34.6798 47.3816 34.4487 46.3414C33.6974 42.7585 34.9688 38.4244 36.6446 34.6682L36.7024 34.6104Z" fill="#AF502F"/>
<path d="M72.9355 54.663C70.1039 49.5776 68.5436 43.9722 67.0989 38.3089C67.9657 38.3089 68.8903 38.2511 69.8149 38.1356C74.0334 37.7311 77.8475 37.211 81.3147 37.0376C87.6714 36.6331 92.7568 37.0376 96.8019 40.1004C100.847 43.1631 102.812 50.9645 102.118 58.2458C92.0055 63.7357 79.1766 65.8738 72.9933 54.7207L72.9355 54.663Z" fill="#715D4D"/>
<path d="M32.8305 2.42254C32.8305 2.42254 25.1447 2.42255 20.2905 0.804485C15.4363 -0.81358 9.48417 2.94264 11.2178 13.8068C13.0092 24.6709 13.9916 28.0804 17.8056 30.4497C21.6197 32.819 24.2779 22.8217 28.0919 17.6786C31.8481 12.4777 43.059 3.52052 32.8305 2.48033V2.42254Z" fill="#AF502F"/>
<path d="M7.75058 12.5933C8.55961 12.5933 9.19527 12.5933 9.65758 12.5355C14.1073 13.5179 14.9163 11.3797 17.9791 7.2768C20.1172 4.3874 23.3533 1.84472 25.6649 0.226652C28.1498 -0.177864 31.0391 -0.0622915 34.5064 0.746741C33.1195 3.23163 30.5191 7.10343 26.5317 10.0506C20.2906 14.6737 16.9967 13.9224 18.4991 18.661C20.0016 23.3996 25.4915 27.9071 22.3709 32.7035C20.8107 35.1306 19.077 37.2688 17.6323 38.8291C14.5118 37.5577 11.449 35.9397 8.21288 34.4372C-0.224177 30.4498 0.180333 25.3644 0.00696888 21.4926C-0.108607 17.6786 1.16274 12.4777 7.635 12.6511L7.75058 12.5933Z" fill="#FFECD6"/>
<path d="M17.9212 7.21927C14.8584 11.38 14.0494 13.5182 9.59973 12.478C12.0268 12.1313 10.2354 10.5132 15.263 5.94792C18.7303 2.76958 21.793 0.804785 25.607 0.111328C23.2955 1.72939 20.1171 4.27207 17.9212 7.16148V7.21927Z" fill="#CD6B3D"/>
<path d="M18.4991 18.6033C16.9966 13.8646 20.2327 14.6159 26.5316 9.99284C30.4612 7.04565 33.0617 3.17385 34.5064 0.688965C34.7375 0.688965 34.9109 0.74676 35.0843 0.804548C44.3303 3.05828 47.3353 11.2642 47.6243 10.8597L49.4735 33.397C49.4735 33.397 48.1444 38.4246 35.0265 40.7361C28.0341 41.9496 22.7176 40.7361 17.6901 38.7135C19.077 37.1532 20.8106 35.0151 22.4287 32.588C25.4915 27.8493 20.0594 23.2841 18.5569 18.5455L18.4991 18.6033Z" fill="#CD6B3D"/>
<path d="M36.7024 22.533C37.1069 16.5808 34.6798 4.32971 40.4008 5.3699C41.2098 5.54326 42.25 5.94778 43.4636 6.75681C43.4636 6.75681 50.1092 11.9577 55.3679 13.9803C60.6266 15.9451 63.1115 23.1686 53.9232 30.9122C47.7977 36.0554 44.2726 38.7136 41.152 39.7538C39.5918 40.2739 38.0893 40.3895 36.4712 40.1583C31.5014 39.4648 36.2978 29.4675 36.7601 22.5907L36.7024 22.533Z" fill="#AF502F"/>
<path d="M39.0139 23.2263C39.4184 17.2741 37.0491 5.02307 42.5389 6.06326C43.348 6.23662 44.3304 6.64114 45.4861 7.45017C45.4861 7.45017 51.8428 12.6511 56.9282 14.6737C62.0135 16.6385 64.3828 23.862 55.5412 31.6056C49.6469 36.7487 46.2374 39.407 43.2324 40.4471C41.7299 40.9672 40.2852 41.0828 38.7249 40.8516C33.9863 40.1582 38.5516 30.1609 39.0139 23.2841V23.2263Z" fill="#CD6B3D"/>
<path d="M8.27068 14.1535C8.27068 14.1535 13.4138 15.4827 11.7958 16.8118C10.1777 18.1987 9.31086 18.8344 7.57721 18.5454C5.84357 18.1987 3.12754 12.5933 8.27068 14.1535Z" fill="black"/>
<path d="M7.98169 17.3896C7.98169 17.3896 7.17266 19.0655 7.11487 20.4524" stroke="black" stroke-width="0.6" stroke-linecap="round" stroke-linejoin="round"/>
<path d="M13.2982 21.2615C13.2982 21.2615 11.7379 23.0529 10.2354 22.5328C8.67512 22.0127 7.11485 20.4524 7.11485 20.4524C7.11485 20.4524 5.38121 21.4348 3.9943 20.9725C2.5496 20.5102 2.66516 18.3721 2.66516 18.3721" stroke="black" stroke-width="0.6" stroke-linecap="round" stroke-linejoin="round"/>
<path d="M5.84351 12.4781C9.25301 11.8424 12.9514 13.1715 15.9564 14.6162C16.1876 14.7318 15.9564 15.0785 15.7253 14.963C12.8359 13.576 9.19523 12.3047 5.9591 12.8826C5.67015 12.8826 5.55457 12.5359 5.84351 12.4781Z" fill="#715D4D"/>
<path d="M22.7177 18.0255C22.1976 18.8924 22.371 19.9903 23.0644 20.3949C23.7579 20.7994 24.7981 20.4527 25.3181 19.5858C25.8382 18.719 25.6649 17.621 24.9714 17.2165C24.278 16.812 23.2378 17.1587 22.7177 18.0255Z" fill="black"/>
<g opacity="0.2">
<path d="M38.9561 72.0571C32.0793 73.733 25.3759 71.826 18.9036 69.5145C18.6725 69.3989 18.7303 69.0522 19.0192 69.11C25.6648 70.7858 31.9059 73.3285 38.8983 71.826C39.0716 71.826 39.1294 71.9993 38.9561 72.0571Z" fill="#715D4D"/>
</g>
<path opacity="0.2" d="M36.0667 97.5416C36.0089 99.4486 34.1019 100.142 32.4839 99.622C31.5593 99.3331 30.6347 98.813 30.1146 98.004C29.5945 97.1949 30.1146 95.9236 30.4613 95.1723C30.5769 94.8834 31.0392 95.1146 30.9236 95.4035C30.7502 95.9814 30.5769 96.5015 30.5191 97.0793C30.4035 98.0617 31.3859 98.5818 32.1371 98.9863C33.6396 99.7954 35.4311 99.4487 35.8934 97.5994C35.8934 97.4839 36.1245 97.4839 36.1245 97.5994L36.0667 97.5416Z" fill="#715D4D"/>
<path opacity="0.2" d="M30.8079 98.5822C30.0567 98.9289 29.3632 98.2933 28.9587 97.6576C28.5542 96.9641 28.4964 95.7506 28.9587 95.0571C29.0165 94.9416 29.2477 94.9994 29.2477 95.1149C29.2477 95.6928 29.0743 96.2129 29.1321 96.7908C29.2477 97.5998 29.8833 98.4088 30.7502 98.351C30.8657 98.351 30.9235 98.5244 30.8079 98.5822Z" fill="#715D4D"/>
<path opacity="0.2" d="M37.8581 94.3636C35.6621 93.728 33.2351 93.2657 31.0391 94.0169C30.8657 94.0169 30.7502 93.7858 30.9235 93.728C32.9461 92.6878 35.9511 93.3813 37.9159 94.1903C38.0315 94.1903 37.9737 94.4214 37.9159 94.3636H37.8581Z" fill="#715D4D"/>
<path opacity="0.2" d="M16.9389 96.9638C17.1701 99.0442 15.0319 100.142 13.356 99.3332C11.738 98.6397 11.1601 96.0392 12.4892 94.7679C12.7204 94.5945 13.0093 94.7679 12.8938 95.0568C12.3159 96.1548 12.0847 97.4839 13.0671 98.4663C14.3962 99.7955 16.7078 98.8131 16.65 96.906C16.65 96.7327 16.9389 96.7327 16.9389 96.906V96.9638Z" fill="#715D4D"/>
<path opacity="0.2" d="M17.1123 93.1496C16.1299 92.9762 15.0897 92.7451 14.1073 92.6295C12.8938 92.5139 11.9114 92.8029 10.8134 93.2652C10.64 93.323 10.5245 93.0918 10.64 92.9762C12.3737 91.3004 15.2053 92.3406 17.1701 92.9184C17.3434 92.9184 17.2856 93.2074 17.1123 93.1496Z" fill="#715D4D"/>
<g opacity="0.2">
<path d="M22.1398 96.155C21.562 97.3107 21.0419 98.3509 19.8861 98.9288C18.9615 99.3911 17.6902 99.2755 16.7655 99.0444C16.5922 99.0444 16.65 98.6976 16.7655 98.6976C17.6902 98.6976 18.4992 98.871 19.366 98.6976C20.6373 98.3509 21.1574 97.0218 21.9087 96.0972C21.9665 95.9816 22.1398 96.0972 22.082 96.2128L22.1398 96.155Z" fill="#715D4D"/>
</g>
<path opacity="0.2" d="M12.0847 97.7728C11.3335 97.9462 10.4667 97.7728 10.0044 97.1949C9.36869 96.3281 9.42648 95.2302 9.65763 94.19C9.65763 94.0166 9.94657 94.0744 9.94657 94.19C9.94657 95.0568 9.71542 95.808 10.0622 96.6171C10.4667 97.5417 11.2179 97.5417 12.0847 97.5417C12.2003 97.5417 12.2003 97.715 12.0847 97.7728Z" fill="#715D4D"/>
<path opacity="0.2" d="M35.0844 99.3332C36.1246 100.2 38.6095 99.7377 39.7074 99.1598C41.3255 98.293 41.73 96.3282 42.0189 94.6524C42.0189 94.3634 42.539 94.4212 42.539 94.7102C42.539 96.7905 41.5566 98.8709 39.6496 99.7955C38.4361 100.431 35.8934 100.605 34.911 99.5066C34.7955 99.391 34.911 99.2176 35.0844 99.3332Z" fill="#715D4D"/>
<path opacity="0.2" d="M85.2443 95.8082C85.1287 96.4439 85.071 97.1951 84.6087 97.7152C84.1464 98.2931 83.5107 98.3509 82.875 98.2931C82.1816 98.2353 81.3725 97.773 81.1414 97.0796C80.7947 96.0972 81.4303 95.3459 81.8926 94.5369C82.0082 94.3057 82.4127 94.4791 82.2971 94.7102C82.1238 95.2303 81.7193 95.6927 81.5459 96.2705C81.1992 97.3107 82.5283 97.8308 83.2795 97.8886C84.4931 97.9464 84.6664 96.675 85.0132 95.8082C85.0132 95.6926 85.2443 95.6926 85.2443 95.866V95.8082Z" fill="#715D4D"/>
<path opacity="0.2" d="M81.4881 97.5996C80.8524 97.5418 80.2746 97.3107 79.8123 96.9062C79.35 96.5016 79.1766 95.8082 79.5811 95.2881C79.6967 95.1725 79.8701 95.2881 79.8701 95.4037C79.8701 95.9238 79.7545 96.2705 80.159 96.675C80.5057 97.0217 81.0258 97.1951 81.4881 97.3107C81.6615 97.3107 81.6037 97.5996 81.4881 97.5996Z" fill="#715D4D"/>
<path opacity="0.2" d="M84.7821 97.5999C85.5333 98.1778 87.3247 97.7733 88.1338 97.5999C89.694 97.1954 90.7342 95.2884 91.5433 94.0171C91.6588 93.8437 92.0056 93.9593 91.9478 94.1904C91.3121 95.8085 89.983 97.4843 88.3071 98.12C87.3825 98.4667 85.4177 98.5823 84.6665 97.8311C84.6087 97.7733 84.6665 97.5999 84.7821 97.6577V97.5999Z" fill="#715D4D"/>
<path opacity="0.2" d="M77.2696 95.1147C76.2294 96.4439 74.8425 97.7152 73.1089 98.0619C72.3576 98.2353 70.6818 98.5242 70.4506 97.484C70.3928 97.1951 70.7396 97.0217 70.9129 97.3107C71.3174 98.0619 72.8777 97.5996 73.5134 97.484C74.8425 97.1951 76.1716 95.9238 77.0963 94.9992C77.2118 94.8836 77.3852 94.9992 77.2696 95.1725V95.1147Z" fill="#715D4D"/>
<path opacity="0.2" d="M71.5486 96.2702C71.3174 96.9637 71.144 97.5416 70.5084 98.0039C69.9305 98.4084 69.1215 98.4662 68.428 98.2928C66.9255 97.9461 66.521 96.4436 67.619 95.3456C67.7345 95.2301 68.0813 95.3456 67.9657 95.5768C67.7923 96.0969 67.33 96.617 67.619 97.1948C67.8501 97.6571 68.6014 97.8883 69.0637 97.8883C69.526 97.8883 69.9883 97.7727 70.3928 97.5416C70.8551 97.3104 70.9707 96.617 71.3174 96.2125C71.3752 96.1547 71.5486 96.2124 71.4908 96.328L71.5486 96.2702Z" fill="#715D4D"/>
<path d="M83.5106 78.0095C79.6966 70.786 78.4253 62.2334 80.2167 54.2586C80.2167 54.143 80.3901 54.2008 80.3901 54.2586C79.6966 62.6957 80.1589 70.0347 83.7996 77.8361C83.8574 78.0095 83.5685 78.1829 83.4529 78.0095H83.5106Z" fill="#665244"/>
<path d="M46.9887 77.6048C47.7399 73.6752 48.6646 69.8612 49.3002 65.9316C50.1093 61.1352 50.3982 56.9744 49.8781 52.1202C49.8781 51.9469 50.167 51.8891 50.167 52.1202C51.554 60.904 49.0691 69.1099 47.1621 77.7203C47.1621 77.8937 46.9309 77.7781 46.9309 77.6626L46.9887 77.6048Z" fill="#665244"/>
</svg>
