<svg width="97" height="40" viewBox="0 0 97 40" fill="none" xmlns="http://www.w3.org/2000/svg">
<g clip-path="url(#clip0_8141_2087)">
<path d="M71.5267 26.4527V24.0613H71.8447V25.0415H73.0895V24.0613H73.4074V26.4527H73.0895V25.327H71.8447V26.4527H71.5267Z" fill="white"/>
<path d="M74.2481 25.2838C74.2481 24.8852 74.3559 24.5782 74.566 24.352C74.7816 24.1258 75.0564 24.0127 75.3905 24.0127C75.7247 24.0127 75.8109 24.0666 75.9887 24.1689C76.1665 24.2766 76.3013 24.422 76.3929 24.6105C76.4845 24.7991 76.533 25.0145 76.533 25.2515C76.533 25.4885 76.4845 25.7093 76.3875 25.9032C76.2905 26.0971 76.1504 26.2371 75.9726 26.3395C75.7947 26.4364 75.6007 26.4849 75.3905 26.4849C75.1804 26.4849 74.9648 26.431 74.787 26.3233C74.6092 26.2156 74.4744 26.0648 74.3828 25.8763C74.2912 25.6878 74.2481 25.4885 74.2481 25.2784V25.2838ZM74.5768 25.2892C74.5768 25.58 74.6523 25.8063 74.8085 25.9732C74.9648 26.1402 75.1588 26.221 75.3905 26.221C75.6223 26.221 75.827 26.1348 75.9779 25.9678C76.1342 25.8009 76.2097 25.5639 76.2097 25.2569C76.2097 24.9499 76.1773 24.8906 76.1127 24.7452C76.048 24.5998 75.951 24.4867 75.8217 24.4059C75.6923 24.3251 75.5522 24.2874 75.3959 24.2874C75.1696 24.2874 74.981 24.3628 74.8193 24.519C74.6577 24.6752 74.5768 24.9283 74.5768 25.2892Z" fill="white"/>
<path d="M77.2498 25.6823L77.5461 25.6554C77.5623 25.7739 77.5946 25.8709 77.6431 25.9516C77.697 26.0271 77.7725 26.0917 77.8856 26.1402C77.9934 26.1886 78.1174 26.2102 78.2521 26.2102C78.3868 26.2102 78.4784 26.194 78.57 26.1563C78.6616 26.1186 78.7317 26.0701 78.7748 26.0109C78.8179 25.9463 78.8449 25.8816 78.8449 25.8062C78.8449 25.7308 78.8233 25.6662 78.7802 25.6069C78.7371 25.5531 78.667 25.5046 78.5646 25.4669C78.5 25.44 78.3599 25.4023 78.1389 25.3484C77.918 25.2945 77.7671 25.2461 77.6755 25.1976C77.5623 25.1384 77.4761 25.0629 77.4222 24.9768C77.3683 24.8906 77.336 24.7883 77.336 24.6805C77.336 24.5728 77.3683 24.4489 77.4384 24.3412C77.5084 24.2335 77.6054 24.1581 77.7401 24.1042C77.8695 24.0504 78.0204 24.0234 78.182 24.0234C78.3437 24.0234 78.5161 24.0504 78.6509 24.1096C78.7856 24.1689 78.888 24.2497 78.9634 24.3628C79.0389 24.4759 79.0766 24.5997 79.082 24.7398L78.7802 24.7613C78.764 24.6105 78.7101 24.4974 78.6131 24.4166C78.5215 24.3412 78.3814 24.2981 78.1982 24.2981C78.015 24.2981 77.8695 24.3358 77.7779 24.4058C77.6916 24.4759 77.6485 24.562 77.6485 24.659C77.6485 24.7559 77.6809 24.8152 77.7401 24.8691C77.7994 24.9229 77.9611 24.9822 78.2198 25.0414C78.4784 25.1006 78.6563 25.1491 78.7479 25.1922C78.888 25.2568 78.9904 25.3376 79.055 25.4346C79.1197 25.5315 79.152 25.6446 79.152 25.7739C79.152 25.9032 79.1143 26.0217 79.0443 26.1348C78.9688 26.2479 78.8664 26.3341 78.7317 26.3987C78.597 26.4633 78.4407 26.4903 78.2683 26.4903C78.0958 26.4903 77.8695 26.4579 77.724 26.3933C77.5785 26.3287 77.4653 26.2371 77.3791 26.1078C77.2983 25.9786 77.2498 25.8385 77.2498 25.677V25.6823Z" fill="white"/>
<path d="M79.998 26.4527V24.0613H80.9034C81.0597 24.0613 81.1836 24.0667 81.2698 24.0828C81.3884 24.1044 81.4854 24.1421 81.5662 24.1959C81.647 24.2498 81.7117 24.3252 81.7602 24.4275C81.8087 24.5245 81.8357 24.6376 81.8357 24.7561C81.8357 24.9607 81.771 25.1331 81.6417 25.2731C81.5123 25.4132 81.2806 25.4832 80.9411 25.4832H80.3268V26.4581H80.0088L79.998 26.4527ZM80.316 25.1977H80.9357C81.1405 25.1977 81.286 25.16 81.3722 25.0846C81.4584 25.0092 81.5015 24.9015 81.5015 24.7615C81.5015 24.6214 81.4746 24.5783 81.4261 24.5029C81.3776 24.4329 81.3075 24.3844 81.2267 24.3629C81.1728 24.3467 81.0758 24.3414 80.9303 24.3414H80.316V25.1977Z" fill="white"/>
<path d="M82.6979 26.4527V24.0613H83.0158V26.4527H82.6979Z" fill="white"/>
<path d="M84.5894 26.4527V24.3414H83.8026V24.0613H85.6995V24.3414H84.9073V26.4527H84.5894Z" fill="white"/>
<path d="M85.9258 26.4527L86.8473 24.0613H87.1868L88.1676 26.4527H87.8066L87.5263 25.7256H86.524L86.26 26.4527H85.9258ZM86.6156 25.467H87.4293L87.1815 24.8046C87.106 24.6053 87.0467 24.4383 87.009 24.309C86.9767 24.4598 86.9336 24.616 86.8797 24.7669L86.6156 25.467Z" fill="white"/>
<path d="M88.8196 26.4527V24.0613H89.1376V26.1726H90.3178V26.4527H88.8196Z" fill="white"/>
<path d="M72.2003 30.4598L71.2734 28.0684H71.6183L72.2381 29.8081C72.2866 29.9481 72.3297 30.0774 72.362 30.2012C72.3997 30.072 72.4428 29.9427 72.4913 29.8081L73.138 28.0684H73.4613L72.5237 30.4598H72.2003Z" fill="white"/>
<path d="M74.1673 30.4598V28.0684H75.8971V28.3484H74.4852V29.0809H75.8109V29.361H74.4852V30.1743H75.9564V30.4544H74.1673V30.4598Z" fill="white"/>
<path d="M77.4114 30.4598V28.3484H76.6246V28.0684H78.5215V28.3484H77.7294V30.4598H77.4114Z" fill="white"/>
<path d="M79.2651 30.4598V28.0684H80.995V28.3484H79.5831V29.0809H80.9087V29.361H79.5831V30.1743H81.0542V30.4544H79.2651V30.4598Z" fill="white"/>
<path d="M81.9057 30.4598V28.0684H82.9673C83.1829 28.0684 83.3445 28.0899 83.4523 28.133C83.5601 28.1761 83.6517 28.2515 83.7164 28.3592C83.781 28.4669 83.8134 28.5908 83.8134 28.7201C83.8134 28.8493 83.7595 29.0325 83.6463 29.151C83.5385 29.2695 83.3661 29.3395 83.1344 29.3718C83.2206 29.4095 83.2799 29.4526 83.323 29.4903C83.4146 29.5765 83.5008 29.6788 83.587 29.8081L84.002 30.4598H83.6032L83.2852 29.9643C83.1936 29.8188 83.1182 29.7111 83.0589 29.6357C82.9996 29.5603 82.9457 29.5064 82.8972 29.4741C82.8487 29.4418 82.8002 29.4203 82.7517 29.4095C82.714 29.4041 82.6548 29.3987 82.5739 29.3987H82.2075V30.4598H81.8895H81.9057ZM82.2182 29.124H82.8972C83.0427 29.124 83.1559 29.1079 83.2367 29.0809C83.3176 29.054 83.3822 29.0055 83.4254 28.9355C83.4685 28.8709 83.49 28.7955 83.49 28.7201C83.49 28.607 83.4469 28.5154 83.3661 28.44C83.2852 28.3646 83.1559 28.3323 82.9781 28.3323H82.2182V29.124Z" fill="white"/>
<path d="M84.778 30.4598V28.0684H85.096V30.4598H84.778Z" fill="white"/>
<path d="M86.0605 30.4598V28.0684H86.3839L87.6395 29.9481V28.0684H87.9413V30.4598H87.6179L86.3623 28.58V30.4598H86.0605Z" fill="white"/>
<path d="M88.631 30.4597L89.5525 28.0683H89.892L90.8728 30.4597H90.5118L90.2315 29.7326H89.2292L88.9652 30.4597H88.631ZM89.3208 29.4795H90.1345L89.8867 28.817C89.8112 28.6177 89.7519 28.4507 89.7142 28.3215C89.6819 28.4723 89.6388 28.6285 89.5849 28.7793L89.3208 29.4795ZM89.5202 27.9229L89.7358 27.4651H90.1238L89.7627 27.9229H89.5202Z" fill="white"/>
<path d="M91.5411 30.4598V28.0684H92.6027C92.8182 28.0684 92.9799 28.0899 93.0877 28.133C93.1955 28.1761 93.2871 28.2515 93.3517 28.3592C93.4164 28.4669 93.4487 28.5908 93.4487 28.7201C93.4487 28.8493 93.3948 29.0325 93.2817 29.151C93.1739 29.2695 93.0015 29.3395 92.7697 29.3718C92.856 29.4095 92.9152 29.4526 92.9583 29.4903C93.05 29.5765 93.1362 29.6788 93.2224 29.8081L93.6373 30.4598H93.2386L92.9206 29.9643C92.829 29.8188 92.7536 29.7111 92.6943 29.6357C92.635 29.5603 92.5811 29.5064 92.5326 29.4741C92.4841 29.4418 92.4356 29.4203 92.3871 29.4095C92.3494 29.4041 92.2901 29.3987 92.2093 29.3987H91.8428V30.4598H91.5249H91.5411ZM91.8536 29.124H92.5326C92.6781 29.124 92.7913 29.1079 92.8721 29.0809C92.953 29.054 93.0176 29.0055 93.0607 28.9355C93.1038 28.8709 93.1254 28.7955 93.1254 28.7201C93.1254 28.607 93.0823 28.5154 93.0015 28.44C92.9206 28.3646 92.7913 28.3323 92.6135 28.3323H91.8536V29.124Z" fill="white"/>
<path d="M94.4133 30.4598V28.0684H94.7313V30.4598H94.4133Z" fill="white"/>
<path d="M95.6042 29.2965C95.6042 28.8979 95.712 28.5909 95.9222 28.3647C96.1377 28.1385 96.4126 28.0254 96.7467 28.0254C97.0808 28.0254 97.167 28.0793 97.3449 28.1816C97.5227 28.2893 97.6574 28.4347 97.749 28.6232C97.8406 28.8118 97.8891 29.0272 97.8891 29.2642C97.8891 29.5012 97.8406 29.722 97.7436 29.9159C97.6466 30.1098 97.5065 30.2498 97.3287 30.3522C97.1509 30.4491 96.9569 30.4976 96.7467 30.4976C96.5365 30.4976 96.321 30.4437 96.1431 30.336C95.9653 30.2283 95.8306 30.0775 95.739 29.889C95.6474 29.7005 95.6042 29.5012 95.6042 29.2911V29.2965ZM95.933 29.3019C95.933 29.5927 96.0084 29.819 96.1647 29.9859C96.321 30.1529 96.515 30.2337 96.7467 30.2337C96.9784 30.2337 97.1832 30.1475 97.3341 29.9805C97.4904 29.8136 97.5658 29.5766 97.5658 29.2696C97.5658 28.9626 97.5335 28.9033 97.4688 28.7579C97.4041 28.6125 97.3071 28.4994 97.1778 28.4186C97.0485 28.3378 96.9084 28.3001 96.7521 28.3001C96.5258 28.3001 96.3371 28.3755 96.1755 28.5317C96.0138 28.6879 95.933 28.941 95.933 29.3019Z" fill="white"/>
<path d="M39.964 24.5945C40.0017 24.0828 40.0071 23.5604 40.0071 23.0541C40.0071 21.0235 40.0071 18.9984 40.0071 16.9678C40.0071 15.7344 39.9963 14.4633 39.5059 13.3376C38.9347 12.0288 37.7114 11.027 36.3157 10.7254C35.2595 10.4991 34.1656 10.6553 33.0878 10.6392C32.01 10.623 30.846 10.3914 30.1347 9.57813C28.9006 8.17237 29.6604 5.99101 29.391 4.14359C29.1593 2.53316 28.0276 1.08969 26.5241 0.470297C25.3924 0.00709569 24.1314 0.00170898 22.9082 0.00170898C20.8766 0.00170898 18.8503 0.00709571 16.8187 0.0124818C15.6332 0.0124818 14.4045 0.0232532 13.3267 0.513385C11.7532 1.22435 10.7293 2.9048 10.5892 4.62295C10.4491 6.34649 11.0203 8.35011 9.85628 9.63199C9.1665 10.3914 8.06178 10.6176 7.0325 10.6284C6.00322 10.6392 4.96856 10.483 3.95544 10.6661C2.43039 10.9408 1.07778 12.0234 0.479611 13.4561C0 14.5926 0 15.8637 0 17.1025C0 19.1492 0.0107778 21.1905 0.0161667 23.2372C0.0161667 24.9392 0.156278 26.4958 1.26639 27.8477C2.231 29.0218 3.91772 29.3342 5.35656 29.3396C6.66606 29.345 8.07794 29.1403 9.03717 28.2462C9.99639 27.3521 10.2982 25.9733 10.5946 24.6968C11.5592 20.598 13.095 16.5262 15.8595 13.3538C18.4893 10.3376 22.3801 8.22623 26.3571 8.3932C26.7181 8.40935 26.9606 8.71636 26.8959 9.07184C26.7666 9.8205 26.5187 10.5315 26.2547 11.2478C26.1415 11.5494 26.1415 11.8888 26.2762 12.1742C26.5349 12.7128 27.1277 12.9444 27.5965 13.2568C28.2054 13.6608 28.7282 14.194 29.1377 14.8026C29.2455 14.9588 30.1239 16.4292 29.6658 16.4077C29.5365 16.4023 29.4018 16.4077 29.2778 16.44C29.0246 16.4938 28.9599 16.8278 29.1701 16.9786L34.4134 20.7596C34.5104 20.8296 34.5589 20.9535 34.532 21.072C34.1709 22.5047 33.0932 23.7058 31.7837 24.3952C30.4149 25.1169 28.8144 25.3162 27.2678 25.1923C26.2762 25.1115 25.3763 25.4939 25.9313 26.6196C27.1977 29.1888 30.1993 29.4042 32.7213 29.4581C35.0008 29.5066 37.636 29.3881 39.0156 27.573C39.6568 26.7274 39.8832 25.6771 39.9586 24.5999L39.964 24.5945Z" fill="white"/>
<path d="M15.4068 39.9555C16.0427 40.0093 16.684 40.0039 17.3253 40.0039C19.3515 39.9932 21.3777 39.977 23.3986 39.9662C24.5626 39.9608 25.7643 39.9447 26.8205 39.4492C28.1246 38.8405 29.0461 37.521 29.2778 36.099C29.5096 34.6771 29.0892 33.1852 28.2486 32.0164C26.6966 29.862 23.9267 28.8817 22.2777 26.8027C21.7334 26.1133 21.3131 25.2892 21.4424 24.3682C21.4693 24.1635 21.534 23.9588 21.6364 23.7811C22.2723 22.6177 23.6465 22.7955 24.7727 22.4992C25.9206 22.1976 26.993 21.3251 27.3217 20.1455C27.4833 19.5584 27.187 18.9929 26.7882 18.5782C26.5834 18.3627 26.3409 18.1742 26.0876 18.0126C25.9745 17.9372 25.4248 17.7056 25.705 17.5225C25.7966 17.4632 25.9421 17.5548 26.0337 17.5548C26.1253 17.5548 26.217 17.5548 26.3086 17.5548C26.6858 17.5548 26.0337 16.6338 25.9475 16.5207C25.6296 16.0952 25.2362 15.7289 24.7889 15.4489C24.3578 15.1796 23.8674 14.9803 23.5387 14.5925C22.9297 13.8761 23.0806 12.9066 23.2046 12.0233C23.2423 11.7594 22.9998 11.5332 22.7411 11.6032C20.4293 12.2064 18.4408 14.0269 17.1475 15.9228C14.0435 20.4525 12.1519 25.7039 11.0311 31.0523C10.3574 34.2624 10.1149 38.6736 14.0596 39.7346C14.5015 39.8531 14.9542 39.9231 15.4122 39.9608L15.4068 39.9555Z" fill="white"/>
<path d="M94.6989 24.713H93.5187V24.6806C93.8798 24.2498 94.1007 23.9589 94.1762 23.8135C94.2516 23.6627 94.2947 23.5173 94.2947 23.3772C94.2947 23.2372 94.2624 23.1887 94.1977 23.1187C94.1331 23.0487 94.0576 23.0164 93.9606 23.0164C93.8097 23.0164 93.6912 23.0918 93.605 23.2426L93.5511 23.221C93.605 23.0325 93.6858 22.8925 93.7936 22.8009C93.9013 22.7093 94.0253 22.6663 94.1708 22.6663C94.3163 22.6663 94.3648 22.6878 94.451 22.7363C94.5372 22.7848 94.6019 22.8494 94.645 22.9302C94.6935 23.011 94.7151 23.0918 94.7151 23.1618C94.7151 23.291 94.6773 23.4257 94.6073 23.5603C94.5103 23.7435 94.2893 23.9966 93.9552 24.3198H94.3863C94.4941 24.3198 94.5642 24.3198 94.5965 24.309C94.6289 24.2982 94.6558 24.2875 94.6774 24.2659C94.6989 24.2444 94.7259 24.2013 94.7582 24.1313H94.8121L94.6989 24.7076V24.713Z" fill="white"/>
<path d="M95.033 23.9589L95.9868 22.6716H96.1647V23.9589H96.3479V24.2659H96.1647V24.713H95.7605V24.2659H95.033V23.9589ZM95.1785 23.9589H95.7605V23.1671L95.1785 23.9589Z" fill="white"/>
<path d="M97.1401 22.7092V23.5064C97.2155 23.4256 97.2856 23.3717 97.3502 23.3394C97.4149 23.3071 97.4796 23.2909 97.5442 23.2909C97.6089 23.2909 97.7059 23.3179 97.7652 23.3663C97.8245 23.4148 97.8676 23.4741 97.8891 23.5387C97.9107 23.6033 97.9215 23.7164 97.9215 23.8726V24.4112C97.9215 24.5189 97.9322 24.5836 97.9484 24.6105C97.97 24.6374 98.0077 24.6536 98.067 24.659V24.7128H97.3664V24.659C97.4149 24.6536 97.4526 24.6321 97.4796 24.5997C97.4957 24.5728 97.5065 24.5136 97.5065 24.4112V23.7972C97.5065 23.6841 97.5065 23.6141 97.4957 23.5818C97.485 23.5548 97.4742 23.5279 97.4526 23.5118C97.4311 23.4956 97.4095 23.4848 97.3826 23.4848C97.3448 23.4848 97.3071 23.501 97.2694 23.5279C97.2317 23.5548 97.194 23.6033 97.1509 23.6679V24.4058C97.1509 24.5028 97.1562 24.5674 97.1724 24.589C97.1886 24.6213 97.2317 24.6428 97.2856 24.6536V24.7075H96.585V24.6536C96.6443 24.6482 96.682 24.6267 96.709 24.5997C96.7251 24.5782 96.7359 24.5136 96.7359 24.4112V23.0109C96.7359 22.9085 96.7251 22.8439 96.709 22.8169C96.6874 22.79 96.6497 22.7739 96.5904 22.7685V22.7146H97.1509L97.1401 22.7092Z" fill="white"/>
<path d="M97.1239 25.2893L97.0754 25.3593L96.8544 25.1977L96.9029 25.1277L97.1239 25.2893Z" fill="white"/>
<path d="M96.1809 25.9302L96.1 25.9571L96.0084 25.6986L96.0893 25.6716L96.1809 25.9302Z" fill="white"/>
<path d="M95.0654 26.1241H94.9791L94.9845 25.8494H95.0707L95.0654 26.1241Z" fill="white"/>
<path d="M93.9606 25.9139L93.8852 25.8816L93.9876 25.6284L94.063 25.6607L93.9606 25.9139Z" fill="white"/>
<path d="M93.0068 25.2946L92.9475 25.2354L93.1415 25.0469L93.2008 25.1061L93.0068 25.2946Z" fill="white"/>
<path d="M92.4032 24.3252L92.3763 24.2444L92.635 24.1636L92.6619 24.2444L92.4032 24.3252Z" fill="white"/>
<path d="M92.3386 23.178L92.3547 23.0972L92.6188 23.1564L92.6026 23.2372L92.3386 23.178Z" fill="white"/>
<path d="M92.8451 22.1437L92.899 22.0791L93.1038 22.2568L93.0499 22.3215L92.8451 22.1437Z" fill="white"/>
<path d="M93.7343 21.4488L93.8098 21.4111L93.9283 21.6589L93.8529 21.6966L93.7343 21.4488Z" fill="white"/>
<path d="M94.8229 21.1473H94.9091C94.9091 21.1419 94.9306 21.4112 94.9306 21.4112H94.8444C94.8444 21.4166 94.8229 21.1473 94.8229 21.1473Z" fill="white"/>
<path d="M95.9491 21.2495L96.0299 21.2711L95.9545 21.5296L95.8737 21.508L95.9491 21.2495Z" fill="white"/>
<path d="M96.9569 21.772L97.0215 21.8258L96.8491 22.0359L96.7844 21.982L96.9569 21.772Z" fill="white"/>
<path d="M97.5712 24.993L97.6089 25.0307C97.6359 25.0522 97.652 25.0845 97.6682 25.1169C97.6736 25.1438 97.679 25.1653 97.6682 25.1815C97.6574 25.203 97.6305 25.2461 97.582 25.3C96.9784 25.984 96.0677 26.3772 95.0762 26.3772C93.3355 26.3772 91.9183 25.1438 91.9183 23.6303C91.9183 22.1168 93.3355 20.8834 95.0762 20.8834C96.8168 20.8834 97.167 21.3628 97.749 22.1653C97.8029 22.2299 97.8353 22.2784 97.8353 22.3107C97.8353 22.3538 97.8137 22.3969 97.7706 22.4346L97.7275 22.4669L97.7544 22.4992L98.2448 22.0899L98.2179 22.0576L98.1801 22.0899C98.1532 22.1114 98.1209 22.1276 98.0885 22.133C98.0616 22.133 98.04 22.133 98.0239 22.1276C98.0023 22.1168 97.9646 22.0791 97.9215 22.0253C97.2964 21.1743 96.2401 20.668 95.0869 20.668C93.2278 20.668 91.7189 21.9929 91.7189 23.6249C91.7189 25.2569 93.2278 26.5819 95.0869 26.5819C96.9461 26.5819 97.1078 26.1618 97.7544 25.4346C97.8137 25.37 97.8568 25.3377 97.8838 25.3323C97.9269 25.3269 97.9754 25.3431 98.0185 25.3808L98.0562 25.4185L98.0831 25.3862L97.6089 24.9607L97.582 24.993H97.5712Z" fill="white"/>
<path d="M54.2769 9.84744L54.4924 12.4705H54.2769C54.0613 11.8187 53.7811 11.3232 53.4362 10.9947C52.9404 10.5153 52.3045 10.2783 51.5285 10.2783C50.7525 10.2783 49.664 10.6984 49.1143 11.5333C48.6509 12.2389 48.4245 13.0791 48.4245 14.054C48.4245 15.0288 48.5754 15.5674 48.8826 16.2245C49.1897 16.8763 49.5885 17.3556 50.0843 17.6626C50.5801 17.9642 51.092 18.1204 51.6147 18.1204C52.1375 18.1204 52.2183 18.0827 52.5039 18.0019C52.7895 17.9265 53.0644 17.808 53.3338 17.6572V15.2551C53.3338 14.8403 53.3015 14.5656 53.2368 14.4364C53.1721 14.3071 53.0751 14.2102 52.9404 14.1401C52.8057 14.0755 52.574 14.0378 52.2399 14.0378V13.8062H55.457V14.0378H55.3061C54.9882 14.0378 54.7672 14.1455 54.6487 14.3556C54.5679 14.5064 54.5247 14.8026 54.5247 15.2497V17.7919C54.0559 18.045 53.5925 18.2282 53.1344 18.3467C52.6764 18.4651 52.1698 18.5244 51.6094 18.5244C50.0035 18.5244 48.7856 18.0073 47.9503 16.9786C47.3252 16.2084 47.0126 15.3143 47.0126 14.3071C47.0126 13.2999 47.1905 12.8744 47.5407 12.2065C47.9557 11.4094 48.5269 10.7954 49.2544 10.3699C49.8634 10.0144 50.5801 9.83667 51.41 9.83667C52.2399 9.83667 51.9866 9.8636 52.2345 9.91208C52.4824 9.96055 52.8326 10.0683 53.2853 10.2352C53.5116 10.3214 53.6679 10.3645 53.7434 10.3645C53.8188 10.3645 53.8889 10.3268 53.9427 10.2568C53.9966 10.1868 54.029 10.0467 54.0451 9.83667H54.2715L54.2769 9.84744Z" fill="white"/>
<path d="M61.6273 10.2621V10.0359H64.5697V10.2621H64.2571C63.9284 10.2621 63.6805 10.3968 63.5027 10.6714C63.4164 10.8007 63.3733 11.0916 63.3733 11.5548V14.921C63.3733 15.7559 63.2925 16.4022 63.1254 16.86C62.9584 17.3178 62.6351 17.711 62.1501 18.0396C61.6651 18.3681 61.0076 18.5351 60.1723 18.5351C59.337 18.5351 58.5772 18.3789 58.1084 18.0611C57.6395 17.7487 57.3054 17.3232 57.1114 16.7954C56.9821 16.4345 56.9174 15.7505 56.9174 14.7487V11.5009C56.9174 10.9892 56.8474 10.6553 56.7073 10.4991C56.5672 10.3375 56.3408 10.2621 56.0229 10.2621H55.7103V10.0359H59.2993V10.2621H58.9814C58.6365 10.2621 58.394 10.3698 58.2485 10.5853C58.1461 10.7307 58.0976 11.0377 58.0976 11.5063V15.1257C58.0976 15.4489 58.1245 15.8151 58.1838 16.2352C58.2431 16.65 58.3509 16.9785 58.5072 17.2101C58.6634 17.4417 58.8844 17.6356 59.1808 17.7864C59.4718 17.9372 59.8328 18.0126 60.2585 18.0126C60.6843 18.0126 61.2878 17.8942 61.7189 17.6572C62.1501 17.4202 62.441 17.1186 62.5973 16.7469C62.7536 16.3753 62.8344 15.7505 62.8344 14.8672V11.5063C62.8344 10.9892 62.7752 10.6607 62.662 10.5314C62.5003 10.3537 62.2632 10.2621 61.9507 10.2621H61.6381H61.6273Z" fill="white"/>
<path d="M70.4435 15.562H67.2263L66.6605 16.8708C66.5204 17.194 66.4503 17.4364 66.4503 17.5926C66.4503 17.7488 66.5096 17.8296 66.6336 17.9265C66.7521 18.0235 67.0162 18.0827 67.415 18.115V18.3412H64.796V18.115C65.1408 18.0558 65.3672 17.975 65.4696 17.878C65.6797 17.6841 65.9061 17.2856 66.1593 16.6823L69.0801 9.84741H69.2957L72.1895 16.7577C72.4212 17.3125 72.6314 17.6734 72.8254 17.8403C73.014 18.0073 73.2781 18.0989 73.6176 18.1204V18.3466H70.3411V18.1204C70.6699 18.1042 70.8962 18.0504 71.0147 17.9534C71.1333 17.8619 71.1872 17.7434 71.1872 17.6087C71.1872 17.4741 71.1063 17.1455 70.9447 16.7577L70.4435 15.562ZM70.2711 15.1042L68.8592 11.7487L67.415 15.1042H70.2711Z" fill="white"/>
<path d="M81.0542 10.0359V10.2621C80.7578 10.316 80.5369 10.4075 80.386 10.5422C80.1705 10.7415 79.9765 11.0485 79.8094 11.4632L76.9102 18.5297H76.6838L73.5691 11.3716C73.4074 11.0054 73.2996 10.7792 73.2296 10.6984C73.1272 10.5745 73.0032 10.4722 72.8523 10.4022C72.7015 10.3321 72.5021 10.2837 72.2488 10.2621V10.0359H75.6438V10.2621C75.2612 10.2998 75.0079 10.3645 74.8947 10.456C74.7816 10.5476 74.7223 10.6715 74.7223 10.8169C74.7223 10.9623 74.8139 11.3393 75.0025 11.7702L77.115 16.6392L79.0765 11.8295C79.2705 11.3555 79.3621 11.0269 79.3621 10.8438C79.3621 10.6607 79.3028 10.6122 79.1843 10.5045C79.0657 10.3968 78.8663 10.3214 78.5861 10.2729C78.5646 10.2729 78.5322 10.2621 78.4837 10.2567V10.0305H81.0435L81.0542 10.0359Z" fill="white"/>
<path d="M83.8349 10.4883V13.7684H85.6618C86.136 13.7684 86.4539 13.6984 86.6102 13.553C86.8204 13.3645 86.9389 13.0359 86.9659 12.562H87.1922V15.4543H86.9659C86.9066 15.0503 86.8527 14.7918 86.7934 14.6787C86.718 14.5333 86.5994 14.4255 86.4324 14.3394C86.2653 14.2586 86.0066 14.2155 85.6618 14.2155H83.8349V16.9516C83.8349 17.3179 83.8511 17.5441 83.8834 17.6249C83.9158 17.7057 83.975 17.7703 84.0559 17.8134C84.1367 17.8619 84.293 17.8834 84.5193 17.8834H85.9312C86.4 17.8834 86.7395 17.8511 86.9551 17.7864C87.1653 17.7218 87.37 17.5926 87.5694 17.3987C87.8227 17.1455 88.0814 16.7631 88.3454 16.2514H88.5879L87.8712 18.3358H81.4692V18.1096H81.7656C81.9596 18.1096 82.1482 18.0611 82.3206 17.9696C82.45 17.9049 82.5416 17.808 82.5847 17.6733C82.6332 17.5441 82.6548 17.2748 82.6548 16.8708V11.474C82.6548 10.9461 82.6009 10.623 82.4931 10.4991C82.3476 10.3375 82.0997 10.2567 81.7602 10.2567H81.4638V10.0305H87.8658L87.9574 11.851H87.7203C87.6341 11.4147 87.5371 11.1131 87.4347 10.9515C87.3323 10.79 87.176 10.6661 86.9713 10.5799C86.8096 10.5206 86.5186 10.4883 86.109 10.4883H83.8295H83.8349Z" fill="white"/>
<path d="M96.1377 10.0359L96.2293 11.9856H95.9976C95.9545 11.6409 95.8899 11.3986 95.8144 11.2531C95.6851 11.0162 95.518 10.8438 95.3078 10.7307C95.0977 10.6176 94.8228 10.5637 94.478 10.5637H93.3086V16.9085C93.3086 17.4202 93.3625 17.738 93.4756 17.8618C93.6319 18.0342 93.869 18.1204 94.1924 18.1204H94.478V18.3466H90.9536V18.1204H91.25C91.6003 18.1204 91.8482 18.0127 91.9991 17.8026C92.0907 17.6733 92.1338 17.3717 92.1338 16.9085V10.5637H91.1368C90.7488 10.5637 90.474 10.5907 90.3124 10.6499C90.1022 10.7253 89.919 10.8761 89.7681 11.0969C89.6172 11.3178 89.5256 11.614 89.4986 11.991H89.2669L89.3639 10.0413H96.1485L96.1377 10.0359Z" fill="white"/>
<path d="M49.152 26.5819V29.0002C49.152 29.5226 49.2113 29.8458 49.3245 29.9751C49.4808 30.1528 49.7125 30.2444 50.0304 30.2444H50.3484V30.4706H46.7863V30.2444H47.0989C47.4491 30.2444 47.7024 30.1313 47.8533 29.8997C47.9341 29.7758 47.9773 29.4742 47.9773 29.0002V23.6357C47.9773 23.1132 47.9234 22.7901 47.8102 22.6608C47.6485 22.4831 47.4114 22.3915 47.0989 22.3915H46.7863V22.1653H49.831C50.5747 22.1653 51.1621 22.2407 51.5878 22.3969C52.0189 22.5477 52.38 22.8062 52.671 23.1725C52.9674 23.5333 53.1129 23.9642 53.1129 24.4651C53.1129 24.966 52.8865 25.6932 52.4393 26.1187C51.992 26.5442 51.3615 26.7542 50.5424 26.7542C49.7233 26.7542 50.1274 26.738 49.8903 26.7111C49.6586 26.6842 49.4107 26.6411 49.1413 26.5819H49.152ZM49.152 26.2318C49.3676 26.2748 49.5616 26.3018 49.7286 26.3233C49.8957 26.3449 50.0412 26.3556 50.1598 26.3556C50.5855 26.3556 50.9519 26.1887 51.2591 25.8601C51.5663 25.5316 51.7225 25.1061 51.7225 24.5836C51.7225 24.0612 51.6471 23.8888 51.5016 23.5818C51.3561 23.2748 51.1459 23.0432 50.8765 22.8924C50.607 22.7416 50.2999 22.6608 49.955 22.6608C49.6101 22.6608 49.4808 22.6985 49.152 22.7793V26.2318Z" fill="white"/>
<path d="M56.1792 22.6177V25.8978H58.006C58.4802 25.8978 58.7982 25.8278 58.9544 25.6824C59.1646 25.4939 59.2832 25.1653 59.3101 24.6914H59.5364V27.5837H59.3101C59.2508 27.1797 59.1969 26.9212 59.1377 26.8081C59.0622 26.6627 58.9437 26.5549 58.7766 26.4688C58.6095 26.388 58.3509 26.3449 58.006 26.3449H56.1792V29.081C56.1792 29.4473 56.1953 29.6735 56.2277 29.7543C56.26 29.8351 56.3193 29.8997 56.4001 29.9428C56.4809 29.9912 56.6372 30.0128 56.8635 30.0128H58.2754C58.7443 30.0128 59.0838 29.9805 59.2993 29.9158C59.5095 29.8512 59.7143 29.7219 59.9137 29.5281C60.1669 29.2749 60.4256 28.8925 60.6897 28.3808H60.9322L60.2154 30.4652H53.8134V30.239H54.1098C54.3038 30.239 54.4924 30.1905 54.6649 30.099C54.7942 30.0343 54.8858 29.9374 54.9289 29.8027C54.9774 29.6735 54.999 29.4042 54.999 29.0002V23.6034C54.999 23.0755 54.9451 22.7524 54.8373 22.6285C54.6918 22.4669 54.4439 22.3861 54.1044 22.3861H53.808V22.1599H60.21L60.3017 23.9804H60.0645C59.9783 23.5441 59.8813 23.2425 59.7789 23.0809C59.6765 22.9193 59.5203 22.7955 59.3155 22.7093C59.1538 22.65 58.8628 22.6177 58.4533 22.6177H56.1738H56.1792Z" fill="white"/>
<path d="M68.482 22.1653L68.5736 24.115H68.3419C68.2987 23.7703 68.2341 23.528 68.1586 23.3825C68.0293 23.1455 67.8623 22.9732 67.6521 22.8601C67.4419 22.747 67.1671 22.6931 66.8222 22.6931H65.6528V29.0379C65.6528 29.5496 65.7067 29.8674 65.8199 29.9912C65.9761 30.1636 66.2133 30.2498 66.5366 30.2498H66.8222V30.476H63.2979V30.2498H63.5943C63.9445 30.2498 64.1924 30.142 64.3433 29.932C64.4349 29.8027 64.478 29.5011 64.478 29.0379V22.6931H63.4811C63.0931 22.6931 62.8183 22.72 62.6566 22.7793C62.4464 22.8547 62.2632 23.0055 62.1123 23.2263C61.9614 23.4472 61.8698 23.7434 61.8429 24.1204H61.6111L61.7081 22.1707H68.4928L68.482 22.1653Z" fill="white"/>
</g>
<defs>
<clipPath id="clip0_8141_2087">
<rect width="97" height="40" fill="white"/>
</clipPath>
</defs>
</svg>
