<svg width="33" height="32" viewBox="0 0 33 32" fill="none" xmlns="http://www.w3.org/2000/svg">
<path d="M26.7095 23.7207C26.7108 23.7199 26.7102 23.7178 26.7086 23.7178C26.5476 23.7178 26.3837 23.7178 26.2227 23.712C24.113 23.6685 21.7765 23.4507 20.7565 21.3777C20.5007 20.858 20.6024 20.5212 20.7332 20.3296C20.9541 20.0044 21.4307 19.8447 22.0467 19.8941C23.308 19.9957 24.4617 19.7953 25.3829 19.3105C27.0729 18.4216 26.3391 16.2108 24.7894 15.0951L23.337 14.0495C23.1772 13.9334 23.0987 13.7331 23.1394 13.5386C23.1801 13.344 23.3254 13.1989 23.5172 13.1582C23.593 13.1414 23.6436 13.0617 23.612 12.9908C23.504 12.7488 23.3326 12.442 23.244 12.3104C22.9389 11.8633 22.5553 11.4772 22.131 11.1926C22.0526 11.1404 21.9683 11.091 21.8811 11.0387C21.5643 10.8529 21.2069 10.641 21.0209 10.249C20.8901 9.9732 20.8785 9.63641 20.9948 9.32574C21.1953 8.78281 21.3813 8.25149 21.4772 7.69695C21.4859 7.63888 21.4772 7.58662 21.4423 7.54597C21.4132 7.50823 21.3667 7.4879 21.3115 7.485C18.5101 7.36887 15.5692 8.76539 13.4332 11.2158C11.6198 13.2976 10.3121 16.1197 9.43448 19.8418L9.41123 19.9376C9.18456 20.8986 8.92882 21.9874 8.15291 22.7103C7.49323 23.3259 6.52261 23.6249 5.18292 23.6249H5.13352C4.06409 23.6191 2.61397 23.3984 1.77703 22.3765C0.835468 21.2325 0.754098 19.9115 0.751192 18.6572L0.739568 13.9334C0.739568 13.0072 0.733755 11.9591 1.12898 11.0184C1.6201 9.84255 2.75056 8.93669 4.00888 8.71023C4.55812 8.61151 5.11027 8.63474 5.64498 8.65797C5.90072 8.66958 6.16517 8.68119 6.4209 8.67829C7.33631 8.66958 8.00179 8.44021 8.39992 7.9989C8.9637 7.37758 8.92882 6.47462 8.89395 5.51941C8.87942 5.11584 8.86489 4.69775 8.89395 4.29709C9.0131 2.80184 9.90235 1.47209 11.1578 0.908837C12.0557 0.505267 13.067 0.502364 13.9592 0.502364L18.6525 0.493653C19.5708 0.493653 20.6083 0.49075 21.5411 0.873996C22.7907 1.38499 23.7206 2.57828 23.9153 3.91094C23.9909 4.42193 23.9676 4.95615 23.9444 5.47586C23.9037 6.42817 23.8659 7.33112 24.4239 7.96406C24.8366 8.4315 25.5369 8.67539 26.5046 8.6899C26.7516 8.69281 27.0103 8.6841 27.2602 8.67539C27.8443 8.65506 28.4488 8.63474 29.0416 8.76249C30.2011 9.01218 31.2153 9.84255 31.6861 10.9313C32.093 11.8662 32.093 12.9114 32.093 13.8347V18.5237C32.093 18.8866 32.093 19.3105 32.0639 19.7286C32.0145 20.3934 31.8808 21.369 31.2822 22.1587C30.2835 23.4785 28.5277 23.7232 26.7104 23.7236C26.7088 23.7236 26.7082 23.7216 26.7095 23.7207ZM21.8317 20.4181C21.8317 20.4173 21.831 20.4167 21.8302 20.4167C21.5113 20.4169 21.262 20.4953 21.172 20.6257C21.079 20.7622 21.1546 20.9799 21.2331 21.1396C22.1223 22.9455 24.1914 23.1371 26.2344 23.1778C28.0797 23.2155 29.9192 23.0791 30.8666 21.8306C31.2589 21.3138 31.4711 20.6315 31.5408 19.685C31.5699 19.2873 31.5728 18.875 31.5728 18.5179V13.8289C31.5728 12.9579 31.5728 11.9707 31.2066 11.1375C30.8027 10.2055 29.9309 9.49414 28.937 9.27929C28.4081 9.16606 27.8618 9.18348 27.2864 9.2038C27.0306 9.21251 26.7662 9.22122 26.5046 9.21832C25.38 9.2038 24.546 8.89895 24.0316 8.31246C23.3341 7.51984 23.3777 6.46882 23.4213 5.45263C23.4417 4.95906 23.4649 4.45096 23.3981 3.98642C23.2295 2.83668 22.4274 1.80598 21.3493 1.36467C20.5124 1.02207 19.5243 1.02207 18.6641 1.02497L13.9708 1.03368C13.1339 1.03368 12.1836 1.03659 11.3873 1.3937C10.3063 1.87857 9.5391 3.03702 9.43448 4.33773C9.40542 4.70646 9.41995 5.11003 9.43448 5.49909C9.47226 6.51817 9.51004 7.57501 8.80096 8.35602C8.29821 8.91056 7.49905 9.198 6.43253 9.20961C6.16517 9.20961 5.892 9.2009 5.62755 9.18929C5.09865 9.16606 4.59881 9.14574 4.10768 9.23284C3.02373 9.42736 2.0502 10.2084 1.62591 11.2217C1.27428 12.0636 1.27719 13.0566 1.27719 13.9305L1.28881 18.6543C1.29172 20.1031 1.43993 21.1222 2.19259 22.0368C2.89876 22.8962 4.18615 23.0849 5.14224 23.0907C5.15677 23.0907 5.1742 23.0907 5.18873 23.0907C6.38312 23.0907 7.2375 22.8381 7.79256 22.3184C8.44933 21.7058 8.676 20.7418 8.89395 19.8128L8.9172 19.717C9.81517 15.9077 11.1607 13.013 13.0322 10.8645C15.2727 8.29214 18.3735 6.83464 21.3348 6.95078C21.5411 6.95949 21.7329 7.0524 21.8579 7.20918C21.9857 7.36596 22.038 7.57791 22.0032 7.78405C21.8985 8.38215 21.7038 8.9396 21.4946 9.50575C21.4307 9.68286 21.4336 9.86868 21.5033 10.0138C21.6196 10.2577 21.8782 10.4116 22.1543 10.5742C22.2473 10.6294 22.3403 10.6845 22.4274 10.7426C22.9157 11.0678 23.3399 11.4917 23.6858 12.0056C23.7613 12.1159 24.4094 13.0943 24.1914 13.4805C24.1246 13.5966 23.9967 13.6576 23.8601 13.6547C23.8085 13.6547 23.791 13.7154 23.8329 13.7456L27.6903 16.5261C27.8559 16.6452 27.9315 16.8542 27.885 17.0487C27.6031 18.1665 26.7604 19.1885 25.6299 19.7808C24.6186 20.3121 23.3661 20.5328 22.0032 20.4254C21.9455 20.4196 21.8879 20.4196 21.8332 20.4196C21.8323 20.4196 21.8317 20.4189 21.8317 20.4181Z" fill="white"/>
<path d="M13.9694 31.8435C13.9707 31.8427 13.9701 31.8406 13.9685 31.8406C13.604 31.8406 13.2309 31.8347 12.8578 31.8029C12.4539 31.768 12.0993 31.7071 11.7709 31.62C9.26301 30.9435 8.41445 28.5888 9.24558 24.6199C10.2104 20.0209 11.8087 16.0665 13.9999 12.8699C15.203 11.1163 16.8304 9.86491 18.4636 9.43811C18.6438 9.39166 18.8297 9.43811 18.9692 9.56006C19.1087 9.6849 19.1785 9.87072 19.1523 10.0565L19.1436 10.1117C19.0564 10.7359 18.9692 11.3805 19.347 11.8276C19.501 12.0105 19.7248 12.1354 19.9631 12.2689C20.059 12.3212 20.1549 12.3763 20.2479 12.4344C20.6228 12.6667 20.9483 12.9686 21.2127 13.3257C21.7532 14.0487 21.6341 14.2839 21.5934 14.3623C21.5454 14.4581 21.5277 14.6072 21.6097 14.6763C21.6896 14.7437 21.7644 14.8143 21.8346 14.8878C22.2763 15.3494 22.4478 15.8691 22.3112 16.354C22.0496 17.2918 21.204 18.0757 20.1607 18.3515C19.9195 18.4154 19.6696 18.4531 19.4255 18.488C18.7716 18.5838 18.2078 18.6651 17.9056 19.2109C17.8446 19.3212 17.8068 19.4432 17.7865 19.5738C17.7109 20.1051 17.9027 20.6539 18.3735 21.2462C18.9634 21.9894 19.7713 22.5614 20.5559 23.1189C21.4307 23.7373 22.3344 24.3789 22.9825 25.2732C23.7003 26.269 24.0083 27.4884 23.8223 28.6179C23.6218 29.8373 22.8401 30.9028 21.7794 31.3964C20.9018 31.8058 19.9079 31.8116 19.0332 31.8174L14.3515 31.8464C14.2254 31.8464 14.0992 31.8464 13.9702 31.8464C13.9687 31.8464 13.9681 31.8444 13.9694 31.8435ZM12.9043 31.2745C12.9033 31.2735 12.9041 31.2718 12.9055 31.2719C13.3866 31.3122 13.8792 31.3093 14.3544 31.3064L19.0361 31.2774C19.8585 31.2716 20.7884 31.2658 21.5614 30.9057C22.4652 30.4847 23.1336 29.5731 23.3022 28.525C23.4649 27.5349 23.1917 26.4607 22.5553 25.578C21.9625 24.7564 21.1313 24.167 20.2537 23.5457C19.44 22.9679 18.5973 22.3727 17.9608 21.5714C17.3941 20.8571 17.1675 20.1777 17.2634 19.4925C17.2895 19.298 17.3506 19.1151 17.4436 18.9496C17.8707 18.1715 18.6583 18.0554 19.3528 17.9537C19.5911 17.9189 19.8149 17.887 20.027 17.8289C20.893 17.5995 21.5905 16.9637 21.8026 16.203C21.9131 15.8052 21.6312 15.4365 21.4539 15.2507C21.3173 15.1084 21.1517 14.9749 20.9657 14.8587C20.957 14.8529 20.9395 14.8442 20.9221 14.8355C20.7535 14.7455 20.4949 14.6061 20.4862 14.3593C20.4862 14.2984 20.4978 14.1445 20.6693 14.0342C20.784 13.9612 20.9044 13.8042 20.8257 13.6934C20.8132 13.6757 20.8007 13.6585 20.7884 13.6422C20.5647 13.3432 20.2799 13.079 19.9689 12.8844C19.8846 12.8322 19.7945 12.7828 19.7074 12.7335C19.44 12.5825 19.161 12.4286 18.946 12.1731C18.4113 11.5431 18.5217 10.7446 18.6205 10.0391L18.6288 9.98942C18.6291 9.98771 18.6292 9.9854 18.6291 9.98368C18.6277 9.96899 18.6104 9.96329 18.5961 9.967C17.0758 10.3623 15.5689 11.5344 14.4445 13.1748C12.2911 16.3133 10.7189 20.201 9.77157 24.7331C9.01019 28.3769 9.72798 30.5225 11.9133 31.1119C12.2087 31.1929 12.5328 31.245 12.9031 31.277C12.9045 31.2771 12.9053 31.2754 12.9043 31.2745Z" fill="white"/>
</svg>
