<svg width="34" height="34" viewBox="0 0 34 34" fill="none" xmlns="http://www.w3.org/2000/svg">
<path d="M12.8334 33.6668C11.1945 33.6668 9.81254 33.1043 8.68754 31.9793C7.56254 30.8543 7.00004 29.4724 7.00004 27.8335C7.00004 27.5835 7.03476 27.3891 7.10421 27.2502C7.17365 27.1113 7.16671 27.0002 7.08337 26.9168C7.00004 26.8335 6.88893 26.8266 6.75004 26.896C6.61115 26.9654 6.41671 27.0002 6.16671 27.0002C4.52782 27.0002 3.14587 26.4377 2.02087 25.3127C0.895874 24.1877 0.333374 22.8057 0.333374 21.1668C0.333374 19.5279 0.895874 18.146 2.02087 17.021C3.14587 15.896 4.52782 15.3335 6.16671 15.3335C6.8056 15.3335 7.38893 15.4168 7.91671 15.5835C8.44449 15.7502 8.94449 16.0002 9.41671 16.3335L16.3334 9.41683C16 8.94461 15.75 8.44461 15.5834 7.91683C15.4167 7.38905 15.3334 6.80572 15.3334 6.16683C15.3334 4.52794 15.8959 3.146 17.0209 2.021C18.1459 0.895996 19.5278 0.333496 21.1667 0.333496C22.8056 0.333496 24.1875 0.895996 25.3125 2.021C26.4375 3.146 27 4.52794 27 6.16683C27 6.41683 26.9653 6.61127 26.8959 6.75016C26.8264 6.88905 26.8334 7.00016 26.9167 7.0835C27 7.16683 27.1112 7.17377 27.25 7.10433C27.3889 7.03489 27.5834 7.00016 27.8334 7.00016C29.4723 7.00016 30.8542 7.56266 31.9792 8.68766C33.1042 9.81266 33.6667 11.1946 33.6667 12.8335C33.6667 14.4724 33.1042 15.8543 31.9792 16.9793C30.8542 18.1043 29.4723 18.6668 27.8334 18.6668C27.1945 18.6668 26.6112 18.5835 26.0834 18.4168C25.5556 18.2502 25.0556 18.0002 24.5834 17.6668L17.6667 24.5835C18 25.0557 18.25 25.5557 18.4167 26.0835C18.5834 26.6113 18.6667 27.1946 18.6667 27.8335C18.6667 29.4724 18.1042 30.8543 16.9792 31.9793C15.8542 33.1043 14.4723 33.6668 12.8334 33.6668ZM12.8334 30.3335C13.5556 30.3335 14.1528 30.0974 14.625 29.6252C15.0973 29.1529 15.3334 28.5557 15.3334 27.8335C15.3334 27.5835 15.2987 27.3404 15.2292 27.1043C15.1598 26.8682 15.0556 26.6391 14.9167 26.4168C14.4445 25.7502 14.25 25.0349 14.3334 24.271C14.4167 23.5071 14.75 22.8335 15.3334 22.2502L22.25 15.3335C22.8334 14.7502 23.507 14.4168 24.2709 14.3335C25.0348 14.2502 25.75 14.4446 26.4167 14.9168C26.6389 15.0557 26.8681 15.1599 27.1042 15.2293C27.3403 15.2988 27.5834 15.3335 27.8334 15.3335C28.5556 15.3335 29.1528 15.0974 29.625 14.6252C30.0973 14.1529 30.3334 13.5557 30.3334 12.8335C30.3334 12.1113 30.0973 11.5141 29.625 11.0418C29.1528 10.5696 28.5556 10.3335 27.8334 10.3335C26.8612 10.3335 26.1806 10.2849 25.7917 10.1877C25.4028 10.0904 25 9.8335 24.5834 9.41683C24.1667 9.00016 23.9098 8.59739 23.8125 8.2085C23.7153 7.81961 23.6667 7.13905 23.6667 6.16683C23.6667 5.44461 23.4306 4.84739 22.9584 4.37516C22.4862 3.90294 21.8889 3.66683 21.1667 3.66683C20.4445 3.66683 19.8473 3.90294 19.375 4.37516C18.9028 4.84739 18.6667 5.44461 18.6667 6.16683C18.6667 6.47239 18.6945 6.72933 18.75 6.93766C18.8056 7.146 18.9167 7.36127 19.0834 7.5835C19.5556 8.25016 19.75 8.96544 19.6667 9.72933C19.5834 10.4932 19.25 11.1668 18.6667 11.7502L11.75 18.6668C11.1667 19.2502 10.4931 19.5835 9.72921 19.6668C8.96532 19.7502 8.25004 19.5557 7.58337 19.0835C7.36115 18.9446 7.13199 18.8404 6.89587 18.771C6.65976 18.7016 6.41671 18.6668 6.16671 18.6668C5.44449 18.6668 4.84726 18.9029 4.37504 19.3752C3.90282 19.8474 3.66671 20.4446 3.66671 21.1668C3.66671 21.8891 3.90282 22.4863 4.37504 22.9585C4.84726 23.4307 5.44449 23.6668 6.16671 23.6668C7.13893 23.6668 7.81949 23.7154 8.20837 23.8127C8.59726 23.9099 9.00004 24.1668 9.41671 24.5835C9.83337 25.0002 10.0903 25.4029 10.1875 25.7918C10.2848 26.1807 10.3334 26.8613 10.3334 27.8335C10.3334 28.5557 10.5695 29.1529 11.0417 29.6252C11.5139 30.0974 12.1112 30.3335 12.8334 30.3335Z" fill="#72A45C"/>
</svg>
