<svg width="80" height="81" viewBox="0 0 80 81" fill="none" xmlns="http://www.w3.org/2000/svg">
<path d="M39.9998 70.4848L35.1665 66.1515C29.5554 61.0959 24.9165 56.7348 21.2498 53.0681C17.5832 49.4015 14.6665 46.1098 12.4998 43.1931C10.3332 40.2764 8.81928 37.5959 7.95817 35.1514C7.09706 32.707 6.6665 30.207 6.6665 27.6514C6.6665 22.4292 8.4165 18.0681 11.9165 14.5681C15.4165 11.0681 19.7776 9.31812 24.9998 9.31812C27.8887 9.31812 30.6387 9.92923 33.2498 11.1514C35.8609 12.3737 38.1109 14.0959 39.9998 16.3181C41.8887 14.0959 44.1387 12.3737 46.7498 11.1514C49.3609 9.92923 52.1109 9.31812 54.9998 9.31812C60.2221 9.31812 64.5832 11.0681 68.0832 14.5681C71.5832 18.0681 73.3332 22.4292 73.3332 27.6514C73.3332 30.207 72.9026 32.707 72.0415 35.1514C71.1804 37.5959 69.6665 40.2764 67.4998 43.1931C65.3332 46.1098 62.4165 49.4015 58.7498 53.0681C55.0832 56.7348 50.4443 61.0959 44.8332 66.1515L39.9998 70.4848ZM39.9998 61.4848C45.3332 56.707 49.7221 52.6098 53.1665 49.1931C56.6109 45.7765 59.3332 42.8042 61.3332 40.2764C63.3332 37.7487 64.7221 35.4987 65.4998 33.5264C66.2776 31.5542 66.6665 29.5959 66.6665 27.6514C66.6665 24.3181 65.5554 21.5403 63.3332 19.3181C61.1109 17.0959 58.3332 15.9848 54.9998 15.9848C52.3887 15.9848 49.9721 16.7209 47.7498 18.1931C45.5276 19.6653 43.9998 21.5403 43.1665 23.8181H36.8332C35.9998 21.5403 34.4721 19.6653 32.2498 18.1931C30.0276 16.7209 27.6109 15.9848 24.9998 15.9848C21.6665 15.9848 18.8887 17.0959 16.6665 19.3181C14.4443 21.5403 13.3332 24.3181 13.3332 27.6514C13.3332 29.5959 13.7221 31.5542 14.4998 33.5264C15.2776 35.4987 16.6665 37.7487 18.6665 40.2764C20.6665 42.8042 23.3887 45.7765 26.8332 49.1931C30.2776 52.6098 34.6665 56.707 39.9998 61.4848Z" fill="#DDE9D8"/>
</svg>
