<svg width="28" height="34" viewBox="0 0 28 34" fill="none" xmlns="http://www.w3.org/2000/svg">
<path d="M2.08341 33.6668V17.2085H5.41675V30.3335H17.0834V22.2918L21.4584 17.9168C22.264 17.1113 22.889 16.2085 23.3334 15.2085C23.7779 14.2085 24.0001 13.1391 24.0001 12.0002C24.0001 10.8891 23.7709 9.8335 23.3126 8.8335C22.8542 7.8335 22.2362 6.93072 21.4584 6.12516L20.4167 5.04183L15.1251 10.3335H8.45841L6.66675 12.1252L4.29175 9.79183L7.08341 7.00016H13.7501L20.4167 0.333496L23.8334 3.75016C24.9445 4.86127 25.8056 6.11822 26.4167 7.521C27.0279 8.92377 27.3334 10.4168 27.3334 12.0002C27.3334 13.5835 27.0279 15.0766 26.4167 16.4793C25.8056 17.8821 24.9445 19.1391 23.8334 20.2502L20.4167 23.6668V33.6668H2.08341ZM10.2917 25.8752L1.62508 17.2085C1.31953 16.9029 1.08341 16.5418 0.916748 16.1252C0.750081 15.7085 0.666748 15.2779 0.666748 14.8335C0.666748 14.3891 0.750081 13.9654 0.916748 13.5627C1.08341 13.1599 1.31953 12.8057 1.62508 12.5002L5.12508 8.9585L10.2917 14.0835C11.0695 14.8613 11.6737 15.7571 12.1042 16.771C12.5348 17.7849 12.7501 18.8474 12.7501 19.9585C12.7501 21.0696 12.5417 22.1321 12.1251 23.146C11.7084 24.1599 11.0973 25.0696 10.2917 25.8752Z" fill="#72A45C"/>
</svg>
