<svg width="103" height="80" viewBox="0 0 103 80" fill="none" xmlns="http://www.w3.org/2000/svg">
<path d="M42.2207 25.5929C42.2207 42.3447 36.9625 57.0025 26.4459 69.5663C20.2598 77.4768 15.0015 80.8892 10.6712 79.8034C6.95946 78.5626 5.1036 76.5462 5.1036 73.7542C5.1036 70.652 6.26351 67.7825 8.58333 65.1457C10.9032 62.5088 12.759 60.2597 14.1509 58.3984C15.5428 56.5371 16.7027 54.5207 17.6306 52.3492C19.7958 47.851 20.8784 42.4222 20.8784 36.0628C17.3213 37.4588 13.7643 37.1485 10.2072 35.1321C3.4024 31.0993 0 26.1358 0 20.2417C0 14.1924 1.77853 9.30652 5.33559 5.58391C8.89264 1.8613 13.8416 0 20.1824 0C26.5233 0 31.7815 2.48174 35.9572 7.44522C40.1329 12.2536 42.2207 18.3028 42.2207 25.5929ZM103 25.5929C103 42.1896 97.6644 56.8473 86.9932 69.5663C80.8071 77.4768 75.4715 80.8892 70.9865 79.8034C67.4294 78.4075 65.6509 76.391 65.6509 73.7542C65.6509 70.8071 66.8108 68.0152 69.1306 65.3783C71.4504 62.5864 73.3063 60.2597 74.6982 58.3984C76.0901 56.5371 77.3273 54.5207 78.4099 52.3492C80.4204 47.851 81.4257 42.4222 81.4257 36.0628C77.8686 37.4588 74.2342 37.1485 70.5225 35.1321C63.7177 31.0993 60.3153 26.1358 60.3153 20.2417C60.3153 14.1924 62.0938 9.30652 65.6509 5.58391C69.3626 1.8613 73.5383 0 78.1779 0C82.9722 0 86.6839 0.697989 89.3131 2.09397C92.0968 3.33484 94.494 5.11859 96.5045 7.44522C100.835 12.4087 103 18.4579 103 25.5929Z" fill="#24341D"/>
</svg>
