<svg width="56" height="56" viewBox="0 0 56 56" fill="none" xmlns="http://www.w3.org/2000/svg">
<path d="M46.727 5.9126H10.0725C7.8223 5.9126 5.99976 7.73514 5.99976 9.98532V46.6399C5.99976 48.8901 7.8223 50.7126 10.0725 50.7126H30.4361V32.3853H24.327V26.2762H30.4361V22.9957C30.4361 16.7847 33.4622 14.0581 38.6243 14.0581C41.0965 14.0581 42.4038 14.2413 43.0229 14.3248V20.1671H39.502C37.3109 20.1671 36.5452 21.3238 36.5452 23.6656V26.2762H42.9679L42.0963 32.3853H36.5452V50.7126H46.727C48.9772 50.7126 50.7998 48.8901 50.7998 46.6399V9.98532C50.7998 7.73514 48.9752 5.9126 46.727 5.9126Z" fill="white"/>
</svg>
