<svg width="56" height="56" viewBox="0 0 56 56" fill="none" xmlns="http://www.w3.org/2000/svg">
<path d="M46.3271 5.59961C48.575 5.59983 50.3993 7.42193 50.3994 9.67188V46.3262C50.3994 48.5762 48.5771 50.3992 46.3271 50.3994H9.67188C7.42184 50.3992 5.59961 48.5762 5.59961 46.3262V9.67188C5.59973 7.4219 7.42191 5.59978 9.67188 5.59961H46.3271ZM27.999 16.7998C21.8225 16.8 16.8 21.8225 16.7998 27.999C16.7998 34.1757 21.8224 39.199 27.999 39.1992C34.1758 39.1992 39.1992 34.1758 39.1992 27.999C39.199 21.8224 34.1757 16.7998 27.999 16.7998ZM27.999 20.5322C29.9793 20.5322 31.879 21.3195 33.2793 22.7197C34.6794 24.1199 35.4657 26.0189 35.4658 27.999C35.4658 29.9793 34.6796 31.879 33.2793 33.2793C31.879 34.6795 29.9793 35.4658 27.999 35.4658C26.0189 35.4657 24.1199 34.6794 22.7197 33.2793C21.3195 31.879 20.5332 29.9793 20.5332 27.999C20.5333 26.0189 21.3196 24.1199 22.7197 22.7197C24.1199 21.3196 26.0189 20.5323 27.999 20.5322ZM41.0664 13.0664C40.036 13.0664 39.1993 13.9023 39.1992 14.9326C39.1992 15.963 40.036 16.7998 41.0664 16.7998C42.0967 16.7997 42.9326 15.9629 42.9326 14.9326C42.9326 13.9023 42.0966 13.0666 41.0664 13.0664Z" fill="white"/>
</svg>
