<svg width="83" height="81" viewBox="0 0 83 81" fill="none" xmlns="http://www.w3.org/2000/svg">
<path d="M31.125 80.4848C27.0442 80.4848 23.6031 79.1267 20.8019 76.4103C18.0006 73.6939 16.6 70.3572 16.6 66.4C16.6 65.7964 16.6865 65.3269 16.8594 64.9915C17.0323 64.6562 17.015 64.3879 16.8075 64.1867C16.6 63.9855 16.3233 63.9687 15.9775 64.1364C15.6317 64.304 15.1475 64.3879 14.525 64.3879C10.4442 64.3879 7.00313 63.0297 4.20188 60.3133C1.40063 57.597 0 54.2602 0 50.303C0 46.3459 1.40063 43.0091 4.20188 40.2927C7.00313 37.5764 10.4442 36.2182 14.525 36.2182C16.1158 36.2182 17.5683 36.4194 18.8825 36.8218C20.1967 37.2242 21.4417 37.8279 22.6175 38.6327L39.84 21.9321C39.01 20.7919 38.3875 19.5846 37.9725 18.3103C37.5575 17.036 37.35 15.6275 37.35 14.0848C37.35 10.1277 38.7506 6.79091 41.5519 4.07455C44.3531 1.35818 47.7942 0 51.875 0C55.9558 0 59.3969 1.35818 62.1981 4.07455C64.9994 6.79091 66.4 10.1277 66.4 14.0848C66.4 14.6885 66.3135 15.158 66.1406 15.4933C65.9677 15.8287 65.985 16.097 66.1925 16.2982C66.4 16.4994 66.6767 16.5162 67.0225 16.3485C67.3683 16.1808 67.8525 16.097 68.475 16.097C72.5558 16.097 75.9969 17.4552 78.7981 20.1715C81.5994 22.8879 83 26.2246 83 30.1818C83 34.139 81.5994 37.4758 78.7981 40.1921C75.9969 42.9085 72.5558 44.2667 68.475 44.2667C66.8842 44.2667 65.4317 44.0655 64.1175 43.663C62.8033 43.2606 61.5583 42.657 60.3825 41.8521L43.16 58.5527C43.99 59.6929 44.6125 60.9002 45.0275 62.1745C45.4425 63.4489 45.65 64.8574 45.65 66.4C45.65 70.3572 44.2494 73.6939 41.4481 76.4103C38.6469 79.1267 35.2058 80.4848 31.125 80.4848ZM31.125 72.4364C32.9233 72.4364 34.4104 71.8663 35.5863 70.7261C36.7621 69.5859 37.35 68.1438 37.35 66.4C37.35 65.7964 37.2635 65.2095 37.0906 64.6394C36.9177 64.0693 36.6583 63.516 36.3125 62.9794C35.1367 61.3697 34.6525 59.6426 34.86 57.7982C35.0675 55.9537 35.8975 54.3273 37.35 52.9188L54.5725 36.2182C56.025 34.8097 57.7023 34.0049 59.6044 33.8036C61.5065 33.6024 63.2875 34.0719 64.9475 35.2121C65.5008 35.5475 66.0715 35.799 66.6594 35.9667C67.2473 36.1343 67.8525 36.2182 68.475 36.2182C70.2733 36.2182 71.7604 35.6481 72.9362 34.5079C74.1121 33.3677 74.7 31.9257 74.7 30.1818C74.7 28.438 74.1121 26.996 72.9362 25.8558C71.7604 24.7156 70.2733 24.1455 68.475 24.1455C66.0542 24.1455 64.3596 24.0281 63.3913 23.7933C62.4229 23.5586 61.42 22.9382 60.3825 21.9321C59.345 20.9261 58.7052 19.9535 58.4631 19.0145C58.221 18.0756 58.1 16.4323 58.1 14.0848C58.1 12.341 57.5121 10.899 56.3363 9.75879C55.1604 8.61859 53.6733 8.04849 51.875 8.04849C50.0767 8.04849 48.5896 8.61859 47.4138 9.75879C46.2379 10.899 45.65 12.341 45.65 14.0848C45.65 14.8226 45.7192 15.443 45.8575 15.9461C45.9958 16.4491 46.2725 16.9689 46.6875 17.5055C47.8633 19.1152 48.3475 20.8422 48.14 22.6867C47.9325 24.5311 47.1025 26.1576 45.65 27.5661L28.4275 44.2667C26.975 45.6752 25.2977 46.48 23.3956 46.6812C21.4935 46.8824 19.7125 46.4129 18.0525 45.2727C17.4992 44.9374 16.9285 44.6859 16.3406 44.5182C15.7527 44.3505 15.1475 44.2667 14.525 44.2667C12.7267 44.2667 11.2396 44.8368 10.0638 45.977C8.88792 47.1172 8.3 48.5592 8.3 50.303C8.3 52.0469 8.88792 53.4889 10.0638 54.6291C11.2396 55.7693 12.7267 56.3394 14.525 56.3394C16.9458 56.3394 18.6404 56.4568 19.6088 56.6915C20.5771 56.9263 21.58 57.5467 22.6175 58.5527C23.655 59.5588 24.2948 60.5313 24.5369 61.4703C24.779 62.4093 24.9 64.0525 24.9 66.4C24.9 68.1438 25.4879 69.5859 26.6638 70.7261C27.8396 71.8663 29.3267 72.4364 31.125 72.4364Z" fill="#DDE9D8"/>
</svg>
