<svg width="24" height="24" viewBox="0 0 24 24" fill="none" xmlns="http://www.w3.org/2000/svg">
<path d="M22.999 11.2451C22.9888 11.5716 22.8318 11.9742 22.5273 12.3486C22.2289 12.7157 21.856 12.9702 21.5264 13.0742C20.8994 13.2358 20.2848 12.9338 20.0537 12.292C19.8536 11.6857 19.843 11.1848 20.042 10.6621L20.0498 10.6426L20.0566 10.6221L20.2227 10.1533C20.3914 9.70904 20.5749 9.33553 20.8223 9.02637L20.8301 9.01562L20.9668 8.8584C21.0099 8.81426 21.0507 8.77768 21.0889 8.74902C21.1635 8.69302 21.2098 8.68016 21.2285 8.67676L21.2598 8.6709L21.292 8.66309L21.3789 8.64941C21.4634 8.64628 21.5414 8.6744 21.6299 8.74316L21.6562 8.76367L21.6826 8.78223C22.5803 9.39033 23.0251 10.1982 22.999 11.2451Z" stroke="white" stroke-width="2"/>
<path d="M4.07764 10.1543L4.07471 10.1768L4.07373 10.1982C4.04906 10.5684 3.92762 10.919 3.68896 11.2637L3.68701 11.2666C3.20354 11.9694 2.35731 12.0497 1.77295 11.4883C1.32017 11.0497 1.05739 10.5245 1.0083 10.0029C0.961005 9.49946 1.10367 8.91266 1.61572 8.29883C2.02701 7.82618 2.42295 7.53933 2.86182 7.42383C3.04968 7.37439 3.16845 7.39429 3.23584 7.41992C3.29727 7.44333 3.37959 7.49518 3.4624 7.63574L3.47705 7.66016L3.49268 7.68359C3.51204 7.71264 3.52706 7.73501 3.54053 7.75586C3.55337 7.77575 3.5617 7.79022 3.56787 7.80078C3.56971 7.80393 3.57167 7.80664 3.57275 7.80859L3.58545 7.84863L3.6167 7.91211C3.64558 7.96987 3.6767 8.047 3.71533 8.1543C3.74507 8.23691 3.79864 8.39479 3.84424 8.50879L3.87061 8.57422C4.02096 9.30422 4.12572 9.72105 4.07764 10.1543Z" stroke="white" stroke-width="2"/>
<path d="M10.7947 5.09961C10.7003 6.06423 10.3747 6.78753 9.70874 7.32031L9.69897 7.3291C8.99185 7.90982 8.01873 7.95697 7.26733 7.45605L7.25854 7.45117C6.61041 7.02846 6.17669 6.4369 5.90308 5.64648L5.9021 5.64453C5.48631 4.45264 5.77925 3.40229 6.67944 2.37793L6.69702 2.3584L6.87378 2.15918C7.29726 1.70958 7.80078 1.3688 8.36108 1.16504L8.37183 1.16113L8.38159 1.15723L8.56714 1.09082C8.97485 0.959474 9.25336 0.974624 9.53784 1.11328C9.76442 1.24039 9.9775 1.48281 10.1931 1.87988C10.2412 1.97773 10.2838 2.08435 10.3298 2.20312L10.446 2.66992C10.7097 3.72471 10.8521 4.43029 10.7947 5.09961Z" stroke="white" stroke-width="2"/>
<path d="M19.046 4.6084C19.3182 5.5663 19.1211 6.44193 18.4962 7.31152V7.3125C18.0381 7.92336 17.4982 8.33165 16.8507 8.52051L16.8497 8.52148C15.8034 8.82756 14.7739 8.35874 14.3058 7.34473L14.299 7.33008L14.2921 7.31641C14.2167 7.16559 14.1625 7.00765 14.0851 6.77539L13.9962 6.50586C13.9156 5.9917 13.9288 5.51336 14.0607 5.05176L14.0665 5.02832L14.1622 4.68848C14.3983 3.90156 14.7359 3.16292 15.1896 2.51074L15.1945 2.50293L15.2003 2.49512L15.3234 2.33008C15.455 2.17013 15.6118 2.02617 15.7814 1.91309C16.0768 1.71616 16.3611 1.67275 16.7198 1.77441C17.174 1.92972 17.5559 2.21626 17.9269 2.61816L17.9347 2.62695C18.4499 3.1726 18.8247 3.84975 19.046 4.6084Z" stroke="white" stroke-width="2"/>
<path d="M19.4581 18.1455C19.567 19.6146 18.7432 20.9935 17.922 21.5908L17.9113 21.5986L17.9015 21.6055C17.0724 22.2411 16.2165 22.3514 15.2286 21.958C14.5467 21.6705 13.8605 21.3466 13.1515 21.0107L13.1407 21.0049L13.13 21C12.4439 20.6951 11.6269 20.3656 10.6827 20.3184L10.6583 20.3174L10.6329 20.3174C9.98303 20.3174 9.39268 20.4562 8.92395 20.5645L8.92297 20.5645C8.18222 20.7291 7.60123 20.8951 6.93079 21.001C5.62048 21.192 4.24734 20.4218 3.75598 19.2207L3.75403 19.2168C3.23332 17.961 3.29877 16.7954 3.95715 15.6582L3.96204 15.6504L4.15735 15.3184C5.15855 13.6886 6.50768 12.4909 8.24719 11.7002L8.25403 11.6963C10.5437 10.6346 12.7841 10.7014 15.0031 11.9268L15.004 11.9258C16.4938 12.7542 17.6045 13.9528 18.5031 15.5078L18.507 15.5146C18.8342 16.0709 19.0947 16.6918 19.257 17.3408L19.4581 18.1455Z" stroke="white" stroke-width="2"/>
</svg>
