<svg width="80" height="78" viewBox="0 0 80 78" fill="none" xmlns="http://www.w3.org/2000/svg">
<path d="M76.4971 37.7205L76.4961 37.7205C76.4635 38.7635 75.96 40.072 74.9619 41.2996C73.9804 42.5067 72.7592 43.3367 71.6943 43.6697C69.6929 44.1758 67.7395 43.2092 67.001 41.1619C66.3439 39.1699 66.3164 37.5401 66.9639 35.8406L66.9902 35.7712L67.0137 35.7009L67.2871 34.9021C67.927 33.0876 68.5924 31.6163 69.5371 30.4353L69.5527 30.4158L69.5674 30.3972C69.8751 30.0016 70.1572 29.72 70.3975 29.5398C70.6302 29.3653 70.7584 29.3337 70.79 29.3279L70.9023 29.3074L71.0127 29.28L71.166 29.2498C71.3076 29.2307 71.4151 29.2423 71.502 29.2625C71.6261 29.2913 71.7933 29.3598 71.9971 29.5183L72.0879 29.5886L72.1836 29.6531C75.1324 31.6507 76.5822 34.2927 76.4971 37.7205Z" stroke="#DDE9D8" stroke-width="7"/>
<path d="M12.749 28.8872C13.2486 31.3118 13.5822 32.6637 13.4258 34.0718L13.417 34.1489L13.4121 34.2261C13.3319 35.428 12.9394 36.5674 12.1602 37.6929L12.1533 37.7017C10.5964 39.9662 7.89111 40.2141 6.01953 38.4097C4.53782 36.9721 3.68651 35.2618 3.52734 33.5708C3.3742 31.9436 3.83017 30.0348 5.50293 28.0239C6.86493 26.4564 8.16064 25.5249 9.58203 25.1509C10.181 24.9933 10.5408 25.0592 10.7275 25.1304C10.8938 25.1937 11.1394 25.3405 11.3984 25.7808L11.4482 25.8657L11.5029 25.9478C11.5676 26.0448 11.616 26.1168 11.6602 26.1851C11.7026 26.2508 11.731 26.2961 11.75 26.3286L11.7959 26.4692L11.9072 26.6909C11.9989 26.8744 12.0984 27.1221 12.2266 27.478C12.3235 27.7473 12.5056 28.2815 12.6592 28.6655L12.749 28.8872Z" stroke="#DDE9D8" stroke-width="7"/>
<path d="M34.6602 9.18262C35.5383 12.6953 36.0022 15.0199 35.8154 17.2168C35.5048 20.4042 34.4381 22.7728 32.2607 24.5146L32.2432 24.5283L32.2256 24.543C29.9249 26.4328 26.7617 26.5859 24.3184 24.957L24.2891 24.9375C22.1636 23.5514 20.7376 21.6144 19.8359 19.0098L19.833 19.002C18.4711 15.0979 19.4223 11.6592 22.3926 8.2793L22.4229 8.24512L22.4521 8.20996L22.7393 7.87598C24.1935 6.2343 25.955 4.99869 27.9277 4.28125L27.9648 4.26758L28.001 4.25391L28.3125 4.13769C29.8089 3.60279 30.7538 3.63224 31.7158 4.09961C32.4293 4.50103 33.1171 5.27681 33.8271 6.58301C33.983 6.89999 34.1235 7.24546 34.2744 7.63477L34.6602 9.18262Z" stroke="#DDE9D8" stroke-width="7"/>
<path d="M63.3184 15.6338C64.2177 18.7812 63.579 21.6569 61.5098 24.5303C60.0017 26.5367 58.2345 27.8683 56.1221 28.4844L56.1191 28.4854C52.7118 29.4825 49.3633 27.9604 47.8369 24.6533L47.8135 24.6035L47.7891 24.5547C47.5439 24.0642 47.3669 23.5489 47.1084 22.7734L46.8076 21.8682C46.5481 20.1866 46.5996 18.6275 47.0283 17.127L47.04 17.0859L47.0508 17.0439L47.2041 16.4775C47.9915 13.6586 49.1599 11.0181 50.7676 8.70703L50.7871 8.67871L50.8066 8.64941C51.2968 7.91436 51.9621 7.249 52.6973 6.75879C53.6371 6.13225 54.5319 5.99177 55.6797 6.31543C57.1586 6.82147 58.4085 7.75573 59.6328 9.08203L59.6602 9.11133C61.3543 10.9051 62.5874 13.1334 63.3193 15.6328L63.3184 15.6338Z" stroke="#DDE9D8" stroke-width="7"/>
<path d="M64.709 60.8069C65.0359 65.6121 62.328 70.122 59.6406 72.0764L59.6055 72.1018L59.5703 72.1292C56.8609 74.2063 54.0756 74.5696 50.8447 73.2893C48.5695 72.3307 46.2804 71.2489 43.9102 70.1262L43.8721 70.1077L43.833 70.0901C41.5437 69.0726 38.7981 67.961 35.6182 67.802L35.5303 67.7981L35.4434 67.7981C33.241 67.7981 31.2434 68.2729 29.6787 68.634C27.2112 69.1833 25.2965 69.7297 23.0762 70.0803C18.7829 70.705 14.2824 68.178 12.6748 64.2483L12.6719 64.2415L12.6689 64.2336C10.9523 60.0935 11.1685 56.2634 13.3359 52.5198L13.3447 52.5051L13.3525 52.4905L13.6729 51.9358C17.0249 46.252 21.5992 42.1026 27.5586 39.3938L27.5703 39.3879L27.583 39.3821C35.1651 35.8659 42.5727 36.0835 49.9199 40.1379C54.8596 42.8822 58.546 46.8532 61.5312 52.0198L61.5449 52.0432C62.628 53.8845 63.4915 55.9388 64.0283 58.0862L64.709 60.8069Z" stroke="#DDE9D8" stroke-width="7"/>
</svg>
