<svg width="32" height="31" viewBox="0 0 32 31" fill="none" xmlns="http://www.w3.org/2000/svg">
<path d="M30.499 14.9961C30.4846 15.3852 30.2938 15.885 29.9072 16.3604C29.5258 16.8294 29.0544 17.1474 28.6514 17.2744C27.9013 17.4633 27.1761 17.1037 26.8975 16.3389C26.6395 15.5582 26.6295 14.9302 26.8789 14.2754L26.8906 14.2451L26.9004 14.2158L27.1191 13.5967C27.3408 13.0131 27.5775 12.5335 27.8926 12.1396L27.8994 12.1318L27.9053 12.123L28.0742 11.9277C28.1267 11.874 28.1753 11.8314 28.2188 11.7988C28.3024 11.7361 28.3397 11.7314 28.334 11.7324L28.3818 11.7236L28.4297 11.7119C28.5027 11.6937 28.5477 11.698 28.5781 11.7051C28.6122 11.713 28.6661 11.7337 28.7373 11.7891L28.7764 11.8193L28.8174 11.8477C29.9729 12.6306 30.5332 13.6586 30.498 14.9961L30.499 14.9961Z" stroke="white" stroke-width="3"/>
<path d="M5.271 13.521L5.26709 13.5542L5.26514 13.5874C5.23428 14.0491 5.08362 14.4873 4.78174 14.9233L4.77979 14.9272C4.19145 15.783 3.18244 15.8724 2.47998 15.1978C1.90036 14.6363 1.57242 13.9719 1.51123 13.3218C1.45274 12.6993 1.62523 11.9614 2.27979 11.1753C2.81636 10.5585 3.31794 10.2024 3.85889 10.0601C4.08097 10.0017 4.20312 10.0285 4.25537 10.0483C4.29861 10.0648 4.37996 10.1078 4.47314 10.2661L4.49463 10.3022L4.58057 10.4312C4.59395 10.4519 4.60329 10.4671 4.60986 10.478L4.62646 10.5288L4.67334 10.6245C4.70732 10.6925 4.74643 10.7868 4.79736 10.9282C4.82459 11.0038 4.84344 11.0604 4.87451 11.1479C4.90155 11.2241 4.93484 11.3159 4.97119 11.4067L5.00439 11.4878C5.2042 12.4579 5.33137 12.9775 5.271 13.521Z" stroke="white" stroke-width="3"/>
<path d="M14.2263 6.7793C14.104 8.03577 13.6861 8.95518 12.8416 9.63086L12.8337 9.63672L12.8269 9.64355C11.9404 10.3717 10.7225 10.4297 9.78198 9.80273L9.77612 9.79883L9.76929 9.79492C8.94026 9.2542 8.38248 8.49838 8.02808 7.47461L8.0271 7.4707C7.49691 5.95053 7.86221 4.61238 9.03198 3.28125L9.04468 3.2666L9.05737 3.25098L9.28589 2.99316C9.83407 2.41107 10.4841 1.9721 11.2048 1.70996L11.2361 1.69824L11.4734 1.61328C11.9877 1.44736 12.3132 1.47287 12.6423 1.63281C12.9005 1.77996 13.1611 2.06797 13.4373 2.57324C13.499 2.6979 13.5551 2.83439 13.616 2.99121L13.7673 3.60059C14.1186 5.0055 14.2989 5.91993 14.2263 6.7793Z" stroke="white" stroke-width="3"/>
<path d="M25.2346 6.19043C25.5824 7.41499 25.3337 8.5344 24.5188 9.66309C23.9271 10.4478 23.2387 10.9627 22.4211 11.2012L22.4202 11.2012C21.1056 11.5859 19.8161 11.0013 19.2258 9.72266L19.2161 9.70117L19.2053 9.68066C19.1109 9.49176 19.0414 9.29156 18.9377 8.98047L18.8245 8.63769C18.7219 7.97529 18.7405 7.36584 18.9075 6.78125L18.9124 6.76367L18.9172 6.74512L19.0422 6.29785C19.3526 5.2634 19.7958 4.29608 20.3889 3.44336L20.3977 3.43066L20.4055 3.41797L20.5598 3.21191C20.725 3.01134 20.9226 2.83108 21.135 2.68945C21.4853 2.45599 21.8128 2.40328 22.2454 2.52539C22.8139 2.72119 23.2986 3.08255 23.7795 3.60352L23.7854 3.61035L23.7913 3.61621C24.4587 4.32285 24.9451 5.20241 25.2336 6.19141L25.2346 6.19043Z" stroke="white" stroke-width="3"/>
<path d="M25.7854 24.2417C25.9093 26.1209 24.849 27.8884 23.7981 28.6528L23.7825 28.6646L23.7678 28.6753C22.7155 29.4821 21.6408 29.6256 20.384 29.1304C19.4739 28.7471 18.5577 28.3143 17.6067 27.8638L17.5735 27.8481C16.6564 27.4406 15.5438 26.9889 14.2522 26.9243L14.2151 26.9224L14.177 26.9224C13.2834 26.9224 12.474 27.1152 11.8499 27.2593C10.8609 27.4794 10.1066 27.6948 9.22778 27.8345V27.8354C7.55102 28.0852 5.78895 27.0966 5.16235 25.5649L5.15942 25.5581C4.48436 23.9297 4.57055 22.4306 5.42114 20.9614L5.42407 20.9556L5.42798 20.9487L5.68579 20.5122C7.0038 18.3667 8.7764 16.7916 11.0647 15.7515L11.0754 15.7466C14.0799 14.3534 17.0103 14.4388 19.9211 16.0454L19.9202 16.0464C21.7545 17.0656 23.1544 18.5121 24.3 20.3813L24.5256 20.7612L24.5315 20.771C24.9601 21.4996 25.3026 22.3125 25.5149 23.1616L25.7854 24.2417Z" stroke="white" stroke-width="3"/>
</svg>
