<svg width="32" height="31" viewBox="0 0 32 31" fill="none" xmlns="http://www.w3.org/2000/svg">
<path d="M30.499 14.9961C30.4846 15.3852 30.2938 15.885 29.9072 16.3604C29.5258 16.8294 29.0544 17.1474 28.6514 17.2744C27.9013 17.4633 27.1761 17.1037 26.8975 16.3389C26.6395 15.5582 26.6295 14.9302 26.8789 14.2754L26.8906 14.2451L26.9004 14.2158L27.1191 13.5967C27.3408 13.0131 27.5775 12.5335 27.8926 12.1396L27.8994 12.1318L27.9053 12.123L28.0742 11.9277C28.1267 11.874 28.1753 11.8314 28.2188 11.7988C28.3024 11.7361 28.3397 11.7314 28.334 11.7324L28.3818 11.7236L28.4297 11.7119C28.5027 11.6937 28.5477 11.698 28.5781 11.7051C28.6122 11.713 28.6661 11.7337 28.7373 11.7891L28.7764 11.8193L28.8174 11.8477C29.9729 12.6306 30.5332 13.6586 30.498 14.9961L30.499 14.9961Z" stroke="#72A45C" stroke-width="3"/>
<path d="M5.27051 13.521L5.2666 13.5542L5.26465 13.5874C5.23379 14.0491 5.08313 14.4873 4.78125 14.9233L4.7793 14.9272C4.19096 15.783 3.18196 15.8724 2.47949 15.1978C1.89987 14.6363 1.57193 13.9719 1.51074 13.3218C1.45225 12.6993 1.62474 11.9614 2.2793 11.1753C2.81587 10.5585 3.31746 10.2024 3.8584 10.0601C4.08048 10.0017 4.20263 10.0285 4.25488 10.0483C4.29812 10.0648 4.37947 10.1078 4.47266 10.2661L4.49414 10.3022L4.58008 10.4312C4.59346 10.4519 4.6028 10.4671 4.60938 10.478L4.62598 10.5288L4.67285 10.6245C4.70684 10.6925 4.74594 10.7868 4.79688 10.9282C4.8241 11.0038 4.84295 11.0604 4.87402 11.1479C4.90107 11.2241 4.93436 11.3159 4.9707 11.4067L5.00391 11.4878C5.20371 12.4579 5.33088 12.9775 5.27051 13.521Z" stroke="#72A45C" stroke-width="3"/>
<path d="M14.2266 6.7793C14.1043 8.03577 13.6864 8.95518 12.8418 9.63086L12.834 9.63672L12.8271 9.64355C11.9407 10.3717 10.7227 10.4297 9.78223 9.80273L9.77637 9.79883L9.76953 9.79492C8.94051 9.2542 8.38273 8.49838 8.02832 7.47461L8.02734 7.4707C7.49715 5.95053 7.86245 4.61238 9.03223 3.28125L9.04492 3.2666L9.05762 3.25098L9.28613 2.99316C9.83432 2.41107 10.4844 1.9721 11.2051 1.70996L11.2363 1.69824L11.4736 1.61328C11.9879 1.44736 12.3134 1.47287 12.6426 1.63281C12.9008 1.77996 13.1614 2.06797 13.4375 2.57324C13.4992 2.6979 13.5554 2.83439 13.6162 2.99121L13.7676 3.60059C14.1188 5.0055 14.2992 5.91993 14.2266 6.7793Z" stroke="#72A45C" stroke-width="3"/>
<path d="M25.2344 6.19067C25.5822 7.41523 25.3334 8.53465 24.5186 9.66333C23.9268 10.448 23.2384 10.963 22.4209 11.2014L22.4199 11.2014C21.1054 11.5861 19.8158 11.0015 19.2256 9.7229L19.2158 9.70142L19.2051 9.68091C19.1106 9.49201 19.0412 9.2918 18.9375 8.98071L18.8242 8.63794C18.7217 7.97554 18.7402 7.36608 18.9072 6.78149L18.9121 6.76392L18.917 6.74536L19.042 6.2981C19.3524 5.26365 19.7955 4.29633 20.3887 3.4436L20.3975 3.43091L20.4053 3.41821L20.5596 3.21216C20.7247 3.01158 20.9223 2.83133 21.1348 2.6897C21.4851 2.45624 21.8125 2.40353 22.2451 2.52563C22.8136 2.72143 23.2983 3.08279 23.7793 3.60376L23.7852 3.6106L23.791 3.61645C24.4584 4.32309 24.9449 5.20266 25.2334 6.19165L25.2344 6.19067Z" stroke="#72A45C" stroke-width="3"/>
<path d="M25.7852 24.2417C25.9091 26.1209 24.8488 27.8884 23.7979 28.6528L23.7822 28.6646L23.7676 28.6753C22.7152 29.4821 21.6406 29.6256 20.3838 29.1304C19.4736 28.7471 18.5575 28.3143 17.6064 27.8638L17.5732 27.8481C16.6561 27.4406 15.5435 26.9889 14.252 26.9243L14.2148 26.9224L14.1768 26.9224C13.2832 26.9224 12.4738 27.1152 11.8496 27.2593C10.8606 27.4794 10.1063 27.6948 9.22754 27.8345V27.8354C7.55078 28.0852 5.7887 27.0966 5.16211 25.5649L5.15918 25.5581C4.48411 23.9297 4.5703 22.4306 5.4209 20.9614L5.42383 20.9556L5.42773 20.9487L5.68555 20.5122C7.00356 18.3667 8.77615 16.7916 11.0645 15.7515L11.0752 15.7466C14.0797 14.3534 17.01 14.4388 19.9209 16.0454L19.9199 16.0464C21.7543 17.0656 23.1541 18.5121 24.2998 20.3813L24.5254 20.7612L24.5312 20.771C24.9599 21.4996 25.3023 22.3125 25.5146 23.1616L25.7852 24.2417Z" stroke="#72A45C" stroke-width="3"/>
</svg>
