<svg width="25" height="32" viewBox="0 0 25 32" fill="none" xmlns="http://www.w3.org/2000/svg">
<path d="M12.5029 15.7652C13.3268 15.7652 14.0312 15.4669 14.616 14.8705C15.2012 14.274 15.4938 13.557 15.4938 12.7195C15.4938 11.8821 15.2004 11.1659 14.6136 10.5711C14.0268 9.97663 13.3213 9.67937 12.4971 9.67937C11.6732 9.67937 10.9688 9.97761 10.384 10.5741C9.79882 11.1706 9.50624 11.8877 9.50624 12.7254C9.50624 13.5629 9.79964 14.2789 10.3864 14.8734C10.9732 15.4679 11.6787 15.7652 12.5029 15.7652ZM12.5 28.64C15.7398 25.6919 18.2191 22.8641 19.9378 20.1567C21.6565 17.4492 22.5159 15.0779 22.5159 13.0427C22.5159 9.97396 21.5568 7.45115 19.6385 5.47432C17.7202 3.49748 15.3407 2.50906 12.5 2.50906C9.65929 2.50906 7.2798 3.49748 5.36152 5.47432C3.44324 7.45115 2.4841 9.97396 2.4841 13.0427C2.4841 15.0779 3.34346 17.4492 5.06219 20.1567C6.78091 22.8641 9.26018 25.6919 12.5 28.64ZM12.5 32C8.33223 28.3291 5.20695 24.9129 3.12417 21.7512C1.04139 18.5893 0 15.6865 0 13.0427C0 9.15809 1.23612 6.01313 3.70835 3.60788C6.18086 1.20263 9.11141 0 12.5 0C15.8886 0 18.8191 1.20263 21.2916 3.60788C23.7639 6.01313 25 9.15809 25 13.0427C25 15.6865 23.9586 18.5893 21.8758 21.7512C19.793 24.9129 16.6678 28.3291 12.5 32Z" fill="white"/>
</svg>
