<svg width="22" height="32" viewBox="0 0 22 32" fill="none" xmlns="http://www.w3.org/2000/svg">
<path d="M7.07143 31.7142C5.10714 31.7142 3.4375 31.0267 2.0625 29.6517C0.6875 28.2767 0 26.6071 0 24.6428C0 23.7261 0.222619 22.8815 0.667857 22.1089C1.1131 21.3362 1.9381 20.3475 3.14286 19.1428C3.3 18.9856 3.4506 18.822 3.59464 18.6517C3.73869 18.4815 3.92857 18.2523 4.16429 17.9642C2.82857 15.9214 1.8006 13.7803 1.08036 11.541C0.360119 9.30172 0 7.12136 0 4.99993C0 3.48088 0.275 2.31541 0.825 1.5035C1.375 0.691597 2.14762 0.285645 3.14286 0.285645C4.63571 0.285645 5.97143 1.00588 7.15 2.44636C8.32857 3.88683 9.21905 5.20945 9.82143 6.41422C10.0571 6.93803 10.2732 7.46838 10.4696 8.00529C10.6661 8.54219 10.8429 9.09874 11 9.67493C11.1571 9.09874 11.3339 8.54219 11.5304 8.00529C11.7268 7.46838 11.956 6.93803 12.2179 6.41422C12.794 5.20945 13.6714 3.88683 14.85 2.44636C16.0286 1.00588 17.3643 0.285645 18.8571 0.285645C19.8524 0.285645 20.625 0.691597 21.175 1.5035C21.725 2.31541 22 3.48088 22 4.99993C22 7.12136 21.6399 9.30172 20.9196 11.541C20.1994 13.7803 19.1714 15.9214 17.8357 17.9642C18.0714 18.2523 18.2613 18.4815 18.4054 18.6517C18.5494 18.822 18.7 18.9856 18.8571 19.1428C20.0619 20.3475 20.8869 21.3362 21.3321 22.1089C21.7774 22.8815 22 23.7261 22 24.6428C22 26.6071 21.3125 28.2767 19.9375 29.6517C18.5625 31.0267 16.8929 31.7142 14.9286 31.7142C13.75 31.7142 12.8006 31.5833 12.0804 31.3214L11 30.9285L9.91964 31.3214C9.1994 31.5833 8.25 31.7142 7.07143 31.7142ZM7.07143 28.5714C7.67381 28.5714 8.27619 28.4993 8.87857 28.3553C9.48095 28.2112 10.044 27.9952 10.5679 27.7071C10.2798 27.5761 10.0179 27.3535 9.78214 27.0392C9.54643 26.7249 9.42857 26.4499 9.42857 26.2142C9.42857 26.0047 9.57917 25.8214 9.88036 25.6642C10.1815 25.5071 10.5548 25.4285 11 25.4285C11.4452 25.4285 11.8185 25.5071 12.1196 25.6642C12.4208 25.8214 12.5714 26.0047 12.5714 26.2142C12.5714 26.4499 12.4536 26.7249 12.2179 27.0392C11.9821 27.3535 11.7202 27.5761 11.4321 27.7071C11.956 27.9952 12.519 28.2112 13.1214 28.3553C13.7238 28.4993 14.3262 28.5714 14.9286 28.5714C16.0286 28.5714 16.9583 28.1916 17.7179 27.4321C18.4774 26.6725 18.8571 25.7428 18.8571 24.6428C18.8571 24.1714 18.7262 23.713 18.4643 23.2678C18.2024 22.8225 17.8095 22.3773 17.2857 21.9321C16.919 21.6178 16.6179 21.3428 16.3821 21.1071C16.1464 20.8714 15.7667 20.4261 15.2429 19.7714C14.4833 18.8547 13.8548 18.2589 13.3571 17.9839C12.8595 17.7089 12.0738 17.5714 11 17.5714C9.92619 17.5714 9.13393 17.7089 8.62321 17.9839C8.1125 18.2589 7.49048 18.8547 6.75714 19.7714C6.23333 20.4261 5.85357 20.8714 5.61786 21.1071C5.38214 21.3428 5.08095 21.6178 4.71429 21.9321C4.19048 22.3773 3.79762 22.8225 3.53571 23.2678C3.27381 23.713 3.14286 24.1714 3.14286 24.6428C3.14286 25.7428 3.52262 26.6725 4.28214 27.4321C5.04167 28.1916 5.97143 28.5714 7.07143 28.5714ZM8.64286 23.4642C8.43333 23.4642 8.25 23.3464 8.09286 23.1106C7.93571 22.8749 7.85714 22.5999 7.85714 22.2856C7.85714 21.9714 7.93571 21.6964 8.09286 21.4606C8.25 21.2249 8.43333 21.1071 8.64286 21.1071C8.85238 21.1071 9.03571 21.2249 9.19286 21.4606C9.35 21.6964 9.42857 21.9714 9.42857 22.2856C9.42857 22.5999 9.35 22.8749 9.19286 23.1106C9.03571 23.3464 8.85238 23.4642 8.64286 23.4642ZM13.3571 23.4642C13.1476 23.4642 12.9643 23.3464 12.8071 23.1106C12.65 22.8749 12.5714 22.5999 12.5714 22.2856C12.5714 21.9714 12.65 21.6964 12.8071 21.4606C12.9643 21.2249 13.1476 21.1071 13.3571 21.1071C13.5667 21.1071 13.75 21.2249 13.9071 21.4606C14.0643 21.6964 14.1429 21.9714 14.1429 22.2856C14.1429 22.5999 14.0643 22.8749 13.9071 23.1106C13.75 23.3464 13.5667 23.4642 13.3571 23.4642ZM6.40357 15.6464C6.69167 15.4368 7.01905 15.2535 7.38571 15.0964C7.75238 14.9392 8.15833 14.7952 8.60357 14.6642C8.55119 13.4071 8.36131 12.1565 8.03393 10.9124C7.70655 9.66838 7.29405 8.53564 6.79643 7.51422C6.29881 6.4666 5.74881 5.58267 5.14643 4.86243C4.54405 4.14219 3.94167 3.67731 3.33929 3.46779C3.2869 3.62493 3.24107 3.82791 3.20179 4.07672C3.1625 4.32553 3.14286 4.63326 3.14286 4.99993C3.14286 6.78088 3.4244 8.58803 3.9875 10.4214C4.5506 12.2547 5.35595 13.9964 6.40357 15.6464ZM15.5964 15.6464C16.644 13.9964 17.4494 12.2547 18.0125 10.4214C18.5756 8.58803 18.8571 6.78088 18.8571 4.99993C18.8571 4.63326 18.8375 4.32553 18.7982 4.07672C18.7589 3.82791 18.7131 3.62493 18.6607 3.46779C18.0583 3.67731 17.456 4.14219 16.8536 4.86243C16.2512 5.58267 15.7012 6.4666 15.2036 7.51422C14.7321 8.53564 14.3327 9.66838 14.0054 10.9124C13.678 12.1565 13.475 13.4071 13.3964 14.6642C13.7893 14.769 14.169 14.9065 14.5357 15.0767C14.9024 15.247 15.256 15.4368 15.5964 15.6464Z" fill="#72A45C"/>
</svg>
