<svg width="56" height="56" viewBox="0 0 56 56" fill="none" xmlns="http://www.w3.org/2000/svg">
<path d="M45.2436 4.91553H9.50161C7.30744 4.91553 5.53027 6.6927 5.53027 8.88686V44.6288C5.53027 46.823 7.30744 48.6002 9.50161 48.6002H45.2436C47.4378 48.6002 49.2149 46.823 49.2149 44.6288V8.88686C49.2149 6.6927 47.4358 4.91553 45.2436 4.91553ZM42.6404 23.7277C42.3822 23.7516 42.1221 23.7674 41.86 23.7674C38.8914 23.7674 36.2823 22.2424 34.7632 19.9331C34.7632 25.9874 34.7632 32.8777 34.7632 32.9928C34.7632 38.3244 30.4405 42.6452 25.1109 42.6452C19.7814 42.6432 15.4586 38.3204 15.4586 32.9909C15.4586 27.6593 19.7814 23.3385 25.1109 23.3385C25.3135 23.3385 25.51 23.3564 25.7066 23.3683V28.126C25.5081 28.1021 25.3154 28.0664 25.1109 28.0664C22.3906 28.0664 20.1845 30.2725 20.1845 32.9928C20.1845 35.7132 22.3886 37.9193 25.1109 37.9193C27.8333 37.9193 30.2359 35.7748 30.2359 33.0544C30.2359 32.9452 30.2836 10.8745 30.2836 10.8745H34.8288C35.2557 14.9392 38.538 18.148 42.6404 18.4419V23.7277Z" fill="white"/>
</svg>
