<svg width="64" height="62" viewBox="0 0 64 62" fill="none" xmlns="http://www.w3.org/2000/svg">
<g clip-path="url(#clip0_8117_3409)">
<path d="M44.9529 40.9647C44.7538 40.9647 44.5511 40.9647 44.352 40.9578C41.7707 40.9062 38.912 40.6478 37.664 38.1885C37.3511 37.5719 37.4756 37.1724 37.6356 36.945C37.9058 36.5593 38.4889 36.3698 39.2427 36.4284C40.7858 36.5489 42.1973 36.3113 43.3245 35.736C44.5333 35.1195 45.4365 34.0724 45.7458 32.9323L40.8213 29.4947C40.6258 29.3569 40.5298 29.1193 40.5796 28.8885C40.6293 28.6577 40.8071 28.4855 41.0418 28.4373C41.1058 28.4235 41.1662 28.4132 41.2302 28.4097C41.12 28.1169 40.8391 27.6209 40.7076 27.4315C40.3342 26.901 39.8649 26.4429 39.3458 26.1054C39.2498 26.0434 39.1467 25.9848 39.04 25.9228C38.6525 25.7024 38.2151 25.4509 37.9876 24.9859C37.8276 24.6587 37.8133 24.2592 37.9556 23.8906C38.2009 23.2465 38.4285 22.6162 38.5458 21.9583C38.5565 21.8894 38.5458 21.8274 38.5031 21.7792C38.4676 21.7344 38.4107 21.7103 38.3431 21.7068C34.9156 21.569 31.3173 23.2258 28.704 26.1329C26.4853 28.6026 24.8853 31.9506 23.8116 36.3664L23.7831 36.48C23.5058 37.6202 23.1929 38.9118 22.2436 39.7695C21.4365 40.4997 20.2489 40.8545 18.6098 40.8545H18.5493C17.2409 40.8476 15.4667 40.5858 14.4427 39.3734C13.2907 38.0163 13.1911 36.449 13.1876 34.961L13.1733 29.3569C13.1733 28.2582 13.1662 27.0147 13.6498 25.8987C14.2507 24.5037 15.6338 23.429 17.1733 23.1604C17.8453 23.0433 18.5209 23.0708 19.1751 23.0984C19.488 23.1122 19.8116 23.1259 20.1245 23.1225C21.2445 23.1122 22.0587 22.84 22.5458 22.3165C23.2356 21.5794 23.1929 20.5082 23.1502 19.3749C23.1325 18.8962 23.1147 18.4002 23.1502 17.9248C23.296 16.1509 24.384 14.5734 25.92 13.9052C27.0187 13.4264 28.256 13.4229 29.3476 13.4229L35.0898 13.4126C36.2133 13.4126 37.4827 13.4092 38.624 13.8638C40.1529 14.47 41.2907 15.8857 41.5289 17.4667C41.6213 18.0729 41.5929 18.7067 41.5645 19.3233C41.5147 20.453 41.4685 21.5243 42.1511 22.2752C42.656 22.8297 43.5129 23.119 44.6969 23.1363C44.9991 23.1397 45.3156 23.1294 45.6213 23.119C46.336 23.0949 47.0756 23.0708 47.8009 23.2224C49.2196 23.5186 50.4605 24.5037 51.0365 25.7954C51.5342 26.9045 51.5342 28.1445 51.5342 29.2398V34.8026C51.5342 35.2332 51.5342 35.736 51.4987 36.232C51.4382 37.0208 51.2747 38.1782 50.5422 39.115C49.3191 40.6823 47.168 40.9716 44.9422 40.9716L44.9529 40.9647ZM38.9796 37.0484C38.5885 37.0484 38.2827 37.1414 38.1725 37.2964C38.0587 37.4583 38.1511 37.7166 38.2471 37.906C39.3351 40.0485 41.8667 40.2758 44.3662 40.324C46.624 40.3688 48.8747 40.2069 50.0338 38.7258C50.5138 38.1127 50.7733 37.3033 50.8587 36.1804C50.8942 35.7085 50.8978 35.2194 50.8978 34.7957V29.2329C50.8978 28.1996 50.8978 27.0285 50.4498 26.0399C49.9556 24.9343 48.8889 24.0904 47.6729 23.8355C47.0258 23.7012 46.3573 23.7218 45.6533 23.7459C45.3405 23.7563 45.0169 23.7666 44.6969 23.7632C43.3209 23.7459 42.3005 23.3843 41.6711 22.6885C40.8178 21.7482 40.8711 20.5013 40.9245 19.2957C40.9493 18.7102 40.9778 18.1074 40.896 17.5563C40.6898 16.1923 39.7085 14.9695 38.3893 14.4459C37.3653 14.0395 36.1565 14.0395 35.104 14.0429L29.3618 14.0533C28.3378 14.0533 27.1751 14.0567 26.2009 14.4804C24.8782 15.0556 23.9396 16.4299 23.8116 17.973C23.776 18.4105 23.7938 18.8893 23.8116 19.3508C23.8578 20.5598 23.904 21.8136 23.0365 22.7402C22.4213 23.398 21.4436 23.739 20.1387 23.7528C19.8116 23.7528 19.4773 23.7425 19.1538 23.7287C18.5067 23.7012 17.8951 23.677 17.2942 23.7804C15.968 24.0112 14.7769 24.9377 14.2578 26.1398C13.8276 27.1387 13.8311 28.3167 13.8311 29.3535L13.8453 34.9576C13.8489 36.6764 14.0302 37.8854 14.9511 38.9704C15.8151 39.9899 17.3902 40.2138 18.56 40.2207C18.5778 40.2207 18.5991 40.2207 18.6169 40.2207C20.0782 40.2207 21.1236 39.921 21.8027 39.3045C22.6062 38.5777 22.8836 37.4342 23.1502 36.3319L23.1787 36.2183C24.2773 31.6992 25.9236 28.265 28.2133 25.7162C30.9547 22.6644 34.7485 20.9353 38.3716 21.073C38.624 21.0834 38.8587 21.1936 39.0116 21.3796C39.168 21.5656 39.232 21.817 39.1893 22.0616C39.0613 22.7712 38.8231 23.4325 38.5671 24.1042C38.4889 24.3143 38.4925 24.5347 38.5778 24.7069C38.72 24.9963 39.0365 25.1788 39.3742 25.3717C39.488 25.4372 39.6018 25.5026 39.7085 25.5715C40.3058 25.9573 40.8249 26.4602 41.248 27.0698C41.3405 27.2007 42.1333 28.3615 41.8667 28.8196C41.7849 28.9574 41.6285 29.0297 41.4613 29.0263C41.4009 29.0263 41.344 29.0263 41.2836 29.0332L46.1476 32.4328C46.3502 32.574 46.4427 32.822 46.3858 33.0528C46.0409 34.3789 45.0098 35.5914 43.6267 36.294C42.3893 36.9244 40.8569 37.1862 39.1893 37.0587C39.1182 37.0518 39.0471 37.0518 38.9796 37.0518V37.0484Z" fill="white"/>
<path d="M29.3653 50.6022C28.9173 50.6022 28.4586 50.5954 27.9999 50.5575C27.5057 50.5161 27.0719 50.4438 26.6702 50.3405C23.6017 49.5379 22.5635 46.7445 23.5804 42.0359C24.7608 36.5799 26.7164 31.8886 29.3973 28.0962C30.8693 26.0158 32.8604 24.5312 34.8586 24.0249C35.0791 23.9698 35.3066 24.0249 35.4773 24.1696C35.6479 24.3177 35.7333 24.5381 35.7013 24.7586L35.6906 24.824C35.5839 25.5646 35.4773 26.3292 35.9395 26.8597C36.1279 27.0767 36.4017 27.2248 36.6933 27.3832C36.8106 27.4452 36.9279 27.5107 37.0417 27.5796C37.5004 27.8551 37.8986 28.2134 38.2222 28.637C38.8835 29.4947 38.7377 29.7737 38.6879 29.8667C38.6417 29.9562 38.5635 30.0217 38.4675 30.0596C38.6595 30.1905 38.8302 30.3351 38.9831 30.4901C39.5235 31.0378 39.7333 31.6544 39.5662 32.2296C39.2462 33.3421 38.2115 34.2721 36.9351 34.5994C36.6399 34.6751 36.3342 34.7199 36.0355 34.7612C35.2355 34.8749 34.5457 34.9714 34.1759 35.6189C34.1013 35.7498 34.0551 35.8945 34.0302 36.0495C33.9377 36.6798 34.1724 37.3308 34.7484 38.0335C35.4702 38.9152 36.4586 39.5938 37.4186 40.2551C38.4888 40.9888 39.5946 41.75 40.3875 42.8109C41.2657 43.9924 41.6426 45.439 41.4151 46.7789C41.1697 48.2256 40.2133 49.4897 38.9155 50.0752C37.8417 50.5609 36.6257 50.5678 35.5555 50.5747L29.8275 50.6091C29.6711 50.6091 29.5146 50.6091 29.3546 50.6091L29.3653 50.6022ZM28.0533 49.9271C28.6435 49.9754 29.2479 49.9719 29.8311 49.9685L35.5591 49.934C36.5653 49.9271 37.7031 49.9202 38.6488 49.4931C39.7546 48.9937 40.5724 47.9121 40.7786 46.6687C40.9777 45.4941 40.6435 44.2197 39.8648 43.1726C39.1395 42.1978 38.1226 41.4986 37.0488 40.7615C36.0533 40.076 35.0222 39.3699 34.2435 38.4192C33.5502 37.5719 33.2728 36.7659 33.3902 35.953C33.4222 35.7222 33.4968 35.5052 33.6106 35.3089C34.1333 34.3858 35.0968 34.248 35.9466 34.1275C36.2382 34.0861 36.5119 34.0482 36.7715 33.9794C37.8311 33.7072 38.6844 32.9529 38.9439 32.0505C39.0791 31.5786 38.7342 31.1411 38.5173 30.9207C38.3502 30.7519 38.1475 30.5935 37.9199 30.4557C37.9093 30.4488 37.8879 30.4385 37.8666 30.4281C37.6604 30.3214 37.3439 30.156 37.3333 29.8632C37.3333 29.7909 37.3475 29.6084 37.5573 29.4775C37.7137 29.381 37.8773 29.4086 37.9839 29.4361C37.9057 29.2984 37.7991 29.1365 37.7031 29.0125C37.4293 28.6577 37.0808 28.3442 36.7004 28.1135C36.5973 28.0515 36.4871 27.9929 36.3804 27.9344C36.0533 27.7552 35.7119 27.5727 35.4488 27.2696C34.7946 26.5221 34.9297 25.5749 35.0506 24.7379L35.0613 24.6759C35.0613 24.6621 35.0542 24.6518 35.0506 24.6449C33.1804 25.1065 31.3244 26.5015 29.9413 28.4579C27.3066 32.1814 25.3831 36.7935 24.2239 42.1702C23.2924 46.493 24.1706 49.0385 26.8444 49.7377C27.2071 49.8341 27.6053 49.8961 28.0604 49.934L28.0533 49.9271Z" fill="white"/>
<path d="M37.8703 3.79585L39.1538 4.05763L39.321 3.28952C39.3494 3.15174 39.3601 3.06219 39.353 3.01396C39.3458 2.97952 39.3245 2.94507 39.2854 2.91063C39.2321 2.86585 39.1752 2.8383 39.1112 2.82452L39.0116 2.80385L39.0258 2.73152L40.2098 2.97263L40.1956 3.04496L40.0961 3.0243C40.0321 3.01052 39.9645 3.01396 39.9005 3.03119C39.8507 3.04496 39.8152 3.06907 39.7903 3.11041C39.7654 3.15174 39.737 3.23441 39.7085 3.36874L39.3316 5.09785C39.3032 5.23219 39.2925 5.32519 39.2996 5.37341C39.3067 5.40785 39.3281 5.4423 39.3636 5.47674C39.417 5.52152 39.4774 5.54907 39.5414 5.56285L39.641 5.58352L39.6267 5.65585L38.4427 5.41474L38.457 5.34241L38.5565 5.36307C38.6703 5.38719 38.7592 5.36996 38.8232 5.3183C38.8658 5.28385 38.905 5.18396 38.9405 5.02552L39.1183 4.20919L37.8347 3.94741L37.657 4.76374C37.6285 4.89807 37.6178 4.99107 37.625 5.0393C37.6321 5.07374 37.6534 5.10819 37.6925 5.14263C37.7458 5.18741 37.8027 5.21496 37.8667 5.22874L37.9663 5.24941L37.9521 5.32174L36.7681 5.08063L36.7823 5.0083L36.8818 5.02896C36.9956 5.05307 37.0845 5.03585 37.1521 4.98419C37.1947 4.94974 37.2338 4.84985 37.2658 4.69141L37.6427 2.9623C37.6712 2.82452 37.6818 2.73496 37.6747 2.68674C37.6676 2.6523 37.6463 2.61785 37.6107 2.58341C37.5574 2.53863 37.497 2.51107 37.433 2.4973L37.3334 2.47663L37.3476 2.4043L38.5316 2.64541L38.5174 2.71774L38.4178 2.69707C38.3538 2.6833 38.2863 2.68674 38.2223 2.70396C38.1761 2.71774 38.1405 2.74185 38.1121 2.78319C38.0836 2.82452 38.0587 2.90719 38.0303 3.04152L37.8632 3.80963L37.8703 3.79585Z" fill="white"/>
<path d="M45.7885 4.93236C46.1191 5.08736 46.3467 5.34225 46.4676 5.69703C46.5885 6.0518 46.56 6.41347 46.3787 6.77858C46.1938 7.15403 45.9165 7.40892 45.5503 7.54325C45.184 7.67758 44.8249 7.6638 44.48 7.50192C44.128 7.34003 43.8934 7.08169 43.776 6.72692C43.6587 6.37558 43.6943 6.00703 43.8827 5.62125C44.0783 5.22858 44.3734 4.97369 44.7716 4.85314C45.1165 4.7498 45.4578 4.77392 45.7885 4.92892V4.93236ZM45.6854 5.04603C45.4578 4.93925 45.2338 4.9358 45.0134 5.03569C44.7396 5.15969 44.5085 5.41803 44.3129 5.81069C44.1138 6.21369 44.0498 6.56503 44.1174 6.86469C44.1707 7.09203 44.3129 7.2608 44.5369 7.36414C44.7751 7.47436 45.0169 7.4778 45.2658 7.36758C45.5147 7.25736 45.7316 7.00936 45.9236 6.62014C46.1334 6.19647 46.2045 5.84169 46.1334 5.5558C46.0765 5.32503 45.9271 5.15625 45.6854 5.04258V5.04603Z" fill="white"/>
<path d="M52.2773 8.97983L51.6693 9.72038L51.6088 9.67216C51.7048 9.51372 51.7653 9.37594 51.7831 9.25194C51.8008 9.12794 51.7831 9.00738 51.7333 8.88338C51.6835 8.75938 51.6053 8.66294 51.5057 8.58372C51.3919 8.49761 51.2711 8.45627 51.1431 8.46661C51.0151 8.47694 50.9155 8.52516 50.8444 8.60783C50.7911 8.67327 50.7662 8.74905 50.7662 8.84205C50.7662 8.97294 50.8408 9.20372 50.9866 9.53094C51.1039 9.79616 51.1786 9.98905 51.2071 10.1062C51.2355 10.2233 51.2391 10.3335 51.2142 10.4437C51.1893 10.5539 51.1431 10.6504 51.0755 10.7365C50.9404 10.8984 50.7626 10.9879 50.5351 11.0052C50.3075 11.0224 50.0942 10.9535 49.8879 10.7951C49.8239 10.7468 49.7671 10.6952 49.7173 10.6401C49.6888 10.6091 49.6355 10.5367 49.5537 10.4196C49.4755 10.3059 49.4222 10.2371 49.3937 10.2129C49.3653 10.1923 49.3368 10.1819 49.3084 10.1854C49.2799 10.1888 49.2408 10.2129 49.1911 10.2577L49.1306 10.2095L49.7351 9.47583L49.7955 9.52405C49.6959 9.69972 49.6391 9.84438 49.6248 9.95805C49.6106 10.0717 49.6319 10.1923 49.6888 10.3163C49.7457 10.4437 49.8311 10.5505 49.9484 10.6435C50.0835 10.7468 50.2186 10.7951 50.3573 10.7882C50.4959 10.7813 50.5991 10.7296 50.6773 10.6332C50.7199 10.5815 50.7484 10.5161 50.7626 10.4403C50.7768 10.3645 50.7733 10.2784 50.7484 10.1819C50.7306 10.1165 50.6702 9.9615 50.5671 9.7135C50.4639 9.4655 50.3964 9.27949 50.3644 9.15549C50.3359 9.03149 50.3288 8.91783 50.3502 8.81449C50.3679 8.70772 50.4142 8.61127 50.4888 8.52516C50.6168 8.37016 50.7839 8.2875 50.9973 8.27027C51.2106 8.25305 51.4097 8.31849 51.5982 8.46316C51.7155 8.55272 51.8186 8.67672 51.9039 8.83516C51.9431 8.9075 51.9751 8.95572 51.9999 8.97294C52.0284 8.99361 52.0568 9.00394 52.0888 9.00049C52.1208 9.00049 52.1599 8.97638 52.2133 8.93505L52.2737 8.98327L52.2773 8.97983Z" fill="white"/>
<path d="M54.9581 13.7329L54.3217 14.2392C54.183 14.3494 54.1119 14.4321 54.1012 14.4872C54.087 14.563 54.1155 14.6422 54.183 14.7249L54.2506 14.8075L54.1901 14.8558L53.4221 13.9464L53.4826 13.8982L53.5501 13.9774C53.6248 14.067 53.7101 14.1083 53.8026 14.098C53.8523 14.0911 53.9412 14.0394 54.0657 13.943L55.4808 12.8235C55.6195 12.7133 55.6906 12.6341 55.7012 12.579C55.7155 12.4998 55.687 12.4205 55.6195 12.3413L55.5519 12.2621L55.6123 12.2139L56.2666 12.9923C56.4266 13.1818 56.5332 13.3471 56.5866 13.4883C56.6399 13.6295 56.647 13.7742 56.615 13.9258C56.583 14.0773 56.5012 14.2048 56.3697 14.3081C56.1919 14.4493 55.9963 14.5079 55.7901 14.4838C55.5803 14.4596 55.3883 14.3425 55.2141 14.1324C55.1715 14.0808 55.1288 14.0222 55.0861 13.9568C55.0435 13.8913 55.0008 13.819 54.9581 13.7398V13.7329ZM55.0506 13.6605C55.0861 13.726 55.1181 13.7811 55.1501 13.8259C55.1821 13.8741 55.2106 13.912 55.2355 13.943C55.3279 14.0498 55.4488 14.1118 55.6017 14.1221C55.7546 14.1324 55.9003 14.0842 56.039 13.974C56.135 13.8982 56.2061 13.8121 56.2559 13.7088C56.3057 13.6054 56.3199 13.5055 56.3021 13.4056C56.2843 13.3058 56.2381 13.2093 56.1635 13.1232C56.1172 13.0715 56.0497 13.0095 55.9608 12.9441L55.0506 13.664V13.6605Z" fill="white"/>
<path d="M57.5432 19.7129L57.4756 19.7473L56.9067 18.7105L56.9743 18.6761L57.0205 18.7622C57.0738 18.8621 57.145 18.9206 57.2303 18.9344C57.2836 18.9413 57.3867 18.9069 57.5361 18.8311L59.1467 18.001C59.2747 17.9355 59.353 17.8839 59.385 17.8494C59.4098 17.8219 59.4205 17.784 59.4241 17.7358C59.4241 17.6669 59.4098 17.6049 59.3778 17.5498L59.3316 17.4636L59.3992 17.4292L59.9681 18.466L59.9005 18.5004L59.8543 18.4143C59.801 18.3144 59.7298 18.2593 59.6445 18.2455C59.5876 18.2352 59.4845 18.2696 59.3352 18.3454L57.7245 19.1755C57.5965 19.241 57.5183 19.2926 57.4863 19.3271C57.4614 19.3546 57.4507 19.3925 57.4472 19.4442C57.4472 19.5096 57.4614 19.5716 57.4934 19.6302L57.5396 19.7163L57.5432 19.7129Z" fill="white"/>
<path d="M62.361 24.5863L61.7352 24.7964L61.7138 24.7241C61.8205 24.6793 61.8952 24.6345 61.9343 24.5967C61.9983 24.5347 62.041 24.4658 62.0552 24.3865C62.073 24.3108 62.0623 24.2178 62.0303 24.1075L61.9165 23.739L59.8436 24.3314C59.6765 24.3797 59.577 24.4279 59.5485 24.4727C59.5058 24.5381 59.5023 24.6208 59.5343 24.7241L59.5627 24.8137L59.4881 24.8343L59.1467 23.7218L59.2214 23.7011L59.2498 23.7941C59.2854 23.9043 59.3423 23.9732 59.4276 24.0008C59.4774 24.018 59.5805 24.0008 59.7334 23.9594L61.8063 23.367L61.7103 23.0501C61.6712 22.9261 61.6356 22.8434 61.6036 22.7952C61.5574 22.7367 61.4934 22.6919 61.4045 22.6643C61.3192 22.6368 61.2125 22.6368 61.0881 22.6643L61.0667 22.592L61.7103 22.4404L62.3645 24.5829L62.361 24.5863Z" fill="white"/>
<path d="M61.3725 30.4352L61.2978 29.3777L60.8392 29.2227C60.7254 29.1848 60.6436 29.1676 60.5903 29.171C60.5476 29.171 60.5121 29.1952 60.4801 29.2365C60.4516 29.2778 60.4338 29.3639 60.4338 29.4983H60.3556C60.3556 29.5017 60.2952 28.644 60.2952 28.644H60.3734C60.4018 28.7508 60.4338 28.8232 60.4694 28.8542C60.5405 28.9196 60.6827 28.985 60.8925 29.0539L63.2818 29.8599V29.9288C63.2854 29.9288 61.0098 31.0379 61.0098 31.0379C60.8285 31.1275 60.7076 31.2033 60.6578 31.2722C60.6045 31.3376 60.5796 31.4272 60.5832 31.5408L60.5049 31.5477L60.4267 30.4696H60.5049C60.5192 30.5729 60.5405 30.6453 60.5761 30.6797C60.6116 30.7142 60.6507 30.7314 60.6969 30.7279C60.7574 30.7245 60.8534 30.69 60.9814 30.628L61.3761 30.4352H61.3725ZM61.5254 30.3663L62.6312 29.8255L61.4578 29.4259L61.5254 30.3663Z" fill="white"/>
<path d="M60.7075 37.5447L60.6826 37.6067L59.9644 37.2588L60.3092 35.1646L60.3839 35.1749L60.3661 35.2782C60.3484 35.3919 60.3732 35.4814 60.4408 35.54C60.4799 35.5744 60.5795 35.6054 60.7395 35.6296L62.5421 35.9085C62.7164 35.9361 62.8301 35.9327 62.8799 35.9017C62.9475 35.8603 62.9901 35.788 63.0079 35.6847L63.0257 35.5813L63.1004 35.5917L62.8977 36.8144L62.823 36.8041C62.8479 36.6594 62.8515 36.5595 62.8301 36.4941C62.8124 36.4321 62.7804 36.3873 62.7412 36.3598C62.7021 36.3322 62.599 36.3047 62.4319 36.2806L60.679 36.0084C60.5652 35.9912 60.4835 35.9878 60.4408 36.005C60.4088 36.0153 60.3839 36.0394 60.3661 36.0704C60.3484 36.1014 60.3235 36.2048 60.295 36.377L60.263 36.5733C60.2275 36.78 60.2204 36.9281 60.2381 37.0177C60.2559 37.1072 60.2986 37.1899 60.3697 37.2725C60.4372 37.3552 60.5546 37.4413 60.7146 37.5378L60.7075 37.5447Z" fill="white"/>
<path d="M57.9804 48.8698L57.9164 48.8319C57.952 48.7389 57.9662 48.6597 57.952 48.5942C57.9307 48.4978 57.8773 48.391 57.7884 48.2739L56.2524 46.2417L56.2916 46.1797L58.9227 46.5379C59.0578 46.5551 59.1431 46.562 59.1787 46.5586C59.232 46.5517 59.2853 46.5345 59.3316 46.5035C59.3778 46.4725 59.4276 46.4242 59.4773 46.3588L59.5413 46.3967L58.9369 47.3508L58.8729 47.3129C58.9298 47.1992 58.9547 47.1166 58.9476 47.0684C58.9404 47.0201 58.9156 46.9822 58.8729 46.9581C58.8124 46.9237 58.7058 46.8961 58.5458 46.872L56.7573 46.6275L57.8027 48.0052C57.9058 48.1396 57.984 48.2257 58.0373 48.2567C58.0729 48.2774 58.1156 48.2808 58.1689 48.2636C58.2222 48.2498 58.2791 48.205 58.3431 48.1327C58.3467 48.1292 58.3573 48.1189 58.368 48.1051L58.4356 48.143L57.9804 48.8629V48.8698Z" fill="white"/>
<path d="M54.5706 52.6554L53.7742 51.8942L53.3368 52.3213C53.2231 52.4315 53.1662 52.5245 53.1626 52.5934C53.1591 52.6864 53.2088 52.7898 53.3191 52.9069L53.2657 52.9585L52.5653 52.2903L52.6186 52.2386C52.7288 52.3179 52.8071 52.3661 52.8497 52.3799C52.9031 52.3971 52.9564 52.3936 53.0168 52.373C53.0773 52.3523 53.1484 52.3006 53.2302 52.2214L53.6675 51.7943L53.0026 51.1605C52.9137 51.0744 52.8568 51.0262 52.8284 51.0159C52.7999 51.0055 52.7715 51.0055 52.7431 51.0124C52.7111 51.0193 52.6684 51.0503 52.6151 51.1054L52.2773 51.4361C52.1635 51.5463 52.0924 51.6324 52.0568 51.6979C52.0213 51.7633 52.0035 51.8391 52.0035 51.9321C52.0035 52.0492 52.0355 52.2008 52.0959 52.3799L52.0391 52.4384L51.7048 51.7874L53.2337 50.2856L53.2871 50.3373L53.2159 50.4062C53.1697 50.451 53.1377 50.5061 53.1164 50.5681C53.1022 50.6129 53.1022 50.6576 53.1235 50.699C53.1448 50.7403 53.2017 50.8092 53.3013 50.9022L54.6097 52.1525C54.7377 52.2731 54.8302 52.3385 54.8835 52.342C54.9582 52.342 55.0364 52.3075 55.1182 52.2249L55.1893 52.156L55.2426 52.2076L53.7137 53.7094L53.2515 53.3099L53.3084 53.2548C53.4364 53.3374 53.5288 53.3822 53.5964 53.396C53.6604 53.4098 53.7279 53.4029 53.7991 53.3753C53.8524 53.3512 53.9306 53.2892 54.0266 53.1928L54.5706 52.6589V52.6554Z" fill="white"/>
<path d="M48.1137 57.829L47.7297 57.3055L47.7973 57.2641C47.8719 57.3502 47.9359 57.4088 47.9857 57.4363C48.0639 57.4777 48.1457 57.4983 48.2275 57.4915C48.3093 57.4846 48.3982 57.4501 48.4977 57.3916L48.8319 57.1815L47.6622 55.4213C47.5697 55.2801 47.4951 55.2009 47.4382 55.1871C47.3635 55.1665 47.2782 55.1871 47.1857 55.2422L47.1039 55.2939L47.0613 55.2319L48.0675 54.6016L48.1102 54.6636L48.0248 54.7152C47.9253 54.7772 47.8719 54.853 47.8684 54.9357C47.8684 54.9873 47.9075 55.0769 47.9964 55.2078L49.1662 56.9679L49.4506 56.7888C49.5608 56.7199 49.6355 56.6613 49.6711 56.6166C49.7173 56.558 49.7422 56.4822 49.7457 56.3961C49.7457 56.3066 49.7208 56.2101 49.6568 56.0999L49.7244 56.0586L50.0551 56.6166L48.1137 57.8256V57.829Z" fill="white"/>
<path d="M43.3066 59.885L42.9226 58.8689L42.3395 59.0756C42.1866 59.1307 42.0942 59.1858 42.0622 59.2478C42.016 59.3305 42.016 59.4441 42.0622 59.5957L41.9911 59.6198L41.6533 58.7242L41.7244 58.7001C41.7884 58.8172 41.8382 58.893 41.8702 58.9206C41.9093 58.955 41.9626 58.9791 42.0266 58.9826C42.0906 58.9895 42.176 58.9722 42.2862 58.9343L42.8693 58.7277L42.5493 57.8804C42.5066 57.7667 42.4746 57.6978 42.4569 57.6771C42.4391 57.6565 42.4106 57.6427 42.3786 57.6392C42.3466 57.6324 42.2933 57.6427 42.2222 57.6702L41.7706 57.8287C41.6213 57.8804 41.5146 57.932 41.4542 57.9733C41.3937 58.0181 41.344 58.0801 41.3049 58.1628C41.2551 58.2696 41.216 58.4177 41.1911 58.6071L41.1129 58.6347L41.0986 57.9079L43.1466 57.1846L43.1715 57.2535L43.0791 57.2879C43.0151 57.3086 42.9617 57.3465 42.9191 57.3947C42.8835 57.4291 42.8693 57.4705 42.8693 57.5152C42.8693 57.56 42.8942 57.6461 42.9404 57.7701L43.5697 59.4407C43.6302 59.6026 43.6871 59.699 43.7333 59.7231C43.8009 59.7576 43.8862 59.7541 43.9964 59.7162L44.0889 59.6818L44.1137 59.7507L42.0657 60.474L41.824 59.9195L41.8986 59.8919C41.9769 60.0159 42.0409 60.0986 42.0942 60.1399C42.1475 60.1778 42.2115 60.1985 42.2862 60.2019C42.3466 60.2019 42.4426 60.1778 42.5742 60.133L43.3031 59.8747L43.3066 59.885Z" fill="white"/>
<path d="M34.4071 59.2032L35.1573 59.1137L36.2702 60.271C36.3413 60.2607 36.3982 60.2503 36.4409 60.2469C36.4587 60.2469 36.4765 60.2434 36.4978 60.24C36.5191 60.24 36.5405 60.24 36.5618 60.2366L36.4622 59.4478C36.4409 59.2756 36.4089 59.1722 36.3627 59.1378C36.3022 59.0861 36.2205 59.0654 36.1138 59.0792L36.0036 59.093L35.9929 59.0172L37.1947 58.8726L37.2053 58.9483L37.0987 58.9621C36.9813 58.9759 36.8996 59.0241 36.8569 59.1033C36.832 59.1481 36.832 59.248 36.8498 59.403L37.0738 61.1597C37.0951 61.3319 37.1271 61.4352 37.1733 61.4697C37.2338 61.5213 37.3191 61.542 37.4258 61.5282L37.5325 61.5144L37.5431 61.5902L36.5227 61.7142C36.224 61.7487 36.0036 61.7556 35.8542 61.7314C35.7085 61.7073 35.5769 61.6419 35.4631 61.542C35.3493 61.4421 35.2818 61.3112 35.264 61.1562C35.2427 60.9909 35.2818 60.8359 35.3778 60.7016C35.4738 60.5638 35.6373 60.457 35.8685 60.3778L35.1893 59.6682C35.0329 59.5063 34.9049 59.3996 34.8018 59.3513C34.6987 59.3031 34.5707 59.2824 34.4142 59.2824L34.4036 59.2067L34.4071 59.2032ZM36.5796 60.3606C36.5547 60.3606 36.5298 60.3674 36.512 60.3674C36.4942 60.3674 36.4765 60.3674 36.4658 60.3709C36.1991 60.4019 36.0036 60.4846 35.8827 60.612C35.7618 60.7394 35.712 60.891 35.7333 61.0667C35.7547 61.2354 35.8293 61.3663 35.9502 61.4593C36.0747 61.5523 36.224 61.5868 36.4053 61.5661C36.4836 61.5558 36.5902 61.5317 36.7253 61.4903L36.5796 60.3606Z" fill="white"/>
<path d="M29.4968 59.1793L29.5039 59.1035L30.7128 59.1965L30.7057 59.2723L30.6061 59.2654C30.4888 59.2551 30.4035 59.2826 30.343 59.3446C30.3075 59.386 30.2826 59.4858 30.2684 59.6512L30.1226 61.4147C30.1119 61.5525 30.1119 61.6455 30.1261 61.6903C30.1368 61.7247 30.1617 61.7557 30.2044 61.7833C30.2613 61.8212 30.3253 61.8418 30.3928 61.8453L30.4924 61.8522L30.4853 61.928L29.2764 61.835L29.2835 61.7592L29.3866 61.7661C29.5004 61.7764 29.5893 61.7488 29.6461 61.6868C29.6853 61.6455 29.7101 61.5456 29.7244 61.3803L29.8701 59.6167C29.8808 59.479 29.8808 59.386 29.8666 59.3412C29.8559 59.3067 29.8275 59.2757 29.7848 59.2482C29.7279 59.2103 29.6675 59.1896 29.5999 59.1862L29.4968 59.1793Z" fill="white"/>
<path d="M25.0703 61.177L24.3343 60.9669L23.2818 58.5214L22.816 60.0369C22.7663 60.1988 22.7556 60.3056 22.7805 60.3538C22.8125 60.4227 22.8836 60.4709 22.9903 60.5019L23.0827 60.5295L23.0614 60.6018L22.1191 60.3297L22.1405 60.2574L22.2365 60.2849C22.3503 60.3194 22.4427 60.309 22.5103 60.2539C22.5529 60.2195 22.5956 60.1299 22.6418 59.9853L23.3209 57.7739L23.392 57.7946L24.5298 60.4227L25.024 58.8073C25.0738 58.6454 25.088 58.5386 25.0631 58.4904C25.0276 58.4215 24.96 58.3733 24.8534 58.3423L24.7574 58.3147L24.7787 58.2424L25.7209 58.5145L25.6996 58.5868L25.6071 58.5593C25.4898 58.5248 25.3974 58.5351 25.3298 58.5903C25.2871 58.6247 25.2445 58.7143 25.1983 58.8589L24.64 60.6845C24.6898 60.7947 24.7325 60.8705 24.7645 60.9118C24.7965 60.9531 24.8463 60.9945 24.9174 61.0427C24.9529 61.0668 25.0098 61.0875 25.088 61.1116L25.0667 61.1839L25.0703 61.177Z" fill="white"/>
<path d="M15.9431 58.4592L16.8356 58.1561L16.896 58.1905L16.3449 58.6865L15.9431 58.4592ZM17.3938 56.1376L18.3396 56.6715L18.7307 56.3925C18.8267 56.3236 18.8871 56.265 18.9156 56.2203C18.9369 56.1858 18.9369 56.1411 18.9191 56.0963C18.9013 56.0481 18.8338 55.9895 18.72 55.9137L18.7591 55.8483L19.5271 56.2823L19.488 56.3477C19.3742 56.3064 19.296 56.2926 19.2498 56.3029C19.1538 56.3236 19.0187 56.3994 18.8409 56.5268L16.8107 57.9873L16.7467 57.9528L17.0809 55.5038C17.1093 55.3075 17.1058 55.1697 17.0809 55.0905C17.0524 55.0113 16.992 54.9424 16.896 54.8804L16.9351 54.8149L17.8987 55.3592L17.8596 55.4246C17.76 55.3729 17.6853 55.3523 17.6356 55.3592C17.5858 55.366 17.5502 55.3902 17.5253 55.428C17.4933 55.4797 17.4684 55.5727 17.4507 55.7105L17.3938 56.1342V56.1376ZM17.3653 56.2961L17.2053 57.4844L18.2044 56.7679L17.3653 56.2926V56.2961Z" fill="white"/>
<path d="M11.9253 50.7573L12.4728 51.2602L12.256 52.8274C12.3093 52.8722 12.352 52.9101 12.384 52.9411C12.3982 52.9549 12.4124 52.9652 12.4266 52.9824C12.4408 52.9962 12.4551 53.0134 12.4728 53.0272L13.0382 52.452C13.1626 52.328 13.2231 52.235 13.2231 52.1799C13.2266 52.1007 13.1911 52.0283 13.1128 51.956L13.0311 51.8837L13.0844 51.8285L13.9626 52.638L13.9093 52.6931L13.8311 52.6208C13.7457 52.5415 13.6568 52.5105 13.5644 52.5312C13.5146 52.5415 13.4328 52.6035 13.3226 52.7172L12.064 53.9985C11.9431 54.1225 11.8791 54.2155 11.8791 54.2707C11.8791 54.3499 11.9146 54.4257 11.9893 54.498L12.0675 54.5703L12.0142 54.6254L11.2675 53.9365C11.0506 53.7368 10.9048 53.5714 10.8302 53.4474C10.7555 53.32 10.7235 53.1857 10.7342 53.0341C10.7448 52.886 10.8053 52.7551 10.9155 52.6414C11.0364 52.5209 11.1786 52.452 11.3493 52.4382C11.52 52.4244 11.7084 52.4795 11.9182 52.6001L12.0533 51.6425C12.0853 51.4221 12.0888 51.2602 12.0604 51.1534C12.032 51.0467 11.968 50.9364 11.8684 50.8193L11.9217 50.7642L11.9253 50.7573ZM12.3768 53.1168C12.3591 53.0995 12.3413 53.0823 12.3271 53.0685C12.3128 53.0548 12.3022 53.0444 12.2915 53.0341C12.096 52.855 11.9075 52.7585 11.7297 52.7482C11.5484 52.7379 11.3991 52.7964 11.2746 52.9239C11.1537 53.0479 11.0933 53.1857 11.0968 53.3372C11.1004 53.4888 11.168 53.6265 11.2995 53.7471C11.3564 53.8022 11.4453 53.8642 11.5626 53.9365L12.3733 53.1099L12.3768 53.1168Z" fill="white"/>
<path d="M8.83566 47.0614L8.89966 47.02L9.58944 47.9845L9.52544 48.0258L9.46855 47.9466C9.40099 47.8536 9.32632 47.8054 9.24099 47.8019C9.1841 47.8019 9.0881 47.8467 8.94944 47.9397L7.44899 48.9489C7.33166 49.0281 7.26055 49.0867 7.2321 49.128C7.21077 49.159 7.20366 49.1969 7.20721 49.2451C7.21433 49.3106 7.23566 49.3726 7.27477 49.4242L7.33166 49.5035L7.26766 49.5448L6.57788 48.5804L6.64188 48.539L6.69877 48.6217C6.76277 48.7147 6.84099 48.7629 6.92633 48.7664C6.98321 48.7664 7.07921 48.725 7.22144 48.632L8.72188 47.6228C8.83921 47.5436 8.91032 47.485 8.93877 47.4437C8.9601 47.4127 8.96721 47.3748 8.96366 47.3231C8.95655 47.2577 8.93521 47.1991 8.8961 47.144L8.83921 47.0614H8.83566Z" fill="white"/>
<path d="M3.75114 43.5862C3.60892 43.259 3.61603 42.9214 3.76892 42.577C3.92181 42.2325 4.19203 41.9811 4.57603 41.8261C4.9707 41.6642 5.3547 41.6539 5.72092 41.7882C6.08714 41.9225 6.34314 42.1636 6.49248 42.5081C6.64181 42.856 6.64181 43.2004 6.49248 43.5414C6.33959 43.8824 6.06226 44.1339 5.65692 44.2992C5.24448 44.468 4.84626 44.468 4.46581 44.2992C4.13514 44.1545 3.90048 43.9169 3.75826 43.5862H3.75114ZM3.90759 43.5655C4.00359 43.7929 4.1707 43.9375 4.40181 44.003C4.68981 44.0856 5.04181 44.0443 5.45781 43.8755C5.88448 43.7033 6.17248 43.4829 6.32537 43.2107C6.4427 43.0041 6.44981 42.7905 6.35381 42.5666C6.2507 42.329 6.06937 42.174 5.81337 42.0947C5.55381 42.019 5.21959 42.0637 4.8107 42.2291C4.36626 42.4116 4.06759 42.6286 3.92181 42.8904C3.80803 43.0971 3.80092 43.321 3.90403 43.5621L3.90759 43.5655Z" fill="white"/>
<path d="M3.69422 31.3551L4.24178 31.5376L4.27022 33.1531H4.192C3.73689 32.6846 3.36711 32.3574 3.07911 32.168C2.79111 31.9785 2.53155 31.8855 2.29689 31.8889C2.11911 31.8889 1.96977 31.9475 1.856 32.0543C1.74222 32.1611 1.68533 32.2919 1.68889 32.4401C1.68889 32.5744 1.73511 32.6949 1.81689 32.8017C1.89866 32.9085 2.01955 32.9843 2.17955 33.0325V33.1083C1.92355 33.0773 1.72444 32.9946 1.58577 32.8568C1.44711 32.7191 1.37244 32.5468 1.37244 32.3367C1.36889 32.1163 1.44 31.9268 1.58577 31.7753C1.73155 31.6237 1.90222 31.5479 2.10489 31.5445C2.24711 31.5445 2.39289 31.5721 2.53511 31.6341C2.76266 31.7305 3.00444 31.8889 3.25689 32.1059C3.64089 32.4366 3.872 32.6398 3.95022 32.7225L3.93955 32.0061C3.93955 31.8614 3.92889 31.7581 3.91822 31.6995C3.90755 31.6409 3.88266 31.5893 3.84711 31.5411C3.81155 31.4928 3.76177 31.4549 3.70133 31.4205V31.3447L3.69422 31.3551Z" fill="white"/>
<path d="M3.9503 25.5889L4.24186 25.644L4.16719 26.0056L4.89964 26.1469L4.83208 26.4741L4.09964 26.3329L3.86497 27.4695L3.60186 27.4179L2.02319 25.8196L2.06942 25.6026L3.87564 25.9505L3.9503 25.5889ZM3.80808 26.2778L2.43208 26.0125L3.61253 27.2215L3.80453 26.2778H3.80808Z" fill="white"/>
<path d="M5.02056 20.9183L5.55389 19.7575L4.81433 19.4372C4.68278 19.3786 4.59033 19.3511 4.54411 19.3476C4.505 19.3476 4.46589 19.3614 4.42678 19.389C4.37345 19.4303 4.33078 19.4785 4.30233 19.5371L4.26322 19.6266L4.19211 19.5956L4.68278 18.5244L4.75389 18.5554L4.71478 18.645C4.68634 18.7035 4.67567 18.7655 4.68278 18.831C4.68278 18.8792 4.70411 18.9205 4.73967 18.9515C4.77522 18.9825 4.857 19.0273 4.98145 19.0824L6.649 19.8023C6.78056 19.8574 6.86945 19.8884 6.91922 19.8884C6.95834 19.8884 6.99389 19.8781 7.03656 19.8471C7.09345 19.8057 7.13256 19.7575 7.161 19.6955L7.20011 19.606L7.27122 19.637L6.78056 20.7082L6.70945 20.6772L6.74856 20.5876C6.79478 20.4843 6.79834 20.3982 6.75922 20.3259C6.73434 20.2776 6.64189 20.2191 6.48545 20.1536L5.69967 19.8126L5.16633 20.9734L5.95211 21.3144C6.08367 21.3695 6.17256 21.4005 6.22233 21.404C6.26145 21.404 6.30056 21.3902 6.33967 21.3626C6.393 21.3213 6.43567 21.2731 6.46411 21.2145L6.50678 21.125L6.57789 21.156L6.08367 22.2272L6.01256 22.1962L6.05167 22.1066C6.09789 22.0033 6.10145 21.9137 6.06233 21.8414C6.03389 21.7932 5.945 21.7381 5.78856 21.6692L4.121 20.9493C3.98945 20.8907 3.897 20.8632 3.85078 20.8597C3.81167 20.8597 3.77611 20.8701 3.73345 20.9011C3.67656 20.9424 3.63745 20.9906 3.609 21.0526L3.56989 21.1422L3.49878 21.1112L3.993 20.04L4.06411 20.071L4.02145 20.1605C3.993 20.2191 3.98233 20.2811 3.98945 20.3465C3.98945 20.3947 4.01078 20.4326 4.04633 20.4671C4.08189 20.4981 4.16011 20.5429 4.28811 20.598L5.02767 20.9183H5.02056Z" fill="white"/>
<path d="M7.81865 13.6571C8.04265 13.3747 8.34843 13.2128 8.73243 13.1715C9.11643 13.1301 9.47554 13.2335 9.80621 13.478C10.1475 13.7329 10.3467 14.0464 10.4035 14.4218C10.464 14.7972 10.3751 15.1314 10.1404 15.4276C9.90221 15.7272 9.59287 15.896 9.21243 15.9339C8.83198 15.9718 8.46932 15.8616 8.12087 15.6032C7.76532 15.338 7.56976 15.0039 7.53065 14.6009C7.49865 14.253 7.59465 13.9361 7.82221 13.6502L7.81865 13.6571ZM7.91465 13.7777C7.76176 13.9706 7.71198 14.1841 7.76532 14.4115C7.83287 14.6974 8.04621 14.9695 8.40176 15.2381C8.76798 15.5102 9.10932 15.6446 9.42576 15.6411C9.66754 15.6377 9.86665 15.5378 10.016 15.3484C10.1795 15.1451 10.2293 14.9144 10.1724 14.6595C10.1155 14.4046 9.90932 14.1462 9.55376 13.881C9.16976 13.5951 8.82843 13.4539 8.52265 13.4608C8.28087 13.4677 8.07465 13.571 7.9111 13.7777H7.91465Z" fill="white"/>
<path d="M15.808 9.9476L15.2213 10.4092L13.6462 9.99927C13.5929 10.044 13.5502 10.0819 13.5146 10.1095C13.5004 10.1198 13.4862 10.1336 13.4684 10.1439C13.4506 10.1577 13.4329 10.168 13.4151 10.1818L13.9306 10.7984C14.0444 10.9327 14.1262 11.005 14.1831 11.0119C14.2613 11.0257 14.3431 11.0016 14.4249 10.9362L14.5102 10.8673L14.56 10.9258L13.6178 11.6629L13.568 11.6044L13.6498 11.5389C13.7422 11.4666 13.7849 11.3839 13.7742 11.2944C13.7706 11.2427 13.7173 11.16 13.6142 11.036L12.4658 9.66171C12.352 9.52738 12.2702 9.45505 12.2133 9.44816C12.1315 9.43438 12.0498 9.46194 11.968 9.52738L11.8862 9.59283L11.8364 9.53427L12.6364 8.90738C12.8711 8.72483 13.056 8.60427 13.1946 8.5526C13.3333 8.49749 13.4791 8.48716 13.6284 8.51471C13.7778 8.54227 13.9058 8.61805 14.0089 8.7386C14.1191 8.86949 14.1689 9.0176 14.1618 9.18294C14.1546 9.34827 14.0764 9.52394 13.9235 9.70649L14.8871 9.96138C15.1075 10.0199 15.2746 10.044 15.3884 10.0303C15.5022 10.0165 15.6231 9.97171 15.7546 9.88905L15.8044 9.9476H15.808ZM13.3369 10.0785C13.3582 10.0613 13.376 10.0475 13.3902 10.0372C13.4044 10.0268 13.4186 10.0165 13.4293 10.0096C13.6391 9.84427 13.76 9.67894 13.792 9.50671C13.824 9.33449 13.7849 9.18294 13.6711 9.04516C13.5609 8.91083 13.4258 8.83849 13.2729 8.82127C13.1164 8.80405 12.9706 8.85227 12.8284 8.96594C12.7644 9.01416 12.6898 9.08994 12.6009 9.19671L13.3404 10.0819L13.3369 10.0785Z" fill="white"/>
<path d="M20.1742 6.44448L19.1894 6.90259L19.2107 7.37103C19.2142 7.48814 19.2285 7.56737 19.2534 7.61559C19.2711 7.65348 19.3067 7.67759 19.3565 7.68792C19.4062 7.69826 19.4951 7.68103 19.6231 7.63281L19.6551 7.7017L18.8516 8.0737L18.8196 8.00481C18.9156 7.93592 18.9725 7.88081 18.9902 7.83603C19.0258 7.74648 19.0365 7.59837 19.0258 7.38137L18.9156 4.93237L18.9796 4.90137L20.8854 6.54092C21.0382 6.67181 21.1556 6.75103 21.2374 6.7717C21.3191 6.79237 21.4151 6.78203 21.5218 6.7407L21.5538 6.80959L20.5476 7.27803L20.5156 7.20914C20.6151 7.15748 20.6756 7.10926 20.6969 7.06448C20.7182 7.0197 20.7182 6.97837 20.6969 6.93703C20.672 6.88537 20.6045 6.80959 20.4978 6.72003L20.1671 6.43759L20.1742 6.44448ZM20.0534 6.33426L19.1254 5.53859L19.1751 6.74414L20.0498 6.3377L20.0534 6.33426Z" fill="white"/>
<path d="M26.3041 2.5386L26.5174 3.46171L26.4427 3.47893C26.3787 3.30671 26.3005 3.17582 26.2152 3.08282C26.1263 2.98982 26.0196 2.92782 25.8881 2.88993C25.7565 2.85205 25.6285 2.8486 25.5041 2.87616C25.3618 2.90716 25.2552 2.9726 25.1841 3.07593C25.1094 3.17927 25.0881 3.2826 25.113 3.38938C25.1307 3.47205 25.177 3.53749 25.2516 3.5926C25.3583 3.67182 25.5894 3.76138 25.9414 3.85782C26.2294 3.93705 26.4285 3.99905 26.5423 4.05071C26.6525 4.10238 26.745 4.17127 26.8196 4.25738C26.8943 4.34349 26.9405 4.43993 26.9654 4.54671C27.0116 4.74993 26.9725 4.93938 26.8445 5.12193C26.7165 5.30449 26.5245 5.4216 26.2685 5.47671C26.1867 5.49393 26.1121 5.50427 26.0374 5.50771C25.9947 5.50771 25.9023 5.50771 25.7601 5.49393C25.6178 5.48016 25.529 5.48016 25.4934 5.48705C25.4578 5.49393 25.4365 5.51116 25.4187 5.53527C25.401 5.55938 25.3974 5.60416 25.4045 5.66616L25.3299 5.68338L25.1165 4.76716L25.1912 4.74993C25.2694 4.93249 25.3512 5.06682 25.433 5.14949C25.5147 5.23216 25.625 5.29071 25.7601 5.3286C25.8987 5.36649 26.041 5.36649 26.1867 5.33549C26.3574 5.2976 26.4818 5.22527 26.5601 5.11849C26.6383 5.01171 26.6632 4.89805 26.6347 4.77749C26.6205 4.71205 26.585 4.65005 26.5316 4.59149C26.4783 4.53293 26.4072 4.48127 26.3147 4.44338C26.2543 4.41582 26.0872 4.36416 25.8241 4.28493C25.5574 4.20916 25.3654 4.14371 25.2481 4.0886C25.1307 4.03349 25.0347 3.96805 24.9636 3.88538C24.8925 3.80616 24.8427 3.70971 24.8178 3.59949C24.7752 3.4066 24.8107 3.22749 24.9316 3.05527C25.0525 2.88305 25.2303 2.77282 25.465 2.72116C25.6107 2.69016 25.7743 2.69016 25.9556 2.72116C26.0374 2.73838 26.0978 2.74182 26.1263 2.73493C26.1618 2.72805 26.1867 2.71082 26.2045 2.68671C26.2223 2.6626 26.2294 2.61782 26.2294 2.55238L26.3041 2.53516V2.5386Z" fill="white"/>
<path d="M33.2586 4.18829C33.3617 4.38118 33.2799 4.59818 33.1804 4.70151C33.0879 4.79795 32.9742 4.82895 32.8426 4.80484C32.7715 4.79106 32.7004 4.76695 32.6293 4.74973C32.5617 4.73251 32.4942 4.71873 32.4231 4.72906C32.3733 4.73595 32.3306 4.75318 32.2879 4.7704C32.2275 4.79451 32.1671 4.82206 32.1031 4.84273C31.9431 4.8944 31.7546 4.82895 31.6657 4.69118C31.5839 4.56373 31.5662 4.42595 31.6195 4.28129C31.6906 4.08495 31.8151 3.92651 31.9928 3.8094C32.2168 3.66129 32.4586 3.62684 32.7182 3.71295C32.8888 3.77151 33.0311 3.87484 33.1448 4.01262C33.1911 4.06429 33.2266 4.12284 33.2586 4.18829Z" fill="white"/>
<path d="M32.4232 3.39993C32.3912 3.33104 32.377 3.26215 32.3841 3.18637C32.3912 3.08993 32.4161 2.99693 32.4588 2.90737C32.4766 2.87293 32.4979 2.84193 32.5228 2.81437C32.569 2.77304 32.6223 2.75582 32.6863 2.76271C32.7503 2.77304 32.8072 2.8006 32.857 2.83848C32.9281 2.89015 32.985 2.9556 33.0206 3.03482C33.0775 3.14848 33.0703 3.26215 33.0099 3.37237C32.9708 3.44815 32.9139 3.51015 32.8321 3.54804C32.697 3.61348 32.5406 3.57215 32.4517 3.4516C32.4375 3.43437 32.4268 3.41371 32.4161 3.39648L32.4232 3.39993Z" fill="white"/>
<path d="M32.1919 3.00006C32.231 3.08962 32.263 3.1654 32.2701 3.24806C32.2772 3.35484 32.2559 3.45473 32.1812 3.5374C32.0959 3.63384 31.9608 3.6614 31.8435 3.61318C31.7546 3.57529 31.687 3.51329 31.6408 3.43062C31.5626 3.29284 31.5804 3.15851 31.6621 3.02762C31.7048 2.95873 31.7617 2.90018 31.8364 2.85884C31.8932 2.82784 31.9537 2.81062 32.0212 2.83129C32.0746 2.84851 32.1101 2.88295 32.1421 2.92429C32.1635 2.95529 32.1848 2.98973 32.1955 3.00695L32.1919 3.00006Z" fill="white"/>
<path d="M31.6657 3.62373C31.6941 3.68918 31.719 3.74773 31.7261 3.80973C31.7297 3.8614 31.7261 3.91307 31.7012 3.95784C31.6443 4.08184 31.5021 4.12318 31.3848 4.0474C31.2532 3.96129 31.1892 3.80284 31.2923 3.63751C31.3279 3.57895 31.3741 3.53073 31.4381 3.49973C31.5021 3.47218 31.5626 3.48251 31.6088 3.53418C31.6159 3.54451 31.6266 3.5514 31.6337 3.56173C31.6479 3.5824 31.6586 3.60307 31.6692 3.61684L31.6657 3.62373Z" fill="white"/>
<path d="M33.3546 3.89216C33.2515 3.94038 33.1377 3.90249 33.0808 3.80604C33.0417 3.7406 33.0311 3.67171 33.0417 3.59593C33.0524 3.53049 33.0666 3.46849 33.0986 3.40649C33.1164 3.37205 33.1413 3.34105 33.184 3.32382C33.2231 3.3066 33.2657 3.31004 33.3013 3.32727C33.4222 3.38238 33.5004 3.47193 33.5182 3.59938C33.5324 3.7096 33.4577 3.83705 33.3546 3.88527V3.89216Z" fill="white"/>
<path d="M4.48001 37.6032C4.69335 37.5378 4.90313 37.6514 4.98846 37.7651C5.07024 37.8684 5.08446 37.9821 5.03468 38.1026C5.00624 38.1681 4.97424 38.2335 4.94224 38.299C4.91379 38.361 4.8889 38.423 4.88535 38.4919C4.88535 38.5401 4.89601 38.5849 4.90668 38.6296C4.9209 38.6916 4.93868 38.7536 4.94935 38.8191C4.97424 38.981 4.87824 39.1498 4.72179 39.2118C4.57601 39.2703 4.43379 39.2634 4.29868 39.1876C4.11024 39.0843 3.97157 38.9396 3.88268 38.7502C3.7689 38.5125 3.77601 38.2749 3.90757 38.0441C3.99646 37.8891 4.12446 37.7754 4.28446 37.6859C4.3449 37.6514 4.41246 37.6239 4.48357 37.6066L4.48001 37.6032Z" fill="white"/>
<path d="M3.53433 38.2643C3.45966 38.2815 3.385 38.2849 3.31033 38.2643C3.21433 38.2402 3.12188 38.2023 3.04011 38.1472C3.00811 38.1265 2.97966 38.0989 2.95833 38.0679C2.92277 38.0163 2.91566 37.9612 2.93344 37.9026C2.95477 37.8406 2.99388 37.7924 3.04011 37.751C3.10411 37.6925 3.18233 37.6512 3.26766 37.627C3.39211 37.5926 3.50588 37.6202 3.609 37.6925C3.68011 37.7442 3.73344 37.8096 3.75833 37.8923C3.801 38.0335 3.73344 38.1747 3.59477 38.2367C3.57344 38.247 3.55211 38.2539 3.53077 38.2608L3.53433 38.2643Z" fill="white"/>
<path d="M3.08617 38.4193C3.18573 38.3952 3.26751 38.3779 3.34929 38.3848C3.45951 38.3952 3.55551 38.4331 3.62662 38.5192C3.7084 38.6156 3.71551 38.7499 3.6444 38.8533C3.59106 38.9325 3.5164 38.9842 3.42395 39.0152C3.27106 39.0668 3.13595 39.0255 3.01862 38.9256C2.95462 38.8739 2.90484 38.8085 2.8764 38.7327C2.85151 38.6707 2.8444 38.6122 2.8764 38.5502C2.90129 38.5054 2.94395 38.4744 2.99017 38.4503C3.02573 38.4331 3.06484 38.4227 3.08262 38.4124L3.08617 38.4193Z" fill="white"/>
<path d="M3.63373 39.0291C3.70484 39.0153 3.76884 38.9981 3.83284 39.005C3.88617 39.0084 3.93595 39.0257 3.98217 39.0567C4.09595 39.1324 4.11373 39.2771 4.01773 39.3735C3.90751 39.4838 3.73684 39.5182 3.58395 39.3942C3.53062 39.3494 3.48795 39.2978 3.47017 39.2323C3.45239 39.1669 3.47373 39.1083 3.53417 39.0739C3.54484 39.067 3.55551 39.0601 3.56617 39.0567C3.58751 39.0463 3.61239 39.0394 3.63017 39.0325L3.63373 39.0291Z" fill="white"/>
<path d="M4.19206 37.4617C4.2205 37.565 4.16717 37.6718 4.05695 37.7097C3.98228 37.7338 3.91117 37.7372 3.8365 37.7097C3.7725 37.689 3.7085 37.6649 3.65517 37.6236C3.62317 37.5994 3.59473 37.5684 3.58761 37.5306C3.57695 37.4892 3.58761 37.4513 3.6125 37.4203C3.68717 37.3136 3.79384 37.255 3.92895 37.2584C4.04273 37.2619 4.16006 37.3583 4.19206 37.4617Z" fill="white"/>
<path d="M59.3138 41.0683C59.0898 41.0855 58.9155 40.927 58.8551 40.7996C58.8018 40.679 58.8124 40.5654 58.8907 40.4586C58.9333 40.4 58.9831 40.3449 59.0258 40.2898C59.0684 40.2381 59.1075 40.183 59.1253 40.1141C59.1395 40.0694 59.136 40.0211 59.136 39.9764C59.136 39.9109 59.136 39.8489 59.136 39.7835C59.1502 39.6216 59.2853 39.4769 59.4489 39.4528C59.6018 39.4287 59.7404 39.4666 59.8542 39.5699C60.0107 39.7111 60.1138 39.8834 60.1564 40.0866C60.2098 40.3449 60.1493 40.5757 59.9644 40.7686C59.8435 40.8995 59.6871 40.9821 59.5129 41.0338C59.4453 41.0545 59.3742 41.0648 59.3031 41.0683H59.3138Z" fill="white"/>
<path d="M60.3911 40.6275C60.4693 40.6275 60.5404 40.6412 60.608 40.6757C60.6968 40.7205 60.7751 40.779 60.8426 40.8514C60.8675 40.8789 60.8888 40.9099 60.9031 40.9444C60.9244 41.0029 60.9208 41.058 60.8888 41.1097C60.8533 41.1648 60.8071 41.2027 60.7502 41.2337C60.672 41.2785 60.5902 41.2991 60.4977 41.3026C60.3662 41.3095 60.2631 41.2578 60.1777 41.1614C60.1208 41.0959 60.0853 41.0201 60.0782 40.934C60.0675 40.7859 60.1671 40.6619 60.32 40.6344C60.3413 40.6309 60.3662 40.6275 60.3875 40.624L60.3911 40.6275Z" fill="white"/>
<path d="M60.8604 40.5755C60.7573 40.5755 60.6755 40.5755 60.5937 40.5514C60.4871 40.517 60.4053 40.4584 60.3555 40.3585C60.2986 40.2449 60.3235 40.114 60.4159 40.0279C60.4871 39.9624 60.5724 39.928 60.6684 39.9177C60.832 39.9004 60.9493 39.9693 61.0417 40.0933C61.0915 40.1588 61.1235 40.2311 61.1342 40.3138C61.1413 40.3792 61.1342 40.4378 61.0879 40.4894C61.0524 40.5308 61.0062 40.5514 60.9528 40.5618C60.9137 40.5687 60.8746 40.5721 60.8533 40.5755H60.8604Z" fill="white"/>
<path d="M60.473 39.8626C60.4019 39.8626 60.3343 39.8626 60.2703 39.842C60.2205 39.8248 60.1743 39.8006 60.1388 39.7593C60.0428 39.6594 60.0605 39.5182 60.1779 39.4424C60.3094 39.3598 60.4872 39.3632 60.6045 39.5182C60.6472 39.5733 60.6757 39.6319 60.6792 39.7008C60.6792 39.7696 60.6472 39.8213 60.5797 39.842C60.569 39.8454 60.5548 39.8489 60.5441 39.8523C60.5192 39.8558 60.4943 39.8592 60.4765 39.8626H60.473Z" fill="white"/>
<path d="M59.5626 41.2678C59.5591 41.1575 59.6373 41.0714 59.7511 41.0576C59.8293 41.0473 59.9004 41.0645 59.9644 41.1024C60.0213 41.1369 60.0782 41.1748 60.1208 41.2264C60.1457 41.2574 60.1671 41.2919 60.1671 41.3332C60.1671 41.3745 60.1457 41.409 60.1173 41.4365C60.0177 41.5226 59.904 41.5571 59.7724 41.5261C59.6622 41.4985 59.5697 41.378 59.5662 41.2678H59.5626Z" fill="white"/>
</g>
<defs>
<clipPath id="clip0_8117_3409">
<rect width="64" height="62" fill="white"/>
</clipPath>
</defs>
</svg>
