<svg width="169" height="164" viewBox="0 0 169 164" fill="none" xmlns="http://www.w3.org/2000/svg">
<g clip-path="url(#clip0_8130_5016)">
<path d="M118.704 108.359C118.178 108.359 117.643 108.359 117.117 108.34C110.3 108.204 102.752 107.52 99.4563 101.015C98.6301 99.3841 98.9587 98.3272 99.3812 97.7259C100.095 96.7054 101.635 96.2043 103.625 96.3592C107.7 96.6781 111.427 96.0494 114.403 94.5279C117.596 92.897 119.98 90.1272 120.797 87.1114L107.794 78.0185C107.277 77.6541 107.024 77.0254 107.155 76.415C107.287 75.8045 107.756 75.349 108.376 75.2214C108.545 75.185 108.704 75.1577 108.873 75.1485C108.582 74.3741 107.841 73.0621 107.493 72.561C106.507 71.1579 105.268 69.9461 103.897 69.0532C103.644 68.8892 103.371 68.7343 103.09 68.5703C102.066 67.9872 100.912 67.3221 100.311 66.0921C99.8882 65.2265 99.8507 64.1697 100.226 63.1948C100.874 61.491 101.475 59.8237 101.785 58.0834C101.813 57.9012 101.785 57.7372 101.672 57.6097C101.578 57.4912 101.428 57.4274 101.25 57.4183C92.1987 57.0539 82.6972 61.4363 75.7963 69.1261C69.9377 75.6588 65.7127 84.5148 62.8772 96.1952L62.8021 96.4959C62.0698 99.5117 61.2435 102.928 58.7367 105.197C56.6054 107.129 53.4696 108.067 49.1413 108.067H48.9817C45.5266 108.049 40.8415 107.356 38.1375 104.149C35.0955 100.559 34.8326 96.4139 34.8232 92.4779L34.7857 77.6541C34.7857 74.7477 34.7669 71.4585 36.0438 68.5065C37.6305 64.8165 41.2828 61.9739 45.3482 61.2632C47.1227 60.9534 48.9065 61.0263 50.6341 61.0992C51.4603 61.1357 52.3147 61.1721 53.1409 61.163C56.0984 61.1357 58.2485 60.4159 59.5348 59.031C61.3562 57.0812 61.2435 54.2477 61.1309 51.2501C61.0839 49.9837 61.037 48.6717 61.1309 47.4143C61.5158 42.7221 64.3888 38.5492 68.4448 36.7817C71.346 35.5152 74.6133 35.5061 77.4957 35.5061L92.6588 35.4788C95.6257 35.4788 98.9775 35.4697 101.991 36.6723C106.029 38.2759 109.033 42.0205 109.662 46.2025C109.906 47.8061 109.831 49.4825 109.756 51.1134C109.624 54.1019 109.502 56.9354 111.305 58.9217C112.638 60.3885 114.901 61.1539 118.028 61.1994C118.826 61.2085 119.661 61.1812 120.469 61.1539C122.356 61.0901 124.309 61.0263 126.224 61.4272C129.97 62.2108 133.247 64.8165 134.768 68.2332C136.082 71.167 136.082 74.447 136.082 77.3443V92.0588C136.082 93.1977 136.082 94.5279 135.988 95.8399C135.829 97.9263 135.397 100.988 133.463 103.466C130.233 107.611 124.553 108.377 118.675 108.377L118.704 108.359ZM102.93 97.9992C101.897 97.9992 101.09 98.2452 100.799 98.6552C100.498 99.0834 100.743 99.7668 100.996 100.268C103.869 105.935 110.554 106.536 117.154 106.664C123.116 106.782 129.059 106.354 132.12 102.436C133.388 100.815 134.073 98.6734 134.299 95.7032C134.392 94.455 134.402 93.1612 134.402 92.0405V77.3261C134.402 74.5928 134.402 71.495 133.219 68.8801C131.914 65.9554 129.097 63.7232 125.886 63.049C124.177 62.6937 122.412 62.7483 120.553 62.8121C119.727 62.8394 118.873 62.8668 118.028 62.8577C114.394 62.8121 111.699 61.8554 110.038 60.015C107.784 57.5277 107.925 54.2294 108.066 51.0405C108.132 49.4917 108.207 47.8972 107.991 46.4394C107.446 42.8314 104.855 39.597 101.372 38.2121C98.6677 37.137 95.4754 37.137 92.6963 37.1461L77.5333 37.1734C74.8293 37.1734 71.7591 37.1825 69.1866 38.3032C65.6939 39.8248 63.2152 43.4601 62.8772 47.5419C62.7833 48.699 62.8303 49.9654 62.8772 51.1863C62.9993 54.3843 63.1213 57.7008 60.8304 60.1517C59.2062 61.8919 56.6242 62.7939 53.1785 62.8303C52.3147 62.8303 51.4322 62.803 50.5778 62.7665C48.869 62.6937 47.2541 62.6299 45.6674 62.9032C42.1653 63.5137 39.02 65.9645 37.6493 69.1443C36.5132 71.7865 36.5226 74.9025 36.5226 77.645L36.5602 92.4688C36.5695 97.0152 37.0484 100.213 39.4801 103.083C41.7616 105.78 45.9209 106.372 49.0098 106.391C49.0568 106.391 49.1131 106.391 49.16 106.391C53.0189 106.391 55.7792 105.598 57.5725 103.967C59.6944 102.045 60.4267 99.0197 61.1309 96.1041L61.206 95.8034C64.1072 83.8497 68.4542 74.7659 74.5007 68.0237C81.7395 59.9512 91.7574 55.3774 101.325 55.7419C101.991 55.7692 102.611 56.0608 103.015 56.5528C103.428 57.0448 103.597 57.7099 103.484 58.3568C103.146 60.2337 102.517 61.983 101.841 63.7597C101.635 64.3154 101.644 64.8985 101.869 65.3541C102.245 66.1194 103.08 66.6023 103.972 67.1125C104.273 67.2857 104.573 67.4588 104.855 67.641C106.432 68.6614 107.803 69.9917 108.92 71.6043C109.164 71.9505 111.258 75.021 110.554 76.2328C110.338 76.5972 109.925 76.7885 109.484 76.7794C109.324 76.7794 109.174 76.7794 109.014 76.7977L121.858 85.7903C122.393 86.1639 122.637 86.8199 122.487 87.4303C121.577 90.9381 118.854 94.1452 115.201 96.0039C111.934 97.6712 107.888 98.3637 103.484 98.0265C103.296 98.0083 103.109 98.0083 102.93 98.0083V97.9992Z" fill="#72A45C"/>
<path d="M77.5428 133.852C76.3598 133.852 75.1486 133.833 73.9374 133.733C72.6324 133.624 71.4869 133.432 70.426 133.159C62.3234 131.036 59.5818 123.647 62.267 111.192C65.3841 96.7602 70.548 84.3509 77.6273 74.3195C81.5143 68.8164 86.772 64.8895 92.0486 63.5502C92.6307 63.4044 93.2316 63.5502 93.6823 63.9328C94.1329 64.3246 94.3583 64.9077 94.2738 65.4908L94.2456 65.664C93.9639 67.6228 93.6823 69.6455 94.9028 71.0486C95.4004 71.6226 96.1234 72.0144 96.8933 72.4335C97.2031 72.5975 97.5129 72.7706 97.8134 72.9529C99.0245 73.6817 100.076 74.6293 100.93 75.75C102.677 78.0186 102.292 78.7566 102.16 79.0026C102.038 79.2395 101.832 79.4126 101.578 79.5129C102.085 79.8591 102.536 80.2417 102.94 80.6517C104.367 82.1004 104.921 83.7313 104.479 85.2529C103.634 88.1957 100.902 90.6557 97.5317 91.5213C96.7524 91.7217 95.945 91.8402 95.1563 91.9495C93.0438 92.2502 91.2224 92.5053 90.2459 94.2182C90.0488 94.5644 89.9267 94.9471 89.861 95.3571C89.6169 97.0244 90.2365 98.7464 91.7575 100.605C93.6635 102.938 96.2736 104.732 98.8086 106.482C101.635 108.422 104.555 110.436 106.648 113.242C108.967 116.367 109.963 120.194 109.362 123.738C108.714 127.565 106.188 130.909 102.761 132.458C99.9259 133.742 96.7149 133.76 93.8888 133.779L78.7633 133.87C78.3502 133.87 77.9371 133.87 77.5146 133.87L77.5428 133.852ZM74.0783 132.066C75.6368 132.193 77.2329 132.184 78.7727 132.175L93.8982 132.084C96.5553 132.066 99.5597 132.048 102.057 130.918C104.977 129.597 107.137 126.736 107.681 123.447C108.207 120.34 107.324 116.969 105.268 114.199C103.353 111.62 100.668 109.771 97.8321 107.821C95.2033 106.008 92.4805 104.14 90.4243 101.626C88.5935 99.3842 87.8611 97.2522 88.171 95.102C88.2555 94.4915 88.4526 93.9175 88.7531 93.3982C90.1333 90.9564 92.6776 90.592 94.9216 90.2731C95.6915 90.1637 96.4144 90.0635 97.0998 89.8813C99.8977 89.1615 102.151 87.1662 102.836 84.7791C103.193 83.5309 102.282 82.3737 101.71 81.7906C101.268 81.3442 100.733 80.9251 100.132 80.5606C100.104 80.5424 100.048 80.5151 99.9916 80.4877C99.447 80.2053 98.6114 79.768 98.5833 78.9935C98.5833 78.8022 98.6208 78.3193 99.1748 77.9731C99.5879 77.718 100.02 77.7908 100.301 77.8637C100.095 77.4993 99.8132 77.0711 99.5597 76.7431C98.8368 75.8046 97.9166 74.9755 96.912 74.3651C96.6398 74.2011 96.3487 74.0462 96.067 73.8913C95.2033 73.4175 94.3019 72.9346 93.6071 72.1328C91.8796 70.1557 92.2364 67.6502 92.5556 65.4362L92.5838 65.2722C92.5838 65.2357 92.565 65.2084 92.5556 65.1902C87.617 66.4111 82.716 70.1011 79.0638 75.2762C72.1066 85.1253 67.0272 97.3251 63.9664 111.548C61.5065 122.982 63.8256 129.715 70.886 131.565C71.8437 131.82 72.8953 131.984 74.097 132.084L74.0783 132.066Z" fill="#72A45C"/>
<path d="M100.001 10.0405L103.39 10.733L103.832 8.70117C103.907 8.33673 103.935 8.09984 103.916 7.97229C103.897 7.88117 103.841 7.79006 103.738 7.69895C103.597 7.58051 103.447 7.50762 103.278 7.47117L103.015 7.41651L103.052 7.22517L106.179 7.86295L106.141 8.05429L105.878 7.99962C105.709 7.96317 105.531 7.97229 105.362 8.01784C105.23 8.05429 105.137 8.11806 105.071 8.2274C105.005 8.33673 104.93 8.5554 104.855 8.91073L103.86 13.4845C103.785 13.8398 103.756 14.0858 103.775 14.2134C103.794 14.3045 103.85 14.3956 103.944 14.4867C104.085 14.6052 104.245 14.6781 104.414 14.7145L104.677 14.7692L104.639 14.9605L101.512 14.3227L101.55 14.1314L101.813 14.1861C102.113 14.2498 102.348 14.2043 102.517 14.0676C102.63 13.9765 102.733 13.7123 102.827 13.2932L103.296 11.1338L99.907 10.4414L99.4376 12.6007C99.3624 12.9561 99.3343 13.2021 99.3531 13.3296C99.3718 13.4207 99.4282 13.5118 99.5314 13.603C99.6723 13.7214 99.8225 13.7943 99.9915 13.8307L100.254 13.8854L100.217 14.0767L97.0903 13.439L97.1279 13.2476L97.3908 13.3023C97.6912 13.3661 97.9259 13.3205 98.1043 13.1838C98.217 13.0927 98.3203 12.8285 98.4048 12.4094L99.4 7.83562C99.4751 7.47117 99.5033 7.23429 99.4845 7.10673C99.4657 7.01562 99.4094 6.92451 99.3155 6.8334C99.1747 6.71495 99.0151 6.64206 98.8461 6.60562L98.5832 6.55095L98.6207 6.35962L101.747 6.9974L101.71 7.18873L101.447 7.13406C101.278 7.09762 101.099 7.10673 100.93 7.15229C100.808 7.18873 100.714 7.25251 100.639 7.36184C100.564 7.47117 100.498 7.68984 100.423 8.04517L99.9821 10.077L100.001 10.0405Z" fill="#72A45C"/>
<path d="M120.91 13.0473C121.783 13.4573 122.384 14.1315 122.703 15.07C123.022 16.0084 122.947 16.9651 122.468 17.9308C121.98 18.924 121.248 19.5982 120.281 19.9535C119.314 20.3088 118.366 20.2724 117.455 19.8442C116.525 19.416 115.906 18.7326 115.596 17.7942C115.286 16.8648 115.38 15.89 115.877 14.8695C116.394 13.8308 117.173 13.1566 118.225 12.8377C119.135 12.5644 120.037 12.6282 120.91 13.0382V13.0473ZM120.638 13.348C120.037 13.0655 119.445 13.0564 118.863 13.3206C118.14 13.6486 117.53 14.332 117.014 15.3706C116.488 16.4366 116.319 17.366 116.497 18.1586C116.638 18.76 117.014 19.2064 117.605 19.4797C118.234 19.7713 118.873 19.7804 119.53 19.4888C120.187 19.1973 120.76 18.5413 121.267 17.5117C121.821 16.3911 122.008 15.4526 121.821 14.6964C121.67 14.086 121.276 13.6395 120.638 13.3388V13.348Z" fill="#72A45C"/>
<path d="M138.045 23.7527L136.439 25.7116L136.279 25.584C136.533 25.1649 136.693 24.8004 136.739 24.4724C136.786 24.1444 136.739 23.8256 136.608 23.4976C136.477 23.1696 136.27 22.9144 136.007 22.7049C135.707 22.4771 135.387 22.3678 135.049 22.3951C134.711 22.4224 134.449 22.55 134.261 22.7687C134.12 22.9418 134.054 23.1422 134.054 23.3882C134.054 23.7344 134.251 24.3449 134.636 25.2104C134.946 25.912 135.143 26.4222 135.218 26.732C135.294 27.0418 135.303 27.3333 135.237 27.6249C135.172 27.9164 135.049 28.1716 134.871 28.3993C134.514 28.8276 134.045 29.0644 133.444 29.11C132.843 29.1556 132.28 28.9733 131.735 28.5542C131.566 28.4267 131.416 28.29 131.285 28.1442C131.209 28.0622 131.069 27.8709 130.853 27.5611C130.646 27.2604 130.505 27.0782 130.43 27.0144C130.355 26.9598 130.28 26.9324 130.205 26.9416C130.13 26.9507 130.026 27.0144 129.895 27.1329L129.735 27.0053L131.331 25.0647L131.491 25.1922C131.228 25.6569 131.078 26.0396 131.04 26.3402C131.003 26.6409 131.059 26.9598 131.209 27.2878C131.36 27.6249 131.585 27.9073 131.895 28.1533C132.252 28.4267 132.608 28.5542 132.975 28.536C133.341 28.5178 133.613 28.3811 133.82 28.126C133.932 27.9893 134.007 27.8162 134.045 27.6158C134.082 27.4153 134.073 27.1876 134.007 26.9324C133.96 26.7593 133.801 26.3493 133.528 25.6933C133.256 25.0373 133.078 24.5453 132.993 24.2173C132.918 23.8893 132.899 23.5887 132.956 23.3153C133.003 23.0329 133.125 22.7778 133.322 22.55C133.66 22.14 134.101 21.9213 134.665 21.8758C135.228 21.8302 135.754 22.0033 136.251 22.386C136.561 22.6229 136.833 22.9509 137.059 23.37C137.162 23.5613 137.246 23.6889 137.312 23.7344C137.387 23.7891 137.462 23.8164 137.547 23.8073C137.631 23.8073 137.735 23.7436 137.876 23.6342L138.035 23.7618L138.045 23.7527Z" fill="#72A45C"/>
<path d="M145.124 36.3261L143.443 37.6654C143.077 37.957 142.889 38.1757 142.861 38.3214C142.824 38.5219 142.899 38.7314 143.077 38.9501L143.255 39.1688L143.096 39.2963L141.068 36.891L141.227 36.7634L141.406 36.973C141.603 37.2099 141.828 37.3192 142.072 37.2919C142.204 37.2737 142.439 37.137 142.767 36.8819L146.504 33.9208C146.87 33.6292 147.058 33.4197 147.086 33.2739C147.124 33.0643 147.049 32.8548 146.87 32.6452L146.692 32.4357L146.851 32.3081L148.579 34.3672C149.001 34.8683 149.283 35.3057 149.424 35.6792C149.565 36.0528 149.584 36.4354 149.499 36.8363C149.415 37.2372 149.199 37.5743 148.851 37.8477C148.382 38.2212 147.865 38.3761 147.321 38.3123C146.767 38.2485 146.26 37.9388 145.8 37.383C145.687 37.2463 145.575 37.0914 145.462 36.9183C145.349 36.7452 145.237 36.5539 145.124 36.3443V36.3261ZM145.368 36.1348C145.462 36.3079 145.546 36.4537 145.631 36.5721C145.715 36.6997 145.79 36.7999 145.856 36.8819C146.1 37.1643 146.42 37.3283 146.823 37.3557C147.227 37.383 147.612 37.2554 147.978 36.9639C148.232 36.7634 148.419 36.5357 148.551 36.2623C148.682 35.989 148.72 35.7248 148.673 35.4606C148.626 35.1963 148.504 34.9412 148.307 34.7134C148.185 34.5768 148.006 34.4128 147.772 34.2397L145.368 36.1439V36.1348Z" fill="#72A45C"/>
<path d="M151.95 52.143L151.771 52.2341L150.269 49.4916L150.447 49.4005L150.569 49.6283C150.71 49.8925 150.898 50.0474 151.123 50.0839C151.264 50.1021 151.537 50.011 151.931 49.8105L156.184 47.6147C156.522 47.4416 156.729 47.305 156.813 47.2139C156.879 47.141 156.907 47.0407 156.916 46.9132C156.916 46.731 156.879 46.567 156.794 46.4212L156.672 46.1934L156.851 46.1023L158.353 48.8447L158.174 48.9358L158.052 48.7081C157.912 48.4438 157.724 48.2981 157.498 48.2616C157.348 48.2343 157.076 48.3254 156.682 48.5258L152.428 50.7216C152.09 50.8947 151.884 51.0314 151.799 51.1225C151.734 51.1954 151.706 51.2956 151.696 51.4323C151.696 51.6054 151.734 51.7694 151.818 51.9243L151.94 52.1521L151.95 52.143Z" fill="#72A45C"/>
<path d="M164.672 65.0351L163.019 65.5909L162.963 65.3996C163.245 65.2811 163.442 65.1627 163.545 65.0624C163.714 64.8984 163.827 64.7162 163.864 64.5067C163.911 64.3062 163.883 64.0602 163.798 63.7687L163.498 62.7938L158.024 64.3609C157.583 64.4884 157.32 64.616 157.245 64.7344C157.132 64.9076 157.123 65.1262 157.207 65.3996L157.283 65.6364L157.085 65.6911L156.184 62.7482L156.381 62.6936L156.456 62.9396C156.55 63.2311 156.7 63.4133 156.926 63.4862C157.057 63.5318 157.33 63.4862 157.733 63.3769L163.207 61.8098L162.953 60.9716C162.85 60.6436 162.756 60.4249 162.672 60.2973C162.55 60.1424 162.381 60.024 162.146 59.9511C161.921 59.8782 161.639 59.8782 161.31 59.9511L161.254 59.7598L162.953 59.3589L164.681 65.026L164.672 65.0351Z" fill="#72A45C"/>
<path d="M162.061 80.5058L161.864 77.7087L160.653 77.2987C160.352 77.1985 160.136 77.153 159.996 77.1621C159.883 77.1621 159.789 77.2258 159.705 77.3352C159.629 77.4445 159.582 77.6723 159.582 78.0276H159.376C159.376 78.0367 159.216 75.7681 159.216 75.7681H159.423C159.498 76.0505 159.582 76.2418 159.676 76.3238C159.864 76.497 160.24 76.6701 160.794 76.8523L167.103 78.9843V79.1665C167.112 79.1665 161.103 82.1003 161.103 82.1003C160.625 82.3372 160.305 82.5376 160.174 82.7198C160.033 82.893 159.967 83.1298 159.977 83.4305L159.77 83.4487L159.564 80.597H159.77C159.808 80.8703 159.864 81.0616 159.958 81.1527C160.052 81.2438 160.155 81.2894 160.277 81.2803C160.437 81.2712 160.69 81.1801 161.028 81.0161L162.071 80.5058H162.061ZM162.465 80.3236L165.385 78.8932L162.286 77.8363L162.465 80.3236Z" fill="#72A45C"/>
<path d="M160.306 99.3112L160.24 99.4752L158.343 98.5549L159.254 93.0154L159.451 93.0427L159.404 93.316C159.357 93.6167 159.423 93.8536 159.601 94.0085C159.705 94.0996 159.968 94.1816 160.39 94.2454L165.15 94.9834C165.61 95.0563 165.911 95.0472 166.042 94.9652C166.221 94.8558 166.333 94.6645 166.38 94.3912L166.427 94.1178L166.624 94.1452L166.089 97.3796L165.892 97.3523C165.958 96.9696 165.967 96.7054 165.911 96.5323C165.864 96.3683 165.779 96.2498 165.676 96.1769C165.573 96.104 165.3 96.0312 164.859 95.9674L160.23 95.2476C159.93 95.202 159.714 95.1929 159.601 95.2385C159.517 95.2658 159.451 95.3296 159.404 95.4116C159.357 95.4936 159.292 95.7669 159.216 96.2225L159.132 96.7418C159.038 97.2885 159.019 97.6803 159.066 97.9172C159.113 98.154 159.226 98.3727 159.414 98.5914C159.592 98.81 159.902 99.0378 160.324 99.2929L160.306 99.3112Z" fill="#72A45C"/>
<path d="M153.105 129.269L152.936 129.168C153.029 128.922 153.067 128.713 153.029 128.54C152.973 128.285 152.832 128.002 152.598 127.692L148.542 122.317L148.645 122.153L155.593 123.1C155.949 123.146 156.175 123.164 156.269 123.155C156.409 123.137 156.55 123.091 156.672 123.009C156.794 122.927 156.926 122.8 157.057 122.627L157.226 122.727L155.63 125.251L155.461 125.15C155.611 124.85 155.677 124.631 155.658 124.504C155.64 124.376 155.574 124.276 155.461 124.212C155.302 124.121 155.02 124.048 154.597 123.984L149.875 123.337L152.635 126.982C152.907 127.337 153.114 127.565 153.255 127.647C153.349 127.702 153.461 127.711 153.602 127.665C153.743 127.629 153.893 127.51 154.062 127.319C154.072 127.31 154.1 127.282 154.128 127.246L154.306 127.346L153.105 129.25V129.269Z" fill="#72A45C"/>
<path d="M144.101 139.282L141.998 137.268L140.843 138.398C140.542 138.689 140.392 138.935 140.383 139.118C140.373 139.364 140.505 139.637 140.796 139.947L140.655 140.083L138.805 138.316L138.946 138.179C139.237 138.389 139.444 138.516 139.556 138.553C139.697 138.598 139.838 138.589 139.998 138.535C140.157 138.48 140.345 138.343 140.561 138.134L141.716 137.004L139.96 135.327C139.725 135.1 139.575 134.972 139.5 134.945C139.425 134.917 139.35 134.917 139.275 134.936C139.19 134.954 139.078 135.036 138.937 135.182L138.045 136.056C137.744 136.348 137.557 136.576 137.463 136.749C137.369 136.922 137.322 137.122 137.322 137.368C137.322 137.678 137.406 138.079 137.566 138.553L137.416 138.708L136.533 136.986L140.57 133.013L140.711 133.15L140.523 133.332C140.401 133.451 140.317 133.596 140.261 133.76C140.223 133.879 140.223 133.997 140.279 134.107C140.336 134.216 140.486 134.398 140.749 134.644L144.204 137.951C144.542 138.27 144.786 138.443 144.927 138.453C145.124 138.453 145.331 138.361 145.547 138.143L145.734 137.961L145.875 138.097L141.838 142.07L140.617 141.013L140.768 140.867C141.106 141.086 141.35 141.204 141.528 141.241C141.697 141.277 141.875 141.259 142.063 141.186C142.204 141.122 142.411 140.958 142.664 140.703L144.101 139.291V139.282Z" fill="#72A45C"/>
<path d="M127.05 152.967L126.036 151.582L126.215 151.472C126.412 151.7 126.581 151.855 126.712 151.928C126.919 152.037 127.135 152.092 127.351 152.074C127.567 152.055 127.801 151.964 128.064 151.809L128.947 151.254L125.858 146.598C125.614 146.224 125.416 146.015 125.266 145.978C125.069 145.924 124.844 145.978 124.6 146.124L124.384 146.261L124.271 146.097L126.928 144.429L127.041 144.593L126.815 144.73C126.552 144.894 126.412 145.095 126.402 145.313C126.402 145.45 126.506 145.687 126.74 146.033L129.829 150.689L130.58 150.215C130.871 150.033 131.069 149.878 131.162 149.759C131.285 149.605 131.35 149.404 131.36 149.176C131.36 148.939 131.294 148.684 131.125 148.393L131.303 148.283L132.176 149.759L127.05 152.957V152.967Z" fill="#72A45C"/>
<path d="M114.356 158.406L113.342 155.718L111.803 156.265C111.399 156.41 111.155 156.556 111.07 156.72C110.948 156.939 110.948 157.24 111.07 157.64L110.882 157.704L109.991 155.335L110.178 155.272C110.347 155.581 110.479 155.782 110.563 155.855C110.667 155.946 110.807 156.01 110.976 156.019C111.145 156.037 111.371 155.991 111.662 155.891L113.202 155.344L112.357 153.103C112.244 152.802 112.159 152.62 112.112 152.566C112.065 152.511 111.99 152.474 111.906 152.465C111.821 152.447 111.681 152.474 111.493 152.547L110.3 152.966C109.906 153.103 109.624 153.24 109.465 153.349C109.305 153.468 109.174 153.632 109.07 153.85C108.939 154.133 108.836 154.524 108.77 155.026L108.563 155.098L108.526 153.176L113.934 151.263L114 151.445L113.755 151.536C113.586 151.591 113.446 151.691 113.333 151.818C113.239 151.91 113.202 152.019 113.202 152.137C113.202 152.256 113.267 152.484 113.389 152.812L115.051 157.23C115.211 157.659 115.361 157.914 115.483 157.978C115.661 158.069 115.887 158.06 116.178 157.959L116.422 157.868L116.488 158.05L111.08 159.964L110.441 158.497L110.638 158.424C110.845 158.752 111.014 158.971 111.155 159.08C111.296 159.18 111.465 159.235 111.662 159.244C111.821 159.244 112.075 159.18 112.422 159.062L114.347 158.378L114.356 158.406Z" fill="#72A45C"/>
<path d="M90.8561 156.602L92.8371 156.365L95.7758 159.426C95.9636 159.399 96.1138 159.371 96.2265 159.362C96.2735 159.362 96.3204 159.353 96.3767 159.344C96.4331 159.344 96.4894 159.344 96.5457 159.335L96.2828 157.249C96.2265 156.793 96.142 156.52 96.02 156.429C95.8603 156.292 95.6444 156.237 95.3627 156.274L95.0717 156.31L95.0435 156.11L98.217 155.727L98.2451 155.928L97.9635 155.964C97.6536 156 97.4377 156.128 97.325 156.338C97.2593 156.456 97.2593 156.72 97.3062 157.13L97.8977 161.777C97.9541 162.232 98.0386 162.506 98.1606 162.597C98.3202 162.733 98.5456 162.788 98.8272 162.752L99.1089 162.715L99.1371 162.916L96.4425 163.244C95.6538 163.335 95.0717 163.353 94.6773 163.289C94.2924 163.225 93.945 163.052 93.6446 162.788C93.3441 162.524 93.1657 162.178 93.1188 161.768C93.0625 161.33 93.1657 160.92 93.4192 160.565C93.6727 160.201 94.1046 159.918 94.7149 159.709L92.9216 157.832C92.5085 157.404 92.1705 157.121 91.8982 156.993C91.626 156.866 91.288 156.811 90.8749 156.811L90.8467 156.611L90.8561 156.602ZM96.5927 159.663C96.527 159.663 96.4612 159.681 96.4143 159.681C96.3673 159.681 96.3204 159.681 96.2922 159.69C95.5881 159.772 95.0717 159.991 94.7525 160.328C94.4332 160.665 94.3018 161.066 94.3581 161.531C94.4145 161.977 94.6116 162.324 94.9308 162.569C95.2595 162.815 95.6538 162.907 96.1326 162.852C96.3392 162.825 96.6208 162.761 96.9776 162.651L96.5927 159.663Z" fill="#72A45C"/>
<path d="M77.8897 156.538L77.9085 156.338L81.1007 156.584L81.082 156.784L80.8191 156.766C80.5092 156.739 80.2839 156.811 80.1243 156.975C80.0304 157.085 79.9647 157.349 79.9271 157.786L79.5422 162.451C79.514 162.816 79.514 163.062 79.5516 163.18C79.5797 163.271 79.6455 163.353 79.7581 163.426C79.9083 163.526 80.0773 163.581 80.2557 163.59L80.5186 163.608L80.4998 163.809L77.3076 163.563L77.3264 163.362L77.5987 163.381C77.8991 163.408 78.1338 163.335 78.2841 163.171C78.3873 163.062 78.4531 162.797 78.4906 162.36L78.8756 157.695C78.9037 157.331 78.9037 157.085 78.8662 156.966C78.838 156.875 78.7629 156.793 78.6502 156.72C78.5 156.62 78.3404 156.565 78.162 156.556L77.8897 156.538Z" fill="#72A45C"/>
<path d="M66.201 161.823L64.2575 161.267L61.4784 154.798L60.2484 158.807C60.117 159.235 60.0888 159.517 60.1545 159.645C60.239 159.827 60.4268 159.955 60.7085 160.037L60.9526 160.11L60.8963 160.301L58.4082 159.581L58.4645 159.39L58.718 159.463C59.0185 159.554 59.2626 159.527 59.441 159.381C59.5536 159.29 59.6663 159.053 59.7884 158.67L61.5817 152.821L61.7694 152.875L64.7739 159.827L66.0789 155.554C66.2104 155.126 66.2479 154.843 66.1822 154.716C66.0883 154.534 65.9099 154.406 65.6283 154.324L65.3748 154.251L65.4311 154.06L67.9191 154.78L67.8628 154.971L67.6187 154.898C67.3089 154.807 67.0648 154.834 66.8864 154.98C66.7737 155.071 66.661 155.308 66.539 155.691L65.0649 160.52C65.1964 160.811 65.309 161.012 65.3935 161.121C65.478 161.23 65.6095 161.34 65.7973 161.467C65.8911 161.531 66.0414 161.586 66.2479 161.649L66.1916 161.841L66.201 161.823Z" fill="#72A45C"/>
<path d="M42.0996 154.634L44.4562 153.832L44.6158 153.923L43.1606 155.235L42.0996 154.634ZM45.9303 148.493L48.4277 149.905L49.4605 149.167C49.714 148.985 49.8736 148.83 49.9487 148.712C50.0051 148.621 50.0051 148.502 49.9581 148.384C49.9112 148.256 49.7328 148.101 49.4323 147.901L49.5356 147.728L51.5636 148.876L51.4603 149.049C51.1599 148.939 50.9533 148.903 50.8313 148.93C50.5778 148.985 50.221 149.185 49.7516 149.523L44.3905 153.386L44.2215 153.295L45.1041 146.817C45.1792 146.297 45.1698 145.933 45.1041 145.723C45.0289 145.514 44.8693 145.331 44.6158 145.167L44.7191 144.994L47.2635 146.434L47.1602 146.607C46.8973 146.47 46.7002 146.416 46.5687 146.434C46.4373 146.452 46.3434 146.516 46.2777 146.616C46.1932 146.753 46.1274 146.999 46.0805 147.363L45.9303 148.484V148.493ZM45.8552 148.912L45.4327 152.055L48.0709 150.16L45.8552 148.903V148.912Z" fill="#72A45C"/>
<path d="M31.4899 134.261L32.9358 135.592L32.3631 139.737C32.5039 139.856 32.6166 139.956 32.7011 140.038C32.7386 140.074 32.7762 140.102 32.8137 140.147C32.8513 140.184 32.8889 140.229 32.9358 140.266L34.4286 138.744C34.7573 138.416 34.9169 138.17 34.9169 138.024C34.9262 137.815 34.8324 137.623 34.6258 137.432L34.4099 137.241L34.5507 137.095L36.8698 139.236L36.7289 139.382L36.5224 139.191C36.297 138.981 36.0623 138.899 35.8182 138.954C35.6867 138.981 35.4708 139.145 35.1798 139.446L31.8561 142.835C31.5369 143.163 31.3679 143.409 31.3679 143.555C31.3679 143.764 31.4617 143.965 31.6589 144.156L31.8655 144.347L31.7246 144.493L29.753 142.671C29.1802 142.143 28.7953 141.705 28.5981 141.377C28.401 141.04 28.3165 140.685 28.3446 140.284C28.3728 139.892 28.5324 139.546 28.8235 139.245C29.1427 138.926 29.5182 138.744 29.9689 138.708C30.4196 138.671 30.9172 138.817 31.4711 139.136L31.8279 136.603C31.9124 136.02 31.9218 135.592 31.8467 135.309C31.7716 135.027 31.6026 134.735 31.3397 134.425L31.4805 134.28L31.4899 134.261ZM32.6823 140.503C32.6354 140.457 32.5884 140.411 32.5509 140.375C32.5133 140.339 32.4851 140.311 32.457 140.284C31.9406 139.81 31.443 139.555 30.9735 139.528C30.4947 139.5 30.1004 139.655 29.7717 139.992C29.4525 140.32 29.2929 140.685 29.3023 141.086C29.3117 141.487 29.4901 141.851 29.8375 142.17C29.9877 142.316 30.2224 142.48 30.5322 142.671L32.6729 140.484L32.6823 140.503Z" fill="#72A45C"/>
<path d="M23.3311 124.485L23.5001 124.376L25.3215 126.927L25.1525 127.036L25.0023 126.827C24.8239 126.581 24.6268 126.453 24.4014 126.444C24.2512 126.444 23.9977 126.562 23.6315 126.808L19.6694 129.478C19.3596 129.688 19.1718 129.842 19.0967 129.952C19.0404 130.034 19.0216 130.134 19.031 130.262C19.0498 130.435 19.1061 130.599 19.2094 130.735L19.3596 130.945L19.1906 131.054L17.3691 128.503L17.5381 128.394L17.6884 128.612C17.8574 128.858 18.0639 128.986 18.2893 128.995C18.4395 128.995 18.693 128.886 19.0685 128.64L23.0306 125.97C23.3405 125.761 23.5283 125.606 23.6034 125.496C23.6597 125.414 23.6785 125.314 23.6691 125.178C23.6503 125.004 23.594 124.85 23.4907 124.704L23.3405 124.485H23.3311Z" fill="#72A45C"/>
<path d="M9.90502 115.292C9.52946 114.426 9.54824 113.534 9.95196 112.622C10.3557 111.711 11.0692 111.046 12.0832 110.636C13.1254 110.208 14.1394 110.181 15.1065 110.536C16.0735 110.891 16.7495 111.529 17.1439 112.44C17.5382 113.36 17.5382 114.272 17.1439 115.174C16.7401 116.076 16.0078 116.741 14.9375 117.178C13.8484 117.624 12.7968 117.624 11.7922 117.178C10.919 116.795 10.2994 116.167 9.9238 115.292H9.90502ZM10.3181 115.237C10.5716 115.839 11.0129 116.221 11.6232 116.394C12.3837 116.613 13.3132 116.504 14.4117 116.057C15.5384 115.602 16.2989 115.019 16.7026 114.299C17.0124 113.752 17.0312 113.187 16.7777 112.595C16.5054 111.966 16.0266 111.556 15.3506 111.347C14.6652 111.146 13.7826 111.265 12.7029 111.702C11.5293 112.185 10.7406 112.759 10.3557 113.452C10.0552 113.998 10.0365 114.59 10.3087 115.228L10.3181 115.237Z" fill="#72A45C"/>
<path d="M9.75482 82.9385L11.2007 83.4214L11.2758 87.6945H11.0693C9.86748 86.4554 8.89104 85.5898 8.13054 85.0887C7.37004 84.5876 6.68465 84.3416 6.06498 84.3507C5.59554 84.3507 5.2012 84.5056 4.90076 84.788C4.60032 85.0705 4.45009 85.4167 4.45948 85.8085C4.45948 86.1638 4.58154 86.4827 4.79748 86.7651C5.01343 87.0476 5.33265 87.248 5.75515 87.3756V87.576C5.07915 87.494 4.55337 87.2754 4.1872 86.9109C3.82104 86.5465 3.62387 86.0909 3.62387 85.5351C3.61448 84.952 3.80226 84.4509 4.1872 84.05C4.57215 83.6491 5.02282 83.4487 5.55798 83.4396C5.93354 83.4396 6.31848 83.5125 6.69404 83.6765C7.29493 83.9316 7.93337 84.3507 8.59998 84.9247C9.61398 85.7994 10.2243 86.3369 10.4308 86.5556L10.4026 84.6605C10.4026 84.2778 10.3745 84.0045 10.3463 83.8496C10.3181 83.6947 10.2524 83.558 10.1585 83.4305C10.0646 83.3029 9.9332 83.2027 9.77359 83.1116V82.9111L9.75482 82.9385Z" fill="#72A45C"/>
<path d="M10.4306 67.6865L11.2005 67.8323L11.0033 68.789L12.9374 69.1625L12.759 70.0281L10.8249 69.6545L10.2052 72.6612L9.51046 72.5245L5.3418 68.297L5.46385 67.723L10.2334 68.6432L10.4306 67.6865ZM10.055 69.5087L6.42152 68.8072L9.53863 72.0052L10.0456 69.5087H10.055Z" fill="#72A45C"/>
<path d="M13.2567 55.3317L14.6651 52.2613L12.7122 51.414C12.3648 51.2591 12.1207 51.1862 11.9986 51.1771C11.8953 51.1771 11.7921 51.2135 11.6888 51.2864C11.5479 51.3957 11.4353 51.5233 11.3602 51.6782L11.2569 51.9151L11.0691 51.8331L12.3648 48.9995L12.5526 49.0815L12.4493 49.3184C12.3742 49.4733 12.346 49.6373 12.3648 49.8104C12.3648 49.938 12.4211 50.0473 12.515 50.1293C12.6089 50.2113 12.8248 50.3297 13.1534 50.4755L17.5568 52.3797C17.9042 52.5255 18.1389 52.6075 18.2704 52.6075C18.3737 52.6075 18.4676 52.5802 18.5802 52.4982C18.7304 52.3888 18.8337 52.2613 18.9088 52.0973L19.0121 51.8604L19.1999 51.9424L17.9042 54.776L17.7164 54.694L17.8197 54.4571C17.9418 54.1837 17.9512 53.956 17.8479 53.7646C17.7822 53.6371 17.5381 53.4822 17.1249 53.3091L15.05 52.4071L13.6417 55.4775L15.7166 56.3795C16.064 56.5253 16.2987 56.6073 16.4302 56.6164C16.5334 56.6164 16.6367 56.58 16.74 56.5071C16.8808 56.3977 16.9935 56.2702 17.0686 56.1153L17.1813 55.8784L17.3691 55.9604L16.064 58.794L15.8762 58.712L15.9795 58.4751C16.1016 58.2017 16.1109 57.9648 16.0077 57.7735C15.9326 57.646 15.6978 57.5002 15.2847 57.318L10.8813 55.4137C10.5339 55.2588 10.2898 55.186 10.1678 55.1768C10.0645 55.1768 9.97061 55.2042 9.85795 55.2862C9.70773 55.3955 9.60445 55.5231 9.52934 55.6871L9.42606 55.924L9.23828 55.842L10.5433 53.0084L10.7311 53.0904L10.6184 53.3273C10.5433 53.4822 10.5152 53.6462 10.5339 53.8193C10.5339 53.9468 10.5903 54.0471 10.6842 54.1382C10.7781 54.2202 10.9846 54.3386 11.3226 54.4844L13.2755 55.3317H13.2567Z" fill="#72A45C"/>
<path d="M20.646 36.1255C21.2375 35.3784 22.0449 34.9502 23.0589 34.8408C24.0729 34.7315 25.0212 35.0048 25.8943 35.6517C26.7957 36.3259 27.3215 37.1551 27.4717 38.1482C27.6313 39.1413 27.3966 40.0251 26.7769 40.8086C26.1478 41.6013 25.331 42.0477 24.3264 42.148C23.3218 42.2482 22.3641 41.9566 21.444 41.2733C20.5051 40.5717 19.9887 39.6879 19.8855 38.6219C19.801 37.7017 20.0545 36.8635 20.6553 36.1073L20.646 36.1255ZM20.8995 36.4444C20.4957 36.9546 20.3643 37.5195 20.5051 38.1208C20.6835 38.8771 21.2468 39.5968 22.1857 40.3075C23.1528 41.0273 24.0541 41.3826 24.8897 41.3735C25.5282 41.3644 26.054 41.1002 26.4483 40.5991C26.8802 40.0615 27.0116 39.4511 26.8614 38.7768C26.7112 38.1026 26.1666 37.4193 25.2277 36.7177C24.2137 35.9615 23.3124 35.5879 22.505 35.6062C21.8665 35.6244 21.322 35.8977 20.8901 36.4444H20.8995Z" fill="#72A45C"/>
<path d="M41.7428 26.313L40.1936 27.5339L36.0343 26.4497C35.8935 26.5681 35.7808 26.6684 35.6869 26.7413C35.6494 26.7686 35.6118 26.805 35.5649 26.8324C35.5179 26.8688 35.471 26.8961 35.424 26.9326L36.7854 28.5635C37.0859 28.9188 37.3018 29.1101 37.452 29.1284C37.6586 29.1648 37.8745 29.101 38.0905 28.9279L38.3158 28.7457L38.4473 28.9006L35.9592 30.8504L35.8278 30.6955L36.0437 30.5224C36.2878 30.331 36.4005 30.1124 36.3723 29.8755C36.3629 29.7388 36.2221 29.5201 35.9498 29.1921L32.9172 25.5568C32.6168 25.2015 32.4008 25.0101 32.2506 24.9919C32.0346 24.9555 31.8187 25.0284 31.6028 25.2015L31.3868 25.3746L31.2554 25.2197L33.3679 23.5615C33.9875 23.0786 34.4758 22.7597 34.8419 22.623C35.2081 22.4773 35.593 22.4499 35.9874 22.5228C36.3817 22.5957 36.7197 22.7961 36.992 23.115C37.283 23.4613 37.4145 23.853 37.3957 24.2904C37.3769 24.7277 37.1704 25.1924 36.7667 25.6753L39.311 26.3495C39.8932 26.5044 40.3344 26.5681 40.6349 26.5317C40.9353 26.4953 41.2545 26.3768 41.6019 26.1581L41.7334 26.313H41.7428ZM35.2175 26.6593C35.2738 26.6137 35.3208 26.5773 35.3583 26.5499C35.3959 26.5226 35.4334 26.4953 35.4616 26.477C36.0155 26.0397 36.3348 25.6024 36.4193 25.1468C36.5038 24.6913 36.4005 24.2904 36.1 23.9259C35.809 23.5706 35.4522 23.3793 35.0485 23.3337C34.6354 23.2881 34.2504 23.4157 33.8749 23.7164C33.7059 23.8439 33.5087 24.0444 33.274 24.3268L35.2269 26.6684L35.2175 26.6593Z" fill="#72A45C"/>
<path d="M53.2725 17.0469L50.6718 18.2586L50.7281 19.4978C50.7375 19.8075 50.775 20.0171 50.8408 20.1446C50.8877 20.2449 50.9816 20.3086 51.113 20.336C51.2445 20.3633 51.4792 20.3178 51.8172 20.1902L51.9017 20.3724L49.7798 21.3564L49.6953 21.1742C49.9488 20.992 50.099 20.8462 50.146 20.7278C50.2399 20.4909 50.268 20.0991 50.2399 19.5251L49.9488 13.0471L50.1178 12.9651L55.1503 17.302C55.554 17.6482 55.8638 17.8578 56.0798 17.9124C56.2957 17.9671 56.5492 17.9398 56.8309 17.8304L56.9154 18.0126L54.2583 19.2518L54.1738 19.0695C54.4367 18.9329 54.5963 18.8053 54.6526 18.6869C54.709 18.5684 54.709 18.4591 54.6526 18.3498C54.5869 18.2131 54.4085 18.0126 54.1269 17.7758L53.2537 17.0286L53.2725 17.0469ZM52.9533 16.7553L50.5028 14.6506L50.6342 17.8395L52.9439 16.7644L52.9533 16.7553Z" fill="#72A45C"/>
<path d="M69.4586 6.71492L70.0219 9.1567L69.8247 9.20225C69.6557 8.7467 69.4492 8.40048 69.2238 8.15448C68.9891 7.90848 68.7074 7.74448 68.3601 7.64426C68.0127 7.54403 67.6747 7.53492 67.3461 7.60781C66.9705 7.68981 66.6888 7.86292 66.5011 8.13626C66.3039 8.40959 66.2476 8.68292 66.3133 8.96537C66.3602 9.18403 66.4823 9.35714 66.6794 9.50292C66.9611 9.71248 67.5714 9.94937 68.5009 10.2045C69.2614 10.414 69.7872 10.578 70.0876 10.7147C70.3787 10.8514 70.6228 11.0336 70.8199 11.2614C71.0171 11.4891 71.1392 11.7443 71.2049 12.0267C71.327 12.5643 71.2237 13.0654 70.8857 13.5483C70.5477 14.0311 70.0407 14.3409 69.3647 14.4867C69.1487 14.5323 68.9516 14.5596 68.7544 14.5687C68.6417 14.5687 68.3976 14.5687 68.0221 14.5323C67.6465 14.4958 67.4118 14.4958 67.3179 14.514C67.224 14.5323 67.1677 14.5778 67.1207 14.6416C67.0738 14.7054 67.0644 14.8238 67.0832 14.9878L66.886 15.0334L66.3227 12.6098L66.5198 12.5643C66.7264 13.0471 66.9423 13.4025 67.1583 13.6211C67.3742 13.8398 67.6653 13.9947 68.0221 14.0949C68.3882 14.1951 68.7638 14.1951 69.1487 14.1131C69.5994 14.0129 69.928 13.8216 70.1346 13.5391C70.3411 13.2567 70.4068 12.956 70.3317 12.6371C70.2942 12.464 70.2003 12.3 70.0594 12.1451C69.9186 11.9903 69.7308 11.8536 69.4867 11.7534C69.3271 11.6805 68.8858 11.5438 68.1911 11.3343C67.4869 11.1338 66.9799 10.9607 66.6701 10.8149C66.3602 10.6691 66.1067 10.496 65.9189 10.2774C65.7312 10.0678 65.5997 9.8127 65.534 9.52114C65.4213 9.01092 65.5152 8.53714 65.8344 8.08159C66.1537 7.62603 66.6231 7.33448 67.2428 7.19781C67.6277 7.11581 68.0596 7.11581 68.5384 7.19781C68.7544 7.24337 68.914 7.25248 68.9891 7.23426C69.083 7.21603 69.1487 7.17048 69.1957 7.1067C69.2426 7.04292 69.2614 6.92448 69.2614 6.75137L69.4586 6.70581V6.71492Z" fill="#72A45C"/>
<path d="M87.8236 11.0792C88.0958 11.5894 87.8799 12.1634 87.617 12.4367C87.3729 12.6918 87.0724 12.7738 86.7251 12.7101C86.5373 12.6736 86.3495 12.6098 86.1617 12.5643C85.9833 12.5187 85.8049 12.4823 85.6172 12.5096C85.4857 12.5278 85.3731 12.5734 85.2604 12.619C85.1008 12.6827 84.9412 12.7556 84.7722 12.8103C84.3497 12.947 83.8521 12.7738 83.6173 12.4094C83.4014 12.0723 83.3544 11.7078 83.4953 11.3252C83.6831 10.8058 84.0117 10.3867 84.4811 10.077C85.0726 9.68517 85.7111 9.59406 86.3964 9.82184C86.8471 9.97673 87.2227 10.2501 87.5231 10.6145C87.6452 10.7512 87.7391 10.9061 87.8236 11.0792Z" fill="#72A45C"/>
<path d="M85.6168 8.99268C85.5323 8.81046 85.4947 8.62824 85.5135 8.42779C85.5323 8.17268 85.598 7.92668 85.7107 7.68979C85.7576 7.59868 85.814 7.51668 85.8797 7.44379C86.0018 7.33446 86.1426 7.28891 86.3116 7.30713C86.4806 7.33446 86.6308 7.40735 86.7623 7.50757C86.95 7.64424 87.1003 7.81735 87.1941 8.02691C87.3444 8.32757 87.3256 8.62824 87.166 8.91979C87.0627 9.12024 86.9125 9.28424 86.6965 9.38446C86.3398 9.55757 85.9266 9.44824 85.6919 9.12935C85.6544 9.08379 85.6262 9.02913 85.598 8.98357L85.6168 8.99268Z" fill="#72A45C"/>
<path d="M85.0068 7.93588C85.1101 8.17277 85.1946 8.37322 85.2134 8.59188C85.2322 8.87433 85.1758 9.13855 84.9787 9.35722C84.7533 9.61233 84.3966 9.68522 84.0867 9.55766C83.852 9.45744 83.6736 9.29344 83.5516 9.07477C83.345 8.71033 83.392 8.35499 83.6079 8.00877C83.7206 7.82655 83.8708 7.67166 84.068 7.56233C84.2182 7.48033 84.3778 7.43477 84.5562 7.48944C84.697 7.53499 84.7909 7.62611 84.8754 7.73544C84.9317 7.81744 84.9881 7.90855 85.0162 7.95411L85.0068 7.93588Z" fill="#72A45C"/>
<path d="M83.617 9.58486C83.6921 9.75797 83.7578 9.91286 83.7766 10.0769C83.786 10.2135 83.7766 10.3502 83.7108 10.4686C83.5606 10.7966 83.1851 10.906 82.8752 10.7055C82.5279 10.4777 82.3589 10.0586 82.6311 9.6213C82.725 9.46641 82.8471 9.33886 83.0161 9.25686C83.1851 9.18397 83.3447 9.2113 83.4667 9.34797C83.4855 9.3753 83.5137 9.39353 83.5325 9.42086C83.57 9.47553 83.5982 9.53019 83.6264 9.56664L83.617 9.58486Z" fill="#72A45C"/>
<path d="M88.0767 10.2957C87.8045 10.4233 87.504 10.3231 87.3538 10.068C87.2505 9.89485 87.2224 9.71262 87.2505 9.51218C87.2787 9.33907 87.3162 9.17507 87.4007 9.01107C87.4477 8.91996 87.5134 8.83796 87.6261 8.7924C87.7294 8.74685 87.842 8.75596 87.9359 8.80151C88.2551 8.94729 88.4617 9.18418 88.5086 9.52129C88.5462 9.81285 88.349 10.15 88.0767 10.2775V10.2957Z" fill="#72A45C"/>
<path d="M11.8299 99.4661C12.3933 99.293 12.9472 99.5937 13.1726 99.8943C13.3885 100.168 13.4261 100.468 13.2946 100.787C13.2195 100.96 13.135 101.133 13.0505 101.307C12.9754 101.471 12.9097 101.635 12.9003 101.817C12.9003 101.944 12.9284 102.063 12.9566 102.181C12.9942 102.345 13.0411 102.509 13.0693 102.682C13.135 103.111 12.8815 103.557 12.4684 103.721C12.0834 103.876 11.7079 103.858 11.3511 103.657C10.8535 103.384 10.4873 103.001 10.2526 102.5C9.95217 101.871 9.97095 101.243 10.3183 100.632C10.5531 100.222 10.8911 99.9217 11.3136 99.6848C11.4732 99.5937 11.6516 99.5208 11.8393 99.4752L11.8299 99.4661Z" fill="#72A45C"/>
<path d="M9.33216 101.215C9.135 101.261 8.93783 101.27 8.74066 101.215C8.48716 101.151 8.24305 101.051 8.02711 100.905C7.94261 100.851 7.8675 100.778 7.81116 100.696C7.71727 100.559 7.6985 100.413 7.74544 100.259C7.80177 100.095 7.90505 99.9671 8.02711 99.8577C8.19611 99.7028 8.40266 99.5935 8.628 99.5297C8.95661 99.4386 9.25705 99.5115 9.52933 99.7028C9.71711 99.8395 9.85794 100.013 9.92366 100.231C10.0363 100.605 9.85794 100.978 9.49177 101.142C9.43544 101.17 9.37911 101.188 9.32277 101.206L9.33216 101.215Z" fill="#72A45C"/>
<path d="M8.14956 101.625C8.41245 101.562 8.62839 101.516 8.84434 101.534C9.13539 101.562 9.38889 101.662 9.57667 101.89C9.79261 102.145 9.81139 102.5 9.62361 102.773C9.48278 102.983 9.28561 103.12 9.0415 103.202C8.63778 103.338 8.281 103.229 7.97117 102.965C7.80217 102.828 7.67073 102.655 7.59561 102.455C7.52989 102.291 7.51111 102.136 7.59561 101.972C7.66134 101.853 7.774 101.771 7.89606 101.707C7.98995 101.662 8.09322 101.635 8.14017 101.607L8.14956 101.625Z" fill="#72A45C"/>
<path d="M9.59535 103.238C9.78313 103.202 9.95213 103.156 10.1211 103.174C10.262 103.183 10.3934 103.229 10.5155 103.311C10.8159 103.511 10.8629 103.894 10.6094 104.149C10.3183 104.441 9.86763 104.532 9.46391 104.204C9.32308 104.085 9.21041 103.949 9.16346 103.776C9.11652 103.603 9.17285 103.448 9.33246 103.357C9.36063 103.338 9.3888 103.32 9.41697 103.311C9.4733 103.284 9.53902 103.265 9.58596 103.247L9.59535 103.238Z" fill="#72A45C"/>
<path d="M11.0694 99.0926C11.1445 99.366 11.0037 99.6484 10.7126 99.7486C10.5154 99.8124 10.3277 99.8215 10.1305 99.7486C9.9615 99.694 9.7925 99.6302 9.65167 99.5209C9.56717 99.4571 9.49206 99.3751 9.47328 99.2748C9.44511 99.1655 9.47328 99.0653 9.539 98.9833C9.73617 98.7009 10.0178 98.546 10.3746 98.5551C10.6751 98.5642 10.9849 98.8193 11.0694 99.0926Z" fill="#72A45C"/>
<path d="M156.625 108.632C156.034 108.677 155.574 108.258 155.414 107.921C155.273 107.602 155.301 107.302 155.508 107.019C155.621 106.864 155.752 106.718 155.865 106.573C155.977 106.436 156.081 106.29 156.128 106.108C156.165 105.99 156.156 105.862 156.156 105.744C156.156 105.57 156.156 105.406 156.156 105.233C156.193 104.805 156.55 104.422 156.982 104.359C157.386 104.295 157.752 104.395 158.052 104.668C158.465 105.042 158.738 105.498 158.85 106.035C158.991 106.718 158.832 107.329 158.343 107.839C158.024 108.185 157.611 108.404 157.151 108.541C156.973 108.595 156.785 108.623 156.597 108.632H156.625Z" fill="#72A45C"/>
<path d="M159.47 107.466C159.676 107.466 159.864 107.502 160.043 107.593C160.277 107.712 160.484 107.867 160.662 108.058C160.728 108.131 160.784 108.213 160.822 108.304C160.878 108.459 160.869 108.605 160.784 108.741C160.69 108.887 160.568 108.987 160.418 109.069C160.212 109.188 159.996 109.242 159.752 109.251C159.404 109.27 159.132 109.133 158.907 108.878C158.756 108.705 158.662 108.504 158.644 108.277C158.615 107.885 158.878 107.557 159.282 107.484C159.338 107.475 159.404 107.466 159.461 107.457L159.47 107.466Z" fill="#72A45C"/>
<path d="M160.709 107.329C160.437 107.329 160.221 107.329 160.005 107.265C159.723 107.174 159.507 107.019 159.376 106.755C159.226 106.454 159.291 106.108 159.536 105.88C159.723 105.707 159.949 105.616 160.202 105.589C160.634 105.543 160.944 105.725 161.188 106.053C161.319 106.226 161.404 106.418 161.432 106.636C161.451 106.81 161.432 106.964 161.31 107.101C161.216 107.21 161.094 107.265 160.953 107.292C160.85 107.311 160.747 107.32 160.69 107.329H160.709Z" fill="#72A45C"/>
<path d="M159.686 105.443C159.498 105.443 159.32 105.443 159.151 105.388C159.019 105.343 158.897 105.279 158.803 105.17C158.55 104.905 158.597 104.532 158.907 104.331C159.254 104.113 159.724 104.122 160.033 104.532C160.146 104.678 160.221 104.832 160.231 105.015C160.231 105.197 160.146 105.334 159.968 105.388C159.94 105.397 159.902 105.406 159.874 105.416C159.808 105.425 159.742 105.434 159.695 105.443H159.686Z" fill="#72A45C"/>
<path d="M157.283 109.16C157.273 108.869 157.48 108.641 157.78 108.604C157.987 108.577 158.174 108.623 158.343 108.723C158.494 108.814 158.644 108.914 158.757 109.051C158.822 109.133 158.879 109.224 158.879 109.333C158.879 109.443 158.822 109.534 158.747 109.607C158.484 109.834 158.184 109.926 157.836 109.844C157.545 109.771 157.301 109.452 157.292 109.16H157.283Z" fill="#72A45C"/>
</g>
<defs>
<clipPath id="clip0_8130_5016">
<rect width="169" height="164" fill="white"/>
</clipPath>
</defs>
</svg>
