<svg width="120" height="96" viewBox="0 0 120 96" fill="none" xmlns="http://www.w3.org/2000/svg">
<g clip-path="url(#clip0_8117_5010)">
<path d="M91.2786 38.4048C91.3377 37.6025 91.3442 36.7936 91.3442 36.0044C91.3442 32.8408 91.3442 29.6772 91.3442 26.5136C91.3442 24.5959 91.3311 22.6129 90.5637 20.8517C89.6717 18.8101 87.7565 17.2446 85.5659 16.7749C83.9131 16.4227 82.2012 16.664 80.5091 16.638C78.8169 16.6119 76.9935 16.2466 75.8785 14.9877C73.9437 12.796 75.1374 9.39757 74.7176 6.50794C74.3503 4.00315 72.5795 1.74624 70.2248 0.780854C68.4474 0.0568156 66.4732 0.050293 64.558 0.050293C61.377 0.050293 58.196 0.0633385 55.015 0.0633385C53.1588 0.0633385 51.2371 0.0829077 49.5449 0.839561C47.0788 1.94193 45.4785 4.56412 45.262 7.25154C45.0456 9.93897 45.9376 13.0634 44.1142 15.0659C43.032 16.2531 41.3005 16.5988 39.6936 16.6184C38.0867 16.638 36.4601 16.3901 34.8729 16.6771C32.4854 17.1011 30.3604 18.797 29.4225 21.0278C28.6748 22.8086 28.6682 24.7915 28.6748 26.7223C28.6813 29.912 28.6879 33.0952 28.6945 36.2848C28.6945 38.9331 28.9175 41.3662 30.6555 43.473C32.1706 45.306 34.8073 45.7887 37.0635 45.8017C39.1164 45.8148 41.3267 45.4886 42.8287 44.0927C44.3307 42.6968 44.8029 40.5508 45.2751 38.5548C46.7902 32.1624 49.1907 25.8222 53.5261 20.8713C57.645 16.1683 63.7447 12.8808 69.9756 13.1352C70.5397 13.1613 70.9201 13.6374 70.8217 14.1919C70.6184 15.3595 70.2314 16.4684 69.8116 17.5838C69.6346 18.0534 69.6346 18.5818 69.851 19.0318C70.2511 19.8668 71.1824 20.2321 71.917 20.7213C72.8746 21.354 73.6879 22.1824 74.3307 23.1282C74.4946 23.3761 75.8785 25.6656 75.1636 25.6265C74.9603 25.6134 74.7504 25.6265 74.5537 25.6721C74.1601 25.7569 74.0617 26.2788 74.3897 26.5136L82.6079 32.4037C82.7653 32.5146 82.8374 32.7103 82.7915 32.893C82.2275 35.1238 80.5353 37.0024 78.4824 38.0786C76.3311 39.2006 73.8256 39.5137 71.4054 39.318C69.851 39.194 68.4409 39.7876 69.3132 41.5423C71.3005 45.5473 75.9966 45.8865 79.9516 45.9648C83.5196 46.0365 87.6582 45.8539 89.816 43.023C90.8195 41.7053 91.1737 40.0681 91.2983 38.3917L91.2786 38.4048Z" fill="white"/>
<path d="M52.7983 62.3504C53.7952 62.4352 54.8053 62.4286 55.8022 62.4221C58.9767 62.4026 62.1511 62.383 65.319 62.3634C67.1424 62.3504 69.0313 62.3243 70.6776 61.5611C72.7239 60.6153 74.1603 58.5541 74.5276 56.3363C74.8884 54.1185 74.2325 51.7964 72.9141 49.97C70.4808 46.6172 66.1389 45.0843 63.5613 41.8425C62.7086 40.7727 62.0528 39.4877 62.2561 38.0462C62.302 37.7265 62.4004 37.4134 62.5578 37.1264C63.5547 35.3131 65.706 35.587 67.4703 35.1239C69.2674 34.6543 70.9465 33.291 71.4647 31.458C71.7204 30.5448 71.2482 29.6577 70.6251 29.012C70.3037 28.6728 69.9299 28.3858 69.5298 28.1314C69.3462 28.0205 68.487 27.6487 68.933 27.3682C69.0772 27.2769 69.3002 27.4139 69.4511 27.4139C69.5954 27.4139 69.7331 27.4139 69.8774 27.4139C70.4743 27.4139 69.4445 25.9788 69.3134 25.7962C68.8215 25.1374 68.1984 24.5634 67.4966 24.1263C66.821 23.7089 66.0536 23.3958 65.542 22.7957C64.5845 21.6803 64.8271 20.1604 65.0173 18.7906C65.0764 18.3797 64.696 18.0275 64.2893 18.1383C60.6689 19.0776 57.5534 21.9216 55.5202 24.8699C50.6535 31.9342 47.689 40.1204 45.9378 48.4567C44.8818 53.4597 44.5014 60.3348 50.6798 61.9981C51.375 62.1873 52.0834 62.2917 52.7983 62.3504Z" fill="white"/>
<path d="M12.3302 70.8168L12.6778 75.0827H12.3302C11.976 74.0195 11.5169 73.2172 10.9594 72.6823C10.1526 71.9061 9.10978 71.5147 7.84393 71.5147C6.57808 71.5147 4.80064 72.1931 3.89552 73.5564C3.14126 74.7044 2.76085 76.0742 2.76085 77.6592C2.76085 79.2443 3.01008 80.1249 3.51511 81.1881C4.01358 82.2513 4.66946 83.0276 5.48276 83.5233C6.29605 84.0191 7.12902 84.2669 7.98166 84.2669C8.83431 84.2669 8.96549 84.2017 9.43116 84.0778C9.89684 83.9538 10.3494 83.7647 10.7823 83.5168V79.6096C10.7823 78.9312 10.7298 78.4877 10.6249 78.2789C10.5199 78.0702 10.3625 77.9071 10.1461 77.8027C9.92963 77.6919 9.54922 77.6397 8.99828 77.6397V77.2614H14.2584V77.6397H14.0092C13.4911 77.6397 13.1303 77.8093 12.9401 78.155C12.8089 78.4029 12.7368 78.8856 12.7368 79.6096V83.7451C11.9694 84.156 11.2086 84.4561 10.4609 84.6518C9.71319 84.8475 8.88022 84.9388 7.96855 84.9388C5.34502 84.9388 3.35114 84.1038 1.98691 82.4275C0.963736 81.1751 0.452148 79.727 0.452148 78.0832C0.452148 76.4395 0.740736 75.7546 1.31135 74.6652C1.99347 73.3672 2.92482 72.3757 4.11852 71.6778C5.11546 71.0972 6.28949 70.8102 7.64716 70.8102C9.00484 70.8102 8.59163 70.8494 8.99172 70.9276C9.39837 71.0059 9.96898 71.182 10.7101 71.456C11.084 71.593 11.3332 71.6647 11.4644 71.6647C11.5956 71.6647 11.7005 71.606 11.7923 71.4886C11.8842 71.3712 11.9366 71.1429 11.9563 70.8037H12.3302V70.8168Z" fill="white"/>
<path d="M24.0506 71.4952V71.1299H28.8583V71.4952H28.3467C27.8088 71.4952 27.4022 71.7169 27.1136 72.1605C26.9759 72.3692 26.9037 72.8454 26.9037 73.5955V79.0747C26.9037 80.4315 26.766 81.4817 26.4971 82.2253C26.2282 82.9754 25.6969 83.6147 24.9033 84.1495C24.1097 84.6844 23.034 84.9519 21.6698 84.9519C20.3056 84.9519 19.0594 84.6975 18.292 84.1821C17.5246 83.6734 16.9802 82.9819 16.6589 82.1209C16.4424 81.5273 16.3375 80.4185 16.3375 78.7943V73.5173C16.3375 72.6888 16.2194 72.1409 15.9899 71.8865C15.7603 71.6256 15.3865 71.4952 14.8749 71.4952H14.3633V71.1299H20.2334V71.4952H19.7153C19.1512 71.4952 18.7511 71.6713 18.515 72.0235C18.351 72.2649 18.2658 72.7606 18.2658 73.5173V79.4074C18.2658 79.9292 18.3117 80.5359 18.4101 81.2077C18.5085 81.8861 18.679 82.4144 18.9348 82.7928C19.1906 83.1711 19.5513 83.4842 20.0301 83.7321C20.5089 83.9799 21.0926 84.0973 21.7879 84.0973C22.4831 84.0973 23.4735 83.9082 24.1687 83.5168C24.8705 83.132 25.3493 82.6362 25.6051 82.0361C25.8609 81.436 25.9921 80.4185 25.9921 78.9834V73.5173C25.9921 72.6758 25.9002 72.1474 25.71 71.9322C25.4477 71.6387 25.0607 71.4952 24.5491 71.4952H24.0375H24.0506Z" fill="white"/>
<path d="M38.1787 80.112H32.9186L32.0003 82.245C31.7708 82.7668 31.6593 83.1647 31.6593 83.4191C31.6593 83.6735 31.7576 83.8039 31.9544 83.9605C32.1512 84.117 32.5775 84.2149 33.2334 84.2671V84.6389H28.957V84.2671C29.5276 84.1692 29.8949 84.0388 30.0589 83.8757C30.4 83.5561 30.7738 82.9103 31.1936 81.9319L35.9684 70.8169H36.316L41.0449 82.0558C41.4253 82.956 41.7729 83.543 42.0812 83.817C42.3895 84.0844 42.8224 84.2344 43.3799 84.2736V84.6454H38.0213V84.2736C38.5591 84.2475 38.9264 84.1562 39.1166 84.0061C39.3068 83.8561 39.4052 83.667 39.4052 83.4452C39.4052 83.2234 39.274 82.6885 39.0051 82.0623L38.1853 80.1185L38.1787 80.112ZM37.8967 79.3684L35.5945 73.9087L33.2334 79.3684H37.9033H37.8967Z" fill="white"/>
<path d="M55.2382 71.1232V71.4885C54.7595 71.5733 54.3922 71.7299 54.1495 71.9451C53.7953 72.2713 53.4805 72.767 53.205 73.4388L48.4695 84.9322H48.1023L43.0126 73.2888C42.7503 72.6887 42.5666 72.3234 42.4617 72.193C42.2977 71.9842 42.0878 71.8277 41.8451 71.7103C41.6025 71.5929 41.2745 71.5211 40.8613 71.4885V71.1232H46.4101V71.4885C45.7804 71.5472 45.3738 71.6516 45.1901 71.8081C44.9999 71.9582 44.9081 72.1538 44.9081 72.3952C44.9081 72.6365 45.059 73.2432 45.3672 73.9476L48.8237 81.8664L52.031 74.0455C52.3458 73.2758 52.5032 72.7409 52.5032 72.4408C52.5032 72.1408 52.4048 72.0625 52.2146 71.8864C52.0179 71.7103 51.6965 71.5864 51.2308 71.5146C51.198 71.5081 51.139 71.495 51.0603 71.482V71.1167H55.2448L55.2382 71.1232Z" fill="white"/>
<path d="M59.4881 71.8603V77.2025H62.4724C63.2463 77.2025 63.7645 77.0851 64.0268 76.8568C64.3745 76.5502 64.5647 76.0153 64.6106 75.2456H64.9844V79.9486H64.6106C64.5187 79.2898 64.4204 78.8724 64.3285 78.6832C64.2105 78.4484 64.0137 78.2657 63.7382 78.1353C63.4628 78.0048 63.043 77.9331 62.479 77.9331H59.4947V82.3882C59.4947 82.9883 59.5209 83.347 59.5734 83.4775C59.6259 83.608 59.7177 83.7123 59.8554 83.7841C59.9866 83.8624 60.2424 83.9015 60.6163 83.9015H62.9184C63.6858 83.9015 64.2433 83.8493 64.5909 83.7449C64.9385 83.6406 65.273 83.4318 65.5944 83.1187C66.0076 82.7078 66.4339 82.0881 66.8668 81.2532H67.2669L66.0929 84.6386H55.625V84.2668H56.1038C56.4252 84.2668 56.7269 84.1885 57.0155 84.0385C57.2319 83.9341 57.3762 83.771 57.4484 83.5623C57.5271 83.347 57.5664 82.9165 57.5664 82.2577V73.4845C57.5664 72.63 57.4811 72.1016 57.3041 71.8994C57.0614 71.632 56.6613 71.5015 56.1038 71.5015H55.625V71.1362H66.0929L66.2437 74.0976H65.8502C65.7125 73.3866 65.555 72.8974 65.3845 72.6365C65.214 72.3691 64.9647 72.1668 64.6302 72.0299C64.3613 71.932 63.8957 71.8798 63.2201 71.8798H59.4947L59.4881 71.8603Z" fill="white"/>
<path d="M79.3157 71.1232L79.4666 74.2933H79.0862C79.014 73.7324 78.9156 73.3345 78.7845 73.0997C78.5746 72.7148 78.2991 72.4278 77.9581 72.2452C77.617 72.0625 77.1645 71.9712 76.6004 71.9712H74.6852V82.2904C74.6852 83.1188 74.777 83.6406 74.9541 83.8428C75.2099 84.1233 75.5969 84.2603 76.1282 84.2603H76.6004V84.6321H70.8418V84.2603H71.3206C71.8977 84.2603 72.3044 84.0907 72.5405 83.745C72.6848 83.5297 72.7635 83.047 72.7635 82.2904V71.9712H71.1303C70.4941 71.9712 70.0481 72.0169 69.7792 72.1082C69.4316 72.2321 69.1365 72.4735 68.8872 72.8322C68.638 73.191 68.4937 73.6737 68.4478 74.2868H68.0674L68.2248 71.1167H79.3157V71.1232Z" fill="white"/>
<path d="M88.3661 78.3052V82.2385C88.3661 83.0865 88.4579 83.6148 88.6481 83.8236C88.9039 84.1171 89.2843 84.2606 89.8024 84.2606H90.3206V84.6324H84.5029V84.2606H85.0145C85.5917 84.2606 85.9983 84.0714 86.2476 83.6996C86.3787 83.4909 86.4509 83.0082 86.4509 82.2385V73.5109C86.4509 72.6629 86.3591 72.1346 86.182 71.9258C85.9196 71.6323 85.5327 71.4888 85.0211 71.4888H84.5095V71.1235H89.4876C90.701 71.1235 91.6586 71.2475 92.3604 71.4953C93.0622 71.7432 93.6525 72.1672 94.1313 72.7543C94.6101 73.3478 94.8527 74.0458 94.8527 74.8546C94.8527 75.6635 94.4854 76.8506 93.7574 77.542C93.0294 78.2335 91.9931 78.5792 90.6551 78.5792C89.3171 78.5792 89.973 78.5531 89.5926 78.5074C89.2122 78.4618 88.8055 78.39 88.3726 78.2987L88.3661 78.3052ZM88.3661 77.7377C88.7202 77.8029 89.0351 77.8551 89.3105 77.8877C89.586 77.9204 89.8156 77.9399 90.0123 77.9399C90.7076 77.9399 91.3044 77.6725 91.8094 77.1376C92.3145 76.6027 92.5637 75.9113 92.5637 75.0633C92.5637 74.2154 92.4457 73.9349 92.203 73.4326C91.9603 72.9304 91.6192 72.5586 91.1798 72.3042C90.7404 72.0563 90.2353 71.9324 89.6778 71.9324C89.1203 71.9324 88.8973 71.9976 88.3661 72.1215V77.7377Z" fill="white"/>
<path d="M99.5692 71.8603V77.2025H102.553C103.327 77.2025 103.846 77.0851 104.108 76.8568C104.456 76.5502 104.646 76.0153 104.692 75.2456H105.065V79.9486H104.692C104.6 79.2898 104.501 78.8724 104.41 78.6832C104.292 78.4484 104.095 78.2657 103.819 78.1353C103.544 78.0048 103.124 77.9331 102.56 77.9331H99.5758V82.3882C99.5758 82.9883 99.602 83.347 99.6545 83.4775C99.7069 83.608 99.7988 83.7123 99.9365 83.7841C100.068 83.8624 100.323 83.9015 100.697 83.9015H102.999C103.767 83.9015 104.324 83.8493 104.672 83.7449C105.02 83.6406 105.354 83.4318 105.675 83.1187C106.089 82.7078 106.515 82.0881 106.948 81.2532H107.348L106.174 84.6386H95.7061V84.2668H96.1849C96.5062 84.2668 96.8079 84.1885 97.0965 84.0385C97.313 83.9341 97.4573 83.771 97.5294 83.5623C97.6081 83.347 97.6475 82.9165 97.6475 82.2577V73.4845C97.6475 72.63 97.5622 72.1016 97.3851 71.8994C97.1424 71.632 96.7424 71.5015 96.1849 71.5015H95.7061V71.1362H106.174L106.325 74.0976H105.931C105.794 73.3866 105.636 72.8974 105.466 72.6365C105.295 72.3691 105.046 72.1668 104.711 72.0299C104.442 71.932 103.977 71.8798 103.301 71.8798H99.5758L99.5692 71.8603Z" fill="white"/>
<path d="M119.39 71.1232L119.541 74.2933H119.16C119.088 73.7324 118.99 73.3345 118.859 73.0997C118.649 72.7148 118.373 72.4278 118.032 72.2452C117.691 72.0625 117.239 71.9712 116.675 71.9712H114.759V82.2904C114.759 83.1188 114.851 83.6406 115.028 83.8428C115.284 84.1233 115.671 84.2603 116.202 84.2603H116.675V84.6321H110.916V84.2603H111.395C111.972 84.2603 112.379 84.0907 112.615 83.745C112.759 83.5297 112.838 83.047 112.838 82.2904V71.9712H111.205C110.568 71.9712 110.122 72.0169 109.853 72.1082C109.506 72.2321 109.211 72.4735 108.961 72.8322C108.712 73.191 108.568 73.6737 108.522 74.2868H108.142L108.299 71.1167H119.39V71.1232Z" fill="white"/>
<path d="M16.3311 92.7662V88.8721H16.8492V90.4702H18.8824V88.8721H19.4006V92.7662H18.8824V90.9333H16.8492V92.7662H16.3311Z" fill="white"/>
<path d="M20.778 90.868C20.778 90.2223 20.9551 89.7135 21.3027 89.3482C21.6504 88.9829 22.1029 88.8003 22.6539 88.8003C23.2048 88.8003 23.3425 88.8851 23.6311 89.0547C23.9197 89.2243 24.1427 89.4656 24.2936 89.7722C24.4444 90.0788 24.5231 90.4245 24.5231 90.8159C24.5231 91.2072 24.4444 91.566 24.2804 91.8726C24.123 92.1857 23.8935 92.4205 23.5983 92.577C23.3032 92.7401 22.9884 92.8184 22.6473 92.8184C22.3062 92.8184 21.9521 92.7271 21.6569 92.5509C21.3683 92.3748 21.1453 92.1335 20.9945 91.8269C20.8436 91.5203 20.7715 91.1942 20.7715 90.855L20.778 90.868ZM21.3093 90.8746C21.3093 91.3442 21.4339 91.716 21.6897 91.9834C21.9455 92.2509 22.2603 92.3879 22.6473 92.3879C23.0343 92.3879 23.3557 92.2509 23.6114 91.9769C23.8607 91.703 23.9919 91.3181 23.9919 90.8159C23.9919 90.3136 23.9394 90.2223 23.8279 89.9875C23.7229 89.7526 23.5655 89.57 23.3557 89.4395C23.1458 89.3091 22.9162 89.2438 22.6604 89.2438C22.2931 89.2438 21.9783 89.3678 21.716 89.6222C21.4536 89.8766 21.3224 90.294 21.3224 90.8746H21.3093Z" fill="white"/>
<path d="M25.6836 91.5141L26.1689 91.4685C26.1952 91.6641 26.2477 91.8207 26.3329 91.9446C26.4182 92.0686 26.5494 92.1729 26.7264 92.2447C26.9035 92.323 27.1069 92.3621 27.3299 92.3621C27.5529 92.3621 27.7037 92.336 27.8546 92.2773C28.0054 92.2186 28.1169 92.1403 28.1891 92.036C28.2612 91.9316 28.3006 91.8207 28.3006 91.7033C28.3006 91.5859 28.2678 91.475 28.1956 91.3837C28.1235 91.2923 28.0054 91.2141 27.8414 91.1554C27.7365 91.1162 27.5069 91.051 27.1462 90.9662C26.7855 90.8814 26.5362 90.7966 26.3919 90.7249C26.2083 90.627 26.064 90.5096 25.9722 90.3596C25.8804 90.2161 25.8344 90.053 25.8344 89.8769C25.8344 89.7008 25.8935 89.4986 26.005 89.329C26.1165 89.1594 26.2804 89.0289 26.4969 88.9376C26.7133 88.8463 26.9494 88.8071 27.2118 88.8071C27.4741 88.8071 27.7562 88.8528 27.9792 88.9441C28.2022 89.0354 28.3727 89.1724 28.4908 89.3551C28.6088 89.5377 28.6744 89.7399 28.681 89.9682L28.1825 90.0073C28.1563 89.7595 28.0644 89.5768 27.9136 89.4529C27.7627 89.329 27.5332 89.2637 27.2315 89.2637C26.9298 89.2637 26.6871 89.3224 26.5494 89.4333C26.4051 89.5507 26.3329 89.6877 26.3329 89.8443C26.3329 90.0008 26.3854 90.0987 26.4838 90.19C26.5821 90.2813 26.8445 90.3726 27.2643 90.4705C27.684 90.5683 27.9726 90.6466 28.13 90.7183C28.3596 90.8227 28.5236 90.9532 28.6351 91.1162C28.7466 91.2793 28.799 91.4619 28.799 91.6707C28.799 91.8794 28.74 92.0751 28.6219 92.2577C28.5039 92.4404 28.3334 92.5839 28.1104 92.6882C27.8874 92.7926 27.6381 92.8383 27.3561 92.8383C27.0741 92.8383 26.7068 92.7861 26.4641 92.6817C26.2214 92.5774 26.0378 92.4273 25.9 92.2186C25.7623 92.0099 25.6902 91.7816 25.6836 91.5206V91.5141Z" fill="white"/>
<path d="M30.1768 92.7662V88.8721H31.6525C31.9148 88.8721 32.1116 88.8851 32.2493 88.9112C32.4395 88.9438 32.6035 89.0025 32.7347 89.0938C32.8659 89.1852 32.9708 89.3091 33.0495 89.4722C33.1282 89.6352 33.1676 89.8114 33.1676 90.0005C33.1676 90.3332 33.0626 90.6137 32.8528 90.842C32.6429 91.0703 32.2559 91.1877 31.705 91.1877H30.7015V92.7727H30.1833L30.1768 92.7662ZM30.6949 90.7246H31.705C32.0395 90.7246 32.2756 90.6659 32.4199 90.5419C32.5576 90.418 32.6298 90.2419 32.6298 90.0201C32.6298 89.7983 32.5904 89.72 32.5051 89.6026C32.4199 89.4852 32.3149 89.4069 32.1772 89.3743C32.0919 89.3482 31.928 89.3417 31.6918 89.3417H30.6883V90.7311L30.6949 90.7246Z" fill="white"/>
<path d="M34.584 92.7662V88.8721H35.1021V92.7662H34.584Z" fill="white"/>
<path d="M37.6866 92.7665V89.3355H36.3945V88.8789H39.4968V89.3355H38.2048V92.7665H37.6866Z" fill="white"/>
<path d="M39.864 92.7662L41.3659 88.8721H41.9234L43.5238 92.7662H42.9335L42.4744 91.5856H40.8412L40.4084 92.7662H39.8574H39.864ZM40.9921 91.1681H42.317L41.9103 90.0918C41.7857 89.7657 41.6939 89.4983 41.6349 89.283C41.5824 89.5309 41.5168 89.7787 41.425 90.0266L40.9921 91.1681Z" fill="white"/>
<path d="M44.5928 92.7662V88.8721H45.1109V92.3031H47.0392V92.7597H44.5928V92.7662Z" fill="white"/>
<path d="M51.434 92.7662L49.9189 88.8721H50.4764L51.4931 91.6965C51.5718 91.9248 51.6439 92.1335 51.6964 92.3357C51.7554 92.1205 51.8276 91.9117 51.9063 91.6965L52.9622 88.8721H53.4935L51.9587 92.7662H51.4275H51.434Z" fill="white"/>
<path d="M54.6475 92.7662V88.8721H57.4743V89.3287H55.1656V90.5224H57.33V90.979H55.1656V92.3031H57.5661V92.7597H54.6475V92.7662Z" fill="white"/>
<path d="M59.9474 92.7665V89.3355H58.6553V88.8789H61.7576V89.3355H60.4655V92.7665H59.9474Z" fill="white"/>
<path d="M62.9775 92.7662V88.8721H65.8044V89.3287H63.4957V90.5224H65.6601V90.979H63.4957V92.3031H65.8962V92.7597H62.9775V92.7662Z" fill="white"/>
<path d="M67.293 92.7662V88.8721H69.0311C69.3787 88.8721 69.6476 88.9047 69.8247 88.9764C70.0083 89.0482 70.1526 89.1721 70.2575 89.3482C70.3625 89.5244 70.4215 89.72 70.4215 89.9353C70.4215 90.1505 70.3297 90.4441 70.1526 90.6332C69.9755 90.8224 69.6935 90.9398 69.3196 90.992C69.4574 91.0572 69.5623 91.1225 69.6345 91.1877C69.7853 91.3247 69.9296 91.5008 70.0673 91.703L70.7495 92.7597H70.1001L69.582 91.9509C69.4311 91.716 69.3065 91.5399 69.2081 91.416C69.1098 91.2921 69.0245 91.2073 68.9458 91.1551C68.8671 91.1029 68.7884 91.0703 68.7097 91.0507C68.6506 91.0377 68.5523 91.0311 68.4211 91.0311H67.8177V92.7597H67.2995L67.293 92.7662ZM67.8111 90.5876H68.9261C69.1622 90.5876 69.3459 90.5615 69.4836 90.5158C69.6148 90.4702 69.7197 90.3919 69.7853 90.281C69.8575 90.1766 69.8903 90.0592 69.8903 89.9288C69.8903 89.7461 69.8247 89.5961 69.6869 89.4722C69.5558 89.3548 69.3393 89.2961 69.0507 89.2961H67.8111V90.5811V90.5876Z" fill="white"/>
<path d="M71.9961 92.7662V88.8721H72.5142V92.7662H71.9961Z" fill="white"/>
<path d="M74.0947 92.7662V88.8721H74.626L76.6789 91.9248V88.8721H77.1774V92.7662H76.6461L74.5932 89.707V92.7662H74.0947Z" fill="white"/>
<path d="M78.2859 92.7663L79.7878 88.8722H80.3453L81.9457 92.7663H81.3554L80.8963 91.5857H79.2631L78.8302 92.7663H78.2793H78.2859ZM79.414 91.1682H80.7388L80.3322 90.0919C80.2076 89.7658 80.1158 89.4984 80.0567 89.2831C80.0043 89.531 79.9387 89.7788 79.8469 90.0267L79.414 91.1682ZM79.7419 88.6308L80.0961 87.8872H80.7257L80.1354 88.6308H79.7353H79.7419Z" fill="white"/>
<path d="M83.0469 92.7662V88.8721H84.785C85.1326 88.8721 85.4015 88.9047 85.5786 88.9764C85.7557 89.0482 85.9065 89.1721 86.0115 89.3482C86.123 89.5244 86.1754 89.72 86.1754 89.9353C86.1754 90.1505 86.0836 90.4441 85.9065 90.6332C85.7294 90.8224 85.4474 90.9398 85.0735 90.992C85.2113 91.0572 85.3162 91.1225 85.3884 91.1877C85.5392 91.3247 85.6835 91.5008 85.8213 91.703L86.5034 92.7597H85.854L85.3359 91.9509C85.185 91.716 85.0604 91.5399 84.9621 91.416C84.8637 91.2921 84.7784 91.2073 84.6997 91.1551C84.621 91.1029 84.5423 91.0703 84.4636 91.0507C84.4046 91.0377 84.3062 91.0311 84.175 91.0311H83.5716V92.7597H83.0534L83.0469 92.7662ZM83.565 90.5876H84.68C84.9161 90.5876 85.0998 90.5615 85.2375 90.5158C85.3687 90.4702 85.4736 90.3919 85.5392 90.281C85.6114 90.1766 85.6442 90.0592 85.6442 89.9288C85.6442 89.7461 85.5786 89.5961 85.4408 89.4722C85.3097 89.3548 85.0932 89.2961 84.8046 89.2961H83.565V90.5811V90.5876Z" fill="white"/>
<path d="M87.7432 92.7662V88.8721H88.2613V92.7662H87.7432Z" fill="white"/>
<path d="M89.6911 90.868C89.6911 90.2223 89.8682 89.7135 90.2158 89.3482C90.5635 88.9829 91.016 88.8003 91.5669 88.8003C92.1179 88.8003 92.2556 88.8851 92.5442 89.0547C92.8328 89.2243 93.0558 89.4656 93.2067 89.7722C93.3575 90.0788 93.4362 90.4245 93.4362 90.8159C93.4362 91.2072 93.3575 91.566 93.1935 91.8726C93.0361 92.1857 92.8066 92.4205 92.5114 92.577C92.2163 92.7401 91.9014 92.8184 91.5604 92.8184C91.2193 92.8184 90.8652 92.7271 90.57 92.5509C90.2749 92.3748 90.0584 92.1335 89.9076 91.8269C89.7567 91.5203 89.6846 91.1942 89.6846 90.855L89.6911 90.868ZM90.2224 90.8746C90.2224 91.3442 90.347 91.716 90.6028 91.9834C90.8586 92.2509 91.1734 92.3879 91.5604 92.3879C91.9474 92.3879 92.2687 92.2509 92.5245 91.9769C92.7738 91.703 92.9049 91.3181 92.9049 90.8159C92.9049 90.3136 92.8525 90.2223 92.741 89.9875C92.636 89.7526 92.4786 89.57 92.2687 89.4395C92.0589 89.3091 91.8293 89.2438 91.5735 89.2438C91.2062 89.2438 90.8914 89.3678 90.629 89.6222C90.3667 89.87 90.2355 90.294 90.2355 90.8746H90.2224Z" fill="white"/>
<path d="M100.337 92.7662H98.3301V92.714C98.9466 91.9835 99.3205 91.4942 99.4516 91.2464C99.5828 90.992 99.6484 90.7506 99.6484 90.5093C99.6484 90.2679 99.5959 90.1897 99.4844 90.0723C99.3729 89.9549 99.2418 89.8961 99.0843 89.8961C98.8285 89.8961 98.6252 90.0266 98.4809 90.281L98.3891 90.2484C98.4809 89.9288 98.6187 89.6939 98.8023 89.5374C98.986 89.3808 99.2024 89.3091 99.4385 89.3091C99.6746 89.3091 99.7665 89.3482 99.9108 89.4265C100.055 89.5048 100.167 89.6157 100.245 89.7526C100.324 89.8896 100.363 90.0201 100.363 90.144C100.363 90.3658 100.304 90.5941 100.18 90.8224C100.009 91.129 99.6418 91.5595 99.0712 92.1139H99.8058C99.9895 92.1139 100.108 92.1074 100.16 92.0944C100.212 92.0813 100.258 92.0552 100.298 92.0161C100.331 91.9835 100.376 91.9052 100.435 91.7878H100.527L100.337 92.7662Z" fill="white"/>
<path d="M100.907 91.4879L102.527 89.3027H102.836V91.4879H103.15V92.0032H102.836V92.7664H102.147V92.0032H100.914V91.4879H100.907ZM101.15 91.4879H102.14V90.1507L101.15 91.4879Z" fill="white"/>
<path d="M104.488 89.3747V90.7249C104.619 90.5879 104.737 90.4966 104.842 90.4379C104.947 90.3792 105.059 90.3531 105.177 90.3531C105.295 90.3531 105.452 90.3923 105.557 90.4771C105.662 90.5618 105.734 90.6597 105.767 90.7706C105.8 90.8815 105.82 91.0706 105.82 91.3381V92.2513C105.82 92.4274 105.839 92.5383 105.872 92.5839C105.905 92.6296 105.97 92.6557 106.075 92.6687V92.7601H104.882V92.6687C104.967 92.6557 105.026 92.6231 105.072 92.5709C105.105 92.5252 105.118 92.4209 105.118 92.2513V91.2076C105.118 91.0119 105.111 90.8945 105.098 90.8423C105.085 90.7901 105.059 90.7575 105.019 90.7249C104.98 90.6988 104.941 90.6858 104.895 90.6858C104.829 90.6858 104.764 90.7119 104.698 90.7575C104.632 90.8032 104.567 90.8815 104.495 90.9989V92.2513C104.495 92.4209 104.508 92.5252 104.534 92.5644C104.567 92.6231 104.632 92.6557 104.731 92.6687V92.7601H103.537V92.6687C103.635 92.6557 103.708 92.6296 103.747 92.5709C103.773 92.5318 103.793 92.4274 103.793 92.2513V89.877C103.793 89.7008 103.78 89.5899 103.747 89.5443C103.714 89.4986 103.649 89.4725 103.544 89.4595V89.3682H104.501L104.488 89.3747Z" fill="white"/>
<path d="M105.223 93.2428L105.288 93.3015C105.334 93.3407 105.367 93.3928 105.387 93.4515C105.4 93.4907 105.4 93.5298 105.387 93.5624C105.374 93.6016 105.321 93.6733 105.236 93.7646C104.206 94.9192 102.652 95.5845 100.973 95.5845C98.0081 95.5845 95.5944 93.4972 95.5944 90.9337C95.5944 88.3702 98.0081 86.2829 100.973 86.2829C103.937 86.2829 104.528 87.0983 105.524 88.4615C105.616 88.5724 105.669 88.6572 105.669 88.7029C105.669 88.7812 105.636 88.8529 105.557 88.9181L105.485 88.9768L105.531 89.029L106.364 88.3376L106.318 88.2854L106.252 88.3441C106.207 88.3833 106.154 88.4094 106.095 88.4224C106.049 88.4289 106.016 88.4224 105.984 88.4094C105.944 88.3898 105.885 88.3311 105.806 88.2332C104.744 86.7917 102.94 85.9307 100.979 85.9307C97.8178 85.9307 95.2402 88.1745 95.2402 90.9402C95.2402 93.7059 97.8113 95.9498 100.979 95.9498C104.147 95.9498 104.423 95.2388 105.518 94.006C105.616 93.9016 105.688 93.8429 105.741 93.8299C105.82 93.8168 105.892 93.8429 105.97 93.9147L106.036 93.9734L106.082 93.9212L105.275 93.1971L105.229 93.2493L105.223 93.2428Z" fill="white"/>
</g>
<defs>
<clipPath id="clip0_8117_5010">
<rect width="120" height="96" fill="white"/>
</clipPath>
</defs>
</svg>
