<svg width="48" height="47" viewBox="0 0 48 47" fill="none" xmlns="http://www.w3.org/2000/svg">
<path d="M39.7245 34.6623C39.4756 34.6623 39.2222 34.6623 38.9733 34.6537C35.7467 34.5887 32.1733 34.2637 30.6133 31.1697C30.2222 30.394 30.3778 29.8913 30.5778 29.6053C30.9156 29.12 31.6445 28.8817 32.5867 28.9553C34.5156 29.107 36.28 28.808 37.6889 28.0843C39.2 27.3087 40.3289 25.9913 40.7156 24.557L34.56 20.2323C34.3156 20.059 34.1956 19.76 34.2578 19.4697C34.32 19.1793 34.5422 18.9627 34.8356 18.902C34.9156 18.8847 34.9911 18.8717 35.0711 18.8673C34.9333 18.499 34.5822 17.875 34.4178 17.6367C33.9511 16.9693 33.3645 16.393 32.7156 15.9683C32.5956 15.8903 32.4667 15.8167 32.3333 15.7387C31.8489 15.4613 31.3022 15.145 31.0178 14.56C30.8178 14.1483 30.8 13.6457 30.9778 13.182C31.2845 12.3717 31.5689 11.5787 31.7156 10.751C31.7289 10.6643 31.7156 10.5863 31.6622 10.5257C31.6178 10.4693 31.5467 10.439 31.4622 10.4347C27.1778 10.2613 22.68 12.3457 19.4133 16.003C16.64 19.11 14.64 23.322 13.2978 28.8773L13.2622 29.0203C12.9156 30.4547 12.5245 32.0797 11.3378 33.1587C10.3289 34.0773 8.84445 34.5237 6.79556 34.5237H6.72001C5.08445 34.515 2.86667 34.1857 1.58667 32.6603C0.146674 30.953 0.0222292 28.9813 0.0177848 27.1093L7.25693e-06 20.059C7.25693e-06 18.6767 -0.00888193 17.1123 0.595563 15.7083C1.34667 13.9533 3.07556 12.6013 5.00001 12.2633C5.84001 12.116 6.68445 12.1507 7.50223 12.1853C7.89334 12.2027 8.29779 12.22 8.6889 12.2157C10.0889 12.2027 11.1067 11.8603 11.7156 11.2017C12.5778 10.2743 12.5245 8.92667 12.4711 7.501C12.4489 6.89867 12.4267 6.27467 12.4711 5.67667C12.6533 3.445 14.0133 1.46034 15.9333 0.619668C17.3067 0.0173351 18.8533 0.0130018 20.2178 0.0130018L27.3956 9.65142e-07C28.8 9.65142e-07 30.3867 -0.00433211 31.8133 0.567668C33.7245 1.33033 35.1467 3.11134 35.4445 5.10034C35.56 5.863 35.5245 6.66033 35.4889 7.436C35.4267 8.85734 35.3689 10.205 36.2222 11.1497C36.8533 11.8473 37.9245 12.2113 39.4045 12.233C39.7822 12.2373 40.1778 12.2243 40.56 12.2113C41.4533 12.181 42.3778 12.1507 43.2845 12.3413C45.0578 12.714 46.6089 13.9533 47.3289 15.5783C47.9511 16.9737 47.9511 18.5337 47.9511 19.9117V26.91C47.9511 27.4517 47.9511 28.0843 47.9067 28.7083C47.8311 29.7007 47.6267 31.1567 46.7111 32.3353C45.1822 34.307 42.4933 34.671 39.7111 34.671L39.7245 34.6623ZM32.2578 29.7353C31.7689 29.7353 31.3867 29.8523 31.2489 30.0473C31.1067 30.251 31.2222 30.576 31.3422 30.8143C32.7022 33.5097 35.8667 33.7957 38.9911 33.8563C41.8133 33.9127 44.6267 33.709 46.0756 31.8457C46.6756 31.0743 47 30.056 47.1067 28.6433C47.1511 28.0497 47.1556 27.4343 47.1556 26.9013V19.903C47.1556 18.603 47.1556 17.1297 46.5956 15.886C45.9778 14.495 44.6445 13.4333 43.1245 13.1127C42.3156 12.9437 41.48 12.9697 40.6 13C40.2089 13.013 39.8045 13.026 39.4045 13.0217C37.6845 13 36.4089 12.545 35.6222 11.6697C34.5556 10.4867 34.6222 8.918 34.6889 7.40134C34.72 6.66467 34.7556 5.90634 34.6533 5.213C34.3956 3.497 33.1689 1.95867 31.52 1.3C30.24 0.788668 28.7289 0.788669 27.4133 0.793002L20.2356 0.806001C18.9556 0.806001 17.5022 0.810334 16.2845 1.34333C14.6311 2.067 13.4578 3.796 13.2978 5.73733C13.2533 6.28767 13.2756 6.89 13.2978 7.47067C13.3556 8.99167 13.4133 10.569 12.3289 11.7347C11.56 12.5623 10.3378 12.9913 8.70668 13.0087C8.29779 13.0087 7.88001 12.9957 7.47556 12.9783C6.66667 12.9437 5.90223 12.9133 5.15112 13.0433C3.49334 13.3337 2.00445 14.4993 1.35556 16.0117C0.817785 17.2683 0.82223 18.7503 0.82223 20.0547L0.840007 27.105C0.844451 29.2673 1.07112 30.7883 2.22223 32.1533C3.30223 33.436 5.27112 33.7177 6.73334 33.7263C6.75556 33.7263 6.78223 33.7263 6.80445 33.7263C8.63112 33.7263 9.93779 33.3493 10.7867 32.5737C11.7911 31.6593 12.1378 30.2207 12.4711 28.834L12.5067 28.691C13.88 23.0057 15.9378 18.6853 18.8 15.4787C22.2267 11.6393 26.9689 9.464 31.4978 9.63733C31.8133 9.65033 32.1067 9.789 32.2978 10.023C32.4933 10.257 32.5733 10.5733 32.52 10.881C32.36 11.7737 32.0622 12.6057 31.7422 13.4507C31.6445 13.715 31.6489 13.9923 31.7556 14.209C31.9333 14.573 32.3289 14.8027 32.7511 15.0453C32.8933 15.1277 33.0356 15.21 33.1689 15.2967C33.9156 15.782 34.5645 16.4147 35.0933 17.1817C35.2089 17.3463 36.2 18.8067 35.8667 19.383C35.7645 19.5563 35.5689 19.6473 35.36 19.643C35.2845 19.643 35.2133 19.643 35.1378 19.6517L41.2178 23.9287C41.4711 24.1063 41.5867 24.4183 41.5156 24.7087C41.0845 26.377 39.7956 27.9023 38.0667 28.7863C36.52 29.5793 34.6045 29.9087 32.52 29.7483C32.4311 29.7397 32.3422 29.7397 32.2578 29.7397V29.7353Z" fill="#24341D"/>
<path d="M20.2399 46.7871C19.6799 46.7871 19.1066 46.7785 18.5333 46.7308C17.9155 46.6788 17.3733 46.5878 16.871 46.4578C13.0355 45.4481 11.7377 41.9338 13.0088 36.0101C14.4844 29.1461 16.9288 23.2441 20.2799 18.4731C22.1199 15.8558 24.6088 13.9881 27.1066 13.3511C27.3821 13.2818 27.6666 13.3511 27.8799 13.5331C28.0933 13.7195 28.1999 13.9968 28.1599 14.2741L28.1466 14.3565C28.0133 15.2881 27.8799 16.2501 28.4577 16.9175C28.6933 17.1905 29.0355 17.3768 29.3999 17.5761C29.5466 17.6541 29.6933 17.7365 29.8355 17.8231C30.4088 18.1698 30.9066 18.6205 31.311 19.1535C32.1377 20.2325 31.9555 20.5835 31.8933 20.7005C31.8355 20.8131 31.7377 20.8955 31.6177 20.9431C31.8577 21.1078 32.071 21.2898 32.2621 21.4848C32.9377 22.1738 33.1999 22.9495 32.991 23.6731C32.591 25.0728 31.2977 26.2428 29.7021 26.6545C29.3333 26.7498 28.951 26.8061 28.5777 26.8581C27.5777 27.0011 26.7155 27.1225 26.2533 27.9371C26.1599 28.1018 26.1021 28.2838 26.071 28.4788C25.9555 29.2718 26.2488 30.0908 26.9688 30.9748C27.871 32.0841 29.1066 32.9378 30.3066 33.7698C31.6444 34.6928 33.0266 35.6505 34.0177 36.9851C35.1155 38.4715 35.5866 40.2915 35.3021 41.9771C34.9955 43.7971 33.7999 45.3875 32.1777 46.1241C30.8355 46.7351 29.3155 46.7438 27.9777 46.7525L20.8177 46.7958C20.6221 46.7958 20.4266 46.7958 20.2266 46.7958L20.2399 46.7871ZM18.5999 45.9378C19.3377 45.9985 20.0933 45.9941 20.8221 45.9898L27.9821 45.9465C29.2399 45.9378 30.6621 45.9291 31.8444 45.3918C33.2266 44.7635 34.2488 43.4028 34.5066 41.8385C34.7555 40.3608 34.3377 38.7575 33.3644 37.4401C32.4577 36.2138 31.1866 35.3341 29.8444 34.4068C28.5999 33.5445 27.311 32.6561 26.3377 31.4601C25.471 30.3941 25.1244 29.3801 25.271 28.3575C25.311 28.0671 25.4044 27.7941 25.5466 27.5471C26.1999 26.3858 27.4044 26.2125 28.4666 26.0608C28.831 26.0088 29.1733 25.9611 29.4977 25.8745C30.8221 25.5321 31.8888 24.5831 32.2133 23.4478C32.3821 22.8541 31.951 22.3038 31.6799 22.0265C31.471 21.8141 31.2177 21.6148 30.9333 21.4415C30.9199 21.4328 30.8933 21.4198 30.8666 21.4068C30.6088 21.2725 30.2133 21.0645 30.1999 20.6961C30.1999 20.6051 30.2177 20.3755 30.4799 20.2108C30.6755 20.0895 30.8799 20.1241 31.0133 20.1588C30.9155 19.9855 30.7821 19.7818 30.6621 19.6258C30.3199 19.1795 29.8844 18.7851 29.4088 18.4948C29.2799 18.4168 29.1421 18.3431 29.0088 18.2695C28.5999 18.0441 28.1733 17.8145 27.8444 17.4331C27.0266 16.4928 27.1955 15.3011 27.3466 14.2481L27.3599 14.1701C27.3599 14.1528 27.351 14.1398 27.3466 14.1311C25.0088 14.7118 22.6888 16.4668 20.9599 18.9281C17.6666 23.6125 15.2621 29.4148 13.8133 36.1791C12.6488 41.6175 13.7466 44.8198 17.0888 45.6995C17.5421 45.8208 18.0399 45.8988 18.6088 45.9465L18.5999 45.9378Z" fill="#24341D"/>
</svg>
