<svg width="96" height="96" viewBox="0 0 96 96" fill="none" xmlns="http://www.w3.org/2000/svg">
<circle cx="48" cy="48" r="48" fill="#24341D"/>
<g clip-path="url(#clip0_8117_3471)">
<path d="M64.191 60.5364C63.9421 60.5364 63.6888 60.5364 63.4399 60.5277C60.2132 60.4627 56.6399 60.1377 55.0799 57.0437C54.6888 56.268 54.8443 55.7654 55.0443 55.4794C55.3821 54.994 56.111 54.7557 57.0532 54.8294C58.9821 54.981 60.7466 54.682 62.1555 53.9584C63.6666 53.1827 64.7954 51.8654 65.1821 50.431L59.0266 46.1064C58.7821 45.933 58.6621 45.634 58.7243 45.3437C58.7866 45.0534 59.0088 44.8367 59.3021 44.776C59.3821 44.7587 59.4577 44.7457 59.5377 44.7414C59.3999 44.373 59.0488 43.749 58.8843 43.5107C58.4177 42.8434 57.831 42.267 57.1821 41.8424C57.0621 41.7644 56.9332 41.6907 56.7999 41.6127C56.3155 41.3354 55.7688 41.019 55.4843 40.434C55.2843 40.0224 55.2666 39.5197 55.4443 39.056C55.751 38.2457 56.0354 37.4527 56.1821 36.625C56.1954 36.5384 56.1821 36.4604 56.1288 36.3997C56.0843 36.3434 56.0132 36.313 55.9288 36.3087C51.6443 36.1354 47.1466 38.2197 43.8799 41.877C41.1066 44.984 39.1066 49.196 37.7643 54.7514L37.7288 54.8944C37.3821 56.3287 36.991 57.9537 35.8043 59.0327C34.7954 59.9514 33.311 60.3977 31.2621 60.3977H31.1866C29.551 60.389 27.3332 60.0597 26.0532 58.5344C24.6132 56.827 24.4888 54.8554 24.4843 52.9834L24.4666 45.933C24.4666 44.5507 24.4577 42.9864 25.0621 41.5824C25.8132 39.8274 27.5421 38.4754 29.4666 38.1374C30.3066 37.99 31.151 38.0247 31.9688 38.0594C32.3599 38.0767 32.7643 38.094 33.1554 38.0897C34.5554 38.0767 35.5732 37.7344 36.1821 37.0757C37.0443 36.1484 36.991 34.8007 36.9377 33.375C36.9154 32.7727 36.8932 32.1487 36.9377 31.5507C37.1199 29.319 38.4799 27.3344 40.3999 26.4937C41.7732 25.8914 43.3199 25.887 44.6843 25.887L51.8621 25.874C53.2666 25.874 54.8532 25.8697 56.2799 26.4417C58.191 27.2044 59.6132 28.9854 59.911 30.9744C60.0266 31.737 59.991 32.5344 59.9555 33.31C59.8932 34.7314 59.8355 36.079 60.6888 37.0237C61.3199 37.7214 62.391 38.0854 63.871 38.107C64.2488 38.1114 64.6443 38.0984 65.0266 38.0854C65.9199 38.055 66.8443 38.0247 67.751 38.2154C69.5243 38.588 71.0754 39.8274 71.7954 41.4524C72.4177 42.8477 72.4177 44.4077 72.4177 45.7857V52.784C72.4177 53.3257 72.4177 53.9584 72.3732 54.5824C72.2977 55.5747 72.0932 57.0307 71.1777 58.2094C69.6488 60.181 66.9599 60.545 64.1777 60.545L64.191 60.5364ZM56.7243 55.6094C56.2355 55.6094 55.8532 55.7264 55.7154 55.9214C55.5732 56.125 55.6888 56.45 55.8088 56.6884C57.1688 59.3837 60.3332 59.6697 63.4577 59.7304C66.2799 59.7867 69.0932 59.583 70.5421 57.7197C71.1421 56.9484 71.4666 55.93 71.5732 54.5174C71.6177 53.9237 71.6221 53.3084 71.6221 52.7754V45.777C71.6221 44.477 71.6221 43.0037 71.0621 41.76C70.4443 40.369 69.111 39.3074 67.591 38.9867C66.7821 38.8177 65.9466 38.8437 65.0666 38.874C64.6755 38.887 64.271 38.9 63.871 38.8957C62.151 38.874 60.8755 38.419 60.0888 37.5437C59.0221 36.3607 59.0888 34.792 59.1555 33.2754C59.1866 32.5387 59.2221 31.7804 59.1199 31.087C58.8621 29.371 57.6354 27.8327 55.9866 27.174C54.7066 26.6627 53.1954 26.6627 51.8799 26.667L44.7021 26.68C43.4221 26.68 41.9688 26.6844 40.751 27.2174C39.0977 27.941 37.9243 29.67 37.7643 31.6114C37.7199 32.1617 37.7421 32.764 37.7643 33.3447C37.8221 34.8657 37.8799 36.443 36.7954 37.6087C36.0266 38.4364 34.8043 38.8654 33.1732 38.8827C32.7643 38.8827 32.3466 38.8697 31.9421 38.8524C31.1332 38.8177 30.3688 38.7874 29.6177 38.9174C27.9599 39.2077 26.471 40.3734 25.8221 41.8857C25.2843 43.1424 25.2888 44.6244 25.2888 45.9287L25.3066 52.979C25.311 55.1414 25.5377 56.6624 26.6888 58.0274C27.7688 59.31 29.7377 59.5917 31.1999 59.6004C31.2221 59.6004 31.2488 59.6004 31.271 59.6004C33.0977 59.6004 34.4043 59.2234 35.2532 58.4477C36.2577 57.5334 36.6043 56.0947 36.9377 54.708L36.9732 54.565C38.3466 48.8797 40.4043 44.5594 43.2666 41.3527C46.6932 37.5134 51.4354 35.338 55.9643 35.5114C56.2799 35.5244 56.5732 35.663 56.7643 35.897C56.9599 36.131 57.0399 36.4474 56.9866 36.755C56.8266 37.6477 56.5288 38.4797 56.2088 39.3247C56.111 39.589 56.1155 39.8664 56.2221 40.083C56.3999 40.447 56.7955 40.6767 57.2177 40.9194C57.3599 41.0017 57.5021 41.084 57.6355 41.1707C58.3821 41.656 59.031 42.2887 59.5599 43.0557C59.6754 43.2204 60.6666 44.6807 60.3332 45.257C60.231 45.4304 60.0354 45.5214 59.8266 45.517C59.751 45.517 59.6799 45.517 59.6043 45.5257L65.6843 49.8027C65.9377 49.9804 66.0532 50.2924 65.9821 50.5827C65.551 52.251 64.2621 53.7764 62.5332 54.6604C60.9866 55.4534 59.071 55.7827 56.9866 55.6224C56.8977 55.6137 56.8088 55.6137 56.7243 55.6137V55.6094Z" fill="white"/>
<path d="M44.7067 72.6612C44.1467 72.6612 43.5734 72.6525 43.0001 72.6048C42.3823 72.5528 41.8401 72.4618 41.3378 72.3318C37.5023 71.3222 36.2045 67.8078 37.4756 61.8842C38.9512 55.0202 41.3956 49.1182 44.7467 44.3472C46.5867 41.7298 49.0756 39.8622 51.5734 39.2252C51.8489 39.1558 52.1334 39.2252 52.3467 39.4072C52.5601 39.5935 52.6667 39.8708 52.6267 40.1482L52.6134 40.2305C52.4801 41.1622 52.3467 42.1242 52.9245 42.7915C53.1601 43.0645 53.5023 43.2508 53.8667 43.4502C54.0134 43.5282 54.1601 43.6105 54.3023 43.6972C54.8756 44.0438 55.3734 44.4945 55.7778 45.0275C56.6045 46.1065 56.4223 46.4575 56.3601 46.5745C56.3023 46.6872 56.2045 46.7695 56.0845 46.8172C56.3245 46.9818 56.5378 47.1638 56.7289 47.3588C57.4045 48.0478 57.6667 48.8235 57.4578 49.5472C57.0578 50.9468 55.7645 52.1168 54.1689 52.5285C53.8001 52.6238 53.4178 52.6802 53.0445 52.7322C52.0445 52.8752 51.1823 52.9965 50.7201 53.8112C50.6267 53.9758 50.5689 54.1578 50.5378 54.3528C50.4223 55.1458 50.7156 55.9648 51.4356 56.8488C52.3378 57.9582 53.5734 58.8118 54.7734 59.6438C56.1112 60.5668 57.4934 61.5245 58.4845 62.8592C59.5823 64.3455 60.0534 66.1655 59.7689 67.8512C59.4623 69.6712 58.2667 71.2615 56.6445 71.9982C55.3023 72.6092 53.7823 72.6178 52.4445 72.6265L45.2845 72.6698C45.0889 72.6698 44.8934 72.6698 44.6934 72.6698L44.7067 72.6612ZM43.0667 71.8118C43.8045 71.8725 44.5601 71.8682 45.2889 71.8638L52.4489 71.8205C53.7067 71.8118 55.1289 71.8032 56.3112 71.2658C57.6934 70.6375 58.7156 69.2768 58.9734 67.7125C59.2223 66.2348 58.8045 64.6315 57.8312 63.3142C56.9245 62.0878 55.6534 61.2082 54.3112 60.2808C53.0667 59.4185 51.7778 58.5302 50.8045 57.3342C49.9378 56.2682 49.5912 55.2542 49.7378 54.2315C49.7778 53.9412 49.8712 53.6682 50.0134 53.4212C50.6667 52.2598 51.8712 52.0865 52.9334 51.9348C53.2978 51.8828 53.6401 51.8352 53.9645 51.7485C55.2889 51.4062 56.3556 50.4572 56.6801 49.3218C56.8489 48.7282 56.4178 48.1778 56.1467 47.9005C55.9378 47.6882 55.6845 47.4888 55.4001 47.3155C55.3867 47.3068 55.3601 47.2938 55.3334 47.2808C55.0756 47.1465 54.6801 46.9385 54.6667 46.5702C54.6667 46.4792 54.6845 46.2495 54.9467 46.0848C55.1423 45.9635 55.3467 45.9982 55.4801 46.0328C55.3823 45.8595 55.2489 45.6558 55.1289 45.4998C54.7867 45.0535 54.3512 44.6592 53.8756 44.3688C53.7467 44.2908 53.6089 44.2172 53.4756 44.1435C53.0667 43.9182 52.6401 43.6885 52.3112 43.3072C51.4934 42.3668 51.6623 41.1752 51.8134 40.1222L51.8267 40.0442C51.8267 40.0268 51.8178 40.0138 51.8134 40.0052C49.4756 40.5858 47.1556 42.3408 45.4267 44.8022C42.1334 49.4865 39.7289 55.2888 38.2801 62.0532C37.1156 67.4915 38.2134 70.6938 41.5556 71.5735C42.0089 71.6948 42.5067 71.7728 43.0756 71.8205L43.0667 71.8118Z" fill="white"/>
<path d="M55.3377 13.7756L56.9422 14.1049L57.1511 13.1386C57.1866 12.9652 57.2 12.8526 57.1911 12.7919C57.1822 12.7486 57.1555 12.7052 57.1066 12.6619C57.04 12.6056 56.9689 12.5709 56.8889 12.5536L56.7644 12.5276L56.7822 12.4366L58.2622 12.7399L58.2444 12.8309L58.12 12.8049C58.04 12.7876 57.9555 12.7919 57.8755 12.8136C57.8133 12.8309 57.7689 12.8612 57.7377 12.9132C57.7066 12.9652 57.6711 13.0692 57.6355 13.2382L57.1644 15.4136C57.1289 15.5826 57.1155 15.6996 57.1244 15.7602C57.1333 15.8036 57.16 15.8469 57.2044 15.8902C57.2711 15.9466 57.3466 15.9812 57.4266 15.9986L57.5511 16.0246L57.5333 16.1156L56.0533 15.8122L56.0711 15.7212L56.1955 15.7472C56.3377 15.7776 56.4489 15.7559 56.5289 15.6909C56.5822 15.6476 56.6311 15.5219 56.6755 15.3226L56.8977 14.2956L55.2933 13.9662L55.0711 14.9932C55.0355 15.1622 55.0222 15.2792 55.0311 15.3399C55.04 15.3832 55.0666 15.4266 55.1155 15.4699C55.1822 15.5262 55.2533 15.5609 55.3333 15.5782L55.4577 15.6042L55.44 15.6952L53.96 15.3919L53.9777 15.3009L54.1022 15.3269C54.2444 15.3572 54.3555 15.3356 54.44 15.2706C54.4933 15.2272 54.5422 15.1016 54.5822 14.9022L55.0533 12.7269C55.0888 12.5536 55.1022 12.4409 55.0933 12.3802C55.0844 12.3369 55.0577 12.2936 55.0133 12.2502C54.9466 12.1939 54.8711 12.1592 54.7911 12.1419L54.6666 12.1159L54.6844 12.0249L56.1644 12.3282L56.1466 12.4192L56.0222 12.3932C55.9422 12.3759 55.8577 12.3802 55.7777 12.4019C55.72 12.4192 55.6755 12.4496 55.64 12.5016C55.6044 12.5536 55.5733 12.6576 55.5377 12.8266L55.3289 13.7929L55.3377 13.7756Z" fill="white"/>
<path d="M65.2355 15.2058C65.6488 15.4008 65.9333 15.7214 66.0844 16.1678C66.2355 16.6141 66.1999 17.0691 65.9733 17.5284C65.7421 18.0008 65.3955 18.3214 64.9377 18.4904C64.4799 18.6594 64.031 18.6421 63.5999 18.4384C63.1599 18.2348 62.8666 17.9098 62.7199 17.4634C62.5733 17.0214 62.6177 16.5578 62.8532 16.0724C63.0977 15.5784 63.4666 15.2578 63.9644 15.1061C64.3955 14.9761 64.8221 15.0064 65.2355 15.2014V15.2058ZM65.1066 15.3488C64.8221 15.2144 64.5421 15.2101 64.2666 15.3358C63.9244 15.4918 63.6355 15.8168 63.391 16.3108C63.1421 16.8178 63.0621 17.2598 63.1466 17.6368C63.2133 17.9228 63.391 18.1351 63.671 18.2651C63.9688 18.4038 64.271 18.4081 64.5821 18.2694C64.8932 18.1308 65.1644 17.8188 65.4044 17.3291C65.6666 16.7961 65.7555 16.3498 65.6666 15.9901C65.5955 15.6998 65.4088 15.4874 65.1066 15.3444V15.3488Z" fill="white"/>
<path d="M73.3467 20.2974L72.5867 21.2291L72.5111 21.1684C72.6311 20.9691 72.7067 20.7958 72.7289 20.6398C72.7511 20.4838 72.7289 20.3321 72.6667 20.1761C72.6044 20.0201 72.5067 19.8988 72.3822 19.7991C72.24 19.6908 72.0889 19.6388 71.9289 19.6518C71.7689 19.6648 71.6444 19.7254 71.5555 19.8294C71.4889 19.9118 71.4578 20.0071 71.4578 20.1241C71.4578 20.2888 71.5511 20.5791 71.7333 20.9908C71.88 21.3244 71.9733 21.5671 72.0089 21.7144C72.0444 21.8618 72.0489 22.0004 72.0178 22.1391C71.9867 22.2778 71.9289 22.3991 71.8444 22.5074C71.6755 22.7111 71.4533 22.8238 71.1689 22.8454C70.8844 22.8671 70.6178 22.7804 70.36 22.5811C70.28 22.5204 70.2089 22.4554 70.1467 22.3861C70.1111 22.3471 70.0444 22.2561 69.9422 22.1088C69.8444 21.9658 69.7778 21.8791 69.7422 21.8488C69.7067 21.8228 69.6711 21.8098 69.6356 21.8141C69.6 21.8184 69.5511 21.8488 69.4889 21.9051L69.4133 21.8444L70.1689 20.9214L70.2444 20.9821C70.12 21.2031 70.0489 21.3851 70.0311 21.5281C70.0133 21.6711 70.04 21.8228 70.1111 21.9788C70.1822 22.1391 70.2889 22.2734 70.4356 22.3904C70.6044 22.5204 70.7733 22.5811 70.9467 22.5724C71.12 22.5638 71.2489 22.4988 71.3467 22.3774C71.4 22.3124 71.4355 22.2301 71.4533 22.1348C71.4711 22.0394 71.4667 21.9311 71.4356 21.8098C71.4133 21.7274 71.3378 21.5324 71.2089 21.2204C71.08 20.9084 70.9955 20.6744 70.9555 20.5184C70.92 20.3624 70.9111 20.2194 70.9378 20.0894C70.96 19.9551 71.0178 19.8338 71.1111 19.7254C71.2711 19.5304 71.48 19.4264 71.7467 19.4048C72.0133 19.3831 72.2622 19.4654 72.4978 19.6474C72.6444 19.7601 72.7733 19.9161 72.88 20.1154C72.9289 20.2064 72.9689 20.2671 73 20.2888C73.0355 20.3148 73.0711 20.3278 73.1111 20.3234C73.1511 20.3234 73.2 20.2931 73.2667 20.2411L73.3422 20.3018L73.3467 20.2974Z" fill="white"/>
<path d="M76.6978 26.2772L75.9023 26.9142C75.7289 27.0529 75.6401 27.1569 75.6267 27.2262C75.6089 27.3215 75.6445 27.4212 75.7289 27.5252L75.8134 27.6292L75.7378 27.6899L74.7778 26.5459L74.8534 26.4852L74.9378 26.5849C75.0312 26.6975 75.1378 26.7495 75.2534 26.7365C75.3156 26.7279 75.4267 26.6629 75.5823 26.5415L77.3512 25.1332C77.5245 24.9945 77.6134 24.8949 77.6267 24.8255C77.6445 24.7259 77.6089 24.6262 77.5245 24.5265L77.4401 24.4269L77.5156 24.3662L78.3334 25.3455C78.5334 25.5839 78.6667 25.7919 78.7334 25.9695C78.8 26.1472 78.8089 26.3292 78.7689 26.5199C78.7289 26.7105 78.6267 26.8709 78.4623 27.0009C78.2401 27.1785 77.9956 27.2522 77.7378 27.2219C77.4756 27.1915 77.2356 27.0442 77.0178 26.7799C76.9645 26.7149 76.9112 26.6412 76.8578 26.5589C76.8045 26.4765 76.7512 26.3855 76.6978 26.2859V26.2772ZM76.8134 26.1862C76.8578 26.2685 76.8978 26.3379 76.9378 26.3942C76.9778 26.4549 77.0134 26.5025 77.0445 26.5415C77.1601 26.6759 77.3112 26.7539 77.5023 26.7669C77.6934 26.7799 77.8756 26.7192 78.0489 26.5805C78.1689 26.4852 78.2578 26.3769 78.32 26.2469C78.3823 26.1169 78.4 25.9912 78.3778 25.8655C78.3556 25.7399 78.2978 25.6185 78.2045 25.5102C78.1467 25.4452 78.0623 25.3672 77.9512 25.2849L76.8134 26.1905V26.1862Z" fill="white"/>
<path d="M79.9289 33.7998L79.8444 33.8431L79.1333 32.5388L79.2177 32.4954L79.2755 32.6038C79.3422 32.7294 79.4311 32.8031 79.5377 32.8204C79.6044 32.8291 79.7333 32.7858 79.92 32.6904L81.9333 31.6461C82.0933 31.5638 82.1911 31.4988 82.2311 31.4554C82.2622 31.4208 82.2755 31.3731 82.28 31.3124C82.28 31.2258 82.2622 31.1478 82.2222 31.0784L82.1644 30.9701L82.2489 30.9268L82.96 32.2311L82.8755 32.2744L82.8177 32.1661C82.7511 32.0404 82.6622 31.9711 82.5555 31.9538C82.4844 31.9408 82.3555 31.9841 82.1689 32.0794L80.1555 33.1238C79.9955 33.2061 79.8977 33.2711 79.8577 33.3144C79.8266 33.3491 79.8133 33.3968 79.8089 33.4618C79.8089 33.5441 79.8266 33.6221 79.8666 33.6958L79.9244 33.8041L79.9289 33.7998Z" fill="white"/>
<path d="M85.9511 39.9316L85.1689 40.1959L85.1422 40.1049C85.2756 40.0486 85.3689 39.9923 85.4178 39.9446C85.4978 39.8666 85.5511 39.7799 85.5689 39.6803C85.5911 39.5849 85.5778 39.4679 85.5378 39.3293L85.3956 38.8656L82.8045 39.6109C82.5956 39.6716 82.4711 39.7323 82.4356 39.7886C82.3822 39.8709 82.3778 39.9749 82.4178 40.1049L82.4533 40.2176L82.36 40.2436L81.9333 38.8439L82.0267 38.8179L82.0622 38.9349C82.1067 39.0736 82.1778 39.1603 82.2845 39.1949C82.3467 39.2166 82.4756 39.1949 82.6667 39.1429L85.2578 38.3976L85.1378 37.9989C85.0889 37.8429 85.0445 37.7389 85.0045 37.6783C84.9467 37.6046 84.8667 37.5483 84.7556 37.5136C84.6489 37.4789 84.5156 37.4789 84.36 37.5136L84.3334 37.4226L85.1378 37.2319L85.9556 39.9273L85.9511 39.9316Z" fill="white"/>
<path d="M84.7156 47.2895L84.6222 45.9591L84.0489 45.7641C83.9067 45.7165 83.8044 45.6948 83.7378 45.6991C83.6844 45.6991 83.64 45.7295 83.6 45.7815C83.5645 45.8335 83.5422 45.9418 83.5422 46.1108H83.4445C83.4445 46.1151 83.3689 45.0361 83.3689 45.0361H83.4667C83.5022 45.1705 83.5422 45.2615 83.5867 45.3005C83.6756 45.3828 83.8533 45.4651 84.1156 45.5518L87.1022 46.5658V46.6525C87.1067 46.6525 84.2622 48.0478 84.2622 48.0478C84.0356 48.1605 83.8845 48.2558 83.8222 48.3425C83.7556 48.4248 83.7245 48.5375 83.7289 48.6805L83.6311 48.6891L83.5333 47.3328H83.6311C83.6489 47.4628 83.6756 47.5538 83.72 47.5971C83.7644 47.6405 83.8133 47.6621 83.8711 47.6578C83.9467 47.6535 84.0667 47.6101 84.2267 47.5321L84.72 47.2895H84.7156ZM84.9067 47.2028L86.2889 46.5225L84.8222 46.0198L84.9067 47.2028Z" fill="white"/>
<path d="M83.8845 56.2336L83.8533 56.3116L82.9556 55.8739L83.3867 53.2393L83.48 53.2523L83.4578 53.3823C83.4356 53.5253 83.4667 53.6379 83.5511 53.7116C83.6 53.7549 83.7245 53.7939 83.9245 53.8243L86.1778 54.1753C86.3956 54.2099 86.5378 54.2056 86.6 54.1666C86.6845 54.1146 86.7378 54.0236 86.76 53.8936L86.7822 53.7636L86.8756 53.7766L86.6222 55.3149L86.5289 55.3019C86.56 55.1199 86.5645 54.9943 86.5378 54.9119C86.5156 54.8339 86.4756 54.7776 86.4267 54.7429C86.3778 54.7083 86.2489 54.6736 86.04 54.6433L83.8489 54.3009C83.7067 54.2793 83.6045 54.2749 83.5511 54.2966C83.5111 54.3096 83.48 54.3399 83.4578 54.3789C83.4356 54.4179 83.4045 54.5479 83.3689 54.7646L83.3289 55.0116C83.2845 55.2716 83.2756 55.4579 83.2978 55.5706C83.32 55.6833 83.3733 55.7873 83.4622 55.8913C83.5467 55.9953 83.6933 56.1036 83.8933 56.2249L83.8845 56.2336Z" fill="white"/>
<path d="M80.4754 70.4815L80.3954 70.4338C80.4399 70.3168 80.4577 70.2172 80.4399 70.1348C80.4132 70.0135 80.3465 69.8792 80.2354 69.7318L78.3154 67.1752L78.3643 67.0972L81.6532 67.5478C81.8221 67.5695 81.9288 67.5782 81.9732 67.5738C82.0399 67.5652 82.1065 67.5435 82.1643 67.5045C82.2221 67.4655 82.2843 67.4048 82.3465 67.3225L82.4265 67.3702L81.671 68.5705L81.591 68.5228C81.6621 68.3798 81.6932 68.2758 81.6843 68.2152C81.6754 68.1545 81.6443 68.1068 81.591 68.0765C81.5154 68.0332 81.3821 67.9985 81.1821 67.9682L78.9465 67.6605L80.2532 69.3938C80.3821 69.5628 80.4799 69.6712 80.5465 69.7102C80.591 69.7362 80.6443 69.7405 80.711 69.7188C80.7777 69.7015 80.8488 69.6452 80.9288 69.5542C80.9332 69.5498 80.9465 69.5368 80.9599 69.5195L81.0443 69.5672L80.4754 70.4728V70.4815Z" fill="white"/>
<path d="M76.2133 75.244L75.2178 74.2864L74.6711 74.8237C74.5289 74.9624 74.4578 75.0794 74.4533 75.166C74.4489 75.283 74.5111 75.413 74.6489 75.5604L74.5822 75.6254L73.7067 74.7847L73.7733 74.7197C73.9111 74.8194 74.0089 74.88 74.0622 74.8974C74.1289 74.919 74.1956 74.9147 74.2711 74.8887C74.3467 74.8627 74.4356 74.7977 74.5378 74.698L75.0844 74.1607L74.2533 73.3634C74.1422 73.255 74.0711 73.1944 74.0356 73.1814C74 73.1684 73.9644 73.1684 73.9289 73.177C73.8889 73.1857 73.8356 73.2247 73.7689 73.294L73.3467 73.71C73.2044 73.8487 73.1155 73.957 73.0711 74.0394C73.0267 74.1217 73.0044 74.217 73.0044 74.334C73.0044 74.4814 73.0444 74.672 73.12 74.8974L73.0489 74.971L72.6311 74.152L74.5422 72.2627L74.6089 72.3277L74.52 72.4144C74.4622 72.4707 74.4222 72.54 74.3956 72.618C74.3778 72.6744 74.3778 72.7307 74.4044 72.7827C74.4311 72.8347 74.5022 72.9214 74.6267 73.0384L76.2622 74.6114C76.4222 74.763 76.5378 74.8454 76.6044 74.8497C76.6978 74.8497 76.7956 74.8064 76.8978 74.7024L76.9867 74.6157L77.0533 74.6807L75.1422 76.57L74.5644 76.0674L74.6356 75.998C74.7956 76.102 74.9111 76.1584 74.9956 76.1757C75.0756 76.193 75.16 76.1844 75.2489 76.1497C75.3156 76.1194 75.4133 76.0414 75.5333 75.92L76.2133 75.2484V75.244Z" fill="white"/>
<path d="M68.1422 81.7527L67.6622 81.094L67.7467 81.042C67.84 81.1504 67.92 81.224 67.9822 81.2587C68.08 81.3107 68.1822 81.3367 68.2844 81.328C68.3867 81.3194 68.4978 81.276 68.6222 81.2024L69.04 80.938L67.5778 78.7237C67.4622 78.5461 67.3689 78.4464 67.2978 78.429C67.2044 78.403 67.0978 78.4291 66.9822 78.4984L66.88 78.5634L66.8267 78.4854L68.0844 77.6924L68.1378 77.7704L68.0311 77.8354C67.9067 77.9134 67.84 78.0087 67.8356 78.1127C67.8356 78.1777 67.8844 78.2904 67.9956 78.4551L69.4578 80.6694L69.8133 80.444C69.9511 80.3574 70.0444 80.2837 70.0889 80.2274C70.1467 80.1537 70.1778 80.0584 70.1822 79.9501C70.1822 79.8374 70.1511 79.716 70.0711 79.5774L70.1556 79.5254L70.5689 80.2274L68.1422 81.7484V81.7527Z" fill="white"/>
<path d="M62.1333 84.3397L61.6533 83.0614L60.9244 83.3214C60.7333 83.3907 60.6177 83.46 60.5777 83.538C60.52 83.642 60.52 83.785 60.5777 83.9757L60.4888 84.006L60.0666 82.8794L60.1555 82.849C60.2355 82.9964 60.2977 83.0917 60.3377 83.1264C60.3866 83.1697 60.4533 83.2001 60.5333 83.2044C60.6133 83.2131 60.72 83.1914 60.8577 83.1437L61.5866 82.8837L61.1866 81.8177C61.1333 81.6747 61.0933 81.5881 61.0711 81.5621C61.0488 81.5361 61.0133 81.5187 60.9733 81.5144C60.9333 81.5057 60.8666 81.5187 60.7777 81.5534L60.2133 81.7527C60.0266 81.8177 59.8933 81.8827 59.8177 81.9347C59.7422 81.991 59.68 82.069 59.6311 82.173C59.5688 82.3074 59.52 82.4937 59.4888 82.732L59.3911 82.7667L59.3733 81.8524L61.9333 80.9424L61.9644 81.029L61.8488 81.0724C61.7688 81.0984 61.7022 81.1461 61.6488 81.2067C61.6044 81.2501 61.5866 81.3021 61.5866 81.3584C61.5866 81.4147 61.6177 81.523 61.6755 81.679L62.4622 83.7807C62.5377 83.9844 62.6088 84.1057 62.6666 84.136C62.7511 84.1794 62.8577 84.175 62.9955 84.1274L63.1111 84.084L63.1422 84.1707L60.5822 85.0807L60.28 84.383L60.3733 84.3484C60.4711 84.5044 60.5511 84.6084 60.6177 84.6604C60.6844 84.708 60.7644 84.734 60.8577 84.7384C60.9333 84.7384 61.0533 84.708 61.2177 84.6517L62.1288 84.3267L62.1333 84.3397Z" fill="white"/>
<path d="M51.0088 83.4814L51.9466 83.3688L53.3377 84.8248C53.4266 84.8118 53.4977 84.7988 53.5511 84.7944C53.5733 84.7944 53.5955 84.7901 53.6222 84.7858C53.6488 84.7858 53.6755 84.7858 53.7022 84.7814L53.5777 83.7891C53.5511 83.5724 53.5111 83.4424 53.4533 83.3991C53.3777 83.3341 53.2755 83.3081 53.1422 83.3254L53.0044 83.3428L52.9911 83.2474L54.4933 83.0654L54.5066 83.1608L54.3733 83.1781C54.2266 83.1954 54.1244 83.2561 54.0711 83.3558C54.04 83.4121 54.04 83.5378 54.0622 83.7328L54.3422 85.9428C54.3688 86.1594 54.4088 86.2894 54.4666 86.3328C54.5422 86.3978 54.6488 86.4238 54.7822 86.4064L54.9155 86.3891L54.9288 86.4844L53.6533 86.6404C53.28 86.6838 53.0044 86.6924 52.8177 86.6621C52.6355 86.6318 52.4711 86.5494 52.3288 86.4238C52.1866 86.2981 52.1022 86.1334 52.08 85.9384C52.0533 85.7304 52.1022 85.5354 52.2222 85.3664C52.3422 85.1931 52.5466 85.0588 52.8355 84.9591L51.9866 84.0664C51.7911 83.8628 51.6311 83.7284 51.5022 83.6678C51.3733 83.6071 51.2133 83.5811 51.0177 83.5811L51.0044 83.4858L51.0088 83.4814ZM53.7244 84.9374C53.6933 84.9374 53.6622 84.9461 53.64 84.9461C53.6177 84.9461 53.5955 84.9461 53.5822 84.9504C53.2488 84.9894 53.0044 85.0934 52.8533 85.2538C52.7022 85.4141 52.64 85.6048 52.6666 85.8258C52.6933 86.0381 52.7866 86.2028 52.9377 86.3198C53.0933 86.4368 53.28 86.4801 53.5066 86.4541C53.6044 86.4411 53.7377 86.4108 53.9066 86.3588L53.7244 84.9374Z" fill="white"/>
<path d="M44.871 83.4513L44.8799 83.356L46.391 83.473L46.3821 83.5683L46.2577 83.5596C46.111 83.5466 46.0043 83.5813 45.9288 83.6593C45.8843 83.7113 45.8532 83.837 45.8355 84.045L45.6532 86.2636C45.6399 86.437 45.6399 86.554 45.6577 86.6103C45.671 86.6536 45.7021 86.6926 45.7555 86.7273C45.8266 86.775 45.9066 86.801 45.991 86.8053L46.1155 86.814L46.1066 86.9093L44.5955 86.7923L44.6043 86.697L44.7332 86.7056C44.8755 86.7186 44.9866 86.684 45.0577 86.606C45.1066 86.554 45.1377 86.4283 45.1555 86.2203L45.3377 84.0016C45.351 83.8283 45.351 83.7113 45.3332 83.655C45.3199 83.6116 45.2843 83.5726 45.231 83.538C45.1599 83.4903 45.0843 83.4643 44.9999 83.46L44.871 83.4513Z" fill="white"/>
<path d="M39.3378 85.9644L38.4178 85.7001L37.1023 82.6234L36.52 84.5301C36.4578 84.7338 36.4445 84.8681 36.4756 84.9288C36.5156 85.0154 36.6045 85.0761 36.7378 85.1151L36.8534 85.1498L36.8267 85.2408L35.6489 84.8984L35.6756 84.8074L35.7956 84.8421C35.9378 84.8854 36.0534 84.8724 36.1378 84.8031C36.1911 84.7598 36.2445 84.6471 36.3023 84.4651L37.1512 81.6831L37.24 81.7091L38.6623 85.0154L39.28 82.9831C39.3423 82.7794 39.36 82.6451 39.3289 82.5844C39.2845 82.4978 39.2 82.4371 39.0667 82.3981L38.9467 82.3634L38.9734 82.2724L40.1511 82.6148L40.1245 82.7058L40.0089 82.6711C39.8623 82.6278 39.7467 82.6408 39.6623 82.7101C39.6089 82.7534 39.5556 82.8661 39.4978 83.0481L38.8 85.3448C38.8623 85.4834 38.9156 85.5788 38.9556 85.6308C38.9956 85.6828 39.0578 85.7348 39.1467 85.7954C39.1911 85.8258 39.2623 85.8518 39.36 85.8821L39.3334 85.9731L39.3378 85.9644Z" fill="white"/>
<path d="M27.9287 82.5456L29.0443 82.1643L29.1198 82.2076L28.4309 82.8316L27.9287 82.5456ZM29.742 79.6249L30.9243 80.2966L31.4132 79.9456C31.5332 79.8589 31.6087 79.7853 31.6443 79.7289C31.6709 79.6856 31.6709 79.6293 31.6487 79.5729C31.6265 79.5123 31.542 79.4386 31.3998 79.3433L31.4487 79.2609L32.4087 79.8069L32.3598 79.8893C32.2176 79.8373 32.1198 79.8199 32.062 79.8329C31.942 79.8589 31.7732 79.9543 31.5509 80.1146L29.0132 81.9519L28.9332 81.9086L29.3509 78.8276C29.3865 78.5806 29.382 78.4073 29.3509 78.3076C29.3154 78.2079 29.2398 78.1213 29.1198 78.0433L29.1687 77.9609L30.3732 78.6456L30.3243 78.7279C30.1998 78.6629 30.1065 78.6369 30.0443 78.6456C29.982 78.6543 29.9376 78.6846 29.9065 78.7323C29.8665 78.7973 29.8354 78.9143 29.8132 79.0876L29.742 79.6206V79.6249ZM29.7065 79.8243L29.5065 81.3193L30.7554 80.4179L29.7065 79.8199V79.8243Z" fill="white"/>
<path d="M22.9067 72.8564L23.5911 73.4891L23.32 75.4608C23.3867 75.5171 23.44 75.5648 23.48 75.6038C23.4978 75.6211 23.5156 75.6341 23.5333 75.6558C23.5511 75.6731 23.5689 75.6948 23.5911 75.7121L24.2978 74.9884C24.4533 74.8324 24.5289 74.7154 24.5289 74.6461C24.5333 74.5464 24.4889 74.4554 24.3911 74.3644L24.2889 74.2734L24.3556 74.2041L25.4533 75.2224L25.3867 75.2918L25.2889 75.2008C25.1822 75.1011 25.0711 75.0621 24.9556 75.0881C24.8933 75.1011 24.7911 75.1791 24.6533 75.3221L23.08 76.9341C22.9289 77.0901 22.8489 77.2071 22.8489 77.2764C22.8489 77.3761 22.8933 77.4714 22.9867 77.5624L23.0844 77.6534L23.0178 77.7228L22.0844 76.8561C21.8133 76.6048 21.6311 76.3968 21.5378 76.2408C21.4445 76.0804 21.4044 75.9114 21.4178 75.7208C21.4311 75.5344 21.5067 75.3698 21.6445 75.2268C21.7956 75.0751 21.9733 74.9884 22.1867 74.9711C22.4 74.9538 22.6356 75.0231 22.8978 75.1748L23.0667 73.9701C23.1067 73.6928 23.1111 73.4891 23.0756 73.3548C23.04 73.2204 22.96 73.0818 22.8356 72.9344L22.9022 72.8651L22.9067 72.8564ZM23.4711 75.8248C23.4489 75.8031 23.4267 75.7814 23.4089 75.7641C23.3911 75.7468 23.3778 75.7338 23.3645 75.7208C23.12 75.4954 22.8844 75.3741 22.6622 75.3611C22.4356 75.3481 22.2489 75.4218 22.0933 75.5821C21.9422 75.7381 21.8667 75.9114 21.8711 76.1021C21.8756 76.2928 21.96 76.4661 22.1244 76.6178C22.1956 76.6871 22.3067 76.7651 22.4533 76.8561L23.4667 75.8161L23.4711 75.8248Z" fill="white"/>
<path d="M19.0444 68.2068L19.1244 68.1548L19.9866 69.3681L19.9066 69.4201L19.8355 69.3205C19.7511 69.2035 19.6577 69.1428 19.5511 69.1385C19.4799 69.1385 19.3599 69.1948 19.1866 69.3118L17.3111 70.5815C17.1644 70.6811 17.0755 70.7548 17.0399 70.8068C17.0133 70.8458 17.0044 70.8934 17.0088 70.9541C17.0177 71.0364 17.0444 71.1145 17.0933 71.1795L17.1644 71.2791L17.0844 71.3311L16.2222 70.1178L16.3022 70.0658L16.3733 70.1698C16.4533 70.2868 16.5511 70.3475 16.6577 70.3518C16.7288 70.3518 16.8488 70.2998 17.0266 70.1828L18.9022 68.9131C19.0488 68.8135 19.1377 68.7398 19.1733 68.6878C19.1999 68.6488 19.2088 68.6011 19.2044 68.5361C19.1955 68.4538 19.1688 68.3801 19.1199 68.3108L19.0488 68.2068H19.0444Z" fill="white"/>
<path d="M12.6887 63.8344C12.511 63.4227 12.5199 62.9981 12.711 62.5647C12.9021 62.1314 13.2399 61.8151 13.7199 61.6201C14.2132 61.4164 14.6932 61.4034 15.151 61.5724C15.6087 61.7414 15.9287 62.0447 16.1154 62.4781C16.3021 62.9157 16.3021 63.3491 16.1154 63.7781C15.9243 64.2071 15.5776 64.5234 15.071 64.7314C14.5554 64.9437 14.0576 64.9437 13.5821 64.7314C13.1687 64.5494 12.8754 64.2504 12.6976 63.8344H12.6887ZM12.8843 63.8084C13.0043 64.0944 13.2132 64.2764 13.5021 64.3587C13.8621 64.4627 14.3021 64.4107 14.8221 64.1984C15.3554 63.9817 15.7154 63.7044 15.9065 63.3621C16.0532 63.1021 16.0621 62.8334 15.9421 62.5517C15.8132 62.2527 15.5865 62.0577 15.2665 61.9581C14.9421 61.8627 14.5243 61.9191 14.0132 62.1271C13.4576 62.3567 13.0843 62.6297 12.9021 62.9591C12.7599 63.2191 12.751 63.5007 12.8799 63.8041L12.8843 63.8084Z" fill="white"/>
<path d="M12.6177 48.4466L13.3022 48.6763L13.3377 50.7086H13.2399C12.671 50.1193 12.2088 49.7076 11.8488 49.4693C11.4888 49.2309 11.1644 49.1139 10.871 49.1183C10.6488 49.1183 10.4622 49.1919 10.3199 49.3263C10.1777 49.4606 10.1066 49.6253 10.111 49.8116C10.111 49.9806 10.1688 50.1323 10.271 50.2666C10.3733 50.4009 10.5244 50.4963 10.7244 50.5569V50.6523C10.4044 50.6133 10.1555 50.5093 9.98216 50.3359C9.80882 50.1626 9.71549 49.9459 9.71549 49.6816C9.71105 49.4043 9.79994 49.1659 9.98216 48.9753C10.1644 48.7846 10.3777 48.6893 10.631 48.6849C10.8088 48.6849 10.991 48.7196 11.1688 48.7976C11.4533 48.9189 11.7555 49.1183 12.071 49.3913C12.551 49.8073 12.8399 50.0629 12.9377 50.1669L12.9244 49.2656C12.9244 49.0836 12.911 48.9536 12.8977 48.8799C12.8844 48.8063 12.8533 48.7413 12.8088 48.6806C12.7644 48.6199 12.7022 48.5723 12.6266 48.5289V48.4336L12.6177 48.4466Z" fill="white"/>
<path d="M12.9377 41.1924L13.3021 41.2617L13.2088 41.7167L14.1244 41.8944L14.0399 42.306L13.1244 42.1284L12.831 43.5584L12.5021 43.4934L10.5288 41.4827L10.5866 41.2097L12.8444 41.6474L12.9377 41.1924ZM12.7599 42.059L11.0399 41.7254L12.5155 43.2464L12.7555 42.059H12.7599Z" fill="white"/>
<path d="M14.2755 35.3164L14.9422 33.856L14.0177 33.453C13.8533 33.3794 13.7377 33.3447 13.68 33.3404C13.6311 33.3404 13.5822 33.3577 13.5333 33.3924C13.4666 33.4444 13.4133 33.505 13.3777 33.5787L13.3288 33.6914L13.24 33.6524L13.8533 32.3047L13.9422 32.3437L13.8933 32.4564C13.8577 32.53 13.8444 32.608 13.8533 32.6904C13.8533 32.751 13.88 32.803 13.9244 32.842C13.9688 32.881 14.0711 32.9374 14.2266 33.0067L16.3111 33.9124C16.4755 33.9817 16.5866 34.0207 16.6488 34.0207C16.6977 34.0207 16.7422 34.0077 16.7955 33.9687C16.8666 33.9167 16.9155 33.856 16.9511 33.778L17 33.6654L17.0888 33.7044L16.4755 35.052L16.3866 35.013L16.4355 34.9004C16.4933 34.7704 16.4977 34.662 16.4488 34.571C16.4177 34.5104 16.3022 34.4367 16.1066 34.3544L15.1244 33.9254L14.4577 35.3857L15.44 35.8147C15.6044 35.884 15.7155 35.923 15.7777 35.9274C15.8266 35.9274 15.8755 35.91 15.9244 35.8754C15.9911 35.8234 16.0444 35.7627 16.08 35.689L16.1333 35.5764L16.2222 35.6154L15.6044 36.963L15.5155 36.924L15.5644 36.8114C15.6222 36.6814 15.6266 36.5687 15.5777 36.4777C15.5422 36.417 15.4311 36.3477 15.2355 36.261L13.1511 35.3554C12.9866 35.2817 12.8711 35.247 12.8133 35.2427C12.7644 35.2427 12.72 35.2557 12.6666 35.2947C12.5955 35.3467 12.5466 35.4074 12.5111 35.4854L12.4622 35.598L12.3733 35.559L12.9911 34.2114L13.08 34.2504L13.0266 34.363C12.9911 34.4367 12.9777 34.5147 12.9866 34.597C12.9866 34.6577 13.0133 34.7054 13.0577 34.7487C13.1022 34.7877 13.2 34.844 13.36 34.9134L14.2844 35.3164H14.2755Z" fill="white"/>
<path d="M17.7733 26.1817C18.0533 25.8264 18.4355 25.6227 18.9155 25.5707C19.3955 25.5187 19.8444 25.6487 20.2577 25.9564C20.6844 26.2771 20.9333 26.6714 21.0044 27.1437C21.0799 27.6161 20.9688 28.0364 20.6755 28.4091C20.3777 28.7861 19.991 28.9984 19.5155 29.0461C19.0399 29.0937 18.5866 28.9551 18.151 28.6301C17.7066 28.2964 17.4621 27.8761 17.4133 27.3691C17.3733 26.9314 17.4933 26.5327 17.7777 26.1731L17.7733 26.1817ZM17.8933 26.3334C17.7021 26.5761 17.6399 26.8447 17.7066 27.1307C17.791 27.4904 18.0577 27.8327 18.5021 28.1707C18.9599 28.5131 19.3866 28.6821 19.7821 28.6777C20.0844 28.6734 20.3333 28.5477 20.5199 28.3094C20.7244 28.0537 20.7866 27.7634 20.7155 27.4427C20.6444 27.1221 20.3866 26.7971 19.9421 26.4634C19.4621 26.1037 19.0355 25.9261 18.6533 25.9347C18.351 25.9434 18.0933 26.0734 17.8888 26.3334H17.8933Z" fill="white"/>
<path d="M27.7599 21.515L27.0265 22.0957L25.0576 21.58C24.991 21.6364 24.9376 21.684 24.8932 21.7187C24.8754 21.7317 24.8576 21.749 24.8354 21.762C24.8132 21.7794 24.791 21.7924 24.7687 21.8097L25.4132 22.5854C25.5554 22.7544 25.6576 22.8454 25.7287 22.854C25.8265 22.8714 25.9287 22.841 26.031 22.7587L26.1376 22.672L26.1999 22.7457L25.0221 23.673L24.9599 23.5994L25.0621 23.517C25.1776 23.426 25.231 23.322 25.2176 23.2094C25.2132 23.1444 25.1465 23.0404 25.0176 22.8844L23.5821 21.1554C23.4399 20.9864 23.3376 20.8954 23.2665 20.8867C23.1643 20.8694 23.0621 20.904 22.9599 20.9864L22.8576 21.0687L22.7954 20.995L23.7954 20.2064C24.0887 19.9767 24.3199 19.825 24.4932 19.76C24.6665 19.6907 24.8487 19.6777 25.0354 19.7124C25.2221 19.747 25.3821 19.8424 25.511 19.994C25.6487 20.1587 25.711 20.345 25.7021 20.553C25.6932 20.761 25.5954 20.982 25.4043 21.2117L26.6087 21.5324C26.8843 21.606 27.0932 21.6364 27.2354 21.619C27.3776 21.6017 27.5287 21.5454 27.6932 21.4414L27.7554 21.515H27.7599ZM24.671 21.6797C24.6976 21.658 24.7199 21.6407 24.7376 21.6277C24.7554 21.6147 24.7732 21.6017 24.7865 21.593C25.0487 21.385 25.1999 21.177 25.2399 20.9604C25.2799 20.7437 25.231 20.553 25.0887 20.3797C24.951 20.2107 24.7821 20.1197 24.591 20.098C24.3954 20.0764 24.2132 20.137 24.0354 20.28C23.9554 20.3407 23.8621 20.436 23.751 20.5704L24.6754 21.684L24.671 21.6797Z" fill="white"/>
<path d="M33.2177 17.1078L31.9866 17.6842L32.0133 18.2735C32.0177 18.4208 32.0355 18.5205 32.0666 18.5812C32.0889 18.6288 32.1333 18.6592 32.1955 18.6722C32.2577 18.6852 32.3689 18.6635 32.5289 18.6028L32.5689 18.6895L31.5644 19.1575L31.5244 19.0708C31.6444 18.9842 31.7155 18.9148 31.7377 18.8585C31.7822 18.7458 31.7955 18.5595 31.7822 18.2865L31.6444 15.2055L31.7244 15.1665L34.1066 17.2292C34.2977 17.3938 34.4444 17.4935 34.5466 17.5195C34.6489 17.5455 34.7689 17.5325 34.9022 17.4805L34.9422 17.5672L33.6844 18.1565L33.6444 18.0698C33.7689 18.0048 33.8444 17.9442 33.8711 17.8878C33.8977 17.8315 33.8977 17.7795 33.8711 17.7275C33.84 17.6625 33.7555 17.5672 33.6222 17.4545L33.2089 17.0992L33.2177 17.1078ZM33.0666 16.9692L31.9066 15.9682L31.9689 17.4848L33.0622 16.9735L33.0666 16.9692Z" fill="white"/>
<path d="M40.8799 12.1938L41.1466 13.3551L41.0532 13.3768C40.9732 13.1601 40.8755 12.9955 40.7688 12.8785C40.6577 12.7615 40.5244 12.6835 40.3599 12.6358C40.1955 12.5881 40.0355 12.5838 39.8799 12.6185C39.7021 12.6575 39.5688 12.7398 39.4799 12.8698C39.3866 12.9998 39.3599 13.1298 39.391 13.2641C39.4132 13.3681 39.471 13.4505 39.5644 13.5198C39.6977 13.6195 39.9866 13.7321 40.4266 13.8535C40.7866 13.9531 41.0355 14.0311 41.1777 14.0961C41.3155 14.1611 41.431 14.2478 41.5244 14.3561C41.6177 14.4645 41.6755 14.5858 41.7066 14.7201C41.7644 14.9758 41.7155 15.2141 41.5555 15.4438C41.3955 15.6735 41.1555 15.8208 40.8355 15.8901C40.7332 15.9118 40.6399 15.9248 40.5466 15.9291C40.4932 15.9291 40.3777 15.9291 40.1999 15.9118C40.0221 15.8945 39.911 15.8945 39.8666 15.9031C39.8221 15.9118 39.7955 15.9335 39.7732 15.9638C39.751 15.9941 39.7466 16.0505 39.7555 16.1285L39.6621 16.1501L39.3955 14.9975L39.4888 14.9758C39.5866 15.2055 39.6888 15.3745 39.791 15.4785C39.8932 15.5825 40.031 15.6561 40.1999 15.7038C40.3732 15.7515 40.551 15.7515 40.7332 15.7125C40.9466 15.6648 41.1021 15.5738 41.1999 15.4395C41.2977 15.3051 41.3288 15.1621 41.2932 15.0105C41.2755 14.9281 41.231 14.8501 41.1644 14.7765C41.0977 14.7028 41.0088 14.6378 40.8932 14.5901C40.8177 14.5555 40.6088 14.4905 40.2799 14.3908C39.9466 14.2955 39.7066 14.2131 39.5599 14.1438C39.4132 14.0745 39.2932 13.9921 39.2044 13.8881C39.1155 13.7885 39.0532 13.6671 39.0221 13.5285C38.9688 13.2858 39.0132 13.0605 39.1644 12.8438C39.3155 12.6271 39.5377 12.4885 39.831 12.4235C40.0132 12.3845 40.2177 12.3845 40.4444 12.4235C40.5466 12.4451 40.6221 12.4495 40.6577 12.4408C40.7021 12.4321 40.7332 12.4105 40.7555 12.3801C40.7777 12.3498 40.7866 12.2935 40.7866 12.2111L40.8799 12.1895V12.1938Z" fill="white"/>
<path d="M49.5732 14.2697C49.7021 14.5124 49.5999 14.7854 49.4754 14.9154C49.3599 15.0367 49.2176 15.0757 49.0532 15.0454C48.9643 15.0281 48.8754 14.9977 48.7865 14.9761C48.7021 14.9544 48.6176 14.9371 48.5288 14.9501C48.4665 14.9587 48.4132 14.9804 48.3599 15.0021C48.2843 15.0324 48.2088 15.0671 48.1288 15.0931C47.9288 15.1581 47.6932 15.0757 47.5821 14.9024C47.4799 14.7421 47.4576 14.5687 47.5243 14.3867C47.6132 14.1397 47.7688 13.9404 47.991 13.7931C48.271 13.6067 48.5732 13.5634 48.8976 13.6717C49.111 13.7454 49.2888 13.8754 49.431 14.0487C49.4888 14.1137 49.5332 14.1874 49.5732 14.2697Z" fill="white"/>
<path d="M48.5289 13.2772C48.4889 13.1905 48.4711 13.1038 48.48 13.0085C48.4889 12.8872 48.52 12.7702 48.5734 12.6575C48.5956 12.6142 48.6222 12.5752 48.6534 12.5405C48.7111 12.4885 48.7778 12.4668 48.8578 12.4755C48.9378 12.4885 49.0089 12.5232 49.0711 12.5708C49.16 12.6358 49.2311 12.7182 49.2756 12.8178C49.3467 12.9608 49.3378 13.1038 49.2622 13.2425C49.2134 13.3378 49.1422 13.4158 49.04 13.4635C48.8711 13.5458 48.6756 13.4938 48.5645 13.3422C48.5467 13.3205 48.5334 13.2945 48.52 13.2728L48.5289 13.2772Z" fill="white"/>
<path d="M48.2399 12.7745C48.2888 12.8871 48.3288 12.9825 48.3377 13.0865C48.3466 13.2208 48.3199 13.3465 48.2266 13.4505C48.1199 13.5718 47.9511 13.6065 47.8044 13.5458C47.6933 13.4981 47.6088 13.4201 47.5511 13.3161C47.4533 13.1428 47.4755 12.9738 47.5777 12.8091C47.6311 12.7225 47.7022 12.6488 47.7955 12.5968C47.8666 12.5578 47.9422 12.5361 48.0266 12.5621C48.0933 12.5838 48.1377 12.6271 48.1777 12.6791C48.2044 12.7181 48.2311 12.7615 48.2444 12.7831L48.2399 12.7745Z" fill="white"/>
<path d="M47.5821 13.559C47.6177 13.6413 47.6488 13.715 47.6577 13.793C47.6621 13.858 47.6577 13.923 47.6265 13.9793C47.5554 14.1353 47.3777 14.1873 47.231 14.092C47.0665 13.9837 46.9865 13.7843 47.1154 13.5763C47.1599 13.5026 47.2177 13.442 47.2977 13.403C47.3777 13.3683 47.4532 13.3813 47.511 13.4463C47.5199 13.4593 47.5332 13.468 47.5421 13.481C47.5599 13.507 47.5732 13.533 47.5865 13.5503L47.5821 13.559Z" fill="white"/>
<path d="M49.6933 13.8967C49.5645 13.9574 49.4222 13.9097 49.3511 13.7884C49.3022 13.7061 49.2889 13.6194 49.3022 13.5241C49.3156 13.4417 49.3333 13.3637 49.3733 13.2857C49.3956 13.2424 49.4267 13.2034 49.48 13.1817C49.5289 13.1601 49.5822 13.1644 49.6267 13.1861C49.7778 13.2554 49.8756 13.3681 49.8978 13.5284C49.9156 13.6671 49.8222 13.8274 49.6933 13.8881V13.8967Z" fill="white"/>
<path d="M13.6 56.3074C13.8667 56.225 14.1289 56.368 14.2356 56.511C14.3378 56.641 14.3556 56.784 14.2934 56.9357C14.2578 57.018 14.2178 57.1004 14.1778 57.1827C14.1422 57.2607 14.1111 57.3387 14.1067 57.4254C14.1067 57.486 14.12 57.5424 14.1334 57.5987C14.1511 57.6767 14.1734 57.7547 14.1867 57.837C14.2178 58.0407 14.0978 58.253 13.9022 58.331C13.72 58.4047 13.5422 58.396 13.3734 58.3007C13.1378 58.1707 12.9645 57.9887 12.8534 57.7504C12.7111 57.4514 12.72 57.1524 12.8845 56.862C12.9956 56.667 13.1556 56.524 13.3556 56.4114C13.4311 56.368 13.5156 56.3334 13.6045 56.3117L13.6 56.3074Z" fill="white"/>
<path d="M12.4176 57.1391C12.3243 57.1607 12.2309 57.1651 12.1376 57.1391C12.0176 57.1087 11.9021 57.0611 11.7998 56.9917C11.7598 56.9657 11.7243 56.9311 11.6976 56.8921C11.6532 56.8271 11.6443 56.7577 11.6665 56.6841C11.6932 56.6061 11.7421 56.5454 11.7998 56.4934C11.8798 56.4197 11.9776 56.3677 12.0843 56.3374C12.2398 56.2941 12.3821 56.3287 12.5109 56.4197C12.5998 56.4847 12.6665 56.5671 12.6976 56.6711C12.7509 56.8487 12.6665 57.0264 12.4932 57.1044C12.4665 57.1174 12.4398 57.1261 12.4132 57.1347L12.4176 57.1391Z" fill="white"/>
<path d="M11.8576 57.3343C11.982 57.304 12.0843 57.2823 12.1865 57.291C12.3243 57.304 12.4443 57.3517 12.5332 57.46C12.6354 57.5813 12.6443 57.7503 12.5554 57.8803C12.4887 57.98 12.3954 58.045 12.2798 58.084C12.0887 58.149 11.9198 58.097 11.7732 57.9713C11.6932 57.9063 11.6309 57.824 11.5954 57.7287C11.5643 57.6507 11.5554 57.577 11.5954 57.499C11.6265 57.4427 11.6798 57.4037 11.7376 57.3733C11.782 57.3517 11.8309 57.3387 11.8532 57.3257L11.8576 57.3343Z" fill="white"/>
<path d="M12.5421 58.1012C12.631 58.0838 12.711 58.0622 12.791 58.0708C12.8577 58.0752 12.9199 58.0968 12.9777 58.1358C13.1199 58.2312 13.1421 58.4132 13.0221 58.5345C12.8843 58.6732 12.671 58.7165 12.4799 58.5605C12.4132 58.5042 12.3599 58.4392 12.3377 58.3568C12.3154 58.2745 12.3421 58.2008 12.4177 58.1575C12.431 58.1488 12.4443 58.1402 12.4577 58.1358C12.4843 58.1228 12.5154 58.1142 12.5377 58.1055L12.5421 58.1012Z" fill="white"/>
<path d="M13.24 56.1294C13.2755 56.2594 13.2088 56.3937 13.0711 56.4414C12.9777 56.4717 12.8888 56.4761 12.7955 56.4414C12.7155 56.4154 12.6355 56.3851 12.5688 56.3331C12.5288 56.3027 12.4933 56.2637 12.4844 56.2161C12.4711 56.1641 12.4844 56.1164 12.5155 56.0774C12.6088 55.9431 12.7422 55.8694 12.9111 55.8737C13.0533 55.878 13.2 55.9994 13.24 56.1294Z" fill="white"/>
<path d="M82.1423 60.6666C81.8623 60.6883 81.6445 60.489 81.5689 60.3286C81.5023 60.177 81.5156 60.034 81.6134 59.8996C81.6667 59.826 81.7289 59.7566 81.7823 59.6873C81.8356 59.6223 81.8845 59.553 81.9067 59.4663C81.9245 59.41 81.92 59.3493 81.92 59.293C81.92 59.2106 81.92 59.1326 81.92 59.0503C81.9378 58.8466 82.1067 58.6646 82.3112 58.6343C82.5023 58.604 82.6756 58.6516 82.8178 58.7816C83.0134 58.9593 83.1423 59.176 83.1956 59.4316C83.2623 59.7566 83.1867 60.047 82.9556 60.2896C82.8045 60.4543 82.6089 60.5583 82.3912 60.6233C82.3067 60.6493 82.2178 60.6623 82.1289 60.6666H82.1423Z" fill="white"/>
<path d="M83.4888 60.1118C83.5865 60.1118 83.6754 60.1291 83.7599 60.1724C83.871 60.2288 83.9688 60.3024 84.0532 60.3934C84.0843 60.4281 84.111 60.4671 84.1288 60.5104C84.1554 60.5841 84.151 60.6534 84.111 60.7184C84.0665 60.7878 84.0088 60.8354 83.9377 60.8744C83.8399 60.9308 83.7377 60.9568 83.6221 60.9611C83.4577 60.9698 83.3288 60.9048 83.2221 60.7834C83.151 60.7011 83.1065 60.6058 83.0977 60.4974C83.0843 60.3111 83.2088 60.1551 83.3999 60.1204C83.4265 60.1161 83.4577 60.1118 83.4843 60.1074L83.4888 60.1118Z" fill="white"/>
<path d="M84.0755 60.0468C83.9466 60.0468 83.8444 60.0468 83.7422 60.0164C83.6088 59.9731 83.5066 59.8994 83.4444 59.7738C83.3733 59.6308 83.4044 59.4661 83.5199 59.3578C83.6088 59.2754 83.7155 59.2321 83.8355 59.2191C84.0399 59.1974 84.1866 59.2841 84.3022 59.4401C84.3644 59.5224 84.4044 59.6134 84.4177 59.7174C84.4266 59.7998 84.4177 59.8734 84.3599 59.9384C84.3155 59.9904 84.2577 60.0164 84.1911 60.0294C84.1422 60.0381 84.0933 60.0424 84.0666 60.0468H84.0755Z" fill="white"/>
<path d="M83.5911 59.15C83.5022 59.15 83.4177 59.15 83.3377 59.124C83.2755 59.1023 83.2177 59.072 83.1733 59.02C83.0533 58.8943 83.0755 58.7167 83.2222 58.6213C83.3866 58.5173 83.6088 58.5217 83.7555 58.7167C83.8088 58.786 83.8444 58.8597 83.8488 58.9463C83.8488 59.033 83.8088 59.098 83.7244 59.124C83.7111 59.1283 83.6933 59.1327 83.6799 59.137C83.6488 59.1413 83.6177 59.1457 83.5955 59.15H83.5911Z" fill="white"/>
<path d="M82.4533 60.918C82.4488 60.7793 82.5466 60.671 82.6888 60.6536C82.7866 60.6406 82.8755 60.6623 82.9555 60.71C83.0266 60.7533 83.0977 60.801 83.151 60.866C83.1822 60.905 83.2088 60.9483 83.2088 61.0003C83.2088 61.0523 83.1822 61.0956 83.1466 61.1303C83.0222 61.2386 82.8799 61.282 82.7155 61.243C82.5777 61.2083 82.4622 61.0566 82.4577 60.918H82.4533Z" fill="white"/>
</g>
<defs>
<clipPath id="clip0_8117_3471">
<rect width="80" height="78" fill="white" transform="translate(8 9)"/>
</clipPath>
</defs>
</svg>
