<svg width="224" height="224" viewBox="0 0 224 224" fill="none" xmlns="http://www.w3.org/2000/svg">
<path d="M94.5503 223.959C91.9343 223.959 89.256 223.917 86.5778 223.689C83.6919 223.44 81.1589 223.004 78.8128 222.382C60.8953 217.549 54.8328 200.727 60.7707 172.372C67.6637 139.515 79.0827 111.264 94.7372 88.426C103.333 75.8975 114.959 66.9574 126.627 63.9082C127.915 63.5763 129.243 63.9082 130.24 64.7794C131.237 65.6713 131.735 66.9989 131.548 68.3264L131.486 68.7205C130.863 73.1802 130.24 77.785 132.939 80.9794C134.039 82.2862 135.638 83.1781 137.341 84.1323C138.026 84.5057 138.711 84.8998 139.375 85.3146C142.053 86.9741 144.379 89.1313 146.268 91.6826C150.13 96.8476 149.279 98.5277 148.988 99.0878C148.718 99.6271 148.261 100.021 147.701 100.249C148.822 101.038 149.818 101.909 150.711 102.842C153.867 106.14 155.092 109.853 154.116 113.317C152.248 120.017 146.206 125.618 138.752 127.588C137.029 128.045 135.244 128.314 133.5 128.563C128.828 129.248 124.8 129.828 122.641 133.728C122.205 134.516 121.935 135.387 121.79 136.321C121.25 140.117 122.62 144.037 125.984 148.269C130.198 153.579 135.97 157.665 141.576 161.648C147.825 166.066 154.282 170.65 158.912 177.039C164.04 184.153 166.241 192.865 164.912 200.934C163.48 209.646 157.895 217.259 150.317 220.785C144.047 223.71 136.946 223.751 130.697 223.793L97.2494 224C96.3358 224 95.4223 224 94.488 224L94.5503 223.959ZM86.8892 219.893C90.3357 220.183 93.8652 220.163 97.2701 220.142L130.717 219.935C136.593 219.893 143.237 219.852 148.76 217.279C155.217 214.272 159.992 207.759 161.196 200.27C162.359 193.197 160.407 185.522 155.86 179.217C151.625 173.347 145.687 169.136 139.417 164.697C133.603 160.569 127.582 156.317 123.036 150.592C118.987 145.489 117.368 140.635 118.053 135.74C118.24 134.35 118.676 133.043 119.34 131.861C122.392 126.302 128.018 125.472 132.981 124.746C134.683 124.498 136.282 124.269 137.797 123.855C143.984 122.216 148.967 117.673 150.483 112.239C151.272 109.397 149.258 106.763 147.991 105.435C147.016 104.419 145.832 103.464 144.503 102.635C144.441 102.593 144.317 102.531 144.192 102.469C142.988 101.826 141.14 100.83 141.078 99.067C141.078 98.6314 141.161 97.5321 142.386 96.7438C143.299 96.163 144.254 96.329 144.877 96.4949C144.42 95.6652 143.797 94.6903 143.237 93.9436C141.638 91.8071 139.604 89.9195 137.382 88.5298C136.78 88.1564 136.136 87.8038 135.513 87.4511C133.603 86.3725 131.61 85.2732 130.074 83.4478C126.254 78.9466 127.043 73.2424 127.749 68.2019L127.811 67.8286C127.811 67.7456 127.769 67.6834 127.749 67.6419C116.828 70.4214 105.99 78.8222 97.9137 90.604C82.5292 113.027 71.297 140.801 64.5286 173.181C59.089 199.213 64.2172 214.541 79.8301 218.752C81.9479 219.333 84.2732 219.706 86.9307 219.935L86.8892 219.893Z" fill="#72A45C"/>
<path d="M185.57 165.921C184.407 165.921 183.224 165.921 182.061 165.879C166.988 165.568 150.295 164.012 143.008 149.202C141.181 145.489 141.907 143.083 142.842 141.714C144.42 139.391 147.825 138.25 152.226 138.602C161.237 139.328 169.479 137.897 176.061 134.433C183.12 130.72 188.393 124.414 190.2 117.549L161.444 96.8475C160.302 96.0178 159.742 94.5865 160.033 93.1968C160.323 91.807 161.361 90.7699 162.732 90.4795C163.105 90.3965 163.458 90.3343 163.832 90.3136C163.188 88.5504 161.548 85.5635 160.78 84.4226C158.6 81.2283 155.859 78.4695 152.828 76.4367C152.268 76.0634 151.666 75.7107 151.043 75.3374C148.78 74.0098 146.226 72.4956 144.897 69.6954C143.963 67.7248 143.88 65.3186 144.71 63.0992C146.143 59.2203 147.472 55.4244 148.157 51.4625C148.219 51.0477 148.157 50.6743 147.908 50.3839C147.7 50.1143 147.368 49.9691 146.973 49.9483C126.959 49.1186 105.948 59.0959 90.6879 76.6027C77.7325 91.4752 68.3897 111.637 62.1196 138.229L61.9535 138.914C60.3341 145.779 58.507 153.558 52.9636 158.723C48.2506 163.12 41.3162 165.257 31.745 165.257H31.392C23.7516 165.215 13.3914 163.639 7.41203 156.337C0.685178 148.165 0.103842 138.727 0.0830801 129.766L3.39002e-05 96.0178C3.39002e-05 89.4009 -0.0414912 81.9128 2.78212 75.1922C6.29088 66.7914 14.3673 60.3197 23.3571 58.7017C27.2811 57.9965 31.2259 58.1624 35.0461 58.3284C36.8731 58.4113 38.7625 58.4943 40.5895 58.4736C47.1295 58.4113 51.884 56.7727 54.7283 53.6198C58.7561 49.1809 58.507 42.7299 58.2579 35.9056C58.154 33.0223 58.0502 30.0354 58.2579 27.1729C59.1091 16.4904 65.4622 6.99029 74.4314 2.96621C80.8468 0.0829791 88.0719 0.0622364 94.4458 0.0622364L127.976 4.61991e-06C134.537 4.61991e-06 141.949 -0.0207368 148.614 2.71729C157.541 6.368 164.185 14.8932 165.576 24.4141C166.116 28.0648 165.95 31.8815 165.784 35.5944C165.493 42.398 165.223 48.849 169.209 53.3709C172.158 56.7104 177.161 58.4528 184.075 58.5565C185.84 58.5773 187.687 58.5151 189.473 58.4528C193.646 58.3076 197.965 58.1624 202.2 59.0751C210.484 60.859 217.73 66.7914 221.093 74.5699C224 81.249 224 88.7164 224 95.3125V128.812C224 131.405 224 134.433 223.792 137.42C223.439 142.17 222.484 149.14 218.207 154.782C211.065 164.22 198.504 165.962 185.507 165.962L185.57 165.921ZM150.69 142.336C148.406 142.336 146.62 142.896 145.977 143.83C145.312 144.805 145.852 146.36 146.413 147.501C152.766 160.403 167.548 161.772 182.144 162.062C195.328 162.332 208.47 161.357 215.238 152.438C218.041 148.746 219.557 143.871 220.055 137.109C220.263 134.267 220.284 131.322 220.284 128.77V95.2711C220.284 89.0483 220.284 81.9958 217.668 76.0426C214.782 69.3842 208.553 64.3023 201.453 62.7673C197.674 61.9583 193.771 62.0828 189.66 62.228C187.833 62.2902 185.943 62.3525 184.075 62.3317C176.04 62.228 170.081 60.05 166.406 55.86C161.424 50.1973 161.735 42.6884 162.047 35.4285C162.192 31.9022 162.358 28.2723 161.88 24.9534C160.676 16.7393 154.946 9.37569 147.243 6.2228C141.264 3.77517 134.205 3.77517 128.059 3.79592L94.5289 3.85814C88.5494 3.85814 81.7603 3.87888 76.0716 6.43023C68.3481 9.89425 62.867 18.1706 62.1196 27.4633C61.912 30.0976 62.0158 32.9808 62.1196 35.7604C62.3895 43.041 62.6594 50.5914 57.5935 56.1711C54.0017 60.133 48.2922 62.1865 40.6726 62.2695C38.7625 62.2695 36.8108 62.2073 34.9215 62.1243C31.1429 61.9583 27.5718 61.8131 24.063 62.4354C16.3189 63.8252 9.36364 69.405 6.33241 76.6441C3.82022 82.6595 3.84098 89.7535 3.84098 95.9971L3.92403 129.745C3.94479 140.096 5.00365 147.377 10.381 153.911C15.4261 160.05 24.6236 161.399 31.4543 161.44C31.5581 161.44 31.6827 161.44 31.7865 161.44C40.3196 161.44 46.4236 159.636 50.3891 155.923C55.0813 151.546 56.7007 144.659 58.2579 138.022L58.424 137.337C64.8394 110.123 74.4521 89.4424 87.8228 74.0928C103.83 55.7148 125.983 45.302 147.139 46.1317C148.614 46.1939 149.984 46.8577 150.877 47.9778C151.79 49.0979 152.164 50.6121 151.915 52.0848C151.167 56.3578 149.776 60.3404 148.281 64.3852C147.825 65.6505 147.845 66.9781 148.344 68.0152C149.174 69.7576 151.022 70.8569 152.994 72.0185C153.659 72.4126 154.323 72.8068 154.946 73.2216C158.434 75.5448 161.465 78.5732 163.936 82.2447C164.476 83.0329 169.106 90.0232 167.548 92.7819C167.071 93.6116 166.157 94.0472 165.182 94.0265C164.829 94.0265 164.496 94.0265 164.143 94.068L192.546 114.541C193.729 115.391 194.269 116.885 193.937 118.275C191.923 126.261 185.902 133.562 177.826 137.794C170.6 141.589 161.652 143.166 151.915 142.398C151.499 142.357 151.084 142.357 150.69 142.357V142.336Z" fill="#72A45C"/>
</svg>
