<svg width="83" height="72" viewBox="0 0 83 72" fill="none" xmlns="http://www.w3.org/2000/svg">
<path d="M30.6002 59.9998L31.3002 66.5998C31.3002 66.5998 24.8002 67.3998 25.6002 68.2998L26.7002 68.5998C26.7002 68.5998 25.6002 69.3998 26.7002 69.6998C27.8002 69.9998 28.0002 69.6998 28.0002 69.6998C28.0002 69.6998 27.3002 70.8998 28.3002 71.0998C29.3002 71.2998 31.6002 69.4998 32.7002 68.2998C32.1002 63.9998 31.9002 59.7998 31.9002 60.0998C31.9002 60.3998 30.5002 60.0998 30.5002 60.0998L30.6002 59.9998Z" fill="#E06F19"/>
<path d="M42.1003 59.5998L43.9003 65.9998C43.9003 65.9998 37.6003 67.8998 38.6003 68.6998H39.8002C39.8002 68.7998 38.9003 69.7998 40.0003 69.8998C41.1003 69.8998 41.3002 69.6998 41.3002 69.6998C41.3002 69.6998 40.8002 70.9998 41.8002 70.9998C42.9002 70.9998 44.8003 68.8998 45.6003 67.3998C44.2003 63.2998 43.3002 59.1998 43.3002 59.4998C43.3002 59.6998 42.0003 59.6998 42.0003 59.6998L42.1003 59.5998Z" fill="#E06F19"/>
<path d="M7.40015 29.2998C8.70015 43.4998 14.9001 57.7998 31.9001 60.2998C49.3001 62.7998 59.3002 51.0998 61.7002 47.7998C41.3002 53.9998 18.8001 46.8998 7.40015 29.2998Z" fill="#FCAA1A"/>
<path d="M82.2003 38.9998C81.2003 35.8998 73.9002 35.6998 73.9002 35.6998L61.9002 34.9998C61.9002 34.9998 50.7002 25.5998 47.5002 18.3998C44.3002 11.1998 42.1002 -3.30024 23.0002 0.799758C23.0002 0.799758 7.30024 5.09976 7.00024 21.3998C7.00024 23.8998 7.00025 26.5998 7.30025 29.1998C18.7002 46.7998 41.2002 53.8998 61.6003 47.6998C62.0003 47.1998 62.2003 46.8998 62.2003 46.8998C62.2003 46.8998 62.4003 47.0998 62.7003 47.3998C64.8003 49.1998 72.6003 55.2998 76.1003 52.7998C77.9003 50.8998 77.0002 48.7998 77.0002 48.7998C77.0002 48.7998 81.0002 48.3998 80.3002 44.5998C80.2002 43.8998 79.0002 42.8998 79.0002 42.8998C79.0002 42.8998 83.3003 42.7998 82.2003 39.0998V38.9998Z" fill="#FDBC2D"/>
<path d="M57.0002 40.2997C57.0002 40.2997 69.9002 52.5997 72.2002 50.8997C74.5002 49.1997 69.6002 45.5997 69.6002 45.5997C69.6002 45.5997 74.0001 46.9997 75.8001 45.5997C78.5001 43.4997 72.3001 40.2997 72.3001 40.2997C72.3001 40.2997 76.4002 42.1997 78.2002 40.2997C79.9002 38.3997 76.0001 36.5997 73.4001 36.2997C70.8001 36.0997 60.8001 34.6997 60.8001 34.6997C60.8001 34.6997 62.2001 39.0997 56.9001 37.1997C56.9001 37.1997 58.8001 39.9997 56.9001 40.2997H57.0002Z" fill="#FCAA1A"/>
<path d="M22.3002 18.6998C22.3002 19.5998 21.7002 20.3998 21.0002 20.3998C20.3002 20.3998 19.7002 19.5998 19.7002 18.6998C19.7002 17.7998 20.3002 16.9998 21.0002 16.9998C21.7002 16.9998 22.3002 17.7998 22.3002 18.6998Z" fill="#0B0703"/>
<path d="M1.90017 16.1997C1.90017 16.1997 0.700171 16.1997 1.70017 17.3997C2.70017 18.5997 10.4002 22.9997 10.4002 22.9997C10.4002 22.9997 11.2002 22.9997 12.0002 21.6997C12.9002 20.4997 1.80018 16.2997 1.80018 16.2997L1.90017 16.1997Z" fill="#E06F19"/>
<path d="M11.5002 22.1997C11.5002 22.1997 0.400188 16.7997 0.900188 15.7997C1.40019 14.7997 12.0002 17.3997 12.0002 17.3997C12.0002 17.3997 12.8002 20.9997 11.4002 22.1997H11.5002Z" fill="#F18A2B"/>
<path d="M29.0001 29.3997C31.1001 32.8997 34.2001 36.2997 37.1001 39.1997C39.9001 42.0997 42.9001 45.0997 46.9001 46.3997C51.5001 47.8997 56.9001 45.7997 53.6001 40.7997C53.6001 40.6997 53.8001 41.1997 54.0001 41.1997C55.1001 41.4997 55.9001 41.5997 57.1001 41.3997C58.8001 41.0997 58.5001 38.9997 57.9001 37.9997C56.8001 36.0997 58.5001 38.5997 60.3001 37.5997C61.9001 36.6997 60.8001 34.3997 60.1001 33.2997C60.0001 33.0997 59.6001 33.2997 59.7001 33.4997C61.4001 35.3997 61.1001 38.2997 56.7001 36.1997C56.5001 35.9997 56.2001 36.1997 56.4001 36.3997C58.0001 38.0997 58.8001 42.0997 52.5001 39.7997C52.5001 39.7997 52.2001 39.7997 52.3001 39.8997C54.0001 41.6997 55.4001 44.5997 51.6001 46.1997C50.1001 46.6997 48.3001 46.1997 46.9001 45.7997C44.0001 44.9997 41.9001 42.9997 39.8001 41.0997C36.0001 37.6997 31.8001 33.4997 29.0001 29.1997C29.0001 29.1997 28.8001 29.1997 28.9001 29.1997L29.0001 29.3997Z" fill="#DD8C3A"/>
</svg>
