<svg width="130" height="130" viewBox="0 0 130 130" fill="none" xmlns="http://www.w3.org/2000/svg">
<path d="M28.834 27.3261C32.89 25.4021 31.044 18.6941 29.822 13.9621C29.744 13.2081 29.744 12.4281 29.822 11.6221C28.08 11.8041 26.234 12.2461 24.258 12.9221C20.566 14.2481 17.316 16.4581 14.612 19.1881C19.682 22.6201 23.322 29.5881 28.834 27.3001V27.3261Z" fill="#A8622A"/>
<path d="M8.50202 39.5459C9.88002 37.5699 11.258 35.5939 11.96 34.2679C13.416 31.0699 13 26.8839 10.4 24.5439C7.33202 29.3799 5.61602 34.8919 5.48602 39.8059C5.48602 40.5599 5.48602 41.2879 5.53802 41.9899C6.70802 41.2879 7.72202 40.5079 8.50202 39.5459Z" fill="#A8622A"/>
<path d="M45.162 19.7861C43.784 15.1321 38.194 10.7121 29.822 11.6481C29.744 12.4281 29.744 13.2081 29.822 13.9881C31.044 18.6941 32.916 25.4281 28.834 27.3521C23.322 29.6401 19.682 22.6721 14.612 19.2401C13 20.8781 11.596 22.6721 10.374 24.5961C12.974 26.9361 13.39 31.1221 11.934 34.3201C11.232 35.6461 9.85402 37.6221 8.47602 39.5981C7.72202 40.5601 6.68202 41.3401 5.51202 42.0421C6.13602 50.9081 11.7 56.3941 11.7 56.3941C11.7 56.3941 31.772 53.9501 26.26 51.4281C24.544 50.6481 23.374 49.6341 22.542 48.5421C22.256 48.3601 21.944 48.1521 21.658 47.9181C17.706 45.1621 15.184 39.0781 17.29 33.7741C17.29 33.0981 19.344 31.1481 21.346 31.8501C29.068 35.0221 40.56 36.1141 45.942 29.1981C46.514 26.1561 46.046 22.8541 45.136 19.8121L45.162 19.7861Z" fill="#EFA14B"/>
<path d="M27.326 40.092C31.564 40.196 36.842 40.014 41.938 35.958C44.278 34.112 45.5 31.72 45.968 29.146C40.612 36.088 29.094 34.97 21.372 31.798C19.37 31.07 17.342 33.046 17.316 33.722C15.184 39.026 17.732 45.11 21.684 47.866C21.97 48.1 22.282 48.308 22.568 48.49C20.774 46.072 20.696 43.16 20.28 40.924C19.682 37.674 23.088 39.988 27.326 40.092Z" fill="#DD8C3A"/>
<path d="M28.158 104.624C27.508 106.652 26.936 108.264 26.936 108.264C28.73 108.472 30.732 109.876 31.798 110.734C34.424 109.876 47.216 115.414 60.06 112.71C73.32 109.902 77.402 112.736 83.954 114.296C78.676 110.994 78.13 109.46 77.48 108.082C77.142 108.056 76.778 108.004 76.44 107.978C60.606 106.34 43.42 111.306 28.132 104.624H28.158Z" fill="#DD8C3A"/>
<path d="M99.3201 106.964C100.62 106.652 104.338 106.158 106.002 105.352C106.314 105.196 106.626 105.118 106.912 105.066L107.458 104.286C103.038 104.312 98.6181 104.754 94.0941 105.768C95.5241 106.08 97.6561 106.574 99.3201 106.938V106.964Z" fill="#DD8C3A"/>
<path d="M105.274 98.2018C104.832 97.4998 104.286 96.7458 103.48 95.9398C101.504 93.9638 98.8001 95.6798 96.3561 95.7318C94.6661 95.7578 92.638 95.3678 90.688 95.8358C95.238 99.1118 101.556 101.868 105.274 98.2018Z" fill="#DD8C3A"/>
<path d="M111.254 117.416C111.28 117.416 111.306 117.364 111.332 117.364C110.786 117.572 110.24 117.702 109.668 117.728C110.136 117.806 110.682 117.754 111.254 117.416Z" fill="#EFA14B"/>
<path d="M105.118 111.982C96.148 110.5 86.554 108.992 77.506 108.082C78.13 109.486 78.676 110.994 83.98 114.296C84.656 114.452 85.384 114.608 86.138 114.738C86.216 114.738 86.268 114.738 86.346 114.764C86.996 114.868 87.62 114.972 88.244 115.05C89.622 115.258 90.87 115.44 92.04 115.596C92.612 115.674 93.184 115.752 93.73 115.804C96.226 116.09 98.384 116.246 100.594 116.246C101.322 116.246 102.05 116.246 102.804 116.22C103.272 116.22 103.766 116.194 104.26 116.168C104.26 116.168 104 118.274 106.938 118.456C108.316 118.482 108.602 117.988 108.654 117.624C107.64 117.442 106.626 116.922 105.716 115.96C105.066 115.284 104.442 113.256 105.144 111.93L105.118 111.982Z" fill="#DD8C3A"/>
<path d="M20.228 110.708C5.35601 103.688 2.34001 85.3579 3.14601 69.0039C-0.857993 82.2639 -0.155994 92.5079 6.21401 100.568C12.922 109.07 15.236 108.922 15.236 108.922C15.236 108.922 14.898 113.81 20.696 114.174C26.13 114.512 31.512 115.31 31.46 112.216C27.508 112.58 23.66 112.294 20.254 110.682L20.228 110.708Z" fill="#DD8C3A"/>
<path d="M102.83 87.5941L70.668 71.5261L67.652 70.0181C67.652 70.0181 66.352 70.0701 64.402 69.8101C61.048 80.6781 61.282 93.8861 74.724 97.2661C79.092 98.2541 83.772 98.3581 88.01 97.2141C88.062 97.1621 88.088 97.1361 88.14 97.0841C89.362 96.0701 90.74 95.7321 92.092 95.6281C92.82 95.2381 93.522 94.8221 94.198 94.3281C97.214 92.2221 100.126 89.9601 102.856 87.5681L102.83 87.5941Z" fill="#DD8C3A"/>
<path d="M107.172 89.7518L102.83 87.5938C100.1 90.0117 97.188 92.2477 94.172 94.3537C93.496 94.8217 92.794 95.2637 92.066 95.6537C93.574 95.5497 95.082 95.7837 96.356 95.7577C98.8 95.7057 101.504 93.9898 103.48 95.9658C104.572 97.0578 105.222 98.0978 105.716 98.9558C106.652 96.6158 107.38 94.1977 107.874 91.7277C107.38 90.6357 107.146 89.7777 107.146 89.7777L107.172 89.7518Z" fill="#DD8C3A"/>
<path d="M44.928 56.9398C43.732 55.9258 42.51 54.9898 41.21 54.2098C38.896 52.8058 36.374 51.8438 33.41 51.6098C33.254 51.6098 33.098 51.6098 32.942 51.5838C31.928 51.5058 30.784 51.4798 29.562 51.5058C25.116 58.3178 20.878 67.6778 28.444 72.7998C29.77 73.5018 31.122 72.8518 32.448 72.9038C37.18 71.0058 36.686 62.9718 42.718 62.4518C44.044 62.4778 45.344 64.5058 46.696 63.8818C47.892 63.2578 48.828 62.4258 49.582 61.4638C48.048 59.8778 46.514 58.3438 44.928 56.9658V56.9398Z" fill="#A8622A"/>
<path d="M126.048 108.212C125.216 108.212 114.036 99.034 113.36 98.436C111.436 96.694 110.578 95.68 109.356 94.172C108.706 93.366 108.212 92.456 107.848 91.676C107.354 94.146 106.626 96.564 105.69 98.904C105.846 99.19 106.002 99.45 106.132 99.684C105.872 99.242 105.586 98.748 105.248 98.176C101.53 101.842 95.212 99.06 90.662 95.81C89.778 96.018 88.894 96.382 88.062 97.058C88.01 97.084 87.984 97.136 87.932 97.188C83.694 98.332 79.014 98.202 74.646 97.24C64.818 94.77 62.062 87.048 62.608 78.806C61.178 81.25 59.254 83.512 56.862 85.462C55.484 86.762 52.13 87.36 50.856 85.332C46.488 78.442 50.258 71.292 52.442 64.402C51.948 63.908 51.48 63.414 51.012 62.946C50.518 62.452 50.024 61.932 49.556 61.438C48.828 62.4 47.892 63.206 46.67 63.856C45.318 64.506 44.018 62.452 42.692 62.426C36.66 62.946 37.154 70.98 32.422 72.878C31.096 72.852 29.744 73.476 28.418 72.774C20.852 67.652 25.09 58.318 29.536 51.48C20.8 51.584 7.95602 54.34 3.82202 66.742C3.56202 67.496 3.32802 68.25 3.12002 69.004C2.31402 85.332 5.33002 103.662 20.202 110.708C23.608 112.32 27.456 112.606 31.408 112.242C31.408 112.034 31.382 111.852 31.33 111.618C31.226 111.15 31.382 110.89 31.798 110.76C30.732 109.902 28.73 108.472 26.936 108.29C26.936 108.29 27.508 106.652 28.158 104.65C43.42 111.332 60.606 106.366 76.466 108.004C76.804 108.03 77.168 108.082 77.506 108.108C86.554 109.018 96.148 110.5 105.118 112.008C104.416 113.334 105.04 115.336 105.69 116.038C106.6 117 107.614 117.52 108.628 117.702C108.628 117.52 108.628 117.39 108.628 117.39C108.628 117.39 109.07 117.676 109.668 117.754C110.24 117.728 110.786 117.598 111.332 117.39C112.502 116.584 111.956 115.232 111.956 115.232C111.956 115.232 112.45 116.012 113.802 115.284C115.154 114.53 115.102 112.086 112.996 111.358C110.89 110.63 106.99 110.552 106.99 110.552C106.99 110.552 104.546 109.304 102.31 108.368C101.608 108.082 100.932 107.796 100.334 107.614C99.892 107.458 99.502 107.354 99.216 107.328C98.67 107.25 98.774 107.146 99.32 107.016C97.422 106.6 94.926 106.028 93.574 105.716C91.156 105.17 88.27 104.338 87.36 103.896C86.918 103.662 86.45 102.492 86.45 101.114C86.45 100.958 86.45 100.776 86.45 100.62C86.45 100.802 86.45 100.958 86.45 101.114C86.45 102.492 86.918 103.636 87.36 103.87C88.27 104.312 91.182 105.144 93.574 105.69C93.73 105.716 93.912 105.768 94.094 105.82C98.618 104.78 103.064 104.364 107.458 104.338L107.9 103.714L107.484 104.312C111.384 105.56 118.378 110.734 124.436 111.592C126.672 111.956 128.258 111.852 129.324 110.006C128.466 108.654 127.218 108.238 126.048 108.238V108.212Z" fill="#EFA14B"/>
<path d="M50.908 85.3319C52.208 87.3599 55.562 86.7879 56.914 85.4619C59.306 83.5119 61.23 81.2499 62.66 78.8059C62.868 75.7899 63.492 72.6959 64.402 69.7839C64.168 69.7579 63.96 69.7319 63.7 69.6799C62.66 69.5239 61.49 69.2639 60.268 68.8999C58.162 68.2499 55.9 67.2359 53.872 65.6499C53.404 65.2599 52.936 64.8699 52.494 64.4019C50.31 71.2659 46.54 78.4419 50.908 85.3319Z" fill="#A8622A"/>
<path d="M129.246 109.746C127.686 111.202 125.45 111.774 123.396 110.76C117.832 108.186 113.022 105.872 107.328 104.208L106.548 104.806C107.328 104.936 107.328 105.352 108.03 105.898C108.524 106.288 109.07 106.756 109.772 107.224C110.422 107.64 111.176 108.082 112.138 108.42C116.116 109.902 118.482 110.214 118.482 110.214C118.482 110.214 118.69 113.516 121.056 113.802C123.422 114.114 123.292 112.892 123.292 112.892C123.292 112.892 123.5 114.01 125.346 114.14C127.166 114.27 127.088 112.424 127.088 112.424C127.088 112.424 129.09 113.126 129.324 110.76C129.376 110.37 129.324 110.032 129.246 109.72V109.746Z" fill="#DD8C3A"/>
<path d="M70.096 92.7938C70.096 92.7938 80.132 98.9038 91.858 97.8118C104.13 96.6678 106.444 92.5858 107.276 90.5578C108.732 87.0218 108.758 86.1118 108.758 86.1118L70.096 92.7938Z" fill="#E14A4B"/>
<path d="M99.242 98.5661C99.476 99.7361 98.748 100.88 97.604 101.114C96.46 101.348 95.316 100.594 95.082 99.4241C94.848 98.2541 95.576 97.1101 96.72 96.8761C97.864 96.6421 99.008 97.3961 99.242 98.5661Z" fill="#FCAA1A"/>
<path d="M98.982 98.566C99.216 99.71 98.488 100.828 97.318 101.062C96.174 101.296 95.03 100.568 94.796 99.424C94.562 98.28 95.29 97.162 96.46 96.928C97.604 96.694 98.722 97.422 98.982 98.566Z" fill="#FDBC2D"/>
<path d="M107.744 85.3058C111.332 81.2498 113.282 76.4138 113.854 71.3438C112.814 67.9118 110.604 64.9998 108.914 63.5958C106.132 61.2818 98.644 56.0038 98.644 56.0038C98.644 56.0038 97.942 46.5398 94.666 46.9818C91.39 47.3978 89.232 54.3918 89.232 54.3918C80.366 54.6778 74.568 60.1638 74.568 60.1638C74.568 60.1638 65.494 55.4318 64.064 59.0978C62.634 62.7378 67.652 70.0438 67.652 70.0438C67.652 70.0438 62.452 81.3798 64.584 87.0218C66.716 92.6638 76.986 96.7458 82.576 97.1358C87.776 97.4998 90.792 95.5238 96.668 94.3018C98.8 89.5698 104.65 88.3218 107.744 85.3318V85.3058Z" fill="#EFA14B"/>
<path d="M113.854 71.3438C113.282 76.4137 111.332 81.2498 107.744 85.3058C104.624 88.2698 98.8 89.5438 96.668 94.2758C97.11 94.1718 97.578 94.0938 98.072 94.0158C107.874 92.3518 111.852 84.8377 113.906 78.5977C114.738 76.1277 114.53 73.6057 113.854 71.3438Z" fill="#DD8C3A"/>
<path d="M90.09 72.5141C90.09 72.5141 85.852 72.8261 86.398 71.4481C86.97 70.0701 91.026 67.9381 91.702 69.2641C92.404 70.5901 90.454 72.2021 90.064 72.5141H90.09Z" fill="black"/>
<path d="M85.67 77.5582C85.54 77.5582 85.41 77.5582 85.28 77.5062C84.37 77.2462 83.876 76.2582 83.876 76.2062C83.824 76.0762 83.876 75.9202 84.006 75.8682C84.136 75.8162 84.292 75.8682 84.344 75.9982C84.344 75.9982 84.76 76.8562 85.436 77.0382C85.774 77.1422 86.138 77.0382 86.528 76.8042C86.918 76.5442 87.308 76.2582 87.724 75.9462C88.972 75.0102 90.272 74.0482 91.78 73.8142C92.274 73.7362 92.846 73.6582 93.444 73.6062C94.952 73.4242 96.85 73.2162 97.214 72.6442C97.656 71.9422 96.772 71.2402 96.746 71.2402C96.642 71.1622 96.616 71.0062 96.694 70.8762C96.772 70.7722 96.928 70.7462 97.058 70.8242C97.5 71.1622 98.15 72.0202 97.63 72.9042C97.162 73.6842 95.394 73.8922 93.496 74.1002C92.898 74.1782 92.326 74.2302 91.858 74.3082C90.48 74.5422 89.232 75.4522 88.036 76.3622C87.62 76.6742 87.23 76.9602 86.84 77.2202C86.476 77.4802 86.086 77.5842 85.722 77.5842L85.67 77.5582Z" fill="black"/>
<path d="M91.104 74.4382C91.026 74.4382 90.948 74.3862 90.896 74.3082L89.882 72.6182C89.804 72.4882 89.856 72.3582 89.96 72.2802C90.09 72.2022 90.22 72.2542 90.298 72.3582L91.312 74.0482C91.39 74.1782 91.338 74.3082 91.234 74.3862C91.182 74.4122 91.156 74.4122 91.104 74.4122V74.4382Z" fill="black"/>
<path d="M89.986 77.3762C89.934 77.3762 89.908 77.3762 89.882 77.3242C89.83 77.2462 89.83 77.1422 89.882 77.0902C89.934 77.0382 91.104 75.9462 92.768 76.1542C92.872 76.1542 92.924 76.2582 92.924 76.3362C92.924 76.4402 92.82 76.4922 92.742 76.4922C91.234 76.3102 90.142 77.3242 90.116 77.3242C90.09 77.3502 90.038 77.3762 89.986 77.3762Z" fill="black"/>
<path d="M81.744 72.2798C82.056 72.9298 81.874 73.6578 81.328 73.9438C80.782 74.2038 80.08 73.9178 79.768 73.2678C79.456 72.6178 79.638 71.8898 80.184 71.6038C80.73 71.3438 81.432 71.6298 81.744 72.2798Z" fill="black"/>
<path d="M97.682 66.5078C97.994 67.1578 97.812 67.8858 97.266 68.1718C96.72 68.4318 96.018 68.1458 95.706 67.4958C95.394 66.8458 95.576 66.1178 96.122 65.8318C96.668 65.5718 97.37 65.8578 97.682 66.5078Z" fill="black"/>
<path d="M64.142 58.864C64.142 58.864 68.874 57.954 72.384 62.738C72.384 62.738 68.952 66.378 67.652 70.018C64.896 65.806 62.998 61.048 64.142 58.89V58.864Z" fill="#FFECD6"/>
<path d="M95.29 47.0081C95.29 47.0081 92.508 50.5181 92.482 55.1201C92.482 55.1201 95.42 55.0681 98.644 56.0041C98.644 56.0041 98.41 52.5201 97.682 50.6221C96.954 48.7241 96.2 46.9821 95.264 47.0081H95.29Z" fill="#FFECD6"/>
<path d="M101.01 69.1599C100.984 69.1599 100.958 69.1599 100.932 69.1339C100.932 69.1079 100.932 69.0559 100.932 69.0299C101.01 68.9779 109.33 63.4399 114.244 62.2959C114.296 62.2959 114.322 62.2959 114.348 62.3479C114.348 62.3999 114.348 62.4259 114.296 62.4519C109.408 63.5699 101.14 69.0819 101.036 69.1599C101.036 69.1599 101.01 69.1599 100.984 69.1599H101.01Z" fill="#FFECD6"/>
<path d="M102.622 71.9418C102.596 71.9418 102.544 71.9418 102.544 71.8898C102.544 71.8378 102.544 71.7858 102.596 71.7858C102.7 71.7598 112.19 68.7178 117.234 69.0038C117.286 69.0038 117.312 69.0558 117.312 69.0818C117.312 69.1338 117.286 69.1598 117.234 69.1598C112.216 68.8998 102.752 71.9158 102.648 71.9418C102.648 71.9418 102.648 71.9418 102.622 71.9418Z" fill="#FFECD6"/>
<path d="M102.232 70.382C102.206 70.382 102.18 70.382 102.154 70.33C102.154 70.278 102.154 70.226 102.206 70.226C102.258 70.2 108.706 67.184 113.62 66.04C113.672 66.04 113.698 66.04 113.724 66.092C113.724 66.144 113.724 66.17 113.672 66.196C108.784 67.314 102.362 70.33 102.31 70.356C102.31 70.356 102.31 70.356 102.284 70.356L102.232 70.382Z" fill="#FFECD6"/>
<path d="M66.118 81.7182C66.118 81.7182 66.066 81.7182 66.04 81.6922C66.014 81.6662 66.04 81.6142 66.04 81.5882C70.226 78.7802 79.95 76.5182 80.054 76.4922C80.106 76.4922 80.132 76.4922 80.158 76.5442C80.158 76.5962 80.158 76.6222 80.106 76.6482C80.002 76.6482 70.33 78.9362 66.144 81.7182C66.144 81.7182 66.118 81.7182 66.092 81.7182H66.118Z" fill="#FFECD6"/>
<path d="M68.978 88.4521C68.978 88.4521 68.952 88.4521 68.926 88.4521C68.9 88.4261 68.874 88.3741 68.926 88.3221C72.176 84.4741 80.886 79.6121 80.99 79.5601C81.042 79.5601 81.068 79.5601 81.094 79.5861C81.094 79.6381 81.094 79.6901 81.068 79.6901C80.99 79.7421 72.28 84.5781 69.056 88.4261C69.056 88.4261 69.004 88.4521 68.978 88.4521Z" fill="#FFECD6"/>
<path d="M69.29 83.798C69.264 83.798 69.238 83.798 69.212 83.772C69.186 83.746 69.212 83.694 69.212 83.668C73.398 80.86 80.002 78.234 80.054 78.208C80.106 78.208 80.158 78.208 80.158 78.26C80.158 78.312 80.158 78.364 80.106 78.364C80.028 78.39 73.45 81.016 69.29 83.798C69.29 83.798 69.264 83.798 69.238 83.798H69.29Z" fill="#FFECD6"/>
<path d="M22.958 108.576C25.766 108.108 29.926 108.238 31.174 111.28C31.278 111.514 31.616 111.332 31.538 111.098C30.186 107.874 25.844 107.692 22.88 108.186C22.62 108.238 22.724 108.628 22.984 108.576H22.958Z" fill="#A8622A"/>
<path d="M26.936 108.29C28.938 102.778 31.85 94.874 29.9 89.076C28.444 84.708 24.05 81.042 20.202 78.728C19.968 78.598 19.76 78.936 19.994 79.066C23.738 81.354 27.3 84.578 29.25 88.53C31.148 92.378 29.536 97.396 28.6 101.322C28.054 103.636 27.352 105.95 26.546 108.186C26.468 108.42 26.832 108.55 26.936 108.29Z" fill="#A8622A"/>
<path d="M82.992 101.088C86.71 105.898 93.808 105.664 99.138 107.484C99.372 107.562 99.502 107.172 99.242 107.094C94.042 105.326 86.866 105.456 83.252 100.828C83.096 100.62 82.81 100.906 82.966 101.114L82.992 101.088Z" fill="#A8622A"/>
<path d="M106.106 105.56C107.094 105.04 107.38 104.416 108.134 103.61C108.316 103.428 108.03 103.142 107.848 103.324C107.12 104.104 106.86 104.702 105.898 105.196C105.664 105.326 105.872 105.664 106.08 105.56H106.106Z" fill="#A8622A"/>
<path d="M107.016 89.882C106.782 92.3 104.026 94.354 102.232 95.524C102.024 95.654 102.232 96.018 102.414 95.862C104.364 94.588 107.172 92.456 107.406 89.882C107.406 89.622 107.042 89.622 107.016 89.882Z" fill="#A8622A"/>
<path d="M106.964 92.3781C107.042 94.9001 105.976 97.4481 104.442 99.3981C104.286 99.6061 104.624 99.8141 104.78 99.6061C106.366 97.6041 107.432 94.9781 107.354 92.3781C107.354 92.1181 106.938 92.1181 106.964 92.3781Z" fill="#A8622A"/>
<path d="M69.186 92.43C72.904 95.264 78.13 96.876 82.758 96.98C83.018 96.98 83.018 96.59 82.758 96.59C78.182 96.33 73.112 94.952 69.264 92.326C69.186 92.274 69.108 92.404 69.186 92.456V92.43Z" fill="#A8622A"/>
<path d="M85.67 96.9021C87.256 97.1361 89.102 96.4861 90.584 95.9661C90.74 95.9141 90.688 95.7061 90.532 95.7061C88.868 95.8881 87.412 96.8241 85.696 96.7201C85.592 96.7201 85.592 96.8761 85.696 96.8761L85.67 96.9021Z" fill="#A8622A"/>
<path d="M15.678 34.3982C18.538 37.8562 21.97 39.5982 26.416 40.0922C26.572 40.0922 26.624 39.8322 26.468 39.8062C24.414 39.3642 22.412 39.1042 20.514 38.1422C18.694 37.2322 17.108 35.8282 15.808 34.2942C15.756 34.2162 15.626 34.3202 15.704 34.3982H15.678Z" fill="#A8622A"/>
</svg>
