<svg width="107" height="126" viewBox="0 0 107 126" fill="none" xmlns="http://www.w3.org/2000/svg">
<g opacity="0.22" filter="url(#filter0_f_8150_9833)">
<ellipse cx="53.4158" cy="104.416" rx="37.4158" ry="5.2208" fill="#24341D"/>
</g>
<path d="M54.2144 86.0171C54.2144 86.0171 55.6476 89.1306 53.226 94.122C50.8539 99.1134 50.2608 100.497 50.2608 100.497C50.2608 100.497 52.7318 101.337 52.4353 102.968C52.1388 104.599 49.9149 104.451 49.9149 104.451C49.9149 104.451 48.7288 105.044 46.9991 104.451C46.9991 104.451 45.5165 104.648 43.8856 103.413C42.2548 102.128 46.2084 85.0781 46.2084 85.0781L54.2144 86.0665V86.0171Z" fill="#5B493C"/>
<path d="M32.1231 63.1357C33.9022 76.1825 36.2744 85.6712 41.6118 96.9389C43.0944 99.9041 41.76 102.77 39.2396 104.896C38.5971 104.648 38.0041 104.204 37.757 103.363C37.164 101.584 38.4983 100.448 38.4983 100.448C38.4983 100.448 37.5099 94.0726 35.5331 90.712C33.5563 87.4009 28.9108 82.4589 28.5649 75.1941C28.2684 69.5108 30.1958 63.1357 31.0359 60.6152C31.8266 61.3565 32.1231 62.6415 32.1231 63.0368V63.1357Z" fill="#665244"/>
<path d="M69.9792 67.4847C63.5052 66.2492 57.0806 61.3566 55.1038 54.8332C54.4119 54.5861 53.6706 54.339 52.8799 54.0425C46.2577 51.868 40.4261 53.3012 40.4261 53.3012C40.4261 53.3012 33.9027 45.7894 32.173 42.33C30.4433 38.8211 29.8008 34.7687 34.9899 29.629C40.179 24.4894 45.0222 24.3411 45.0222 13.2216C45.0222 2.10211 35.4347 -0.912503 29.1583 0.224156C33.2108 6.00629 35.1382 13.4193 31.4811 19.745C28.7136 24.5388 23.6233 28.5418 20.4604 33.2861C19.818 35.9054 19.9168 38.92 21.0041 42.6265C23.3268 50.336 31.3822 59.5281 31.3822 59.5281C31.3822 59.5281 31.234 59.9235 30.9869 60.6648C31.7776 61.4061 32.0741 62.691 32.0741 63.0863C33.8532 76.1332 36.2254 85.6218 41.5628 96.8896C43.0454 99.8548 41.711 102.721 39.1906 104.846C40.8709 105.489 43.243 104.649 43.243 104.649C44.9727 105.686 45.8623 105.044 45.8623 105.044C45.8623 105.044 47.2955 105.044 47.9379 103.957C48.6792 101.634 45.121 100.3 45.121 100.3C45.121 100.3 46.7519 95.4564 47.6414 91.8982C48.531 88.3399 47.0978 85.7207 47.0978 85.7207C51.3479 88.0434 54.066 86.7585 57.8713 87.3021C61.6767 87.8457 65.4326 87.5986 66.8658 89.526C65.7291 94.8634 68.1507 100.497 68.1507 100.497C68.1507 100.497 67.8542 101.288 68.1507 102.869C68.8426 105.785 72.5491 104.994 72.5491 104.994C73.8834 105.933 74.773 104.994 74.773 104.994C74.773 104.994 75.9591 104.747 76.5521 103.512C77.3922 101.041 74.3282 100.547 74.3282 100.547C74.3282 100.547 74.1799 99.8054 75.366 96.4448C76.5521 93.0842 76.3544 88.8835 76.3544 88.8835C78.0841 88.8835 80.3574 89.1801 80.3574 89.1801C79.715 91.3545 79.9126 100.25 79.9126 100.25C79.9126 100.25 78.2818 102.326 79.9126 104.055C81.5435 105.785 83.9651 104.649 83.9651 104.649C85.3983 105.34 86.1396 104.649 86.1396 104.649C86.1396 104.649 88.0669 105.044 88.0175 102.425C87.9681 99.8548 84.8546 100.052 84.8546 100.052C84.8546 100.052 84.7558 98.9652 87.6716 94.4186C90.5874 89.872 90.785 76.4297 89.7966 70.4005C89.5495 68.8685 89.1542 67.5341 88.7094 66.3481C82.6802 68.0283 76.5027 68.8685 70.0287 67.4353L69.9792 67.4847Z" fill="#715D4D"/>
<path d="M65.2346 57.551C61.5775 57.8475 59.8973 56.612 55.1035 54.8823C57.0309 61.4058 63.5049 66.2983 69.9789 67.5338C76.4529 68.967 82.6304 68.0774 88.6597 66.4466C87.3253 62.9872 85.4968 61.0598 85.4968 61.0598C85.4968 61.0598 69.4353 57.2545 65.2346 57.6004V57.551Z" fill="#665244"/>
<path d="M25.9954 13.6662C23.0302 9.26787 20.658 6.15441 25.4023 1.95372C26.3413 1.11358 27.6757 0.569957 29.2077 0.273438C33.2601 6.05557 35.1875 13.4686 31.5304 19.7943C28.7629 24.5881 23.6726 28.5911 20.5098 33.3354C21.2016 30.5184 22.6842 28.0969 24.5622 25.7247C28.2193 21.2275 28.9606 18.0152 25.9954 13.6168V13.6662Z" fill="#665244"/>
<path d="M81.9385 20.4374C85.5956 22.4142 85.4967 30.6179 85.4967 30.6179L78.4297 27.7516C79.0227 23.6003 80.3571 21.3764 81.3455 20.2397C81.5431 20.2892 81.6914 20.3386 81.8891 20.4868L81.9385 20.4374Z" fill="#E6AFB1"/>
<path d="M81.3948 20.1899C80.4064 21.3266 79.0721 23.5505 78.4791 27.7017L76.354 26.8122C76.354 26.8122 78.1331 19.3003 81.4443 20.1899H81.3948Z" fill="#715D4D"/>
<path d="M54.4612 32.3469C53.4728 36.3994 59.5515 41.8356 59.5515 41.8356L62.1707 34.6697C58.7113 32.2975 56.1909 31.8033 54.6589 31.7539C54.5601 31.9022 54.5106 32.0998 54.4612 32.2975V32.3469Z" fill="#E6AFB1"/>
<path d="M54.6587 31.7544C56.1907 31.7544 58.7111 32.298 62.1705 34.6702L62.9612 32.4957C62.9612 32.4957 56.2401 28.7398 54.6587 31.7544Z" fill="#715D4D"/>
<path d="M85.4969 56.9091C85.4969 56.9091 87.0783 59.3801 85.4969 61.011C83.9649 62.6418 70.5227 63.0866 65.4818 59.479C63.7027 58.0952 64.5923 57.4033 65.037 55.7725" fill="#E14A4B"/>
<path d="M75.3164 66.2488C75.3164 67.7314 76.5025 68.868 77.9851 68.868C79.4677 68.868 80.6538 67.6819 80.6538 66.2488C80.6538 64.8156 79.4677 63.5801 77.9851 63.5801C76.5025 63.5801 75.3164 64.7662 75.3164 66.2488Z" fill="#FCAA1A"/>
<path d="M76.1567 66.2488C76.1567 67.7314 77.3428 68.868 78.8254 68.868C80.308 68.868 81.4941 67.6819 81.4941 66.2488C81.4941 64.8156 80.308 63.5801 78.8254 63.5801C77.3428 63.5801 76.1567 64.7662 76.1567 66.2488Z" fill="#FDBC2D"/>
<path d="M79.2705 59.9233H77.8867V63.6298H79.2705V59.9233Z" fill="#0B0703"/>
<path d="M60.4902 36.3502C61.1821 34.8676 62.2199 33.2368 63.8508 31.4082C70.6213 23.7481 82.8281 27.1087 85.4967 30.6175C88.1654 34.1263 91.3777 37.2892 93.2062 39.859C95.0842 42.4783 95.7267 49.2982 90.0928 55.1298C88.8573 56.4147 87.5724 57.3537 86.3369 58.0456C73.0923 58.3915 61.0833 49.4959 60.4902 36.3502Z" fill="#715D4D"/>
<path d="M60.4904 36.3497C61.0834 49.4954 73.0925 58.391 86.337 58.0451C81.8892 60.5655 77.8368 59.923 77.8368 59.923C72.5983 60.4172 66.5196 58.3416 63.6533 56.7107C57.5746 53.3008 58.3159 40.9458 60.441 36.3003L60.4904 36.3497Z" fill="#665244"/>
<path d="M77.8368 41.7368C77.8368 41.7368 79.3194 44.4055 77.4414 45.3445C75.5635 46.2835 73.9326 43.3183 73.9326 43.3183" stroke="black" stroke-width="0.6" stroke-linecap="round" stroke-linejoin="round"/>
<path d="M84.8052 38.5244C84.8052 38.5244 85.6453 41.4896 87.6221 40.7977C89.5989 40.1553 88.6599 36.8936 88.6599 36.8936" stroke="black" stroke-width="0.6" stroke-linecap="round" stroke-linejoin="round"/>
<path d="M83.6689 43.7137C83.6689 43.7137 85.5963 41.4898 84.3114 40.8968C83.0265 40.3532 81.0003 42.1817 80.9014 42.6759C80.8026 43.1701 83.6689 43.7137 83.6689 43.7137Z" fill="#0B0703"/>
<path d="M83.4707 43.417L84.0143 44.4548" stroke="black" stroke-width="0.6" stroke-linecap="round" stroke-linejoin="round"/>
<path d="M86.2873 43.2197C86.2873 43.2197 86.3367 44.1093 85.6448 44.6529C84.9529 45.1965 84.014 44.4058 84.014 44.4058C84.014 44.4058 83.7175 45.9378 82.7291 45.7896C81.7407 45.6413 81.543 44.8012 81.543 44.8012" stroke="black" stroke-width="0.6" stroke-linecap="round" stroke-linejoin="round"/>
<path d="M89.9943 41.4898C92.4653 38.7223 98.9887 31.4575 99.2852 31.2104L99.1864 31.1116H99.3346L99.2358 30.9633C99.0875 30.9139 99.0381 30.8645 89.6978 41.2921L89.8954 41.4898H89.9943Z" fill="#FFECD6"/>
<path d="M90.7357 42.8737L101.41 37.0421L101.262 36.7456L90.5874 42.6266L90.7357 42.8737Z" fill="#FFECD6"/>
<path d="M90.983 44.6527L102.251 42.923L102.201 42.6265L90.9336 44.3562L90.983 44.6527Z" fill="#FFECD6"/>
<path d="M61.8249 52.2142C61.8249 52.2142 65.2349 51.127 68.5954 50.0892C73.5374 48.5571 74.9212 48.1124 75.3166 47.9147C75.4648 47.8653 75.4648 47.8158 75.4648 47.7664L75.3166 47.6182C74.9706 47.717 66.2727 50.4845 61.7261 51.9177L61.8249 52.2142Z" fill="#FFECD6"/>
<path d="M66.6683 54.5369L76.6511 48.8042L76.5028 48.5571L66.52 54.2898L66.6683 54.5369Z" fill="#FFECD6"/>
<path d="M78.7276 48.6126L68.4604 57.8896L68.6592 58.1097L78.9264 48.8326L78.7276 48.6126Z" fill="#FFECD6"/>
<path d="M85.2496 88.241C81.7902 90.0696 76.5023 89.18 72.7958 88.6364C72.697 88.6364 72.697 88.4387 72.7958 88.4387C76.5023 88.6858 81.5926 89.8225 85.1508 88.0928C85.2002 88.0928 85.2991 88.1422 85.2002 88.1916L85.2496 88.241Z" fill="#352C27"/>
<path d="M86.6331 100.646C86.0401 100.646 85.447 100.448 84.8046 100.448C84.0138 100.448 83.2231 100.695 82.4324 100.794C82.2841 100.794 82.1359 100.596 82.3336 100.547C83.6679 99.855 85.2988 100.003 86.6331 100.497C86.7319 100.497 86.7319 100.695 86.6331 100.695V100.646Z" fill="#352C27"/>
<path d="M86.7822 102.622C86.7822 103.067 86.881 103.413 86.7822 103.858C86.6834 104.204 86.3868 104.549 86.1397 104.747C85.5961 105.142 84.6571 105.291 84.1135 104.846C84.0147 104.747 84.1135 104.599 84.2618 104.599C85.0031 104.797 85.5961 104.846 86.1892 104.253C86.4363 104.006 86.5845 103.66 86.5351 103.314C86.5351 103.067 86.5351 102.82 86.6339 102.622C86.6339 102.573 86.7822 102.622 86.7822 102.622Z" fill="#352C27"/>
<path d="M84.6073 102.622C84.5084 103.363 84.459 104.253 83.7177 104.698C83.1741 105.044 82.3834 105.241 81.7903 104.994C81.6915 104.994 81.6421 104.797 81.7903 104.747C82.334 104.599 82.8776 104.747 83.4212 104.401C84.1625 104.006 84.1131 103.166 84.459 102.523C84.459 102.424 84.6073 102.523 84.6073 102.573V102.622Z" fill="#352C27"/>
<path d="M74.9707 100.942C74.3282 101.041 73.7352 100.942 73.0928 101.041C72.4997 101.189 72.0055 101.486 71.4125 101.535C71.2642 101.535 71.2148 101.338 71.3136 101.239C71.8572 100.893 72.5985 100.745 73.241 100.596C73.8835 100.497 74.3777 100.695 75.0201 100.794C75.119 100.794 75.0695 100.942 75.0201 100.942H74.9707Z" fill="#352C27"/>
<path d="M72.3509 104.995C72.8451 104.846 73.1416 104.402 73.3393 103.957C73.4876 103.611 73.5864 103.117 73.8335 102.82C73.9323 102.721 74.0806 102.82 74.0806 102.919C74.0806 103.413 73.7346 104.006 73.4875 104.402C73.2404 104.846 72.8451 105.143 72.3509 105.192C72.2521 105.192 72.2026 105.044 72.3509 104.995Z" fill="#352C27"/>
<path d="M73.0433 105.094C73.4386 105.489 74.4765 105.143 74.8224 104.797C75.3166 104.303 75.2178 103.611 75.4649 103.018C75.5143 102.87 75.712 102.919 75.7614 103.018C75.9591 103.809 75.4649 104.846 74.8224 105.341C74.427 105.637 73.0927 105.736 72.895 105.143C72.895 105.044 72.9939 104.995 73.0433 105.044V105.094Z" fill="#352C27"/>
<path d="M49.5686 104.401C50.557 104.055 50.9029 103.215 50.6064 102.227C50.557 102.029 50.8535 101.881 50.9524 102.079C51.496 103.018 50.8041 104.649 49.618 104.649C49.4698 104.649 49.4698 104.451 49.618 104.401H49.5686Z" fill="#352C27"/>
<path d="M44.627 105.192C45.2201 105.192 45.7143 104.945 46.0602 104.5C46.2579 104.302 46.4062 104.006 46.4556 103.709C46.505 103.462 46.4556 103.215 46.4556 102.968C46.4556 102.82 46.6533 102.77 46.7027 102.869C47.1475 103.363 46.7521 104.253 46.4062 104.698C45.9614 105.241 45.2695 105.637 44.5776 105.34C44.5282 105.34 44.5776 105.192 44.5776 105.192H44.627Z" fill="#352C27"/>
<path d="M44.0832 102.968C44.0832 103.71 43.8855 104.5 43.1936 104.846C42.8971 104.995 42.5017 105.044 42.1064 105.044C41.6122 105.044 41.1674 105.291 40.6732 105.044C40.5249 104.995 40.5249 104.748 40.6732 104.748C41.2662 104.748 41.8593 104.599 42.5017 104.55C43.4901 104.5 43.6878 103.66 43.9349 102.87C43.9349 102.82 44.0338 102.82 44.0338 102.87L44.0832 102.968Z" fill="#352C27"/>
<path d="M45.0223 100.448C44.7257 100.596 44.3304 100.398 44.0339 100.3C43.0949 99.9537 42.0076 100.497 41.0687 100.646C40.9204 100.646 40.8216 100.448 40.9698 100.398C41.6617 100.053 42.4524 99.9043 43.2431 99.9043C43.8856 99.9043 44.3798 100.151 44.9728 100.349C45.0223 100.349 45.0223 100.448 44.9728 100.448H45.0223Z" fill="#352C27"/>
<path d="M50.6564 100.546C50.2116 100.744 49.5692 100.497 49.075 100.497C48.1854 100.497 47.5429 100.744 46.7522 101.139C46.604 101.189 46.4063 101.041 46.5051 100.892C46.9005 100.398 47.5924 100.201 48.1854 100.102C48.6302 100.052 49.0255 100.052 49.4703 100.052C49.8657 100.052 50.2116 100.299 50.607 100.299C50.7552 100.299 50.7552 100.497 50.607 100.546H50.6564Z" fill="#352C27"/>
<defs>
<filter id="filter0_f_8150_9833" x="0.4" y="83.5953" width="106.032" height="41.6414" filterUnits="userSpaceOnUse" color-interpolation-filters="sRGB">
<feFlood flood-opacity="0" result="BackgroundImageFix"/>
<feBlend mode="normal" in="SourceGraphic" in2="BackgroundImageFix" result="shape"/>
<feGaussianBlur stdDeviation="7.8" result="effect1_foregroundBlur_8150_9833"/>
</filter>
</defs>
</svg>
