<svg width="105" height="134" viewBox="0 0 105 134" fill="none" xmlns="http://www.w3.org/2000/svg">
<path d="M60.8006 108.874C60.8006 108.874 58.9866 112.815 62.0517 119.133C65.0542 125.451 65.8048 127.202 65.8048 127.202C65.8048 127.202 62.6772 128.265 63.0525 130.33C63.4278 132.394 66.2427 132.206 66.2427 132.206C66.2427 132.206 67.7439 132.957 69.9333 132.206C69.9333 132.206 71.8098 132.456 73.874 130.893C75.9383 129.266 70.9341 107.686 70.9341 107.686L60.8006 108.937V108.874Z" fill="#5B493C"/>
<path d="M88.7613 79.9127C86.5094 96.4265 83.5069 108.436 76.7513 122.698C74.8747 126.452 76.5636 130.08 79.7538 132.769C80.567 132.457 81.3176 131.894 81.6304 130.83C82.381 128.578 80.6921 127.14 80.6921 127.14C80.6921 127.14 81.9431 119.07 84.4452 114.817C86.9473 110.626 92.8272 104.371 93.2651 95.1754C93.6404 87.9819 91.2009 79.9127 90.1375 76.7225C89.1366 77.6608 88.7613 79.2872 88.7613 79.7876V79.9127Z" fill="#665244"/>
<path d="M40.8465 85.4173C49.0408 83.8535 57.1726 77.6608 59.6747 69.4039C60.5504 69.0911 61.4887 68.7784 62.4895 68.4031C70.8715 65.6508 78.2527 67.4648 78.2527 67.4648C78.2527 67.4648 86.5096 57.9568 88.6989 53.5782C90.8882 49.137 91.7014 44.0077 85.1334 37.5023C78.5654 30.9968 72.4353 30.8092 72.4353 16.7349C72.4353 2.6607 84.5704 -1.15498 92.5146 0.28372C87.3853 7.60233 84.9458 16.9852 89.5746 24.9918C93.0775 31.0594 99.5204 36.1261 103.524 42.1311C104.337 45.4464 104.212 49.2621 102.836 53.9535C99.8957 63.7117 89.6997 75.3464 89.6997 75.3464C89.6997 75.3464 89.8874 75.8468 90.2001 76.7851C89.1993 77.7233 88.824 79.3497 88.824 79.8501C86.5721 96.3639 83.5696 108.374 76.814 122.636C74.9374 126.389 76.6263 130.017 79.8165 132.707C77.6897 133.52 74.6872 132.457 74.6872 132.457C72.4979 133.77 71.3719 132.957 71.3719 132.957C71.3719 132.957 69.5579 132.957 68.7447 131.581C67.8065 128.641 72.3102 126.952 72.3102 126.952C72.3102 126.952 70.246 120.822 69.1201 116.318C67.9941 111.814 69.8081 108.499 69.8081 108.499C64.4286 111.439 60.9883 109.813 56.1718 110.501C51.3552 111.189 46.6013 110.876 44.7873 113.316C46.226 120.071 43.1609 127.202 43.1609 127.202C43.1609 127.202 43.5362 128.203 43.1609 130.205C42.2852 133.895 37.5938 132.894 37.5938 132.894C35.9048 134.083 34.7789 132.894 34.7789 132.894C34.7789 132.894 33.2776 132.582 32.527 131.018C31.4636 127.89 35.3419 127.265 35.3419 127.265C35.3419 127.265 35.5295 126.326 34.0283 122.073C32.527 117.819 32.7772 112.502 32.7772 112.502C30.5879 112.502 27.7105 112.878 27.7105 112.878C28.5237 115.63 28.2735 126.889 28.2735 126.889C28.2735 126.889 30.3377 129.517 28.2735 131.706C26.2093 133.895 23.1442 132.457 23.1442 132.457C21.3302 133.332 20.3919 132.457 20.3919 132.457C20.3919 132.457 17.9524 132.957 18.0149 129.642C18.0775 126.389 22.0183 126.639 22.0183 126.639C22.0183 126.639 22.1434 125.263 18.4528 119.508C14.7622 113.753 14.512 96.7392 15.763 89.1078C16.0758 87.1687 16.5762 85.4798 17.1392 83.9786C24.7706 86.1053 32.5896 87.1687 40.7839 85.3547L40.8465 85.4173Z" fill="#715D4D"/>
<path d="M46.8516 72.8442C51.4805 73.2196 53.6072 71.6558 59.6748 69.4664C57.2353 77.7233 49.0409 83.916 40.8466 85.4798C32.6523 87.2938 24.8332 86.1679 17.2019 84.1036C18.8908 79.725 21.2052 77.2855 21.2052 77.2855C21.2052 77.2855 41.5347 72.4689 46.8516 72.9068V72.8442Z" fill="#665244"/>
<path d="M96.5179 17.2978C100.271 11.7307 103.274 7.7899 97.2685 2.47297C96.08 1.40958 94.3911 0.721505 92.452 0.346191C87.3227 7.6648 84.8832 17.0476 89.512 25.0543C93.015 31.1219 99.4578 36.1886 103.461 42.1936C102.585 38.6281 100.709 35.5631 98.3319 32.5606C93.703 26.8683 92.7648 22.8024 96.5179 17.2353V17.2978Z" fill="#665244"/>
<path d="M25.7089 25.8678C21.0801 28.3699 21.2052 38.7535 21.2052 38.7535L30.1501 35.1255C29.3995 29.8711 27.7106 27.0563 26.4596 25.6176C26.2094 25.6801 26.0217 25.7427 25.7715 25.9303L25.7089 25.8678Z" fill="#E6AFB1"/>
<path d="M26.397 25.5549C27.6481 26.9936 29.337 29.8085 30.0876 35.0629L32.7773 33.9369C32.7773 33.9369 30.5255 24.429 26.3345 25.5549H26.397Z" fill="#715D4D"/>
<path d="M60.4879 40.9425C61.739 46.0718 54.0451 52.9525 54.0451 52.9525L50.7298 43.8825C55.1084 40.88 58.2986 40.2544 60.2377 40.1919C60.3628 40.3796 60.4254 40.6298 60.4879 40.88V40.9425Z" fill="#E6AFB1"/>
<path d="M60.2378 40.1919C58.2987 40.1919 55.1085 40.88 50.7299 43.8825L49.729 41.1302C49.729 41.1302 58.2361 36.3762 60.2378 40.1919Z" fill="#715D4D"/>
<path d="M21.2052 72.0311C21.2052 72.0311 19.2035 75.1587 21.2052 77.2229C23.1443 79.2872 40.1585 79.8501 46.5388 75.2838C48.7907 73.5324 47.6648 72.6566 47.1018 70.5924" fill="#E14A4B"/>
<path d="M34.0908 83.8533C34.0908 85.7299 32.5896 87.1685 30.713 87.1685C28.8364 87.1685 27.3352 85.6673 27.3352 83.8533C27.3352 82.0393 28.8364 80.4755 30.713 80.4755C32.5896 80.4755 34.0908 81.9767 34.0908 83.8533Z" fill="#FCAA1A"/>
<path d="M33.0273 83.8533C33.0273 85.7299 31.5261 87.1685 29.6495 87.1685C27.773 87.1685 26.2717 85.6673 26.2717 83.8533C26.2717 82.0393 27.773 80.4755 29.6495 80.4755C31.5261 80.4755 33.0273 81.9767 33.0273 83.8533Z" fill="#FDBC2D"/>
<path d="M29.0867 75.8467H30.8381V80.5381H29.0867V75.8467Z" fill="#0B0703"/>
<path d="M52.8564 46.0093C51.9807 44.1328 50.6671 42.0685 48.6029 39.7541C40.0332 30.0585 24.5829 34.3121 21.205 38.7533C17.8272 43.1945 13.7613 47.1978 11.4469 50.4505C9.0699 53.7658 8.25673 62.398 15.3877 69.7792C16.9515 71.4055 18.5778 72.594 20.1417 73.4697C36.9056 73.9076 52.1058 62.6482 52.8564 46.0093Z" fill="#715D4D"/>
<path d="M52.8564 46.0095C52.1057 62.6483 36.9056 73.9077 20.1416 73.4699C25.7713 76.66 30.9005 75.8469 30.9005 75.8469C37.5311 76.4724 45.225 73.8452 48.853 71.781C56.5469 67.4649 55.6087 51.8268 52.9189 45.9469L52.8564 46.0095Z" fill="#665244"/>
<path d="M30.9007 52.8276C30.9007 52.8276 29.0241 56.2055 31.4011 57.3939C33.7781 58.5824 35.8423 54.8293 35.8423 54.8293" stroke="black" stroke-width="0.6" stroke-linecap="round" stroke-linejoin="round"/>
<path d="M22.0808 48.7616C22.0808 48.7616 21.0174 52.5147 18.5153 51.639C16.0133 50.8258 17.2017 46.6974 17.2017 46.6974" stroke="black" stroke-width="0.6" stroke-linecap="round" stroke-linejoin="round"/>
<path d="M23.5195 55.3295C23.5195 55.3295 21.08 52.5147 22.7064 51.7641C24.3327 51.076 26.8974 53.3904 27.0225 54.0159C27.1476 54.6415 23.5195 55.3295 23.5195 55.3295Z" fill="#0B0703"/>
<path d="M23.7698 54.9543L23.0817 56.2679" stroke="black" stroke-width="0.6" stroke-linecap="round" stroke-linejoin="round"/>
<path d="M20.2042 54.7041C20.2042 54.7041 20.1417 55.83 21.0174 56.5181C21.8931 57.2062 23.0816 56.2054 23.0816 56.2054C23.0816 56.2054 23.4569 58.1445 24.708 57.9568C25.959 57.7692 26.2092 56.7058 26.2092 56.7058" stroke="black" stroke-width="0.6" stroke-linecap="round" stroke-linejoin="round"/>
<path d="M15.5129 52.5148C12.3853 49.0119 4.12837 39.8167 3.75305 39.504L3.87816 39.3789H3.69051L3.81561 39.1912C4.00326 39.1287 4.06582 39.0661 15.8882 52.2646L15.638 52.5148H15.5129Z" fill="#FFECD6"/>
<path d="M14.5745 54.2662L1.06328 46.8851L1.25093 46.5098L14.7622 53.9535L14.5745 54.2662Z" fill="#FFECD6"/>
<path d="M14.2617 56.5183L-0.000239372 54.3289L0.0623159 53.9536L14.3242 56.1429L14.2617 56.5183Z" fill="#FFECD6"/>
<path d="M51.1676 66.0886C51.1676 66.0886 46.8515 64.7124 42.598 63.3988C36.3427 61.4597 34.5913 60.8968 34.0909 60.6466C33.9032 60.584 33.9032 60.5214 33.9032 60.4589L34.0909 60.2712C34.5287 60.3963 45.5379 63.8993 51.2927 65.7133L51.1676 66.0886Z" fill="#FFECD6"/>
<path d="M45.0374 69.0286L32.4019 61.7726L32.5896 61.4598L45.2251 68.7159L45.0374 69.0286Z" fill="#FFECD6"/>
<path d="M29.7729 61.5302L42.7683 73.2725L42.5167 73.5509L29.5213 61.8087L29.7729 61.5302Z" fill="#FFECD6"/>
<path d="M21.5178 111.689C25.8964 114.004 32.5895 112.878 37.2809 112.19C37.406 112.19 37.406 111.939 37.2809 111.939C32.5895 112.252 26.1466 113.691 21.6429 111.502C21.5803 111.502 21.4552 111.564 21.5803 111.627L21.5178 111.689Z" fill="#352C27"/>
<path d="M19.7665 127.39C20.5171 127.39 21.2677 127.14 22.0809 127.14C23.0817 127.14 24.0826 127.452 25.0834 127.577C25.2711 127.577 25.4587 127.327 25.2085 127.265C23.5196 126.389 21.4554 126.577 19.7665 127.202C19.6414 127.202 19.6414 127.452 19.7665 127.452V127.39Z" fill="#352C27"/>
<path d="M19.5787 129.892C19.5787 130.455 19.4535 130.893 19.5787 131.455C19.7038 131.893 20.0791 132.331 20.3918 132.581C21.0799 133.082 22.2684 133.27 22.9565 132.707C23.0816 132.581 22.9565 132.394 22.7688 132.394C21.8305 132.644 21.0799 132.707 20.3293 131.956C20.0165 131.643 19.8289 131.205 19.8914 130.767C19.8914 130.455 19.8914 130.142 19.7663 129.892C19.7663 129.829 19.5787 129.892 19.5787 129.892Z" fill="#352C27"/>
<path d="M22.331 129.892C22.4561 130.83 22.5186 131.956 23.4569 132.519C24.145 132.957 25.1458 133.207 25.8965 132.895C26.0216 132.895 26.0841 132.644 25.8965 132.582C25.2084 132.394 24.5203 132.582 23.8322 132.144C22.8939 131.643 22.9565 130.58 22.5186 129.767C22.5186 129.642 22.331 129.767 22.331 129.829V129.892Z" fill="#352C27"/>
<path d="M34.5287 127.765C35.3419 127.89 36.0925 127.765 36.9057 127.89C37.6563 128.078 38.2818 128.453 39.0325 128.516C39.2201 128.516 39.2827 128.265 39.1576 128.14C38.4695 127.702 37.5312 127.515 36.718 127.327C35.9049 127.202 35.2793 127.452 34.4662 127.577C34.3411 127.577 34.4036 127.765 34.4662 127.765H34.5287Z" fill="#352C27"/>
<path d="M37.844 132.894C37.2184 132.707 36.8431 132.144 36.5929 131.581C36.4053 131.143 36.2802 130.517 35.9674 130.142C35.8423 130.017 35.6546 130.142 35.6546 130.267C35.6546 130.893 36.0925 131.643 36.4053 132.144C36.718 132.707 37.2184 133.082 37.844 133.145C37.9691 133.145 38.0316 132.957 37.844 132.894Z" fill="#352C27"/>
<path d="M36.9683 133.019C36.4679 133.52 35.1543 133.082 34.7165 132.644C34.0909 132.019 34.2161 131.143 33.9033 130.392C33.8407 130.205 33.5905 130.267 33.528 130.392C33.2778 131.393 33.9033 132.707 34.7165 133.332C35.2169 133.708 36.9058 133.833 37.156 133.082C37.156 132.957 37.0309 132.894 36.9683 132.957V133.019Z" fill="#352C27"/>
<path d="M66.6806 132.144C65.4296 131.706 64.9917 130.643 65.367 129.391C65.4296 129.141 65.0542 128.954 64.9291 129.204C64.2411 130.392 65.1168 132.457 66.618 132.457C66.8057 132.457 66.8057 132.206 66.618 132.144H66.6806Z" fill="#352C27"/>
<path d="M72.9358 133.144C72.1851 133.144 71.5596 132.832 71.1218 132.269C70.8715 132.019 70.6839 131.643 70.6213 131.268C70.5588 130.955 70.6213 130.642 70.6213 130.33C70.6213 130.142 70.3711 130.079 70.3086 130.204C69.7456 130.83 70.246 131.956 70.6839 132.519C71.2469 133.207 72.1226 133.707 72.9983 133.332C73.0609 133.332 72.9983 133.144 72.9983 133.144H72.9358Z" fill="#352C27"/>
<path d="M73.6237 130.33C73.6237 131.268 73.8739 132.269 74.7497 132.707C75.125 132.894 75.6254 132.957 76.1258 132.957C76.7513 132.957 77.3143 133.27 77.9398 132.957C78.1275 132.894 78.1275 132.582 77.9398 132.582C77.1892 132.582 76.4386 132.394 75.6254 132.331C74.3744 132.269 74.1241 131.205 73.8114 130.205C73.8114 130.142 73.6863 130.142 73.6863 130.205L73.6237 130.33Z" fill="#352C27"/>
<path d="M72.4354 127.139C72.8107 127.327 73.3111 127.077 73.6864 126.952C74.8749 126.514 76.251 127.202 77.4395 127.39C77.6272 127.39 77.7523 127.139 77.5646 127.077C76.6889 126.639 75.6881 126.451 74.6872 126.451C73.8741 126.451 73.2485 126.764 72.4979 127.014C72.4354 127.014 72.4354 127.139 72.4979 127.139H72.4354Z" fill="#352C27"/>
<path d="M65.3045 127.265C65.8674 127.515 66.6806 127.202 67.3061 127.202C68.4321 127.202 69.2453 127.515 70.2461 128.015C70.4338 128.078 70.684 127.89 70.5589 127.703C70.0584 127.077 69.1827 126.827 68.4321 126.702C67.8691 126.639 67.3687 126.639 66.8057 126.639C66.3053 126.639 65.8674 126.952 65.367 126.952C65.1794 126.952 65.1794 127.202 65.367 127.265H65.3045Z" fill="#352C27"/>
</svg>
