<svg width="100" height="59" viewBox="0 0 100 59" fill="none" xmlns="http://www.w3.org/2000/svg">
<path d="M44.1 22.0999C48.2 31.9999 49.3 36.5999 54.6 37.0999C59.9 37.5999 63.9 38.3999 66.2 35.4999C68.5 32.5999 72.1 29.1999 73 24.4999C73.9 19.7999 76.1 13.7999 75 7.8999C74.5 5.1999 73.8 2.79991 73.3 1.09991C71.9 0.899915 70.4 0.899902 69 0.899902C69 0.899902 55.6 1.39991 49.4 2.29991C48.6 2.39991 47.9 2.49991 47.3 2.49991C44.8 7.19991 41.5 15.1999 44.3 21.8999L44.1 22.0999Z" fill="#EFA14B"/>
<path d="M11.1 27.4998C7.99999 28.4998 6.89998 26.4998 5.89998 24.3998C5.39998 22.4998 5.59998 20.2999 5.89998 18.0999C2.89998 21.1999 1.19998 23.7999 2.69998 24.0999C2.69998 24.0999 -0.200017 28.7999 1.19998 30.6999C1.39998 30.9999 1.69999 31.1998 2.09999 31.3998C2.09999 31.3998 0.0999856 38.0998 1.99999 38.8998C3.09999 39.3998 3.39999 38.6999 3.49999 38.0999C3.49999 37.5999 3.49999 37.2998 3.49999 37.2998C3.49999 37.2998 3.49999 37.6999 3.49999 38.0999C3.49999 39.8999 3.49999 44.0999 5.09999 44.5999C6.09999 44.8999 6.29999 44.4998 6.29999 43.9998C6.09999 43.2998 5.99999 42.7998 5.99999 42.7998C5.99999 42.7998 6.29999 43.3998 6.29999 43.9998C6.79999 45.9998 7.79999 49.6999 8.79999 49.0999C9.69999 48.4999 9.89998 47.6998 9.89998 47.2998C9.89998 48.4998 11.1 51.4999 14.8 53.6999C19.8 56.6999 22.2 55.3998 24.8 54.2998C24.8 54.2998 30.7 53.6998 33.9 53.9998C34.4 53.9998 34.8 54.0999 35.2 54.1999C34.6 51.7999 33.5 49.0999 32.3 46.5999C21.1 46.8999 7.19999 40.5999 11.1 27.6999V27.4998Z" fill="#E59342"/>
<path d="M30.0999 30.2999C28.1999 35.2999 26.3999 38.9999 21.5999 35.7999C13.4999 29.6999 20.0999 17.7999 17.6999 8.49988C16.4999 9.09988 15.2999 9.79988 14.2999 10.5999C11.4999 12.7999 8.39986 15.5999 5.99986 17.9999C5.69986 20.1999 5.49986 22.3999 5.99986 24.2999C6.99986 26.3999 8.09986 28.4999 11.1999 27.3999C7.19986 40.2999 21.0999 46.5999 32.3999 46.2999C32.0999 45.5999 31.6999 44.9999 31.2999 44.3999C28.5999 39.8999 29.1999 35.2999 30.0999 30.2999Z" fill="#EFA14B"/>
<path d="M36.2001 12.9999C37.9001 9.59991 39.3001 5.5999 40.2001 2.8999C38.9001 2.8999 37.5001 3.0999 36.0001 3.3999C32.2001 4.2999 23.9001 5.2999 17.7001 8.3999C20.1001 17.6999 13.5001 29.5999 21.6001 35.6999C26.4001 38.8999 28.2001 35.1999 30.1001 30.1999C30.1001 30.1999 30.1001 30.1999 30.1001 30.0999C31.0001 24.9999 33.4001 18.5999 36.2001 12.8999V12.9999Z" fill="#715D4D"/>
<path d="M99.7001 27.9999C99.5001 22.9999 96.1001 14.2999 95.6001 12.9999C95.1001 11.6999 94.7001 11.1999 94.7001 11.1999C94.7001 11.1999 98.9001 10.0999 99.0001 6.49988C99.0001 2.89988 97.3001 4.09987 94.7001 4.69987C92.2001 5.29987 87.2001 5.19987 85.4001 4.69987C84.8001 4.49987 83.7001 4.09988 82.1001 3.49988C81.4001 5.59988 80.9001 7.99989 80.8001 9.69989C80.7001 13.6999 81.7001 19.8999 83.4001 23.6999C85.1001 27.4999 84.8001 32.5999 90.3001 33.8999C94.1001 34.7999 96.7001 34.5999 99.2001 32.2999C99.5001 30.8999 99.7001 29.4999 99.6001 28.1999L99.7001 27.9999Z" fill="#715D4D"/>
<path d="M94.3999 34.1999C80.8999 48.2999 57 53.1999 38.2 44.0999C37.2 46.1999 35.1 46.1999 34 46.1999C33.4 46.1999 32.8 46.1999 32.2 46.1999C33.5 48.6999 34.5 51.3999 35.1 53.7999C37.6 54.1999 39.8 54.9999 44.5 54.7999C50 54.5999 54.7999 55.2999 57.8999 54.7999C60.9999 54.2999 63.1 54.9999 63.1 54.9999C63.1 54.9999 64.2999 58.4999 67.2 57.8999C70 57.3999 68.3999 53.9999 68.3999 53.9999C68.3999 53.9999 78.1 53.5999 86.7 49.1999C86.7 49.1999 87.7 52.5999 89.8 51.7999C91.9 50.9999 90.7 47.0999 90.7 47.0999C90.7 47.0999 94.4 42.7999 95.8 40.5999C96.9 38.9999 98.5 35.5999 99.3 31.8999C97.7 33.2999 96.1 33.9999 94.2 33.9999L94.3999 34.1999Z" fill="#FCE1C8"/>
<path d="M38.3 44.2C57.1 53.2 80.9 48.3999 94.5 34.2999C93.4 34.2999 92.1 34.1999 90.7 33.7999C85.2 32.4999 85.5 27.4 83.8 23.6C82.1 19.8 81.1 13.7 81.2 9.59996C81.2 7.89996 81.8 5.59995 82.5 3.39995C80.2 2.59995 76.9 1.59995 73.3 1.19995C73.8 2.99995 74.5 5.29995 75 7.99995C76.2 13.9 74 19.9 73 24.6C72.1 29.3 68.6 32.7 66.2 35.6C63.9 38.5 59.9 37.7 54.6 37.2C49.3 36.7 48.2 32.1 44.1 22.2C41.3 15.5 44.6 7.39996 47.1 2.79996C44.3 3.09996 42.3 2.99995 40.3 2.99995C39.4 5.69995 38 9.59996 36.3 13.1C33.4 18.8 31.1 25.1999 30.2 30.2999C29.3 35.3999 28.6 40 31.4 44.5C31.8 45.1 32.1 45.7999 32.5 46.3999C33.1 46.3999 33.7 46.3999 34.3 46.3999C35.3 46.3999 37.4 46.3999 38.5 44.2999L38.3 44.2Z" fill="#FFECD6"/>
<path d="M51.2 7.09985C51.2 7.09985 46 8.79984 43.9 9.29984C41.8 9.79984 43.4 16.1998 49.9 15.4998C56.4 14.7998 55.7 11.3998 55.7 11.3998" fill="#E59342"/>
<path d="M51.5001 6.09985C51.5001 6.09985 46.6001 7.79984 44.7001 8.29984C42.8001 8.79984 44.3001 15.1998 50.3001 14.4998C56.3001 13.7998 55.7001 10.3998 55.7001 10.3998" fill="#EFA14B"/>
<path d="M51.3999 5.79992C50.1999 6.19992 48.9999 6.59992 47.6999 6.99992C46.7999 7.29992 44.7999 7.49993 44.0999 8.19993C42.6999 9.59993 44.0999 12.0999 45.1999 13.1999C47.7999 15.8999 56.6999 15.0999 55.9999 10.1999C55.9999 9.79993 55.2999 9.99992 55.3999 10.3999C55.5999 11.5999 54.4999 12.6999 53.4999 13.1999C50.7999 14.7999 46.8999 14.5999 44.9999 11.8999C44.4999 11.1999 44.2999 10.3999 44.2999 9.59993C44.2999 8.39993 45.5999 8.29992 46.4999 7.99992C48.1999 7.49992 49.8999 6.89991 51.6999 6.29991C52.0999 6.19991 51.8999 5.59992 51.4999 5.69992L51.3999 5.79992Z" fill="#715D4D"/>
<path d="M66.4001 26.0999C66.4001 26.8999 65.8001 27.5999 65.0001 27.5999C64.2001 27.5999 63.6001 26.8999 63.6001 26.0999C63.6001 25.2999 64.2001 24.5999 65.0001 24.5999C65.8001 24.5999 66.4001 25.2999 66.4001 26.0999Z" fill="black"/>
<path d="M92.1001 24.8999C92.1001 25.6999 91.5 26.3999 90.7 26.3999C89.9 26.3999 89.3 25.6999 89.3 24.8999C89.3 24.0999 89.9 23.3999 90.7 23.3999C91.5 23.3999 92.1001 24.0999 92.1001 24.8999Z" fill="black"/>
<path d="M75.1001 24.0999C75.1001 24.0999 77.0001 26.5999 78.5001 26.3999C80.1001 26.1999 80.8001 23.3999 80.8001 23.3999" stroke="black" stroke-width="0.5" stroke-linecap="round" stroke-linejoin="round"/>
<path d="M78.6001 29.6999V26.3999" stroke="black" stroke-width="0.5" stroke-linecap="round" stroke-linejoin="round"/>
<path d="M63.1001 53.1C63.2001 54.9 64.5001 59 67.0001 58.3C70.3001 57.4 69.2001 53.3 68.5001 51C68.4001 50.7 67.9001 50.8 68.0001 51.1C68.4001 53.2 69.8001 56.1 67.4001 57.6C65.0001 59.1 63.7001 54.5 63.4001 53C63.4001 52.8 63.1001 52.9 63.1001 53V53.1Z" fill="#715D4D"/>
<path d="M86.3 47.3999C86.3 48.7999 87.1999 53.0999 89.3999 52.6999C92.5999 51.9999 91.4 47.4999 90.8 45.3999C90.8 45.0999 90.2 45.1999 90.3 45.4999C90.6 47.4999 91.9 50.5999 89.7 52.0999C87.7 53.3999 86.7 48.5999 86.5 47.3999C86.5 47.1999 86.2 47.2999 86.2 47.3999H86.3Z" fill="#715D4D"/>
</svg>
