<svg width="201" height="164" viewBox="0 0 201 164" fill="none" xmlns="http://www.w3.org/2000/svg">
<path d="M13.6003 81.2999C12.8003 80.2999 8.30028 70.0999 15.2003 63.9999C22.1003 57.7999 22.1003 58.5999 22.5003 66.3999C22.9003 74.1999 24.8003 75.9999 24.8003 75.9999L13.6003 81.3999V81.2999Z" fill="#665244"/>
<path d="M27.6002 82.4999C26.9002 89.5999 23.5002 103.9 31.1002 105.1C38.7002 106.4 41.2002 95.1999 46.3002 91.4999C51.4002 87.7999 53.7002 92.3999 59.4002 95.1999C65.1002 97.9999 68.6002 92.5999 68.2002 84.1999C68.0002 79.9999 67.7002 76.9999 67.8002 74.7999C51.9002 70.5999 37.5002 69.4999 23.7002 73.9999C25.9002 76.2999 27.9002 79.1999 27.5002 82.4999H27.6002Z" fill="#715D4D"/>
<path d="M148.8 112.9C157.3 111.5 167.2 114.3 175.7 107.2C178.5 104.7 181.2 101.9 183.7 99.0999C182.7 93.7999 181.1 88.5999 179.1 86.6999C175.4 83.1999 121.5 70.2999 108.9 67.3999C113.6 75.1999 106.7 77.0999 100.7 79.6999C99.6001 80.1999 98.8001 80.8999 98.1001 81.7999C105.3 102.4 125.1 117.3 149 112.9H148.8Z" fill="#F9D7BB"/>
<path d="M41.2002 144.1C19.4002 134.9 6.0002 111.8 5.4002 88.3999C-1.2998 100.7 -1.5998 118.5 6.2002 128.8C17.3002 143.4 23.9002 145.6 30.5002 146.7C30.5002 146.7 29.8002 152.1 41.4002 153.5C53.0002 154.9 68.3002 153.7 71.4002 148.5C72.1002 146 70.7002 144.7 69.9002 144.2C60.5002 144.7 50.6002 147.7 41.2002 144V144.1Z" fill="#F9D7BB"/>
<path d="M172.9 121.4C166.6 134 151.3 137.6 137 138.3C144.7 138.4 156.3 138 164.8 135.1C164.8 135.1 168.6 138.2 170.5 141C172.4 143.8 175.5 148.8 180.7 148.5C185.9 148.3 196.7 146.6 198.2 144C198.6 143.3 198.2 142.2 197.6 140.8C197.4 140.9 197.2 141.1 197.1 141.2C181.5 148.3 178.7 132.7 173 121.4H172.9Z" fill="#F9D7BB"/>
<path d="M185.2 112.7C185.2 110.6 184.7 104.8 183.6 99.2C181.1 102.1 178.5 104.8 175.6 107.3C167.1 114.4 157.2 111.5 148.7 113C124.8 117.4 105 102.5 97.8001 81.8999C94.2001 86.4999 94.8001 95.5 86.9001 98.2C77.5001 101.4 73.1002 93.9999 74.5002 86.8999C75.2001 83.5999 74.5002 79.6 73.6002 76.3C72.3002 76.1 70.9002 75.8 69.6002 75.5C69.0002 75.3 68.3002 75.2 67.7002 75C67.7002 77.2 67.9002 80.0999 68.1002 84.3999C68.5002 92.7999 64.9001 98.2999 59.3001 95.3999C53.6001 92.5999 51.3002 88 46.2002 91.7C41.1002 95.4 38.6002 106.6 31.0002 105.3C23.4002 104 26.8002 89.8 27.5002 82.7C27.8002 79.5 25.9002 76.5 23.7002 74.2C21.4002 75 19.1001 75.7999 16.9001 76.8999C12.1001 79.1999 8.20015 83.4 5.40015 88.5C6.00015 112 19.4002 135.1 41.2002 144.2C50.3002 147.8 60.0002 145.1 69.1002 144.5C67.0002 143.7 64.9001 142.6 63.8001 141.6C61.3001 139.1 65.0002 133.4 65.0002 133.4C65.0002 133.4 76.1002 140.2 89.2002 131C89.2002 131 111.4 147.7 121.3 147.6C121.3 147.6 120.2 156.6 127.3 156.4C127.3 156.4 134.9 162.1 140.8 155C140.8 155 144.5 156.6 145.5 152.1C145.3 150.5 144.6 148.9 143.2 147.4C141.8 145.9 139.3 145.2 136.5 145C133.7 140.9 128.8 138.1 128.8 138.1C128.8 138.1 132.1 138.4 136.9 138.5C151.2 137.9 166.5 134.3 172.8 121.6C178.5 132.9 181.3 148.5 196.9 141.4C197.1 141.3 197.3 141.1 197.4 141C195.4 137 190.4 130.9 188.6 127.3C186.2 122.3 185 116.9 185.1 112.9L185.2 112.7Z" fill="#FFECD6"/>
<path d="M140.8 154.9C134.9 162 127.3 156.3 127.3 156.3C120.2 156.4 121.3 147.5 121.3 147.5C111.4 147.6 89.2001 130.9 89.2001 130.9C76.1001 140.2 65.0001 133.3 65.0001 133.3C65.0001 133.3 61.3001 138.9 63.8001 141.5C64.9001 142.6 67.0001 143.6 69.1001 144.4C69.4001 144.4 69.6001 144.4 69.9001 144.4C69.7001 144.3 69.5001 144.2 69.5001 144.2C69.5001 144.2 84.1001 145.4 95.0001 141.6C95.0001 141.6 105.9 150.3 117.2 153.2C118 153.4 118.8 153.6 119.6 153.8C119.2 155.7 119.4 157.7 120.7 159.4C123.8 163.3 129.5 161.4 129.5 161.4C129.5 161.4 137.8 166.2 140.9 159.7C140.9 159.7 147.2 160.1 145.5 152.1C144.5 156.6 140.8 155 140.8 155V154.9Z" fill="#F9D7BB"/>
<path d="M73.8003 76.1C74.7003 79.4 75.4003 83.4 74.7003 86.7C73.3003 93.8 77.7003 101.2 87.1003 98C95.0003 95.3 94.4003 86.3 98.0003 81.7C97.0003 78.8 96.2003 75.8 95.7003 72.7C89.9003 75.2 82.2003 77.2 73.8003 76V76.1Z" fill="#715D4D"/>
<path d="M100.5 79.7999C106.6 77.1999 113.4 75.2999 108.7 67.4999C107 67.0999 106 66.8999 106 66.8999C106 66.8999 102 70.1999 95.6001 72.8999C96.1001 75.9999 96.9001 78.9999 97.9001 81.8999C98.6001 80.9999 99.4001 80.2999 100.5 79.7999Z" fill="#665244"/>
<path d="M101.8 4.19983C98.7001 6.19983 99.8001 8.79983 100.6 14.9998C101.5 21.6998 98.1002 21.3998 98.7002 28.2998C99.2002 39.2998 112.2 41.6998 112.2 41.6998L125.5 28.4998C118.6 13.2998 108 6.89984 101.8 4.29984V4.19983Z" fill="#E6AFB1"/>
<path d="M102.7 3.69987C102.3 3.89987 102 4.09987 101.8 4.19987C108.1 6.79987 118.7 13.1999 125.5 28.3999L130 23.8999C126.4 10.8999 106.9 1.49987 102.7 3.69987Z" fill="#715D4D"/>
<path d="M186.3 1.69995C189.4 3.69995 188.3 6.29995 187.5 12.5C186.6 19.2 190 18.9 189.4 25.8C188.9 36.8 175.9 39.2 175.9 39.2L162.6 26C169.5 10.8 180.1 4.39996 186.3 1.79996V1.69995Z" fill="#E6AFB1"/>
<path d="M185.4 1.0999C185.8 1.2999 186.1 1.4999 186.3 1.5999C180.1 4.1999 169.4 10.5999 162.6 25.7999L158.1 21.2999C161.7 8.2999 181.2 -1.1001 185.4 1.0999Z" fill="#715D4D"/>
<path d="M103 72.2999C103 72.2999 102.9 90.5999 122 98.8999C144.9 108.8 159.2 109.4 182.1 92.2999L181 86.6999L107 63.3999C107 63.3999 102.9 66.3999 102.9 72.3999L103 72.2999Z" fill="#E14A4B"/>
<path d="M155.4 109.9C155.4 112.4 153.4 114.5 150.9 114.5C148.4 114.5 146.4 112.4 146.4 109.9C146.4 107.4 148.4 105.3 150.9 105.3C153.4 105.3 155.4 107.4 155.4 109.9Z" fill="#FCAA1A"/>
<path d="M154.8 109.8C154.8 112.3 152.8 114.3 150.3 114.3C147.8 114.3 145.8 112.3 145.8 109.8C145.8 107.3 147.8 105.3 150.3 105.3C152.8 105.3 154.8 107.3 154.8 109.8Z" fill="#FDBC2D"/>
<path d="M151.6 98.7999H149.8V105.3H151.6V98.7999Z" fill="black"/>
<path d="M178.9 43.4999C178.9 42.3999 178.7 41.1999 178.5 39.7999C177.5 33.0999 172.7 23.0999 158.7 19.2999C158.4 20.2999 158.1 21.2999 157.9 22.2999C166.6 27.4999 173.4 34.8999 178.9 43.4999Z" fill="#665244"/>
<path d="M178.9 43.4999C173.4 34.8999 166.6 27.4999 157.9 22.2999C157.2 25.3999 157 28.3999 157.9 30.2999C160.4 35.0999 159 39.9999 158.1 44.2999C157.1 48.4999 157 57.4999 159.1 60.6999C161.2 63.8999 163.2 66.3999 168.1 65.4999C172.9 64.6999 177 75.7999 183.6 66.2999C183.1 64.4999 182.6 62.6999 182 60.6999C178.6 50.4999 179.3 48.6999 178.9 43.4999Z" fill="#715D4D"/>
<path d="M158.7 19.2999C155.6 18.4999 152.1 17.8999 148.1 17.7999C151.6 18.9999 154.9 20.5999 157.9 22.3999C158.1 21.3999 158.4 20.3999 158.7 19.3999V19.2999Z" fill="#F9D7BB"/>
<path d="M168.1 65.5C163.2 66.4 161.2 63.9 159.1 60.7C157 57.5 157.1 48.5 158.1 44.3C159.1 40.1 160.4 35.1 157.9 30.3C156.9 28.4 157.2 25.3 157.9 22.3C154.9 20.5 151.6 19 148.1 17.7C147.3 17.7 146.4 17.7 145.5 17.7C145.5 17.7 141.7 17.8 136.7 18.9C138.5 23.2 140.5 29.2 139.9 33.4C138.9 40.7 137.5 42.2 138.8 51.6C140.1 61 134.5 61.7 127.6 66.7C120.6 71.7 113.3 71.3 110.6 65.6C109.8 63.9 108.6 63 107.4 62.7C105.8 69 98.1003 82.2 118.4 93.7C136.2 103.7 141.5 102.9 150.9 102.9C160.3 102.9 170.7 96.3 177.5 92.6C184.4 88.8 187.4 81.2 183.7 66.5C177.1 76 173 64.7999 168.2 65.7L168.1 65.5Z" fill="#FFECD6"/>
<path d="M144.2 61.6C144.2 61.6 130 64.8 124.9 67.4C119.8 70 118.3 75.4 123.7 79.7C129 84.1 138.6 77.7 145.8 76.3C153 74.9 155.2 78.2 163.6 79C172 79.7 179 71.3 172.2 67.7C160.5 61.5 149 61.1 144.2 61.6Z" fill="#F9D7BB"/>
<path d="M110.6 65.4999C113.2 71.1999 120.6 71.5999 127.6 66.5999C134.6 61.5999 140.1 60.8999 138.8 51.4999C137.5 42.0999 138.9 40.4999 139.9 33.2999C140.5 29.0999 138.5 23.0999 136.7 18.7999C129.2 20.3999 119.1 24.0999 114.7 32.6999C107.3 47.0999 108.8 56.0999 107.5 62.1999C107.5 62.2999 107.5 62.4999 107.5 62.5999C108.7 62.8999 109.9 63.7999 110.7 65.4999H110.6Z" fill="#715D4D"/>
<path d="M120.7 70.0999C120.5 70.0999 120.3 70.0999 120.2 69.7999C120.1 69.5999 120.2 69.1999 120.4 69.0999C120.5 69.0999 134.5 60.8999 148 60.8999C161.5 60.8999 173.9 67.9999 174 68.0999C174.3 68.1999 174.3 68.5999 174.2 68.7999C174.1 69.0999 173.7 69.0999 173.5 68.9999C173.4 68.9999 161.3 61.9999 148.1 61.9999C134.9 61.9999 121.1 69.9999 121 70.0999C121 70.0999 120.8 70.0999 120.7 70.0999Z" fill="#665244"/>
<path d="M147.5 59.6C147.5 59.6 138.5 60.3999 139 64.8999C139.6 69.3999 145.4 67.6 145.4 67.6C145.4 67.6 146.4 71.3 148.7 71.5C151 71.8 151.2 67.1 151.2 67.1C151.2 67.1 154.6 68.0999 156.3 66.3999C158.6 64.0999 155.6 59 147.5 59.6Z" fill="black"/>
<path d="M148.6 70.5999V76.1998" stroke="black" stroke-width="1.1" stroke-linecap="round" stroke-linejoin="round"/>
<path d="M129.7 75.3999C129.7 75.3999 133.2 81.4999 136.3 80.0999C139.4 78.6999 148.7 75.3999 148.7 75.3999C148.7 75.3999 157.1 78.1999 160.3 78.6999C163.5 79.1999 166 75.5999 166.9 73.3999" stroke="black" stroke-width="1.1" stroke-linecap="round" stroke-linejoin="round"/>
<path d="M136.4 79.8999C136.4 79.8999 140.6 85.5999 149.8 83.8999C159 82.0999 160.6 78.6999 160.6 78.6999L148.7 75.2999L136.5 79.8999H136.4Z" fill="black"/>
<path d="M142.9 77.6998C142.9 77.6998 145.8 80.9998 146.1 84.6998C146.4 88.4998 147.6 92.6998 150.9 92.6998C154.1 92.6998 156.1 85.3998 155.2 81.3998C154.3 77.3998 154.3 77.4998 154.3 77.4998L148.7 75.5999L143 77.6998H142.9Z" fill="#E6AFB1"/>
<path d="M148.6 75.2999C148.6 75.2999 150.8 79.5999 150.4 84.1999L148.6 75.2999Z" fill="white"/>
<path d="M148.6 75.2999C148.6 75.2999 150.8 79.5999 150.4 84.1999" stroke="black" stroke-width="1.1" stroke-linecap="round" stroke-linejoin="round"/>
<path d="M131 60.6998C131 62.3998 130 63.7999 128.8 63.7999C127.6 63.7999 126.6 62.3998 126.6 60.6998C126.6 58.9998 127.6 57.5999 128.8 57.5999C130 57.5999 131 58.9998 131 60.6998Z" fill="black"/>
<path d="M168 59.4999C168 61.1999 167 62.5999 165.8 62.5999C164.6 62.5999 163.6 61.1999 163.6 59.4999C163.6 57.7999 164.6 56.3999 165.8 56.3999C167 56.3999 168 57.7999 168 59.4999Z" fill="black"/>
<path d="M177.1 148.3C184.9 148.3 195.1 148.3 197.8 139.4C197.8 139.3 197.8 139.2 197.7 139.1C195.5 133.8 180.9 136.9 178 139.1C176.2 140.5 174.3 143.3 173.9 146.2C175.1 147.5 176.3 148.3 177.1 148.3Z" fill="#FFECD6"/>
<path d="M197.8 139.4C195.1 148.3 184.9 148.3 177.1 148.3C169.3 148.3 175.1 147.4 173.9 146.2C173.7 147.9 173.9 149.6 175.1 151C178.2 154.9 182.6 153.2 182.6 153.2C182.6 153.2 190.4 157.9 195 151.5C195 151.5 201.9 149.8 197.7 139.4H197.8Z" fill="#F9D7BB"/>
<path d="M70.2003 144.4C68.2003 143.3 62.5003 142.6 63.2003 139.3C64.0003 135.3 66.0003 131.7 66.4003 127.6C67.1003 119.7 66.4003 112.3 61.7003 105.7C61.6003 105.5 61.3003 105.7 61.4003 105.9C67.7003 115.3 67.0003 127.2 63.2003 137.4C60.8003 143.9 65.4003 142.4 70.1003 144.8C70.3003 144.8 70.4002 144.6 70.3002 144.5L70.2003 144.4Z" fill="#715D4D"/>
<path d="M95.3002 141.1C92.3002 138.4 90.6002 135 89.3002 131.3C87.3002 125.3 91.0003 120.6 94.2003 116C97.3003 111.5 99.6003 106.5 99.9003 101C99.9003 100.4 99.1003 100.4 99.0003 101C98.2003 107.1 95.5003 112.2 92.1003 117.2C90.6003 119.4 88.6002 122 88.3002 124.7C87.5002 131 89.9003 137.7 95.2003 141.4C95.4003 141.5 95.5003 141.3 95.4003 141.1H95.3002Z" fill="#715D4D"/>
<path d="M135.9 144.2C134.3 141.7 131.4 139.6 129.2 137.8C126.2 135.3 122.5 134.9 118.9 134C118.3 133.8 118.1 134.7 118.7 134.9C121.8 136.1 124.9 136.3 127.9 137.9C129.3 138.7 130.5 140 131.7 141C133.1 142.2 134.6 143 135.7 144.5C135.8 144.7 136.1 144.5 136 144.3L135.9 144.2Z" fill="#715D4D"/>
<path d="M125.6 136.5C125.9 136.1 125.3 135.1 125.1 134.7C124.4 133.1 123.6 131.5 122.7 130.1C122.4 129.7 121.8 130.1 122.1 130.5C122.8 131.9 123.6 133.2 124.4 134.5C124.7 135.1 125 135.9 125.4 136.5C125.4 136.5 125.6 136.6 125.7 136.5H125.6Z" fill="#715D4D"/>
<path d="M145.9 138.8C155.3 138.8 169.5 136.6 175.4 128.4C175.7 128 175.1 127.5 174.7 127.9C167.9 135.3 155.6 137.6 145.9 138.4C145.6 138.4 145.6 138.8 145.9 138.8Z" fill="#715D4D"/>
<path d="M55.5001 154.3C60.0001 154.3 63.0001 149.7 60.3001 145.8C60.0001 145.4 59.3001 145.8 59.6001 146.2C60.3001 147.6 60.6001 148.9 60.2001 150.5C59.7001 152.4 57.2001 153.5 55.5001 153.8C55.2001 153.8 55.3001 154.3 55.5001 154.3Z" fill="#715D4D"/>
<path d="M66.0003 152.3C67.0003 151.9 67.6003 150.4 67.6003 149.4C67.6003 147.9 66.3003 146 65.2003 145C64.9003 144.7 64.3003 145 64.6003 145.5C65.1003 146.4 65.8003 147.2 66.3003 148.2C66.9003 149.3 66.9003 151.2 65.6003 151.8C65.2003 152 65.6003 152.5 65.9003 152.4L66.0003 152.3Z" fill="#715D4D"/>
<path d="M127.5 153.7C127.1 156.2 127.3 158.5 128.7 160.6C130.3 163 133.9 163.3 136.5 163.3C138.5 163.3 140.4 161.9 141.2 160.1C142.6 156.8 141.3 154.4 139.5 151.6C139.2 151.1 138.5 151.6 138.8 152C139.8 154.1 141.1 156 140.6 158.4C140.1 160.8 138.2 162 135.8 162.1C133.3 162.1 130.6 161.7 129 159.6C127.8 158 127.8 155.5 127.9 153.6C127.9 153.4 127.6 153.4 127.6 153.6L127.5 153.7Z" fill="#715D4D"/>
<path d="M181.7 146C180.6 147.6 181 150 181.7 151.8C182.5 153.9 184.6 154.8 186.7 155.1C190.9 155.7 196.2 153.9 195.4 149C195.4 148.7 194.9 148.8 194.9 149C194.8 150.7 194.5 152.1 192.9 153C191.4 153.9 189.3 154.1 187.6 154.1C183.6 154.2 180.3 150 182.1 146.1C182.2 145.8 181.9 145.6 181.7 145.9V146Z" fill="#715D4D"/>
<path d="M182.7 137.4C184.7 137.5 186.8 137 188.9 137C191.6 137 194 137.4 196.6 138.2C196.8 138.2 196.9 138 196.8 137.8C194.9 136.7 192.8 136.5 190.7 136.3C189.4 136.3 188.2 136.3 186.9 136.3C185.5 136.3 184.2 137 182.7 137C182.5 137 182.5 137.4 182.7 137.4Z" fill="#715D4D"/>
<path d="M126.7 146.3C128.5 146 130.2 145.4 132 145.3C134.4 145.1 136.8 145.5 139.2 145.9C139.6 145.9 139.7 145.5 139.4 145.3C135.2 143.6 130.7 144.4 126.6 145.9C126.3 146 126.4 146.4 126.7 146.4V146.3Z" fill="#715D4D"/>
<path d="M128.6 161C125.8 161.7 122.1 160.5 120.4 158.1C118.7 155.5 120.4 151.8 121.4 149.2C121.5 148.8 121 148.5 120.7 148.8C118.5 151.6 117.8 156.1 119.8 159.2C121.5 161.7 126.2 163.1 128.8 161.4C129 161.3 128.8 160.9 128.6 161Z" fill="#715D4D"/>
<path d="M182.7 153.2C179.6 153.8 177.1 151.9 175.4 149.5C173.4 146.6 175.5 142.6 176.3 139.8C176.4 139.3 175.8 139.1 175.5 139.5C173.7 143 172.3 147.3 174.8 150.8C176.5 153.1 180 155.1 182.8 153.6C183.1 153.5 182.8 153.1 182.6 153.2H182.7Z" fill="#715D4D"/>
<path d="M195.2 151.5C196.4 152 197.9 150.5 198.5 149.6C199.6 148.2 200.3 146.3 199.9 144.5C199.9 144.1 199.1 144.2 199.1 144.6C199.2 146 198.9 147.2 198.2 148.4C197.7 149.3 196.5 150.9 195.3 151C195.1 151 194.9 151.3 195.2 151.5Z" fill="#715D4D"/>
</svg>
