<svg width="97" height="40" viewBox="0 0 97 40" fill="none" xmlns="http://www.w3.org/2000/svg">
<g clip-path="url(#clip0_8168_6566)">
<path d="M70.5891 26.4616V24.0652H70.9016V25.05H72.1303V24.0652H72.4428V26.4616H72.1303V25.3345H70.9016V26.4616H70.5891Z" fill="#092B1F"/>
<path d="M73.2673 25.2907C73.2673 24.8913 73.3751 24.5794 73.5852 24.3551C73.7954 24.1308 74.0649 24.0159 74.399 24.0159C74.7331 24.0159 74.8139 24.0706 74.9864 24.1745C75.1588 24.2785 75.2935 24.4262 75.3851 24.6177C75.4767 24.8092 75.5252 25.0226 75.5252 25.2633C75.5252 25.5041 75.4767 25.7229 75.3797 25.9144C75.2827 26.1059 75.148 26.2536 74.9702 26.3521C74.7924 26.4506 74.6037 26.4998 74.399 26.4998C74.1942 26.4998 73.9786 26.4451 73.8008 26.3357C73.6284 26.2263 73.4936 26.0785 73.402 25.887C73.3104 25.6955 73.2673 25.4986 73.2673 25.2907ZM73.5906 25.2961C73.5906 25.5861 73.6661 25.8104 73.8224 25.9801C73.9732 26.1442 74.1672 26.2317 74.399 26.2317C74.6307 26.2317 74.8247 26.1497 74.981 25.9801C75.1319 25.8104 75.2073 25.5752 75.2073 25.2633C75.2073 24.9515 75.175 24.8967 75.1103 24.7545C75.0456 24.6068 74.9486 24.4973 74.8247 24.4153C74.7007 24.3332 74.5606 24.2949 74.4044 24.2949C74.1834 24.2949 73.9948 24.3715 73.8331 24.5247C73.6715 24.6779 73.596 24.935 73.596 25.2961H73.5906Z" fill="#092B1F"/>
<path d="M76.2258 25.69L76.5222 25.6626C76.5384 25.783 76.5707 25.8815 76.6192 25.9581C76.6677 26.0347 76.7485 26.0948 76.8563 26.1441C76.9641 26.1933 77.0827 26.2152 77.2174 26.2152C77.3521 26.2152 77.4437 26.1988 77.5353 26.1605C77.6269 26.1222 77.697 26.073 77.7401 26.0128C77.7832 25.9526 77.8048 25.8815 77.8048 25.8103C77.8048 25.7392 77.7832 25.6681 77.7401 25.6134C77.697 25.5587 77.6269 25.5094 77.5299 25.4711C77.4653 25.4438 77.3251 25.4055 77.1096 25.3562C76.894 25.3015 76.7432 25.2523 76.6515 25.2085C76.5384 25.1483 76.4575 25.0717 76.3983 24.9842C76.339 24.8966 76.3174 24.7982 76.3174 24.6833C76.3174 24.5684 76.3498 24.448 76.4198 24.344C76.4899 24.2401 76.5869 24.158 76.7162 24.1033C76.8455 24.0486 76.991 24.0212 77.1473 24.0212C77.3036 24.0212 77.476 24.0486 77.6108 24.1088C77.7455 24.1635 77.8479 24.251 77.9179 24.3605C77.988 24.4699 78.0311 24.5957 78.0365 24.738L77.7347 24.7599C77.7185 24.6067 77.6646 24.4918 77.573 24.4152C77.4814 24.3386 77.3413 24.3003 77.1635 24.3003C76.9857 24.3003 76.8348 24.3331 76.7485 24.4042C76.6623 24.4754 76.6192 24.5574 76.6192 24.6559C76.6192 24.7544 76.6515 24.8146 76.7108 24.8693C76.7701 24.924 76.9264 24.9842 77.1796 25.0389C77.4329 25.0991 77.6054 25.1483 77.7024 25.1921C77.8371 25.2577 77.9395 25.3398 78.0041 25.4383C78.0688 25.5368 78.1012 25.6517 78.1012 25.7775C78.1012 25.9034 78.0634 26.0237 77.9934 26.1386C77.9233 26.2535 77.8155 26.3411 77.6808 26.4012C77.5461 26.4614 77.3952 26.4943 77.2281 26.4943C77.0611 26.4943 76.8348 26.4614 76.6893 26.4012C76.5438 26.3356 76.4306 26.2426 76.3498 26.1167C76.2689 25.9909 76.2258 25.8486 76.2204 25.6845L76.2258 25.69Z" fill="#092B1F"/>
<path d="M78.9364 26.4616V24.0652H79.8256C79.9819 24.0652 80.1004 24.0707 80.1866 24.0871C80.3052 24.109 80.4022 24.1418 80.4777 24.1965C80.5585 24.2512 80.6178 24.3278 80.6663 24.4263C80.7148 24.5248 80.7363 24.6342 80.7363 24.7546C80.7363 24.957 80.6716 25.1321 80.5423 25.2743C80.413 25.4166 80.1813 25.4877 79.8525 25.4877H79.249V26.4616H78.9364ZM79.249 25.2032H79.8579C80.0573 25.2032 80.2028 25.1649 80.289 25.0883C80.3753 25.0117 80.4184 24.9023 80.4184 24.7655C80.4184 24.6287 80.3914 24.5795 80.3429 24.5084C80.2944 24.4372 80.2298 24.388 80.1435 24.3661C80.0896 24.3497 79.9927 24.3442 79.8525 24.3442H79.249V25.2032Z" fill="#092B1F"/>
<path d="M81.5985 26.4616V24.0652H81.9111V26.4616H81.5985Z" fill="#092B1F"/>
<path d="M83.4631 26.4616V24.3497H82.6871V24.0652H84.557V24.3497H83.7756V26.4616H83.4631Z" fill="#092B1F"/>
<path d="M84.778 26.4616L85.6833 24.0652H86.0174L86.982 26.4616H86.6264L86.3515 25.7339H85.3654L85.1067 26.4616H84.7726H84.778ZM85.4624 25.4768H86.2599L86.012 24.8147C85.9366 24.6123 85.8827 24.4482 85.845 24.3169C85.8126 24.4701 85.7749 24.6233 85.7156 24.7764L85.457 25.4768H85.4624Z" fill="#092B1F"/>
<path d="M87.6287 26.4616V24.0652H87.9413V26.1771H89.1052V26.4616H87.6287Z" fill="#092B1F"/>
<path d="M71.2519 30.4775L70.3358 28.0811H70.6753L71.2896 29.8209C71.3381 29.9632 71.3812 30.089 71.4135 30.2148C71.4513 30.0835 71.4944 29.9522 71.5429 29.8209L72.1788 28.0811H72.4967L71.5752 30.4775H71.2573H71.2519Z" fill="#092B1F"/>
<path d="M73.1919 30.4775V28.0811H74.9001V28.3656H73.5044V29.0987H74.8085V29.3777H73.5044V30.193H74.954V30.4775H73.1919Z" fill="#092B1F"/>
<path d="M76.3875 30.4775V28.3656H75.6115V28.0811H77.4814V28.3656H76.7V30.4775H76.3875Z" fill="#092B1F"/>
<path d="M78.2143 30.4775V28.0811H79.9226V28.3656H78.5268V29.0987H79.831V29.3777H78.5268V30.193H79.9765V30.4775H78.2143Z" fill="#092B1F"/>
<path d="M80.8171 30.4775V28.0811H81.8626C82.0728 28.0811 82.2344 28.1029 82.3422 28.1467C82.45 28.1905 82.5416 28.2671 82.6063 28.3765C82.6709 28.4859 82.7032 28.6063 82.7032 28.7376C82.7032 28.8689 82.6494 29.0495 82.5416 29.1698C82.4338 29.2847 82.2668 29.3613 82.0404 29.3942C82.1213 29.4325 82.1859 29.4762 82.229 29.5145C82.3206 29.6021 82.4069 29.706 82.4877 29.8319L82.8973 30.4829H82.5039L82.1913 29.9851C82.0997 29.8428 82.0243 29.7334 81.965 29.6568C81.9057 29.5802 81.8518 29.5255 81.8087 29.4981C81.7602 29.4653 81.7171 29.4489 81.6686 29.4325C81.6309 29.427 81.577 29.4215 81.4961 29.4215H81.1351V30.4829H80.8225L80.8171 30.4775ZM81.1297 29.137H81.8033C81.9434 29.137 82.0566 29.1206 82.1374 29.0932C82.2182 29.0659 82.2775 29.0166 82.3206 28.951C82.3638 28.8853 82.3853 28.8142 82.3853 28.7376C82.3853 28.6227 82.3422 28.5297 82.2614 28.4586C82.1805 28.3874 82.0512 28.3491 81.8788 28.3491H81.1297V29.1425V29.137Z" fill="#092B1F"/>
<path d="M83.6517 30.4775V28.0811H83.9643V30.4775H83.6517Z" fill="#092B1F"/>
<path d="M84.9181 30.4775V28.0811H85.236L86.4755 29.9632V28.0811H86.7773V30.4775H86.4593L85.2199 28.5954V30.4775H84.9181Z" fill="#092B1F"/>
<path d="M87.4455 30.4774L88.3508 28.0809H88.6849L89.6495 30.4774H89.2939L89.019 29.7497H88.0329L87.7742 30.4774H87.4401H87.4455ZM88.1245 29.4925H88.922L88.6741 28.8305C88.5987 28.6281 88.5448 28.4639 88.5071 28.3326C88.4748 28.4858 88.437 28.639 88.3778 28.7922L88.1191 29.4925H88.1245ZM88.3239 27.9332L88.5394 27.4736H88.922L88.5664 27.9332H88.3239Z" fill="#092B1F"/>
<path d="M90.3124 30.4775V28.0811H91.3578C91.568 28.0811 91.7297 28.1029 91.8374 28.1467C91.9452 28.1905 92.0368 28.2671 92.1015 28.3765C92.1662 28.4859 92.1985 28.6063 92.1985 28.7376C92.1985 28.8689 92.1446 29.0495 92.0368 29.1698C91.929 29.2847 91.762 29.3613 91.5357 29.3942C91.6165 29.4325 91.6812 29.4762 91.7243 29.5145C91.8159 29.6021 91.9021 29.706 91.9829 29.8319L92.3925 30.4829H91.9991L91.6865 29.9851C91.5949 29.8428 91.5195 29.7334 91.4602 29.6568C91.4009 29.5802 91.347 29.5255 91.3039 29.4981C91.2554 29.4653 91.2123 29.4489 91.1638 29.4325C91.1261 29.427 91.0722 29.4215 90.9914 29.4215H90.6303V30.4829H90.3178L90.3124 30.4775ZM90.6249 29.137H91.2985C91.4387 29.137 91.5518 29.1206 91.6327 29.0932C91.7135 29.0659 91.7728 29.0166 91.8159 28.951C91.859 28.8853 91.8805 28.8142 91.8805 28.7376C91.8805 28.6227 91.8374 28.5297 91.7566 28.4586C91.6758 28.3874 91.5464 28.3491 91.374 28.3491H90.6249V29.1425V29.137Z" fill="#092B1F"/>
<path d="M93.1469 30.4775V28.0811H93.4595V30.4775H93.1469Z" fill="#092B1F"/>
<path d="M94.3217 29.3065C94.3217 28.9071 94.4295 28.5953 94.6397 28.371C94.8498 28.1466 95.1193 28.0317 95.4534 28.0317C95.7875 28.0317 95.8683 28.0864 96.0408 28.1904C96.2132 28.2944 96.3479 28.4421 96.4395 28.6336C96.5312 28.8251 96.5797 29.0384 96.5797 29.2792C96.5797 29.5199 96.5312 29.7388 96.4342 29.9303C96.3372 30.1218 96.2024 30.2695 96.0246 30.368C95.8468 30.4664 95.6582 30.5157 95.4534 30.5157C95.2486 30.5157 95.033 30.461 94.8552 30.3515C94.6828 30.2421 94.548 30.0944 94.4564 29.9029C94.3648 29.7114 94.3217 29.5144 94.3217 29.3065ZM94.645 29.312C94.645 29.602 94.7205 29.8263 94.8768 29.9959C95.0277 30.1601 95.2217 30.2476 95.4534 30.2476C95.6851 30.2476 95.8791 30.1655 96.0354 29.9959C96.1863 29.8263 96.2617 29.591 96.2617 29.2792C96.2617 28.9673 96.2294 28.9126 96.1647 28.7704C96.1 28.6226 96.003 28.5132 95.8791 28.4311C95.7552 28.3491 95.615 28.3108 95.4588 28.3108C95.2378 28.3108 95.0492 28.3874 94.8875 28.5406C94.7259 28.6938 94.6504 28.9509 94.6504 29.312H94.645Z" fill="#092B1F"/>
<path d="M39.4736 24.6014C39.5113 24.0871 39.5167 23.5673 39.5167 23.0585C39.5167 21.0287 39.5167 18.9934 39.5167 16.9635C39.5167 15.7325 39.506 14.4577 39.0263 13.3251C38.4659 12.0175 37.2588 11.0108 35.8846 10.7099C34.8446 10.4801 33.7668 10.6387 32.7052 10.6223C31.6436 10.6059 30.4957 10.3707 29.7898 9.56091C28.5719 8.15479 29.321 5.97176 29.0569 4.117C28.8252 2.50845 27.7097 1.05856 26.2277 0.440307C25.1122 -0.0247502 23.8674 -0.0302215 22.6603 -0.0247502C20.661 -0.0247502 18.6563 -0.0192783 16.6571 -0.013807C15.4877 -0.013807 14.2806 -0.00286583 13.2136 0.484077C11.6616 1.19534 10.6538 2.87502 10.5191 4.59847C10.3844 6.32739 10.9395 8.32987 9.79701 9.61562C9.11801 10.3761 8.02946 10.6004 7.01635 10.6114C6.00323 10.6223 4.97935 10.4637 3.98779 10.6497C2.48429 10.9232 1.14785 12.012 0.560456 13.44C0.0916231 14.5835 0.0862342 15.8583 0.0916231 17.0948C0.0916231 19.1411 0.102401 21.1873 0.10779 23.2336C0.10779 24.9352 0.247901 26.4945 1.34185 27.8513C2.29568 29.0277 3.95546 29.3395 5.37273 29.345C6.66607 29.3505 8.05101 29.1426 8.99946 28.2507C9.9479 27.3535 10.2389 25.9747 10.5353 24.6944C11.4891 20.591 12.998 16.5149 15.7248 13.3361C18.3168 10.3159 22.1537 8.20403 26.0715 8.36817C26.4271 8.38459 26.6642 8.69097 26.605 9.04661C26.4756 9.79617 26.2331 10.5074 25.9691 11.2242C25.8613 11.5251 25.8559 11.8643 25.9906 12.1543C26.2439 12.6905 26.8313 12.9257 27.2893 13.2376C27.8875 13.6425 28.4048 14.1787 28.809 14.7805C28.9114 14.9392 29.7844 16.4109 29.3317 16.3836C29.2024 16.3781 29.0731 16.3836 28.9491 16.4164C28.7012 16.4711 28.6366 16.8049 28.8467 16.9581L34.0147 20.7442C34.1117 20.8153 34.1602 20.9411 34.1332 21.056C33.7776 22.4895 32.716 23.6932 31.4226 24.388C30.07 25.1102 28.4911 25.3127 26.9714 25.1868C25.9906 25.1048 25.1068 25.4878 25.6511 26.6148C26.9013 29.1863 29.8545 29.4052 32.3441 29.4544C34.5913 29.5037 37.1887 29.3833 38.5467 27.5668C39.1772 26.7188 39.3982 25.6683 39.479 24.5905L39.4736 24.6014Z" fill="#092B1F"/>
<path d="M15.2667 39.981C15.8918 40.0357 16.5277 40.0303 17.1582 40.0303C19.1521 40.0193 21.1514 40.0029 23.1453 39.992C24.2931 39.9865 25.4787 39.9701 26.5187 39.4777C27.8067 38.8704 28.712 37.5463 28.9383 36.1238C29.1647 34.7013 28.7551 33.2076 27.9252 32.0368C26.3948 29.8811 23.6626 28.8963 22.0406 26.8172C21.5017 26.1278 21.0921 25.3016 21.2215 24.377C21.2484 24.1691 21.3131 23.9721 21.4101 23.7861C22.0406 22.6207 23.3932 22.7958 24.5033 22.5003C25.6296 22.1994 26.6912 21.324 27.0145 20.1477C27.1762 19.5623 26.8798 18.9933 26.4864 18.5775C26.2816 18.3586 26.0499 18.1726 25.7966 18.0139C25.6835 17.9428 25.1392 17.7075 25.4194 17.5215C25.511 17.4613 25.6511 17.5489 25.7481 17.5489C25.8397 17.5489 25.926 17.5489 26.0176 17.5489C26.3894 17.5489 25.7481 16.6242 25.6619 16.5093C25.3493 16.0826 24.9613 15.716 24.5195 15.4369C24.0937 15.1689 23.6141 14.9664 23.2908 14.5834C22.6872 13.8667 22.8435 12.8928 22.9621 12.0119C22.9998 11.7493 22.7573 11.525 22.504 11.5906C20.2299 12.198 18.2683 14.0199 16.9858 15.9129C13.9249 20.4486 12.0603 25.7065 10.9556 31.0629C10.2928 34.2745 10.0503 38.6953 13.9411 39.7567C14.3776 39.8771 14.8248 39.9427 15.2721 39.9865L15.2667 39.981Z" fill="#73A65B"/>
<path d="M93.4326 24.716H92.2686V24.6832C92.6242 24.251 92.8398 23.961 92.9152 23.8133C92.9907 23.6655 93.0284 23.5178 93.0284 23.3756C93.0284 23.2333 92.9961 23.1841 92.9314 23.1184C92.8667 23.0473 92.7913 23.0145 92.6997 23.0145C92.5488 23.0145 92.4356 23.0911 92.3494 23.2443L92.2955 23.2224C92.3494 23.0309 92.4248 22.8941 92.5326 22.8011C92.6404 22.7081 92.7643 22.6643 92.9044 22.6643C93.0446 22.6643 93.0931 22.6862 93.1793 22.7354C93.2601 22.7847 93.3248 22.8449 93.3733 22.9324C93.4218 23.0145 93.4433 23.0911 93.4433 23.1622C93.4433 23.2935 93.4056 23.4248 93.3356 23.5616C93.2386 23.7421 93.023 23.9993 92.6943 24.3221H93.12C93.2224 24.3221 93.2924 24.3221 93.3248 24.3112C93.3571 24.3002 93.3841 24.2893 93.4002 24.2674C93.4218 24.2455 93.4487 24.2017 93.4811 24.1361H93.5349L93.4218 24.716H93.4326Z" fill="#092B1F"/>
<path d="M93.7613 23.9611L94.699 22.6699H94.8768V23.9611H95.06V24.2675H94.8768V24.7162H94.478V24.2675H93.7613V23.9611ZM93.9014 23.9611H94.4726V23.1678L93.9014 23.9611Z" fill="#092B1F"/>
<path d="M95.836 22.7136V23.5124C95.9114 23.4304 95.9815 23.3756 96.0408 23.3428C96.1054 23.31 96.1701 23.2936 96.2348 23.2936C96.2994 23.2936 96.391 23.3209 96.4557 23.3702C96.515 23.4194 96.5581 23.4796 96.5743 23.5453C96.5958 23.6109 96.6066 23.7258 96.6066 23.879V24.4207C96.6066 24.5246 96.6174 24.5903 96.6335 24.6176C96.6551 24.645 96.6928 24.6614 96.7521 24.6669V24.7216H96.0623V24.6669C96.1108 24.6614 96.1485 24.6395 96.1701 24.6067C96.1863 24.5793 96.197 24.5191 96.197 24.4207V23.8024C96.197 23.6875 96.197 23.6164 96.1863 23.589C96.1755 23.5617 96.1647 23.5398 96.1432 23.5234C96.1216 23.507 96.1 23.5015 96.0731 23.5015C96.0354 23.5015 95.9976 23.5124 95.9599 23.5398C95.9222 23.5671 95.8845 23.6164 95.8414 23.682V24.4207C95.8414 24.5191 95.8468 24.5793 95.8629 24.6067C95.8791 24.6395 95.9168 24.6614 95.9761 24.6669V24.7216H95.2863V24.6669C95.3456 24.6614 95.3833 24.6395 95.4103 24.6122C95.4264 24.5903 95.4372 24.5246 95.4372 24.4207V23.0145C95.4372 22.9106 95.4264 22.8449 95.4103 22.8176C95.3887 22.7902 95.351 22.7738 95.2917 22.7683V22.7136H95.8468H95.836Z" fill="#092B1F"/>
<path d="M95.8198 25.296L95.7713 25.3671L95.5558 25.2085L95.6043 25.1428L95.8198 25.3015V25.296Z" fill="#092B1F"/>
<path d="M94.893 25.9415L94.8121 25.9688L94.7205 25.7117L94.8014 25.6843L94.893 25.9415Z" fill="#092B1F"/>
<path d="M93.7936 26.1332H93.7128L93.7182 25.8596H93.799L93.7936 26.1332Z" fill="#092B1F"/>
<path d="M92.7051 25.9198L92.6296 25.8869L92.732 25.6353L92.8075 25.6681L92.7051 25.9198Z" fill="#092B1F"/>
<path d="M91.762 25.3015L91.7027 25.2413L91.8967 25.0498L91.956 25.11L91.762 25.3015Z" fill="#092B1F"/>
<path d="M91.1639 24.3275L91.1423 24.2454L91.401 24.1633L91.4225 24.2454L91.1639 24.3275Z" fill="#092B1F"/>
<path d="M91.0992 23.1841L91.1154 23.1021L91.3794 23.1622L91.3632 23.2443L91.0992 23.1841Z" fill="#092B1F"/>
<path d="M91.6003 22.1499L91.6542 22.0842L91.859 22.2648L91.8051 22.3304L91.6003 22.1499Z" fill="#092B1F"/>
<path d="M92.4787 21.4497L92.5542 21.4114L92.6673 21.6576L92.5919 21.6959L92.4787 21.4497Z" fill="#092B1F"/>
<path d="M93.5511 21.1488H93.632C93.632 21.1433 93.6535 21.4169 93.6535 21.4169H93.5727C93.5727 21.4223 93.5511 21.1488 93.5511 21.1488Z" fill="#092B1F"/>
<path d="M94.6612 21.2527L94.7421 21.2746L94.6666 21.5372L94.5858 21.5153L94.6612 21.2527Z" fill="#092B1F"/>
<path d="M95.6528 21.7781L95.7174 21.8328L95.545 22.0407L95.4803 21.986L95.6528 21.7781Z" fill="#092B1F"/>
<path d="M96.2617 25.0006L96.2994 25.0334C96.3264 25.0553 96.3426 25.0882 96.3533 25.121C96.3587 25.1483 96.3641 25.1702 96.3533 25.1866C96.3426 25.2085 96.3156 25.2523 96.2671 25.307C95.6743 25.9909 94.7744 26.3849 93.799 26.3849C92.0799 26.3849 90.6842 25.1538 90.6842 23.6383C90.6842 22.1227 92.0799 20.8917 93.799 20.8917C95.5181 20.8917 95.8576 21.3732 96.4342 22.1774C96.4881 22.2431 96.515 22.2923 96.5204 22.3197C96.5204 22.3635 96.4988 22.4072 96.4557 22.4455L96.4126 22.4784L96.4396 22.5112L96.9192 22.1009L96.8922 22.068L96.8545 22.1009C96.8276 22.1227 96.7952 22.1392 96.7629 22.1446C96.7359 22.1446 96.7144 22.1446 96.6982 22.1391C96.6767 22.1282 96.6389 22.0899 96.5958 22.0352C95.9815 21.1817 94.9361 20.6729 93.8044 20.6729C91.9722 20.6729 90.4848 22.0024 90.4848 23.6328C90.4848 25.2632 91.9722 26.5928 93.8044 26.5928C95.6366 26.5928 95.7983 26.1715 96.4342 25.4438C96.4934 25.3836 96.5312 25.3453 96.5635 25.3398C96.6066 25.3344 96.6497 25.3508 96.6982 25.3891L96.7359 25.4274L96.7629 25.3946L96.2994 24.9678L96.2725 25.0006H96.2617Z" fill="#092B1F"/>
<path d="M53.5871 9.83447L53.7973 12.4607H53.5871C53.3716 11.8041 53.0967 11.3117 52.7572 10.9834C52.2722 10.5074 51.6417 10.2667 50.8765 10.2667C50.1113 10.2667 49.0389 10.688 48.4946 11.5251C48.0419 12.2309 47.8102 13.0735 47.8102 14.0528C47.8102 15.0322 47.9611 15.5684 48.2629 16.2249C48.5647 16.8815 48.9581 17.3575 49.4484 17.6638C49.9388 17.9702 50.44 18.1234 50.9573 18.1234C51.4747 18.1234 51.5501 18.0851 51.8357 18.0085C52.1159 17.9319 52.3908 17.817 52.6494 17.6638V15.262C52.6494 14.8462 52.6171 14.5726 52.5578 14.4413C52.4932 14.31 52.3962 14.217 52.2668 14.1458C52.1375 14.0802 51.9058 14.0473 51.5771 14.0473V13.8121H54.7457V14.0473H54.5948C54.2823 14.0473 54.0667 14.1513 53.9482 14.3647C53.8673 14.5179 53.8296 14.8133 53.8296 15.262V17.8061C53.3662 18.0578 52.9081 18.2438 52.4608 18.3642C52.0082 18.4845 51.507 18.5447 50.9573 18.5447C49.373 18.5447 48.1713 18.0304 47.3522 17.0018C46.7378 16.2304 46.4307 15.3386 46.4307 14.3264C46.4307 13.3142 46.6031 12.8929 46.948 12.2254C47.3576 11.4266 47.9234 10.8138 48.6401 10.3871C49.2383 10.0314 49.9496 9.85089 50.7687 9.85089C51.5878 9.85089 51.3399 9.87277 51.5824 9.92201C51.8249 9.97125 52.1698 10.0807 52.6171 10.2448C52.8434 10.3324 52.9943 10.3761 53.0698 10.3761C53.1452 10.3761 53.2099 10.3378 53.2638 10.2667C53.3177 10.1956 53.35 10.0533 53.3608 9.84542H53.5817L53.5871 9.83447Z" fill="#092B1F"/>
<path d="M60.8298 10.2503V10.026H63.729V10.2503H63.4218C63.0985 10.2503 62.8506 10.3871 62.6782 10.6606C62.592 10.7865 62.5488 11.0819 62.5488 11.5415V14.9118C62.5488 15.7435 62.468 16.3945 62.3063 16.8541C62.1447 17.3137 61.8213 17.7076 61.3471 18.0359C60.8675 18.3642 60.2208 18.5283 59.4017 18.5283C58.5826 18.5283 57.8282 18.3697 57.3647 18.0578C56.9013 17.7405 56.5726 17.3192 56.3786 16.7885C56.2492 16.4274 56.1846 15.7435 56.1846 14.7422V11.4923C56.1846 10.9835 56.1145 10.6442 55.9744 10.4856C55.8343 10.3269 55.6133 10.2448 55.3008 10.2448H54.9936V10.0205H58.5341V10.2448H58.2216C57.8821 10.2448 57.6396 10.3543 57.4941 10.5676C57.3917 10.7154 57.3432 11.0218 57.3432 11.4868V15.1088C57.3432 15.4316 57.3701 15.8036 57.4294 16.2195C57.4887 16.6353 57.5911 16.9635 57.7473 17.1933C57.8982 17.4286 58.1192 17.6201 58.4102 17.7678C58.6958 17.921 59.0515 17.9921 59.4718 17.9921C59.8921 17.9921 60.4849 17.8718 60.9106 17.6365C61.331 17.4012 61.622 17.0949 61.7782 16.7283C61.9345 16.3562 62.01 15.7325 62.01 14.8462V11.4813C62.01 10.9616 61.9561 10.6388 61.8429 10.5075C61.6866 10.3269 61.4549 10.2394 61.1423 10.2394H60.8352L60.8298 10.2503Z" fill="#092B1F"/>
<path d="M69.5221 15.5519H66.3534L65.7983 16.865C65.6636 17.1878 65.5936 17.4285 65.5936 17.5872C65.5936 17.7459 65.6528 17.8279 65.7714 17.921C65.8899 18.0194 66.1486 18.0796 66.542 18.107V18.3313H63.9607V18.107C64.3056 18.0468 64.5266 17.9647 64.6236 17.8662C64.8283 17.6693 65.0547 17.2699 65.3079 16.668L68.191 9.82349H68.4012L71.2519 16.7392C71.4836 17.2972 71.6884 17.6583 71.877 17.8225C72.0656 17.9866 72.3243 18.0796 72.6584 18.1015V18.3258H69.4251V18.1015C69.7538 18.0851 69.9693 18.0304 70.0879 17.9374C70.2011 17.8444 70.2603 17.7295 70.2603 17.5927C70.2603 17.4559 70.1795 17.1276 70.0178 16.7392L69.5221 15.541V15.5519ZM69.3496 15.0978L67.9593 11.7384L66.5312 15.0978H69.3442H69.3496Z" fill="#092B1F"/>
<path d="M79.9819 10.0205V10.2448C79.6909 10.2995 79.47 10.3926 79.3245 10.5293C79.1089 10.7318 78.9203 11.0382 78.7586 11.4485L75.9025 18.5229H75.6816L72.6153 11.3555C72.459 10.9889 72.3458 10.7646 72.2812 10.6825C72.1788 10.5567 72.0548 10.4582 71.9093 10.3871C71.7638 10.316 71.5644 10.2722 71.3166 10.2503V10.026H74.6631V10.2503C74.2858 10.2886 74.038 10.3543 73.9248 10.4473C73.8116 10.5403 73.7577 10.6606 73.7577 10.8084C73.7577 10.9561 73.8493 11.3336 74.0379 11.7658L76.1234 16.6407L78.0581 11.826C78.2467 11.35 78.3437 11.0217 78.3437 10.8412C78.3437 10.6606 78.2844 10.6114 78.1658 10.502C78.0473 10.3926 77.8533 10.316 77.5731 10.2722C77.5515 10.2722 77.5192 10.2612 77.4707 10.2558V10.0315H79.9981L79.9819 10.0205Z" fill="#092B1F"/>
<path d="M82.7194 10.4745V13.7628H84.5193C84.9882 13.7628 85.3007 13.6916 85.457 13.5494C85.6672 13.3633 85.7857 13.0296 85.8073 12.5536H86.0282V15.4479H85.8073C85.7534 15.043 85.6941 14.7859 85.6402 14.671C85.5702 14.5287 85.4516 14.4138 85.2846 14.3318C85.1175 14.2497 84.8642 14.2114 84.5247 14.2114H82.7248V16.9525C82.7248 17.3191 82.741 17.5434 82.7733 17.6255C82.8057 17.7075 82.8596 17.7677 82.9404 17.817C83.0212 17.8662 83.1721 17.8881 83.3984 17.8881H84.7888C85.2522 17.8881 85.5863 17.8553 85.7965 17.7896C86.0067 17.7239 86.2061 17.5981 86.4001 17.4011C86.648 17.1495 86.9066 16.7665 87.1653 16.2522H87.4078L86.7018 18.3367H80.3914V18.1124H80.6824C80.8764 18.1124 81.0597 18.0632 81.2321 17.9702C81.3614 17.9045 81.4477 17.806 81.4962 17.6747C81.5447 17.5434 81.5662 17.2753 81.5662 16.8704V11.4703C81.5662 10.945 81.5123 10.6168 81.4099 10.4964C81.2644 10.3323 81.0219 10.2502 80.6824 10.2502H80.3914V10.0259H86.7018L86.7934 11.8478H86.5563C86.4701 11.4101 86.3785 11.1092 86.2761 10.9451C86.1737 10.7809 86.0228 10.6551 85.8181 10.573C85.6564 10.5128 85.3708 10.48 84.9666 10.48H82.7194V10.4745Z" fill="#092B1F"/>
<path d="M94.8444 10.0205L94.9361 11.9683H94.7043C94.6612 11.6236 94.6019 11.3774 94.5211 11.2297C94.3972 10.9944 94.2301 10.8193 94.0253 10.7044C93.8206 10.5895 93.5457 10.5348 93.2062 10.5348H92.053V16.8869C92.053 17.3958 92.1069 17.7186 92.2147 17.8444C92.3656 18.014 92.6027 18.1016 92.9206 18.1016H93.2062V18.3259H89.7358V18.1016H90.0268C90.3717 18.1016 90.6196 17.9976 90.7651 17.7842C90.8513 17.6529 90.8998 17.3575 90.8998 16.8869V10.5348H89.9136C89.531 10.5348 89.2616 10.5622 89.0999 10.6223C88.8897 10.6989 88.7119 10.8467 88.561 11.071C88.4101 11.2898 88.3239 11.5908 88.2969 11.9683H88.0652L88.1622 10.0205H94.8498H94.8444Z" fill="#092B1F"/>
<path d="M48.5323 26.5929V29.0167C48.5323 29.5419 48.5862 29.8647 48.6994 29.9906C48.8503 30.1711 49.082 30.2586 49.3946 30.2586H49.7071V30.483H46.1989V30.2586H46.5061C46.851 30.2586 47.0989 30.1437 47.2498 29.914C47.3306 29.7881 47.3683 29.4872 47.3683 29.0112V23.6384C47.3683 23.1132 47.3144 22.7904 47.2067 22.6645C47.0504 22.484 46.8187 22.3964 46.5061 22.3964H46.1989V22.1721H49.2006C49.9334 22.1721 50.5101 22.2487 50.9358 22.4019C51.3561 22.5551 51.7172 22.8123 52.0028 23.1788C52.2938 23.5454 52.4393 23.9722 52.4393 24.4755C52.4393 24.9789 52.2183 25.7066 51.7764 26.1333C51.3346 26.5601 50.7148 26.7735 49.9065 26.7735C49.0982 26.7735 49.4969 26.757 49.2652 26.7297C49.0335 26.7023 48.791 26.6586 48.5269 26.5984L48.5323 26.5929ZM48.5323 26.2427C48.7479 26.281 48.9365 26.3139 49.0982 26.3357C49.2652 26.3576 49.4053 26.3686 49.5185 26.3686C49.9388 26.3686 50.2999 26.2044 50.6017 25.8762C50.9034 25.5479 51.0597 25.1211 51.0597 24.5959C51.0597 24.0706 50.9897 23.901 50.8442 23.5946C50.6987 23.2883 50.4939 23.053 50.2298 22.8998C49.9658 22.7466 49.664 22.67 49.3245 22.67C48.985 22.67 48.8557 22.7083 48.5323 22.7849V26.2427Z" fill="#092B1F"/>
<path d="M55.4571 22.6208V25.909H57.2569C57.7258 25.909 58.0383 25.8379 58.1946 25.6956C58.4048 25.5096 58.5233 25.1758 58.5449 24.6998H58.7658V27.5941H58.5449C58.491 27.1893 58.4317 26.9321 58.3778 26.8172C58.3078 26.675 58.1892 26.5601 58.0222 26.478C57.8551 26.3959 57.6018 26.3576 57.2623 26.3576H55.4624V29.0987C55.4624 29.4653 55.4786 29.6896 55.5109 29.7717C55.5433 29.8538 55.5972 29.914 55.678 29.9632C55.7588 30.0124 55.9097 30.0343 56.1361 30.0343H57.5264C57.9898 30.0343 58.3239 30.0015 58.5341 29.9358C58.7443 29.8702 58.9437 29.7443 59.1377 29.5474C59.3856 29.2957 59.6442 28.9127 59.9029 28.3984H60.1454L59.4394 30.483H53.1291V30.2586H53.4201C53.6141 30.2586 53.7973 30.2094 53.9697 30.1164C54.0991 30.0507 54.1853 29.9523 54.2338 29.8209C54.2823 29.6896 54.3038 29.4215 54.3038 29.0167V23.6165C54.3038 23.0913 54.2499 22.763 54.1476 22.6426C54.0021 22.4785 53.7596 22.3964 53.4201 22.3964H53.1291V22.1721H59.4394L59.5311 23.994H59.2939C59.2077 23.5563 59.1161 23.2554 59.0137 23.0913C58.9113 22.9272 58.7604 22.8013 58.5557 22.7192C58.394 22.6591 58.1084 22.6262 57.7042 22.6262H55.4571V22.6208Z" fill="#092B1F"/>
<path d="M67.5874 22.1667L67.6791 24.1145H67.4473C67.4042 23.7698 67.3449 23.5236 67.2641 23.3759C67.1402 23.1406 66.9731 22.9656 66.7683 22.8507C66.5636 22.7358 66.2887 22.681 65.9492 22.681H64.796V29.0332C64.796 29.542 64.8499 29.8648 64.9577 29.9907C65.1086 30.1603 65.3457 30.2478 65.6636 30.2478H65.9492V30.4721H62.4788V30.2478H62.7698C63.1147 30.2478 63.3626 30.1439 63.5081 29.9305C63.5943 29.7992 63.6428 29.5037 63.6428 29.0332V22.681H62.6566C62.274 22.681 62.0046 22.7084 61.8429 22.7686C61.6327 22.8452 61.4549 22.9929 61.304 23.2172C61.1531 23.4361 61.0669 23.737 61.0399 24.1145H60.8082L60.9052 22.1667H67.5928H67.5874Z" fill="#092B1F"/>
</g>
<defs>
<clipPath id="clip0_8168_6566">
<rect width="97" height="40" fill="white"/>
</clipPath>
</defs>
</svg>
