<svg width="210" height="34" viewBox="0 0 210 34" fill="none" xmlns="http://www.w3.org/2000/svg">
<path d="M16.8307 1.68391C17.127 0.772029 18.417 0.772029 18.7133 1.68391L21.9941 11.7812C22.1266 12.189 22.5067 12.4651 22.9354 12.4651H33.5523C34.5111 12.4651 34.9098 13.692 34.1341 14.2556L25.5449 20.496C25.198 20.7481 25.0528 21.1948 25.1853 21.6026L28.4661 31.6999C28.7624 32.6118 27.7187 33.3701 26.943 32.8065L18.3538 26.566C18.0069 26.314 17.5371 26.314 17.1902 26.566L8.60099 32.8065C7.82529 33.3701 6.7816 32.6118 7.07789 31.6999L10.3587 21.6026C10.4912 21.1948 10.346 20.7481 9.99913 20.496L1.40989 14.2556C0.634199 13.692 1.03285 12.4651 1.99167 12.4651H12.6085C13.0373 12.4651 13.4174 12.189 13.5499 11.7812L16.8307 1.68391Z" fill="#FFCE73"/>
<path d="M103.93 1.68391C104.227 0.772029 105.517 0.772029 105.813 1.68391L109.094 11.7812C109.226 12.189 109.606 12.4651 110.035 12.4651H120.652C121.611 12.4651 122.009 13.692 121.234 14.2556L112.645 20.496C112.298 20.7481 112.152 21.1948 112.285 21.6026L115.566 31.6999C115.862 32.6118 114.818 33.3701 114.043 32.8065L105.453 26.566C105.107 26.314 104.637 26.314 104.29 26.566L95.7007 32.8065C94.925 33.3701 93.8813 32.6118 94.1776 31.6999L97.4584 21.6026C97.5909 21.1948 97.4457 20.7481 97.0988 20.496L88.5096 14.2556C87.7339 13.692 88.1325 12.4651 89.0914 12.4651H99.7082C100.137 12.4651 100.517 12.189 100.65 11.7812L103.93 1.68391Z" fill="#FFCE73"/>
<path d="M60.3805 1.68391C60.6768 0.772029 61.9669 0.772029 62.2632 1.68391L65.544 11.7812C65.6765 12.189 66.0565 12.4651 66.4853 12.4651H77.1022C78.061 12.4651 78.4596 13.692 77.6839 14.2556L69.0947 20.496C68.7478 20.7481 68.6026 21.1948 68.7352 21.6026L72.016 31.6999C72.3122 32.6118 71.2685 33.3701 70.4929 32.8065L61.9036 26.566C61.5567 26.314 61.087 26.314 60.7401 26.566L52.1508 32.8065C51.3751 33.3701 50.3314 32.6118 50.6277 31.6999L53.9085 21.6026C54.041 21.1948 53.8959 20.7481 53.549 20.496L44.9597 14.2556C44.184 13.692 44.5827 12.4651 45.5415 12.4651H56.1584C56.5872 12.4651 56.9672 12.189 57.0997 11.7812L60.3805 1.68391Z" fill="#FFCE73"/>
<path d="M147.48 1.68391C147.776 0.772029 149.067 0.772029 149.363 1.68391L152.644 11.7812C152.776 12.189 153.156 12.4651 153.585 12.4651H164.202C165.161 12.4651 165.559 13.692 164.784 14.2556L156.194 20.496C155.847 20.7481 155.702 21.1948 155.835 21.6026L159.116 31.6999C159.412 32.6118 158.368 33.3701 157.593 32.8065L149.003 26.566C148.656 26.314 148.187 26.314 147.84 26.566L139.251 32.8065C138.475 33.3701 137.431 32.6118 137.727 31.6999L141.008 21.6026C141.141 21.1948 140.996 20.7481 140.649 20.496L132.059 14.2556C131.284 13.692 131.682 12.4651 132.641 12.4651H143.258C143.687 12.4651 144.067 12.189 144.199 11.7812L147.48 1.68391Z" fill="#FFCE73"/>
<path fill-rule="evenodd" clip-rule="evenodd" d="M191.971 1C191.575 1.00002 191.178 1.22799 191.03 1.68391L187.749 11.7812C187.617 12.189 187.237 12.4651 186.808 12.4651H176.191C175.232 12.4651 174.834 13.692 175.609 14.2556L184.199 20.496C184.545 20.7481 184.691 21.1948 184.558 21.6026L181.277 31.6999C180.981 32.6118 182.025 33.3701 182.8 32.8065L191.39 26.566C191.563 26.44 191.767 26.377 191.971 26.377V1Z" fill="#FFCE73"/>
<path d="M191.971 26.377C192.175 26.377 192.38 26.44 192.553 26.566L201.142 32.8065C201.918 33.3701 202.962 32.6118 202.665 31.6999L199.385 21.6026C199.252 21.1948 199.397 20.7481 199.744 20.496L208.333 14.2556C209.109 13.692 208.711 12.4651 207.752 12.4651H197.135C196.706 12.4651 196.326 12.189 196.194 11.7812L192.913 1.68391C192.765 1.22795 192.368 0.999981 191.971 1M191.971 26.377C191.767 26.377 191.563 26.44 191.39 26.566L182.8 32.8065C182.025 33.3701 180.981 32.6118 181.277 31.6999L184.558 21.6026C184.691 21.1948 184.545 20.7481 184.199 20.496L175.609 14.2556C174.834 13.692 175.232 12.4651 176.191 12.4651H186.808C187.237 12.4651 187.617 12.189 187.749 11.7812L191.03 1.68391C191.178 1.22799 191.575 1.00002 191.971 1M191.971 26.377V1M12.6085 12.4651H1.99167C1.03285 12.4651 0.634199 13.692 1.40989 14.2556L9.99913 20.496C10.346 20.7481 10.4912 21.1948 10.3587 21.6026L7.07789 31.6999C6.7816 32.6118 7.82529 33.3701 8.60099 32.8065L17.1902 26.566C17.5371 26.314 18.0069 26.314 18.3538 26.566L26.943 32.8065C27.7187 33.3701 28.7624 32.6118 28.4661 31.6999L25.1853 21.6026C25.0528 21.1948 25.198 20.7481 25.5449 20.496L34.1341 14.2556C34.9098 13.692 34.5111 12.4651 33.5523 12.4651H22.9354C22.5067 12.4651 22.1266 12.189 21.9941 11.7812L18.7133 1.68391C18.417 0.772029 17.127 0.772029 16.8307 1.68391L13.5499 11.7812C13.4174 12.189 13.0373 12.4651 12.6085 12.4651ZM99.7082 12.4651H89.0914C88.1325 12.4651 87.7339 13.692 88.5096 14.2556L97.0988 20.496C97.4457 20.7481 97.5909 21.1948 97.4584 21.6026L94.1776 31.6999C93.8813 32.6118 94.925 33.3701 95.7007 32.8065L104.29 26.566C104.637 26.314 105.107 26.314 105.453 26.566L114.043 32.8065C114.818 33.3701 115.862 32.6118 115.566 31.6999L112.285 21.6026C112.152 21.1948 112.298 20.7481 112.645 20.496L121.234 14.2556C122.009 13.692 121.611 12.4651 120.652 12.4651H110.035C109.606 12.4651 109.226 12.189 109.094 11.7812L105.813 1.68391C105.517 0.772029 104.227 0.772029 103.93 1.68391L100.65 11.7812C100.517 12.189 100.137 12.4651 99.7082 12.4651ZM56.1584 12.4651H45.5415C44.5827 12.4651 44.184 13.692 44.9597 14.2556L53.549 20.496C53.8959 20.7481 54.041 21.1948 53.9085 21.6026L50.6277 31.6999C50.3314 32.6118 51.3751 33.3701 52.1508 32.8065L60.7401 26.566C61.087 26.314 61.5567 26.314 61.9036 26.566L70.4929 32.8065C71.2686 33.3701 72.3122 32.6118 72.016 31.6999L68.7352 21.6026C68.6026 21.1948 68.7478 20.7481 69.0947 20.496L77.6839 14.2556C78.4596 13.692 78.061 12.4651 77.1022 12.4651H66.4853C66.0565 12.4651 65.6765 12.189 65.544 11.7812L62.2632 1.68391C61.9669 0.772029 60.6768 0.772029 60.3805 1.68391L57.0997 11.7812C56.9672 12.189 56.5872 12.4651 56.1584 12.4651ZM143.258 12.4651H132.641C131.682 12.4651 131.284 13.692 132.059 14.2556L140.649 20.496C140.996 20.7481 141.141 21.1948 141.008 21.6026L137.727 31.6999C137.431 32.6118 138.475 33.3701 139.251 32.8065L147.84 26.566C148.187 26.314 148.656 26.314 149.003 26.566L157.593 32.8065C158.368 33.3701 159.412 32.6118 159.116 31.6999L155.835 21.6026C155.702 21.1948 155.847 20.7481 156.194 20.496L164.784 14.2556C165.559 13.692 165.161 12.4651 164.202 12.4651H153.585C153.156 12.4651 152.776 12.189 152.644 11.7812L149.363 1.68391C149.067 0.772029 147.776 0.772029 147.48 1.68391L144.199 11.7812C144.067 12.189 143.687 12.4651 143.258 12.4651Z" stroke="#FFCE73"/>
</svg>
